<?xml version="1.0" encoding="UTF-8"?>
<!DOCTYPE svg PUBLIC "-//W3C//DTD SVG 1.0//EN" "http://www.w3.org/TR/2001/REC-SVG-20010904/DTD/svg10.dtd">
<!-- Creator: CorelDRAW 2017 -->
<svg xmlns="http://www.w3.org/2000/svg" xml:space="preserve" width="580px" height="580px" version="1.0" shape-rendering="geometricPrecision" text-rendering="geometricPrecision" image-rendering="optimizeQuality" fill-rule="evenodd" clip-rule="evenodd"
viewBox="0 0 5717 5717"
 xmlns:xlink="http://www.w3.org/1999/xlink">
 <g id="Layer_x0020_1">
  <metadata id="CorelCorpID_0Corel-Layer"/>
  <path fill="#FEFEFE" d="M0 0l5717 0 0 5717 -5717 0 0 -5717zm1008 5372c-22,0 -44,-1 -65,-4 -21,-4 -40,-9 -58,-16 -18,-6 -35,-15 -50,-26 -15,-10 -27,-23 -38,-39 -11,-15 -19,-32 -25,-52 -6,-20 -9,-42 -9,-68 0,-18 1,-35 2,-51 2,-17 4,-33 8,-49 3,-16 7,-32 12,-49 6,-16 12,-34 20,-52l79 33c-6,15 -11,28 -15,40 -5,12 -8,23 -11,33 -3,9 -5,18 -7,27 -1,8 -3,16 -4,23 0,8 -1,15 -1,22 0,8 0,15 0,23 0,16 2,29 7,41 5,11 12,20 20,28 9,8 18,15 29,20 11,5 23,9 35,11 12,3 24,5 36,6 12,1 24,1 35,1 5,0 13,0 24,-1 10,0 22,-2 34,-3 13,-2 25,-4 38,-7 14,-3 25,-7 36,-11 11,-4 20,-9 26,-15 7,-6 11,-12 11,-20 -15,-11 -36,-21 -61,-30 -26,-9 -58,-15 -95,-20l13 -94 241 0 11 0 43 0c-7,-12 -12,-24 -15,-36 -3,-13 -4,-26 -4,-40 0,-19 4,-36 12,-54 8,-17 19,-33 32,-47 14,-14 30,-26 48,-35 19,-9 38,-15 59,-16 11,-1 21,-1 31,0 9,1 19,2 27,4 9,2 17,5 25,8 7,3 14,6 20,9 8,4 15,9 21,13 7,4 13,9 19,14l-39 74c-5,-3 -10,-6 -16,-8 -5,-3 -11,-5 -17,-7 -10,-3 -21,-6 -33,-9 -12,-2 -25,-2 -38,-1 -8,1 -17,4 -25,7 -8,4 -15,9 -22,14 -6,5 -11,12 -15,18 -3,7 -5,14 -5,21 0,10 3,19 9,26 6,8 14,14 24,19 9,5 20,9 31,11 12,3 23,4 34,3 12,-1 24,-2 37,-4 12,-2 24,-4 35,-6 7,-1 13,-2 19,-3 7,-2 13,-3 20,-4l12 96c-13,3 -30,7 -50,11 -20,3 -42,7 -67,10 -25,3 -53,5 -82,7 -29,2 -61,3 -94,3l-35 0 -12 0 -28 0c5,8 8,16 10,25 2,8 3,15 3,21 -1,20 -6,37 -15,52 -8,15 -20,28 -34,40 -13,12 -29,21 -46,29 -18,8 -36,15 -54,20 -19,5 -37,9 -55,11 -17,2 -34,3 -48,3zm3270 -1563c-49,0 -90,-41 -90,-90 0,-49 41,-89 90,-89 49,0 89,40 89,89 0,49 -40,90 -89,90zm-647 -1227c0,-46 38,-84 84,-84 46,0 84,38 84,84 0,46 -38,84 -84,84 -46,0 -84,-38 -84,-84zm-330 490c0,-27 23,-50 50,-50 28,0 50,23 50,50 0,28 -22,50 -50,50 -27,0 -50,-22 -50,-50zm467 -972c-27,0 -50,-22 -50,-50 0,-27 23,-50 50,-50 28,0 50,23 50,50 0,28 -22,50 -50,50zm-335 -434c-40,0 -72,-32 -72,-72 0,-40 32,-73 72,-73 40,0 73,33 73,73 0,40 -33,72 -73,72zm-153 332l0 605 -120 119 -605 0 -119 -119 0 -605 119 -120 605 0 120 120zm-1279 500c46,0 84,38 84,84 0,46 -38,84 -84,84 -46,0 -84,-38 -84,-84 0,-46 38,-84 84,-84zm-562 1311c-49,0 -89,-41 -89,-90 0,-49 40,-89 89,-89 50,0 90,40 90,89 0,49 -40,90 -90,90zm509 -1709c-28,0 -50,-22 -50,-50 0,-27 22,-50 50,-50 27,0 50,23 50,50 0,28 -23,50 -50,50zm-598 -1218c0,-50 40,-90 89,-90 50,0 90,40 90,90 0,49 -40,89 -90,89 -49,0 -89,-40 -89,-89zm933 639c40,0 72,33 72,73 0,40 -32,72 -72,72 -41,0 -73,-32 -73,-72 0,-40 32,-73 73,-73zm82 1501c27,0 49,23 49,50 0,28 -22,50 -49,50 -28,0 -50,-22 -50,-50 0,-27 22,-50 50,-50zm1913 -2230c49,0 89,40 89,90 0,49 -40,89 -89,89 -49,0 -90,-40 -90,-89 0,-50 41,-90 90,-90zm0 2710c-37,0 -71,9 -102,25l-170 -170 0 -96c72,-75 116,-177 116,-289 0,-58 -12,-115 -35,-168 134,-33 234,-155 234,-299l0 -569c0,-163 -126,-296 -286,-308 7,-25 11,-52 11,-79 0,-54 -15,-105 -40,-149l0 -156 170 -170c31,16 65,25 102,25 120,0 217,-98 217,-217 0,-120 -97,-218 -217,-218 -120,0 -217,98 -217,218 0,36 9,71 25,101l-189 189c-12,12 -19,29 -19,46l0 62c-40,-20 -85,-31 -133,-31 -26,0 -51,3 -76,9 -38,-163 -185,-285 -360,-285 -203,0 -369,166 -369,370l0 408 -411 0c-17,0 -33,6 -45,18l-157 157c-12,12 -19,28 -19,45l0 658c0,17 7,33 19,45l157 157c12,12 28,19 45,19l119 0 0 405c0,135 -109,244 -244,244 -96,0 -183,-56 -222,-144 56,-25 106,-62 147,-109 11,3 23,4 36,4 98,0 177,-80 177,-178 0,-98 -79,-177 -177,-177 -98,0 -178,79 -178,177 0,39 12,74 33,104 -54,55 -129,87 -208,87 -160,0 -291,-130 -291,-291 0,-61 18,-118 53,-167 38,-9 75,-26 107,-48 34,23 75,37 120,37 117,0 212,-95 212,-212 0,-117 -95,-212 -212,-212 -117,0 -212,95 -212,212 0,26 5,51 13,74 -29,19 -63,30 -99,30 -100,0 -181,-81 -181,-181l0 -569c0,-100 81,-181 181,-181 83,0 153,56 174,132 -63,28 -107,90 -107,163 0,98 80,178 178,178 98,0 177,-80 177,-178 0,-77 -49,-143 -118,-167 -18,-100 -83,-184 -172,-226 -24,-30 -37,-68 -37,-108 0,-95 77,-173 173,-173 23,0 46,5 67,14 5,51 24,99 55,139 -7,21 -11,42 -11,65 0,110 90,200 201,200 110,0 200,-90 200,-200 0,-111 -90,-201 -200,-201 -39,0 -75,11 -106,30 -8,-19 -13,-39 -13,-60l0 -8c1,-2 1,-5 0,-7l0 -5c0,-133 109,-242 242,-242 134,0 242,109 242,242 0,35 29,64 64,64 35,0 64,-29 64,-64 0,-204 -166,-370 -370,-370 -174,0 -321,122 -359,285 -25,-6 -51,-9 -76,-9 -48,0 -92,10 -132,30l0 -61c0,-17 -7,-34 -19,-46l-189 -189c16,-30 26,-65 26,-101 0,-120 -98,-218 -218,-218 -120,0 -217,98 -217,218 0,119 97,217 217,217 37,0 71,-9 102,-25l170 170 0 153c-26,45 -41,97 -41,152 0,27 3,54 10,79 -159,12 -285,145 -285,308l0 569c0,144 99,266 233,299 -22,53 -35,110 -35,168 0,113 45,216 118,291l0 94 -170 170c-31,-16 -65,-25 -102,-25 -120,0 -217,97 -217,217 0,120 97,217 217,217 120,0 218,-97 218,-217 0,-37 -10,-71 -26,-102l189 -189c12,-12 19,-28 19,-45l0 -30c53,24 111,38 173,38 15,0 30,-1 45,-3l8 18c59,134 192,221 339,221 205,0 372,-167 372,-372l0 -405 411 0c17,0 33,-7 45,-19l157 -157c12,-12 18,-28 18,-45l0 -658c0,-17 -6,-33 -18,-45l-157 -157c-12,-12 -28,-18 -45,-18l-119 0 0 -408c0,-133 108,-242 241,-242 134,0 242,109 242,242l0 5c0,2 0,5 0,7l0 8c0,21 -4,41 -13,60 -30,-19 -66,-30 -105,-30 -110,0 -200,90 -200,201 0,110 90,200 200,200 111,0 201,-90 201,-200 0,-23 -4,-44 -11,-65 31,-40 50,-88 55,-139 21,-9 44,-14 67,-14 96,0 173,78 173,173 0,40 -13,78 -37,108 -89,42 -155,126 -172,226 -69,24 -119,90 -119,167 0,98 80,178 178,178 98,0 178,-80 178,-178 0,-73 -44,-136 -107,-163 21,-76 91,-132 174,-132 99,0 180,81 180,181l0 569c0,100 -81,181 -180,181 -36,0 -70,-11 -100,-30 9,-23 14,-48 14,-74 0,-117 -95,-212 -212,-212 -117,0 -212,95 -212,212 0,117 95,212 212,212 44,0 85,-14 120,-37 32,22 68,39 107,48 34,49 53,106 53,167 0,161 -131,291 -291,291 -79,0 -154,-32 -208,-87 20,-30 33,-65 33,-104 0,-98 -80,-177 -178,-177 -98,0 -177,79 -177,177 0,98 79,178 177,178 12,0 24,-1 36,-4 41,47 91,84 147,109 -39,88 -127,144 -223,144 -134,0 -243,-109 -243,-244 0,-35 -29,-63 -64,-63 -36,0 -64,28 -64,63 0,205 166,372 371,372 147,0 281,-87 340,-221l8 -18c15,2 29,3 45,3 62,0 121,-14 174,-38l0 30c0,17 7,33 19,45l189 189c-16,31 -25,65 -25,102 0,120 97,217 217,217 120,0 217,-97 217,-217 0,-120 -97,-217 -217,-217zm-1500 -1148l-57 0 28 -77 29 77zm-205 209c33,13 70,-4 82,-37l17 -45 155 0 17 45c10,26 34,41 60,41 7,0 15,-1 22,-4 33,-12 50,-49 37,-82l-154 -407c-9,-24 -33,-41 -60,-41 -26,0 -50,17 -59,41l-154 407c-13,33 4,70 37,82zm547 4c36,0 64,-28 64,-64l0 -406c0,-35 -28,-64 -64,-64 -35,0 -64,29 -64,64l0 406c0,36 29,64 64,64zm-116 522c16,0 33,-6 45,-18 12,-12 19,-29 19,-46 0,-16 -7,-33 -19,-45 -12,-12 -29,-18 -45,-18 -17,0 -34,6 -46,18 -11,12 -18,29 -18,45 0,17 7,34 18,46 12,12 29,18 46,18zm-292 -1562c-17,0 -33,6 -45,18 -12,12 -19,29 -19,45 0,17 7,34 19,46 12,12 28,18 45,18 17,0 33,-6 45,-18 12,-12 19,-29 19,-46 0,-16 -7,-33 -19,-45 -12,-12 -28,-18 -45,-18zm1794 3546l7 0c2,0 5,0 8,0 3,0 6,-1 11,-1 4,0 10,0 18,-1 -7,-12 -13,-25 -17,-39 -3,-14 -5,-28 -5,-42 0,-22 4,-43 12,-63 9,-20 21,-37 38,-52l-16 -9 59 -88c26,14 52,27 77,39 26,12 50,24 73,34 19,9 37,17 52,24 15,7 29,14 41,20 12,7 23,14 33,22 9,7 18,16 27,26 11,13 18,28 23,44 5,16 7,32 7,47 0,23 -6,45 -18,65 -12,20 -29,38 -52,51 -6,4 -14,7 -24,10 -9,3 -19,5 -29,7 -10,1 -20,3 -30,4 -10,0 -19,1 -26,1 -9,0 -18,-1 -28,-1 -10,-1 -20,-2 -31,-4 -10,-1 -20,-3 -29,-6 -10,-2 -19,-5 -27,-8 -10,3 -21,5 -33,7 -13,3 -25,5 -39,6 -13,2 -27,3 -41,4 -14,0 -28,1 -41,1l0 0 -1 0 -11 0 -8 0c-8,30 -21,58 -38,82 -18,25 -39,46 -63,65 -25,18 -52,33 -82,45 -30,12 -61,20 -94,25l-23 -94c29,-6 56,-14 80,-22 23,-9 44,-19 62,-30 19,-10 33,-22 45,-34 12,-12 21,-25 25,-37 -8,0 -18,0 -28,-1 -10,0 -18,0 -24,-1 -20,-1 -39,-5 -56,-11 -16,-6 -31,-15 -43,-25 -12,-11 -21,-24 -28,-39 -6,-15 -10,-33 -10,-53 0,-12 2,-25 4,-38 3,-13 7,-26 12,-39 5,-12 11,-24 19,-35 7,-12 16,-21 25,-30 10,-8 20,-15 32,-20 11,-5 23,-7 37,-7 15,0 30,3 43,9 13,5 25,13 36,23 11,9 21,21 30,34 8,13 16,27 22,42 6,15 11,30 15,46 4,16 7,32 9,47l1 0 12 0zm167 -151c-7,-1 -14,1 -22,6 -7,5 -14,11 -20,19 -6,8 -11,16 -15,26 -4,9 -5,18 -4,26 0,5 2,11 6,16 3,6 8,11 12,16 5,6 10,10 16,14 6,4 11,7 15,9 8,-1 16,-3 23,-6 8,-2 15,-7 21,-12 6,-6 11,-14 14,-23 4,-9 6,-20 6,-33 0,-7 -2,-14 -6,-20 -4,-7 -8,-13 -14,-18 -5,-6 -11,-10 -17,-14 -6,-3 -11,-6 -15,-6zm133 45c0,10 -1,20 -3,31 -2,10 -5,20 -8,30 -4,9 -8,19 -12,27 -5,9 -9,17 -14,25l2 0c16,0 30,-1 42,-2 13,-1 24,-3 33,-7 9,-3 17,-8 22,-14 5,-6 9,-14 10,-24 0,-5 -2,-11 -6,-17 -5,-5 -11,-11 -18,-17 -7,-6 -15,-12 -24,-17 -8,-6 -16,-11 -24,-15zm-468 3c-5,-1 -10,1 -15,5 -6,3 -11,8 -16,15 -4,6 -8,14 -12,21 -3,8 -5,16 -4,23 0,7 2,13 6,17 5,5 10,9 17,12 7,2 15,5 23,6 9,2 17,3 26,3 8,1 16,1 23,1l20 0c-4,-13 -7,-25 -11,-37 -5,-11 -9,-22 -15,-31 -6,-9 -12,-17 -19,-23 -7,-6 -15,-10 -23,-12zm-224 -125c2,2 4,7 7,13 3,7 7,15 11,24 4,9 8,19 13,31 5,11 9,23 12,35 4,13 7,25 9,38 3,13 4,26 4,38 0,21 -3,39 -9,57 -6,18 -15,33 -26,46 -11,13 -25,24 -42,31 -17,8 -36,12 -58,12 -19,0 -34,-3 -46,-10 -12,-6 -22,-15 -30,-26 -4,6 -9,11 -14,15 -5,4 -11,8 -17,11 -7,4 -15,6 -24,8 -9,1 -19,2 -32,2 -9,0 -16,0 -24,-2 -7,-1 -13,-2 -19,-4 -1,24 -4,46 -11,66 -7,19 -17,37 -29,53 -13,15 -27,29 -43,40 -17,12 -35,22 -54,29 -19,8 -38,13 -59,17 -21,4 -41,6 -62,6 -31,0 -61,-6 -87,-16 -27,-11 -50,-25 -70,-44 -19,-19 -34,-42 -45,-68 -11,-26 -17,-56 -17,-88 1,-18 4,-37 8,-56 4,-20 10,-39 17,-57 7,-19 15,-37 23,-53 9,-17 17,-32 26,-46l68 52c-8,12 -15,25 -22,39 -7,14 -13,27 -19,41 -5,14 -9,28 -13,42 -3,14 -4,28 -4,41 -1,16 2,30 9,44 7,14 16,26 29,36 12,11 26,19 43,25 17,6 34,9 53,9 21,0 41,-2 59,-6 18,-4 34,-9 48,-16 14,-7 25,-15 35,-25 9,-10 16,-21 20,-33l0 1c5,-16 8,-34 8,-52 0,-14 -2,-28 -6,-42 -4,-15 -9,-29 -15,-44 -7,-14 -13,-29 -21,-43 -7,-15 -15,-30 -22,-45l85 -47c5,12 10,24 16,36 5,13 10,25 16,36 5,11 11,22 17,31 6,10 11,18 18,25 6,7 12,12 19,16 7,3 14,4 21,3 9,-1 16,-4 21,-9 6,-5 10,-11 13,-18 2,-7 4,-15 5,-24 1,-9 1,-18 0,-27 0,-10 -1,-19 -2,-28 -1,-9 -1,-17 -2,-25l85 -11c2,6 3,14 4,23 1,9 2,18 4,28 1,10 3,20 5,30 2,10 5,19 8,28 4,9 8,16 13,23 5,6 12,10 20,13 6,0 12,-1 17,-3 6,-3 11,-6 15,-11 4,-4 7,-10 10,-17 2,-6 3,-14 3,-23 0,-7 -1,-16 -4,-26 -3,-10 -7,-20 -11,-31 -5,-12 -10,-24 -17,-36 -6,-13 -13,-25 -20,-38l79 -44zm-172 -63l-58 58 -60 -60 59 -59 59 58 58 -58 60 60 -59 59 -59 -58zm55 -90l-55 54 -55 -55 55 -55 55 56zm-965 478c-12,0 -25,-1 -38,-4 -13,-3 -26,-6 -39,-10 -12,-5 -25,-10 -36,-15 -12,-6 -22,-12 -31,-18 -7,9 -14,17 -22,23 -8,6 -16,11 -25,15 -9,3 -18,6 -28,8 -10,1 -22,2 -33,2l-3 0 -13 0 -84 0c-11,0 -21,0 -29,0 -8,-1 -16,-1 -23,-2 -6,0 -13,-1 -18,-2 -5,-1 -10,-2 -15,-4 -20,5 -40,9 -61,11 -20,2 -40,3 -59,3 -20,0 -39,-1 -55,-2 -16,-1 -31,-4 -45,-7 -14,-4 -27,-9 -39,-15 -12,-7 -24,-15 -37,-26 -15,15 -32,26 -52,33 -19,7 -42,10 -68,11l0 0 -3 0 -3 0 -1 0 -5 0 0 0c-18,-1 -33,-3 -45,-9 -14,-5 -26,-13 -36,-22 -15,11 -33,18 -53,23 -20,5 -43,8 -72,8l0 0 -12 0 -7 0c-8,30 -21,58 -39,82 -17,25 -38,46 -63,65 -24,18 -52,33 -82,45 -30,12 -61,20 -93,25l-23 -94c29,-6 55,-14 79,-22 24,-9 45,-19 63,-30 18,-10 33,-22 45,-34 12,-12 20,-25 25,-37 -9,0 -18,0 -28,-1 -10,0 -18,0 -25,-1 -20,-1 -39,-5 -55,-11 -17,-6 -31,-15 -43,-25 -12,-11 -22,-24 -28,-39 -7,-15 -10,-33 -10,-53 0,-12 1,-25 4,-38 3,-13 6,-26 11,-39 5,-12 12,-24 19,-35 8,-12 16,-21 26,-30 9,-8 20,-15 31,-20 12,-5 24,-7 37,-7 16,0 30,3 43,9 14,5 26,13 37,23 11,9 20,21 29,34 9,13 16,27 22,42 7,15 12,30 16,46 4,16 7,32 8,47l1 0 12 0 0 0c28,0 50,-5 64,-14 14,-9 22,-23 22,-41 0,-7 -1,-15 -3,-27 -2,-11 -5,-25 -10,-44l87 -21c4,11 6,21 8,30 3,9 4,17 6,24 1,7 2,14 2,20 1,6 1,12 2,18 0,5 1,11 2,18 1,7 2,12 5,18 2,6 5,10 9,14 5,3 10,5 17,5l0 0 1 0 0 0 1 0 0 0 1 0c9,0 17,-1 24,-2 7,-1 13,-3 18,-5 5,-3 9,-5 12,-8 3,-2 5,-4 7,-7l-1 1c3,-5 6,-10 9,-15 3,-6 6,-14 9,-23 4,-10 7,-22 11,-36 5,-15 9,-33 14,-55l81 27c-2,7 -4,15 -6,22 -2,7 -3,14 -4,21 0,7 0,13 0,20 1,7 3,14 6,22 8,-15 17,-29 27,-43 9,-14 19,-28 30,-40 11,-13 23,-25 36,-36 13,-11 27,-20 42,-28 16,-8 32,-14 51,-19 18,-5 38,-7 60,-7 25,0 47,4 66,12 19,9 35,20 48,34 13,14 22,30 29,47 6,18 8,35 8,53 -1,13 -3,24 -6,35 -4,11 -8,21 -13,30l31 0 13 0 3 0c13,0 25,-3 34,-8 9,-6 17,-13 24,-22 6,-8 12,-18 17,-29 5,-10 11,-21 16,-31 6,-12 13,-25 21,-37 8,-13 16,-24 27,-34 10,-10 21,-19 34,-25 12,-6 27,-9 42,-9 22,0 41,5 56,15 16,10 29,23 39,39 10,16 17,34 22,55 5,20 7,41 7,62 0,17 -2,33 -7,48 -5,15 -12,28 -20,39 -9,10 -18,19 -28,25 -11,6 -21,9 -32,9zm-39 -198c-6,0 -12,2 -17,7 -5,4 -10,10 -15,17 -4,7 -8,14 -12,22 -3,8 -7,16 -9,22 6,5 14,9 23,12 8,4 17,7 27,10 9,3 18,5 28,7 9,2 18,3 27,4 1,-12 0,-25 -2,-37 -2,-12 -6,-23 -11,-32 -4,-10 -10,-18 -17,-23 -7,-6 -14,-9 -22,-9zm-394 -12c-13,0 -26,2 -38,6 -13,3 -25,8 -37,14 -11,6 -22,13 -32,21 -10,7 -20,16 -28,24 -9,8 -16,17 -22,25 -7,9 -12,17 -16,24 8,0 17,1 27,1 10,0 20,0 29,0 13,0 26,0 40,-1 14,0 27,-2 40,-4 14,-2 26,-4 39,-8 12,-3 23,-8 33,-13 10,-6 19,-12 26,-20 7,-8 12,-17 15,-27 -2,-14 -10,-25 -23,-32 -13,-7 -31,-10 -53,-10zm-551 -83l-69 -69 69 -69 68 69 -68 69zm-255 93c-4,-1 -9,1 -15,5 -5,3 -10,8 -15,15 -5,6 -9,14 -12,21 -4,8 -5,16 -5,23 0,7 3,13 7,17 4,5 10,9 17,12 6,2 14,5 23,6 8,2 17,3 25,3 9,1 16,1 24,1l19 0c-3,-13 -7,-25 -11,-37 -4,-11 -9,-22 -15,-31 -5,-9 -11,-17 -18,-23 -7,-6 -15,-10 -24,-12z"/>
 </g>
</svg>
