<?xml version="1.0" encoding="UTF-8"?>
<!DOCTYPE svg PUBLIC "-//W3C//DTD SVG 1.0//EN" "http://www.w3.org/TR/2001/REC-SVG-20010904/DTD/svg10.dtd">
<!-- Creator: CorelDRAW 2017 -->
<svg xmlns="http://www.w3.org/2000/svg" xml:space="preserve" width="580px" height="580px" version="1.0" shape-rendering="geometricPrecision" text-rendering="geometricPrecision" image-rendering="optimizeQuality" fill-rule="evenodd" clip-rule="evenodd"
viewBox="0 0 7292 7292"
 xmlns:xlink="http://www.w3.org/1999/xlink">
 <g id="Layer_x0020_1">
  <metadata id="CorelCorpID_0Corel-Layer"/>
  <path fill="#FEFEFE" d="M0 0l7292 0 0 7292 -7292 0 0 -7292zm1039 6307c6,16 12,34 18,53 6,20 12,39 17,59 5,21 9,41 13,61 3,20 5,39 5,56 0,25 -4,49 -10,73 -7,23 -16,46 -29,68 -12,22 -26,44 -43,64 -17,20 -36,39 -56,57 -21,18 -43,35 -66,50 -23,15 -48,29 -73,42l-71 -100c19,-9 38,-20 57,-32 19,-12 38,-25 56,-39 17,-13 34,-28 49,-43 16,-15 29,-30 41,-45 11,-16 20,-32 27,-47 6,-16 9,-32 9,-47 0,-11 -1,-23 -4,-36 -3,-13 -7,-27 -13,-42 -5,-14 -11,-30 -18,-47 -7,-16 -14,-34 -23,-53l114 -52zm4813 -3302l0 -569 -996 0 0 569 427 0 0 712 -854 0 0 -123 -175 -58 83 -164 -274 -274 -165 82 -58 -175 -123 0 0 -427 712 0 0 -853 854 0 0 397 -163 -163 -101 100 335 335 335 -335 -101 -100 -163 163 0 -540 -996 0 0 -854 -1097 0 -468 469 0 385 -997 0 0 540 -163 -163 -100 100 334 335 335 -335 -100 -100 -163 163 0 -397 854 0 0 853 711 0 0 427 -122 0 -59 175 -164 -82 -274 274 82 164 -174 58 0 123 -854 0 0 -712 427 0 0 -569 -997 0 0 569 427 0 0 1149c-122,32 -213,142 -213,274 0,157 128,285 284,285 157,0 285,-128 285,-285 0,-132 -91,-242 -213,-274l0 -295 427 0 0 867c-83,30 -143,108 -143,201 0,117 96,213 214,213 117,0 213,-96 213,-213 0,-93 -59,-171 -142,-201l0 -867 285 0 0 123 174 58 -82 165 274 273 164 -82 59 175 387 0 58 -175 165 82 274 -273 -83 -165 175 -58 0 -123 285 0 0 867c-83,30 -143,108 -143,201 0,117 96,213 214,213 117,0 213,-96 213,-213 0,-93 -60,-171 -142,-201l0 -867 427 0 0 295c-123,32 -214,142 -214,274 0,157 128,285 285,285 157,0 285,-128 285,-285 0,-132 -91,-242 -214,-274l0 -1149 427 0zm-2562 -2034l0 184 -184 0 184 -184zm-284 327l427 0 0 -427 854 0 0 1565 -1281 0 0 -1138zm-1423 1280l711 0 0 285 -711 0 0 -285zm498 1850c0,79 -64,143 -143,143 -78,0 -142,-64 -142,-143 0,-78 64,-142 142,-142 79,0 143,64 143,142zm427 570c-40,0 -71,-32 -71,-71 0,-40 31,-72 71,-72 39,0 71,32 71,72 0,39 -32,71 -71,71zm1779 -1119l-164 55 -12 31c-3,9 -7,18 -11,27l-13 31 76 154 -128 128 -154 -77 -31 14c-9,4 -18,8 -27,11l-31 12 -55 163 -182 0 -54 -163 -32 -12c-9,-3 -18,-7 -27,-11l-31 -14 -153 77 -129 -128 77 -154 -14 -31c-4,-9 -7,-18 -11,-27l-12 -31 -163 -55 0 -182 163 -54 12 -32c4,-9 7,-18 11,-27l14 -31 -77 -153 129 -129 154 77 30 -14c9,-4 18,-8 27,-11l32 -12 54 -163 182 0 55 163 31 12c10,4 18,7 27,11l31 14 154 -77 129 129 -77 153 13 31c4,9 8,18 11,27l12 32 164 54 0 182zm498 1119c-40,0 -71,-32 -71,-71 0,-40 31,-72 71,-72 39,0 71,32 71,72 0,39 -32,71 -71,71zm711 -570c0,79 -64,143 -142,143 -79,0 -142,-64 -142,-143 0,-78 63,-142 142,-142 78,0 142,64 142,142zm-498 -1850l712 0 0 285 -712 0 0 -285zm-1850 -284l996 0 0 -143 -996 0 0 143zm0 -285l996 0 0 -142 -996 0 0 142zm0 -284l996 0 0 -143 -996 0 0 143zm427 -285l569 0 0 -142 -569 0 0 142zm0 -285l569 0 0 -142 -569 0 0 142zm71 2277c-196,0 -356,160 -356,356 0,196 160,356 356,356 196,0 356,-160 356,-356 0,-196 -160,-356 -356,-356zm0 570c-117,0 -213,-96 -213,-214 0,-118 96,-213 213,-213 118,0 214,95 214,213 0,118 -96,214 -214,214zm2792 2593c-16,0 -32,-2 -49,-5 -17,-4 -33,-8 -50,-14 -16,-5 -31,-12 -46,-19 -15,-7 -28,-14 -40,-22 -8,11 -18,21 -28,29 -9,8 -20,14 -31,19 -11,4 -23,8 -36,10 -13,2 -27,3 -42,3l-4 0 -16 0 -6 0c-11,0 -22,3 -33,9 -11,6 -20,14 -29,23 -8,10 -15,21 -19,33 -5,12 -8,24 -8,35 0,6 0,11 1,15 1,5 2,10 5,14 2,5 4,10 8,15 3,6 8,11 14,17l-73 88c-31,-19 -59,-39 -83,-59 -24,-20 -44,-40 -62,-61 -17,-21 -32,-42 -44,-64 -12,-21 -22,-43 -29,-65l-34 0 -9 0 -1 0 -6 0 0 0c-22,-1 -42,-5 -58,-11 -17,-7 -32,-17 -46,-29 -18,14 -41,24 -66,30 -26,6 -56,10 -92,10l-1 0 -10 0 -1 0 -1 0 -1 0 -2 0 0 0c-14,0 -27,-2 -38,-3 -12,-3 -23,-6 -33,-9 -9,-4 -18,-9 -25,-14 -8,-6 -15,-12 -21,-18 -12,8 -24,15 -36,21 -13,5 -25,10 -38,13 -14,4 -27,6 -42,7 -14,2 -29,3 -46,3 -34,0 -68,-7 -101,-20 -33,-13 -63,-34 -92,-64l72 -100c13,12 25,21 37,29 12,7 24,13 35,18 11,4 21,7 31,8 10,2 19,3 28,3 7,0 15,-1 23,-2 8,-1 16,-2 24,-4 8,-2 16,-5 23,-8 7,-3 13,-7 18,-12 -10,-24 -21,-49 -32,-76 -12,-26 -24,-52 -36,-78 -11,-27 -23,-53 -35,-79 -11,-26 -22,-51 -32,-75l115 -48 130 314c5,12 9,22 13,31 4,8 9,15 14,21 6,6 12,10 20,13 7,3 16,4 27,4l1 0 1 0 10 0 1 0c36,0 62,-6 81,-18 18,-11 27,-29 27,-53 0,-8 -1,-19 -3,-33 -2,-15 -6,-33 -13,-57l112 -27c4,14 7,27 10,38 3,12 5,22 7,31 1,9 2,18 3,26 1,7 2,15 2,22 1,7 1,15 3,24 1,8 3,15 6,23 3,7 7,13 12,17 6,5 12,7 21,7l1 0 0 0 9 0 12 0c1,-17 3,-36 8,-56 5,-21 11,-41 19,-62 8,-21 17,-41 28,-60 11,-19 23,-36 36,-52 12,-15 27,-27 42,-37 15,-10 31,-15 48,-16 17,0 33,5 48,15 15,9 28,22 39,37 10,16 19,34 25,53 6,20 9,40 9,60 0,24 -5,47 -15,70 -11,23 -24,44 -41,63 -16,20 -35,37 -56,53 -21,16 -43,28 -65,39 2,6 6,13 12,22 5,9 12,18 20,27 7,9 15,17 22,25 8,8 14,14 20,19 -1,-15 2,-31 6,-47 5,-16 12,-31 20,-46 9,-14 19,-28 30,-41 12,-13 24,-25 38,-34 13,-10 27,-18 41,-23 14,-6 28,-9 42,-9l4 0 16 0 4 0c17,0 32,-3 43,-11 12,-7 22,-16 31,-27 8,-11 16,-23 22,-37 7,-13 13,-27 20,-40 8,-16 17,-32 27,-48 9,-16 21,-30 34,-43 13,-13 27,-23 43,-31 16,-8 35,-12 55,-12 27,0 51,6 71,19 20,12 36,29 49,50 13,20 22,44 29,70 6,26 9,52 9,79 0,22 -3,43 -10,62 -7,19 -15,35 -26,49 -10,13 -22,24 -35,32 -13,8 -27,12 -40,12zm-51 -253c-7,0 -15,3 -21,9 -7,6 -13,13 -19,22 -5,8 -10,18 -15,28 -5,10 -9,20 -13,28 9,6 19,11 30,16 11,4 22,9 34,12 12,4 24,7 36,9 12,2 24,4 35,5 1,-16 0,-32 -2,-47 -3,-16 -8,-30 -14,-42 -6,-12 -14,-22 -22,-29 -9,-7 -19,-11 -29,-11zm-467 29c1,-8 1,-16 0,-24 -1,-8 -2,-16 -4,-24 -2,-8 -5,-15 -8,-21 -3,-6 -8,-11 -13,-14 -5,3 -10,7 -16,15 -6,7 -12,16 -18,27 -6,10 -12,22 -17,34 -6,12 -11,25 -16,38 -4,13 -8,26 -10,38 -3,12 -5,23 -5,33 11,-2 23,-7 35,-13 12,-7 24,-14 34,-24 10,-9 19,-19 26,-31 7,-11 11,-23 12,-34zm-384 -151l-88 -87 88 -88 87 88 -87 87zm-1268 251c19,0 36,-5 49,-16 14,-11 25,-24 35,-42 9,-17 17,-37 24,-59 7,-22 13,-45 19,-68l105 19c-2,9 -5,20 -8,32 -3,12 -5,25 -8,38 -2,13 -4,26 -6,38 -2,13 -2,24 -1,33 1,10 3,17 7,22 4,6 10,8 18,7 11,-1 21,-5 29,-11 9,-7 16,-15 23,-26 7,-10 13,-21 18,-34 6,-13 10,-26 14,-40 4,-14 7,-27 9,-41 3,-13 5,-25 6,-36l101 17c-1,8 -2,17 -3,29 -2,11 -3,23 -5,36 -1,13 -2,26 -2,38 0,13 2,25 5,35 3,10 7,18 14,24 7,7 16,10 28,10 8,0 15,-1 23,-4 7,-2 14,-6 20,-11 6,-4 11,-10 15,-16 4,-6 6,-13 6,-21 0,-14 -2,-29 -7,-45 -4,-17 -10,-33 -16,-49 -7,-16 -13,-32 -20,-46 -7,-15 -13,-27 -18,-37l98 -55 9 19c3,8 8,18 13,30 5,12 10,26 16,41 5,15 10,31 14,47 5,17 8,33 11,50 3,17 5,34 5,50 0,26 -4,50 -11,71 -7,21 -18,39 -33,53 -15,15 -33,27 -55,35 -22,8 -47,12 -77,12 -14,0 -27,-1 -38,-4 -12,-3 -22,-6 -32,-11 -9,-5 -17,-10 -24,-17 -7,-7 -14,-14 -19,-21 -7,8 -13,15 -20,22 -8,6 -16,12 -25,16 -10,5 -20,8 -32,11 -11,3 -24,4 -39,4 -13,1 -25,-1 -35,-3 -10,-2 -20,-6 -29,-11 -8,-4 -16,-10 -23,-17 -7,-7 -13,-14 -19,-22 -6,7 -12,13 -20,19 -7,6 -15,11 -25,16 -9,4 -21,7 -34,10 -12,2 -27,4 -43,4l-1 0 0 0 -15 0 -35 0c5,10 9,21 12,31 2,11 4,20 4,28 -1,24 -8,46 -19,66 -11,19 -25,36 -43,51 -18,15 -37,27 -60,37 -22,10 -45,19 -68,25 -24,7 -47,11 -70,14 -22,3 -43,5 -62,5 -28,0 -55,-2 -82,-6 -27,-5 -51,-11 -75,-20 -23,-8 -44,-19 -63,-33 -19,-14 -35,-30 -49,-50 -14,-19 -24,-41 -32,-67 -7,-25 -11,-54 -11,-86 0,-23 1,-45 3,-66 2,-21 5,-41 9,-62 5,-20 10,-41 17,-62 6,-21 15,-43 24,-67l101 42c-7,19 -14,36 -19,51 -6,16 -10,29 -14,42 -3,12 -6,24 -8,34 -3,11 -4,21 -5,31 -1,9 -2,19 -2,28 0,9 -1,19 -1,29 0,20 4,37 10,52 6,14 15,26 26,36 10,10 23,18 37,25 14,6 28,11 44,15 15,3 30,5 46,7 16,1 30,2 44,2 7,0 17,-1 31,-2 13,-1 28,-2 44,-4 15,-3 32,-6 48,-9 17,-4 32,-8 46,-14 14,-5 25,-12 33,-19 9,-7 14,-16 14,-25 -19,-14 -45,-27 -78,-38 -33,-12 -73,-20 -121,-26l16 -120 308 0 8 0 1 0zm-1228 0l37 0c11,0 23,-1 37,-3 13,-1 25,-4 37,-9 11,-4 21,-9 28,-16 8,-7 12,-16 12,-26 0,-6 -2,-16 -5,-28 -4,-13 -9,-27 -15,-42 -6,-15 -13,-31 -21,-48 -7,-17 -15,-33 -22,-48l112 -56c8,16 15,34 22,53 8,18 14,37 20,56 5,20 10,39 14,58 3,19 5,37 5,54 0,32 -5,59 -16,82 -10,22 -25,41 -44,55 -19,15 -41,26 -68,32 -26,7 -55,11 -86,11l-47 0 -8 0 0 0 -1 0 0 0 0 0 -7 0 0 0c-4,-1 -9,-1 -15,-1 -9,-1 -20,-4 -32,-9 -6,32 -17,63 -33,93 -16,29 -35,56 -59,82 -23,26 -50,49 -80,71 -30,21 -62,41 -96,58l-72 -100c19,-9 38,-20 57,-31 19,-11 37,-23 54,-35 17,-13 33,-26 48,-39 15,-14 28,-28 39,-42 11,-15 19,-30 26,-45 6,-15 9,-30 9,-46 0,-10 -2,-23 -6,-39 -4,-15 -9,-32 -15,-51 -6,-18 -12,-36 -20,-54 -7,-19 -14,-36 -21,-51l114 -49c10,31 20,57 30,78 10,21 19,38 28,51 9,12 17,21 26,26 8,5 16,8 24,8l0 0 10 0zm110 -318l-88 -87 88 -88 87 88 -87 87zm-897 733l-16 -390c0,-2 0,-7 1,-14 0,-7 2,-16 5,-25 2,-10 6,-19 12,-30 5,-10 13,-19 24,-27 4,-4 10,-8 16,-10 6,-3 13,-5 19,-7 7,-1 14,-2 21,-3 6,0 13,0 19,1 8,-19 17,-39 28,-58 11,-20 24,-38 39,-54 15,-16 31,-29 49,-39 19,-10 39,-15 61,-15 17,1 33,4 48,9 14,5 27,13 39,22 11,9 22,20 31,32 9,12 16,25 22,39 6,15 11,29 14,45 3,15 4,31 4,47 0,12 -1,24 -3,38 -3,13 -6,26 -11,39 -4,13 -10,26 -16,38 -7,12 -14,22 -22,31 -8,9 -17,17 -27,22 -10,5 -20,8 -31,8 -20,0 -41,-3 -63,-8 -22,-5 -44,-12 -65,-19 -21,-8 -40,-17 -58,-26 -17,-9 -31,-17 -42,-25 2,29 4,58 6,89 2,30 5,61 7,91 2,30 5,61 7,91 2,30 4,60 5,88l-123 20zm275 -548c-9,0 -18,2 -25,7 -8,5 -14,12 -21,19 -5,8 -10,16 -15,25 -4,9 -7,17 -11,24 8,4 18,9 29,13 11,5 22,10 34,14 12,4 24,8 36,12 11,3 22,5 31,7 4,-12 6,-25 5,-39 -1,-14 -4,-27 -9,-39 -5,-12 -12,-22 -22,-30 -9,-9 -20,-13 -32,-13zm-460 259c1,-22 2,-44 4,-67 1,-23 2,-46 3,-69 1,-22 1,-44 2,-66 0,-21 0,-40 -1,-58 -2,-38 -3,-70 -4,-99 -2,-28 -3,-53 -5,-75 -1,-22 -3,-41 -4,-57 -2,-16 -3,-32 -5,-45 -1,-14 -3,-27 -5,-39 -2,-12 -4,-24 -6,-37l122 -40c6,35 11,71 14,106 4,36 6,70 8,103 2,33 3,63 4,91 1,28 1,52 1,72 0,19 0,38 0,59 0,21 -1,43 -1,66 -1,22 -1,45 -2,68 -1,23 -2,46 -3,68l-122 19zm-419 -126c9,0 20,0 32,0 14,0 28,-1 44,-1 16,-1 32,-2 48,-3 16,-2 32,-3 47,-6 14,-3 28,-6 40,-10 13,-4 23,-9 31,-15 -35,4 -66,5 -95,3 -29,-1 -54,-7 -75,-16 -20,-10 -37,-24 -48,-43 -12,-18 -18,-44 -18,-75 0,-15 1,-30 4,-45 3,-15 7,-31 13,-45 6,-15 13,-29 22,-42 9,-14 19,-25 30,-35 12,-10 24,-18 39,-24 14,-6 29,-9 45,-9 21,0 40,4 57,12 17,8 33,18 47,32 14,13 26,29 36,47 10,18 19,37 26,56 7,20 12,40 15,61 4,20 5,40 5,59 0,31 -4,59 -13,82 -9,24 -21,44 -37,60 -15,17 -34,30 -56,41 -22,10 -45,19 -71,25 -26,6 -53,10 -82,12 -28,2 -57,4 -86,4l-2 0 -1 0 -5 0 0 0 -1 0 0 0 0 0 -8 0 0 -1c-4,0 -9,0 -14,0 -9,-1 -20,-4 -32,-9 -6,32 -17,63 -33,93 -16,29 -35,56 -59,82 -23,26 -50,49 -80,71 -30,21 -62,41 -96,58l-72 -100c19,-9 38,-20 57,-31 19,-11 37,-23 54,-35 17,-13 33,-26 48,-39 15,-14 28,-28 39,-42 11,-15 19,-30 26,-45 6,-15 9,-30 9,-46 0,-10 -2,-23 -6,-39 -4,-15 -9,-32 -15,-51 -6,-18 -12,-36 -20,-54 -7,-19 -14,-36 -21,-51l114 -49c10,31 20,57 30,78 10,21 19,38 28,51 9,12 17,21 26,26 8,5 16,8 24,8l0 0 7 0 0 0 0 0 1 0 0 0 1 0 0 0 1 0zm159 -241c-7,0 -13,2 -19,6 -7,3 -12,8 -18,15 -5,6 -9,13 -13,21 -3,9 -5,17 -5,25 0,8 2,15 7,20 5,5 11,9 19,11 7,3 16,5 26,6 9,2 19,2 28,2 9,1 18,0 26,0 8,0 15,-1 20,-1 -2,-12 -6,-24 -9,-36 -4,-12 -9,-23 -15,-33 -5,-10 -12,-19 -20,-25 -8,-7 -17,-10 -27,-11zm-2 -166l-88 -87 88 -88 87 88 -87 87zm-331 166l-87 -87 87 -88 88 88 -88 87zm-311 367c2,-22 3,-44 4,-67 2,-23 3,-46 4,-69 0,-22 1,-44 1,-66 1,-21 0,-40 0,-58 -2,-38 -4,-70 -5,-99 -1,-28 -3,-53 -4,-75 -2,-22 -3,-41 -5,-57 -1,-16 -3,-32 -4,-45 -2,-14 -3,-27 -5,-39 -2,-12 -4,-24 -6,-37l122 -40c5,35 10,71 14,106 3,36 6,70 8,103 2,33 3,63 3,91 1,28 1,52 1,72 0,19 0,38 0,59 0,21 0,43 -1,66 0,22 0,45 -1,68 -1,23 -2,46 -4,68l-122 19z"/>
 </g>
</svg>
