<?xml version="1.0" encoding="UTF-8"?>
<!DOCTYPE svg PUBLIC "-//W3C//DTD SVG 1.0//EN" "http://www.w3.org/TR/2001/REC-SVG-20010904/DTD/svg10.dtd">
<!-- Creator: CorelDRAW 2017 -->
<svg xmlns="http://www.w3.org/2000/svg" xml:space="preserve" width="580px" height="580px" version="1.0" shape-rendering="geometricPrecision" text-rendering="geometricPrecision" image-rendering="optimizeQuality" fill-rule="evenodd" clip-rule="evenodd"
viewBox="0 0 16245 16245"
 xmlns:xlink="http://www.w3.org/1999/xlink">
 <g id="Layer_x0020_1">
  <metadata id="CorelCorpID_0Corel-Layer"/>
  <path fill="#FEFEFE" d="M0 0l16245 0 0 16245 -16245 0 0 -16245zm3548 14693l-1 0 -2 0 -32 0 -3 0c-93,0 -176,-16 -247,-48 -70,-31 -135,-78 -193,-140 -18,31 -42,58 -74,79 -32,21 -69,39 -111,53 -41,14 -85,24 -133,32 -48,7 -97,13 -146,17 -49,3 -97,5 -143,6 -47,0 -90,1 -129,1 -65,-2 -129,-5 -195,-9 -65,-3 -128,-10 -188,-21 -60,-10 -117,-26 -170,-46 -52,-20 -98,-48 -137,-83 -39,-35 -70,-79 -92,-132 -23,-53 -34,-117 -34,-192 0,-26 3,-53 8,-82 5,-29 12,-58 22,-87 10,-30 21,-57 35,-84 13,-26 28,-50 44,-71l207 151c-7,13 -16,27 -25,42 -9,15 -18,31 -26,48 -8,17 -15,34 -20,52 -6,17 -9,34 -9,50 0,24 10,46 30,65 20,19 47,35 80,49 33,13 72,25 116,34 44,9 91,16 140,22 50,5 99,9 150,12 51,2 99,3 146,3 34,0 71,-1 111,-2 40,-1 80,-5 120,-9 41,-4 80,-11 117,-19 38,-8 72,-19 101,-32 29,-14 52,-30 70,-50 18,-20 27,-44 27,-72 0,-26 -8,-55 -24,-85 -16,-29 -36,-60 -61,-91 -26,-30 -54,-61 -87,-92 -32,-30 -65,-60 -98,-87 -33,-28 -65,-54 -95,-78 -31,-24 -58,-45 -81,-63l28 -239 811 -340 98 244 -673 273c42,33 82,67 121,101 39,34 75,69 109,105 34,37 65,75 94,114 29,41 54,83 76,129 17,34 36,69 56,104 20,35 43,66 69,94 26,28 56,51 89,69 34,18 72,27 116,27l3 0 32 0 2 0 1 0c41,0 78,-1 110,-3 33,-3 62,-7 87,-13 25,-6 46,-13 63,-23 17,-10 31,-22 41,-36 14,-19 22,-40 25,-63 3,-23 4,-46 1,-70 -3,-25 -7,-49 -14,-73 -6,-25 -12,-48 -17,-70l255 -73c7,26 13,50 18,72 5,21 10,43 13,63 4,21 7,41 11,62 3,22 6,44 9,69 3,16 6,33 9,51 4,19 10,36 19,52 9,16 21,29 37,39 15,11 34,16 58,16l2 0 1 0 20 0 84 0c24,0 51,-2 81,-6 29,-4 57,-11 82,-20 26,-9 47,-21 64,-37 18,-15 26,-34 26,-57 0,-14 -4,-35 -12,-63 -8,-28 -19,-59 -32,-93 -14,-34 -29,-70 -46,-108 -17,-37 -34,-73 -51,-107l251 -125c16,37 33,77 49,118 16,42 30,84 43,127 13,42 23,85 32,127 7,43 11,83 11,122 0,70 -11,130 -35,181 -23,50 -56,92 -98,124 -42,33 -93,57 -151,72 -59,15 -123,23 -193,23l-105 0 -20 0 -2 0 -1 0 -1 0 -11 0 0 -1c-23,0 -46,-3 -68,-6 -28,-5 -53,-12 -77,-20 -24,-9 -46,-19 -66,-31 -21,-11 -38,-24 -53,-37 -27,21 -58,37 -94,49 -35,13 -73,22 -113,29 -39,7 -80,11 -121,13 -41,3 -82,4 -121,4zm1334 -6185c0,389 316,705 705,705 388,0 704,-316 704,-705 0,-388 -316,-704 -704,-704 -389,0 -705,316 -705,704zm1127 0c0,233 -189,423 -422,423 -233,0 -423,-190 -423,-423 0,-233 190,-422 423,-422 233,0 422,189 422,422zm4790 -4507c0,-389 -316,-705 -705,-705 -388,0 -704,316 -704,705 0,388 316,704 704,704 389,0 705,-316 705,-704zm-1127 0c0,-233 189,-423 422,-423 233,0 423,190 423,423 0,233 -190,422 -423,422 -233,0 -422,-189 -422,-422zm282 3521c-467,0 -846,379 -846,845 0,467 379,846 846,846 466,0 845,-379 845,-846 0,-466 -379,-845 -845,-845zm0 1409c-311,0 -564,-253 -564,-564 0,-310 253,-563 564,-563 310,0 563,253 563,563 0,311 -253,564 -563,564zm0 -1972c-777,0 -1409,632 -1409,1408 0,777 632,1409 1409,1409 776,0 1408,-632 1408,-1409 0,-776 -632,-1408 -1408,-1408zm0 2535c-622,0 -1127,-505 -1127,-1127 0,-621 505,-1126 1127,-1126 621,0 1127,505 1127,1126 0,622 -506,1127 -1127,1127zm2535 -604l0 -1045 -381 -133c-43,-141 -99,-276 -167,-405l175 -363 -136 -136c-63,-83 -166,-192 -244,-271 -98,-98 -210,-205 -286,-272l-937 -819 80 -242 326 163 542 -542 -163 -326 346 -115 0 -767 -346 -115 163 -326 -542 -542 -326 163 -115 -346 -767 0 -115 346 -326 -163 -542 542 163 326 -346 115 0 108 -1160 -1014c-399,-349 -910,-542 -1441,-542l0 4c-25,-1 -50,-4 -76,-4 -1165,0 -2113,948 -2113,2113 0,26 3,51 4,76l-4 0c0,531 193,1042 542,1441l1015 1160 -109 0 -115 346 -326 -163 -542 542 163 326 -346 115 0 767 346 115 -163 326 542 542 326 -163 115 346 767 0 115 -346 326 163 542 -542 -163 -326 243 -81 818 935c64,73 160,174 250,266 86,86 204,199 292,267l137 136 363 -175c128,68 264,124 405,167l133 381 1045 0 133 -381c141,-43 276,-99 405,-167l363 175 739 -739 -175 -363c68,-129 124,-264 167,-405l381 -133zm-4522 -1583c-69,129 -125,264 -168,405l-381 133 0 1045 381 133c43,141 99,276 168,405l-43 88 -2876 -3287c252,107 530,166 820,166 1166,0 2113,-948 2113,-2113 0,-291 -59,-568 -166,-821l3289 2876 -90 43c-129,-68 -264,-124 -405,-167l-133 -381 -1045 0 -133 381c-141,43 -276,99 -405,167l-363 -175 -739 739 176 363zm860 -3487l323 -107 24 -63c7,-18 14,-36 21,-53l28 -61 -153 -305 255 -254 305 152 61 -27c17,-8 35,-15 53,-22l63 -24 107 -323 361 0 107 323 63 24c18,7 36,14 53,22l61 27 305 -152 255 254 -153 305 28 61c7,17 14,35 21,53l24 63 323 107 0 361 -323 108 -24 62c-7,18 -14,36 -22,53l-27 61 152 305 -254 255 -305 -153 -61 28c-17,8 -35,15 -53,21l-63 24 -99 300 -1456 -1274 0 -151zm-2959 -1369c1010,0 1832,822 1832,1831 0,1010 -822,1832 -1832,1832 -1009,0 -1831,-822 -1831,-1832 0,-1009 822,-1831 1831,-1831zm663 6345l-24 63c-6,18 -14,35 -21,53l-28 61 153 304 -255 255 -305 -152 -61 27c-17,8 -35,15 -53,22l-62 24 -108 323 -361 0 -107 -323 -63 -24c-18,-7 -36,-14 -53,-22l-61 -27 -304 152 -255 -255 152 -304 -27 -61c-8,-18 -15,-35 -22,-53l-24 -63 -323 -108 0 -360 323 -108 24 -62c7,-18 14,-36 22,-53l27 -61 -152 -305 255 -255 304 153 61 -28c18,-7 35,-14 53,-21l63 -24 108 -323 151 0 1274 1455 -301 100zm5345 10l-20 72c-44,167 -110,327 -196,475l-37 64 152 316 -456 456 -316 -152 -64 37c-148,85 -308,152 -475,196l-72 20 -116 331 -645 0 -116 -331 -72 -20c-167,-44 -327,-110 -475,-196l-64 -37 -316 152 -456 -456 152 -316 -37 -64c-85,-148 -151,-308 -196,-475l-20 -72 -331 -116 0 -645 331 -116 20 -72c44,-167 110,-327 196,-475l37 -64 -152 -316 456 -456 316 152 64 -37c148,-86 308,-152 475,-196l72 -20 116 -331 645 0 116 331 72 20c167,44 327,110 475,196l64 37 316 -152 456 456 -152 316 37 64c86,148 152,308 196,475l20 72 331 116 0 645 -331 116zm-6008 -4101c233,0 423,-190 423,-423 0,-233 -190,-422 -423,-422 -233,0 -422,189 -422,422 0,233 189,423 422,423zm0 -564c78,0 141,64 141,141 0,78 -63,141 -141,141 -77,0 -140,-63 -140,-141 0,-77 63,-141 140,-141zm0 1127c544,0 987,-442 987,-986 0,-543 -443,-986 -987,-986 -543,0 -986,443 -986,986 0,544 443,986 986,986zm0 -1690c389,0 705,316 705,704 0,389 -316,705 -705,705 -388,0 -704,-316 -704,-705 0,-388 316,-704 704,-704zm0 2254l0 -282c-699,0 -1267,-569 -1267,-1268l-282 0c0,855 695,1550 1549,1550zm8611 8858c-35,0 -71,-4 -109,-11 -37,-8 -74,-17 -110,-30 -36,-12 -70,-26 -103,-42 -33,-16 -63,-33 -89,-50 -19,26 -40,47 -62,65 -21,17 -45,31 -70,41 -25,11 -52,18 -81,23 -29,4 -60,7 -93,7l-9 0 -35 0 -12 0c-26,0 -51,6 -75,20 -24,13 -45,30 -64,52 -18,21 -33,45 -44,72 -11,27 -17,54 -17,80 0,12 1,23 3,33 2,10 5,21 10,31 5,11 11,22 19,34 7,11 17,24 30,37l-161 196c-70,-42 -132,-86 -185,-131 -53,-44 -99,-90 -138,-136 -39,-47 -72,-94 -99,-142 -26,-48 -48,-97 -65,-146l-76 0 -19 0 -3 0 -13 0 0 -1c-50,-1 -92,-9 -128,-23 -39,-16 -73,-38 -103,-65 -42,31 -91,53 -148,67 -57,14 -125,21 -205,22l-2 0 -23 0 -2 0 -1 0 -2 0 -5 0 0 -1c-31,0 -60,-2 -84,-6 -28,-5 -52,-12 -73,-20 -22,-9 -41,-19 -57,-31 -17,-12 -33,-26 -47,-40 -27,18 -54,33 -81,46 -27,13 -55,23 -84,30 -30,8 -60,13 -92,17 -32,3 -66,5 -103,5 -77,0 -152,-15 -225,-45 -74,-29 -142,-76 -205,-141l159 -224c29,27 57,48 84,65 26,16 52,30 77,39 25,9 48,16 70,19 22,4 42,6 62,6 15,0 33,-1 51,-4 18,-2 36,-5 54,-10 17,-4 34,-10 50,-17 16,-7 30,-16 41,-27 -22,-54 -46,-109 -72,-168 -26,-58 -52,-116 -79,-175 -26,-59 -52,-117 -78,-176 -26,-58 -50,-113 -72,-166l257 -107 289 699c11,26 20,49 29,68 9,19 19,35 31,48 12,13 27,23 43,29 17,6 37,9 63,9l1 0 1 0 23 0 2 0c80,0 140,-14 180,-39 41,-27 62,-66 62,-119 0,-18 -2,-42 -7,-74 -5,-32 -15,-74 -29,-126l248 -61c10,32 18,61 24,86 6,25 11,47 14,68 3,20 6,39 8,57 2,17 3,34 5,50 1,16 2,34 5,52 2,19 7,36 13,51 7,16 16,29 28,40 12,10 28,15 47,15l1 0 1 0 19 0 28 0c1,-39 7,-81 18,-126 10,-45 24,-91 41,-137 18,-46 38,-91 63,-134 24,-42 50,-81 79,-115 29,-34 60,-62 94,-83 34,-21 70,-33 107,-36 39,1 75,12 108,33 34,22 62,50 86,84 24,35 42,74 56,118 13,44 20,88 20,133 0,54 -11,105 -34,156 -23,50 -53,97 -90,141 -37,43 -79,83 -126,117 -47,35 -95,64 -144,86 4,14 13,31 26,51 13,19 28,39 45,59 16,20 33,38 50,56 17,18 31,31 43,42 -1,-34 5,-68 15,-104 10,-35 25,-70 44,-102 19,-33 42,-64 67,-93 26,-29 54,-54 84,-76 29,-21 60,-38 91,-51 32,-13 63,-19 94,-19l9 0 35 0 9 0c38,0 71,-8 97,-24 27,-15 49,-36 68,-61 19,-25 35,-52 50,-82 14,-30 29,-60 44,-89 17,-35 37,-71 59,-107 22,-35 47,-68 76,-96 29,-29 61,-52 97,-70 36,-18 77,-27 122,-27 61,0 114,14 158,43 44,28 81,65 110,111 28,46 49,98 63,157 14,58 21,116 21,176 0,49 -7,95 -22,138 -15,42 -34,78 -57,108 -24,31 -50,54 -80,72 -29,17 -59,26 -89,26zm-112 -563c-17,0 -33,7 -48,20 -14,13 -28,29 -41,48 -13,20 -24,41 -35,64 -10,23 -19,43 -27,63 19,12 41,24 66,34 24,11 50,20 76,28 26,8 53,14 80,19 27,6 53,10 77,12 3,-36 1,-71 -5,-105 -6,-35 -16,-66 -30,-93 -14,-27 -31,-48 -50,-65 -19,-17 -41,-25 -63,-25zm-1041 64c2,-16 1,-34 0,-52 -1,-19 -4,-36 -9,-54 -4,-17 -10,-33 -18,-47 -7,-14 -17,-24 -28,-31 -11,6 -23,17 -36,34 -13,16 -27,36 -40,59 -14,23 -27,49 -39,77 -13,27 -24,55 -34,84 -10,29 -18,57 -24,84 -6,27 -10,52 -10,74 25,-5 51,-15 78,-29 27,-14 53,-32 76,-53 23,-20 42,-44 58,-69 16,-25 25,-51 26,-77zm-856 -335l-194 -195 194 -195 195 195 -195 195zm-2824 559c43,0 79,-12 109,-35 31,-24 56,-55 78,-94 21,-39 39,-83 54,-132 15,-50 29,-100 43,-152l233 42c-5,21 -10,45 -17,72 -7,27 -13,56 -19,85 -5,29 -10,57 -13,85 -4,28 -4,52 -2,74 2,21 7,37 16,49 9,12 22,17 40,14 24,-2 45,-10 64,-25 19,-14 36,-33 51,-56 15,-23 29,-49 41,-77 11,-29 22,-58 30,-89 8,-30 15,-60 21,-90 6,-30 10,-57 14,-82l223 38c-1,17 -3,39 -6,65 -4,25 -7,52 -10,81 -3,28 -4,57 -4,85 0,28 3,54 9,77 7,22 17,40 32,54 15,15 36,21 63,21 16,0 33,-2 50,-8 17,-5 32,-13 46,-24 13,-10 24,-22 33,-36 8,-14 12,-30 12,-47 0,-31 -5,-64 -14,-101 -11,-36 -23,-73 -37,-109 -14,-36 -29,-70 -44,-102 -15,-32 -29,-59 -39,-82l218 -122 18 41c9,18 19,41 30,68 11,27 23,57 35,91 12,33 23,68 33,105 10,36 18,73 24,111 7,38 10,75 10,111 0,59 -8,111 -24,158 -16,47 -41,87 -73,119 -33,33 -73,59 -122,77 -49,18 -106,27 -172,28 -32,0 -60,-3 -86,-9 -26,-6 -49,-15 -70,-25 -21,-11 -39,-24 -55,-38 -15,-15 -30,-31 -42,-47 -14,18 -29,34 -45,48 -16,14 -34,27 -55,37 -21,10 -44,19 -70,24 -26,6 -55,9 -88,10 -28,1 -54,-2 -78,-7 -23,-6 -44,-14 -63,-25 -19,-10 -37,-23 -52,-38 -16,-15 -30,-31 -44,-49 -12,15 -26,29 -42,42 -16,13 -34,25 -56,35 -22,10 -47,17 -76,23 -27,5 -60,8 -96,9l-2 0 -2 0 -31 0 -79 0c12,23 21,46 26,70 6,24 9,44 10,61 -3,55 -17,104 -42,147 -25,43 -57,81 -96,114 -39,33 -84,61 -134,83 -49,23 -100,42 -152,56 -53,14 -104,25 -155,31 -50,7 -96,10 -138,10 -63,0 -124,-5 -183,-14 -60,-9 -115,-23 -166,-42 -52,-20 -99,-45 -141,-75 -43,-30 -79,-67 -110,-110 -30,-43 -54,-93 -70,-149 -17,-57 -25,-121 -25,-192 0,-52 2,-101 6,-147 5,-47 11,-93 21,-139 9,-45 21,-92 36,-138 15,-47 33,-97 54,-150l226 94c-17,43 -31,81 -43,115 -13,33 -23,64 -31,92 -8,28 -15,53 -19,77 -5,23 -8,46 -11,67 -2,21 -3,43 -4,63 0,21 -1,43 -1,66 0,44 7,82 21,114 14,32 33,59 57,82 24,22 52,40 83,55 31,14 64,25 98,32 34,8 68,13 103,16 35,3 68,4 99,4 15,0 38,-1 68,-3 30,-2 62,-5 98,-10 35,-5 71,-12 108,-20 38,-8 71,-18 102,-30 30,-12 55,-26 74,-42 20,-16 30,-35 30,-57 -43,-31 -100,-60 -173,-85 -74,-25 -163,-44 -269,-57l36 -267 686 0 17 0 2 0zm-2398 275c-35,0 -72,-4 -109,-11 -37,-8 -74,-17 -110,-30 -36,-12 -71,-26 -104,-42 -33,-16 -62,-33 -88,-50 -19,26 -40,47 -62,65 -22,17 -45,31 -70,41 -25,11 -52,18 -81,23 -29,4 -60,7 -93,7l-9 0 -27 0 -2 0 -2 0 -4 0 0 0c-38,-1 -75,-4 -109,-9 -37,-6 -72,-15 -106,-27 -33,-13 -65,-29 -95,-49 -30,-20 -59,-45 -86,-75 -21,29 -45,53 -73,72 -28,20 -57,37 -88,50 -30,13 -62,22 -95,28 -32,6 -65,9 -96,10l-260 0 -25 0 -3 0 -7 0 0 -1c-69,0 -128,-10 -176,-29 -51,-20 -93,-47 -125,-81 -32,-35 -55,-76 -70,-123 -14,-47 -21,-98 -21,-153 0,-28 1,-63 2,-105 1,-42 2,-90 2,-145 0,-55 -1,-116 -1,-181 -1,-66 -3,-132 -5,-199 -3,-66 -6,-129 -12,-190 -5,-61 -11,-114 -20,-159l262 -80c8,39 14,84 19,137 5,52 9,107 12,164 3,58 5,115 7,173 1,58 2,112 3,162 0,44 0,90 -2,138 -2,49 -4,95 -5,139 -2,44 -1,84 1,120 2,36 8,63 16,81 5,14 12,24 20,31 8,7 17,12 28,16 10,4 22,6 34,6 11,1 23,1 36,1l1 0 1 0 1 0 0 0 1 0 1 0 0 0 1 0 24 0 252 0c30,0 57,-3 83,-11 26,-7 48,-16 68,-27 19,-12 35,-25 46,-39 12,-14 19,-29 21,-43 3,-30 -2,-61 -14,-95 -11,-34 -28,-69 -50,-104 -21,-36 -47,-71 -76,-107 -29,-35 -60,-69 -91,-101 -32,-32 -64,-62 -95,-89 -31,-28 -60,-52 -86,-71l24 -242 806 -338 102 241 -666 273c40,37 77,74 109,109 33,35 63,71 90,106 27,36 52,71 74,106 23,36 44,72 64,110 18,32 36,67 55,104 19,36 42,70 67,102 26,31 55,57 89,79 33,22 72,34 117,37l19 0 35 0 9 0c38,0 71,-8 97,-24 26,-15 49,-36 68,-61 18,-25 35,-52 49,-82 15,-30 30,-60 45,-89 17,-35 37,-71 59,-107 22,-35 47,-68 76,-96 29,-29 61,-52 97,-70 36,-18 76,-27 121,-27 62,0 115,14 159,43 44,28 81,65 109,111 29,46 50,98 64,157 14,58 20,116 20,176 0,49 -7,95 -21,138 -15,42 -34,78 -58,108 -23,31 -49,54 -79,72 -29,17 -59,26 -89,26zm-112 -563c-17,0 -33,7 -48,20 -15,13 -28,29 -41,48 -13,20 -24,41 -35,64 -10,23 -19,43 -27,63 19,12 41,24 66,34 24,11 49,20 76,28 26,8 53,14 80,19 27,6 53,10 77,12 3,-36 1,-71 -5,-105 -7,-35 -17,-66 -31,-93 -13,-27 -30,-48 -49,-65 -20,-17 -41,-25 -63,-25zm-2595 -420l-195 -195 195 -195 195 195 -195 195zm-686 1243l-164 165 -171 -170 168 -169 167 167 165 -165 171 169 -169 170 -167 -167z"/>
 </g>
</svg>
