<?xml version="1.0" encoding="UTF-8"?>
<!DOCTYPE svg PUBLIC "-//W3C//DTD SVG 1.0//EN" "http://www.w3.org/TR/2001/REC-SVG-20010904/DTD/svg10.dtd">
<!-- Creator: CorelDRAW 2017 -->
<svg xmlns="http://www.w3.org/2000/svg" xml:space="preserve" width="580px" height="580px" version="1.0" shape-rendering="geometricPrecision" text-rendering="geometricPrecision" image-rendering="optimizeQuality" fill-rule="evenodd" clip-rule="evenodd"
viewBox="0 0 10066 10066"
 xmlns:xlink="http://www.w3.org/1999/xlink">
 <g id="Layer_x0020_1">
  <metadata id="CorelCorpID_0Corel-Layer"/>
  <path fill="#FEFEFE" d="M0 0l10066 0 0 10066 -10066 0 0 -10066zm2345 9279c32,0 61,-4 89,-13 27,-9 52,-21 74,-36 22,-16 42,-34 58,-56 17,-21 30,-44 40,-70 -58,0 -108,-4 -151,-12 -43,-7 -79,-19 -108,-36 -29,-18 -51,-41 -66,-69 -16,-28 -24,-64 -25,-106 0,-20 2,-41 7,-64 5,-22 12,-45 21,-67 10,-23 21,-44 35,-64 13,-21 29,-39 46,-54 17,-16 36,-29 56,-38 21,-10 43,-14 67,-14 34,0 66,7 93,22 28,14 53,33 74,57 21,25 39,52 54,83 14,32 26,64 35,97 9,34 15,67 18,100 3,33 3,64 1,92 0,35 -5,70 -15,105 -10,35 -24,68 -42,99 -18,31 -40,60 -66,86 -25,27 -54,50 -85,69 -31,19 -64,35 -100,46 -36,10 -73,16 -112,16 -55,0 -107,-9 -157,-26 -49,-18 -92,-43 -128,-76 -37,-33 -66,-73 -88,-119 -22,-47 -32,-99 -32,-158 0,-27 1,-53 4,-78 2,-25 7,-49 13,-74 6,-24 14,-49 23,-74 10,-26 22,-52 36,-80l137 58c-14,26 -25,50 -34,73 -9,22 -16,44 -21,64 -5,20 -8,39 -10,58 -2,18 -3,36 -3,53 0,32 8,61 22,87 15,25 34,47 58,65 24,18 52,31 84,41 31,9 64,13 98,13zm3538 -7216c16,9 32,13 49,13 33,0 66,-17 84,-49l272 -471c27,-46 11,-106 -35,-132 -47,-27 -106,-11 -133,35l-272 471c-27,47 -11,106 35,133zm-2456 2288l-471 272c-46,26 -62,86 -35,132 18,31 50,49 84,49 16,0 33,-4 48,-13l472 -272c46,-27 62,-86 35,-133 -27,-46 -86,-62 -133,-35zm3163 -1617c17,0 33,-4 49,-13l471 -272c46,-27 62,-86 35,-133 -26,-46 -86,-62 -132,-35l-471 272c-47,27 -63,86 -36,132 18,32 51,49 84,49zm-3257 802c0,-54 -44,-97 -98,-97l-544 0c-53,0 -97,43 -97,97 0,54 44,97 97,97l544 0c54,0 98,-43 98,-97zm4042 -97l-544 0c-54,0 -97,43 -97,97 0,54 43,97 97,97l544 0c54,0 97,-43 97,-97 0,-54 -43,-97 -97,-97zm-4419 -990l471 272c16,9 32,13 49,13 33,0 66,-17 84,-49 27,-46 11,-105 -35,-132l-472 -272c-46,-27 -105,-11 -132,35 -27,47 -11,106 35,133zm4154 2174l-471 -272c-47,-27 -106,-11 -133,35 -27,47 -11,106 36,133l471 272c15,9 32,13 48,13 34,0 66,-18 84,-49 27,-46 11,-106 -35,-132zm-3060 -2596c18,32 51,49 84,49 17,0 33,-4 49,-13 46,-27 62,-86 35,-133l-272 -471c-27,-46 -86,-62 -132,-35 -47,26 -63,86 -36,132l272 471zm983 -192c54,0 97,-43 97,-97l0 -544c0,-54 -43,-97 -97,-97 -54,0 -97,43 -97,97l0 544c0,54 43,97 97,97zm0 712c536,0 972,436 972,972 0,30 -2,61 -4,91 -5,54 34,101 87,106 4,0 6,0 9,0 50,0 93,-38 97,-88 3,-36 5,-73 5,-109 0,-643 -523,-1166 -1166,-1166 -54,0 -97,43 -97,97 0,54 43,97 97,97zm1021 1305c-49,-22 -106,1 -128,50 -30,72 -70,140 -118,203 -32,43 -24,104 19,136 17,14 38,20 58,20 30,0 59,-13 78,-38 57,-76 105,-158 142,-244 21,-49 -2,-106 -51,-127zm-1410 1289c10,0 20,-1 30,-5 51,-17 79,-71 62,-122 -107,-328 -268,-633 -477,-907 -34,-46 -65,-94 -91,-144 -24,-48 -83,-66 -131,-42 -47,25 -66,84 -41,131 31,60 67,118 109,172 195,257 346,543 447,850 13,41 51,67 92,67zm-572 -1476c-7,-51 -11,-103 -11,-155 1,-54 -42,-98 -96,-98 -53,-1 -97,42 -98,96 -1,62 4,125 13,186 7,48 48,83 96,83 5,0 9,-1 14,-1 53,-8 90,-58 82,-111zm2170 769c201,-265 307,-582 307,-915 0,-409 -160,-792 -452,-1080 -291,-287 -677,-442 -1086,-436 -396,6 -770,165 -1051,448 -282,283 -439,657 -443,1054 -3,340 104,662 309,931 334,438 517,974 517,1510l0 586c0,260 212,472 472,472l438 0c260,0 472,-212 472,-472l0 -586c0,-542 177,-1065 517,-1512zm-2261 -115c-179,-235 -272,-516 -269,-812 6,-712 590,-1300 1302,-1310 357,-4 693,131 947,381 254,250 394,584 394,941 0,291 -93,566 -268,797 -358,472 -550,1022 -558,1593l-992 0c-8,-565 -205,-1129 -556,-1590zm557 2147l0 -78 993 113 0 31c0,16 -2,32 -5,48l-988 -114zm0 -274l0 -88 993 0 0 202 -993 -114zm277 617c-105,0 -196,-58 -243,-143l837 96c-45,30 -98,47 -156,47l-438 0zm3160 2294c-22,0 -44,-3 -67,-7 -24,-5 -46,-11 -69,-18 -22,-8 -43,-17 -64,-27 -20,-10 -39,-20 -54,-30 -13,15 -25,29 -39,40 -13,10 -28,19 -43,25 -16,7 -33,11 -50,14 -18,3 -38,4 -58,4l-6 0 -22 0 -7 0c-16,0 -32,5 -46,13 -15,8 -29,19 -40,32 -11,13 -20,28 -27,45 -7,17 -11,33 -11,49 0,8 1,15 2,21 1,6 3,13 6,19 3,7 7,14 12,21 4,7 11,15 18,23l-99 122c-44,-27 -82,-54 -115,-81 -33,-28 -61,-56 -86,-85 -24,-29 -44,-58 -61,-88 -16,-30 -30,-60 -40,-91l-47 0 -12 0 -2 0 -8 0 0 0c-31,-1 -57,-6 -79,-14 -24,-10 -46,-24 -64,-41 -26,19 -57,33 -92,42 -35,9 -77,13 -127,13l-1 0 -14 0 -1 0 -1 0 -1 0 -3 0 0 0c-20,0 -37,-1 -53,-4 -17,-3 -32,-7 -45,-12 -13,-6 -25,-12 -35,-19 -10,-8 -20,-16 -29,-25 -17,11 -34,21 -50,28 -17,8 -35,14 -53,19 -18,5 -37,8 -56,10 -20,2 -41,3 -64,3 -48,0 -94,-9 -140,-27 -45,-18 -88,-47 -127,-88l99 -138c18,16 35,29 52,40 16,10 32,18 48,24 15,6 29,10 43,12 14,2 26,3 38,3 10,0 21,0 32,-2 11,-1 22,-3 33,-6 11,-3 22,-7 31,-11 10,-4 19,-10 26,-16 -14,-34 -29,-68 -45,-104 -16,-36 -32,-73 -48,-109 -17,-37 -33,-73 -49,-109 -16,-36 -31,-70 -45,-103l159 -66 180 433c6,16 12,30 18,42 5,12 12,22 19,30 8,8 16,14 27,18 10,3 23,5 38,5l1 0 1 0 14 0 1 0c50,0 87,-8 112,-24 26,-16 38,-41 38,-74 0,-11 -1,-26 -4,-46 -3,-19 -9,-45 -18,-78l154 -37c6,20 10,37 14,53 4,15 7,29 9,42 2,13 4,24 5,35 1,11 2,21 3,31 1,10 2,21 3,33 1,11 4,22 9,31 4,10 9,18 17,25 7,6 17,9 29,9l1 0 0 0 12 0 17 0c1,-24 5,-50 11,-78 6,-28 15,-56 26,-85 11,-28 24,-56 39,-82 14,-27 31,-51 49,-72 18,-21 37,-38 58,-51 21,-14 43,-21 66,-22 24,0 47,7 68,20 20,13 38,31 53,52 14,22 26,46 34,73 8,27 13,55 13,83 0,33 -7,65 -21,96 -15,31 -33,60 -56,87 -23,27 -49,52 -78,73 -29,22 -59,39 -90,53 3,9 8,19 16,32 9,12 18,24 28,36 11,13 21,24 31,35 11,11 20,20 27,26 0,-21 3,-42 9,-64 7,-22 16,-43 28,-64 12,-20 26,-39 41,-57 16,-18 34,-34 52,-47 18,-13 37,-24 57,-32 19,-8 39,-12 58,-12l5 0 22 0 6 0c24,0 44,-5 60,-14 16,-10 30,-23 42,-38 11,-15 22,-33 31,-51 9,-19 18,-37 27,-55 11,-22 23,-44 37,-66 13,-22 29,-42 47,-60 18,-18 38,-33 60,-44 22,-11 47,-16 75,-16 39,0 71,9 99,26 27,18 50,41 67,69 18,29 31,61 40,97 8,36 12,73 12,109 0,31 -4,60 -13,86 -9,26 -21,48 -36,67 -14,19 -30,34 -49,45 -18,10 -36,16 -55,16zm-69 -349c-11,0 -21,4 -30,12 -9,8 -18,18 -26,30 -7,12 -15,25 -21,40 -6,14 -12,27 -17,39 12,7 26,14 41,21 15,6 31,12 47,17 16,5 33,9 50,12 16,4 32,6 48,7 1,-22 0,-44 -4,-65 -4,-21 -10,-40 -19,-57 -8,-17 -18,-30 -30,-41 -12,-10 -25,-15 -39,-15zm-645 40c1,-11 0,-21 -1,-33 0,-11 -2,-22 -5,-33 -3,-11 -6,-20 -11,-29 -5,-9 -11,-15 -18,-20 -6,4 -14,11 -22,21 -8,11 -17,23 -25,37 -8,15 -16,30 -24,48 -8,17 -15,34 -21,52 -6,18 -11,35 -15,52 -4,17 -6,32 -6,46 15,-3 32,-9 48,-18 17,-9 33,-20 47,-33 15,-13 27,-27 36,-42 10,-16 16,-32 17,-48zm-531 -208l-120 -121 120 -121 121 121 -121 121zm-1750 346c27,0 49,-7 68,-22 19,-14 34,-34 48,-58 13,-24 24,-51 33,-82 10,-30 19,-61 27,-93l145 26c-3,12 -7,27 -11,44 -4,17 -8,34 -11,53 -4,18 -7,35 -9,53 -2,17 -3,32 -1,45 1,13 4,23 10,31 5,7 14,10 25,8 14,-1 27,-6 39,-15 12,-9 23,-21 32,-35 9,-14 18,-30 25,-48 7,-17 14,-36 19,-55 5,-19 9,-37 13,-56 3,-18 6,-35 8,-50l139 23c-1,11 -2,24 -4,40 -2,16 -4,33 -6,51 -2,17 -3,35 -3,52 0,18 2,34 6,48 4,14 11,25 20,34 9,9 22,13 39,13 10,0 20,-2 31,-5 10,-4 20,-9 28,-15 9,-6 15,-14 20,-23 6,-8 8,-18 8,-29 0,-19 -3,-40 -9,-62 -6,-23 -14,-45 -22,-68 -9,-22 -18,-43 -28,-63 -9,-20 -17,-37 -24,-51l135 -75 12 25c5,11 11,25 18,42 7,17 14,36 22,56 7,21 14,43 20,65 6,23 11,46 15,69 4,24 6,47 6,69 0,36 -5,69 -15,98 -10,29 -25,54 -45,74 -20,20 -45,36 -76,47 -30,12 -65,17 -106,18 -20,0 -37,-2 -53,-6 -16,-4 -31,-9 -44,-15 -13,-7 -24,-15 -34,-24 -9,-9 -18,-19 -26,-29 -8,11 -18,21 -28,30 -10,9 -21,16 -34,23 -13,6 -27,11 -43,15 -16,4 -34,5 -55,6 -17,0 -33,-1 -48,-5 -14,-3 -27,-8 -39,-15 -12,-6 -23,-14 -33,-24 -9,-9 -18,-19 -26,-30 -8,9 -17,18 -27,26 -10,8 -21,15 -35,22 -13,6 -29,11 -46,14 -17,3 -37,5 -60,5l-1 0 -1 0 -20 0 -49 0c8,15 13,29 17,44 3,15 5,27 6,38 -2,34 -11,64 -26,91 -16,27 -36,50 -60,71 -24,20 -52,37 -83,51 -30,14 -62,26 -94,35 -33,9 -64,15 -96,19 -31,4 -60,6 -86,6 -39,0 -76,-3 -113,-8 -37,-6 -71,-15 -103,-27 -32,-12 -61,-27 -87,-46 -27,-19 -49,-42 -68,-68 -19,-27 -34,-58 -44,-93 -10,-35 -15,-74 -15,-119 0,-32 1,-62 4,-91 2,-29 7,-57 12,-86 6,-28 14,-56 23,-85 9,-29 20,-60 34,-93l139 58c-10,26 -19,50 -27,71 -7,21 -13,40 -18,57 -5,17 -10,33 -12,48 -3,15 -5,28 -7,42 -1,13 -2,26 -3,39 0,13 0,26 0,40 0,27 4,51 13,71 9,20 21,37 35,51 15,13 32,25 52,34 19,8 39,15 60,20 21,5 43,8 64,10 22,2 42,2 61,2 10,0 24,0 42,-1 19,-2 39,-4 61,-7 22,-3 45,-7 67,-12 24,-5 44,-11 63,-19 19,-7 35,-16 47,-26 12,-10 18,-22 18,-35 -27,-20 -62,-37 -108,-53 -45,-16 -100,-27 -166,-35l22 -166 425 0 11 0 1 0zm-1713 0l74 0c15,0 32,-1 50,-3 18,-3 36,-7 51,-13 16,-5 29,-13 40,-23 11,-9 16,-21 16,-35 0,-9 -2,-22 -8,-39 -5,-17 -11,-37 -20,-58 -8,-21 -17,-43 -28,-66 -10,-24 -21,-46 -32,-67l156 -77c10,23 20,47 30,73 10,26 19,52 27,78 8,27 15,53 20,79 4,27 7,52 7,76 0,43 -7,81 -22,112 -14,31 -35,57 -61,77 -26,20 -57,35 -93,44 -37,10 -77,14 -120,14l-87 0 0 -172zm176 470l-120 -120 120 -121 121 121 -121 120zm-219 -298c-8,0 -19,0 -32,-1 -13,-1 -28,-6 -45,-12 -7,45 -22,87 -44,128 -22,40 -49,78 -82,114 -32,35 -69,68 -110,97 -42,30 -86,57 -132,80l-100 -137c26,-14 52,-28 78,-43 26,-16 51,-32 75,-49 23,-18 46,-35 66,-54 21,-19 38,-38 54,-58 15,-20 27,-40 36,-61 8,-21 13,-42 13,-63 0,-15 -3,-33 -8,-55 -6,-21 -13,-45 -21,-70 -8,-25 -18,-50 -28,-75 -10,-26 -20,-49 -29,-70l157 -68c14,43 28,79 41,108 14,29 27,53 39,70 12,17 24,30 36,37 11,7 22,10 34,10l13 0 0 172 -11 0zm-736 -351c-11,-1 -22,2 -34,10 -11,7 -22,17 -31,29 -9,12 -16,26 -21,41 -5,15 -6,30 -2,45 3,14 10,24 21,32 11,7 25,12 43,16 19,3 41,5 66,5 26,1 55,1 88,1 -1,-15 -5,-32 -11,-52 -7,-20 -16,-39 -27,-57 -11,-18 -25,-33 -41,-47 -15,-13 -32,-21 -51,-23zm-13 -353l-102 102 -106 -105 105 -105 103 103 103 -102 105 105 -104 105 -104 -103z"/>
 </g>
</svg>
