<?xml version="1.0" encoding="UTF-8"?>
<!DOCTYPE svg PUBLIC "-//W3C//DTD SVG 1.0//EN" "http://www.w3.org/TR/2001/REC-SVG-20010904/DTD/svg10.dtd">
<!-- Creator: CorelDRAW 2017 -->
<svg xmlns="http://www.w3.org/2000/svg" xml:space="preserve" width="580px" height="580px" version="1.0" shape-rendering="geometricPrecision" text-rendering="geometricPrecision" image-rendering="optimizeQuality" fill-rule="evenodd" clip-rule="evenodd"
viewBox="0 0 8371 8371"
 xmlns:xlink="http://www.w3.org/1999/xlink">
 <g id="Layer_x0020_1">
  <metadata id="CorelCorpID_0Corel-Layer"/>
  <path fill="#FEFEFE" d="M0 0l8371 0 0 8371 -8371 0 0 -8371zm1377 7442c1,-26 6,-51 14,-76 8,-25 18,-49 31,-72 14,-23 29,-44 47,-63 18,-20 38,-36 60,-50 22,-15 45,-26 71,-34 25,-8 51,-12 79,-12 20,0 41,3 62,9 22,6 43,15 65,26l-50 133c-15,-7 -28,-12 -41,-15 -13,-4 -26,-5 -37,-5 -19,0 -38,4 -58,12 -19,8 -38,19 -55,33 -17,14 -31,30 -43,48 -12,18 -20,37 -23,57 0,8 2,15 8,20 5,6 12,10 21,14 9,4 20,8 31,11 11,2 23,5 35,8 22,6 44,13 65,19 21,6 39,15 55,25 17,10 30,24 39,40 10,17 15,39 15,66 0,32 -6,60 -18,85 -13,25 -29,47 -50,66 -21,19 -45,34 -72,47 -27,13 -56,24 -86,32 -30,9 -60,14 -91,18 -30,4 -60,5 -87,5 -51,0 -97,-6 -140,-19 -43,-13 -79,-33 -110,-58 -31,-26 -55,-57 -72,-95 -18,-38 -26,-81 -26,-130 0,-8 0,-16 0,-24 1,-8 2,-15 2,-22 2,-33 6,-64 13,-94 7,-31 14,-57 22,-81 8,-23 15,-43 21,-57 7,-15 10,-24 11,-26l114 48c-9,20 -17,40 -24,59 -7,20 -14,41 -19,61 -5,21 -10,42 -13,63 -3,21 -5,43 -5,65 0,31 7,58 19,79 13,21 30,37 51,50 21,12 45,21 72,27 27,5 55,8 84,8 38,0 74,-3 107,-8 34,-6 63,-13 89,-21 25,-9 45,-19 61,-30 15,-11 24,-23 27,-35 -19,-4 -39,-9 -61,-13 -21,-5 -42,-10 -63,-17 -20,-6 -40,-14 -58,-24 -19,-9 -35,-21 -49,-34 -14,-14 -24,-31 -32,-50 -7,-19 -10,-43 -8,-69zm1533 -4537l183 0 0 -172 -183 0 0 172zm-366 0l183 0 0 -172 -183 0 0 172zm-366 0l183 0 0 -172 -183 0 0 172zm4301 -263l-835 0 0 -366 -537 0 0 366 -824 0c-350,0 -641,279 -641,629l0 183 178 0c0,-154 125,-274 280,-274l1007 0 0 2928 537 0 0 -2928 366 0 0 -366 469 0c183,0 340,105 416,259 -68,-41 -148,-65 -233,-65l-457 0 0 172 457 0c155,0 281,120 281,274l165 0 0 -183c0,-350 -279,-629 -629,-629zm-1201 -195l195 0 0 195 -195 0 0 -195zm-1411 626c76,-154 234,-259 416,-259l457 0 0 194 -640 0c-85,0 -165,24 -233,65zm1606 2863l-195 0 0 -2756 195 0 0 2756zm366 -2928l-927 0 0 -194 927 0 0 194zm-3661 1361l2196 0 0 -171 -2196 0 0 171zm0 -366l2196 0 0 -171 -2196 0 0 171zm0 -366l1281 0 0 -171 -1281 0 0 171zm0 -366l1281 0 0 -172 -1281 0 0 172zm2185 -824l0 -1361 -538 0 0 1281 -194 0 0 -549 -538 0 0 549 -194 0 0 -915 -538 0 0 915 -183 0 0 172 1819 0 0 -1281 194 0 0 1189 172 0zm-1098 -457l194 0 0 377 -194 0 0 -377zm-732 -366l194 0 0 743 -194 0 0 -743zm2207 3031l-2939 0 0 -3855 2939 0 0 1647 172 0 0 -1818 -3283 0 0 366 -366 0 0 4198 3283 0 0 -366 366 0 0 -1464 -172 0 0 1292zm-366 366l-2940 0 0 -3855 195 0 0 3661 2745 0 0 194zm2739 2552c2,-25 4,-51 5,-77 2,-27 3,-53 4,-79 1,-26 2,-51 2,-75 0,-25 0,-47 -1,-68 -2,-45 -4,-85 -5,-119 -2,-34 -4,-63 -6,-89 -1,-26 -3,-48 -5,-68 -2,-19 -4,-36 -6,-52l140 -45c4,35 7,69 10,102 2,34 5,66 6,96 1,31 3,59 3,85 0,26 1,49 1,68 0,21 0,43 -1,67 0,25 0,50 0,76 -1,25 -2,52 -3,78 0,27 -2,53 -4,78l-140 22zm-118 -721c2,-15 8,-29 15,-43 8,-14 18,-26 29,-37 10,-10 22,-19 35,-25 14,-6 27,-9 41,-9 14,0 27,2 38,5 11,3 21,7 31,11 13,6 24,9 34,11 10,2 19,1 27,-2 8,-2 16,-7 24,-14 8,-7 16,-16 25,-28l62 40c-1,1 -2,3 -5,8 -3,4 -7,9 -13,15 -5,6 -11,13 -19,19 -7,7 -16,14 -25,19 -10,6 -20,11 -30,15 -11,4 -23,6 -35,6 -12,1 -23,-1 -33,-4 -10,-3 -20,-6 -29,-10 -9,-3 -19,-6 -29,-9 -9,-3 -20,-5 -32,-4 -7,0 -14,3 -19,7 -4,5 -8,11 -11,17 -3,6 -5,13 -6,19 -1,7 -3,12 -4,16l-71 -23zm-123 718c-19,0 -37,-2 -57,-6 -19,-3 -38,-8 -56,-15 -19,-6 -37,-13 -54,-22 -17,-8 -32,-17 -45,-25 -10,13 -21,24 -32,33 -11,9 -23,16 -36,21 -13,6 -27,10 -42,12 -15,2 -31,4 -48,4l-5 0 -12 0 -2 0 -4 0 0 -1c-35,0 -65,-5 -90,-15 -26,-10 -48,-24 -65,-42 -16,-17 -28,-38 -35,-63 -8,-24 -12,-50 -12,-79 0,-14 1,-32 1,-54 1,-21 1,-46 1,-75 0,-28 0,-59 0,-93 0,-34 -1,-68 -3,-102 -1,-34 -3,-67 -5,-98 -3,-32 -7,-59 -11,-82l135 -41c4,20 7,43 10,70 2,27 4,55 6,85 1,29 3,59 3,89 1,30 2,58 2,83 0,23 0,47 -1,72 -1,24 -2,48 -3,71 0,23 0,43 1,62 1,18 4,32 8,42 3,7 6,12 10,16 5,3 9,6 15,8 5,2 11,3 18,3 5,0 12,0 18,0l1 0 0 0 0 0 1 0 0 0 1 0 0 0 0 0 12 0 5 0c20,0 37,-4 50,-12 14,-8 25,-18 35,-31 10,-13 18,-27 26,-43 7,-15 15,-30 22,-45 9,-19 20,-37 31,-55 11,-19 24,-35 39,-50 15,-15 32,-27 50,-36 19,-9 40,-14 63,-14 31,0 59,7 81,22 23,15 42,34 57,58 15,23 25,50 33,80 7,30 10,60 10,91 0,25 -3,49 -11,71 -8,21 -17,40 -30,56 -12,16 -25,28 -41,37 -15,9 -30,13 -45,13zm-58 -290c-9,0 -17,3 -25,10 -7,7 -14,15 -21,25 -7,10 -13,21 -18,33 -5,12 -10,23 -14,33 10,6 21,12 34,17 13,6 26,10 39,14 14,4 27,8 41,11 14,2 28,4 40,5 2,-18 1,-36 -3,-54 -3,-18 -8,-33 -15,-47 -7,-14 -16,-26 -26,-34 -10,-9 -21,-13 -32,-13zm-687 -40c6,18 13,39 20,61 7,22 14,45 20,68 6,23 11,47 15,70 4,23 5,44 5,65 0,28 -3,56 -11,83 -8,27 -19,53 -33,78 -14,26 -30,50 -50,73 -19,23 -41,45 -64,66 -23,20 -49,40 -76,57 -26,18 -54,34 -83,48l-82 -114c22,-11 44,-24 66,-37 22,-14 43,-29 64,-44 20,-16 39,-33 56,-50 18,-17 34,-35 47,-52 13,-18 23,-36 31,-54 7,-19 11,-36 11,-54 0,-13 -2,-26 -5,-41 -4,-15 -8,-31 -15,-48 -6,-17 -13,-35 -20,-54 -8,-19 -17,-40 -27,-61l131 -60zm-1045 511c42,-8 81,-19 116,-32 35,-13 66,-27 92,-43 26,-16 48,-32 66,-50 17,-18 29,-36 36,-54 -13,0 -26,-1 -41,-1 -14,-1 -26,-1 -35,-2 -30,-2 -58,-8 -82,-17 -24,-9 -45,-21 -63,-36 -18,-16 -31,-35 -41,-57 -10,-23 -14,-48 -14,-77 0,-19 1,-37 5,-57 4,-19 10,-38 17,-56 8,-19 17,-36 28,-52 11,-17 23,-31 37,-43 14,-13 29,-22 46,-29 17,-8 35,-11 54,-11 28,0 53,6 76,18 23,12 44,28 61,48 18,20 33,43 46,69 12,27 22,54 30,82 8,28 13,56 15,84 3,28 3,54 1,78 -4,35 -12,68 -24,99 -12,31 -28,60 -47,86 -19,26 -41,50 -67,71 -25,21 -53,40 -82,56 -30,16 -61,30 -94,41 -34,10 -68,19 -103,24l-33 -139zm221 -474c-6,-1 -13,1 -21,7 -9,6 -16,13 -23,23 -7,9 -13,19 -18,31 -4,12 -6,22 -6,33 0,10 3,19 9,26 6,6 14,12 24,16 10,4 22,8 34,10 13,2 25,4 37,4 13,1 25,1 36,1l28 0c-5,-18 -10,-36 -16,-53 -6,-17 -14,-33 -22,-46 -8,-14 -17,-25 -27,-34 -11,-9 -22,-15 -35,-18zm-988 83c13,8 27,16 45,25 17,8 34,15 52,22 18,7 35,12 52,16 17,5 32,7 44,7 7,0 17,-1 29,-2 12,-1 24,-4 36,-7 12,-3 23,-8 31,-15 9,-6 14,-14 15,-25 0,-11 -4,-25 -11,-39 -7,-15 -17,-31 -30,-47 -12,-16 -27,-32 -43,-49 -17,-16 -34,-32 -51,-47 -18,-15 -35,-30 -53,-43 -17,-13 -33,-24 -48,-33l80 -119c29,20 58,43 87,69 29,25 55,52 80,80 24,29 45,58 63,88 18,31 31,61 39,92 2,9 4,18 5,26 1,9 1,18 1,26 0,28 -5,54 -16,77 -11,23 -26,44 -46,61 -19,17 -42,30 -70,39 -27,10 -57,14 -89,14 -3,0 -5,0 -7,0 -3,0 -5,0 -8,0 -20,0 -42,-2 -64,-7 -22,-4 -43,-10 -64,-17 -22,-7 -42,-16 -62,-25 -20,-10 -39,-20 -56,-31l59 -136zm-249 213c2,-25 3,-51 5,-77 1,-27 2,-53 4,-79 1,-26 1,-51 2,-75 0,-25 0,-47 -1,-68 -2,-43 -4,-80 -5,-113 -2,-32 -4,-61 -5,-86 -2,-25 -4,-47 -6,-66 -1,-19 -3,-36 -5,-51 -1,-16 -3,-31 -5,-45 -3,-13 -5,-28 -7,-42l139 -46c7,40 13,81 17,122 4,41 7,80 9,117 2,38 3,73 4,105 1,33 1,60 1,83 0,21 0,43 0,67 0,25 0,50 -1,76 0,25 -1,52 -2,78 -1,27 -2,53 -4,78l-140 22zm-503 -213c12,8 27,16 44,25 17,8 35,15 53,22 18,7 35,12 52,16 17,5 31,7 44,7 7,0 16,-1 29,-2 12,-1 24,-4 36,-7 12,-3 22,-8 31,-15 9,-6 14,-14 14,-25 1,-11 -3,-25 -10,-39 -8,-15 -18,-31 -30,-47 -13,-16 -27,-32 -44,-49 -16,-16 -33,-32 -51,-47 -17,-15 -35,-30 -52,-43 -18,-13 -34,-24 -48,-33l80 -119c29,20 58,43 87,69 28,25 55,52 79,80 25,29 46,58 64,88 18,31 30,61 38,92 3,9 4,18 5,26 1,9 2,18 2,26 0,28 -6,54 -17,77 -11,23 -26,44 -45,61 -20,17 -43,30 -70,39 -27,10 -57,14 -90,14 -2,0 -4,0 -7,0 -2,0 -5,0 -7,0 -21,0 -42,-2 -64,-7 -22,-4 -44,-10 -65,-17 -21,-7 -42,-16 -62,-25 -20,-10 -38,-20 -56,-31l60 -136zm-300 212c-25,0 -49,-5 -74,-13 -25,-9 -47,-21 -68,-37 -20,-16 -37,-35 -50,-57 -12,-23 -19,-49 -19,-78 0,-60 27,-123 80,-188 5,-5 8,-9 11,-12 3,-3 5,-6 8,-9 2,-3 4,-5 7,-7l8 -9 -28 -23 90 -110c16,11 34,27 55,46 21,20 46,45 74,75 79,89 118,168 118,237 0,31 -7,57 -19,80 -12,23 -28,42 -48,58 -20,15 -43,27 -68,35 -25,8 -51,12 -77,12zm88 -185c0,-9 -3,-20 -9,-31 -6,-12 -14,-25 -24,-37 -10,-13 -21,-26 -33,-39 -12,-13 -24,-26 -36,-38 -8,9 -17,19 -26,31 -9,11 -17,23 -25,36 -7,12 -13,25 -18,39 -5,13 -7,26 -7,39 1,7 4,14 11,19 6,6 14,10 24,13 9,4 19,6 29,8 10,2 19,2 26,2 9,0 19,0 29,-2 11,-1 20,-3 29,-7 8,-3 15,-7 21,-13 6,-5 9,-12 9,-20zm-760 41l25 0c17,0 35,0 53,0 19,0 37,-2 53,-4 17,-2 33,-6 47,-10 14,-5 25,-12 34,-21 9,-9 15,-21 17,-35 3,-14 2,-32 -4,-53 -2,-7 -7,-16 -14,-27 -7,-11 -16,-22 -26,-35 -10,-13 -22,-27 -36,-41 -14,-14 -28,-29 -43,-43 -16,-15 -32,-30 -49,-45 -17,-15 -34,-30 -51,-43l14 -124 381 -169 54 122 -300 139c15,10 30,22 46,36 15,15 31,30 45,47 15,17 29,34 42,53 13,19 24,38 34,58 9,19 17,39 23,59 5,20 8,39 8,58 -1,32 -7,61 -18,88 -11,27 -27,50 -48,70 -20,20 -44,35 -72,47 -28,11 -58,17 -92,17l-123 0 -13 0 -2 0 -3 0 0 -1c-36,0 -66,-5 -91,-15 -26,-10 -48,-24 -64,-42 -17,-17 -29,-38 -36,-63 -7,-24 -11,-50 -11,-79 0,-14 0,-32 1,-54 0,-21 1,-46 1,-75 0,-28 -1,-59 -1,-93 0,-34 -1,-68 -2,-102 -2,-34 -4,-67 -6,-98 -3,-32 -6,-59 -11,-82l135 -41c4,20 8,43 10,70 3,27 5,55 6,85 2,29 3,59 4,89 0,30 1,58 1,83 1,23 0,47 -1,72 -1,24 -2,48 -2,71 -1,23 -1,43 0,62 1,18 4,32 9,42 2,7 6,12 10,16 4,3 9,6 14,8 6,2 11,3 18,3 6,0 12,0 19,0l0 0 0 0 1 0 0 0 0 0 1 0 0 0 1 0 12 0zm-767 323c43,-8 82,-19 116,-32 35,-13 66,-27 93,-43 26,-16 48,-32 65,-50 18,-18 30,-36 37,-54 -13,0 -27,-1 -41,-1 -15,-1 -26,-1 -36,-2 -30,-2 -57,-8 -81,-17 -25,-9 -46,-21 -63,-36 -18,-16 -32,-35 -41,-57 -10,-23 -15,-48 -15,-77 0,-19 2,-37 6,-57 4,-19 10,-38 17,-56 7,-19 17,-36 28,-52 11,-17 23,-31 37,-43 14,-13 29,-22 46,-29 17,-8 35,-11 54,-11 28,0 53,6 76,18 23,12 43,28 61,48 17,20 33,43 45,69 13,27 23,54 31,82 8,28 13,56 15,84 3,28 3,54 0,78 -3,35 -11,68 -23,99 -13,31 -28,60 -47,86 -20,26 -42,50 -67,71 -25,21 -53,40 -82,56 -30,16 -62,30 -95,41 -33,10 -67,19 -102,24l-34 -139zm222 -474c-6,-1 -14,1 -22,7 -8,6 -15,13 -22,23 -7,9 -13,19 -18,31 -5,12 -7,22 -7,33 0,10 3,19 10,26 6,6 14,12 24,16 10,4 21,8 34,10 12,2 25,4 37,4 12,1 24,1 35,1l28 0c-4,-18 -9,-36 -16,-53 -6,-17 -13,-33 -21,-46 -8,-14 -17,-25 -28,-34 -10,-9 -21,-15 -34,-18z"/>
 </g>
</svg>
