<?xml version="1.0" encoding="UTF-8"?>
<!DOCTYPE svg PUBLIC "-//W3C//DTD SVG 1.0//EN" "http://www.w3.org/TR/2001/REC-SVG-20010904/DTD/svg10.dtd">
<!-- Creator: CorelDRAW 2017 -->
<svg xmlns="http://www.w3.org/2000/svg" xml:space="preserve" width="580px" height="580px" version="1.0" shape-rendering="geometricPrecision" text-rendering="geometricPrecision" image-rendering="optimizeQuality" fill-rule="evenodd" clip-rule="evenodd"
viewBox="0 0 12639 12639"
 xmlns:xlink="http://www.w3.org/1999/xlink">
 <g id="Layer_x0020_1">
  <metadata id="CorelCorpID_0Corel-Layer"/>
  <path fill="#FEFEFE" d="M0 0l12639 0 0 12639 -12639 0 0 -12639zm5473 11432l-1 0 -1 0 -25 0 -2 0c-73,0 -137,-13 -192,-37 -55,-25 -105,-61 -151,-109 -13,24 -33,44 -58,61 -25,17 -53,30 -85,41 -32,11 -67,19 -105,25 -37,6 -74,10 -112,13 -39,3 -76,4 -112,5 -37,0 -70,1 -100,1 -51,-2 -101,-4 -152,-7 -51,-2 -100,-8 -147,-16 -46,-8 -90,-20 -131,-36 -41,-16 -77,-37 -107,-65 -30,-27 -55,-61 -72,-102 -17,-42 -26,-92 -26,-150 0,-20 2,-41 6,-64 4,-23 10,-45 17,-68 8,-23 17,-44 27,-65 10,-20 22,-39 35,-55l161 118c-6,9 -13,20 -20,32 -7,12 -14,24 -20,38 -6,13 -12,26 -16,40 -4,14 -6,26 -6,39 0,19 7,36 23,50 15,15 36,27 62,38 26,11 56,20 91,27 34,7 70,12 108,17 39,4 77,7 117,9 39,2 77,3 114,3 26,0 55,-1 86,-2 31,-1 62,-3 93,-7 32,-3 62,-8 91,-14 30,-7 56,-15 79,-26 23,-10 41,-23 54,-39 14,-15 21,-34 21,-55 0,-21 -6,-43 -18,-66 -12,-23 -28,-47 -48,-71 -20,-24 -42,-48 -67,-72 -26,-24 -51,-46 -77,-68 -25,-22 -50,-42 -74,-60 -24,-19 -45,-35 -63,-49l22 -186 631 -265 76 190 -524 213c33,25 65,52 95,78 30,27 58,54 84,82 27,28 51,58 73,89 23,31 43,64 60,100 13,27 28,54 43,81 16,27 34,51 54,73 20,22 44,40 70,54 26,14 56,20 90,20l2 0 25 0 2 0 0 0c32,0 61,0 86,-2 26,-2 48,-5 68,-10 19,-4 35,-10 48,-18 14,-8 24,-17 32,-28 11,-15 17,-31 20,-49 2,-17 3,-36 1,-55 -2,-19 -6,-38 -11,-56 -5,-19 -10,-37 -14,-55l199 -57c6,21 10,40 14,57 4,16 7,33 10,49 3,16 6,32 8,48 3,17 5,35 8,54 2,12 4,25 7,39 3,15 8,28 15,41 6,12 16,22 28,30 12,8 27,12 46,12l1 0 0 0 16 0 137 0c20,0 41,-1 65,-3 23,-2 46,-6 66,-12 21,-7 38,-16 52,-29 14,-12 21,-29 21,-49 0,-11 -3,-27 -10,-49 -6,-21 -15,-46 -26,-72 -10,-27 -23,-55 -36,-84 -13,-29 -27,-57 -40,-83l195 -97c13,28 26,59 38,91 13,33 24,65 34,99 10,33 18,66 25,99 6,33 9,65 9,95 0,56 -11,104 -31,143 -21,40 -49,72 -85,97 -35,24 -77,42 -125,54 -48,11 -99,17 -153,17l-136 0 -16 0 -1 0 -1 0 -1 0 -8 0 0 -1c-18,0 -36,-2 -53,-5 -21,-4 -41,-9 -60,-15 -18,-7 -36,-15 -51,-24 -16,-9 -30,-19 -41,-29 -22,16 -46,29 -74,38 -27,10 -56,17 -87,23 -31,5 -62,8 -95,10 -32,2 -63,2 -94,3zm-1426 -6119l227 0 0 -228 -227 0 0 228zm0 -455l227 0 0 -227 -227 0 0 227zm0 -454l227 0 0 -228 -227 0 0 228zm114 2159c-376,0 -682,305 -682,681 0,376 306,682 682,682 376,0 681,-306 681,-682 0,-376 -305,-681 -681,-681zm0 1136c-251,0 -455,-204 -455,-455 0,-250 204,-454 455,-454 250,0 454,204 454,454 0,251 -204,455 -454,455zm1014 -964l184 -221 -468 -468 -221 184c-49,-25 -100,-46 -153,-63l-25 -286 -662 0 -26 286c-53,17 -104,38 -153,63l-220 -184 -469 468 184 221c-25,49 -46,100 -63,153l-286 25 0 662 286 26c17,53 38,104 63,153l-184 220 469 469 220 -184c49,25 100,46 153,63l26 286 662 0 25 -286c53,-17 104,-38 154,-63l220 184 468 -469 -184 -220c25,-49 46,-100 64,-153l285 -26 0 -662 -286 -25c-17,-53 -38,-104 -63,-153zm122 633l-236 21 -20 78c-22,86 -55,167 -100,242l-42 70 152 182 -174 174 -182 -152 -69 41c-76,45 -157,79 -243,101l-78 19 -21 237 -247 0 -21 -237 -78 -19c-86,-22 -167,-56 -242,-101l-69 -41 -183 152 -174 -174 152 -182 -41 -70c-45,-75 -79,-156 -101,-242l-19 -78 -237 -21 0 -247 237 -21 19 -78c22,-86 56,-167 101,-243l41 -69 -152 -182 174 -174 183 152 69 -42c75,-45 156,-78 242,-100l78 -20 21 -236 247 0 21 236 78 20c86,22 167,55 243,100l69 42 182 -152 174 174 -152 182 42 69c45,76 78,157 100,243l20 78 236 21 0 247zm2159 -4555c-188,0 -341,153 -341,341 0,188 153,341 341,341 188,0 341,-153 341,-341 0,-188 -153,-341 -341,-341zm0 454c-63,0 -114,-51 -114,-113 0,-63 51,-114 114,-114 63,0 113,51 113,114 0,62 -50,113 -113,113zm-909 -454c-188,0 -341,153 -341,341 0,188 153,341 341,341 188,0 341,-153 341,-341 0,-188 -153,-341 -341,-341zm0 454c-63,0 -114,-51 -114,-113 0,-63 51,-114 114,-114 62,0 113,51 113,114 0,62 -51,113 -113,113zm3295 455l0 -1136 -568 0 0 -428 297 -595 -1276 0 297 595 0 428 -290 0c-79,-136 -224,-228 -392,-228l-1818 0c-250,0 -454,204 -454,455l-568 0 0 -455 -1705 0c-313,0 -568,255 -568,569l0 113 1250 0 0 227 -1250 0 0 114c0,313 255,568 568,568l1705 0 0 -454 568 0c0,250 204,454 454,454l73 0 -376 1204c-95,144 -151,316 -151,501 0,501 408,909 909,909 45,0 89,-5 132,-11l184 920 -159 0 -227 454 -271 0 0 682 3636 0 0 -682 -271 0 -227 -454 -184 0 0 -860 -1687 -1013 412 -1650 25 0c168,0 313,-92 392,-227l290 0 0 314 -297 595 1276 0 -297 -595 0 -314 568 0zm-6798 -909c47,-132 173,-227 321,-227l1477 0 0 227 -1798 0zm1798 909l-1477 0c-148,0 -274,-95 -321,-227l1798 0 0 227zm228 -455l-796 0 0 -227 1364 0 0 227 -568 0zm795 2387c0,-376 306,-682 682,-682 376,0 682,306 682,682 0,376 -306,681 -682,681 -376,0 -682,-305 -682,-681zm1571 188l750 451 -1215 561 -72 -362c270,-114 475,-356 537,-650zm970 582l395 237 -1716 763 -68 -341 1395 -644 -6 -15zm1209 1957l-3182 0 0 -228 3182 0 0 228zm-298 -455l-2586 0 113 -227 2360 0 113 227zm-1780 -454l1396 -621 0 621 -1396 0zm-200 -2266c-156,-275 -452,-461 -790,-461 -154,0 -299,38 -426,106l282 -902 1248 0 -314 1257zm801 -1711c0,125 -102,227 -228,227l-1818 0c-125,0 -227,-102 -227,-227l0 -682c0,-125 102,-227 227,-227l1818 0c126,0 228,102 228,227l0 682zm1066 -1705l-114 228 -314 0 -114 -228 542 0zm-385 455l228 0 0 341 -228 0 0 -341zm796 568l0 227 -1250 0 0 -227 1250 0zm-1250 454l1250 0 0 228 -1250 0 0 -228zm297 1137l114 -228 314 0 114 228 -542 0zm385 -455l-228 0 0 -227 228 0 0 227zm-2387 1364l-227 0 0 227 -227 0 0 227 227 0 0 227 227 0 0 -227 228 0 0 -227 -228 0 0 -227zm1995 5618c9,28 19,59 30,92 11,34 20,68 29,103 9,35 16,70 22,105 7,35 9,67 9,98 0,43 -5,84 -17,125 -12,41 -28,80 -49,119 -21,38 -46,75 -76,110 -29,35 -61,68 -97,99 -35,31 -73,60 -114,87 -40,27 -82,51 -126,72l-124 -173c33,-16 66,-35 100,-56 33,-20 65,-42 96,-66 31,-24 59,-49 86,-75 27,-26 50,-52 70,-79 19,-27 35,-54 46,-81 12,-28 17,-55 17,-81 0,-19 -2,-40 -7,-63 -6,-22 -13,-46 -22,-72 -9,-25 -20,-53 -32,-82 -12,-28 -25,-59 -39,-92l198 -90zm-1104 772c64,-13 123,-29 176,-49 53,-19 99,-41 139,-65 40,-23 73,-49 99,-76 26,-27 45,-54 56,-81 -20,0 -41,-1 -63,-2 -22,0 -39,-1 -53,-2 -46,-4 -87,-12 -124,-26 -36,-13 -68,-32 -95,-55 -26,-23 -47,-52 -62,-86 -14,-34 -21,-72 -21,-116 0,-28 2,-56 9,-85 5,-29 14,-58 25,-86 11,-27 25,-54 42,-78 16,-25 35,-46 56,-65 21,-19 44,-33 70,-44 25,-11 52,-16 81,-16 42,0 80,9 115,27 34,18 65,42 92,73 26,30 49,65 68,104 20,40 35,81 47,123 11,43 19,86 23,128 3,42 4,81 0,117 -5,53 -17,103 -36,150 -18,47 -42,90 -71,129 -29,40 -62,76 -101,108 -38,32 -79,60 -124,84 -45,25 -92,45 -142,61 -51,17 -102,29 -155,37l-51 -209zm335 -716c-9,-1 -20,2 -33,10 -12,9 -23,20 -34,34 -10,15 -19,30 -26,48 -7,17 -11,34 -11,50 0,15 5,28 15,38 9,10 21,19 36,25 16,7 33,12 51,15 19,3 38,6 57,7 18,1 36,1 53,1l42 0c-7,-28 -15,-55 -24,-81 -9,-26 -20,-49 -32,-69 -13,-21 -26,-38 -42,-52 -16,-13 -33,-22 -52,-26zm-829 228l65 0c19,0 41,-1 63,-4 23,-3 45,-9 65,-16 19,-7 36,-16 50,-28 13,-12 20,-27 20,-45 0,-11 -3,-27 -10,-49 -6,-21 -15,-46 -25,-72 -11,-27 -22,-55 -36,-84 -13,-29 -26,-57 -39,-83l195 -97c13,28 26,59 38,91 13,33 24,65 34,99 10,33 18,66 24,99 6,33 9,65 9,95 0,54 -9,101 -27,140 -18,40 -44,72 -77,97 -32,25 -72,44 -117,56 -45,11 -96,18 -150,18l-82 0 -19 0 -2 0 -6 0 0 -1c-53,0 -99,-8 -137,-23 -39,-15 -72,-36 -97,-63 -25,-27 -43,-58 -54,-95 -11,-37 -17,-76 -17,-119 0,-22 1,-49 2,-82 1,-32 1,-70 1,-113 0,-43 0,-90 -1,-141 0,-51 -1,-102 -3,-154 -2,-51 -5,-101 -9,-148 -4,-48 -9,-89 -16,-124l204 -62c6,30 11,66 15,106 3,41 7,84 9,128 2,45 4,90 5,135 1,45 2,87 2,125 1,35 0,71 -1,108 -2,38 -3,74 -4,108 -1,35 -1,65 1,93 2,28 6,49 13,64 4,10 9,18 15,24 6,5 13,9 22,12 8,3 17,4 27,5 8,0 17,0 28,0l0 0 1 0 0 0 1 0 0 0 1 0 0 0 1 0 18 0zm194 591l-151 -152 151 -152 152 152 -152 152zm-905 -1295l-128 128 -133 -132 132 -132 129 130 129 -128 133 132 -132 131 -130 -129zm-634 1121l-128 128 -133 -132 132 -132 129 130 129 -128 133 131 -132 132 -130 -129z"/>
 </g>
</svg>
