<?xml version="1.0" encoding="UTF-8"?>
<!DOCTYPE svg PUBLIC "-//W3C//DTD SVG 1.0//EN" "http://www.w3.org/TR/2001/REC-SVG-20010904/DTD/svg10.dtd">
<!-- Creator: CorelDRAW 2017 -->
<svg xmlns="http://www.w3.org/2000/svg" xml:space="preserve" width="580px" height="580px" version="1.0" shape-rendering="geometricPrecision" text-rendering="geometricPrecision" image-rendering="optimizeQuality" fill-rule="evenodd" clip-rule="evenodd"
viewBox="0 0 42063 42063"
 xmlns:xlink="http://www.w3.org/1999/xlink">
 <g id="Layer_x0020_1">
  <metadata id="CorelCorpID_0Corel-Layer"/>
  <path fill="#FEFEFE" d="M0 0l42063 0 0 42063 -42063 0 0 -42063zm19926 26189c-44,0 -89,-7 -134,-22 -223,-75 -343,-315 -269,-538l708 -2125c75,-222 315,-343 538,-268 223,74 343,314 269,537l-708 2125c-60,178 -226,291 -404,291zm1176 -3528c-44,0 -90,-7 -134,-22 -223,-74 -343,-314 -269,-537l57 -170c74,-223 315,-343 537,-269 223,74 343,315 269,538l-57 170c-59,178 -225,290 -403,290zm1922 -9800l2902 8508 725 -2041c1,-4 3,-8 4,-12 498,-1276 751,-2338 751,-3157 0,-1181 -326,-1755 -671,-2359 -39,-64 -78,-127 -117,-189 -488,-788 -948,-1531 -948,-2430 0,-927 541,-1724 1309,-2066 -1703,-1300 -3784,-2007 -5948,-2007 -3044,0 -5881,1398 -7738,3777 1042,-11 2521,-126 2537,-128 3,0 6,0 8,0 475,-29 842,349 893,917 52,594 -264,1068 -753,1125 -16,2 -279,33 -643,62l2773 8256 1793 -5375 -1071 -2862c-407,-31 -745,-71 -813,-80 -479,-37 -800,-487 -765,-1075 35,-590 413,-997 896,-968 2,0 5,0 7,0 17,2 1687,129 2665,129 1042,0 2680,-127 2696,-129 3,0 6,0 9,0 474,-29 842,349 892,917 53,594 -264,1067 -752,1125 -16,2 -278,32 -641,62zm2894 10225c-1,0 -1,0 -2,0 -181,-1 -341,-116 -400,-287l-3475 -10188c-43,-126 -24,-265 50,-375 75,-110 197,-179 330,-186 524,-27 1009,-80 1121,-92 44,-73 39,-268 -6,-350 -283,22 -1729,128 -2716,128 -926,0 -2389,-106 -2681,-128 -45,81 -54,268 -15,349 84,10 550,65 1033,93 168,10 314,118 373,275l1219 3260c35,92 36,192 5,284l-2241 6722c-58,173 -220,290 -402,290 -1,0 -1,0 -1,0 -183,0 -345,-116 -403,-289l-3353 -9982c-42,-126 -23,-265 51,-375 75,-110 197,-178 330,-185 524,-27 1008,-80 1120,-92 44,-73 40,-268 -6,-350 -283,22 -1729,128 -2715,128 -186,0 -412,-4 -674,-13 -153,-5 -292,-93 -363,-229 -71,-137 -62,-301 22,-429 1983,-3010 5315,-4807 8912,-4807 2674,0 5232,994 7203,2800 133,122 175,314 104,480 -71,166 -238,270 -418,258 -17,-1 -34,-3 -51,-4 -21,-2 -41,-4 -55,-4 -799,0 -1294,723 -1294,1393 0,657 380,1271 821,1982 40,65 81,131 122,197 2,4 4,8 6,12 369,645 787,1376 787,2787 0,936 -264,2068 -806,3460l-1131 3184c-60,170 -221,283 -401,283zm3788 -6206l-2710 7837c2402,-1844 3852,-4731 3852,-7793 0,-944 -137,-1883 -402,-2782 -109,872 -351,1764 -740,2738zm-3526 9321c-96,0 -192,-33 -270,-97 -137,-113 -190,-299 -131,-467l3127 -9044c3,-6 5,-13 8,-19 510,-1277 748,-2393 748,-3510 0,-342 -22,-677 -65,-996 -27,-203 94,-397 288,-461 195,-64 407,20 506,200 855,1560 1306,3329 1306,5117 0,1899 -505,3764 -1462,5392 -929,1580 -2257,2904 -3841,3827 -66,39 -140,58 -214,58zm-14512 -12229c-301,952 -453,1941 -453,2952 0,3416 1721,6502 4558,8292l-4105 -11244zm4894 12594c-63,0 -126,-14 -185,-43 -1775,-862 -3276,-2198 -4340,-3864 -1094,-1712 -1672,-3695 -1672,-5735 0,-1506 311,-2967 924,-4341 70,-158 229,-257 403,-252 173,6 325,117 384,279l4886 13385c59,163 14,345 -115,461 -80,72 -182,110 -285,110zm2126 -109c768,189 1554,284 2343,284 964,0 1914,-140 2832,-417l-2640 -7233 -2535 7366zm2343 1134c-1018,0 -2032,-146 -3013,-435 -111,-32 -204,-109 -257,-212 -54,-104 -62,-224 -25,-334l3073 -8928c59,-171 218,-286 398,-287 2,0 3,0 4,0 179,0 338,111 400,279l3144 8615c9,22 22,45 40,74 67,109 81,243 38,364 -43,121 -138,216 -259,259 -1140,401 -2332,605 -3543,605zm-2605 8053c10,19 26,52 50,100 22,48 49,105 80,172 30,68 62,143 96,227 33,83 63,171 90,262 27,92 50,186 67,281 18,96 27,188 27,277 -2,151 -24,290 -68,421 -43,131 -106,244 -190,340 -82,96 -186,172 -309,228 -122,57 -264,85 -424,85 -140,0 -254,-24 -343,-71 -89,-47 -162,-111 -219,-193 -32,41 -66,77 -102,110 -37,33 -80,60 -129,84 -49,23 -107,42 -173,53 -65,12 -144,18 -235,18 -64,0 -122,-4 -175,-13 -54,-9 -102,-21 -146,-34 -1,177 -28,338 -80,484 -52,146 -124,276 -214,391 -90,115 -196,216 -317,300 -121,86 -252,155 -391,211 -140,55 -285,96 -438,124 -152,27 -303,41 -454,41 -232,0 -446,-39 -643,-115 -197,-77 -367,-184 -511,-324 -143,-138 -254,-305 -334,-499 -81,-195 -121,-410 -121,-645 5,-137 23,-276 55,-418 34,-143 75,-283 126,-419 50,-136 107,-266 170,-389 63,-124 127,-235 192,-334l496 383c-55,89 -108,184 -159,284 -52,100 -97,201 -137,304 -39,104 -71,206 -95,309 -24,103 -37,203 -37,298 -4,115 19,223 70,325 51,102 121,191 211,267 91,77 197,137 319,181 122,44 252,66 390,66 156,0 300,-14 433,-43 132,-29 250,-69 352,-119 103,-51 188,-113 258,-184 69,-73 120,-152 150,-238l-2 2c37,-120 56,-248 56,-384 0,-102 -13,-205 -42,-309 -30,-105 -66,-210 -112,-317 -45,-107 -96,-215 -151,-323 -55,-109 -109,-218 -163,-327l623 -349c40,89 79,179 118,270 39,91 80,178 120,261 40,82 82,159 123,230 43,71 87,132 133,183 45,51 92,89 142,115 49,26 102,35 158,28 63,-10 115,-33 154,-67 39,-36 70,-81 90,-134 21,-53 34,-112 39,-178 5,-66 6,-133 3,-202 -3,-68 -8,-135 -14,-202 -7,-66 -13,-128 -18,-184l628 -84c10,47 20,103 27,170 8,65 16,135 26,207 10,73 23,146 37,220 16,75 36,144 62,208 25,63 58,118 95,165 38,47 86,81 144,101 47,0 91,-9 132,-26 41,-18 76,-43 107,-76 30,-34 54,-75 71,-125 18,-49 26,-106 26,-172 0,-54 -10,-117 -30,-189 -21,-72 -49,-150 -84,-233 -35,-83 -75,-171 -121,-263 -46,-91 -95,-184 -146,-279l581 -325zm2320 2400c-34,0 -78,-3 -133,-7 -54,-5 -116,-22 -186,-51 -33,188 -96,367 -187,536 -92,169 -205,327 -340,475 -135,147 -289,284 -461,408 -174,125 -358,236 -553,335l-417 -576c109,-55 217,-114 326,-178 109,-65 213,-133 312,-205 100,-72 192,-147 278,-225 86,-78 160,-159 224,-242 63,-84 114,-169 150,-256 36,-88 54,-176 54,-264 0,-60 -11,-135 -34,-226 -22,-91 -51,-188 -86,-293 -35,-105 -73,-210 -116,-316 -43,-107 -83,-203 -123,-291l657 -286c60,181 119,333 174,454 56,121 109,218 160,291 52,73 101,124 149,153 48,30 95,45 142,45l55 0 0 719 -45 0zm-46 -719l546 0c65,0 137,-4 216,-11 79,-6 153,-20 222,-42 68,-21 126,-52 172,-94 46,-42 70,-97 70,-164 0,-37 -12,-91 -33,-163 -22,-72 -51,-153 -87,-241 -35,-89 -75,-182 -120,-279 -45,-97 -89,-189 -133,-277l650 -323c43,96 84,197 126,305 42,108 80,217 113,327 33,111 60,221 81,331 20,109 30,215 30,315 0,188 -35,347 -103,479 -69,130 -163,238 -281,320 -119,82 -257,142 -416,180 -159,36 -330,56 -511,56l-542 0 0 -719zm919 1466l427 -428 442 440 -437 438 -432 -431 -427 427 -442 -439 437 -439 432 432zm-407 664l404 -405 407 407 -404 405 -407 -407zm1807 -2474c64,41 138,82 224,123 86,41 174,79 264,113 90,34 177,61 262,82 85,22 159,33 220,33 35,0 84,-3 145,-9 62,-6 122,-18 182,-36 60,-17 113,-42 157,-74 45,-31 69,-73 72,-124 1,-60 -17,-127 -54,-201 -37,-74 -87,-152 -149,-233 -64,-81 -136,-163 -219,-245 -83,-83 -168,-162 -256,-239 -88,-77 -176,-148 -264,-214 -88,-66 -169,-122 -243,-169l403 -598c146,103 293,218 437,346 145,128 278,264 400,406 122,143 229,291 318,442 91,153 156,306 195,461 12,44 21,88 25,133 4,45 7,88 7,129 0,140 -28,270 -82,388 -55,116 -131,218 -228,304 -99,85 -215,151 -351,198 -137,47 -287,71 -451,71 -12,0 -24,0 -37,-1 -12,-1 -24,-1 -35,-1 -105,0 -212,-11 -323,-33 -110,-22 -218,-51 -325,-88 -106,-36 -210,-78 -311,-127 -101,-48 -194,-99 -281,-153l298 -684zm3490 -605c31,95 65,197 101,309 36,112 68,226 98,342 29,116 54,233 74,349 20,116 29,225 29,326 0,143 -19,281 -58,417 -38,136 -93,267 -163,395 -71,127 -154,249 -252,366 -97,116 -205,227 -322,331 -119,103 -245,200 -380,288 -135,89 -275,169 -419,241l-414 -576c110,-55 220,-116 332,-185 111,-69 217,-143 320,-222 102,-79 198,-162 286,-248 89,-86 167,-174 233,-263 65,-90 118,-181 155,-272 38,-92 57,-181 57,-269 0,-64 -9,-133 -26,-208 -18,-74 -41,-154 -72,-239 -30,-86 -65,-177 -105,-273 -40,-96 -84,-199 -131,-308l657 -301zm459 2570c214,-43 409,-96 584,-161 176,-64 330,-136 463,-216 133,-79 243,-164 330,-253 87,-89 149,-180 185,-272 -65,0 -134,-2 -207,-4 -73,-2 -132,-5 -179,-9 -150,-11 -287,-40 -410,-84 -123,-45 -228,-106 -317,-185 -88,-77 -157,-172 -206,-285 -48,-112 -72,-241 -72,-387 0,-92 10,-186 30,-284 19,-97 48,-192 84,-284 38,-92 84,-180 140,-261 55,-82 117,-154 187,-217 70,-61 146,-110 231,-146 84,-36 174,-53 271,-53 139,0 267,30 383,91 115,61 217,141 305,242 89,101 165,217 229,348 63,131 114,267 153,409 39,141 65,283 77,424 13,141 14,272 2,391 -19,177 -59,343 -120,499 -62,155 -140,298 -237,430 -96,131 -207,250 -334,356 -128,108 -266,202 -414,283 -149,81 -307,149 -474,203 -168,55 -339,96 -516,123l-168 -698zm1114 -2380c-31,-6 -68,4 -109,33 -41,28 -78,65 -113,113 -35,48 -65,100 -88,158 -24,58 -35,113 -35,166 0,52 16,94 48,128 31,34 72,62 122,83 50,22 107,38 170,50 63,11 125,18 187,22 62,4 121,6 177,6l141 0c-22,-94 -49,-184 -80,-271 -31,-86 -67,-163 -108,-231 -41,-69 -87,-126 -139,-171 -52,-45 -109,-74 -173,-86z"/>
 </g>
</svg>
