<?xml version="1.0" encoding="UTF-8"?>
<!DOCTYPE svg PUBLIC "-//W3C//DTD SVG 1.0//EN" "http://www.w3.org/TR/2001/REC-SVG-20010904/DTD/svg10.dtd">
<!-- Creator: CorelDRAW 2017 -->
<svg xmlns="http://www.w3.org/2000/svg" xml:space="preserve" width="580px" height="580px" version="1.0" shape-rendering="geometricPrecision" text-rendering="geometricPrecision" image-rendering="optimizeQuality" fill-rule="evenodd" clip-rule="evenodd"
viewBox="0 0 16245 16245"
 xmlns:xlink="http://www.w3.org/1999/xlink">
 <g id="Layer_x0020_1">
  <metadata id="CorelCorpID_0Corel-Layer"/>
  <path fill="#FEFEFE" d="M0 0l16245 0 0 16245 -16245 0 0 -16245zm7690 5596l591 -1474 273 109 -590 1475 -274 -110zm1111 -122l590 -442c65,-49 78,-142 29,-207 -8,-11 -18,-21 -29,-29l-590 -443 -177 236 432 325 -432 324 177 236zm-1357 0l177 -236 -433 -324 433 -325 -177 -236 -590 443c-65,49 -78,141 -30,206 9,11 19,21 30,30l590 442zm-944 1062l295 0 0 -295 -295 0 0 295zm737 -3540l295 0 0 -295 -295 0 0 295zm-590 0l295 0 0 -295 -295 0 0 295zm-590 0l295 0 0 -295 -295 0 0 295zm1033 3540l2950 0 0 -295 -2950 0 0 295zm-885 1180l3540 0 0 -295 -3540 0 0 295zm0 -590l3835 0 0 -295 -3835 0 0 295zm6047 3245c0,163 -132,295 -295,295l-7670 0c-162,0 -295,-132 -295,-295l0 -295 2742 0 252 252c27,27 65,43 104,43l2065 0c39,0 76,-16 104,-43l252 -252 2741 0 0 295zm-7965 -5900c0,-163 133,-295 295,-295l885 0 0 295 -737 0c-82,0 -148,66 -148,148l0 4425c0,81 66,147 148,147l6785 0c81,0 147,-66 147,-147l0 -4425c0,-82 -66,-148 -147,-148l-738 0 0 -295 885 0c163,0 295,132 295,295l0 5310 -2507 0c-39,0 -77,16 -104,43l-252 252 -1943 0 -252 -252c-28,-27 -65,-43 -104,-43l-2508 0 0 -5310zm1770 -2065l4130 0c163,0 295,132 295,295l0 590 -4720 0 0 -590c0,-163 132,-295 295,-295zm-295 1180l4720 0 0 4278c0,163 -132,295 -295,295l-4130 0c-163,0 -295,-132 -295,-295l0 -4278zm295 4868l4130 0c326,0 590,-265 590,-590l0 -3098 590 0 0 4130 -6490 0 0 -4130 590 0 0 3098c0,325 265,590 590,590zm6343 1327l-148 0 0 -5310c0,-326 -264,-590 -590,-590l-885 0 0 -1180c0,-325 -264,-590 -590,-590l-4130 0c-325,0 -590,265 -590,590l0 1180 -885 0c-325,0 -590,264 -590,590l0 5310 -147 0c-81,0 -148,66 -148,148l0 442c0,326 265,590 590,590l7670 0c326,0 590,-264 590,-590l0 -442c0,-82 -66,-148 -147,-148zm-4425 0l295 0 0 -295 -295 0 0 295zm-5607 4912c-52,0 -109,-3 -170,-7 -61,-4 -122,-12 -183,-24 -61,-13 -120,-30 -177,-52 -57,-22 -108,-51 -152,-87 -45,-36 -82,-79 -110,-130 -29,-52 -45,-113 -48,-183 0,-35 4,-68 11,-101 8,-32 18,-64 30,-95 13,-31 27,-62 44,-92 16,-30 32,-60 49,-91l207 173c-9,12 -19,28 -31,48 -12,20 -23,40 -34,62 -11,22 -20,43 -27,65 -8,22 -11,41 -11,58 0,21 8,41 24,58 16,17 38,32 66,45 27,13 61,24 99,33 39,9 80,17 125,23 44,6 91,10 140,13 49,3 98,4 148,4 42,0 89,-2 142,-6 53,-4 108,-11 164,-20 56,-9 112,-21 167,-35 56,-14 107,-32 153,-52 -7,-27 -15,-54 -25,-79 -9,-25 -21,-51 -35,-79 -15,-27 -31,-56 -51,-87 -19,-31 -42,-67 -68,-106l216 -141c11,17 23,38 37,63 14,24 28,51 43,79 14,28 28,58 42,90 14,32 26,63 36,95 11,32 20,62 26,92 5,31 8,59 7,85 -3,49 -20,93 -51,130 -31,39 -71,71 -119,99 -49,28 -103,52 -163,71 -61,20 -123,35 -185,47 -62,12 -123,20 -181,25 -59,6 -110,9 -155,9zm-4 481l-195 -195 195 -195 195 195 -195 195zm923 -133c83,-17 158,-37 226,-62 68,-25 127,-53 179,-84 51,-30 93,-63 127,-97 34,-35 58,-70 71,-105 -25,0 -51,-1 -79,-2 -29,-1 -51,-2 -70,-3 -58,-5 -110,-16 -158,-33 -47,-17 -88,-41 -122,-71 -34,-30 -61,-67 -80,-110 -18,-44 -28,-93 -28,-150 0,-35 4,-72 12,-109 7,-38 18,-74 32,-110 15,-36 33,-69 54,-101 21,-32 46,-59 73,-84 27,-23 56,-42 89,-56 32,-14 67,-21 104,-21 54,0 103,12 148,35 45,24 84,55 118,94 34,39 64,84 89,134 24,51 44,104 59,158 15,55 25,110 29,164 5,55 6,105 1,151 -7,68 -22,133 -46,193 -24,60 -54,115 -92,166 -37,50 -80,97 -129,138 -49,41 -102,77 -160,109 -57,31 -118,57 -183,78 -64,21 -131,37 -199,48l-65 -270zm430 -919c-12,-3 -26,1 -42,13 -15,10 -30,25 -43,43 -14,19 -25,39 -34,61 -9,23 -14,44 -14,64 0,20 6,37 19,50 12,13 28,24 47,32 19,8 41,15 65,19 25,4 49,7 73,9 24,1 47,2 68,2l55 0c-9,-36 -20,-71 -31,-104 -12,-34 -26,-64 -42,-90 -16,-27 -34,-48 -54,-66 -20,-17 -42,-29 -67,-33zm1832 1143c-63,0 -124,-5 -183,-14 -60,-9 -115,-23 -166,-42 -52,-20 -99,-45 -141,-75 -43,-30 -79,-67 -110,-110 -30,-43 -54,-93 -70,-149 -17,-57 -25,-121 -25,-192 0,-52 2,-101 6,-147 5,-47 12,-93 21,-139 9,-45 22,-92 36,-138 15,-47 33,-97 55,-150l225 94c-17,43 -31,81 -43,115 -13,33 -23,64 -31,92 -8,28 -14,53 -19,77 -5,23 -8,46 -11,67 -2,21 -3,43 -4,63 0,21 -1,43 -1,66 0,44 7,82 21,114 14,32 34,59 57,82 24,22 52,40 83,55 31,14 64,25 98,32 34,8 68,13 103,16 35,3 68,4 99,4 15,0 38,-1 68,-3 30,-2 62,-5 98,-10 35,-5 71,-12 108,-20 38,-8 71,-18 102,-30 30,-12 55,-26 74,-42 20,-16 30,-35 30,-57 -43,-31 -100,-60 -173,-85 -74,-25 -163,-44 -269,-57l36 -267 721 0 0 278 -114 0c12,23 21,46 27,70 5,24 8,44 9,61 -3,55 -17,104 -42,147 -25,43 -57,81 -96,114 -39,33 -84,61 -134,83 -49,23 -100,42 -152,56 -53,14 -104,25 -155,31 -50,7 -96,10 -138,10zm776 -850c32,0 60,-5 87,-15 27,-11 53,-31 77,-60 24,-29 46,-70 67,-123 21,-54 41,-124 61,-209l233 33c-1,3 -2,7 -3,11 -3,15 -8,36 -13,62 -5,27 -10,57 -14,90 -4,33 -6,64 -6,95 0,30 4,56 10,78 7,22 19,35 36,39 18,5 36,1 53,-11 17,-12 33,-29 48,-52 15,-23 29,-49 42,-79 13,-30 25,-61 35,-93 11,-31 20,-62 28,-93 7,-30 13,-57 17,-80l232 33c-1,14 -3,34 -6,58 -3,25 -6,50 -7,78 -2,28 -3,55 -2,83 0,28 3,53 9,75 6,23 15,42 27,56 12,14 29,21 51,21 19,0 36,-6 50,-19 14,-13 26,-30 36,-50 9,-21 17,-45 23,-71 6,-27 10,-54 13,-82 3,-27 4,-54 4,-80 0,-26 -1,-49 -2,-69l237 -33 29 247c3,27 11,50 22,70 12,20 26,37 42,50 16,13 32,23 50,30 17,7 34,10 50,10l28 0 0 278 -28 0c-57,0 -110,-11 -161,-30 -50,-20 -94,-54 -131,-101 -3,4 -7,8 -10,12 -4,3 -7,7 -10,11l0 -1c-32,33 -68,59 -109,79 -41,19 -86,30 -133,30 -53,0 -103,-12 -147,-35 -45,-23 -82,-54 -112,-93 -35,39 -75,70 -120,94 -44,24 -93,36 -146,36 -50,0 -96,-11 -139,-33 -43,-23 -78,-53 -106,-92 -32,44 -71,75 -117,94 -47,19 -104,29 -173,29l-18 0 0 -278 16 0zm525 -374l0 0c1,-5 2,-5 0,0zm1084 374l211 0c25,0 53,-1 83,-4 30,-3 59,-8 86,-16 26,-8 48,-20 66,-37 18,-16 27,-37 27,-63 0,-14 -4,-35 -13,-63 -8,-28 -19,-59 -33,-93 -14,-34 -29,-70 -46,-108 -18,-37 -35,-73 -52,-107l251 -125c17,37 33,77 49,118 16,42 31,84 43,127 13,42 24,85 32,127 8,43 12,83 12,122 0,72 -14,134 -40,185 -27,50 -63,92 -109,124 -46,31 -99,55 -160,69 -62,14 -128,22 -198,22l-209 0 0 -278zm343 535l-165 165 -171 -170 169 -169 167 167 165 -165 170 169 -168 170 -167 -167zm435 91c82,-17 158,-37 225,-62 68,-25 128,-53 179,-84 52,-30 94,-63 128,-97 33,-35 57,-70 71,-105 -25,0 -52,-1 -80,-2 -28,-1 -51,-2 -69,-3 -58,-5 -111,-16 -158,-33 -48,-17 -89,-41 -123,-71 -34,-30 -60,-67 -79,-110 -19,-44 -28,-93 -28,-150 0,-35 3,-72 11,-109 8,-38 19,-74 33,-110 14,-36 32,-69 54,-101 21,-32 45,-59 72,-84 27,-23 57,-42 89,-56 33,-14 68,-21 105,-21 45,0 85,8 123,25 38,15 72,37 103,65 31,28 59,60 84,97 24,37 45,77 63,119 18,43 32,87 44,132 11,45 19,90 24,134l38 0 0 278 -57 0c-23,85 -59,163 -109,233 -50,70 -110,131 -179,184 -70,51 -147,94 -233,128 -85,34 -174,58 -266,73l-65 -270zm430 -919c-12,-3 -26,1 -42,13 -16,10 -30,25 -44,43 -13,19 -25,39 -34,61 -10,23 -14,44 -13,64 0,20 7,37 19,50 12,12 28,23 47,32 19,8 41,14 66,18 24,4 48,8 72,9 24,2 47,3 68,3l54 0c-9,-36 -19,-71 -31,-104 -12,-34 -26,-64 -42,-90 -15,-27 -33,-48 -53,-66 -20,-17 -42,-29 -67,-33zm444 293l118 0c25,0 52,-2 81,-6 30,-4 57,-11 83,-20 25,-9 47,-21 64,-37 17,-15 26,-34 26,-57 0,-14 -4,-35 -13,-63 -8,-28 -18,-59 -32,-93 -13,-34 -29,-70 -46,-108 -17,-37 -34,-73 -51,-107l252 -125c16,37 32,77 48,118 17,42 31,84 44,127 13,42 23,85 31,127 8,43 12,83 12,122 0,70 -12,130 -35,181 -24,50 -57,92 -99,124 -42,33 -92,57 -151,72 -58,15 -123,23 -193,23l-139 0 0 -278zm280 -708l-195 -195 195 -195 194 195 -194 195zm849 862c-57,0 -111,-5 -161,-17 -50,-12 -94,-30 -132,-55 -37,-24 -67,-56 -89,-94 -21,-38 -32,-83 -32,-137 0,-40 8,-78 22,-114 15,-36 35,-70 59,-101 24,-31 52,-60 83,-86 31,-26 62,-49 93,-70 31,-20 61,-37 90,-52 29,-14 55,-25 76,-32 0,-7 -1,-14 -1,-22 -1,-7 -1,-16 -2,-26 -1,-11 -2,-23 -3,-37 -1,-14 -3,-32 -4,-52l274 -59c12,110 24,211 35,301 11,91 21,169 29,235 9,65 16,117 21,154 6,38 9,57 10,60 9,19 22,32 39,39 18,7 41,11 71,11l20 0 0 278 -26 0c-25,0 -53,-3 -85,-7 -33,-5 -66,-15 -101,-31 -25,-12 -46,-25 -65,-40 -18,-15 -36,-34 -53,-57 -30,4 -58,7 -86,9 -28,2 -55,2 -82,2zm-5 -275c13,0 25,-1 38,-2 14,0 26,-1 38,-3 -1,-9 -3,-21 -4,-33 -2,-11 -3,-26 -6,-43 -2,-18 -4,-38 -7,-62 -3,-24 -6,-54 -9,-88 -23,11 -48,24 -75,40 -28,15 -54,32 -78,49 -24,17 -45,35 -61,53 -16,17 -24,34 -24,49 0,8 6,14 19,19 13,5 30,9 49,12 19,4 40,6 62,7 21,1 41,2 58,2zm1229 396c-36,0 -72,-4 -110,-11 -37,-8 -74,-17 -110,-30 -36,-12 -70,-26 -103,-42 -33,-16 -63,-33 -88,-50 -20,26 -40,47 -62,65 -22,17 -46,31 -71,41 -25,11 -52,18 -80,23 -29,4 -61,7 -94,7l-44 0 0 -278 44 0c39,0 71,-8 98,-24 26,-15 48,-36 67,-61 19,-25 36,-52 50,-82 14,-30 29,-60 44,-89 18,-35 37,-71 59,-107 22,-35 47,-68 76,-96 29,-29 61,-52 97,-70 36,-18 77,-27 122,-27 61,0 114,14 158,43 45,28 81,65 110,111 28,46 50,98 63,157 14,58 21,116 21,176 0,49 -7,95 -22,138 -14,42 -34,78 -57,108 -23,31 -50,54 -80,72 -29,17 -59,26 -88,26zm-113 -563c-17,0 -33,7 -47,20 -15,13 -29,29 -42,48 -13,20 -24,41 -34,64 -10,23 -20,43 -28,63 19,12 41,24 66,34 25,11 50,20 76,28 27,8 53,14 80,19 27,6 53,10 78,12 2,-36 1,-71 -6,-105 -6,-35 -16,-66 -30,-93 -14,-27 -30,-48 -50,-65 -19,-17 -40,-25 -63,-25zm932 566c-73,0 -135,-11 -186,-30 -51,-20 -92,-47 -125,-81 -32,-35 -55,-76 -69,-123 -14,-47 -22,-98 -22,-153 0,-28 1,-63 2,-105 1,-42 2,-90 2,-145 0,-55 0,-116 -1,-181 -1,-66 -2,-132 -5,-199 -2,-66 -6,-129 -11,-190 -5,-61 -12,-114 -21,-159l262 -80c8,39 15,84 20,137 4,52 8,107 11,164 3,58 5,115 7,173 1,58 2,112 3,162 1,44 0,90 -2,138 -2,49 -4,95 -5,139 -1,44 -1,84 1,120 2,36 8,63 17,81 5,14 11,24 19,31 8,7 17,12 28,16 11,4 22,6 35,6 12,1 26,1 41,1l24 0 0 278 -25 0zm-10 -278l119 0c24,0 51,-2 81,-6 29,-4 57,-11 82,-20 26,-9 47,-21 64,-37 18,-15 26,-34 26,-57 0,-14 -4,-35 -12,-63 -8,-28 -19,-59 -33,-93 -13,-34 -28,-70 -45,-108 -17,-37 -34,-73 -51,-107l251 -125c16,37 33,77 49,118 16,42 30,84 43,127 13,42 23,85 32,127 7,43 11,83 11,122 0,70 -11,130 -35,181 -23,50 -56,92 -98,124 -42,33 -93,57 -151,72 -59,15 -123,23 -193,23l-140 0 0 -278zm280 -708l-195 -195 195 -195 195 195 -195 195zm1089 986c-13,0 -30,-1 -51,-3 -21,-2 -45,-9 -72,-20 -13,73 -37,142 -73,207 -35,66 -79,127 -131,184 -52,57 -111,109 -178,157 -67,48 -138,91 -213,130l-161 -223c41,-21 83,-44 125,-69 43,-25 83,-51 121,-79 38,-28 74,-57 107,-87 33,-30 62,-61 87,-93 24,-32 44,-65 58,-99 14,-34 21,-68 21,-102 0,-23 -5,-52 -13,-87 -9,-35 -20,-73 -34,-113 -13,-41 -28,-81 -44,-122 -17,-42 -33,-79 -48,-113l254 -110c23,70 46,128 67,175 21,47 42,85 62,112 20,29 39,48 57,60 19,11 37,17 55,17l21 0 0 278 -17 0zm-18 -278l119 0c24,0 52,-2 81,-6 30,-4 57,-11 83,-20 25,-9 47,-21 64,-37 17,-15 26,-34 26,-57 0,-14 -4,-35 -13,-63 -8,-28 -19,-59 -32,-93 -14,-34 -29,-70 -46,-108 -17,-37 -34,-73 -51,-107l251 -125c17,37 33,77 49,118 16,42 31,84 44,127 12,42 23,85 31,127 8,43 12,83 12,122 0,70 -12,130 -36,181 -23,50 -56,92 -98,124 -42,33 -93,57 -151,72 -58,15 -123,23 -193,23l-140 0 0 -278zm284 759l-194 -195 194 -195 195 195 -195 195z"/>
 </g>
</svg>
