<?xml version="1.0" encoding="UTF-8"?>
<!DOCTYPE svg PUBLIC "-//W3C//DTD SVG 1.0//EN" "http://www.w3.org/TR/2001/REC-SVG-20010904/DTD/svg10.dtd">
<!-- Creator: CorelDRAW 2017 -->
<svg xmlns="http://www.w3.org/2000/svg" xml:space="preserve" width="580px" height="580px" version="1.0" shape-rendering="geometricPrecision" text-rendering="geometricPrecision" image-rendering="optimizeQuality" fill-rule="evenodd" clip-rule="evenodd"
viewBox="0 0 10066 10066"
 xmlns:xlink="http://www.w3.org/1999/xlink">
 <g id="Layer_x0020_1">
  <metadata id="CorelCorpID_0Corel-Layer"/>
  <path fill="#FEFEFE" d="M0 0l10066 0 0 10066 -10066 0 0 -10066zm5033 5007c-48,0 -87,-39 -87,-87 0,-48 39,-87 87,-87 48,0 87,39 87,87 0,48 -39,87 -87,87zm0 -348c-144,0 -261,117 -261,261 0,144 117,261 261,261 144,0 261,-117 261,-261 0,-144 -117,-261 -261,-261zm-2609 696l0 -783 5218 0 0 783 -5218 0zm3286 869l-1354 0 139 -695 1075 0 140 695zm280 348l-1914 0 0 -174 1914 0 0 174zm-2261 -3739l87 0 0 1565 -87 0 0 -1565zm44 -174l130 -302 129 302 -259 0zm999 1652l348 0 0 87 -348 0 0 -87zm348 -174l-348 0 0 -87 348 0 0 87zm-87 -956l0 -730 561 935c-189,64 -426,214 -468,490l-360 0c-42,-276 -279,-426 -468,-490l561 -935 0 730 174 0zm1391 -1044l-695 0c-48,0 -87,39 -87,87l0 783 174 0 0 -696 521 0 0 348 -347 0 0 174 347 0 0 435 -347 0 0 173 347 0 0 435 -347 0 0 174 347 0 0 348 -521 0 0 -696 -174 0 0 696 -348 0 0 -435c0,-355 431,-433 449,-436 11,-2 21,-5 30,-11 42,-25 55,-78 30,-119l-782 -1305c-7,-9 -15,-17 -24,-23 -41,-28 -97,-18 -125,23l-783 1305c-6,9 -9,19 -11,30 -8,47 24,92 71,100 18,3 449,81 449,436l0 435 -348 0 0 -696 -174 0 0 696 -86 0 0 -1565 86 0 0 174 174 0 0 -261c0,-12 -2,-24 -7,-35l-261 -608c-8,-21 -25,-37 -45,-46 -44,-19 -95,2 -114,46l-261 608c-5,11 -7,23 -7,35l0 1652 -696 0 0 -2435 4348 0 0 2435 -696 0 0 -2174c0,-48 -39,-87 -87,-87zm-3913 -609l5044 0c48,0 87,39 87,87l0 2783 -261 0 0 -2522c0,-48 -39,-87 -87,-87l-4522 0c-48,0 -87,39 -87,87l0 2522 -261 0 0 -2783c0,-48 39,-87 87,-87zm5044 -174l-5044 0c-144,0 -261,117 -261,261l0 3827c0,48 39,87 87,87l1981 0 -139 695 -189 0c-49,0 -87,39 -87,87l0 261 -174 0 0 174 2608 0 0 -174 -173 0 0 -261c0,-48 -39,-87 -87,-87l-190 0 -139 -695 1981 0c48,0 87,-39 87,-87l0 -3827c0,-144 -117,-261 -261,-261zm-5365 7738l-23 0c-58,0 -109,-10 -153,-29 -44,-19 -84,-48 -120,-87 -11,19 -26,36 -46,49 -20,13 -43,24 -68,33 -26,8 -54,15 -83,19 -30,5 -60,9 -90,11 -31,2 -60,3 -89,4 -29,0 -56,0 -80,0 -40,-1 -80,-3 -121,-5 -40,-2 -79,-6 -117,-13 -37,-6 -72,-16 -104,-29 -33,-12 -62,-29 -86,-51 -24,-22 -43,-49 -57,-82 -14,-33 -21,-72 -21,-119 0,-16 2,-33 5,-51 3,-18 8,-36 14,-54 6,-18 13,-35 21,-52 8,-16 18,-31 28,-43l128 93c-4,8 -10,16 -15,26 -6,9 -11,19 -16,30 -5,10 -10,21 -13,32 -4,11 -5,21 -5,31 0,15 6,29 18,40 13,12 29,22 50,30 20,9 44,16 72,22 27,5 56,10 87,13 30,3 61,6 92,7 32,2 62,3 91,3 21,0 44,-1 68,-2 25,-1 50,-2 75,-5 25,-3 49,-7 73,-12 23,-5 44,-12 62,-20 18,-8 32,-19 43,-31 11,-12 17,-27 17,-44 0,-17 -5,-34 -15,-53 -9,-18 -22,-37 -38,-56 -16,-19 -33,-38 -53,-57 -20,-19 -41,-38 -61,-55 -21,-17 -40,-33 -59,-48 -19,-15 -36,-28 -50,-39l17 -148 502 -211 61 152 -417 169c26,20 51,41 75,62 24,21 47,43 68,66 21,22 40,46 58,70 18,25 33,52 47,80 11,21 22,43 35,64 12,22 27,41 43,59 16,17 34,32 55,43 21,11 45,16 72,16l23 0 0 172zm464 -172l0 172 -13 0c-17,0 -34,-1 -51,-4 -17,-3 -33,-7 -48,-13 -15,-5 -28,-11 -41,-18 -12,-8 -23,-15 -32,-24 -17,13 -37,24 -59,31 -22,8 -45,14 -70,18 -24,4 -49,7 -75,8 -26,2 -52,2 -77,2l-20 0 0 -172 20 0c27,0 50,-1 71,-2 20,-1 38,-4 53,-8 16,-3 29,-8 39,-14 11,-6 19,-14 26,-23 8,-11 13,-24 15,-38 2,-14 2,-29 1,-44 -2,-15 -5,-30 -9,-45 -4,-15 -7,-30 -11,-43l159 -46c4,17 8,32 11,45 3,13 6,26 8,39 2,13 4,26 6,39 2,13 4,27 6,42 2,10 4,21 6,32 2,11 6,22 12,32 5,10 13,18 22,24 10,7 23,10 38,10l13 0zm-273 332l-102 102 -106 -105 104 -105 104 103 102 -102 106 105 -105 105 -103 -103zm270 -332c13,0 30,0 49,0 19,0 39,-1 61,-2 21,-1 43,-2 66,-4 22,-2 44,-4 64,-8 21,-4 39,-8 57,-14 17,-5 31,-12 42,-20 -48,5 -92,6 -131,4 -40,-2 -74,-10 -103,-23 -29,-13 -52,-32 -68,-58 -16,-26 -24,-61 -24,-105 0,-19 2,-40 6,-61 4,-22 10,-42 18,-63 8,-20 18,-40 30,-58 12,-18 26,-34 42,-48 15,-14 33,-25 52,-33 20,-8 41,-12 64,-12 28,0 55,5 78,16 24,11 46,26 65,44 19,19 35,41 50,65 14,25 26,51 35,78 10,27 17,55 21,83 5,29 8,56 8,82 0,43 -6,81 -19,114 -12,32 -29,60 -50,83 -22,22 -48,41 -78,56 -30,14 -63,26 -98,34 -36,9 -74,14 -114,17 -40,4 -81,5 -122,5l-20 0 0 -172 19 0zm224 -332c-9,-1 -17,2 -26,7 -9,5 -17,12 -24,21 -8,9 -14,19 -19,30 -5,11 -7,23 -7,34 0,11 3,20 10,27 7,7 15,12 26,16 10,4 22,7 36,9 13,1 26,2 39,2 13,0 25,0 36,0 11,-1 20,-1 27,-2 -3,-16 -7,-33 -13,-50 -5,-16 -12,-32 -20,-45 -7,-14 -17,-26 -28,-35 -11,-9 -23,-14 -37,-14zm-3 -229l-121 -121 121 -121 121 121 -121 121zm362 735c2,-30 3,-61 5,-93 2,-32 4,-63 5,-94 1,-32 2,-62 2,-91 1,-30 0,-57 -1,-81 -2,-52 -4,-97 -6,-136 -2,-39 -4,-74 -6,-104 -2,-30 -4,-56 -6,-79 -2,-22 -4,-43 -6,-62 -2,-19 -5,-37 -7,-53 -3,-17 -6,-34 -9,-52l168 -55c9,48 15,97 20,147 5,49 8,96 11,141 3,46 4,88 5,126 1,39 2,72 2,100 0,25 -1,52 -1,81 0,29 0,59 -1,90 0,32 -1,63 -2,95 -1,32 -3,63 -5,94l-168 26zm658 -2c-9,0 -19,0 -32,-1 -13,-2 -28,-6 -45,-13 -8,45 -23,88 -45,129 -22,40 -49,78 -81,113 -32,36 -69,68 -110,98 -42,30 -86,56 -133,80l-99 -138c26,-13 51,-27 78,-42 26,-16 51,-32 74,-49 24,-18 46,-36 67,-54 20,-19 38,-38 53,-58 16,-20 28,-41 36,-61 9,-21 13,-42 13,-64 0,-14 -2,-32 -8,-54 -5,-21 -12,-45 -20,-70 -9,-25 -18,-50 -28,-75 -10,-26 -20,-49 -30,-70l158 -69c14,44 28,80 41,109 14,29 26,52 39,70 12,17 24,29 35,36 12,8 23,11 34,11l13 0 0 172 -10 0zm-11 -172l51 0c21,0 43,0 65,0 22,-1 43,-2 64,-5 20,-3 39,-7 56,-13 16,-6 30,-14 41,-25 11,-11 18,-25 21,-42 3,-17 1,-38 -6,-63 -3,-9 -8,-20 -17,-33 -8,-13 -18,-27 -31,-42 -12,-16 -27,-32 -43,-49 -16,-17 -34,-34 -52,-52 -19,-18 -38,-36 -59,-54 -20,-18 -40,-35 -60,-52l16 -148 457 -204 66 146 -361 168c18,12 36,27 55,44 19,17 37,35 55,56 18,20 34,41 50,63 16,23 29,46 41,70 11,23 21,47 27,71 7,24 10,47 10,70 -1,38 -8,73 -21,105 -14,33 -33,61 -58,85 -24,23 -53,42 -86,56 -34,13 -71,20 -111,20l-170 0 0 -172zm39 -723l416 -174 30 65 -450 190 4 -81zm922 1111c51,-10 97,-23 139,-38 42,-16 79,-33 111,-52 32,-19 58,-39 79,-61 21,-21 36,-43 44,-65 -15,0 -32,0 -49,-1 -18,0 -32,-1 -43,-2 -36,-2 -69,-9 -98,-20 -30,-11 -55,-25 -76,-44 -21,-19 -38,-41 -49,-68 -12,-27 -18,-58 -18,-93 0,-22 3,-45 7,-68 5,-23 12,-46 21,-68 9,-22 20,-43 33,-63 13,-19 28,-36 45,-51 17,-15 35,-27 55,-35 20,-9 42,-13 65,-13 33,0 64,7 92,22 27,14 52,33 73,58 21,24 39,52 54,83 16,31 28,64 37,98 9,34 16,68 19,101 3,34 3,65 0,94 -4,42 -14,82 -29,119 -14,38 -33,72 -56,103 -23,31 -50,60 -80,86 -31,25 -64,48 -100,67 -35,19 -73,36 -113,49 -40,13 -81,23 -123,29l-40 -167zm266 -570c-7,-1 -16,2 -26,8 -10,7 -19,16 -27,27 -8,12 -16,24 -21,38 -6,14 -9,27 -9,40 0,12 4,23 12,31 7,8 17,15 29,20 12,5 26,9 41,11 15,3 30,5 45,6 14,1 29,1 42,1l34 0c-6,-22 -12,-44 -19,-65 -8,-20 -16,-39 -26,-55 -10,-17 -21,-30 -33,-41 -13,-11 -27,-18 -42,-21zm1135 709c-39,0 -77,-3 -114,-9 -36,-5 -71,-14 -102,-26 -32,-12 -62,-27 -88,-46 -26,-19 -49,-42 -68,-69 -18,-26 -33,-57 -43,-92 -11,-35 -16,-75 -16,-119 0,-32 2,-62 4,-91 3,-29 7,-57 13,-86 6,-28 13,-57 23,-86 9,-29 20,-60 33,-92l140 58c-11,26 -20,50 -27,71 -8,21 -14,40 -19,57 -5,17 -9,33 -12,48 -3,14 -5,28 -6,41 -2,14 -3,27 -3,39 0,13 0,27 0,41 0,27 4,51 12,71 9,20 21,37 36,51 15,13 32,25 51,33 20,9 40,16 61,21 21,5 42,8 64,10 21,1 42,2 61,2 9,0 23,0 42,-2 19,-1 39,-3 61,-6 22,-3 44,-7 67,-12 23,-5 44,-12 63,-19 19,-7 34,-16 46,-26 12,-10 18,-22 18,-35 -26,-20 -62,-37 -107,-53 -45,-16 -101,-28 -167,-35l23 -166 446 0 0 172 -70 0c7,15 13,29 16,44 4,15 6,27 6,38 -2,34 -10,64 -26,91 -15,27 -35,50 -59,70 -25,21 -52,38 -83,52 -31,14 -62,26 -95,34 -32,9 -64,16 -95,20 -32,4 -60,6 -86,6zm471 -527l114 0c59,0 113,-3 162,-11 49,-7 95,-16 138,-28 43,-12 84,-26 122,-42 38,-15 76,-32 113,-49 -25,-7 -50,-15 -74,-25 -25,-11 -50,-20 -75,-30 -25,-9 -50,-17 -74,-24 -25,-7 -49,-10 -74,-10 -16,0 -33,4 -49,13 -16,10 -31,20 -44,32 -13,11 -24,22 -32,34 -9,11 -15,18 -17,22l-125 -81c13,-24 30,-48 49,-71 18,-24 39,-44 62,-62 23,-18 47,-32 73,-43 27,-11 54,-17 83,-17 22,0 43,3 64,7 22,5 43,11 64,18 22,7 43,15 63,25 21,9 41,18 62,28 19,9 38,18 58,27 20,8 40,17 60,24 21,8 42,14 64,18 23,5 46,8 71,8l-14 167 -77 37c-32,15 -63,31 -94,47 -32,16 -63,32 -96,47 -32,15 -65,29 -100,43 -34,13 -70,25 -108,35 -38,10 -77,18 -120,24 -42,6 -87,9 -135,9l-114 0 0 -172zm952 174c2,-30 3,-61 5,-93 2,-32 4,-63 5,-94 1,-32 2,-62 2,-91 1,-30 0,-57 -1,-81 -2,-52 -4,-97 -6,-136 -2,-39 -4,-74 -6,-104 -2,-30 -4,-56 -6,-79 -2,-22 -4,-43 -6,-62 -2,-19 -5,-37 -7,-53 -3,-17 -6,-34 -9,-52l169 -55c8,48 14,97 19,147 5,49 8,96 11,141 3,46 4,88 5,126 1,39 2,72 2,100 0,25 -1,52 -1,81 0,29 0,59 -1,90 0,32 -1,63 -2,95 -1,32 -3,63 -5,94l-168 26zm658 -2c-9,0 -19,0 -32,-1 -13,-2 -28,-6 -45,-13 -8,45 -23,88 -45,129 -21,40 -49,78 -81,113 -32,36 -69,68 -110,98 -42,30 -86,56 -132,80l-100 -138c26,-13 52,-27 78,-42 26,-16 51,-32 75,-49 23,-18 45,-36 66,-54 20,-19 38,-38 53,-58 16,-20 28,-41 37,-61 8,-21 12,-42 12,-64 0,-14 -2,-32 -8,-54 -5,-21 -12,-45 -20,-70 -9,-25 -18,-50 -28,-75 -10,-26 -20,-49 -29,-70l157 -69c14,44 28,80 41,109 14,29 26,52 39,70 12,17 24,29 35,36 12,8 23,11 34,11l13 0 0 172 -10 0zm-11 -172l72 0c6,-10 15,-25 26,-42 11,-18 25,-38 42,-60 3,-22 6,-51 8,-84 2,-33 3,-69 4,-109 0,-21 -1,-46 -3,-74 -1,-28 -3,-58 -6,-91 -3,-32 -6,-67 -10,-103 -4,-37 -8,-75 -13,-115l175 -44c5,37 10,73 14,108 4,35 7,70 10,104 3,35 5,70 6,106 2,36 2,73 2,112 19,-15 39,-29 59,-42 20,-13 41,-25 62,-35 22,-9 44,-17 68,-23 23,-5 47,-8 73,-8 30,0 58,4 84,14 27,9 50,23 71,41 20,17 37,39 50,64 13,26 22,54 25,86 2,44 -3,83 -16,118 -12,36 -29,67 -52,94 -23,27 -50,51 -81,70 -32,20 -66,36 -102,49 -36,12 -74,22 -114,28 -39,6 -79,9 -118,9l-322 -1 -14 0 0 -172zm572 -226c-22,-1 -46,5 -74,15 -27,11 -55,26 -84,46 -28,20 -57,44 -84,72 -28,28 -53,59 -76,93 12,1 26,2 40,3 13,0 26,0 38,0 54,0 103,-5 147,-16 43,-10 81,-24 111,-40 31,-17 54,-35 70,-55 17,-20 24,-39 23,-57 -2,-11 -6,-20 -14,-28 -7,-8 -16,-14 -27,-19 -10,-4 -22,-8 -34,-10 -12,-3 -24,-4 -36,-4z"/>
 </g>
</svg>
