<?xml version="1.0" encoding="UTF-8"?>
<!DOCTYPE svg PUBLIC "-//W3C//DTD SVG 1.0//EN" "http://www.w3.org/TR/2001/REC-SVG-20010904/DTD/svg10.dtd">
<!-- Creator: CorelDRAW 2017 -->
<svg xmlns="http://www.w3.org/2000/svg" xml:space="preserve" width="580px" height="580px" version="1.0" shape-rendering="geometricPrecision" text-rendering="geometricPrecision" image-rendering="optimizeQuality" fill-rule="evenodd" clip-rule="evenodd"
viewBox="0 0 7292 7292"
 xmlns:xlink="http://www.w3.org/1999/xlink">
 <g id="Layer_x0020_1">
  <metadata id="CorelCorpID_0Corel-Layer"/>
  <path fill="#FEFEFE" d="M0 0l7292 0 0 7292 -7292 0 0 -7292zm2996 2831c-36,-24 -173,-202 -205,-239 -36,-42 -64,-80 -100,-122 -46,-53 -70,-105 -117,-105 -37,0 -66,32 -66,67 0,34 161,214 191,252 11,14 201,233 201,250 0,16 -28,42 -47,64 -43,52 -345,408 -345,431 0,56 64,121 133,30 77,-102 213,-256 301,-365 20,-25 27,-38 54,-56 22,42 332,408 378,464 19,24 37,59 76,63 33,4 71,-19 71,-62 0,-43 -124,-179 -158,-219l-286 -350c39,-58 173,-210 226,-276 32,-41 218,-244 218,-293 0,-43 -38,-65 -73,-62 -41,3 -174,182 -202,216l-189 232c-23,26 -45,50 -61,80zm-991 1471l0 -2735c0,-52 12,-85 52,-96l392 -59c431,-60 878,-133 1309,-192l265 -38 0 3504 -1960 -287c-46,-11 -58,-43 -58,-97zm2587 -481l311 0 0 118 -311 0 0 -118zm-436 0l311 0 0 118 -311 0 0 -118zm436 -636l311 0 0 126 -311 0 0 -126zm-436 0l311 0 0 126 -311 0 0 -126zm436 -628l311 0 0 126 -311 0 0 -126zm-436 0l311 0 0 126 -311 0 0 -126zm436 -628l311 0 0 118 -311 0 0 -118zm-436 0l311 0 0 118 -311 0 0 -118zm0 -444l1065 0c52,0 66,43 66,97l0 2705c0,53 -14,96 -66,96l-1065 0 0 -311 747 0c36,0 70,-16 91,-34 58,-53 42,-138 42,-232 0,-52 -58,-118 -133,-118l-747 0 0 -244 710 0c196,0 170,-127 170,-259 0,-67 -58,-125 -126,-125l-754 0 0 -251 754 0c148,0 126,-168 126,-252 0,-94 -74,-133 -170,-133l-710 0 0 -244 747 0c75,0 133,-66 133,-118 0,-95 25,-266 -133,-266l-747 0 0 -311zm-2276 30l0 2838c0,88 77,159 158,175 99,19 195,27 297,43 482,74 986,138 1462,215 63,10 247,40 300,40 85,0 59,-208 59,-310l1035 0c117,0 222,-71 222,-177l0 -2809c0,-110 -104,-178 -229,-178l-1028 0c0,-357 53,-338 -352,-271 -94,16 -199,30 -297,44l-1463 215c-88,13 -164,94 -164,175zm953 4941c-11,21 -21,43 -28,67 -7,24 -10,48 -9,73 1,18 6,35 15,51 9,16 21,30 35,43 14,12 29,22 47,29 18,7 36,11 55,11 11,0 23,-2 36,-4 13,-3 26,-6 39,-12 12,-5 25,-12 37,-20 11,-8 22,-17 31,-29 9,-11 17,-24 22,-39 5,-15 8,-31 8,-50 0,-20 -1,-45 -2,-73 -1,-28 -2,-59 -4,-90 -2,-32 -4,-65 -6,-99 -2,-34 -5,-67 -7,-99 -3,-39 -6,-78 -9,-117 -3,-38 -6,-79 -10,-121l126 -29c2,45 3,88 5,129 2,42 3,83 5,123 1,35 2,70 3,106 1,35 3,70 4,104 1,8 3,16 6,23 3,8 7,14 12,20 5,5 11,10 18,13 7,3 16,5 25,5l8 0 0 125 -8 0c-10,0 -20,-1 -30,-1 -9,-1 -19,-3 -29,-7 0,33 -5,63 -14,89 -9,26 -20,49 -35,69 -14,19 -30,36 -49,50 -19,14 -38,25 -58,34 -21,8 -41,14 -62,18 -21,4 -41,6 -60,6 -22,0 -43,-2 -65,-8 -22,-5 -42,-13 -61,-23 -20,-10 -38,-22 -55,-36 -16,-15 -30,-31 -42,-50 -12,-18 -22,-39 -28,-61 -7,-22 -10,-46 -9,-72 0,-16 1,-33 2,-50 2,-17 5,-33 8,-50 4,-16 8,-33 14,-49 5,-16 12,-31 20,-46l99 47zm454 15c14,0 27,-2 39,-7 12,-4 23,-13 34,-26 11,-14 21,-32 30,-56 10,-24 19,-55 27,-94l105 15c0,2 -1,3 -1,5 -2,7 -4,16 -6,28 -2,12 -4,26 -6,40 -2,15 -3,29 -3,43 0,13 2,25 5,35 3,10 8,16 16,18 8,2 16,0 23,-5 8,-6 15,-14 22,-24 7,-10 13,-22 19,-35 6,-14 11,-28 16,-42 4,-14 9,-28 12,-41 3,-14 6,-26 8,-37l104 15c-1,7 -2,15 -3,26 -1,11 -2,23 -3,35 -1,13 -1,25 -1,38 0,12 2,23 4,33 3,11 7,19 12,25 6,7 14,10 23,10 9,0 16,-3 23,-9 6,-5 11,-13 16,-22 4,-10 7,-20 10,-32 3,-12 5,-24 6,-37 1,-12 2,-24 2,-36 0,-12 0,-22 -1,-31l106 -15 13 111c2,12 5,23 10,32 6,9 12,16 19,22 7,6 15,11 23,14 7,3 15,4 22,4l13 0 0 125 -13 0c-25,0 -50,-5 -72,-14 -23,-9 -42,-24 -59,-45 -1,2 -3,4 -5,5 -1,2 -3,4 -4,5l0 0c-14,15 -31,27 -49,35 -19,9 -39,14 -60,14 -24,0 -46,-5 -66,-16 -20,-10 -37,-24 -50,-42 -16,18 -34,32 -54,43 -20,10 -41,16 -66,16 -22,0 -43,-5 -62,-15 -19,-10 -35,-24 -48,-41 -14,20 -31,34 -52,42 -21,8 -47,13 -77,13l-9 0 0 -125 8 0zm235 -168l0 0c1,-2 1,-2 0,0zm487 168l37 0c16,0 31,0 47,0 16,-1 32,-2 46,-4 15,-2 29,-5 41,-9 12,-4 22,-10 30,-18 7,-8 13,-18 15,-30 2,-13 1,-28 -4,-46 -2,-7 -6,-15 -12,-24 -6,-9 -14,-20 -23,-31 -9,-11 -20,-23 -31,-35 -12,-12 -25,-25 -38,-38 -14,-13 -28,-26 -42,-39 -15,-13 -30,-26 -45,-38l13 -107 331 -147 47 105 -261 122c13,9 26,19 40,32 13,12 27,25 39,40 13,15 25,30 37,46 11,17 21,33 29,50 9,18 15,35 20,52 5,17 7,34 7,51 0,27 -5,53 -15,76 -10,24 -24,44 -42,61 -17,17 -38,31 -63,41 -24,10 -51,15 -80,15l-123 0 0 -125zm466 126c2,-22 3,-44 4,-67 2,-23 3,-46 4,-69 1,-22 1,-44 2,-66 0,-21 0,-40 -1,-58 -2,-38 -3,-70 -5,-99 -1,-28 -3,-53 -4,-75 -2,-22 -3,-41 -5,-57 -1,-16 -2,-32 -4,-45 -2,-14 -3,-27 -5,-39 -2,-12 -4,-24 -6,-37l122 -40c6,35 10,71 14,106 3,36 6,70 8,103 2,33 3,63 4,91 0,28 1,52 1,72 0,19 -1,38 -1,59 0,21 0,43 0,66 -1,22 -1,45 -2,68 -1,23 -2,46 -4,68l-122 19z"/>
 </g>
</svg>
