<?xml version="1.0" encoding="UTF-8"?>
<!DOCTYPE svg PUBLIC "-//W3C//DTD SVG 1.0//EN" "http://www.w3.org/TR/2001/REC-SVG-20010904/DTD/svg10.dtd">
<!-- Creator: CorelDRAW 2017 -->
<svg xmlns="http://www.w3.org/2000/svg" xml:space="preserve" width="580px" height="580px" version="1.0" shape-rendering="geometricPrecision" text-rendering="geometricPrecision" image-rendering="optimizeQuality" fill-rule="evenodd" clip-rule="evenodd"
viewBox="0 0 4702 4702"
 xmlns:xlink="http://www.w3.org/1999/xlink">
 <g id="Layer_x0020_1">
  <metadata id="CorelCorpID_0Corel-Layer"/>
  <path fill="#FEFEFE" d="M0 0l4702 0 0 4702 -4702 0 0 -4702zm2825 972l-538 0 0 538 538 0 0 -538zm-130 1301l-538 0 0 538 538 0 0 -538zm-1085 -1136c-27,-27 -65,-44 -107,-44 -41,0 -78,17 -105,44 -28,27 -44,63 -44,105 0,41 16,79 44,106 27,27 64,43 105,43 42,0 80,-16 106,-43 27,-27 45,-65 45,-106 0,-42 -18,-78 -44,-105l0 0zm-172 1480l0 -852 -152 0 186 -285c-54,-7 -102,-31 -138,-68 -38,-38 -64,-90 -69,-147l-283 185 0 -163 -463 0 0 -90 463 0 0 -163 283 184c5,-56 31,-108 68,-146 43,-44 104,-71 170,-71l0 0c66,0 127,27 170,71 34,33 58,77 67,125l184 0 0 -163 272 178 0 -330 46 0 0 0 673 0 0 304 414 0c8,-24 21,-46 38,-64 29,-28 67,-46 110,-46 42,0 80,18 109,46 18,18 31,40 39,64l238 0 0 -152 320 208 -25 15 0 0 -295 193 0 -173 -239 0c-7,24 -20,46 -38,63 -18,18 -40,31 -64,39l0 1229 -9 0 0 9 -440 0 0 165 -162 -105 -125 -82 0 306 -719 0 0 -284 -538 0 -27 0 -64 0zm758 -1345l-272 178 0 -163 -184 0c-9,49 -33,92 -67,125 -40,41 -95,66 -156,69l185 284 -173 0 0 760 538 0 0 -342 45 0 0 0 674 0 0 371 287 -188 0 159 358 0 0 -1146c-25,-8 -46,-21 -64,-39 -17,-17 -30,-39 -38,-63l-414 0 0 325 -719 0 0 -330zm-1423 2890c-3,5 -5,9 -7,14 -2,5 -4,10 -6,15 -3,8 -5,18 -8,28 -2,11 -3,22 -2,33 0,10 2,19 5,27 4,8 8,15 13,21 6,7 12,12 18,17 7,5 14,9 21,12 7,3 14,6 21,7 7,2 13,3 19,3 7,0 15,-1 24,-3 8,-1 16,-4 24,-7 9,-4 17,-8 24,-13 8,-5 15,-11 21,-19 6,-7 10,-16 14,-25 3,-10 5,-20 5,-32 0,-14 -1,-29 -1,-48 -1,-18 -2,-37 -3,-58 -1,-20 -2,-42 -4,-63 -1,-22 -3,-44 -4,-64 -2,-26 -4,-51 -6,-75 -2,-25 -4,-51 -7,-78l81 -19c2,29 3,57 4,83 1,26 2,53 3,79 0,22 1,45 2,68 1,23 2,45 2,67 1,22 1,42 2,60 0,19 0,35 0,49 0,22 -2,42 -8,59 -5,18 -13,33 -22,47 -9,13 -19,24 -32,33 -12,9 -24,17 -38,22 -13,6 -27,10 -40,13 -14,3 -27,4 -39,4 -13,0 -26,-1 -39,-4 -13,-3 -26,-7 -38,-13 -13,-6 -25,-13 -36,-22 -11,-9 -21,-19 -29,-31 -9,-12 -15,-26 -20,-41 -4,-15 -7,-32 -6,-50 0,-21 2,-39 5,-54 3,-16 6,-29 9,-39 3,-7 5,-13 7,-18 3,-6 5,-11 7,-15l64 30zm484 90c-4,0 -9,0 -15,0 -6,-1 -13,-3 -21,-6 -3,21 -10,41 -21,60 -10,19 -22,36 -38,53 -15,16 -32,32 -51,45 -19,14 -40,27 -62,38l-46 -64c12,-7 24,-13 36,-20 12,-8 24,-15 35,-23 11,-8 21,-17 31,-25 10,-9 18,-18 25,-27 7,-10 13,-19 17,-29 4,-10 6,-20 6,-30 0,-6 -1,-15 -4,-25 -3,-10 -6,-21 -10,-33 -4,-11 -8,-23 -13,-35 -4,-12 -9,-23 -13,-32l73 -32c7,20 13,37 20,50 6,14 12,25 17,33 6,8 12,14 17,17 5,3 11,5 16,5l6 0 0 80 -5 0zm247 -80l0 80 -6 0c-8,0 -16,0 -24,-2 -8,-1 -15,-3 -22,-5 -7,-3 -13,-6 -19,-9 -6,-4 -11,-7 -15,-11 -8,6 -17,11 -28,14 -10,4 -21,7 -32,9 -12,1 -23,3 -36,3 -12,1 -24,1 -35,1l-10 0 0 -80 10 0c12,0 23,0 32,-1 10,-1 18,-2 26,-4 7,-1 13,-4 18,-6 5,-3 9,-7 12,-11 4,-5 6,-11 7,-18 1,-7 1,-13 0,-20 -1,-7 -2,-14 -4,-21 -2,-7 -3,-14 -5,-21l74 -21c2,8 4,15 5,21 2,6 3,12 4,18 1,6 2,12 3,18 1,7 2,13 3,20 1,5 1,10 3,15 1,5 2,10 5,15 3,5 6,8 11,11 4,3 10,5 17,5l6 0zm-108 -222l-48 47 -49 -49 49 -49 48 49 48 -48 49 49 -49 49 -48 -48zm287 222l0 80 -5 0c-17,0 -31,-2 -42,-7 -11,-4 -21,-10 -30,-18 -12,9 -26,15 -43,19 -16,4 -36,6 -60,6l-9 0 0 -80 9 0c24,0 41,-4 53,-11 12,-8 18,-20 18,-35 0,-5 -1,-12 -2,-21 -1,-10 -4,-22 -8,-37l71 -17c3,9 5,17 7,25 2,7 3,13 4,19 1,6 2,12 3,17 0,5 1,9 1,14 0,5 1,10 1,15 1,6 3,11 4,15 2,5 5,9 9,12 3,2 8,4 14,4l5 0zm-108 -162l-56 -56 56 -57 56 57 -56 56zm98 162l24 0c10,0 20,0 30,0 11,0 21,-1 30,-2 10,-2 18,-4 26,-6 8,-3 15,-7 20,-12 5,-5 8,-12 9,-20 2,-8 1,-17 -2,-29 -2,-4 -4,-9 -8,-16 -4,-6 -9,-12 -15,-19 -6,-8 -12,-15 -20,-23 -8,-8 -16,-16 -24,-25 -9,-8 -18,-16 -28,-25 -9,-8 -18,-16 -28,-24l8 -69 213 -95 31 68 -169 78c9,6 17,13 26,21 9,8 17,16 26,26 8,9 16,19 23,30 7,10 14,21 19,32 6,11 10,22 13,33 3,11 5,22 4,33 0,18 -3,34 -9,49 -7,15 -16,28 -27,40 -11,11 -25,19 -41,26 -15,6 -33,9 -51,9l-80 0 0 -80zm652 246c-18,0 -36,-1 -53,-4 -17,-3 -33,-7 -48,-12 -15,-6 -28,-13 -41,-22 -12,-9 -22,-19 -31,-32 -9,-12 -16,-27 -21,-43 -4,-16 -7,-35 -7,-56 0,-14 1,-29 2,-42 1,-14 3,-27 6,-40 3,-13 6,-27 11,-40 4,-14 9,-28 15,-43l65 27c-4,12 -9,23 -12,33 -4,10 -7,19 -9,27 -2,8 -4,15 -5,22 -2,7 -3,13 -4,19 0,6 -1,13 -1,18 0,7 0,13 0,19 0,13 2,24 6,34 4,9 10,17 17,23 7,7 14,12 24,16 9,4 18,7 28,10 10,2 20,3 30,4 10,1 19,1 28,1 5,0 11,0 20,-1 9,0 18,-1 28,-3 11,-1 21,-3 32,-5 11,-3 20,-6 29,-9 9,-3 16,-8 22,-12 5,-5 8,-10 8,-17 -12,-9 -29,-17 -50,-24 -21,-8 -47,-13 -78,-17l11 -77 208 0 0 80 -33 0c4,7 6,14 8,21 2,7 3,12 3,17 -1,16 -5,31 -12,43 -8,12 -17,23 -28,33 -12,9 -24,17 -39,24 -14,7 -29,12 -44,16 -15,4 -30,7 -45,9 -14,2 -28,3 -40,3zm225 -246c13,0 24,-3 32,-10 9,-7 17,-16 23,-27 6,-12 11,-24 16,-39 4,-14 8,-29 12,-43l67 12c-1,6 -3,13 -4,20 -2,8 -4,17 -6,25 -1,8 -3,17 -4,25 -1,8 -1,15 0,21 0,6 2,11 4,14 3,4 7,5 12,4 7,0 13,-3 18,-7 6,-4 11,-10 15,-16 5,-7 9,-14 12,-22 3,-9 6,-17 9,-26 2,-9 4,-18 6,-26 1,-9 3,-17 4,-24l64 11c0,5 0,11 -1,19 -2,7 -2,15 -3,23 -1,8 -2,17 -2,25 0,8 1,16 3,22 2,7 5,12 10,16 4,4 10,6 18,6 4,0 9,-1 14,-2 5,-2 10,-4 13,-7 4,-3 7,-7 10,-11 2,-4 4,-8 4,-14 0,-8 -2,-18 -5,-29 -3,-10 -6,-21 -10,-31 -4,-11 -9,-20 -13,-30 -4,-9 -8,-17 -11,-23l63 -36 5 12c3,5 5,12 9,20 3,8 6,16 10,26 3,10 6,20 9,30 3,11 6,22 7,33 2,11 3,21 3,32 0,17 -2,32 -7,46 -4,13 -12,25 -21,34 -9,10 -21,17 -35,22 -14,5 -31,8 -50,8 -9,0 -17,-1 -25,-2 -7,-2 -14,-5 -20,-8 -6,-3 -11,-6 -16,-11 -4,-4 -9,-8 -12,-13 -4,5 -9,10 -13,14 -5,4 -10,8 -16,11 -6,3 -13,5 -20,7 -8,1 -16,2 -26,2 -8,1 -16,0 -22,-2 -7,-1 -13,-4 -19,-7 -5,-3 -10,-7 -15,-11 -4,-4 -8,-9 -12,-14 -4,4 -8,8 -13,12 -4,4 -10,7 -16,10 -6,3 -13,5 -22,7 -8,1 -18,2 -29,2l-9 0 0 -80 5 0zm557 80c-22,0 -44,-4 -65,-12 -21,-9 -41,-23 -59,-41l46 -65c8,7 16,14 24,19 8,4 15,8 23,11 7,3 13,4 20,5 6,1 12,2 18,2 4,0 9,0 14,-1 6,-1 11,-2 16,-3 5,-1 10,-3 15,-5 4,-2 8,-5 12,-8 -7,-15 -14,-31 -21,-48 -8,-17 -16,-34 -23,-51 -8,-17 -15,-34 -23,-51 -7,-17 -14,-33 -21,-48l75 -31 83 203c4,7 6,13 9,19 2,6 5,10 9,14 3,4 7,7 12,8 5,2 11,3 19,3l7 0 0 80 -7 0c-10,0 -19,0 -27,-2 -8,-1 -15,-3 -21,-5 -7,-3 -12,-6 -17,-9 -5,-4 -9,-8 -14,-12 -7,5 -15,10 -23,13 -8,4 -16,7 -24,9 -9,2 -18,4 -27,5 -9,1 -19,1 -30,1zm369 -80l0 80 -5 0c-17,0 -30,-2 -42,-7 -11,-4 -21,-10 -30,-18 -12,9 -26,15 -43,19 -16,4 -36,6 -59,6l-10 0 0 -80 10 0c23,0 41,-4 52,-11 12,-8 18,-20 18,-35 0,-5 0,-12 -2,-21 -1,-10 -4,-22 -8,-37l72 -17c2,9 5,17 6,25 2,7 4,13 5,19 1,6 1,12 2,17 0,5 1,9 1,14 1,5 1,10 2,15 0,6 2,11 4,15 2,5 4,9 8,12 3,2 8,4 14,4l5 0zm-108 -162l-56 -56 56 -57 57 57 -57 56zm98 162l18 0c1,-11 3,-23 6,-36 3,-14 7,-27 12,-40 5,-13 11,-26 18,-39 7,-12 14,-23 23,-33 8,-10 17,-18 27,-24 10,-6 20,-10 31,-10 11,0 22,3 31,9 10,6 18,14 25,24 7,10 12,22 16,34 4,13 6,26 6,39 0,15 -3,30 -10,45 -6,14 -15,28 -26,41 -10,12 -23,24 -36,34 -14,10 -28,18 -42,25 1,4 4,8 7,14 4,6 8,12 13,17 5,6 10,11 15,17 5,5 9,9 12,12 0,-10 2,-20 5,-30 3,-11 7,-20 13,-30 5,-9 12,-18 19,-27 7,-8 15,-15 24,-22 9,-6 17,-11 27,-15 9,-3 18,-5 27,-5l12 0 0 80 -13 0c-8,0 -15,2 -22,6 -7,4 -13,9 -18,15 -6,6 -10,13 -13,21 -3,8 -5,16 -5,23 0,4 0,7 1,10 0,3 1,6 3,9 1,3 3,6 5,10 2,3 5,7 9,10l-47 57c-20,-12 -38,-25 -53,-38 -16,-13 -29,-26 -40,-39 -12,-14 -21,-27 -29,-41 -7,-14 -14,-28 -19,-43l-32 0 0 -80zm150 -65c0,-5 0,-10 0,-15 -1,-5 -1,-10 -3,-15 -1,-5 -3,-10 -5,-14 -2,-4 -5,-7 -8,-9 -3,2 -7,5 -11,10 -3,4 -7,10 -11,17 -4,7 -8,14 -11,22 -4,8 -7,16 -10,25 -3,8 -5,16 -7,24 -2,8 -3,15 -3,21 7,-1 15,-4 23,-8 7,-4 15,-10 21,-16 7,-5 13,-12 17,-19 5,-8 7,-15 8,-23zm334 145c-11,0 -21,-2 -32,-4 -11,-2 -21,-5 -32,-8 -10,-4 -20,-8 -30,-13 -9,-4 -18,-9 -25,-14 -6,8 -12,14 -18,19 -7,5 -13,9 -21,12 -7,3 -15,5 -23,6 -8,2 -17,2 -27,2l-13 0 0 -80 13 0c11,0 21,-2 28,-7 8,-4 14,-10 20,-18 5,-7 10,-15 14,-23 4,-9 9,-18 13,-26 5,-10 11,-21 17,-31 6,-10 14,-20 22,-28 8,-8 18,-15 28,-20 11,-5 22,-8 35,-8 18,0 33,4 46,12 13,9 24,19 32,33 8,13 14,28 18,45 4,17 6,34 6,51 0,14 -2,28 -6,40 -4,12 -10,23 -17,31 -6,9 -14,16 -23,21 -8,5 -17,8 -25,8zm-33 -163c-5,0 -9,2 -14,5 -4,4 -8,9 -12,14 -3,6 -7,12 -10,19 -3,6 -5,12 -8,18 6,4 12,7 19,10 8,3 15,6 23,8 7,2 15,4 23,6 7,1 15,2 22,3 1,-10 0,-21 -1,-31 -2,-9 -5,-18 -9,-26 -4,-8 -9,-14 -15,-19 -5,-5 -11,-7 -18,-7z"/>
 </g>
</svg>
