<?xml version="1.0" encoding="UTF-8"?>
<!DOCTYPE svg PUBLIC "-//W3C//DTD SVG 1.0//EN" "http://www.w3.org/TR/2001/REC-SVG-20010904/DTD/svg10.dtd">
<!-- Creator: CorelDRAW 2017 -->
<svg xmlns="http://www.w3.org/2000/svg" xml:space="preserve" width="580px" height="580px" version="1.0" shape-rendering="geometricPrecision" text-rendering="geometricPrecision" image-rendering="optimizeQuality" fill-rule="evenodd" clip-rule="evenodd"
viewBox="0 0 3992 3992"
 xmlns:xlink="http://www.w3.org/1999/xlink">
 <g id="Layer_x0020_1">
  <metadata id="CorelCorpID_0Corel-Layer"/>
  <path fill="#FEFEFE" d="M0 0l3992 0 0 3992 -3992 0 0 -3992zm616 3611l-1 0 -8 0 0 0c-23,0 -44,-4 -61,-12 -17,-7 -33,-19 -48,-34 -4,7 -10,14 -18,19 -8,5 -17,10 -27,13 -10,4 -21,6 -33,8 -12,2 -24,3 -36,4 -12,1 -23,1 -35,2 -11,0 -22,0 -32,0 -15,-1 -31,-1 -47,-2 -16,-1 -32,-3 -47,-5 -14,-3 -28,-7 -41,-12 -13,-5 -25,-11 -34,-20 -10,-9 -17,-19 -23,-33 -5,-12 -8,-28 -8,-47 0,-6 1,-13 2,-20 1,-7 3,-14 5,-21 3,-8 6,-14 9,-21 3,-6 7,-12 11,-17l51 37c-2,3 -4,6 -6,10 -3,4 -5,8 -7,12 -2,4 -4,8 -5,13 -1,4 -2,8 -2,12 0,6 2,11 7,16 5,4 12,8 20,12 8,3 18,6 29,8 10,3 22,4 34,6 12,1 24,2 37,3 12,0 24,0 36,0 8,0 17,0 27,0 10,0 20,-1 29,-2 10,-1 20,-3 29,-5 10,-2 18,-5 25,-8 7,-3 13,-7 17,-12 5,-5 7,-11 7,-18 0,-6 -2,-13 -6,-21 -4,-7 -9,-14 -15,-22 -6,-7 -13,-15 -21,-23 -8,-7 -16,-14 -24,-21 -9,-7 -16,-13 -24,-19 -7,-6 -14,-11 -20,-16l7 -59 199 -83 25 60 -166 67c10,8 20,17 30,25 9,8 18,17 27,26 8,9 16,18 23,28 7,10 13,20 18,31 5,9 9,17 14,26 5,8 11,16 17,23 7,7 14,13 22,17 8,4 18,7 29,7l0 0 8 0 1 0c19,0 34,-4 44,-10 10,-6 15,-16 15,-29 0,-5 0,-11 -2,-18 -1,-8 -3,-19 -7,-31l61 -15c3,8 5,15 6,21 2,6 3,11 4,16 0,5 1,10 2,14 0,5 0,9 1,13 0,4 0,8 1,13 1,4 2,8 3,12 2,4 4,7 7,10 3,2 7,4 12,4l0 0 0 0 4 0 1 0 0 0c10,0 19,-1 27,-1 8,-1 15,-2 21,-3 7,-2 12,-4 16,-6 4,-2 7,-5 10,-9 3,-5 5,-10 6,-15 1,-6 1,-12 0,-18 0,-6 -1,-12 -3,-18 -2,-5 -3,-11 -4,-17l62 -18c2,7 4,13 5,18 1,5 2,11 3,16 1,5 2,10 3,15 0,5 1,11 2,17 1,4 1,8 2,12 1,5 3,9 5,13 2,4 5,7 9,10 4,2 8,4 14,4l1 0 0 0 5 0 8 0c7,0 13,-1 18,-2 4,-2 8,-4 11,-7 2,-3 4,-7 5,-13 1,-5 1,-12 1,-20 0,-1 0,-6 0,-13 -1,-7 -1,-16 -2,-27 -1,-11 -1,-24 -2,-37 -1,-14 -2,-28 -3,-41 -1,-14 -2,-28 -3,-41 -1,-14 -2,-25 -2,-35 -1,-10 -2,-18 -2,-24 -1,-5 -1,-8 -1,-8l68 -17c0,2 1,8 1,18 1,9 2,23 3,42 2,19 3,44 4,74 2,29 3,65 5,108 1,16 -1,31 -5,45 -4,13 -10,25 -18,35 -9,10 -20,17 -33,23 -13,5 -28,8 -45,8l-8 0 -5 0 0 0 -1 0 0 0 -3 0 0 0c-5,0 -11,-1 -17,-2 -6,-1 -13,-3 -18,-5 -6,-2 -12,-4 -17,-7 -5,-3 -9,-6 -13,-9 -6,5 -14,9 -23,12 -8,3 -18,5 -27,7 -10,1 -20,3 -30,3 -10,1 -20,1 -30,1l0 0 -1 0 -4 0 0 0 -4 0 0 0c-12,-1 -22,-2 -31,-6 -10,-4 -18,-9 -25,-16 -11,8 -23,13 -37,17 -14,3 -31,5 -50,5zm1168 -870c-42,-75 -73,-154 -104,-233 -14,-36 -29,-72 -40,-99l0 0c-15,-36 -30,-72 -48,-108 -17,-34 -36,-67 -58,-97 -13,-17 -26,-33 -40,-44 -12,-9 -25,-16 -41,-19 -11,-1 -25,0 -39,2 -9,0 -19,1 -22,1l-13 -33c-8,7 -16,13 -24,19 -10,10 -21,18 -36,20 -16,3 -31,0 -48,-10 -72,-45 -177,-111 -282,-177 -84,-53 -167,-105 -286,-179l-8 -6c0,-1 0,-1 -1,-2l-70 -46 78 -31c3,-2 6,-3 9,-5 2,-1 4,-2 8,-4l3 -1c113,-46 227,-92 340,-138 95,-38 204,-82 339,-137l3 -1c8,-2 16,-4 24,-5l5 -6c9,-12 19,-25 28,-38 17,-22 32,-44 50,-63l1 0c48,-50 96,-101 151,-145l0 0c19,-15 39,-29 59,-40 21,-12 43,-22 67,-30l0 0c47,-15 89,-37 126,-64 37,-28 70,-63 100,-102l0 0c38,-49 72,-101 107,-152 14,-20 27,-40 35,-52 3,-4 5,-8 7,-11 1,-1 2,-3 3,-4l27 -54 35 35c20,-43 40,-87 61,-130l0 -1c9,-20 21,-38 33,-56 12,-18 24,-34 36,-50l1 -1c2,-2 5,-6 10,-11 29,-31 61,-47 95,-49 34,-3 68,9 100,36l0 0c3,2 7,5 11,9 25,22 45,46 64,72 17,25 33,51 47,77 42,77 78,155 111,235 33,80 62,160 90,241 42,120 79,228 116,336 65,191 130,382 197,569l0 0c34,95 74,188 114,281 14,33 28,66 40,95l1 3c1,2 1,0 3,3l2 3 7 24 0 82 -63 -32c-13,-6 -25,-13 -37,-22l-1 -2c-32,-28 -61,-53 -86,-76 -28,-25 -56,-51 -85,-79l0 0c-28,-27 -56,-53 -87,-77 -29,-22 -60,-43 -94,-59l0 0c-37,-18 -74,-27 -110,-26 -35,1 -69,12 -104,35l-1 1c-12,7 -24,15 -35,23 -10,8 -19,16 -27,23 -48,52 -97,104 -145,155 -47,51 -95,103 -143,155l-15 16 0 0c-73,78 -144,154 -228,220l0 0c-34,26 -69,49 -106,69 -37,20 -75,37 -115,52l-16 3 -8 0 0 -38 -31 25 -75 -75 28 0zm-22 -266c35,89 70,178 119,259 27,-11 53,-24 78,-37 33,-18 64,-38 95,-62l0 0c78,-61 147,-135 217,-210l0 0 14 -15c47,-51 95,-103 144,-155 48,-52 96,-104 145,-155l1 -2c11,-11 24,-22 36,-31 14,-11 28,-20 43,-29 48,-31 98,-47 149,-49 50,-2 100,11 151,35l0 0c39,19 75,43 109,69 32,25 63,53 93,82 19,18 39,37 59,55 -34,-80 -67,-160 -96,-242 -69,-191 -134,-380 -199,-570 -39,-116 -79,-231 -115,-335 -28,-80 -56,-159 -88,-236 -31,-77 -66,-153 -107,-227 -13,-23 -27,-47 -42,-68 -15,-21 -31,-40 -50,-57l-1 -1c-2,-2 -4,-4 -7,-6l0 0c-15,-12 -28,-17 -40,-17 -11,1 -23,8 -36,22 -1,1 -3,3 -5,6 -12,15 -23,30 -33,45 -10,14 -19,29 -27,45l0 0c-27,58 -54,117 -82,177 -27,60 -53,119 -78,177 -47,111 -96,222 -149,333 -53,111 -109,219 -173,322 -57,95 -121,186 -191,270 -59,70 -122,136 -193,197 17,6 32,16 45,26 22,18 39,38 55,59l1 1c26,35 48,73 67,111 18,36 34,75 50,113 17,39 29,70 41,100zm-17 -890c107,-174 195,-357 278,-541 -17,17 -36,33 -56,48 -45,34 -95,60 -151,78l0 0c-17,5 -34,13 -51,22 -17,10 -32,21 -46,32l-1 1c-50,40 -96,88 -143,136 -15,17 -29,35 -43,55l-4 5c7,5 16,12 49,36 55,42 109,83 168,128zm-141 200c25,-31 49,-64 72,-98 -36,-28 -74,-57 -115,-88 -45,-35 -88,-70 -129,-102 -89,36 -206,83 -337,136l-284 115c65,40 145,90 224,140 80,50 160,100 271,170 19,-17 36,-30 53,-44 47,-37 94,-75 138,-115l0 -1c39,-34 74,-72 107,-113zm2211 1825c-9,0 -18,-1 -27,-3 -9,-1 -18,-4 -27,-7 -9,-3 -18,-6 -26,-10 -8,-4 -15,-8 -21,-12 -5,6 -10,11 -16,15 -5,5 -11,8 -17,11 -6,2 -13,4 -20,5 -7,1 -15,2 -23,2l-2 0 -5 0 0 0 -1 0 0 0 -3 0 0 0c-5,0 -11,-1 -16,-2 -7,-1 -13,-3 -19,-5 -6,-2 -12,-4 -16,-7 -5,-3 -10,-6 -13,-9 -7,5 -15,9 -24,12 -8,3 -17,5 -27,7 -10,1 -20,3 -30,3 -10,1 -20,1 -30,1l0 0 0 0 -5 0 0 0 -2 0 0 0 -1 0 0 0c-5,0 -10,-1 -14,-2 -6,-1 -12,-2 -17,-4 -6,-3 -10,-5 -15,-8 -4,-3 -7,-6 -9,-9 -3,4 -7,7 -11,10 -4,3 -9,5 -14,7 -6,2 -13,3 -20,4 -8,1 -17,2 -27,2l-5 0 -8 0 0 0 0 0c-12,0 -23,-1 -32,-3 -10,-2 -19,-5 -27,-9 -8,-4 -16,-9 -22,-15 -6,-7 -12,-15 -17,-24 -21,18 -46,31 -75,39 -29,8 -62,12 -101,12 -50,0 -92,-5 -125,-16 -33,-11 -56,-29 -70,-52 -5,-8 -8,-17 -10,-27 -2,-10 -3,-20 -2,-32 1,-12 3,-25 7,-38 4,-13 9,-27 16,-41l52 30c-3,6 -6,12 -8,18 -3,7 -5,14 -6,20 -2,7 -2,13 -2,19 0,6 1,12 4,16 4,8 11,15 20,19 10,5 21,8 34,11 13,2 27,3 42,4 16,0 31,1 48,1 15,0 29,-1 43,-2 13,-1 26,-3 37,-5 12,-3 22,-6 31,-9 10,-4 18,-9 24,-14 6,-5 11,-11 15,-17 4,-5 7,-12 10,-18 3,-7 5,-14 7,-21 2,-7 3,-14 5,-22l61 16 -9 45c-2,7 -1,13 0,19 2,5 5,10 9,14 4,4 10,8 17,10 7,2 15,4 24,4l0 0 0 0 8 0 6 0c6,0 12,-1 16,-4 5,-2 8,-4 11,-8 3,-4 5,-9 7,-14 1,-5 2,-11 2,-17 0,-8 0,-19 0,-31 0,-12 0,-25 0,-39 0,-14 -1,-29 -1,-44 0,-15 -1,-29 -1,-44 0,-14 -1,-28 -1,-40 -1,-13 -1,-25 -2,-34l69 -13 2 259c0,9 3,16 7,21 5,5 11,8 20,8l0 0 5 0 0 0 0 0c10,0 19,-1 27,-1 8,-1 16,-2 22,-3 6,-2 11,-4 15,-6 4,-2 8,-5 10,-9 4,-5 6,-10 6,-15 1,-6 1,-12 1,-18 -1,-6 -2,-12 -4,-18 -1,-5 -3,-11 -4,-17l63 -18c1,7 3,13 4,18 1,5 2,11 3,16 1,5 2,10 3,15 1,5 1,11 2,17 1,4 2,8 2,12 1,5 3,9 5,13 2,4 5,7 9,10 4,2 9,4 15,4l0 0 0 0 5 0 2 0c10,0 18,-2 24,-6 7,-4 12,-9 17,-15 4,-6 9,-13 12,-20 4,-8 7,-15 11,-22 4,-9 9,-18 14,-26 6,-9 12,-17 19,-24 7,-7 15,-13 24,-17 9,-5 19,-7 30,-7 15,0 28,4 39,10 11,8 20,17 27,28 7,11 12,24 15,38 4,15 5,29 5,44 0,12 -1,23 -5,34 -4,10 -8,19 -14,26 -6,8 -12,14 -20,18 -7,4 -14,6 -21,6zm-28 -138c-4,0 -8,1 -12,5 -3,3 -7,7 -10,12 -3,4 -6,10 -8,15 -3,6 -5,11 -7,16 5,3 10,6 16,8 6,3 12,5 19,7 6,2 13,4 19,5 7,1 13,2 19,3 1,-9 1,-18 -1,-26 -1,-9 -4,-16 -7,-23 -4,-7 -8,-12 -13,-16 -4,-4 -10,-6 -15,-6zm-243 -118l-40 40 -42 -41 41 -42 41 41 41 -41 42 42 -42 42 -41 -41zm-508 375l-48 -48 48 -48 48 48 -48 48zm-605 -33c21,-4 39,-9 56,-15 16,-6 31,-13 44,-20 12,-8 23,-16 31,-24 8,-9 14,-17 18,-26 -7,0 -13,0 -20,0 -7,-1 -13,-1 -17,-1 -14,-1 -27,-4 -39,-8 -12,-5 -22,-10 -30,-18 -8,-7 -15,-16 -20,-27 -4,-11 -6,-23 -6,-37 0,-8 0,-17 2,-27 2,-9 5,-18 8,-27 4,-8 8,-17 14,-24 5,-8 11,-15 17,-21 7,-6 14,-10 22,-14 8,-3 17,-5 26,-5 13,0 25,3 36,9 11,6 21,13 29,23 9,9 16,20 22,33 6,12 11,25 15,39 3,13 6,27 7,40 1,13 1,26 0,37 -2,17 -6,33 -11,47 -6,15 -14,29 -23,41 -9,13 -19,24 -32,34 -12,10 -25,19 -39,27 -14,7 -29,14 -45,19 -16,5 -32,9 -49,12l-16 -67zm106 -225c-3,-1 -6,0 -10,3 -4,2 -8,6 -11,10 -3,5 -6,10 -8,15 -3,6 -4,11 -4,16 0,5 2,9 5,12 3,4 7,6 11,8 5,2 11,4 17,5 5,1 11,2 17,2 6,0 12,1 17,1l13 0c-2,-9 -4,-18 -7,-26 -3,-8 -6,-16 -10,-22 -4,-7 -9,-12 -14,-16 -4,-5 -10,-7 -16,-8zm-619 72c10,0 19,-3 27,-9 7,-6 13,-14 19,-23 5,-10 9,-20 13,-33 4,-12 7,-24 10,-37l58 11c-1,5 -3,10 -4,17 -2,7 -4,14 -5,21 -1,7 -2,14 -3,21 -1,7 -1,13 -1,18 1,5 2,9 4,12 2,3 6,4 10,4 6,-1 11,-3 16,-6 4,-4 9,-9 12,-14 4,-6 7,-12 10,-19 3,-7 6,-15 8,-22 2,-8 4,-15 5,-22 1,-8 2,-14 3,-20l55 9c0,4 -1,10 -1,16 -1,6 -2,13 -3,20 -1,7 -1,14 -1,21 0,7 1,13 2,19 2,5 5,10 8,13 4,4 9,5 16,5 4,0 8,0 12,-2 4,-1 8,-3 11,-6 4,-2 6,-5 8,-9 3,-3 4,-7 4,-11 0,-8 -2,-16 -4,-25 -3,-9 -6,-18 -9,-27 -4,-9 -7,-17 -11,-25 -4,-8 -7,-14 -9,-20l53 -30 5 10c2,5 4,10 7,17 3,6 5,14 8,22 3,8 6,17 8,26 3,9 5,18 7,27 1,10 2,19 2,28 0,14 -2,27 -6,38 -4,12 -10,22 -18,30 -8,8 -18,14 -30,18 -12,5 -26,7 -42,7 -8,0 -15,0 -21,-2 -7,-1 -12,-3 -17,-6 -6,-3 -10,-6 -14,-9 -4,-4 -7,-8 -10,-12 -4,5 -7,9 -11,12 -4,4 -9,7 -14,9 -5,3 -11,5 -17,6 -6,2 -14,2 -22,2 -7,1 -13,0 -19,-1 -5,-2 -11,-4 -15,-6 -5,-3 -9,-6 -13,-10 -4,-3 -8,-7 -11,-12 -3,4 -6,7 -10,11 -4,3 -9,6 -14,8 -5,2 -12,4 -19,6 -6,1 -14,2 -23,2l-1 0 0 0 -4 0 -1 0 0 0 0 0 -3 0 0 0c-6,0 -11,-1 -17,-2 -7,-1 -13,-3 -19,-5 -6,-2 -11,-4 -16,-7 -5,-3 -9,-6 -13,-9 -7,5 -14,9 -23,12 -9,3 -18,5 -28,7 -9,1 -19,3 -30,3 -10,1 -20,1 -29,1l0 0 -1 0 -7 0 -1 0 0 0c-8,0 -15,-2 -21,-6 -7,-4 -12,-9 -17,-14 -2,2 -4,4 -6,6 -2,3 -4,5 -6,7 -2,1 -4,3 -7,4 -2,1 -4,2 -6,2 -7,1 -16,0 -26,-1 -10,-2 -20,-4 -30,-7 -10,-3 -20,-7 -30,-11 -10,-4 -18,-9 -26,-13 -9,11 -19,19 -32,25 -11,5 -24,7 -38,8l0 0 -4 0 -1 0 0 0 -1 0 0 0 0 0 -3 0 0 0c-6,0 -11,-1 -17,-2 -7,-1 -13,-3 -19,-5 -6,-2 -11,-4 -16,-7 -5,-3 -9,-6 -13,-9 -7,5 -14,9 -23,12 -9,3 -18,5 -28,7 -9,1 -19,3 -30,3 -10,1 -20,1 -29,1l-1 0 0 0 -8 0 -5 0c-6,21 -15,40 -27,57 -12,18 -27,33 -44,45 -17,13 -36,24 -57,32 -21,8 -43,14 -66,18l-16 -67c21,-4 39,-9 56,-15 16,-6 31,-13 44,-20 12,-8 23,-16 31,-24 8,-9 14,-17 18,-26 -7,0 -13,0 -20,0 -7,-1 -13,-1 -17,-1 -14,-1 -27,-4 -39,-8 -12,-5 -22,-10 -30,-18 -8,-7 -15,-16 -20,-27 -4,-11 -6,-23 -6,-37 0,-8 0,-17 2,-27 2,-9 5,-18 8,-27 4,-8 8,-17 14,-24 5,-8 11,-15 17,-21 7,-6 14,-10 22,-14 8,-3 17,-5 26,-5 11,0 21,2 30,6 9,4 18,9 26,16 7,7 14,15 20,24 6,9 11,19 16,29 4,11 8,22 10,33 3,11 5,22 6,33l1 0 8 0 0 0 1 0c10,0 19,-1 27,-1 8,-1 15,-2 21,-3 6,-2 11,-4 16,-6 4,-2 7,-5 10,-9 3,-5 5,-10 6,-15 1,-6 1,-12 0,-18 -1,-6 -2,-12 -3,-18 -2,-5 -3,-11 -5,-17l63 -18c2,7 3,13 5,18 1,5 2,11 3,16 1,5 2,10 2,15 1,5 2,11 3,17 0,4 1,8 2,12 1,5 2,9 5,13 2,4 5,7 9,10 3,2 8,4 14,4l0 0 1 0 0 0 1 0c9,0 17,-2 23,-6 7,-4 12,-9 17,-15 5,-6 9,-13 12,-20 4,-8 7,-15 11,-22 4,-9 9,-17 15,-26 5,-9 11,-17 18,-24 7,-7 15,-13 24,-17 9,-5 19,-7 30,-7 14,0 26,3 36,8 10,5 18,12 24,20 7,9 12,19 16,31 5,11 8,23 10,36 3,13 5,23 7,31 3,7 5,11 8,11l0 0 6 0 1 0 0 0c10,0 19,-1 27,-1 8,-1 15,-2 21,-3 6,-2 11,-4 16,-6 4,-2 7,-5 10,-9 3,-5 5,-10 6,-15 1,-6 1,-12 0,-18 -1,-6 -2,-12 -3,-18 -2,-5 -3,-11 -5,-17l63 -18c2,7 3,13 5,18 1,5 2,11 3,16 1,5 2,10 2,15 1,5 2,11 3,17 0,4 1,8 2,12 1,5 2,9 5,13 2,4 5,7 9,10 3,2 8,4 14,4l0 0 1 0 0 0 1 0zm-105 131l-40 41 -42 -42 41 -42 41 41 41 -40 42 41 -42 42 -41 -41zm-185 -202c-4,0 -8,1 -12,4 -3,3 -7,7 -10,11 -3,4 -5,9 -8,15 -2,5 -5,10 -7,15 5,3 11,6 18,9 6,3 13,5 20,7 6,3 13,4 20,6 7,1 13,2 19,3 -2,-8 -4,-16 -7,-25 -2,-8 -5,-15 -8,-22 -3,-7 -6,-12 -11,-17 -4,-4 -9,-6 -14,-6zm-253 202l-40 41 -42 -42 41 -42 41 41 41 -40 42 41 -42 42 -41 -41zm-193 -203c-3,-1 -6,0 -10,3 -4,2 -8,6 -11,10 -3,5 -6,10 -9,15 -2,6 -3,11 -3,16 0,5 2,9 5,12 3,3 7,6 12,8 4,2 10,4 16,5 6,1 12,2 18,2 5,0 11,1 16,1l13 0c-2,-9 -4,-18 -7,-26 -3,-8 -6,-16 -10,-22 -4,-7 -9,-12 -14,-16 -4,-5 -10,-7 -16,-8zm-338 203l-41 41 -42 -42 42 -42 41 41 40 -40 42 41 -41 42 -41 -41zm-168 -269l-48 -48 48 -48 48 48 -48 48z"/>
 </g>
</svg>
