<svg xmlns="http://www.w3.org/2000/svg" xml:space="preserve" width="350" height="200" version="1.0" shape-rendering="geometricPrecision" text-rendering="geometricPrecision" image-rendering="optimizeQuality" fill-rule="evenodd" clip-rule="evenodd" viewBox="0 0 35000 19994"><path fill="#E4FDE1" fill-rule="nonzero" d="M35000 19994H0V0h35000v19994z"/><path fill="#373435" fill-opacity=".102" d="M21995 16439l-321 357 2 1 9 2 8 3 9 2 9 2 10 2 9 1h1l199-220-3 3-2 4-3 3-2 4-3 5-2 4-2 5-2 5-2 6-4 11-5 11-6 10-6 9-7 9-7 7-114 127h37l11-1 321-356-6 8-6 8-5 8-5 9-5 8-4 10-4 9-3 10-3 10-3 11-2 10-1 11-1 11-1 12v23l1 11 1 11 1 10 133-148 5-5 6-5 5-4 6-3 6-4 7-2 6-3 7-1 7-1 7-1h19l11 2 10 3 10 3 9 5 9 6 8 8 7 8 6 9 6 10 5 11 4 12 3 13 2 14 1 14 1 16-1 15v4l194-215-3 4-3 4-2 5-2 5-2 6-1 7v126l105-117-7 8-98 110v75l133-148 6-6 8-5 9-4 10-2 11-2 13-1 6 1h5l6 1 5 2 4 2 4 2 4 3 3 3 3 4 2 4 2 4 2 4 2 5 1 5 1 5 1 5 1 6v6l1 7v7l1 8v3l101-112-7 8-94 105v84l130-145 4-4 4-4 4-3 5-3 4-3 5-3 5-2 5-1 5-2 5-1h5l5-1 6 1h6l5 1 5 2 5 2 4 2 4 3 3 3 3 4 2 3 3 4 2 5 2 4 1 4 1 5 1 5 1 5 1 6v12l1 7v100l219-244-3 4-2 4-3 5-2 6-1 5-1 7v6l-1 8v120l113-125-7 8-8 9-98 109v78l133-147 7-8 8-7 9-5 9-5 9-4 9-2 11-2 10-1 7 1h6l7 2 6 1 6 3 6 2 6 3 5 4 6 4 5 5 5 5 4 5 4 6 4 7 4 6 3 7 3 8 3 8 2 8 1 9 2 9 1 9v10l1 10-1 10v10l-1 8 200-222-3 4-3 5-2 5-2 5-2 6-1 7-1 7v228l1 14 2 14 2 11 276-306-4 4-3 5-2 5-2 6-2 6-1 6v7l-1 8v78l241-267-2 2-2 2-2 3-2 3-1 2-1 3-2 3-1 3-1 3v3l-1 4v3l-1 4v24l-1 5v69l-52 59 2 2 3 3 3 3 3 2 4 2 4 1 4 1 5 1 5 1h19v115l104-115h27l7-1 7-1h6l5-2 6-1 4-2 5-2 4-2 3-3-178 197v16l1 12v11l1 10 1 10 1 10 1 8 2 8v2l273-302-6 6-4 7-4 6-3 7-3 6-2 7-2 7-1 7v11l1 4 1 4 1 3 2 4 2 3 3 3 3 3 3 3 3 2 4 2 4 1 4 2 4 1h17l3-1 45-50 4-4 4-4 5-4 5-3 5-3 5-2 6-3 6-1 7-2 8-1 9-1 9-1h20l10 1 9 2 8 2 7 3 6 3 6 4 4 4 3 5 3 6 3 7 2 7 2 7 224-249-2 2-2 2-2 3-1 3-1 2-2 3-1 3-1 3-1 3-1 3v7l-1 4v13l-1 5v80l-53 59 2 2 3 3 3 3 4 2 4 2 4 1 4 1 5 1 5 1h19v84l271-300-3 4-3 4-2 4-2 5-1 5-1 5v11l1 6 1 5 1 5 3 4 2 5 3 4 4 3 4 3 4 3 4 2 5 2 5 1 5 1 5 1h10l5-1 5-1 4-1 5-2 4-2 4-3 4-3 4-4-87 97-2 4-1 6-1 6-1 7v272l235-262-6 8-6 8-5 8-5 9-5 8-4 10-4 9-3 10-3 10-3 11-2 10-1 11-1 11-1 12v23l1 11 1 11 1 10 133-148 5-5 6-5 5-4 6-3 6-4 7-2 6-3 7-1 7-1 7-1h19l11 2 11 3 9 3 9 5 9 6 8 8 7 8 6 9 6 10 5 11 4 12 3 13 2 14 1 14 1 16-1 15v7l197-219-3 4-3 4-2 5-2 6-1 5-1 7-1 6v125l111-123-7 8-7 8-97 108v77l134-149 5-4 5-5 6-4 6-3 6-3 6-2 7-2 6-1 7-1h17l9 1 9 3 7 3 7 3 6 5 5 6 4 6 3 7 3 8 2 9 2 9 2 10 1 11 1 12v132l228-253-6 6-4 7-4 6-3 7-3 6-2 7-2 7-1 7v11l1 4 1 4 1 3 2 4 2 3 3 3 3 3 3 3 3 2 4 2 4 1 4 2 4 1h17l3-1 45-50 4-4 5-4 4-4 5-3 5-3 5-2 6-3 6-1 7-2 8-1 9-1 9-1h20l10 1 9 2 8 2 7 3 7 3 5 4 4 4 3 5 3 6 3 7 2 5 226-252-3 5-3 4-2 5-2 6-2 6-1 7v479l2 6 1 6 2 6 3 5 2 5 4 4 3 4 4 3 5 3 4 2 5 2 5 1 5 1h17l5-2 5-2 4-2 4-3 5-3 3-3-2878 3197H0v-2825L12471 3318l-7 8-7 9-6 9-5 10-6 10-4 11-5 11-3 11-3 11-3 12-2 13-2 12-2 13v49l132-146 4-5 5-5 5-4 5-4 6-4 6-4 6-3 6-3 7-3 6-2 7-2 7-2 8-1 7-1h31l7 1 7 1 6 1 6 2 6 2 5 2 5 3 4 2 5 3 4 3 4 3 4 3 3 3 3 3 3 4 3 4 4 5 3 4 4 6 4 6 4 6 4 6 2 2 2 2 2 2 1 2 2 1 2 2 3 1 2 1 2 1 3 2h2l2 1h3l2 1h10l4-1 4-1 4-1 4-2 4-2 3-2 4-3 3-3-135 149h73v75l-94 104 8-1 11-1h3l269-299-5 6-5 6-4 6-5 7-4 7-3 8-4 8-3 8-2 8-3 8-2 9-1 9-1 9-1 9-1 9v9l1 20 1 11 111-123 5-6 6-4 6-4 6-3 7-2 7-2 8-1h16l8 1 7 2 7 2 7 3 6 4 5 4 6 5 5 6 4 7 4 7 3 8 3 8 2 10 2 9 1 11-45 49h43l165-184-2 3-2 4-2 4-2 5-1 4-1 5v109l92-102-6 7-6 7-80 89v64l107-119 4-4 4-4 4-4 5-3 5-3 5-2 6-2 5-2 5-1h20l8 1 7 2 6 2 5 3 5 4 4 5 3 5 3 6 3 7 2 7 1 8 2 8 1 9v135l200-221-5 6-5 6-5 6-4 7-4 7-4 8-3 8-3 8-3 8-2 8-2 9-1 9-2 9-1 9v38l2 11 110-123 6-6 6-4 6-4 6-3 587-651-3 2-2 3-2 3-1 3-1 4-1 3-1 4v3l1 4v3l1 4 1 3 2 3 2 3 2 3 3 2 4 4 539-599-4 6-3 5-2 6-1 7v6l2 7 3 6 4 5 3 4 4 4 3 4 3 5 3 4 3 4 3 4 3 5-506 562 5 4 69 39 37 14 165-185 284-283 2 29v29l-1 31-3 32-3 33-5 34-6 36-7 37-220 244h39l69-5 68-9-10 70-4 73 1 73 1 9 242-269 35-7 33-5 32-5 31-4 29-3 29-1h28l27 1-437 485 8 18 43 70 16 18 150-166 377-378 8 5 8 6 8 5 8 6 7 7 8 6 7 7 7 7 7 7 7 7 7 8 6 7 6 8 5 8 6 8 5 8-502 557 46 29 65 27 170-188 268-268 1 27v28l-1 29-3 29-4 31-5 32-5 33-7 35-220 244h33l72-5 71-9-9 68-5 69 1 70 1 18 242-269 38-7 35-6 34-5 33-4 32-2 31-1h29l29 2-447 497 32 58 36 45 149-165 381-381 5 3 4 3 4 3 5 3 4 3 4 3 4 4 4 3 5 4 6 3 7 2h6l7-1 6-2 5-3 6-4 106-106-1677 1862 124-3h57l57 1 57 2 58 2 58 3 14 1 1239-1376-6 7-4 9-2 9v10l1 9 4 9 4 7 7 7 7 5 8 4 10 3 17 2 18 3 17 2 17 3 18 2 17 3 18 3 17 3h5l1 1h2l8-1 8-2 7-4 7-5 6-5-1188 1319 194 27 1211-1345-5 8-3 9-1 9v10l3 9 4 8 5 7 7 6 8 5 9 3 36 9 35 9 36 10 35 10 36 10 35 11 34 10 35 12h2l1 1h4l2 1h5l8-1 7-1 7-3 6-4 6-5-1152 1279 201 48 1162-1291-6 7-4 9-3 9-1 9 1 9 3 9 4 8 6 7 7 6 8 5 34 14 33 15 34 15 33 15 33 16 33 16 33 16 32 17 3 1 3 1 2 1 3 1h3l3 1h11l7-2 6-2 5-3 6-3 4-5-1108 1231 55 19 132 66 1110-1233-6 7-4 9-3 9v9l1 9 3 9 4 8 6 7 8 6 31 19 30 20 31 21 30 20 30 21 30 22 29 21 29 22 4 3 3 2 4 1 3 2 4 1 3 1h13l6-1 5-2 5-2 4-2 5-4 4-3-1076 1195 138 93 28 24 1069-1188-5 8-4 8-2 9-1 9 2 9 3 9 4 8 7 7 27 24 26 25 27 25 26 26 27 26 26 26 25 26 26 27 3 3 4 3 4 3 5 2 4 1 5 1 4 1h14l4-1 4-2 4-2 4-2 4-3 4-3-1069 1187 117 138 12 18 1066-1184-5 8-4 8-1 9-1 9 2 9 4 9 5 8 23 28 22 29 23 29 22 29 22 30 21 30 22 30 21 30 4 4 4 4 5 4 4 3 6 2 5 2 6 1h12l4-1 3-1 4-1 3-2 3-2 3-2 8-6-1112 1234 54 112 30 83 1116-1240-5 8-3 8-1 9v10l3 9 4 8 18 32 19 31 18 32 18 32 18 32 17 33 18 32 17 33 3 6 4 5 5 4 5 4 6 3 6 2 6 1 7 1h5l3-1h3l2-1 3-1 3-1 3-1 8-6 6-6-1213 1347 38 227 1232-1369-5 7-4 8-3 9-1 9 1 10 3 9 15 33 14 34 15 34 14 34 13 34 14 34 13 35 13 34 4 7 4 6 4 5 6 5 6 3 7 3 7 2h13l2-1h2l2-1h2l2-1 9-4 7-6-1376 1529 1 171v75l1402-1558-5 8-4 8-1 9v10l2 9 10 35 11 36 10 35 11 36 9 35 10 36 9 35 9 36 3 7 4 7 4 6 6 6 7 4 7 3 7 2 8 1h2l1-1h7l2-1 9-3 8-5 6-6-1533 1703v5l9 50 978-1086-25 30-21 35-19 37-16 42-13 45-10 49-4 35 649-721-6 7-5 8-2 9-2 9 1 10 6 31 4 27 4 23 3 20 2 15 2 12 1 7v2l2 9 3 8 5 7 5 6 7 5 8 4 8 2 9 1h5l10-2 8-4 8-5 6-7-320 356 15 31 14 47 1 7 1451-1612-89 138-67 153-39 151 355-395 11-12 11-11 10-11 11-11 12-11 11-11 12-10 11-11 7 10 1 2 53-58 43-29 46-27 47-24 49-21 50-18 51-16 53-12 54-8h1l1-1h6l11 1 11 3 9 5 8 7 7 8 5 9 3 10 1 11v93l118-131 8-6 9-6 11-3 10-1h9l62 11 61 15 59 19 58 23 55 27 52 31 51 34 48 38-194 215 1 5 2 9 44-48 4-5 5-3 5-2 6-2h6l7 1 59-67 5-4 16-11 18-7 19-4 20-2 19-1 17 1 15 2 11 2h1l16 18 15 18 15 18 14 19 14 20 14 20 13 20 12 20-90 100 7-5 17-8 19-7 22-4h25l27 5h2l2 1h11l17 41 15 43 14 44 11 44 8 45 6 47 4 46 1 48v1l-2 12-3 12-6 10-8 10-220 245h293l20-2 19-6 17-9 15-12-625 693v76l203-226-7 8-6 9-6 9-6 10-4 10-5 11-3 11-3 12-2 12-2 12-1 13v13l1 19 2 17 113-126 6-6 7-5 8-4 7-3 9-3 9-1 9-1 6 1h7l5 1 6 1 5 2 5 2 5 2 5 3 4 3 4 4 4 4 3 3 180-200-3 3-2 3-2 4-2 4v4l-1 4v9l1 5v4l2 4 2 4 2 4 2 3 3 3 4 2 3 3 4 1 3 2 4 1 4 1h5l4 1 4-1h4l4-1 4-1 4-2 3-2 4-2 3-3 3-2-72 80-1 3-2 5-1 5v217l191-213-4 5-4 6-3 5-2 5-3 6-1 5-2 6v6l-1 5v4l1 3 1 3 1 4 1 2 2 3 2 3 3 2 3 2 2 2 3 2 3 1 3 1 4 1h16l38-42 3-4 4-3 4-3 4-3 4-2 4-2 5-2 5-1 6-2 7-1h7l7-1h17l9 1 7 1 7 2 6 2 5 3 4 3 3 4 3 4 3 5 2 5 1 5 188-209-3 4-2 4-2 4-1 4-2 6-1 5v397l1 5 2 5 1 5 2 4 3 4 2 4 3 3 4 3 3 2 4 2 4 1 4 1 4 1h10l4-1 4-1 4-1 4-2 4-2 3-3 3-3-458 509-1 4-3 9-2 8-2 9-2 8-1 9-1 9-1 10v9l1 20 1 11 111-124 5-5 6-4 6-4 6-3 7-3 7-1 8-1 8-1 8 1 8 1 7 1 7 3 7 3 6 4 6 4 5 5 5 6 4 6 4 8 3 7 3 9 2 9 2 10 1 11-45 49h43l166-184-3 3-2 4-2 4-1 4-2 5v5l-1 6v103l92-102-6 7-6 7-80 89v64l107-119 4-4 4-4 5-4 4-3 5-3 6-2 5-2 5-2 5-1h6l6-1 8 1 8 1 7 2 6 2 6 3 4 4 4 5 4 5 2 6 3 6 2 8 2 7 1 9 1 9v137l201-223-7 9-7 8-6 9-5 10-5 11-4 10-4 11-3 12-2 12-1 12-1 13-1 13 1 19 2 17 113-126 6-6 7-5 8-4 8-3 8-2 9-2h22l6 1 5 2 6 1 5 2 5 3 4 3 4 3 4 3 5 4 4 5 4 4 4 5 4 6 4 6 2 2 2 3 2 3 2 2 2 2 2 2 2 2 2 1 2 2 2 1 2 1h2l2 1h2l3 1h7l3-1 4-1 4-1 3-1 3-2 4-2 3-3 2-3-197 219 17 4 14 2 116-130-2 3-2 3-2 3-2 3-2 3-2 4-4 5-4 6-4 5-4 5-81 90h4l271-300-5 6-5 6-4 6-5 7-4 7-3 8-4 7-3 8-2 9-3 8-2 9-1 8-1 9-1 9-1 10v9l1 20 1 11 111-124 5-5 6-4 6-4 6-3 7-3 7-1 8-1 8-1 8 1 8 1 7 1 7 3 7 3 6 4 5 4 6 5 5 6 4 6 4 8 3 7 3 9 2 9 2 10 1 11-45 49h65l8-1h7l7-1 6-2 6-1 5-2 5-3 5-2 3-4-152 169 11 1 9-1h8l9-1 8-1 8-1 7-2 8-2 7-2 7-2 6-3 6-3 6-3 6-3 5-3 5-3 5-4 5-3 4-4 4-4 3-3-7252 8054h887l9-2 8-2 9-2 8-3 8-4 8-4 7-4 448-267-75 458 1317-1463-1033 1339-323 359-18 110-2 22 2 22 5 20 9 20 11 17 15 16 8 7 1154-1281-118 476-3 15-1 14v15l3 15 4 14 5 14 7 14 8 12 10 11 11 10 12 9 13 8 13 6 14 5 15 3 15 1h1187l684-760-9 9-8 11-8 10-7 11-7 12-6 12-6 13-5 13-4 13-4 14-4 15-2 15-3 15-1 15-1 17v41l166-184 12-10 12-9 14-8 14-6 15-4 16-2 17-1h11l10 1 10 2 9 2 9 3 9 3 8 5 8 4 7 6 7 6 7 7 7 7 6 8 6 9 6 9 6 10 3 6 3 6 3 5 3 5 3 4 3 4 3 3 3 3 3 2 3 2 3 2 4 2 4 1h5l5 1h10l4-1 5-1 4-2 4-2 4-2 4-3 3-4zM16524 3591zm0 0z"/><path fill="#114B5F" fill-rule="nonzero" d="M18636 17740c-18 0-35-3-52-10-55-24-86-82-76-141l132-803-448 267c-19 12-42 21-65 21h-3008c-504 178-932 19-1058-231-12-25-30-71-36-129-313-67-527-205-623-400-43-87-62-172-58-254-259-100-354-261-385-394-36-157-11-296 58-420-5-7-11-15-16-23-117-185-138-389-59-589 38-95 97-187 172-274-158-186-232-462-226-838 16-1057-50-1359-1092-3645-522-1145-438-2383 225-3314 712-998 1964-1490 3436-1350 1354 129 2281 629 2754 1484 394 711 383 1494 377 1961-10 664 221 946 444 1218 72 88 140 171 198 265 85 136 103 258 54 362-86 181-339 216-506 238-26 4-50 7-69 11-106 18-195 72-220 102 93 110 172 289 28 520-5 7-10 15-15 22-50 79-63 100-24 218 72 215-71 365-176 475-34 36-66 69-92 103-21 30-26 157-29 242-7 218-16 490-217 634-174 125-517 77-1019-11-222-39-498-87-585-64-93 25-102 267-74 445 64 85 78 197 38 320-20 64-73 144-258 249 93 18 170 57 224 115 98 107 103 260 13 410-112 189-638 428-902 538 422-89 688-58 807 93 47 59 109 188-4 393-73 131-345 247-605 331 96 18 184 54 238 120 33 41 125 187-71 384-249 249-890 401-1453 361 93 113 382 181 740 52 14-5 29-19 44-19h2994l657-375c43-26 98-18 140 10 41 29 63 82 54 132l-93 568 1033-1339c38-49 104-64 160-37 55 26 84 77 69 137l-227 904h1306c72 0 130 72 130 144s-58 145-130 145h-1472c-40 0-78-22-103-53-24-32-33-74-23-113l118-476-971 1258c-25 33-64 50-103 50zm-4253-1244c473 22 1010-100 1199-289 19-20 31-35 37-45-48-22-183-47-408-14-260 37-523 133-721 265-42 27-77 55-107 83zm-774-367c5 20 13 44 26 70 59 120 216 211 446 260 48-84 130-174 265-263 35-23 71-45 108-66-263 29-551 41-809 4-12-1-24-3-36-5zm132-244c829 92 2123-309 2236-457 33-60 34-95 27-103-30-39-239-100-837 72-111 32-226 63-337 93-412 112-867 235-1089 395zm-513-471c-25 62-31 126-16 193 21 91 97 162 226 211 108-142 303-250 544-342-92 12-183 19-270 20-197 3-358-24-484-82zm170-213c94 29 205 36 300 35 371-3 908-132 1473-354 570-222 873-425 909-483 13-22 41-76 19-101-45-48-266-96-631 81-152 74-389 145-662 228-465 142-1094 333-1408 594zm-83-676c-60 69-104 138-131 205-41 105-39 205 9 304 180-161 439-292 720-403-218 13-424-10-598-106zm208-191c213 74 500 36 785-22 327-65 758-185 1098-304 479-169 647-290 671-331 2-6 3-11 4-15-38-22-62-61-66-103-102-33-360-55-996 108-617 157-1158 404-1496 667zm1448-8884c-1174 0-2156 448-2738 1264-608 854-683 1996-200 3056 1065 2335 1132 2648 1115 3756-5 295 47 514 153 651 420-352 1091-619 1653-763 484-123 830-164 1058-122-5-208 37-485 281-550 136-36 353-1 697 59 270 47 724 126 823 56 96-70 103-262 109-432 5-158 10-295 80-389 35-46 74-87 112-126 106-112 137-157 118-214-73-219-25-320 51-439l13-21c56-89 54-145-7-216-62-72-80-161-51-244 55-152 259-252 427-281 23-4 50-7 78-11 77-11 280-38 306-92 4-10 2-46-40-114-49-79-112-156-179-237-228-280-513-628-502-1386 12-942 39-2903-2895-3183-157-15-311-22-462-22z"/><path fill="#028090" fill-rule="nonzero" d="M13252 10783c-354 0-512-382-664-752-65-157-132-320-209-437-189-287-320-713-352-1141-43-567 87-1119 374-1595 471-777 1560-1299 2712-1299 440 0 856 76 1238 226 90 31 1353 478 1658 1432 100 315 57 635-125 924-329 525-1104 933-2026 1071-142 134-716 633-1439 633-91 0-181-8-270-24-47 235-194 683-651 901-85 40-168 61-246 61zm3423-3180c-34 0-69-14-95-42-217-235-763-163-955-115l-12 3c-27 4-542 78-936-86 28 279-23 622-345 852-2 2-5 3-7 5-8 5-89 54-210 101-75 85-476 598 5 1228 97 24 198 36 299 36 650 0 1188-493 1273-575-152-89-300-237-407-471-231-465 62-856 249-999 57-43 139-32 182 25 44 57 33 139-25 182-14 12-366 290-172 678 1 1 1 2 2 4 235 519 683 436 688 435 17-3 33-3 49 0 644-171 1172-488 1406-861 142-226 175-464 97-707-270-844-1484-1262-1496-1266-2 0-4-1-7-2-283-112-588-179-910-201-27 30-67 48-111 44-4 0-164-13-332 71-223 110-359 336-405 670-11 83-9 157 6 221 21 13 39 33 50 57 3 8 22 50 45 118l7 7c230 227 766 206 961 177 84-20 849-189 1202 192 49 53 45 135-7 184-25 23-57 35-89 35zm-2307-467c-114-147-156-334-126-559 48-349 178-573 329-716-843 132-1601 561-1947 1132-574 948-322 2011-28 2458 91 138 163 312 232 481 120 290 244 591 424 591 39 0 84-12 134-36 434-207 511-705 523-812-311-419-296-801-224-1054 23-80 53-153 84-215-29 2-58 4-87 4-87 0-176-13-262-44-219-79-377-259-470-533-23-68 13-142 81-165s142 13 165 81c67 199 169 320 311 372 282 103 639-98 678-121 316-229 247-647 183-864z"/><path fill="#F45B69" fill-rule="nonzero" d="M19560 8888c-226 0-339-159-339-477 0-165 30-290 91-377 62-86 150-129 267-129 221 0 331 161 331 484 0 161-30 285-90 370-61 86-147 129-260 129zm9-823c-90 0-136 113-136 341 0 214 45 322 134 322 86 0 130-111 130-332s-43-331-128-331zM20033 8840v-182c63 46 138 70 223 70 53 0 95-12 125-35 29-23 44-55 44-96 0-42-18-75-55-98s-88-35-152-35h-88v-160h81c124 0 186-41 186-123 0-78-48-116-143-116-63 0-125 20-185 61v-171c66-33 144-50 233-50 97 0 173 22 227 65 54 44 81 101 81 171 0 124-63 202-189 233v4c68 8 121 32 159 73 39 40 59 90 59 149 0 88-33 159-98 211-65 51-154 77-269 77-98 0-178-16-239-48zM19933 7778c-24 0-44-18-47-42 0 0-6-50-22-137-4-26 13-51 39-55 25-5 50 12 55 38 16 90 22 141 22 143 3 26-16 50-42 53h-5zM19848 7348c-21 0-40-15-46-36-23-94-50-190-79-284-8-25 6-52 31-59 25-8 51 6 59 31 30 96 57 193 81 289 6 25-9 51-34 57-4 1-8 2-12 2zm-176-568c-20 0-38-12-45-31-34-92-71-184-111-272-10-24 1-52 25-63 24-10 52 0 62 24 40 91 78 184 113 278 9 25-3 52-28 61-5 2-11 3-16 3zm-240-543c-17 0-34-9-42-26-45-87-94-174-143-257-14-22-6-51 16-65 23-13 52-6 65 17 51 84 100 172 146 262 12 23 3 52-20 64-7 3-15 5-22 5zm-306-509c-15 0-30-7-39-20-56-81-115-160-176-235-17-20-13-50 7-67 20-16 50-13 67 7 62 77 122 158 180 240 15 22 10 51-12 66-8 6-17 9-27 9zm-374-461c-12 0-25-5-34-14-68-72-138-140-210-205-20-17-21-47-4-67 18-19 48-21 67-4 74 67 146 137 216 210 18 19 17 49-2 67-9 9-21 13-33 13zm-441-396c-10 0-20-3-29-10-77-58-158-114-240-166-22-14-29-44-15-66s44-29 66-15c84 54 167 112 247 172 20 16 25 45 9 66-10 13-24 19-38 19zm-501-317c-7 0-15-2-22-5-86-45-175-87-265-124-24-10-35-38-25-62 10-25 38-36 62-26 92 39 184 82 272 128 23 12 32 40 20 63-8 17-25 26-42 26zm-547-229c-4 0-9-1-14-2-92-30-187-57-282-81-25-6-41-32-35-57 6-26 32-41 58-35 97 24 194 52 288 82 25 8 39 35 31 60-7 20-26 33-46 33zM16687 4184c-3 0-5-1-8-1-46-8-93-15-139-21-26-4-44-28-41-54 4-26 28-44 53-40 48 6 96 13 143 21 25 5 43 29 38 55-3 23-24 40-46 40zM11323 11433c-23 0-43-16-47-40-14-87-34-176-60-272-7-26 7-52 33-59 25-6 51 8 58 34 27 99 48 192 63 282 4 26-14 50-40 55h-7zm-147-549c-19 0-38-12-45-32-28-82-61-168-99-264-10-24 2-52 27-62 24-9 51 2 61 27 39 97 72 185 101 268 9 25-4 52-29 61-5 1-11 2-16 2zm-209-529c-18 0-36-11-44-29-36-86-74-173-113-261-10-24 1-52 25-62 24-11 52 0 62 24 39 88 77 176 114 262 10 24-1 52-25 62-6 3-13 4-19 4zm-227-522c-18 0-35-11-43-29-42-98-79-184-111-263-10-24 1-52 26-62 24-10 52 2 61 26 33 79 69 164 111 261 10 25-1 52-25 63-6 2-12 4-19 4zm-215-527c-20 0-37-12-45-31-35-94-67-182-97-269-8-25 5-52 30-60s52 5 60 30c29 86 61 173 96 266 9 24-3 52-28 61-5 2-11 3-16 3zm-182-539c-21 0-40-14-46-35-27-94-51-187-71-278-6-25 10-51 35-56 26-6 51 10 57 35 20 89 44 181 71 273 7 25-8 52-33 59-4 1-9 2-13 2zm-125-555c-23 0-43-17-47-40-16-96-27-192-36-286-2-26 17-49 44-51 26-2 49 17 51 43 8 92 19 185 34 279 5 26-13 50-39 54-2 1-5 1-7 1zm-49-571c-26 0-47-19-47-45-1-10-1-19-1-29 0-86 4-172 10-257 2-26 24-45 51-44 26 2 45 25 43 51-6 83-9 167-9 251v28c1 26-20 45-47 45zm42-562c-3 0-5 0-8-1-26-4-43-28-39-54l12-72c13-71 27-142 43-210 6-26 31-42 57-36 25 6 41 31 35 57-15 67-29 136-42 205-4 24-8 47-11 71-4 23-24 40-47 40zm127-554c-4 0-9-1-14-2-25-8-39-34-31-59 28-93 59-184 93-272 9-25 37-37 61-28 25 10 37 37 28 61-34 87-64 176-91 266-7 21-25 34-46 34zm204-531c-7 0-14-1-20-4-24-11-34-40-23-63 41-87 86-173 133-256 13-22 42-30 65-17s31 42 18 64c-46 81-90 164-130 249-8 17-25 27-43 27zm283-493c-9 0-19-2-27-8-22-15-27-44-12-66 54-79 112-157 173-231 16-20 46-23 66-7 21 17 24 47 7 67-59 72-115 148-168 225-9 13-24 20-39 20zm359-440c-11 0-23-4-33-13-18-19-19-49-1-67 68-70 139-137 210-199 20-17 50-15 67 5s15 50-5 67c-69 60-138 125-204 193-9 9-21 14-34 14zm432-371c-15 0-30-7-39-20-15-21-10-51 11-66 149-104 247-151 251-153 23-11 52-1 63 23 11 23 1 52-23 63-1 0-95 45-236 145-8 6-18 8-27 8zM10953 12633c-226 0-340-159-340-477 0-165 31-291 92-377 62-86 150-130 266-130 222 0 332 162 332 485 0 161-30 284-91 370-60 86-146 129-259 129zm9-824c-90 0-136 114-136 342 0 214 45 321 134 321 86 0 129-110 129-331s-42-332-127-332zM11900 11644v972h-209v-736c-12 10-25 20-41 29s-32 17-50 24c-18 8-36 14-55 19s-38 9-56 11v-176c54-16 105-37 154-61 48-25 91-52 130-82h127zM8193 11878l186 281v-284c0-18 4-32 12-41 7-10 18-14 32-14 13 0 24 4 32 14 8 9 12 23 12 41v375c0 42-17 63-52 63-8 0-16-1-23-4-7-2-14-6-20-12-6-5-11-11-17-19-5-7-10-14-15-22l-181-278v280c0 18-5 32-13 41-9 9-19 14-33 14-13 0-24-5-32-14-9-10-13-23-13-41v-368c0-16 2-28 5-37 4-10 11-18 21-24 9-6 20-9 31-9 8 0 16 1 22 4s12 7 16 12c5 4 10 10 15 18s10 15 15 24zM8815 12154h-174c0 21 4 38 12 54 8 15 19 27 32 34 13 8 27 12 43 12 11 0 21-1 29-4 9-2 18-6 26-11 8-6 16-11 23-17s16-15 27-25c4-4 11-6 19-6 9 0 17 3 22 8 6 4 9 12 9 21 0 8-3 17-10 28-6 10-15 21-28 31-13 9-29 18-48 24-19 7-41 10-66 10-57 0-101-16-133-49s-48-77-48-132c0-27 4-51 12-73 8-23 19-42 34-58s34-28 55-37c22-9 47-13 73-13 35 0 65 7 90 22 24 15 43 34 55 57 13 23 19 47 19 71 0 22-6 37-19 43-13 7-31 10-54 10zm-174-50h161c-2-31-10-53-24-68-15-15-33-23-57-23-22 0-40 8-54 23s-23 38-26 68zM9193 12263v-12c-10 14-21 25-33 34s-25 16-38 21c-14 4-30 6-48 6-21 0-41-4-58-13s-30-21-39-37c-11-19-17-46-17-81v-176c0-18 4-31 12-40s19-13 32-13 24 4 33 13c8 9 12 22 12 40v142c0 21 2 38 5 52 4 14 10 25 19 33s21 12 36 12 30-5 43-14 23-20 29-35c5-12 7-40 7-82v-108c0-18 4-31 13-40 8-9 19-13 32-13s24 4 32 13 12 22 12 40v257c0 17-4 30-12 38-7 9-17 13-30 13-12 0-22-5-30-13-8-9-12-21-12-37zM9453 12185v74c0 18-4 31-12 40-9 9-19 14-32 14s-24-5-32-14-12-22-12-40v-247c0-40 14-60 43-60 15 0 25 4 32 14 6 9 10 23 10 41 11-18 22-32 33-41 11-10 26-14 45-14 18 0 37 4 54 14 18 9 26 22 26 37 0 11-3 20-11 27-7 7-15 10-24 10-3 0-11-2-23-6-13-4-24-6-34-6-13 0-23 4-31 11-9 6-15 17-20 30-4 13-7 30-9 48-2 19-3 41-3 68zM9865 12263c-21 17-42 29-62 37-20 9-43 13-68 13-22 0-42-5-60-14-17-9-30-21-40-36-9-16-14-32-14-50 0-25 8-45 23-62 16-18 37-29 64-35 6-1 20-4 42-9 22-4 42-8 57-12 16-4 34-9 52-14-1-23-6-41-14-51-8-12-25-17-52-17-22 0-39 3-51 9-11 7-21 16-29 29-8 12-14 21-17 25-4 4-11 6-22 6-10 0-19-4-26-10s-11-14-11-25c0-15 6-30 17-45s28-27 52-37c23-9 52-14 87-14 39 0 70 5 92 14 23 9 38 24 48 44 9 20 14 46 14 79 0 21-1 39-1 53v49c0 16 3 34 8 52 6 18 8 30 8 35 0 9-4 17-12 25-9 7-19 11-30 11-9 0-18-4-27-13-8-8-18-21-28-37zm-6-129c-13 5-32 10-56 15-25 6-42 10-52 12-10 3-19 8-27 15-9 7-13 17-13 30 0 14 5 25 15 35 10 9 23 14 40 14 18 0 34-4 48-12 15-7 26-17 33-29 8-14 12-36 12-67v-13zM10037 12259v-385c0-18 4-31 12-40 7-10 18-14 32-14 13 0 24 4 32 13s12 23 12 41v385c0 18-4 31-12 40-9 9-19 14-32 14s-24-5-32-14-12-23-12-40zM8193 12649l186 281v-284c0-18 4-32 12-41 7-9 18-14 32-14 13 0 24 4 32 14 8 9 12 23 12 41v375c0 42-17 63-52 63-8 0-16-1-23-4-7-2-14-6-20-12-6-5-11-11-17-19-5-7-10-14-15-22l-181-277v279c0 18-5 32-13 41-9 9-19 14-33 14-13 0-24-5-32-14-9-10-13-23-13-41v-368c0-16 2-28 5-37 4-10 11-18 21-24 9-6 20-9 31-9 8 0 16 1 22 4s12 7 16 12c5 4 10 11 15 18l15 24zM8815 12925h-174c0 21 4 38 12 54 8 15 19 27 32 35 13 7 27 11 43 11 11 0 21-1 29-3 9-3 18-7 26-12s16-11 23-17 16-14 27-25c4-4 11-6 19-6 9 0 17 3 22 8 6 5 9 12 9 21 0 8-3 17-10 28-6 11-15 21-28 31s-29 18-48 24c-19 7-41 10-66 10-57 0-101-16-133-49-32-32-48-76-48-132 0-26 4-51 12-73 8-23 19-42 34-58s34-28 55-37c22-8 47-13 73-13 35 0 65 8 90 22 24 15 43 34 55 57 13 23 19 47 19 71 0 22-6 37-19 44-13 6-31 9-54 9zm-174-50h161c-2-31-10-53-24-68-15-15-33-23-57-23-22 0-40 8-54 23s-23 38-26 68zM8968 12731h10v-53c0-15 0-26 1-34s3-15 6-21c4-6 9-11 15-15 7-4 14-6 22-6 11 0 21 5 30 13 6 6 10 12 12 21 1 8 2 19 2 34v61h33c12 0 22 3 29 9 6 6 10 13 10 23 0 12-5 20-15 25-9 5-22 7-40 7h-17v163c0 14 1 25 2 32 1 8 3 14 7 18 5 5 12 7 21 7 5 0 12 0 21-2s16-3 21-3c7 0 14 3 20 9 5 5 8 12 8 21 0 14-8 25-23 33-16 7-38 11-68 11-27 0-48-5-63-14-14-9-23-22-28-39-4-16-6-38-6-66v-170h-12c-13 0-23-3-29-9-7-6-10-14-10-23 0-10 3-17 10-23s17-9 31-9zM9254 12778l58 199 53-185c5-19 10-32 12-39 3-7 8-14 16-21 7-6 17-9 30-9 14 0 24 3 31 9 8 7 13 14 16 21 3 8 7 21 13 39l52 185 59-199c4-14 7-24 9-31 3-6 7-12 13-17 5-5 13-7 24-7 10 0 20 4 28 11 7 7 11 16 11 26 0 9-3 23-10 41l-72 213c-7 18-12 31-15 39s-9 15-16 22c-8 6-18 9-31 9-14 0-24-3-32-10s-13-15-17-25c-4-9-8-22-12-38l-51-173-49 173c-6 24-13 42-21 55-7 12-21 18-40 18-10 0-18-2-25-6-7-3-12-9-17-16-4-7-9-15-12-25s-6-17-8-23l-72-213c-7-20-11-33-11-41 0-10 4-18 12-26 7-7 17-11 28-11 14 0 24 4 30 12 5 9 10 23 16 43zM10064 12904c0 26-4 50-12 73-8 22-20 41-36 57-15 16-34 29-56 37-21 9-46 13-73 13s-51-4-73-13c-21-9-40-21-55-37-16-16-28-35-36-58-8-22-12-46-12-73 0-26 4-51 12-73 8-23 20-42 35-58 16-15 35-28 56-36 22-9 46-13 73-13s51 4 73 13 41 21 57 37c15 16 27 35 35 57 8 23 12 47 12 74zm-89 0c0-37-8-65-24-85s-37-30-64-30c-17 0-33 4-46 13s-23 23-30 40c-8 18-11 38-11 62 0 23 3 43 10 60 7 18 17 31 31 40 13 9 28 14 46 14 27 0 48-10 64-30 16-21 24-49 24-84zM10222 12956v74c0 18-4 32-12 40-9 9-20 14-33 14-12 0-23-5-31-14s-12-22-12-40v-247c0-40 14-60 43-60 14 0 25 5 32 14 6 9 10 23 10 41 11-18 22-32 33-41s26-14 45-14c18 0 37 5 54 14 18 9 26 22 26 37 0 11-3 20-11 27-7 7-15 11-24 11-3 0-11-2-24-6-12-4-23-6-33-6-13 0-23 3-32 10-8 7-14 17-19 30-4 14-7 30-9 48-2 19-3 41-3 68zM10631 13043l-79-128-48 45v71c0 17-4 30-13 39s-20 14-31 14c-14 0-25-5-33-14s-11-22-11-40v-379c0-19 3-34 11-45 8-10 18-15 33-15 13 0 24 5 32 14s12 23 12 41v215l100-104c13-13 22-22 28-27 7-5 15-7 24-7 11 0 20 3 28 10 7 8 11 16 11 27 0 13-12 30-36 52l-47 43 91 143c6 11 11 19 14 25 3 5 5 11 5 15 0 15-4 26-12 34s-18 12-30 12c-11 0-20-3-25-9-6-6-14-16-24-32zM11061 12968c0 25-6 45-18 63-12 17-30 31-53 40s-52 13-85 13c-32 0-59-5-82-15-23-9-39-22-50-36-11-15-17-29-17-44 0-10 4-18 11-25s15-11 26-11c10 0 17 3 22 7 5 5 9 11 14 20 9 15 20 27 33 35 12 8 30 12 51 12 18 0 33-4 44-12 12-8 17-17 17-27 0-16-6-27-18-35-11-7-31-14-58-20-30-8-55-16-75-24-19-8-34-19-46-33-11-14-17-31-17-51 0-17 6-34 16-50 11-16 27-28 47-38 21-9 46-14 75-14 23 0 44 2 62 7s34 11 46 19 22 17 28 27 10 19 10 29-4 18-11 25c-6 6-16 9-29 9-9 0-17-2-23-7-7-6-14-13-22-24-7-8-15-15-24-21-9-5-21-7-37-7s-29 3-40 10c-10 7-16 15-16 25s4 17 12 23 18 11 31 15c14 4 32 9 55 15 28 6 50 14 68 24 17 9 30 20 39 33 9 12 14 27 14 43zM9380 11363c36 0 68 14 91 37 23 24 37 56 37 91s-14 67-37 91c-23 23-55 37-91 37-35 0-67-14-90-37-24-24-38-56-38-91s14-67 38-91c23-23 55-37 90-37zm73 55c-18-19-44-30-73-30-28 0-54 11-73 30s-30 44-30 73 11 54 30 73 45 30 73 30c29 0 55-11 73-30 19-19 31-44 31-73s-12-54-31-73z"/><path fill="#F45B69" fill-rule="nonzero" d="M9380 11231c71 0 135 29 182 77 46 47 75 111 75 183s-29 137-75 183c-47 48-111 77-182 77s-135-29-181-77c-47-46-75-111-75-183s28-136 75-183c46-48 110-77 181-77zm147 111c-38-38-90-61-147-61s-109 23-146 61c-38 38-61 91-61 149s23 111 61 149c37 38 89 61 146 61s109-23 147-61c37-38 60-91 60-149s-23-111-60-149zM10336 10992c36 0 68 14 91 37s38 55 38 91c0 35-15 67-38 91-23 23-55 37-91 37-35 0-67-14-90-37-23-24-38-56-38-91 0-36 15-68 38-91s55-37 90-37zm74 55c-19-19-45-31-74-31-28 0-54 12-73 31-18 18-30 44-30 73 0 28 12 54 30 73 19 19 45 30 73 30 29 0 55-11 74-30 18-19 30-45 30-73 0-29-12-55-30-73z"/><path fill="#F45B69" fill-rule="nonzero" d="M10336 10860c71 0 135 29 182 76 46 47 75 112 75 184 0 143-115 260-257 260-70 0-135-29-181-77-46-47-75-111-75-183s29-137 75-184 111-76 181-76zm147 111c-38-38-89-61-147-61-57 0-108 23-146 61-37 38-61 91-61 149s24 111 61 149c38 38 89 61 146 61 115 0 207-94 207-210 0-58-23-111-60-149zM10336 10314c36 0 68 15 91 38s38 55 38 90c0 36-15 68-38 91s-55 38-91 38c-35 0-67-15-90-38s-38-55-38-91c0-35 15-67 38-90s55-38 90-38zm74 55c-19-18-45-30-74-30-28 0-54 12-73 30-18 19-30 45-30 73 0 29 12 55 30 74 19 18 45 30 73 30 29 0 55-12 74-30 18-19 30-45 30-74 0-28-12-54-30-73z"/><path fill="#F45B69" fill-rule="nonzero" d="M10336 10183c71 0 135 29 182 76 46 47 75 112 75 183 0 144-115 260-257 260-70 0-135-29-181-76s-75-112-75-184c0-71 29-136 75-183s111-76 181-76zm147 111c-38-38-89-62-147-62-57 0-108 24-146 62-37 38-61 90-61 148 0 59 24 111 61 149 38 38 89 62 146 62 115 0 207-94 207-211 0-58-23-110-60-148zM9380 9961c36 0 68 15 91 38s37 55 37 90c0 36-14 68-37 91s-55 38-91 38c-35 0-67-15-90-38-24-23-38-55-38-91 0-35 14-67 38-90 23-23 55-38 90-38zm73 55c-18-18-44-30-73-30-28 0-54 12-73 30-19 19-30 45-30 73 0 29 11 55 30 74 19 18 45 30 73 30 29 0 55-12 73-30 19-19 31-45 31-74 0-28-12-54-31-73z"/><path fill="#F45B69" fill-rule="nonzero" d="M9380 9830c71 0 135 29 182 76 46 47 75 112 75 183 0 144-115 260-257 260-71 0-135-29-181-76-47-47-75-112-75-184 0-71 28-136 75-183 46-47 110-76 181-76zm147 110c-38-37-90-61-147-61s-109 24-146 61c-38 39-61 91-61 149 0 59 23 111 61 149 37 38 89 62 146 62 115 0 207-94 207-211 0-58-23-110-60-149z"/><circle fill="#F45B69" cx="8310" cy="10607" r="82"/><path fill="#F45B69" fill-rule="nonzero" d="M8310 10520c24 0 46 10 62 25 15 16 25 38 25 62s-10 46-25 62c-16 15-38 25-62 25s-46-10-62-25c-15-16-25-38-25-62s10-46 25-62c16-15 38-25 62-25zm54 33c-14-14-33-23-54-23s-40 9-54 23-23 33-23 54 9 40 23 54 33 23 54 23 40-9 54-23 23-33 23-54-9-40-23-54z"/><circle fill="#F45B69" cx="8310" cy="10975" r="82"/><path fill="#F45B69" fill-rule="nonzero" d="M8310 10888c24 0 46 9 62 25 15 16 25 38 25 62s-10 46-25 62c-16 15-38 25-62 25s-46-10-62-25c-15-16-25-38-25-62s10-46 25-62c16-16 38-25 62-25zm54 32c-14-13-33-22-54-22s-40 9-54 22c-14 14-23 34-23 55s9 40 23 54 33 23 54 23 40-9 54-23 23-33 23-54-9-41-23-55z"/><path fill="none" d="M8349 11047c220 290 487 433 800 429m-792-937c191-286 455-436 791-450m-767 477c310-124 591-110 842 43m-831 366c391-94 678-324 860-690m-861 333c414 101 704 324 871 671m-886-265c308 107 597 84 867-67"/><path fill="#F45B69" fill-rule="nonzero" d="M10574 10438h265v25h-265v-25zm-2506 533h191v24h-191v-24zm0-383h191v25h-191v-25zm291 452c109 143 229 250 361 321 131 70 274 105 429 103v25c-159 2-306-34-441-106-135-73-258-182-369-328l20-15zm-13-507c97-145 212-256 346-332s285-117 456-124l1 25c-166 6-315 47-445 121s-243 182-337 323l-21-13zm30 21c157-62 307-90 449-83 90 5 176 23 260 56 59-74 110-157 156-247l22 10c-45 91-96 173-154 247 41 17 81 37 120 61l-13 21c-40-24-81-45-123-62-56 69-117 130-185 185-22 17-44 34-67 49 30 19 58 39 86 60 62 48 119 102 170 161 47-18 94-40 140-66l12 22c-45 25-90 46-135 64 62 75 115 159 159 251l-22 11c-45-93-99-177-162-252-86 31-174 51-264 58-146 11-297-11-453-65l8-23c152 53 300 74 443 63 85-7 168-24 249-54-48-55-102-105-160-150-30-23-61-44-93-64-124 82-266 142-424 180l-6-24c152-36 287-93 407-171-119-71-255-125-408-162l6-24c160 39 301 96 425 171 25-17 50-35 74-55 64-51 123-110 176-175-79-30-161-47-246-51-138-7-284 20-437 81l-10-23zm1236 925c129 3 239-12 329-47s162-88 214-161l20 15c-55 76-130 133-225 169-94 36-206 52-338 48v-24zm0-1402c106-4 206 10 301 41 96 31 185 80 270 146l-16 19c-82-64-169-111-261-142-93-30-190-43-294-39v-25zm-56 159c118 50 221 109 310 175 72-16 153-23 242-19l-1 24c-79-3-151 2-216 15 36 29 69 59 100 90 63 65 115 135 156 212 10-38 18-77 22-117l25 2c-6 51-16 100-31 147 24 49 43 101 58 155l-23 7c-13-45-28-88-47-129-32 83-80 160-144 231-35 38-74 74-118 108 68 15 140 19 218 10l2 25c-88 9-170 4-246-15-89 65-195 123-319 174l-10-23c115-47 215-101 299-160-13-4-25-9-38-13-95-38-179-100-254-186l19-16c72 83 153 143 244 179l54 18c49-37 93-76 131-118 68-74 117-156 147-245-41-83-96-160-163-229-34-35-72-68-113-100-27 7-54 15-78 25-90 37-162 94-217 171l-20-14c57-82 133-141 227-179 20-9 41-16 63-22-83-60-179-114-288-160l9-23zm1018 861h265v25h-265v-25z"/><path fill="#F45B69" fill-rule="nonzero" d="M9380 10653c36 0 68 14 91 38 23 23 37 55 37 90 0 36-14 68-37 91s-55 37-91 37c-35 0-67-14-90-37-24-23-38-55-38-91 0-35 14-67 38-90 23-24 55-38 90-38zm73 55c-18-19-44-30-73-30-28 0-54 11-73 30s-30 45-30 73c0 29 11 55 30 73 19 19 45 31 73 31 29 0 55-12 73-31 19-18 31-44 31-73 0-28-12-54-31-73z"/><path fill="#F45B69" fill-rule="nonzero" d="M9380 10521c71 0 135 30 182 77 46 47 75 112 75 183 0 144-115 260-257 260-71 0-135-29-181-76-47-47-75-112-75-184 0-71 28-136 75-183 46-47 110-77 181-77zm147 111c-38-38-90-61-147-61s-109 23-146 61c-38 38-61 91-61 149s23 111 61 149c37 38 89 61 146 61 115 0 207-94 207-210 0-58-23-111-60-149zM12856 3527v89c0 12-1 21-3 28-3 7-7 13-13 19s-14 11-24 16c-28 15-55 26-81 33-25 7-54 11-84 11-35 0-68-6-97-17s-54-26-75-47c-20-21-36-46-47-76-11-29-16-62-16-99 0-36 5-69 15-98 11-30 27-56 48-76 21-21 46-37 76-48 29-11 63-17 101-17 31 0 59 5 82 13 24 8 44 19 59 31 15 13 26 26 33 40 8 14 12 27 12 38s-5 21-13 30c-9 8-19 12-32 12-6 0-13-1-19-5-6-3-11-7-16-13-11-18-21-31-29-41-8-9-19-17-32-23-14-6-31-9-52-9-22 0-41 3-58 11-17 7-31 18-43 32-13 14-22 32-28 52-6 21-10 44-10 69 0 54 13 96 38 125 24 29 59 43 104 43 21 0 41-2 60-8s39-14 58-24v-75h-72c-18 0-31-3-40-8s-13-14-13-27c0-10 4-19 11-25 8-7 18-11 31-11h106c13 0 24 2 33 4s16 7 22 15c5 8 8 20 8 36zM13179 3569h-168c0 20 4 37 12 52 7 15 17 26 30 33 13 8 27 12 42 12 10 0 20-1 28-4 9-2 17-6 25-11s15-11 22-17c7-5 15-13 26-24 5-3 11-5 19-5 9 0 16 2 22 7 5 5 8 12 8 21 0 7-3 16-9 27-6 10-16 20-28 29-12 10-28 18-46 24-19 7-40 10-64 10-56 0-98-16-129-48-31-31-46-74-46-128 0-25 4-49 11-70 8-22 19-41 33-56 15-16 33-28 54-36s45-12 70-12c34 0 63 7 87 21s42 32 54 55c12 22 18 45 18 69 0 21-6 35-19 42-12 6-30 9-52 9zm-168-49h156c-2-29-10-51-24-66-14-14-32-21-54-21s-39 7-53 22c-14 14-22 36-25 65zM13400 3421v10c15-20 32-35 50-44s38-14 62-14c22 0 43 5 61 15 17 10 31 24 40 42 5 10 9 22 11 34 1 12 2 27 2 46v160c0 18-4 31-12 40-8 8-18 13-30 13-13 0-24-5-32-14s-12-22-12-39v-143c0-28-4-50-12-65-7-15-23-22-47-22-15 0-29 4-42 13-12 9-21 22-27 38-4 13-7 37-7 72v107c0 18-4 31-12 40-8 8-18 13-31 13-12 0-22-5-30-14s-12-22-12-39v-248c0-16 3-29 10-37 8-8 17-12 30-12 7 0 14 2 20 6 6 3 11 8 15 15 3 8 5 16 5 27zM13952 3569h-169c1 20 5 37 12 52 8 15 18 26 31 33 12 8 27 12 42 12 10 0 19-1 28-4 9-2 17-6 25-11s15-11 22-17c7-5 15-13 26-24 4-3 11-5 19-5 9 0 16 2 21 7 6 5 8 12 8 21 0 7-3 16-9 27-6 10-15 20-27 29-13 10-28 18-47 24-18 7-39 10-64 10-55 0-98-16-128-48-31-31-46-74-46-128 0-25 3-49 11-70 8-22 19-41 33-56 14-16 32-28 54-36 21-8 44-12 70-12 34 0 63 7 86 21 25 14 43 32 55 55 11 22 18 45 18 69 0 21-7 35-19 42-12 6-30 9-52 9zm-169-49h156c-2-29-10-51-23-66-14-14-32-21-55-21-21 0-39 7-53 22-13 14-22 36-25 65zM14100 3381h9v-52c0-14 1-25 1-32 1-8 3-15 6-21 4-6 9-10 15-14s13-6 21-6c11 0 21 4 29 13 6 5 10 12 12 20 1 8 2 19 2 33v59h31c13 0 22 3 28 9 7 5 10 13 10 22 0 11-5 19-14 24s-22 7-39 7h-16v158c0 13 0 24 1 31s4 13 8 18c4 4 11 6 20 6 5 0 12-1 20-2 9-2 16-3 20-3 8 0 14 3 19 8 6 6 9 13 9 21 0 14-8 24-23 32-15 7-37 11-65 11-27 0-47-5-61-14s-23-21-27-37c-5-16-7-38-7-64v-165h-11c-13 0-22-3-29-9-6-6-9-13-9-22s3-17 10-22c7-6 17-9 30-9zM14409 3422v248c0 18-4 31-12 40-8 8-19 13-31 13-13 0-23-5-31-14s-12-22-12-39v-246c0-17 4-29 12-38s18-13 31-13c12 0 23 4 31 13s12 21 12 36zm-42-89c-12 0-23-3-31-11-9-7-13-18-13-31 0-12 5-22 13-30 9-8 19-12 31-12 11 0 21 4 29 11 9 7 13 17 13 31 0 13-4 24-12 31-9 7-19 11-30 11zM14807 3616c0 11-4 23-10 35-7 12-16 23-29 34-14 11-30 20-50 27s-42 10-67 10c-54 0-95-15-125-46s-45-73-45-125c0-35 7-66 21-93 13-28 33-49 59-63 26-15 57-22 93-22 22 0 42 3 61 9 19 7 34 15 47 25 13 11 23 22 30 33 7 12 10 23 10 33s-4 19-11 26c-8 7-17 11-28 11-7 0-13-2-18-5-5-4-10-10-16-18-11-16-22-28-33-36s-26-12-44-12c-25 0-46 10-61 30-16 19-23 47-23 81 0 16 2 31 6 45 4 13 9 25 17 34 8 10 17 17 27 22 11 5 23 7 36 7 17 0 32-4 44-12s23-20 33-36c5-10 10-18 17-23 6-5 13-8 22-8 10 0 19 4 26 12s11 16 11 25zM12730 4409l-22-58h-188l-22 59c-9 23-16 39-22 47s-16 12-30 12c-12 0-22-4-31-13s-14-18-14-29c0-6 1-13 3-20 3-6 6-16 11-28l118-299c3-9 7-19 12-31 5-13 10-22 15-30s13-15 21-20c9-5 20-7 32-7 14 0 24 2 33 7s16 11 21 19c6 8 10 16 14 25 3 9 8 21 14 36l120 298c10 23 14 39 14 49 0 11-4 21-13 30s-20 13-32 13c-8 0-14-1-19-4s-10-6-13-11c-4-4-8-11-12-20-4-10-7-18-10-25zm-185-128h137l-69-191-68 191zM12892 4417v-373c0-17 4-30 12-39 7-9 18-13 31-13s23 4 31 13 12 22 12 39v373c0 17-4 30-12 39s-19 13-31 13c-13 0-23-5-31-14s-12-21-12-38zM13383 4183v249c0 29-3 53-9 74s-16 38-29 51c-14 13-32 24-53 30-22 7-49 10-81 10-30 0-56-4-80-13-23-8-41-19-54-32-12-13-18-26-18-40 0-11 3-19 10-26 8-7 16-10 26-10 13 0 24 6 33 17 5 5 10 11 15 17s10 11 16 15 13 7 22 9c8 2 18 3 28 3 23 0 40-3 52-9 13-7 21-15 26-27 5-11 8-22 9-35 0-13 1-33 2-61-14 18-29 32-46 42-18 9-38 14-62 14-29 0-54-7-76-22-21-14-38-35-49-62-12-26-17-57-17-91 0-26 3-49 10-70s17-38 30-53c13-14 28-25 45-32s36-11 56-11c25 0 46 5 64 14 17 10 34 24 49 44v-11c0-15 4-27 11-35 8-8 17-13 29-13 16 0 27 6 33 17 5 11 8 26 8 47zm-249 109c0 34 8 61 23 79s35 26 59 26c14 0 28-3 40-11 13-8 23-19 31-35 8-15 12-34 12-56 0-35-8-62-23-82-15-19-36-29-61-29-24 0-44 9-59 28s-22 45-22 80zM13776 4294c0 26-4 50-12 71-8 22-20 40-35 56-15 15-33 27-54 36-21 8-45 12-71 12s-49-4-70-13c-21-8-39-20-54-36-15-15-27-34-35-55s-12-45-12-71 4-50 12-71c8-22 20-40 35-56 15-15 33-27 54-35s44-13 70-13 50 5 71 13 39 21 54 36c16 16 27 34 35 55 8 22 12 46 12 71zm-87 0c0-35-7-62-23-81-15-20-36-30-62-30-17 0-31 5-44 13-13 9-23 22-30 39s-10 37-10 59c0 23 3 42 10 59s17 30 29 39c13 9 28 13 45 13 26 0 47-10 62-29 16-20 23-47 23-82zM13929 4345v72c0 17-4 30-13 39-8 9-18 13-31 13-12 0-22-4-30-13s-12-22-12-39v-240c0-38 14-58 42-58 14 0 24 5 30 14 7 9 10 22 11 40 10-18 21-31 31-40 11-9 26-14 44-14s35 5 52 14 26 21 26 36c0 11-4 19-11 26s-15 10-24 10c-3 0-10-2-22-6-12-3-23-5-32-5-13 0-23 3-31 10-8 6-14 16-19 29-4 13-7 29-9 46-2 18-2 40-2 66zM14212 4168v249c0 17-4 30-13 39-8 9-18 13-31 13-12 0-22-5-30-14s-12-21-12-38v-246c0-17 4-30 12-39 8-8 18-13 30-13 13 0 23 5 31 13 9 9 13 21 13 36zm-43-89c-12 0-22-3-30-10-9-8-13-18-13-32 0-12 4-22 13-29 9-8 19-12 30-12s21 3 30 10c8 8 13 18 13 31 0 14-4 24-13 31-8 8-18 11-30 11zM14305 4127h10v-51c0-14 0-25 1-33s3-15 6-20c3-6 8-11 15-15 6-3 13-5 21-5 10 0 20 4 29 12 6 6 10 12 11 20 2 8 3 19 3 34v58h31c12 0 22 3 28 9s10 13 10 22c0 12-5 20-14 24-9 5-22 7-39 7h-16v158c0 14 0 24 1 31s3 13 8 18c4 4 10 7 20 7 5 0 11-1 20-3s15-3 20-3c7 0 13 3 19 9 6 5 8 12 8 20 0 14-7 25-22 32-16 7-37 11-66 11-26 0-47-5-60-14-14-9-23-21-28-37-4-16-6-37-6-64v-165h-11c-13 0-22-3-29-9-6-6-10-13-10-22s4-16 11-22 16-9 29-9zM14613 4044v127c11-12 21-22 32-29 10-8 22-13 34-17 13-4 27-6 41-6 22 0 41 5 58 14 17 10 30 23 40 41 6 10 10 21 12 34s3 27 3 44v165c0 17-4 30-11 39-8 9-19 13-32 13-28 0-42-17-42-52v-145c0-28-4-49-13-64-8-15-23-22-46-22-16 0-29 4-42 13-12 9-21 21-27 36-5 12-7 35-7 68v114c0 17-4 30-12 39-7 8-18 13-31 13-29 0-43-17-43-52v-373c0-17 4-30 11-39 8-9 18-13 32-13 13 0 24 4 31 13 8 9 12 22 12 39zM15204 4301v114c0 18-4 31-12 40s-19 14-32 14-24-5-32-14-12-22-12-40v-137c0-22-1-39-2-51-2-11-6-21-12-29-7-8-17-11-31-11-28 0-47 9-56 29-9 19-13 47-13 83v116c0 18-4 31-12 40-9 9-19 14-32 14s-24-5-32-14-13-22-13-40v-246c0-16 4-29 12-37 7-8 17-13 29-13s21 4 29 12 12 19 12 33v8c15-18 31-31 48-39 17-9 36-13 57-13s40 4 55 13c16 9 29 22 39 39 14-18 30-31 46-39 17-9 35-13 56-13 23 0 43 5 60 14s30 22 39 40c7 15 10 40 10 73v168c0 18-4 31-12 40s-19 14-32 14-24-5-32-14-13-22-13-40v-145c0-18 0-33-2-44s-6-21-13-28c-7-8-17-11-31-11-12 0-22 3-33 10-10 6-18 15-23 27-7 14-10 40-10 77z"/><path fill="#F45B69" d="M16524 3541c-1-1-2-2-4-2-173-158-375-155-551-127 28-185 30-396-148-573-177-178-388-176-573-148 28-177 31-379-128-554-7-7-16-11-26-11-9 0-18 4-25 10l-106 106c-13 13-14 34-1 48 9 11 18 22 25 34l-381 381c-12-8-23-16-34-26-14-12-34-11-47 2l-106 106c-7 7-11 16-11 25 1 10 5 19 12 25 174 160 376 156 554 129-29 185-31 396 147 573 177 178 388 176 573 147-27 177-31 380 129 554 6 7 15 11 25 12 9 0 18-4 25-11l106-106c13-13 14-33 2-47-10-11-18-22-26-34l381-381c12 7 23 16 34 25 14 13 35 12 48-1l106-106c13-14 13-36 0-50zm-1506-805c-101 19-185 30-261 22l284-283c8 76-4 160-23 261zm186 186c94-18 173-29 244-24l-268 268c-5-72 6-150 24-244zm72 462c-19-19-35-39-48-61l377-378c22 14 42 30 61 49s36 39 49 61l-378 378c-22-14-42-30-61-49zm462 72c-94 18-172 29-244 24l268-268c5 71-6 150-24 244zm164 447c-8-76 3-160 22-261 101-20 185-31 261-23l-283 284z"/><path fill="#F45B69" fill-rule="nonzero" d="M21246 8261l-22-58h-187l-22 59c-9 23-16 39-22 47s-16 12-30 12c-12 0-22-4-31-13-9-8-14-18-14-29 0-6 1-13 3-20 2-6 6-16 11-28l118-299c3-9 7-19 12-31s9-22 15-30c5-8 12-15 21-20s19-7 32-7 24 2 33 7 16 12 21 19c5 8 10 16 13 25 4 9 9 21 15 36l120 298c10 23 14 39 14 49 0 11-4 21-13 30s-20 13-32 13c-8 0-14-1-19-4-6-2-10-6-14-10-3-5-7-12-11-21-4-10-8-18-11-25zm-185-128h138l-69-190-69 190zM21494 8197v72c0 17-4 30-12 39s-19 13-31 13c-13 0-23-4-31-13s-12-22-12-39v-239c0-39 14-58 42-58 14 0 25 4 31 13s10 23 10 40c11-17 21-31 32-40s25-13 43-13 36 4 53 13 25 21 25 36c0 11-3 19-11 26-7 7-15 10-23 10-3 0-11-2-23-5-12-4-23-6-32-6-13 0-23 3-31 10-8 6-14 16-18 29-5 13-8 29-9 47-2 18-3 39-3 65zM21704 7979h9v-51c0-14 1-25 1-33 1-8 3-15 7-20 3-6 8-11 14-15 6-3 13-5 21-5 11 0 21 4 30 12 5 6 9 12 11 20 1 8 2 19 2 34v58h32c12 0 21 3 27 9 7 6 10 13 10 22 0 12-4 20-14 24-9 5-22 7-39 7h-16v158c0 14 1 24 1 31 2 8 4 13 8 18 4 4 11 7 20 7 5 0 12-1 21-3 8-2 15-3 20-3 7 0 13 3 18 9 6 5 9 12 9 20 0 14-8 25-23 32-15 8-37 11-65 11-27 0-47-4-61-13s-23-22-27-38c-5-16-7-37-7-64v-165h-11c-12 0-22-3-28-9-7-5-10-13-10-22s3-16 10-22 17-9 30-9zM22013 8020v249c0 17-4 30-12 39s-18 13-31 13-23-4-31-13c-7-9-11-22-11-39v-246c0-17 4-30 11-39 8-8 18-12 31-12s23 4 31 12c8 9 12 21 12 36zm-42-88c-12 0-22-4-31-11-8-8-12-18-12-31s4-23 13-30c8-8 18-12 30-12 11 0 21 3 29 10 9 8 13 18 13 32 0 13-4 23-12 30-9 8-19 12-30 12zM22095 7979h21v-25c0-27 3-49 10-65 7-15 18-27 35-34 16-7 38-11 66-11 51 0 76 12 76 37 0 8-3 15-8 20-5 6-12 9-19 9-3 0-9-1-17-2-8-2-15-2-21-2-15 0-25 4-30 14-4 9-6 22-6 39v20h21c32 0 49 10 49 30 0 14-5 23-13 27-9 3-21 5-36 5h-21v228c0 17-5 30-13 39s-18 13-31 13c-12 0-22-4-30-13s-12-22-12-39v-228h-24c-13 0-23-3-29-8-7-6-11-14-11-23 0-20 15-31 43-31zM22411 8020v249c0 17-4 30-13 39-8 9-18 13-31 13-12 0-23-4-30-13-8-9-12-22-12-39v-246c0-17 4-30 12-39 7-8 18-12 30-12 13 0 23 4 31 12 9 9 13 21 13 36zm-43-88c-12 0-22-4-31-11-8-8-12-18-12-31s4-23 13-30c9-8 19-12 30-12s21 3 30 10c8 8 13 18 13 32 0 13-5 23-13 30-8 8-18 12-30 12zM22808 8215c0 10-3 22-10 34-6 12-16 24-29 35s-30 20-50 26c-20 7-42 11-67 11-53 0-95-16-124-47-30-31-45-72-45-124 0-36 7-67 20-94 14-27 34-48 60-63 25-15 56-22 92-22 22 0 43 3 61 10 19 6 35 15 48 25s22 21 29 33 10 22 10 33c0 10-3 19-11 26s-17 10-28 10c-7 0-13-1-18-5-4-4-10-10-16-18-10-16-21-28-32-36-12-8-27-12-44-12-25 0-46 10-61 30-16 20-24 47-24 81 0 17 2 31 6 45 4 13 10 25 18 35 7 9 16 16 27 21s22 8 35 8c17 0 32-4 44-12 13-8 24-20 33-37 5-9 11-17 17-22 6-6 14-9 22-9 11 0 20 4 26 12 7 8 11 17 11 26zM22968 8020v249c0 17-4 30-12 39s-18 13-31 13c-12 0-23-4-30-13-8-9-12-22-12-39v-246c0-17 4-30 12-39 7-8 18-12 30-12 13 0 23 4 31 12 8 9 12 21 12 36zm-42-88c-12 0-22-4-31-11-8-8-12-18-12-31s4-23 13-30c8-8 18-12 30-12 11 0 21 3 30 10 8 8 12 18 12 32 0 13-4 23-12 30-8 8-18 12-30 12zM23275 8273c-21 16-41 28-61 36-19 8-41 12-65 12-22 0-41-4-58-13s-30-20-39-35-13-31-13-49c0-23 7-43 22-60s36-28 62-33c5-2 19-4 40-9 22-4 40-8 56-12 15-4 32-8 50-13-1-23-6-40-14-50-8-11-24-16-50-16-22 0-38 3-49 9s-21 15-29 27c-7 13-13 21-16 25-4 3-11 5-21 5s-18-3-25-9-11-14-11-24c0-15 6-30 16-44 11-14 28-26 50-35 23-9 51-14 85-14 38 0 68 4 89 13 22 9 37 23 46 43 9 19 13 45 13 77v98c0 16 2 33 8 50 5 18 8 29 8 34 0 9-4 17-13 24-8 8-17 11-28 11-9 0-17-4-26-12-8-8-18-20-27-36zm-6-125c-13 5-31 10-55 15s-41 9-50 11c-9 3-18 8-26 15-9 7-13 16-13 29s5 24 15 33 23 14 39 14c17 0 32-4 47-11 14-8 25-17 31-29 8-13 12-34 12-64v-13zM23441 8269v-373c0-17 4-30 11-39 8-9 18-13 31-13s24 4 31 13c8 9 12 22 12 39v373c0 17-4 30-12 39s-18 13-31 13-23-4-31-13c-7-9-11-22-11-39zM20955 9011v-364c0-19 4-33 13-43 8-9 20-14 33-14 14 0 25 5 34 14 9 10 13 24 13 43v364c0 19-4 33-13 42-9 10-20 15-34 15-13 0-24-5-33-15-9-9-13-24-13-42zM21225 8766v10c15-20 32-35 50-44s38-14 61-14 43 5 61 15 31 24 40 42c6 10 10 21 11 34 2 12 3 27 3 46v160c0 17-4 30-12 39s-18 14-31 14-23-5-31-14-12-22-12-39v-143c0-28-4-50-12-65s-23-23-47-23c-15 0-29 5-42 14-12 9-22 22-27 38-5 13-7 36-7 72v107c0 18-4 31-12 39-8 9-18 14-31 14-12 0-23-5-31-14s-12-22-12-39v-248c0-17 4-29 11-37s17-12 29-12c8 0 15 2 21 5 6 4 11 9 14 16 4 8 6 16 6 27zM21541 8726h10v-52c0-14 0-25 1-33 1-7 3-14 6-20s8-11 14-14c7-4 14-6 21-6 11 0 21 4 30 12 6 6 10 13 11 21 2 7 2 19 2 33v59h32c12 0 21 3 28 8 6 6 10 13 10 22 0 12-5 20-14 25-9 4-22 7-39 7h-17v158c0 13 1 23 2 31 1 7 3 13 7 17 5 5 11 7 21 7 4 0 11-1 20-3 9-1 15-2 20-2 7 0 13 2 19 8 5 6 8 13 8 21 0 14-7 24-22 31-16 8-37 12-66 12-26 0-47-5-61-14-13-9-23-22-27-38s-6-37-6-63v-165h-12c-12 0-21-3-28-9-6-6-10-13-10-23 0-9 4-16 11-22 6-5 16-8 29-8zM22005 8914h-169c1 20 5 37 12 52 8 15 18 26 31 33 13 8 27 12 42 12 10 0 20-1 28-4 9-2 17-6 25-11s15-11 22-17 15-14 26-24c4-4 11-5 19-5 9 0 16 2 21 7 6 5 8 11 8 20 0 8-3 17-9 28-6 10-15 20-27 29-13 10-28 18-47 24-18 6-39 10-64 10-55 0-98-16-128-48-31-31-46-74-46-128 0-25 4-49 11-71 8-21 19-40 33-55 15-16 32-28 54-36 21-9 44-13 70-13 34 0 63 7 87 22 24 14 42 32 54 55 12 22 18 45 18 68 0 22-7 36-19 42-12 7-30 10-52 10zm-169-49h156c-2-29-10-51-23-66-14-14-32-22-55-22-21 0-39 8-52 22-14 15-23 37-26 66zM22148 9015v-373c0-17 4-30 12-38 7-9 17-14 30-14s24 5 32 13c8 9 12 22 12 39v373c0 18-4 31-12 39-8 9-19 14-32 14-12 0-22-5-30-14s-12-22-12-39zM22323 9015v-373c0-17 4-30 11-38 8-9 18-14 31-14s24 5 32 13c8 9 12 22 12 39v373c0 18-4 31-13 39-8 9-18 14-31 14-12 0-23-5-30-14-8-9-12-22-12-39zM22583 8767v248c0 17-4 30-12 39s-18 14-31 14-23-5-31-14c-7-9-11-22-11-39v-246c0-17 4-30 11-38 8-9 18-13 31-13s23 4 31 13c8 8 12 20 12 36zm-42-89c-12 0-22-4-31-11-8-7-12-18-12-31 0-12 4-22 13-30 8-8 18-12 30-12 11 0 21 4 29 11 9 7 13 17 13 31 0 13-4 23-12 31-9 7-19 11-30 11zM22988 8781v250c0 28-3 53-9 74-6 20-16 37-29 51-14 13-31 23-53 29-22 7-49 10-81 10-30 0-56-4-79-12-23-9-41-19-54-32-13-14-19-27-19-41 0-10 4-19 11-26 7-6 16-9 26-9 12 0 23 5 33 16 4 6 9 12 14 17 5 6 10 11 16 15s14 7 22 9 18 3 29 3c22 0 39-3 52-9 12-6 20-15 25-26s8-23 9-36c1-12 2-33 2-61-13 19-29 33-46 42-17 10-38 15-62 15-29 0-54-8-75-22-22-15-38-36-50-62-11-27-17-57-17-92 0-26 3-49 10-70 8-20 18-38 31-52 13-15 28-25 45-32 17-8 35-11 56-11 24 0 45 4 63 14 18 9 34 24 50 44v-12c0-15 3-27 11-35 7-8 16-12 28-12 17 0 28 5 33 16 6 11 8 27 8 47zm-249 109c0 35 8 61 23 79s35 27 59 27c14 0 28-4 41-12 12-7 23-19 31-34 8-16 11-34 11-56 0-35-7-63-23-82-15-20-35-30-60-30s-45 10-60 29c-14 18-22 45-22 79zM23299 8914h-168c0 20 4 37 12 52 7 15 18 26 30 33 13 8 27 12 42 12 11 0 20-1 28-4 9-2 17-6 25-11s16-11 22-17c7-6 16-14 26-24 5-4 11-5 19-5 9 0 16 2 22 7 5 5 8 11 8 20 0 8-3 17-9 28-6 10-16 20-28 29-12 10-27 18-46 24s-40 10-64 10c-55 0-98-16-129-48-30-31-46-74-46-128 0-25 4-49 12-71 7-21 18-40 32-55 15-16 33-28 54-36 21-9 45-13 71-13 33 0 62 7 86 22 24 14 42 32 54 55 12 22 18 45 18 68 0 22-6 36-19 42-12 7-29 10-52 10zm-168-49h156c-2-29-10-51-24-66-14-14-32-22-54-22s-39 8-53 22c-14 15-22 37-25 66zM23520 8766v10c15-20 32-35 50-44s39-14 62-14 43 5 61 15 31 24 40 42c5 10 9 21 11 34 1 12 2 27 2 46v160c0 17-4 30-12 39-7 9-18 14-30 14-13 0-24-5-32-14s-12-22-12-39v-143c0-28-4-50-11-65-8-15-24-23-47-23-16 0-30 5-42 14-13 9-22 22-28 38-4 13-6 36-6 72v107c0 18-4 31-12 39-9 9-19 14-32 14-12 0-22-5-30-14s-12-22-12-39v-248c0-17 3-29 11-37 7-8 16-12 29-12 7 0 14 2 20 5 6 4 11 9 15 16 3 8 5 16 5 27zM24140 8961c0 11-3 22-9 35-7 12-16 23-30 34-13 11-29 20-49 27s-43 10-68 10c-53 0-94-16-124-47-30-30-45-72-45-124 0-35 7-67 21-94 13-27 33-48 59-62 26-15 57-23 93-23 22 0 42 4 61 10 18 7 34 15 47 25 13 11 23 22 30 33 7 12 10 23 10 33s-4 19-11 26c-8 7-17 11-28 11-8 0-13-2-18-6-5-3-10-9-16-17-11-16-22-28-33-36-12-8-26-12-44-12-25 0-46 10-61 29-16 20-23 47-23 82 0 16 2 31 6 44 4 14 9 25 17 35 8 9 17 17 27 22 11 4 23 7 36 7 17 0 32-4 44-12s23-20 33-36c5-10 10-18 17-23 6-6 13-8 22-8 10 0 19 4 26 12s10 16 10 25zM24455 8914h-168c0 20 4 37 12 52 7 15 17 26 30 33 13 8 27 12 42 12 10 0 20-1 28-4 9-2 17-6 25-11s15-11 22-17 15-14 26-24c5-4 11-5 19-5 9 0 16 2 22 7 5 5 8 11 8 20 0 8-3 17-9 28-6 10-16 20-28 29-12 10-28 18-46 24-19 6-40 10-64 10-56 0-98-16-129-48-31-31-46-74-46-128 0-25 4-49 11-71 8-21 19-40 33-55 15-16 33-28 54-36 21-9 45-13 70-13 34 0 63 7 87 22 24 14 42 32 54 55 12 22 18 45 18 68 0 22-6 36-19 42-12 7-30 10-52 10zm-168-49h156c-2-29-10-51-24-66-14-14-32-22-54-22s-39 8-53 22c-14 15-22 37-25 66z"/><path fill="#F45B69" d="M21728 7062c-29 0-54 16-66 40-11-1-22-3-33-5-61-13-100-31-132-56-1-2-3-3-4-4-29-24-52-54-81-91v-1c-4-11-10-43 3-67 1-1 2-3 3-4 11 7 25 11 39 11 41 0 74-33 74-74s-33-75-74-75c-37 0-68 28-73 64-18 14-30 29-37 42-7 15-12 29-14 44-22-8-43-10-64-8-13-15-32-25-54-25-42 0-75 34-75 74 0 42 33 75 75 75 32 0 59-20 69-48 21 1 44 8 63 32l4 6c12 15 23 30 34 43-41 11-72 30-94 52h-2c-41 0-74 34-74 75s33 75 74 75 74-34 74-75c0-11-2-22-7-32 20-14 52-27 99-25 38 29 87 52 158 67 18 3 36 6 54 7 13 19 36 32 61 32 41 0 74-34 74-75s-33-74-74-74zm-271-287h5c18 2 31 17 31 35 0 16-9 29-23 34l-1 1c-2 0-3 1-4 1-3 1-6 1-8 1-20 0-36-17-36-37 0-19 16-35 36-35zm-242 189c-20 0-36-17-36-37 0-19 15-36 36-36 20 0 36 17 36 36 0 20-16 37-36 37zm110 204l-1 1v2s-1 1-1 2l-1 1c0 1 0 2-1 3l-1 1c0 1 0 1-1 1 0 2-1 4-3 5 0 1-1 2-2 2-1 3-3 4-4 4l-1 1c0 1-1 1-1 1-5 4-12 6-19 6h-3c-2 0-4 0-6-1-16-4-27-18-27-35 0-20 16-36 36-36s36 16 36 36v6zm403 5c-20 0-37-17-37-37 0-14 9-26 20-32h1c5-2 10-4 16-4 14 0 27 9 31 21 1 1 2 3 2 4 1 0 1 1 1 2s0 1 1 2v7c0 20-15 37-35 37z"/><path fill="#F45B69" d="M22227 6224c-210-57-223 20-279 20-55 0-76-83-279-20-433 122-751 521-751 992v191c0 54 44 99 99 99h1862c55 0 100-45 100-99v-191c0-472-319-870-752-992zm598 992c0 35-29 63-64 63h-699c-35 0-63-28-63-63v-190c0-28-23-51-51-51s-51 23-51 51v190c0 35-28 63-63 63h-699c-36 0-64-28-64-63 0-222 84-425 220-580 28-31 58-60 89-88 17 23 36 67 47 111 3 13 14 24 26 27 4 1 8 2 12 2 9 0 17-3 25-9 17-16 41-27 68-35-6 29-7 65 5 111 18 72 80 112 129 133 8 34 38 59 74 59 41 0 74-33 74-75 0-41-33-74-74-74-18 0-35 6-48 18-34-16-72-42-81-80-17-65 3-98 8-105 56-4 109 0 137 4 16 2 32-6 40-20 7-14 5-32-6-44-16-17-25-36-30-53 21-12 35-36 35-62 0-42-33-75-74-75s-75 33-75 75c0 26 14 50 36 62 2 11 4 23 9 35-66-3-159 2-231 37-10-28-25-61-45-88 114-82 248-136 393-155 0 0 6-1 8-1 31 0 55 24 55 54v446c0 28 23 51 51 51s51-23 51-51v-266c20 14 44 27 73 37l12 3c-24 37-37 82-18 128 26 62 79 71 119 77 17 2 34 5 47 12 42 22 48 63 47 95-2 36-17 73-37 99-9-3-17-6-27-6-41 0-75 34-75 75s33 75 75 75c41 0 75-33 75-75 0-2 0-4-1-7 37-40 63-97 66-156 5-76-28-137-88-168-24-13-48-17-70-20-38-6-51-9-60-30-11-29 11-62 33-82 11 1 21 1 31 1 12 0 24 0 33-1 14 15 34 25 56 25 40 0 74-34 74-75s-34-74-74-74c-33 0-60 20-70 48-31 2-75 0-124-17-51-17-81-49-97-72v-71c0-30 24-55 54-55h9c169 22 321 93 446 198-34 4-69 15-99 40-29 24-47 57-53 98-26 11-43 37-43 67 0 41 33 74 74 74s75-33 75-74c0-24-12-45-29-59 3-20 12-36 25-47 38-33 110-26 135-20h1c43 46 81 98 113 153-99-5-167 56-192 94-7 10-8 23-4 34 9 27 21 97-7 163-4 8-9 17-16 25-8-3-17-5-26-5-41 0-75 34-75 75s34 74 75 74 74-33 74-74v-7c17-19 29-38 38-58 35-83 24-160 15-197 20-22 69-63 145-43 5 1 10 1 15 1 49 109 76 230 76 358zm-1026-358c1 1 1 3 1 5 1 1 1 3 1 4 1 2 1 4 1 5v3l-1 1v5c-1 0-1 1-1 1-1 4-3 8-5 12-1 0-2 1-2 2-2 2-4 4-7 6l-6 3-1 1c-2 0-4 2-6 2h-8c-20 0-36-16-36-36s16-36 36-36c13 0 24 7 31 16 1 1 1 3 2 4v1l1 1zm-89-402c0-21 17-37 37-37 19 0 36 16 36 37 0 2-1 5-1 7-4 17-18 28-35 28-20 0-37-16-37-35zm541 644c0 20-16 36-36 36s-36-16-36-36 16-36 36-36 36 16 36 36zm39-476c-20 0-37-17-37-37 0-16 10-29 24-34h1c3-1 7-2 12-2 19 0 35 16 35 36 0 17-10 31-26 35 0 0-1 0-2 1-2 0-5 1-7 1zm133 125c0 10-4 19-10 25-2 2-4 3-5 4-6 4-13 7-21 7-20 0-36-16-36-36 0-3 1-6 1-8v-1c4-16 18-27 35-27 20 0 36 16 36 36zm75 413c0 16-10 30-25 34-3 2-7 2-11 2-20 0-37-16-37-36 0-17 12-31 28-35 3-1 6-1 9-1 20 0 36 16 36 36z"/><path fill="#F45B69" fill-rule="nonzero" d="M22010 16627c0 18-4 37-13 58-8 20-22 41-41 60-19 20-43 36-72 49-29 12-63 18-102 18-29 0-56-2-80-8-24-5-46-14-65-26-20-12-38-27-55-46-14-18-27-37-37-59-11-22-18-45-24-69-5-25-7-51-7-79 0-45 6-85 19-120 13-36 32-66 56-91 25-25 53-45 86-58 32-13 67-20 104-20 45 0 86 9 121 27s62 41 81 67c19 27 28 51 28 75 0 13-5 24-14 34s-20 15-33 15c-14 0-25-3-32-10-8-7-16-19-24-36-15-27-32-48-52-62-20-13-45-20-74-20-46 0-83 18-111 53-27 35-41 85-41 150 0 43 6 79 18 108s30 50 52 65c22 14 48 21 78 21 33 0 60-8 83-24 22-16 39-40 50-71 5-15 11-27 18-36s19-14 34-14c14 0 25 5 35 14s14 21 14 35zM22493 16602c0 31-5 59-14 85-10 26-24 49-42 67-18 19-40 33-66 43-25 10-53 15-85 15s-60-5-85-15-47-24-65-43c-19-19-33-41-42-67s-14-54-14-86c0-31 5-60 14-86 10-26 24-48 42-67 18-18 39-32 65-42s54-15 85-15 60 5 85 15c26 10 48 24 66 43s32 41 42 67c9 26 14 55 14 86zm-104 0c0-43-10-76-28-99-19-24-44-35-75-35-21 0-38 5-54 15-15 11-27 26-35 47-9 20-13 44-13 72 0 27 4 50 12 71 9 20 20 36 36 46 15 11 33 16 54 16 31 0 56-11 75-35 18-24 28-57 28-98zM22920 16609v138c0 22-5 38-15 49s-23 16-39 16-29-5-38-16c-10-11-15-27-15-49v-165c0-26-1-47-3-61-1-14-6-26-14-36-8-9-20-14-37-14-34 0-57 12-68 36-10 23-16 56-16 100v140c0 22-5 38-14 49-10 11-23 16-39 16s-28-5-38-16-15-27-15-49v-297c0-19 4-34 13-44s21-15 35-15c15 0 27 4 36 14 10 9 14 22 14 39v10c18-22 38-37 58-47 21-11 43-16 68-16 27 0 49 5 68 16 19 10 34 26 46 47 18-21 36-37 56-47 20-11 43-16 67-16 28 0 53 6 73 17 21 11 36 27 46 48 9 19 14 48 14 88v203c0 22-5 38-15 49s-23 16-39 16-29-5-39-16-15-27-15-49v-174c0-23-1-40-3-54-2-13-7-25-15-34s-21-14-38-14c-14 0-27 4-39 13-12 8-22 19-29 32-8 18-11 49-11 93zM23359 16449v13c20-25 40-42 61-54 21-11 45-17 72-17 32 0 61 9 88 25s48 41 63 72c16 32 24 69 24 113 0 32-5 61-14 88-9 26-21 49-37 67-15 18-34 32-55 42-22 10-45 14-69 14-30 0-55-5-75-17s-39-30-58-53v156c0 46-16 69-49 69-20 0-33-6-39-18-7-12-10-29-10-52v-447c0-20 5-35 13-45 9-10 21-14 36-14 14 0 26 5 35 15 10 10 14 24 14 43zm204 151c0-28-5-51-13-71-8-19-20-34-35-45-15-10-31-16-49-16-29 0-53 12-72 34-20 23-30 56-30 100 0 41 10 73 30 96 19 23 43 34 72 34 17 0 33-5 48-15s26-25 35-45 14-44 14-72zM24019 16754v-13c-12 15-25 28-39 39-13 11-28 19-45 24-16 5-34 8-55 8-25 0-47-5-67-16-20-10-36-25-47-43-12-22-19-54-19-95v-205c0-21 5-37 14-47s22-15 37-15c16 0 29 5 38 15 10 10 15 26 15 47v166c0 24 2 44 6 60 4 17 11 29 22 39 10 9 24 13 42 13s34-5 50-15c15-10 26-24 34-41 5-15 8-47 8-96v-126c0-21 5-37 15-47 9-10 22-15 37-15 16 0 28 5 38 15 9 10 14 26 14 47v300c0 20-5 35-14 45s-20 14-35 14c-14 0-25-5-35-15-9-10-14-25-14-43zM24226 16400h11v-63c0-16 1-29 2-39 1-9 3-18 7-24 4-8 10-13 18-18 7-4 16-6 25-6 13 0 25 5 36 14 7 7 11 15 13 25 2 9 3 23 3 40v71h38c15 0 26 3 34 10 7 7 11 16 11 27 0 14-5 24-16 29-11 6-27 9-48 9h-19v190c0 17 1 29 2 38s4 16 9 21c5 6 13 8 24 8 6 0 14-1 25-3 10-2 18-3 24-3 8 0 16 3 23 10 6 7 10 15 10 25 0 17-9 29-28 38-18 9-44 13-78 13-33 0-57-5-74-16s-28-26-33-45-8-45-8-77v-199h-13c-15 0-27-4-34-11-8-7-12-16-12-27s4-20 12-27 20-10 36-10zM24758 16754c-25 20-49 34-73 44-23 10-49 14-79 14-26 0-50-5-70-15-20-11-35-25-46-43s-17-38-17-59c0-28 9-52 27-72s43-34 75-40c6-2 23-5 49-11 26-5 48-10 67-14 18-5 39-10 60-16-1-28-6-48-16-61-10-12-30-19-61-19-26 0-46 4-59 11-14 7-25 19-35 33-9 15-16 25-20 29-4 5-12 7-25 7-12 0-22-3-30-11-9-7-13-17-13-29 0-18 7-36 19-53 13-17 33-31 61-42 27-12 61-17 102-17 46 0 82 5 108 16s44 28 55 51 16 54 16 93v119c0 19 3 39 9 61 7 21 10 34 10 40 0 11-5 21-15 29-10 9-21 13-34 13-11 0-21-4-32-14-10-10-21-25-33-44zm-7-150c-15 5-37 11-66 18-29 6-49 10-60 13s-22 9-32 17c-10 9-15 21-15 36 0 16 6 29 18 40 11 11 27 17 46 17 21 0 40-5 57-14s30-20 38-35c10-15 14-41 14-77v-15zM24945 16400h11v-63c0-16 1-29 2-39 0-9 3-18 7-24 4-8 10-13 17-18 8-4 16-6 26-6 13 0 25 5 35 14 8 7 12 15 14 25 2 9 3 23 3 40v71h38c14 0 26 3 33 10 8 7 12 16 12 27 0 14-6 24-17 29-11 6-26 9-47 9h-19v190c0 17 0 29 1 38 2 9 5 16 10 21 5 6 13 8 24 8 6 0 14-1 24-3 11-2 19-3 25-3 8 0 16 3 22 10 7 7 10 15 10 25 0 17-9 29-27 38s-44 13-79 13c-32 0-57-5-73-16-17-11-28-26-33-45s-8-45-8-77v-199h-13c-15 0-27-4-35-11s-12-16-12-27 5-20 13-27 20-10 36-10zM25318 16450v299c0 21-5 37-15 48-9 10-22 15-37 15s-28-5-37-16-14-26-14-47v-296c0-21 5-37 14-47s22-15 37-15 28 5 37 15c10 10 15 25 15 44zm-51-108c-14 0-27-4-37-13s-15-21-15-38c0-14 5-26 15-36 11-9 23-14 37-14 13 0 25 4 36 13 10 9 15 21 15 37s-5 29-15 38-22 13-36 13zM25814 16602c0 31-5 59-14 85-10 26-24 49-42 67-18 19-40 33-66 43-25 10-53 15-85 15s-60-5-85-15-47-24-65-43-33-41-42-67-14-54-14-86c0-31 5-60 14-86 10-26 24-48 42-67 18-18 40-32 65-42 26-10 54-15 85-15s60 5 85 15c26 10 48 24 66 43s32 41 42 67c9 26 14 55 14 86zm-104 0c0-43-10-76-28-99-19-24-44-35-75-35-21 0-38 5-54 15-15 11-27 26-35 47-9 20-13 44-13 72 0 27 4 50 12 71 9 20 20 36 36 46 15 11 33 16 54 16 31 0 56-11 75-35 18-24 28-57 28-98zM25990 16448v12c18-24 38-41 60-53 21-11 46-16 74-16s52 5 74 17c21 12 38 29 48 51 7 13 11 26 14 41 1 15 2 33 2 56v193c0 21-4 37-14 48-9 10-22 15-37 15s-28-5-38-16c-9-11-14-26-14-47v-173c0-34-5-60-14-78-10-18-29-27-57-27-19 0-35 5-51 16-15 11-26 26-33 46-5 15-8 44-8 86v130c0 21-5 37-14 48-10 10-23 15-38 15s-27-5-37-16-14-26-14-47v-299c0-20 4-35 13-45 8-10 20-14 35-14 9 0 17 2 25 6 7 4 13 11 17 19 5 9 7 20 7 32zM26628 16754c-25 20-49 34-73 44-23 10-49 14-78 14-27 0-51-5-71-15-20-11-35-25-46-43s-17-38-17-59c0-28 9-52 27-72s43-34 75-40c6-2 23-5 49-11 26-5 48-10 67-14 18-5 39-10 60-16-1-28-6-48-16-61-10-12-30-19-61-19-26 0-46 4-59 11-14 7-25 19-35 33-9 15-16 25-20 29-4 5-12 7-25 7-12 0-22-3-30-11-9-7-13-17-13-29 0-18 7-36 19-53 13-17 34-31 61-42 27-12 61-17 102-17 46 0 82 5 108 16s44 28 55 51 16 54 16 93v119c0 19 3 39 9 61 7 21 10 34 10 40 0 11-5 21-15 29-10 9-21 13-34 13-11 0-21-4-32-14-10-10-21-25-33-44zm-7-150c-15 5-37 11-66 18-29 6-49 10-60 13s-22 9-32 17c-10 9-15 21-15 36 0 16 6 29 18 40 11 11 27 17 46 17 21 0 40-5 57-14s30-20 38-35c10-15 14-41 14-77v-15zM26829 16749v-450c0-20 4-36 13-47 10-10 22-16 38-16 15 0 28 6 38 16 9 11 14 26 14 47v450c0 21-5 37-15 48-9 10-22 15-37 15s-28-5-37-16c-10-11-14-26-14-47zM21540 17645v-439c0-23 5-40 16-52 10-11 24-17 40-17 17 0 31 6 41 17 11 11 16 29 16 52v439c0 23-5 40-16 51-10 12-24 17-41 17-16 0-30-5-40-17-11-11-16-29-16-51zM21866 17349v12c18-24 38-41 60-53 22-11 47-17 75-17 27 0 51 6 73 18s38 29 48 51c7 12 12 26 14 41s3 33 3 56v193c0 21-5 37-15 47-9 11-21 16-37 16-15 0-28-5-37-16-10-11-15-26-15-47v-173c0-34-5-60-14-78-10-18-28-27-57-27-18 0-35 5-50 16-16 11-27 26-34 46-5 15-8 44-8 86v130c0 21-4 37-14 48-10 10-22 15-38 15-15 0-27-5-37-16-9-11-14-26-14-47v-300c0-19 4-34 13-44s20-15 35-15c9 0 17 3 25 7 7 4 13 11 17 19 5 9 7 19 7 32zM22248 17301h11v-63c0-16 1-29 2-39s3-18 7-24c4-8 10-13 18-18 7-4 16-6 25-6 13 0 25 4 36 14 7 7 11 15 13 25 2 9 3 23 3 40v71h38c15 0 26 3 34 10 7 7 11 16 11 27 0 14-5 24-16 29-11 6-27 9-48 9h-19v190c0 16 0 29 2 38 1 8 4 16 9 21s13 8 24 8c6 0 14-1 25-3 10-2 18-3 24-3 8 0 16 3 23 10 6 7 10 15 10 25 0 17-9 29-28 38-18 9-44 13-78 13-33 0-57-5-74-16s-28-26-33-45-8-45-8-77v-199h-13c-15 0-27-4-35-11-7-7-11-16-11-27s4-20 12-27 20-10 36-10zM22807 17528h-203c1 24 5 44 15 63 9 18 21 31 36 40 16 9 33 14 51 14 13 0 24-2 34-4 10-3 20-8 30-14s19-13 27-20 18-17 31-29c5-5 13-7 23-7 11 0 19 3 26 9 6 6 10 14 10 24s-4 21-11 33c-8 13-19 25-34 36-14 12-33 21-55 29-23 8-49 11-78 11-66 0-118-19-155-57s-56-89-56-154c0-31 5-60 14-86s23-48 40-67 39-33 64-43c26-10 54-15 86-15 40 0 75 8 104 25 29 18 51 40 65 67 15 27 22 55 22 83 0 26-8 43-23 51-15 7-36 11-63 11zm-203-59h188c-2-35-12-62-28-80-17-17-39-26-66-26-26 0-47 9-63 27-17 18-27 44-31 79zM22980 17650v-450c0-20 5-36 14-47 10-10 22-16 38-16 15 0 28 6 38 16 9 11 14 26 14 47v450c0 21-5 37-15 48-10 10-22 15-37 15-16 0-28-5-37-16-10-11-15-26-15-47zM23191 17650v-450c0-20 5-36 14-47 10-10 22-16 38-16 15 0 28 6 38 16 9 11 14 26 14 47v450c0 21-5 37-15 48-10 10-22 15-37 15-16 0-28-5-37-16-10-11-15-26-15-47zM23506 17350v300c0 21-5 37-15 47-10 11-22 16-37 16-16 0-28-5-37-16-10-11-15-26-15-47v-297c0-20 5-36 15-46 9-10 21-16 37-16 15 0 27 6 37 16s15 25 15 43zm-51-107c-15 0-27-4-37-13-11-9-16-21-16-38 0-14 6-26 16-36 11-9 23-14 37-14 13 0 25 4 35 13 11 8 16 21 16 37s-5 29-15 38-22 13-36 13zM23995 17368v301c0 35-4 64-11 89-8 25-19 45-36 62-16 16-37 28-63 36s-59 12-98 12c-36 0-68-6-96-16s-50-22-65-38-23-32-23-49c0-13 5-23 13-31 9-8 19-12 31-12 16 0 29 7 40 20l18 21c6 7 12 12 19 17 8 5 16 9 26 12 11 2 22 3 35 3 27 0 48-4 63-11 15-8 25-18 31-31 6-14 9-28 10-44 1-15 2-39 3-73-16 22-35 39-56 51-20 11-45 17-74 17-35 0-65-9-91-27-26-17-46-42-60-74s-21-69-21-111c0-31 4-59 13-84 8-25 20-46 36-64 16-17 34-30 54-39 21-8 44-13 68-13 29 0 55 6 76 17 22 12 42 29 60 53v-14c0-18 5-32 14-42s20-15 34-15c20 0 33 7 40 20s10 32 10 57zm-301 131c0 42 10 74 28 96 18 21 42 32 71 32 17 0 33-5 49-14 15-9 28-23 37-42 10-18 15-41 15-68 0-42-10-75-28-98-19-24-43-36-74-36-29 0-53 12-71 34-18 23-27 55-27 96zM24370 17528h-203c0 24 5 44 14 63 10 18 22 31 37 40s32 14 51 14c12 0 24-2 34-4 10-3 20-8 30-14 9-6 18-13 26-20s19-17 32-29c5-5 13-7 23-7s19 3 26 9c6 6 9 14 9 24s-3 21-11 33c-7 13-18 25-33 36-15 12-33 21-56 29-22 8-48 11-77 11-67 0-119-19-156-57-36-38-55-89-55-154 0-31 5-60 14-86s22-48 40-67c17-19 39-33 64-43 26-10 54-15 85-15 41 0 76 8 105 25 29 18 50 40 65 67 14 27 22 55 22 83 0 26-8 43-23 51-15 7-36 11-63 11zm-203-59h188c-2-35-12-62-29-80-16-17-38-26-65-26-26 0-47 9-64 27-16 18-27 44-30 79zM24637 17349v12c18-24 38-41 60-53 22-11 47-17 75-17 27 0 51 6 73 18s38 29 48 51c7 12 12 26 14 41s3 33 3 56v193c0 21-5 37-15 47-9 11-21 16-37 16-15 0-28-5-37-16-10-11-15-26-15-47v-173c0-34-5-60-14-78-10-18-28-27-57-27-18 0-35 5-50 16-16 11-27 26-34 46-5 15-8 44-8 86v130c0 21-4 37-14 48-10 10-23 15-38 15s-27-5-37-16c-9-11-14-26-14-47v-300c0-19 4-34 13-44 8-10 20-15 35-15 9 0 17 3 25 7 7 4 13 11 17 19 5 9 7 19 7 32zM25385 17585c0 13-3 27-11 41-8 15-20 29-35 42-16 14-36 24-60 32-24 9-52 13-82 13-64 0-114-19-150-56-36-38-54-88-54-151 0-42 8-80 25-113 16-32 40-58 71-75 32-18 69-27 112-27 27 0 52 4 74 11 22 8 41 19 57 31s28 26 36 40 12 27 12 39c0 13-5 23-14 32-9 8-20 13-33 13-9 0-16-3-22-7s-12-12-19-21c-13-20-26-34-40-44-14-9-31-14-52-14-31 0-56 12-75 36-18 24-28 56-28 98 0 19 3 37 8 54 4 16 11 30 20 41 10 12 21 21 34 27 12 6 27 9 42 9 21 0 39-5 53-15 15-9 28-24 40-44 6-12 13-21 20-27 8-7 17-10 27-10 13 0 24 5 32 14 8 10 12 20 12 31zM25765 17528h-203c0 24 5 44 14 63 10 18 22 31 37 40 16 9 33 14 51 14 12 0 24-2 34-4 10-3 20-8 30-14s18-13 26-20c9-7 19-17 32-29 5-5 13-7 23-7s19 3 26 9c6 6 10 14 10 24s-4 21-12 33c-7 13-18 25-33 36-15 12-33 21-56 29-22 8-48 11-77 11-67 0-118-19-155-57s-56-89-56-154c0-31 5-60 14-86s22-48 40-67c17-19 39-33 64-43 26-10 54-15 85-15 41 0 76 8 105 25 29 18 50 40 65 67 14 27 22 55 22 83 0 26-8 43-23 51-15 7-36 11-63 11zm-203-59h188c-2-35-12-62-28-80-17-17-39-26-66-26-26 0-47 9-64 27-16 18-26 44-30 79z"/></svg>