<?xml version="1.0" encoding="UTF-8"?>
<!DOCTYPE svg PUBLIC "-//W3C//DTD SVG 1.0//EN" "http://www.w3.org/TR/2001/REC-SVG-20010904/DTD/svg10.dtd">
<!-- Creator: CorelDRAW 2017 -->
<svg xmlns="http://www.w3.org/2000/svg" xml:space="preserve" width="356px" height="200px" version="1.0" shape-rendering="geometricPrecision" text-rendering="geometricPrecision" image-rendering="optimizeQuality" fill-rule="evenodd" clip-rule="evenodd"
viewBox="0 0 35600 20025"
 xmlns:xlink="http://www.w3.org/1999/xlink">
 <g id="Layer_x0020_1">
  <metadata id="CorelCorpID_0Corel-Layer"/>
  <g id="_2600254258256">
   <path fill="#E6E7E8" d="M0 0l35600 0 0 20025 -35600 0 0 -20025z"/>
   <path fill="#373435" fill-opacity="0.031373" d="M2082 17547c68,104 112,203 155,312 32,64 49,183 199,183 44,0 107,-14 163,-45 63,-33 111,-83 136,-159l60 -202 146 -72 10 10c-20,77 -25,149 -25,206 0,170 146,234 262,234 68,0 129,-34 129,-95 0,-81 -34,-217 -78,-339 68,-68 136,-136 214,-191l12 6c34,144 53,287 53,381 0,93 -41,196 -75,264 -70,132 -194,238 -344,238 -114,0 -241,-58 -328,-163l-5 0c-82,101 -209,193 -412,193l-63 0c-10,134 -39,229 -83,314 -121,237 -480,404 -818,404 -470,0 -706,-272 -706,-633 0,-223 73,-431 185,-578l92 38c-70,134 -117,262 -117,385 0,338 275,499 592,499 294,0 658,-187 724,-404 -25,-237 -114,-348 -250,-565 41,-72 94,-144 160,-221l12 0 0 0zm5421 -1274c99,62 196,136 291,221 -53,74 -119,142 -201,202 -95,-77 -190,-143 -287,-213 66,-74 131,-146 197,-210l0 0zm51 926c-160,0 -291,105 -291,183 0,168 320,219 703,217 -48,-196 -216,-400 -412,-400zm-359 895c208,0 390,-6 529,-41 155,-39 286,-118 286,-171 0,-15 0,-31 -5,-46 -87,8 -187,8 -274,8 -282,0 -498,-64 -583,-222 -21,-44 -36,-93 -36,-149 0,-152 66,-303 182,-406 97,-85 204,-138 313,-138 197,0 354,158 464,408 60,136 101,293 101,491 0,132 -36,243 -118,326 -153,148 -435,204 -867,204l-196 0 0 0 -51 0c-107,0 -184,-19 -245,-66l-10 0c3,25 5,50 5,72 0,97 -32,221 -97,320 -192,287 -400,410 -580,410 -182,0 -405,-70 -606,-161l36 -70c65,27 155,46 279,46 325,0 752,-314 805,-619 -12,-25 -34,-58 -65,-93 -95,-113 -155,-208 -211,-307 48,-95 92,-171 133,-239l17 -2c139,282 265,445 546,445l44 0 0 0 204 0 0 0zm-1408 299c24,-130 26,-276 26,-413l0 -202c0,-377 -48,-926 -87,-1282 68,-75 163,-161 238,-219l22 6c51,450 63,972 63,1452 0,126 -5,250 -17,340 -7,114 -73,201 -214,332l-31 -14 0 0zm-1449 -596c7,177 94,318 398,318 189,0 349,-50 526,-135 32,-14 49,-33 49,-49 0,-111 -85,-258 -228,-392 -139,-126 -323,-237 -495,-311 -59,-25 -78,-52 -78,-77 0,-51 68,-158 124,-235l19 -2c197,103 417,256 580,427 148,157 240,316 240,489 0,128 -39,250 -102,361 -216,109 -446,192 -674,192 -277,0 -466,-130 -466,-436 0,-33 0,-84 12,-150l95 0 0 0zm-501 -503l172 278c63,103 122,215 122,392l0 227c0,183 -117,379 -306,573 -148,132 -279,188 -400,188 -180,0 -386,-56 -624,-159l27 -70c75,21 162,37 269,37 342,-2 692,-252 852,-557 19,-35 26,-68 26,-90 0,-36 -19,-75 -34,-110 -87,-165 -184,-315 -291,-453 56,-89 112,-174 173,-258l14 2z"/>
   <path fill="#373435" fill-opacity="0.078431" d="M26942 7367l-563 648 28 28 1013 -1166 124 -136 136 -123 147 -111 158 -96 168 -80 176 -65 184 -47 190 -29 196 -10 0 8884 -152 175 152 0 35 -4 33 -10 29 -16 26 -22 -4207 4838 -79 0 -152 0 -325 0 -3508 0 -322 0 -346 0 -487 0 -111 0 -350 0 -10 0 -36 0 -48 0 -103 0 -11 0 -21 0 -21 0 -27 0 -61 0 -6 0 -87 0 -3 0 -60 0 -16 0 -14 0 -33 0 -99 0 -158 0 -115 0 -227 0 -61 0 -15 0 -12 0 0 0 -2 0 -23 0 -98 0 0 0 -103 0 -294 0 -88 0 -76 0 -68 0 -68 0 -38 0 -20 0 -12 0 0 0 -67 0 -14 0 -11 0 -12 0 -1 0 -19 0 -19 0 -66 0 -5 0 0 0 -5 0 -37 0 -151 0 -231 0 -13 0 0 0 -20 0 -108 0 -5 0 -63 0 -15 0 -6 0 -48 0 -35 0 0 0 -65 0 -20 0 -31 0 -12 0 -20 0 -3 0 -43 0 -8 0 -42 0 -16 0 -56 0 -24 0 -10 0 -73 0 -3 0 -5 0 -116 0 -64 0 -45 0 -42 0 -78 0 -9 0 -8 0 -27 0 -30 0 -17 0 -9 0 -8 0 -16 0 -11 0 -41 0 -19 0 -3 0 -69 0 -20 0 -6 0 -145 0 -2 0 0 0 -51 0 -32 0 -144 0 -53 0 -33 0 -124 0 -288 0 -12 0 -147 0 -45 0 -8 0 -18 0 -23 0 -19 0 -114 0 -8 0 -30 0 -12 0 -109 0 -121 0 -99 0 -84 0 -48 0 -96 0 -121 0 -2 0 -88 0 -190 0 -60 0 -46 0 -81 0 -75 0 -71 0 -8 0 -52 0 -80 0 -20 0 -14 0 -38 0 -12 0 -26 0 -40 0 -58 0 -9 0 -27 0 -11 0 -14 0 -45 0 -16 0 -15 0 -106 0 -42 0 -4 0 -50 0 -57 0 -33 0 -84 0 -86 0 -106 0 -13 0 -28 0 -220 0 -7 0 -58 0 -23 0 -30 0 -83 0 -78 0 -2 0 -71 0 -14 0 -2 0 -7 0 -50 0 -11 0 -120 0 -9 0 -23 0 -56 0 -11 0 -15 0 -32 0 -19 0 -41 0 -4 0 -36 0 -6 0 -19 0 -1 0 -40 0 -5 0 -13 0 -4 0 -41 0 -4 0 -105 0 -8 0 -53 0 -3 0 -47 0 -36 0 -7 0 -174 0 -56 0 -231 0 -89 0 -114 0 -59 0 -77 0 -61 0 -17 0 -91 0 -13 0 -126 0 -82 0 -8 0 -148 0 -335 0 -3 0 -275 0 -165 0 -82 0 -189 0 -17 0 -17 0 -15 0 -302 0 -313 0 -90 0 -175 0 -74 0 -12 0 -87 0 -144 0 -146 0 -37 0 -46 0 -73 0 -227 0 -229 0 -49 0 -239 0 -485 0 -3 0 -76 0 -92 0 -108 0 -136 0 -695 0 -450 0 -425 0 -853 0 -133 0 -143 0 0 0 -19 0 -3 0 -17 0 -29 0 -53 0 -77 0 -28 0 -72 0 -108 0 -56 0 -39 0 -43 0 -478 0 -307 0 -45 0 -24 0 -146 0 -44 0 0 -21 0 -41 0 -52 0 -9 0 -297 0 -11 0 -366 0 -719 0 -153 0 -92 0 -72 0 -32 0 -38 0 -51 0 -40 0 -54 0 -44 0 0 0 -37 0 -53 0 -91 0 -27 0 -10 0 -99 0 -38 0 -247 0 -416 0 -15 0 -69 0 -85 0 -267 0 -39 0 -90 0 -210 0 -16 0 -43 0 -320 0 -468 0 -186 0 -41 0 -23 0 -17 0 -12 0 -267 0 -50 9658 -11105 -19 27 -17 29 -13 31 -10 31 -8 32 -5 33 -1 33 2 34 5 33 9 33 12 32 6 14 203 -234 19 -19 23 -16 5 -3 6 -3 6 -2 6 -2 6 -2 7 -1 6 -2 6 -1 35 0 16 3 15 5 14 6 13 8 13 10 12 11 10 12 9 14 544 982 84 -37 86 -36 86 -33 88 -31 88 -29 90 -27 90 -24 92 -21 92 -20 94 -17 94 -14 95 -12 96 -9 96 -7 97 -4 98 -1 98 1 97 4 97 7 95 9 95 12 95 14 93 17 92 20 92 21 91 24 79 24 839 -965 -12 16 -12 18 -11 18 -452 817 -145 167 5 2 793 -912 12 -11 13 -10 13 -8 15 -6 15 -5 15 -3 35 0 7 1 6 2 6 1 6 2 6 2 6 2 6 3 6 3 23 16 18 20 14 22 10 24 5 26 0 26 -6 27 -11 25 -540 974 159 95 153 103 147 111 141 118 134 126 128 132 121 139 113 145 106 151 98 156 89 163 81 167 72 172 64 176 53 181 44 185 6 60 -8 57 -20 53 -30 47 -413 475 200 0 173 -199 29 -12 29 -14 27 -16 26 -18 25 -19 23 -20 22 -22 20 -24 -299 344 4 0 52 5 49 15 44 24 38 32 32 38 24 44 15 49 5 52 0 275 345 -396 -26 33 -25 34 -24 35 -22 36 -20 37 -19 38 -209 240 0 263 549 -632 114 -93 129 -70 144 -45 103 -10 2378 -2734 -141 171 -108 197 -67 218 -5 47 444 -511 -121 146 -90 168 -58 184 -9 87 402 -461 -100 120 -75 138 -47 152 -17 164 5 80 12 79 19 76 27 75 34 71 41 68 47 65 54 59 648 649 210 -240 696 -697 28 -22 30 -16 32 -10 34 -3 33 3 32 10 30 16 28 22 337 337 1507 -1732 -21 26 -16 30 -11 32 -3 36 0 200 174 -200 0 374 174 -200 0 348 1394 0 -152 174 326 0 -151 175 151 0 35 -4 33 -10 29 -16 26 -21 -802 922 156 0 -303 349 8 0 253 13 250 33 245 52 239 69 233 87 226 104 217 121 55 36 145 -168 157 158 455 -523 63 48 63 51 61 51 60 52 59 54 58 55 57 56 55 57 91 -91z"/>
   <g>
    <g>
     <path fill="#6D8946" fill-rule="nonzero" d="M13711 6086c15,-15 24,-36 24,-60 0,-24 -9,-45 -24,-60 -15,-16 -37,-25 -61,-25 -24,0 -45,9 -60,24 -16,16 -25,37 -25,61 0,24 9,45 24,61 16,15 38,24 61,24 24,0 45,-9 61,-25z"/>
     <path fill="#6D8946" fill-rule="nonzero" d="M10529 5966c-16,-16 -37,-25 -61,-25 -24,0 -45,10 -60,25 -16,15 -25,37 -25,60 0,24 9,45 24,61 16,15 37,24 61,24 23,0 45,-9 60,-25 15,-15 25,-36 25,-60 0,-24 -9,-45 -24,-60z"/>
     <path fill="#6D8946" fill-rule="nonzero" d="M8518 7785c61,-61 139,-105 227,-125 -83,-29 -154,-81 -207,-146 -66,-82 -105,-185 -105,-295 0,-30 3,-62 10,-96 110,-523 331,-1006 636,-1422 270,-368 607,-684 992,-931l-443 -798c-46,-83 -54,-177 -29,-262 23,-85 80,-161 164,-207 20,-11 40,-19 61,-26 20,-6 41,-11 62,-14l26 -2 35 0 26 2c53,7 105,27 150,57 43,29 81,69 108,118l453 816c186,-75 380,-134 579,-178 257,-57 523,-87 796,-87 273,0 539,30 796,87 200,44 393,104 580,179l452 -817c28,-50 65,-90 108,-119 45,-30 97,-49 150,-56l26 -2 35 0 26 2c20,3 41,7 61,14l14 0 49 27c83,46 140,122 164,206 18,64 18,134 -3,200l0 13 -470 847c385,247 722,563 992,931 306,416 526,899 636,1422 7,34 11,67 11,96 0,110 -40,213 -106,294 -52,65 -121,115 -201,145 91,18 173,64 237,127 84,85 137,202 137,331l0 92c48,-103 113,-196 193,-275 177,-177 420,-286 688,-286 268,0 511,109 687,285 176,176 285,419 285,688l0 3104c0,268 -109,511 -285,687 -175,176 -419,285 -687,285 -269,0 -512,-109 -688,-285 -80,-79 -145,-172 -193,-275l0 1377c0,129 -53,246 -137,331 -85,85 -202,137 -331,137l-955 0 0 1610c0,268 -109,511 -285,687 -177,177 -420,286 -688,286 -267,0 -510,-109 -687,-285 -177,-177 -286,-420 -286,-688l0 -1610 -651 0 0 1610c0,269 -109,512 -285,688 -176,176 -419,285 -688,285 -267,0 -510,-109 -687,-285 -177,-177 -286,-420 -286,-688l0 -1610 -938 0c-129,0 -247,-52 -331,-137 -85,-85 -137,-202 -137,-331l0 -1377c-49,103 -114,196 -194,275 -175,176 -419,285 -687,285 -269,0 -512,-109 -688,-285 -176,-176 -285,-419 -285,-687l0 -3104c0,-269 109,-512 285,-688 177,-176 420,-285 688,-285 268,0 511,109 687,285 80,79 145,172 194,275l0 -91c0,-129 52,-246 137,-331z"/>
     <g>
      <path fill="#ACC252" fill-rule="nonzero" d="M15285 7857l-6436 0c-143,0 -260,116 -260,259l0 5397c0,143 117,260 260,260l1147 0 0 1818c0,422 342,765 764,765l0 0c422,0 765,-343 765,-765l0 -1818 1068 0 0 1818c0,422 342,765 764,765l0 0c422,0 765,-343 765,-765l0 -1818 1163 0c143,0 259,-117 259,-260l0 -5397c0,-143 -116,-259 -259,-259z"/>
      <path fill="#ACC252" fill-rule="nonzero" d="M7500 7856l0 0c-422,0 -764,342 -764,764l0 3103c0,422 342,765 764,765l0 0c422,0 764,-343 764,-765l0 -3103c0,-422 -342,-764 -764,-764z"/>
      <path fill="#ACC252" fill-rule="nonzero" d="M16634 7856l0 0c-422,0 -764,342 -764,764l0 3103c0,422 342,765 764,765l0 0c422,0 764,-343 764,-765l0 -3103c0,-422 -342,-764 -764,-764z"/>
      <path fill="#ACC252" fill-rule="nonzero" d="M10468 5733c162,0 294,131 294,293 0,162 -132,294 -294,294 -162,0 -294,-132 -294,-294 0,-162 132,-293 294,-293zm3738 -2064l-35 0c-41,6 -80,30 -102,70l-544 981c-446,-207 -942,-322 -1466,-322 -523,0 -1020,115 -1466,322l-544 -982c-22,-39 -60,-63 -102,-69l-35 0c-17,2 -33,8 -48,16 -66,37 -90,120 -54,186l540 974c-860,485 -1494,1324 -1703,2320 -34,162 89,313 254,313l6317 0c164,0 287,-151 253,-313 -208,-996 -843,-1835 -1703,-2320l540 -974c37,-66 13,-149 -53,-186 -16,-8 -32,-14 -49,-16zm-262 2357c0,162 -131,294 -294,294 -162,0 -293,-132 -293,-294 0,-162 131,-293 293,-293 163,0 294,131 294,293z"/>
     </g>
    </g>
    <g>
     <path fill="#EDAC7E" fill-rule="nonzero" d="M20189 12800l8710 0 0 2264 -7665 0 -1045 -2264z"/>
     <path fill="#FEC9A3" fill-rule="nonzero" d="M21408 8967l-2324 -2324c-185,-185 -289,-436 -289,-697 0,-544 441,-985 986,-985 261,0 512,103 696,288l2325 2325 -1394 1393z"/>
     <path fill="#C7CACC" fill-rule="nonzero" d="M25763 7399l1045 -1045 697 697 -1045 1045 -697 -697z"/>
     <path fill="#C7CACC" fill-rule="nonzero" d="M20189 7051l697 -697 1045 1045 -697 697 -1045 -1045z"/>
     <path fill="#D6D9DB" fill-rule="nonzero" d="M22976 5657l1742 0 0 -696 -1742 0 0 696z"/>
     <path fill="#C7CACC" fill-rule="nonzero" d="M23499 6703l696 0 0 -1046 -696 0 0 1046z"/>
     <path fill="#D6D9DB" fill-rule="nonzero" d="M27854 10361c0,2213 -1794,4007 -4007,4007 -2213,0 -4007,-1794 -4007,-4007 0,-2213 1794,-4007 4007,-4007 2213,0 4007,1794 4007,4007z"/>
     <path fill="#529ED1" fill-rule="nonzero" d="M26983 10361c0,1732 -1404,3135 -3136,3135 -1732,0 -3136,-1403 -3136,-3135 0,-1732 1404,-3136 3136,-3136 1732,0 3136,1404 3136,3136z"/>
     <path fill="#5EA9DB" fill-rule="nonzero" d="M26634 10361c0,1539 -1248,2787 -2787,2787 -1539,0 -2787,-1248 -2787,-2787 0,-1539 1248,-2787 2787,-2787 1539,0 2787,1248 2787,2787z"/>
     <path fill="#E8594A" fill-rule="nonzero" d="M24319 10136l1393 -1394 -246 -246 -1394 1393 4 4c-71,-35 -149,-54 -229,-55 -289,0 -523,234 -523,523 1,80 20,158 56,229l-5 -4 -522 523 246 246 523 -523 -4 -4c71,36 149,55 229,55 289,0 523,-233 523,-522 -1,-80 -20,-158 -56,-230l5 5z"/>
     <path fill="#FEC9A3" fill-rule="nonzero" d="M19666 9838l1394 0c481,0 871,390 871,871 0,481 -390,871 -871,871l-1394 0c-481,0 -871,-390 -871,-871 0,-481 390,-871 871,-871z"/>
     <path fill="#FEC9A3" fill-rule="nonzero" d="M19666 11580l1394 0c481,0 871,390 871,871 0,481 -390,871 -871,871l-1394 0c-481,0 -871,-390 -871,-871 0,-481 390,-871 871,-871z"/>
     <path fill="#FEC9A3" fill-rule="nonzero" d="M19666 13322l1394 0c481,0 871,390 871,871 0,481 -390,871 -871,871l-1394 0c-481,0 -871,-390 -871,-871 0,-481 390,-871 871,-871z"/>
     <path fill="#327FB3" fill-rule="nonzero" d="M23673 8445l348 0 0 -697 -348 0 0 697z"/>
     <path fill="#327FB3" fill-rule="nonzero" d="M23673 12974l348 0 0 -697 -348 0 0 697z"/>
     <path fill="#327FB3" fill-rule="nonzero" d="M22390 8185l301 -174 349 603 -302 174 -348 -603z"/>
     <path fill="#327FB3" fill-rule="nonzero" d="M24654 12107l302 -174 348 604 -301 174 -349 -604z"/>
     <path fill="#327FB3" fill-rule="nonzero" d="M21497 9205l174 -302 604 349 -175 302 -603 -349z"/>
     <path fill="#327FB3" fill-rule="nonzero" d="M25419 11470l175 -302 603 349 -174 301 -604 -348z"/>
     <path fill="#327FB3" fill-rule="nonzero" d="M25763 10535l697 0 0 -348 -697 0 0 348z"/>
     <path fill="#327FB3" fill-rule="nonzero" d="M21497 11516l603 -348 175 302 -604 348 -174 -302z"/>
     <path fill="#327FB3" fill-rule="nonzero" d="M25419 9252l604 -348 174 301 -603 349 -175 -302z"/>
     <path fill="#327FB3" fill-rule="nonzero" d="M22390 12537l348 -604 302 175 -349 603 -301 -174z"/>
     <path fill="#327FB3" fill-rule="nonzero" d="M24654 8614l349 -603 301 174 -348 603 -302 -174z"/>
     <path fill="#FEC9A3" fill-rule="nonzero" d="M26983 8096l-175 2787c-1316,987 -2090,2536 -2090,4181l4181 0 0 -8884c-1058,0 -1916,858 -1916,1916z"/>
     <path fill="black" fill-rule="nonzero" d="M28899 6006c-579,0 -1132,242 -1526,666l-441 -441c-68,-68 -179,-68 -247,0l-601 601c-519,-329 -1105,-539 -1714,-616l0 -384 348 0c96,0 174,-78 174,-175l0 -696c0,-97 -78,-175 -174,-175l-1742 0c-96,0 -174,78 -174,175l0 696c0,97 78,175 174,175l348 0 0 386c-438,54 -865,178 -1263,368l-1460 -1459c-218,-217 -512,-340 -820,-341 -640,1 -1159,520 -1160,1161 1,307 123,602 340,820l1357 1356c-298,469 -499,993 -591,1541l-61 0c-461,1 -867,303 -1000,744 -132,441 40,917 424,1172 -293,194 -469,521 -469,871 0,351 176,678 469,871 -384,255 -556,731 -424,1172 133,442 539,744 1000,745l1394 0c41,-1 82,-3 123,-8 16,5 34,8 51,8l7665 0c96,0 174,-79 174,-175l0 -8884c0,-96 -78,-174 -174,-174zm-2914 5388l-391 -226 -174 301 333 192c-193,238 -365,492 -515,760l-282 -488 -302 174 349 603 120 -69c-79,157 -149,316 -212,479 -339,134 -700,202 -1064,202 -642,-1 -1267,-211 -1779,-598 97,-351 2,-727 -250,-990l457 -264 -175 -302 -151 87c199,-322 208,-726 23,-1057 -184,-330 -534,-535 -912,-534l-87 0c289,-1199 1292,-2093 2517,-2243 1224,-150 2413,476 2984,1570 2,5 4,10 6,14 101,196 179,402 234,615l-74 1173c-234,182 -453,383 -655,601zm-3882 2764c462,215 959,342 1467,374 92,6 185,10 277,10 245,0 489,-22 730,-65 -15,137 -24,275 -28,413l-2712 0c172,-191 268,-439 268,-697 0,-11 -1,-23 -2,-35zm2528 -50c-343,72 -693,98 -1042,77 -564,-37 -1113,-200 -1605,-478 -82,-155 -202,-288 -348,-385 110,-73 206,-167 281,-276 563,405 1237,623 1930,625 311,0 621,-45 919,-132 -55,187 -100,377 -135,570l0 -1zm2177 -7508l347 346c-87,132 -158,274 -213,421l-91 91c-147,-154 -306,-296 -476,-424l433 -434zm-3658 -1465l1394 0 0 348 -1394 0 0 -348zm871 697l0 356c-116,-5 -232,-5 -348,0l0 -356 348 0zm-5052 115c1,-448 364,-812 812,-812 215,1 421,86 574,238l1381 1382c-43,25 -84,52 -126,78l-601 -601c-68,-68 -179,-68 -247,0l-696 697c-68,68 -68,178 0,246l545 546c-31,37 -61,74 -91,113l-1312 -1314c-152,-152 -238,-358 -239,-573zm1874 1511l-408 -407 451 -451 433 434c-170,128 -329,270 -476,424zm-158 740c89,-131 187,-256 294,-374 316,-360 697,-657 1124,-874 434,-225 908,-363 1396,-406l3 0c7,0 13,0 20,0 216,-20 434,-20 650,0l16 0c653,58 1281,284 1822,654 264,180 503,392 711,633 32,32 63,70 95,109 -4,50 -8,100 -8,151l-44 708c-654,-1223 -2002,-1909 -3376,-1715 -1374,193 -2481,1223 -2772,2580l-537 0c97,-526 303,-1025 606,-1466zm-1716 2511c0,-385 312,-697 697,-697l1394 0c385,0 697,312 697,697 0,385 -312,697 -697,697l-1394 0c-385,0 -697,-312 -697,-697zm0 1742c0,-385 312,-696 697,-696l1394 0c385,0 697,311 697,696 0,385 -312,697 -697,697l-1394 0c-385,0 -697,-312 -697,-697zm697 2439c-385,0 -697,-312 -697,-697 0,-384 312,-697 697,-697l1394 0c385,0 697,313 697,697 0,385 -312,697 -697,697l-1394 0zm9059 0l-3830 0c57,-1527 798,-2947 2018,-3867 41,-31 66,-78 70,-129l174 -2787c0,-3 0,-7 0,-11 1,-894 678,-1643 1568,-1733l0 8527z"/>
     <path fill="black" fill-rule="nonzero" d="M25466 8496l-1267 1267c-106,-64 -228,-98 -352,-99 -385,0 -697,312 -697,697 1,124 35,245 99,352l-396 396 246 246 396 -396c107,64 228,98 352,99 385,0 697,-312 697,-697 -1,-124 -35,-246 -99,-352l1267 -1267 -246 -246zm-1619 2213c-192,0 -348,-156 -348,-348 0,-193 156,-349 348,-349 192,0 348,156 348,349 0,192 -156,348 -348,348z"/>
     <path fill="black" fill-rule="nonzero" d="M23673 8445l348 0 0 -697 -348 0 0 697z"/>
     <path fill="black" fill-rule="nonzero" d="M23673 12974l348 0 0 -697 -348 0 0 697z"/>
     <path fill="black" fill-rule="nonzero" d="M22390 8185l301 -174 349 603 -302 174 -348 -603z"/>
     <path fill="black" fill-rule="nonzero" d="M21497 9205l174 -302 604 349 -175 302 -603 -349z"/>
     <path fill="black" fill-rule="nonzero" d="M25763 10535l697 0 0 -348 -697 0 0 348z"/>
     <path fill="black" fill-rule="nonzero" d="M25419 9252l604 -349 174 302 -604 349 -174 -302z"/>
     <path fill="black" fill-rule="nonzero" d="M22390 12537l348 -604 302 175 -349 603 -301 -174z"/>
     <path fill="black" fill-rule="nonzero" d="M24654 8614l349 -603 301 174 -348 603 -302 -174z"/>
    </g>
   </g>
  </g>
 </g>
</svg>
