<svg xmlns="http://www.w3.org/2000/svg" xml:space="preserve" width="350" height="200" version="1.0" shape-rendering="geometricPrecision" text-rendering="geometricPrecision" image-rendering="optimizeQuality" fill-rule="evenodd" clip-rule="evenodd" viewBox="0 0 35000 19994"><path fill="#93DFE9" fill-rule="nonzero" d="M35000 19994H0V0h35000v19994z"/><path fill="#373435" fill-opacity=".149" d="M18943 8205l916-1045 89-99 6-5 6-6 5-5 6-6 6-5 5-5 6-6 6-5 3-2 3-3 2-3 3-2 3-2 3-3 3-3 3-2 3-3 3-2 3-2 2-3 3-2 3-3 3-2 3-3 4-3 4-3 4-4 4-3 5-3 4-3 4-4 4-3 2-1 1-1 2-2 2-1 1-1 2-1 1-2 2-1 5-4 5-4 6-3 5-4 5-4 5-4 6-3 5-4 1-1h1l1-1 131-79 138-63 142-45 146-29 148-11 148 5 146 21 144 39h2l1 1h2l1 1h3l4 2 5 2 5 1 5 2 5 2 5 2 5 2 5 1 2 1 3 1 2 1 3 1 2 1 3 1 2 1 3 1 4 2 4 1 4 2 3 1 4 2 4 1 4 2 4 2 3 1 4 2 3 1 4 2 3 1 3 2 4 1 3 2 4 1 3 1 3 2 3 1 3 2 3 1 3 2 4 1 4 2 4 2 4 2 4 2 4 2 4 2 4 2 4 2 3 2 2 1 3 1 2 2 3 1 3 1 2 2 3 1 4 3 5 2 4 2 5 3 4 2 4 3 5 2 4 3 2 1 3 1 2 2 2 1 2 1 3 2 2 1 2 1 5 3 4 3 5 3 5 3 4 2 5 3 4 3 5 3 2 1 2 2 2 1 2 1 2 2 2 1 2 1 2 2h1l214-244 22 150 447-446 32 214 107-108-494 564 29 4M1000 19994H0v-3232L9474 5962l-67 91-56 95-47 100-36 103-12 53 209-239 31-23 44-9 28 4 24 10 21 17 17 22 10 25 3 28-6 30-15 30 2 4 3 3 2 2 2 3 3 2 2 2 3 3 3 2 3 2 3 2 2 2 2 2 3 2 2 3 2 2 3 3 59 53 447-508 3-3 4-3 4-3 3-2 4-3 4-2 5-2 4-2 15-5 15-3h15l15 2 13 4 13 5 12 8 11 8 10 10 8 11 5 10 4 11 3 11 1 11 1 11 1592-1816-79 108-67 114-55 119-43 122-31 125-9 67 552-629h1v-1l2-1 1-1 2-1 2-2 2-1 3-2 2-2 3-2 3-2 3-2 3-2 3-2 3-2 4-2 3-2 3-2 3-1 3-2 3-2 3-1 3-2 1-1h1l1-1h1l1-1h1l1-1h1l1-1h1l1-1 1 1 2 2 4 3 5 3 6 5 7 5 6 5 7 6 4 3 3 3 3 2 3 3 3 3 3 3 3 2 2 2 2 3 2 2 2 1 2 2 1 1 1 1v1h1l1-1h2l3-1 3-1 3-1 4-1 3-2h2l1-1h3l1-1h1l1-1h3l85-98h22l4 1h11l4 1h15l1 1h4l1 1h6l3 1h3l2 1h5v1l1 2v1l1 2 1 3 1 3 1 3 1 3 1 4 1 3 1 4 1 4 1 5 2 4 1 4 2 9 2 9 1 7 1 7 1 6 1 5 1 3v1h2l1 1h3l1 1h2l2 1h1l2 1 2 1h2l2 1 3 1 4 2 3 1 3 1 2 1h2l2 1h1l1 1h2v1h1l1 1h1l2 1 1 1h2l2 1 1 1 2 1 2 1 2 1h1l2 1 2 1 1 1 2 1h1l2 1 1 1h2v1h2v1l1-1 3-1 3-3 5-3 6-5 7-4 7-5 7-4 4-3 4-2 4-2 3-2 4-3 3-2 4-1 3-2 2-1 1-1h1l2-1 1-1h1l1-1h1l1-1h2v-1l1 1 2 1 3 3 4 3 5 4 6 4 6 4 6 5 5 5 6 5 5 5 4 4 4 3 3 3 2 2v3l-1 1v1l-1 1v3l-1 1v2l-1 1v2l-1 3-2 4-1 4-2 4-1 4-2 4-1 4-2 4-3 8-4 8-3 7-3 7-3 5-2 4-1 3-1 1h1v1h1v1l1 1v1h1v1l1 1 1 1 1 2 1 1 1 2 1 1 1 2 1 1 2 2 1 2 1 1 1 2 1 1 1 1 1 2 1 1v1h1v1l1 1v1l1 1v1l1 1 1 2 1 2 2 3 2 3 2 3 1 4 1 1 1 2 1 2 1 1 1 2 1 1v2l1 1 1 2v1l1 1v1l1 1h29l9 1h9l5 1h4l4 1h9l3 1 4 1h7l3 1h2l2 1h5v2l1 2v1l1 2 1 3 1 2v2l1 1v3l1 2 1 1v2l1 2v3l1 2v2l1 2v2l1 1v2l1 4 1 4 1 3v4l1 3 1 4 1 3v3l1 2v7l1 1v2l-82 93v11l-1 1v4l-1 1v6l-1 4-1 3v6l-1 2v2h1l1 1 1 1 2 1 2 2 2 1 3 2 3 2 3 3 3 2 3 2 3 3 3 3 4 3 3 2 7 6 6 6 6 6 6 5 4 4 4 3 2 3h1v1h-1v3l-1 1v2l-1 1v1l-1 1v2l-1 3-1 3-2 3-1 4-1 3-1 4-2 3-1 4-1 3-2 4-1 3-2 3-2 4-1 3-1 2-2 3-1 3-1 2-1 2-1 1v2l-1 1v1l-127 144v2l1 1v1l-817 931 17 24 23 25 859-979 1-1v-1l2-1 1-2 1-1 1-1 1-2 2-1 3-3 3-3 3-4 3-3 4-4 3-4 4-4 3-4 4-4 4-3 4-4 3-3 4-4 4-3 3-3 3-3 3-2 3-2 2-2 2-2 1-2 2-1h2l2 1 2 1 3 1 3 1 4 2 4 1 5 2 4 3 6 2 5 2 5 3 6 3 6 3 5 2 11 6 11 6 10 5v1l149-170 1-1h4l3-1 3-1 3-1h4l4-1 4-1 5-1 5-2 5-1 5-1 5-1h5l6-1 5-1h5l5-1 5-1h5l4-1h6l2-1h6l2-1h6l1 1 2 4 4 6 4 7 5 9 6 10 6 11 6 11 2 6 3 5 3 5 2 6 3 5 2 5 2 4 2 5 2 4 1 3 2 4 1 3 1 2v2l1 1h5l4 1h9l6 1h12l1 1h8l1 1h3l2 1h6v1h3l3 1h4l4 1 5 1 5 1 6 1 5 1 5 1 5 2 4 1 4 1h2l2 1 21-23 4-5 3-4 4-4 5-5 4-4 4-4 9-9 9-8 8-8 8-7 6-6 5-4 4-3 1-1 1 1h2l2 1 2 1 3 1 3 1 4 1 3 2 4 2 5 2 4 2 5 2 4 3 5 2 5 2 2 2 3 1 2 1 2 1 3 1 2 1 2 2 3 1 2 1 2 1 2 1 2 2 2 1 2 1 2 1 1 1 4 2 3 2 2 1 2 2 2 1 2 1h1v1l-1 1v11l-1 4v9l-1 5v6l-1 6-1 6-1 6v6l-1 6-2 13-3 12-2 11-2 9-2 9-1 6-1 4-1 1h1v1h1v1l1 1 2 1 1 1 2 1 1 1 2 1 2 2 2 2 2 1 2 2 2 2 2 2 4 4 4 3 3 3 3 3 3 3 2 2 2 1v1h1v1h1l1 1 1 1 1 1v1h1l1 1 1 2 2 1 1 2 2 2 2 2 1 2 2 2 2 2 2 2 2 2 1 2 2 2 2 2 1 2 2 1 1 2 1 1h1v1l1 1 1 1 1 1v1h1v1h2l4-1 6-2 8-2 10-2 10-2 12-2 13-2 6-1 6-1 6-1 6-1 6-1 5-1h6l5-1h7l2-1h12l-237 270 1 4 6 59-6 59-13 44 208-238v2l1 1v4h1l73-83 13-16-1 2-1 1-3 3-1 1-40 46-40 46v4l1 2v3l1 2 1 3v2l1 3v3l1 2 1 3v3l1 2v2l1 2v3l1 1v5l1 1v7l1 4v4l1 5 1 5v5l1 3v6l1 2v16l1 1v2h1l4 2 6 2 7 3 10 4 10 5 11 5 11 5 6 3 5 3 6 3 5 3 5 3 5 2 4 3 5 3 4 2 3 2 3 2 3 2 2 1 1 1 1 1h1v1l-1 2v11l-1 3v9l-1 2v8l-1 2v5l-1 3v3l-1 2v5l-1 6-1 5-1 5-1 5-1 5-1 5v4l-1 4-1 4-1 3-1 3v2l-1 2v2l-1 1-154 176v1l3 6 6 11 5 11 5 10 4 10 4 8 2 6 2 4 1 1v1h-1l-1 1v1h-1v1l-550 627 8-1 125-31 122-43 119-55 114-67 108-79 101-92 92-101-2667 3040-13 89 4029-4592-110 149-94 158-76 164-59 169-42 173-26 176-8 175 775-883 90-99 98-89 108-81 114-69 122-59 127-47 134-34 137-21 142-8 142 8 138 21 133 34 127 47 122 58 114 70 107 79 99 90 90 99 8 10 1336-1523-62 85-53 89-43 94-34 96-24 98-14 100-5 101 5 101 14 100 24 98 34 97 43 93 4 7 269-307 5-5 4-4 5-4 11-9 8-6 6-5 5-3 5-4 7-4 10-6 13-8 6-4 8-3 8-4 9-4 4-1 301-343 32-30 35-22 37-16 7-1 307-350 13-11 14-8 14-3 13 1 12 3 10 5 9 7 6 8 5 9 3 10 1 11-1 11-2 10-5 8-5 8-7 9-7 11-7 13-7 16-8 21-5 23-4 24-3 25v15l86-99 267 266 5-3 5-4 4-4 6-3 5-3 6-2 7-2h7l12 1 10 3 10 4 8 7 7 7 5 9 3 9 2 10-1 12-2 10-3 8-4 7-5 7-1022 1165 68 24 99 24 100 14 101 5 101-5 100-14 98-24 96-34 94-43 89-53 85-62 80-73 72-79-4630 5278h555l2611-2977-116 158-99 167-80 173-63 179-45 184-27 186-9 187 9 188 4 23 11 78 947-1080 86-95-1033 1177 12 83 21 84 1025-1168 75-84-1100 1254 9 37 1243-1418h1l1-1h1l1-1 109-66 116-52 120-38 123-25 124-10 126 3 124 18 122 31-945 1078 8 85 34 113 11 22 375-427-32 39-23 43-14 46-4 48 4 48 14 46 23 43 6 8 160-181-10 11-7 14-4 14-2 14 2 15 4 14 7 13 10 12 9 8 324-369 14 17 230-262 14 18 230-262 9 10 130-149 61 66 2 2 2 3 559-559-526 600 19 22 50 72 45 74 40 76 34 78 29 80 23 81h1l11 47 10 48 7 48 6 48 4 48 2 48v48l-1 48v4l-1 1v14l-1 6v10l-1 6v5l-1 5v9l-1 3v6l-1 2v9l-1 2v6l-1 2v6l-13 83-18 83-24 81-29 80-34 79-40 76-45 74-51 72-2 2-1 3-2 2-2 2-2 2-2 3-1 2-2 2-2 3-3 3-2 3-3 3-2 3-2 3-3 3-2 3-817 932 775-884-2 2-773 882 785-895-1 2-784 893h619v48l126-59 167-99 158-116 149-134 134-149-734 837v401l3179-3623 70-78-3249 3704v801l1092-1245-101 137-85 145-70 151-55 155-39 159-23 162-8 163 8 163 11 74 1234-1406 5-5 9-3 12-1 10 13 14 22 18 30 19 34 20 35 17 32 13 26 9 17 17-5 17-6 17-6 17-6 17-5 17-6 19-6 20-5 38-7 40-5 41-3 42-1 42 1 41 3 40 6 38 7 19 5 18 6 18 5 17 6 16 6 158-180 9-9 10-4 11 3 7 7 2 11-3 13-6 16-9 16-10 17-11 18-9 17-7 13-8 14-9 14-8 15-8 14-8 15-7 13-6 13 20 12 19 11 17 10 16 11 15 11 16 11 15 13 17 14 45 44 42 48 37 53 32 56 25 59 19 64 12 67 4 70-48 55h48l2 48 1 85 105-119 23-18 29-13 35-7 32-1 31 6 29 12 24 17 21 21 17 25 11 28 6 30 2 43 1 70 1 89-1 98v101l-1 94-1 79v57l-12 82-34 56-646 737-1 2-365 417h1l163-8 162-23 159-39 156-55 150-70 145-85 138-101 129-117 116-129-3330 3796-7 16-15 19-816 931h1786l-280 319h140l28-3 26-8 24-13 21-17-2443 2785H1000zM13807 4939l-233 265 233-265zm49 112h-1m-42-112l1 1 1 3 3 5 4 6 4 8 5 8 5 9 5 9 5 10 4 9 4 9 4 8 3 6 2 5 2 4v1l-1 1m7182 4696l854-974-854 974m821-932l-4 5-4 5-4 4-4 5-4 4-6 8"/><path fill="#445964" fill-rule="nonzero" d="M22135 15146h-8962V9640c0-214 173-387 387-387h8188c213 0 387 173 387 387v5506z"/><path fill="#77909C" fill-rule="nonzero" d="M22135 15146h-8962l-880 1785h10722l-880-1785z"/><path fill="#B1DFDB" fill-rule="nonzero" d="M21669 14726h-8030V9737h8030v4989z"/><path fill="#fff" fill-rule="nonzero" fill-opacity=".4" d="M21669 14726h-8030v-379h8030v379z"/><path fill="#445964" fill-rule="nonzero" d="M22875 17250H12433c-77 0-140-63-140-140v-179h10722v179c0 77-63 140-140 140z"/><path fill="#fff" fill-rule="nonzero" d="M17764 9506c0 61-49 110-110 110s-110-49-110-110 49-110 110-110 110 49 110 110z"/><path fill="#CFD8DB" fill-rule="nonzero" d="M18568 16666l-70-434c-6-35-36-60-71-60h-1547c-35 0-64 25-70 60l-70 434c-7 43 26 83 70 83h1688c44 0 77-40 70-83z"/><path fill="#546E79" fill-rule="nonzero" d="M19095 15501h-2882v-355h2882v355z"/><path fill="#CFD8DB" fill-rule="nonzero" d="M22064 15885l-253-501c-17-33-51-54-88-54h-8138c-37 0-72 21-89 54l-252 501c-33 66 14 144 88 144h8643c74 0 122-78 89-144z"/><g fill="#fff" fill-rule="nonzero"><path d="M21500 17090c0 37-29 66-66 66-36 0-66-29-66-66 0-36 30-66 66-66 37 0 66 30 66 66zM21749 17090c0 37-29 66-66 66-36 0-66-29-66-66 0-36 30-66 66-66 37 0 66 30 66 66zM21999 17090c0 37-30 66-66 66-37 0-66-29-66-66 0-36 29-66 66-66 36 0 66 30 66 66z"/></g><path fill="#fff" fill-rule="nonzero" fill-opacity=".102" d="M22135 15146V9640c0-214-174-387-387-387h-6144l5894 5893h637z"/><path fill="#F9F9F9" fill-rule="nonzero" fill-opacity=".4" d="M21359 11478h-6922v-1361h6922v1361z"/><path fill="#fff" fill-rule="nonzero" d="M20832 12382c0 361-293 653-653 653s-653-292-653-653c0-360 293-652 653-652s653 292 653 652z"/><path fill="#FFA726" fill-rule="nonzero" d="M20474 12721l-70-141c-9-18-31-26-49-17-47 24-103 5-126-41l-126-251c-23-46-4-102 42-126 18-8 25-30 16-48l-71-141c-11-23-39-32-62-21l-74 37c-67 34-95 117-61 184l303 603c34 68 116 95 184 61l74-37c23-12 32-39 20-62z"/><path fill="#fff" fill-rule="nonzero" d="M17465 12382c0 361-292 653-653 653-360 0-652-292-652-653 0-360 292-652 652-652 361 0 653 292 653 652z"/><path fill="#4BAF50" fill-rule="nonzero" d="M16812 11988c-202 0-365 143-365 318 0 176 163 318 365 318 25 0 51 2 74-6 130-46 32 207 32 207s154-156 222-317c27-64 38-134 38-202 0-175-164-318-366-318zm-161 401c-31 0-55-25-55-55 0-31 24-55 55-55 30 0 55 24 55 55 0 30-25 55-55 55zm161 0c-30 0-55-25-55-55 0-31 25-55 55-55 31 0 56 24 56 55 0 30-25 55-56 55zm162 0c-30 0-55-25-55-55 0-31 25-55 55-55s55 24 55 55c0 30-25 55-55 55z"/><path fill="#fff" fill-rule="nonzero" d="M15781 12382c0 361-292 653-652 653-361 0-653-292-653-653 0-360 292-652 653-652 360 0 652 292 652 652zM19148 12382c0 361-292 653-652 653-361 0-653-292-653-653 0-360 292-652 653-652 360 0 652 292 652 652z"/><path fill="#26C6DA" fill-rule="nonzero" d="M18519 12104c-13-13-34-13-47 0l-250 252c-6 7-9 15-9 24v363c0 19 15 34 33 34h88c19 0 34-15 34-34v-147c0-18 15-33 33-33h189c19 0 34 15 34 33v147c0 19 15 34 33 34h88c18 0 33-15 33-34v-363c0-9-3-17-9-24l-250-252z"/><path fill="#26C6DA" fill-rule="nonzero" d="M18837 12355c-6 0-13-3-17-7l-326-326-322 323c-10 9-25 9-35 0-9-10-9-25 0-35l340-339c10-10 25-10 34 0l343 342c10 9 10 25 0 35-5 4-11 7-17 7z"/><path fill="#26C6DA" fill-rule="nonzero" d="M18698 12216c-14 0-25-11-25-25v-203c0-14 11-25 25-25 13 0 24 11 24 25v203c0 14-11 25-24 25z"/><path fill="#fff" fill-rule="nonzero" fill-opacity=".569" d="M14437 13484c-22 0-39-18-39-40s17-40 39-40h6922c22 0 40 18 40 40s-18 40-40 40h-6922zM14437 13763c-22 0-39-18-39-40s17-40 39-40h6922c22 0 40 18 40 40s-18 40-40 40h-6922zM14437 14042c-22 0-39-18-39-40s17-40 39-40h2728c22 0 40 18 40 40s-18 40-40 40h-2728z"/><path fill="#fff" fill-rule="nonzero" d="M13913 4040c522 522 522 1367 0 1889-521 522-1367 522-1889 0-521-522-521-1367 0-1889 522-522 1368-522 1889 0z"/><path fill="#26C6DA" fill-rule="nonzero" d="M12674 4910c7-4 15-9 24-14s17-11 23-16c7-4 11-7 11-7s-1-6-3-15c-1-9-4-21-6-32-6-24-14-45-14-45l5-5 10-10c7-8 14-15 14-15s6-9 13-17c3-4 6-8 8-11 3-3 4-6 4-6s22 4 46 6c12 1 25 2 34 2h15s2-5 5-12 8-16 12-25c3-10 7-19 10-27 1-3 2-6 3-8 0-2 1-4 1-4s-18-17-36-33c-9-7-18-14-25-20-7-5-12-8-12-8s2-10 3-21c1-2 1-5 1-7 1-3 1-5 1-7v-6s1-11 1-21v-21s5-3 13-7 19-9 28-16c20-12 40-27 40-27s-1-5-2-12c-1-8-4-18-6-28-1-5-2-10-3-14-2-5-3-9-4-13-3-7-4-12-4-12s-6-1-15-2-21-3-33-4c-24-1-47-1-47-1l-3-6c-1-3-4-8-7-12l-10-18s0-1-1-2c0-1-1-2-2-4-3-3-5-7-9-12-2-4-5-8-8-11-1-2-2-3-3-4 0-1-1-1-1-1s11-21 20-43c5-11 9-22 12-31 1-5 2-8 3-11 1-2 1-4 1-4s-15-13-29-27c-16-13-33-25-33-25s-1 1-3 2c-3 1-6 3-10 5-8 4-19 10-29 17-20 12-39 26-39 26l-1-1c-1-1-3-1-4-2-4-2-8-4-13-6-5-3-10-5-13-6-2-1-3-2-4-2-1-1-2-1-2-1s-10-3-19-7c-5-2-10-4-14-5s-6-1-6-1-4-23-9-47c-3-12-7-23-9-31l-5-15s-5 0-13-2c-3 0-8-1-12-2h-15c-11-1-21-2-28-2h-13s-11 22-20 44c-5 10-9 22-11 30-3 9-5 14-5 14s-10 2-21 3c-10 3-20 5-20 5s-2 0-6 1c-2 1-4 1-7 2-2 1-4 1-7 2-10 4-20 7-20 7s-4-4-10-11c-6-6-15-14-24-21-18-16-38-30-38-30s-1 1-3 2-5 2-8 4c-7 4-16 9-25 14s-17 12-23 16-10 7-10 7 1 6 2 15c2 9 4 21 7 33 6 23 13 45 13 45s-2 1-4 4l-10 10c-7 8-14 15-14 15s-7 9-13 17c-3 4-6 8-9 11l-3 6s-23-4-47-6c-12-1-24-1-33-2-9 1-15 1-15 1s-2 4-6 11c-3 7-8 16-11 26-4 9-7 19-10 26-1 3-2 6-3 8-1 3-1 4-1 4s17 18 36 33c9 7 18 15 25 20s12 8 12 8-2 11-3 21c-1 2-1 5-2 7v7c0 4-1 7-1 7s0 10-1 20c0 11 1 21 1 21s-5 3-13 7-19 10-29 16c-20 12-39 27-39 27s1 5 1 13c2 7 4 17 7 27 1 5 2 10 3 14 1 5 3 9 4 13 2 7 4 12 4 12s6 1 15 2c9 2 20 3 33 4 24 2 47 1 47 1s1 2 2 6c2 4 5 8 7 13l10 18s1 0 1 1c1 1 2 3 3 4 2 3 5 8 8 12s6 8 8 12c2 1 2 2 3 3s1 2 1 2-10 20-19 42c-5 11-9 23-12 31-2 5-3 8-3 11l-2 4s15 14 30 27c16 13 32 25 32 25s2 0 4-2l10-5c8-4 18-10 28-16 21-13 39-27 39-27s1 1 2 1c1 1 2 1 4 2 3 2 8 4 13 6 4 3 9 5 13 7 1 1 3 1 4 2h2s9 4 19 7c5 2 10 4 14 5 3 1 6 1 6 1s3 23 9 47c3 12 6 23 9 31l5 15s5 1 12 2c4 0 8 1 13 2 5 0 10 0 15 1 10 0 20 1 28 1h13s11-22 20-44c4-10 8-22 11-30 3-9 5-14 5-14s10-2 20-3c10-2 20-5 20-5s3 0 7-1c2-1 4-1 6-2s5-1 7-2c10-3 20-7 20-7s4 5 11 11c6 6 14 14 24 21 18 16 38 30 38 30s1 0 3-2c2-1 5-2 8-4zm-150-121c-2 1-5 1-8 2-4 1-7 1-11 2-4 0-9 1-13 1-5 1-10 1-15 1s-10 1-16 1c-5-1-10-1-16-1-11 0-21-3-31-4-5-1-10-3-15-4l-12-3c-8-2-14-5-19-6-4-2-7-3-7-3s-2 0-7-3c-4-2-10-5-17-8-7-4-15-9-24-15-8-5-17-12-25-19s-17-14-23-22c-7-8-14-14-18-21-5-6-9-12-12-16-3-3-4-6-4-6l-3-6c-2-5-6-10-10-18-1-3-3-7-5-12-2-4-4-8-6-13-2-10-7-20-9-31l-3-15c-1-6-2-11-2-16-1-5-2-10-2-14 0-5 0-9-1-13v-12c0-3 1-6 1-8v-7s0-3 1-8c0-5 1-11 2-19 3-16 9-37 17-57 1-5 4-10 7-15 2-5 4-9 6-14 6-9 11-17 15-24 10-12 16-21 16-21s8-8 19-20c6-5 13-12 21-18 4-3 8-6 13-9 4-3 8-7 13-9 18-11 38-21 53-26 8-2 14-5 19-6s7-1 7-1 3-1 8-2c2-1 5-1 8-2s7-1 11-2c4 0 8-1 13-1 5-1 10-1 15-1s10 0 15-1c6 1 11 1 16 1 11 0 22 3 32 4 5 1 10 3 14 4 5 1 9 2 13 3 8 2 14 5 18 6 5 2 7 3 7 3s3 1 7 3 10 5 18 8c7 4 15 10 23 15 9 5 17 12 26 19 8 7 16 14 23 22s13 14 18 21 9 12 11 16c3 4 4 6 4 6s2 3 4 7 6 9 9 17c2 3 4 7 6 12 1 4 4 8 5 13 3 10 8 20 9 31 2 5 3 10 4 15 1 6 1 11 2 16s2 10 2 14v14c0 4 1 7 1 11-1 3-1 6-1 8 0 5-1 8-1 8v7c0 5-2 12-3 20-2 16-8 37-16 57-2 5-5 9-7 14s-4 10-7 14c-5 9-10 17-14 24-10 13-17 21-17 21s-7 8-18 20c-6 6-14 12-21 19-4 3-9 5-13 8s-8 7-13 10c-19 11-38 20-54 25-8 2-14 5-18 6-5 1-8 2-8 2s-2 0-7 1z"/><path fill="#EF5250" fill-rule="nonzero" d="M13351 5889c10-1 24-3 39-5 14-2 27-6 38-8 10-2 17-4 17-4l5-20c3-13 6-30 9-46 5-33 7-66 7-66s3-1 8-3 12-5 18-8c14-6 27-12 27-12s13-7 25-15c6-3 13-7 18-10 4-3 7-5 7-5s27 17 57 32c15 8 31 15 43 20 11 5 19 8 19 8s6-5 14-12c7-7 19-16 28-26 10-11 20-21 27-29 4-4 7-7 9-10 2-2 3-4 3-4s-13-32-29-61c-7-15-15-29-22-40-6-10-11-17-11-17s8-13 16-25c1-3 3-6 5-9s3-6 4-9c3-5 4-8 4-8s7-13 13-26c5-14 10-27 10-27s9-1 21-2 30-3 45-6c33-5 66-14 66-14s2-7 5-17c2-10 4-25 7-39 1-7 2-14 3-20 0-7 1-13 1-19 1-10 2-17 2-17s-8-5-18-11c-11-7-25-15-41-23-30-15-60-26-60-26s-1-4-1-10c0-5-1-12-2-20-1-14-3-28-3-28s0-1-1-3c0-2 0-4-1-6-1-6-2-13-4-20s-3-14-5-19c0-3-1-5-1-7l-1-2s25-21 48-45c12-12 24-24 32-34 5-5 8-9 10-12l4-4-24-52c-14-25-28-49-28-49h-6c-4 0-9 1-15 1-13 2-30 4-46 7-34 5-65 13-65 13s0-1-1-2l-5-5c-3-4-8-10-13-15s-10-11-13-15l-5-5c-1-1-2-1-2-1s-11-10-21-20c-6-5-11-10-15-13-5-4-8-6-8-6s8-31 14-65c2-17 4-33 5-46 1-12 2-21 2-21s-7-3-16-9c-4-3-10-6-15-9-6-3-13-6-19-10-13-6-26-12-35-17-10-3-17-6-17-6s-27 22-50 46c-11 11-23 24-31 33-8 10-13 16-13 16s-14-4-28-7c-15-3-29-5-29-5s-4-1-9-2c-3 0-6-1-9-1-4 0-7-1-11-1-14-1-29-2-29-2s-3-8-8-19-12-26-19-41c-15-30-34-59-34-59h-5c-3 1-8 1-13 2-10 1-25 3-39 5-14 1-28 5-38 8-11 2-18 4-18 4l-5 20c-2 12-6 29-8 46-5 33-7 66-7 66s-3 1-8 3-12 5-19 8l-26 12s-13 7-25 15c-7 3-13 7-18 10-4 2-7 5-7 5s-28-18-58-33c-15-7-30-15-42-20-12-4-20-7-20-7s-5 4-13 11c-8 8-19 17-29 27-9 11-19 21-26 29-4 4-7 7-9 10l-3 3s13 33 28 62c8 15 16 29 22 40 7 10 11 17 11 17s-7 13-15 25l-6 9c-1 3-2 6-4 9-2 5-4 8-4 8l-12 26c-6 14-11 27-11 27s-8 1-20 2c-13 1-30 3-46 6-32 5-66 14-66 14s-1 7-4 17c-2 10-4 24-7 39-1 6-2 14-3 20-1 7-1 13-2 18 0 11-1 18-1 18s7 5 18 11c11 7 25 15 41 22 30 16 60 27 60 27v9c0 6 1 13 2 20 2 15 4 29 4 29v3c0 1 1 4 1 6 2 6 3 13 5 20 1 7 3 14 4 19 1 3 1 5 2 7v2s-24 21-48 45c-12 12-23 24-32 34-4 5-7 9-10 12-2 2-3 4-3 4s12 26 23 52c15 25 29 49 29 49h6c3 0 8-1 15-1 13-2 30-4 46-7 33-5 65-13 65-13s0 1 1 2 3 3 4 5c4 4 9 9 14 15 5 5 9 11 13 15 2 2 3 4 5 5 1 1 2 1 2 1s10 10 21 20c5 5 11 10 15 13 5 3 7 6 7 6s-8 31-13 65c-3 17-4 33-5 46-1 12-2 21-2 21s6 3 15 9c5 3 10 6 16 9s12 6 19 10c13 6 25 12 35 17 10 3 17 6 17 6s26-22 50-46c11-11 22-24 31-33 7-10 13-16 13-16s14 4 28 7 29 5 29 5 3 1 9 2c2 0 6 1 9 1s7 1 11 1c14 1 29 2 29 2s3 8 8 19c4 11 11 26 19 41 15 30 34 59 34 59h5c3-1 7-1 13-2zm-130-237c-4 0-7-1-12-2s-10-2-15-4c-6-1-12-3-18-4-6-2-12-5-19-7-7-3-14-5-21-8s-13-7-20-10c-14-6-27-15-39-22-6-4-11-8-17-12-5-4-10-8-14-11-9-7-16-14-21-18-5-5-8-7-8-7s-3-3-7-8-10-12-18-20c-8-9-15-20-23-32-8-11-15-25-23-38-6-14-13-28-18-41-4-14-9-26-12-37s-5-20-6-27c-2-6-2-10-2-10s0-4-1-10c-1-7-3-16-3-28 0-5 0-11-1-18 0-6-1-13 0-20 2-15 1-30 5-45 1-7 2-15 4-22 1-7 3-15 5-21 2-7 3-14 6-20 2-6 4-12 7-17 2-6 3-11 5-15s4-8 5-11c3-6 5-9 5-9s2-4 4-10c3-6 9-13 15-23 11-20 30-43 51-65 5-6 11-11 17-16 5-5 11-10 16-14 12-9 22-16 32-23 20-11 33-19 33-19s14-6 34-16c11-3 24-8 37-12 7-2 14-3 22-5 7-2 14-4 22-5 30-4 60-6 83-4 11 1 21 1 27 2 7 1 11 2 11 2s3 1 10 2c3 0 7 1 12 2 4 1 9 2 15 4 5 1 11 3 18 4 6 2 12 5 19 7 7 3 14 5 21 8 6 3 13 7 20 10 14 6 26 15 39 22 6 3 11 8 16 12 6 4 10 8 15 11 9 7 15 14 20 18 5 5 8 7 8 7s3 2 7 8c5 5 11 12 19 20 7 9 14 20 23 31 8 12 15 26 23 39 6 14 13 27 18 41 4 13 9 26 12 37 2 11 4 20 6 27 2 6 2 10 2 10s0 4 1 10c0 7 2 16 3 27v19c0 6 1 13 0 20-1 14-1 30-4 45-1 7-3 15-4 22l-6 21c-2 7-3 14-5 20-3 6-5 12-7 17-2 6-3 11-5 15s-4 8-6 11c-2 6-4 9-4 9s-2 3-5 9-8 14-14 24c-11 20-31 43-52 65-4 6-11 10-16 16-6 4-11 10-16 14-12 8-23 16-32 23-20 11-33 19-33 19s-14 6-35 16c-10 3-23 8-37 12-6 2-14 3-21 5s-14 4-22 5c-30 4-60 6-83 4-11-1-21-1-28-2-6-1-10-2-10-2s-4-1-10-2z"/><path fill="#EF5250" fill-rule="nonzero" d="M13583 5272c0 162-131 293-293 293s-293-131-293-293 131-293 293-293 293 131 293 293z"/><path fill="#26C6DA" fill-rule="nonzero" d="M12658 4520c0 106-86 193-192 193s-193-87-193-193 87-192 193-192 192 86 192 192z"/><path fill="#fff" fill-rule="nonzero" d="M22269 6611c763 764 763 2002 0 2766-764 764-2002 764-2766 0-763-764-763-2002 0-2766 764-763 2002-763 2766 0z"/><path fill="#fff" fill-rule="nonzero" d="M21753 8875c-488 488-1279 488-1766 0-488-488-488-1279 0-1767 487-487 1278-487 1766 0 488 488 488 1279 0 1767z"/><path fill="#EF5250" fill-rule="nonzero" d="M21540 7306c-372-372-976-372-1347 0-372 371-372 975 0 1347 371 371 975 371 1347 0 371-372 371-976 0-1347zm-1209 1208c-295-295-295-775 0-1070s775-295 1070 0 295 775 0 1070-775 295-1070 0z"/><path fill="#EF5250" fill-rule="nonzero" d="M21295 7550c-236-237-622-237-858 0-237 236-237 622 0 858 236 237 622 237 858 0 237-236 237-622 0-858zm-720 720c-160-161-160-421 0-582 161-160 421-160 582 1 160 160 160 420 0 581-161 160-421 160-582 0z"/><path fill="#EF5250" fill-rule="nonzero" d="M21823 8855c4-4 8-9 12-13 11-12 21-24 32-37 6-8 13-16 19-24 5-6 9-12 14-18 142-188 227-405 254-628 0-8 1-15 2-22s2-15 2-23c2-14 2-28 3-43 0-2 1-5 1-8 6-127-6-257-39-383h-1c-55-218-168-424-338-595-45-44-92-85-142-122-1-1-3-3-5-4-5-4-10-7-15-11-12-9-25-17-37-25-5-4-11-7-16-11-12-8-25-15-37-23-6-3-12-7-18-10-12-7-23-13-35-20-7-4-14-7-21-11-11-5-22-11-32-16-9-4-17-8-26-11l-27-12c-10-5-21-9-31-13-7-3-14-5-20-8-13-5-26-9-39-14-3-1-6-1-9-2-379-125-804-71-1143 162-1 0-2 1-3 2l-42 30c-4 3-9 7-13 10-11 9-22 17-33 26-8 7-15 13-23 20s-15 13-23 20c-16 14-31 28-46 43-506 506-506 1330 0 1836s1330 506 1836 0c13-14 27-28 39-42zm-1736-97c-429-429-429-1128 0-1558 13-12 26-25 39-36 6-6 13-12 19-18 7-5 13-11 20-16 9-8 18-15 28-22 4-3 7-6 11-9 12-9 23-17 35-26 1 0 3-1 4-2 283-194 643-242 964-139 5 2 10 3 14 5 10 3 19 6 28 10 8 2 15 5 23 8l21 9c10 4 19 8 28 12 6 3 12 6 18 8 10 5 21 11 31 16 5 2 10 5 15 7 11 6 22 13 33 19 4 2 8 5 12 7 12 7 23 14 35 21 3 3 7 5 10 7 12 8 23 16 35 24 3 3 6 5 10 7 43 33 85 69 125 108 228 228 335 531 321 830 0 3 0 5-1 7 0 12-1 24-2 36-1 7-1 13-2 20-1 6-1 11-2 17-23 193-97 378-215 534-4 5-8 11-12 16-6 7-11 14-17 21-9 10-17 20-26 30-4 4-7 8-10 11-11 12-22 24-34 36-430 429-1128 429-1558 0z"/><path fill="#EF5250" fill-rule="nonzero" d="M21042 8155c-97 98-255 98-352 0-98-97-98-255 0-352 97-98 255-98 352 0 98 97 98 255 0 352z"/><path fill="#26C6DA" fill-rule="nonzero" d="M22301 6573l364 54-447 447-364-54 447-447z"/><path fill="#26C6DA" fill-rule="nonzero" d="M22246 6209l55 364-447 447-54-365 446-446z"/><path fill="#26C6DA" fill-rule="nonzero" d="M22068 7051l-214-31 447-447 214 32-447 446z"/><path fill="#26C6DA" fill-rule="nonzero" d="M22269 6359l32 214-447 447-32-214 447-447z"/><path fill="#445964" fill-rule="nonzero" d="M22408 6465c-30-29-78-29-107 0l-1477 1478c-30 29-30 77 0 107 29 30 77 30 107 0l1477-1477c30-30 30-78 0-108z"/><path fill="#fff" fill-rule="nonzero" fill-opacity=".102" d="M22408 6465l-1584 1585c-30-30-30-78 0-107l1477-1478c29-29 77-29 107 0z"/><path fill="#fff" fill-rule="nonzero" d="M25281 9896c663 663 663 1739 0 2402-664 664-1740 664-2403 0-663-663-663-1739 0-2402 663-664 1739-664 2403 0z"/><g fill="#81CC19"><path d="M23392 11778c-1 58 48 106 83 125 54 32 125 21 192 22v323c0 100 58 172 153 173 96 1 156-72 156-169v-327h206v323c0 232 309 230 310 4v-327c64-1 138 9 189-20 35-19 87-71 85-127v-1017h-1374v1017zM24377 10339c77-28 107 85 41 108-77 25-105-84-41-108zm-637 0c77-28 107 85 41 108-77 25-105-84-41-108zm0-191c-94 54-182 120-242 212-59 91-111 203-109 342h1380c0-192-89-349-216-461-45-40-78-60-135-93 13-33 43-77 61-111 23-44 67-100 39-115-29-16-49 45-76 91-20 35-47 80-62 115-45-12-86-31-138-44-98-23-224-23-322-1-55 13-94 32-141 45-14-30-102-193-120-209-38 1-33 23-19 48 24 43 87 148 100 181zM24964 10733c-100 13-137 85-137 180 0 116-6 557 1 632 16 178 309 210 308-43 0-114 6-558-1-631-7-81-81-150-171-138zM23155 10733c-95 17-133 79-133 184 0 107-5 567 1 631 15 138 192 187 277 76 25-32 32-76 31-126 0-56 4-593-1-633-10-78-84-147-175-132z"/><path d="M23392 11778v-1017h1374v1017c8-16 5-40 5-58-1-146 5-919-2-963l-1380-1c-6 40-3 841-2 990l5 32z"/></g><path fill="#fff" fill-rule="nonzero" d="M24848 5389c401 402 401 1052 0 1454-402 401-1053 401-1454 0-401-402-401-1052 0-1454 401-401 1052-401 1454 0z"/><path fill="#D93682" d="M23958 6150c-22 0-40 11-49 29-8-1-16-2-24-4-45-9-74-22-98-41l-3-3c-22-18-39-40-60-67-2-9-7-33 2-50l3-3c8 5 18 8 28 8 31 0 56-25 56-55s-25-55-56-55c-27 0-50 20-54 47-13 10-22 21-27 31-5 11-9 22-10 32-16-5-32-6-47-5-10-12-24-19-41-19-30 0-55 25-55 55 0 31 25 56 55 56 24 0 44-15 52-36 15 0 32 6 46 24l3 4c9 11 17 22 25 32-30 8-53 22-70 39h-1c-30 0-55 24-55 55 0 30 25 55 55 55 31 0 55-25 55-55 0-9-2-17-5-24 15-11 38-20 73-19 28 22 64 39 117 50 13 3 26 5 40 6 9 14 26 23 45 23 30 0 55-25 55-55 0-31-25-55-55-55zm-201-213h3s1 0 1 1c13 1 23 12 23 26 0 11-7 21-17 24 0 1 0 1-1 1-1 1-2 1-3 1-2 1-4 1-6 1-14 0-26-12-26-27s12-27 26-27zm-179 140c-15 0-27-12-27-27 0-14 12-26 27-26s27 12 27 26c0 15-12 27-27 27zm82 151l-1 1v1s-1 1-1 2l-1 1v2s-1 0-1 1l-1 1c0 1 0 2-2 3 0 1-1 1-1 2-1 2-2 2-3 3-1 0-1 1-1 1h-1c-4 3-9 4-14 4h-6c-12-3-21-14-21-26 0-15 12-27 27-27s27 12 27 27v4zm298 4c-15 0-27-12-27-27 0-11 6-20 15-24 4-2 7-3 12-3 10 0 20 6 23 16 1 0 1 1 2 2v2s0 1 1 1v6c0 15-12 27-26 27z"/><path fill="#D93682" d="M24327 5530c-155-42-165 14-206 14s-57-60-207-14c-320 90-555 385-555 734v141c0 40 33 73 73 73h1378c40 0 73-33 73-73v-141c0-349-236-644-556-734zm442 734c0 25-21 47-47 47h-517c-26 0-47-22-47-47 0-2 1-141 1-141 0-21-17-38-38-38s-38 17-38 38v141c0 25-21 47-47 47h-517c-26 0-47-22-47-47 0-165 62-315 163-429 20-23 42-45 66-65 12 17 26 49 34 82 3 9 10 17 20 20 2 1 5 1 8 1 7 0 13-2 19-7 12-11 30-19 50-25-4 21-5 48 4 82 13 53 59 82 96 98 5 25 27 44 54 44 30 0 55-25 55-56 0-30-25-55-55-55-14 0-26 5-36 14-25-12-52-31-60-59-12-48 3-73 6-78 42-3 81 0 102 3 12 2 24-4 29-15 6-11 4-23-4-32-12-13-19-27-22-39 16-10 26-27 26-47 0-30-25-55-55-55-31 0-56 25-56 55 0 20 11 37 27 47 1 8 3 16 7 25-49-1-118 2-171 28-8-21-19-46-34-65 85-61 184-101 291-115 0 0 4-1 6-1 23 0 41 18 41 40v330c0 21 17 38 38 38s38-17 38-38v-197c14 11 32 20 53 28 3 1 6 1 9 2-18 27-27 60-13 95 19 45 59 52 88 56 13 2 25 4 35 9 30 16 35 47 34 71-1 26-12 53-27 73-6-3-13-4-20-4-31 0-55 24-55 55s24 55 55 55c30 0 55-24 55-55v-5-1c27-29 46-71 49-115 3-56-21-101-66-124-17-9-35-12-52-15-28-4-37-7-43-22-9-21 7-46 24-60h23c9 0 17 0 24-1 10 12 25 19 41 19 30 0 55-25 55-55 0-31-25-56-55-56-24 0-44 15-51 36h-1c-22 2-54 0-91-12-38-13-60-37-71-54v-52c0-23 17-41 40-41h6c125 17 237 69 330 147-25 2-52 11-74 29-21 18-34 42-39 73-19 8-31 27-31 49 0 31 24 55 54 55 31 0 56-24 56-55 0-18-9-33-22-43 3-15 9-27 19-35 28-24 81-19 100-15 32 35 60 73 84 113-73-4-124 42-142 70-5 8-6 17-3 25 7 20 15 72-5 120-3 6-7 13-12 19-6-2-13-3-19-3-31 0-56 24-56 55 0 30 25 55 56 55 30 0 55-25 55-55 0-2 0-4-1-6 13-13 22-28 29-42 25-61 17-119 11-146 15-16 51-47 107-32 4 1 7 1 11 1 36 81 57 170 57 265h-1zm-759-265c1 1 1 2 1 3 1 1 1 3 1 4v10c-1 0-1 1-1 1-1 3-2 6-4 8 0 1-1 1-1 2-2 2-3 3-5 4-1 1-3 2-5 3s-3 2-5 2h-5c-15 0-27-12-27-27 0-14 12-26 27-26 9 0 17 5 22 11 1 2 1 3 1 4h1v1zm-65-298c0-15 12-27 27-27 14 0 26 12 26 27v6c-3 12-14 21-26 21-15 0-27-12-27-27zm400 477c0 15-12 27-27 27s-27-12-27-27 12-27 27-27 27 12 27 27zm28-352c-15 0-27-13-27-27 0-12 8-22 18-26h1c2-1 5-1 8-1 15 0 27 12 27 27 0 12-8 22-20 25 0 1-1 1-2 1s-3 1-5 1zm99 92c0 8-3 14-8 19l-3 3c-5 3-10 5-16 5-14 0-26-12-26-27 0-2 0-4 1-6 3-12 13-20 25-20 15 0 27 11 27 26zm55 306c0 11-7 22-18 25-2 1-5 2-9 2-14 0-26-13-26-27 0-13 8-23 20-26 2-1 4-1 6-1 15 0 27 12 27 27z"/><path fill="#373435" fill-opacity=".502" d="M23958 6150c-22 0-40 11-49 29-8-1-16-2-24-4-45-9-74-22-98-41l-3-3c-22-18-39-40-60-67-2-9-7-33 2-50l3-3c8 5 18 8 28 8 31 0 56-25 56-55s-25-55-56-55c-27 0-50 20-54 47-13 10-22 21-27 31-5 11-9 22-10 32-16-5-32-6-47-5-10-12-24-19-41-19-30 0-55 25-55 55 0 31 25 56 55 56 24 0 44-15 52-36 15 0 32 6 46 24l3 4c9 11 17 22 25 32-30 8-53 22-70 39h-1c-30 0-55 24-55 55 0 30 25 55 55 55 31 0 55-25 55-55 0-9-2-16-5-24 15-11 38-20 73-19 28 22 64 39 117 50 13 3 26 4 40 6 9 14 26 23 45 23 30 0 55-25 55-55 0-31-25-55-55-55zm-201-213h3s1 0 1 1c13 1 23 12 23 26 0 11-7 21-17 24 0 1 0 1-1 1-1 1-2 1-3 1-2 1-4 1-6 1-14 0-26-12-26-27s12-27 26-27zm-179 140c-15 0-27-12-27-27 0-14 12-26 27-26s27 12 27 26c0 15-12 27-27 27zm82 151l-1 1v1s-1 1-1 2l-1 1c0 1 0 1-1 2v1h-1c0 2 0 3-2 4 0 1-1 1-1 2-1 2-2 2-3 3-1 0-1 1-1 1h-1c-4 3-9 4-14 4h-6c-12-3-21-14-21-26 0-15 12-27 27-27s27 12 27 27v4zm298 4c-15 0-27-12-27-27 0-11 6-20 15-24 4-2 7-3 12-3 10 0 20 6 23 16 1 0 1 1 2 2v2s0 1 1 1v6c0 15-12 27-26 27z"/><path fill="#373435" fill-opacity=".502" d="M24115 6478v-392c-18 3-32 19-32 37v141c0 25-21 47-47 47h-517c-26 0-47-22-47-47 0-165 62-315 163-429 20-24 42-45 66-65 12 17 26 49 35 82 2 9 9 17 19 20 2 1 5 2 8 2 7 0 13-3 19-8 12-11 30-19 50-25-4 21-5 48 4 82 13 53 59 82 96 98 5 25 27 44 54 44 30 0 55-25 55-56 0-30-25-55-55-55-14 0-26 5-36 14-25-12-52-31-60-59-12-48 3-73 6-78 42-3 81 0 102 3 12 2 24-4 29-15 6-11 4-23-4-32-12-13-19-27-22-39 16-10 26-27 26-47 0-31-25-55-55-55-31 0-56 24-56 55 0 20 11 37 27 47 1 8 3 16 7 25-49-1-118 2-171 28-8-21-19-46-34-65 85-61 184-101 291-115 0 0 4-1 6-1 23 0 41 18 41 40v330c0 19 14 34 32 37v-483c-37-6-59-58-201-14-320 90-555 385-555 734v141c0 40 33 73 73 73h683zm-105-479c1 1 1 2 1 3 1 1 1 3 1 4v10c-1 0-1 1-1 1-1 3-2 6-4 8 0 1-1 1-1 2-2 2-3 3-5 4-1 1-3 2-5 3s-3 1-5 2h-5c-15 0-27-12-27-27 0-14 12-26 27-26 9 0 17 5 22 11 1 2 1 3 1 4h1v1zm-65-298c0-15 12-27 27-27 14 0 27 12 27 27 0 2-1 4-1 6-3 12-14 21-26 21-15 0-27-12-27-27z"/><path fill="#fff" fill-rule="nonzero" d="M13613 12119c549 549 549 1439 0 1988s-1438 549-1987 0-549-1439 0-1988 1438-549 1987 0z"/><g fill="#34495E" fill-rule="nonzero"><path d="M12664 11884c2 1 4 1 6 1 38 4 76 7 113 10 49 5 96 16 143 28 49 12 98 27 144 47 40 16 79 33 117 53 74 37 142 84 207 136 57 46 109 97 157 153 81 95 146 199 196 314 35 82 63 167 78 255 8 42 13 85 18 127 9 80 7 159-2 239-16 149-58 291-126 425-40 77-86 150-142 216-26 32-54 64-83 93-107 106-228 191-365 253-83 37-169 65-259 84-96 19-193 27-291 24-76-3-151-13-226-30-163-36-312-103-447-201-49-35-95-74-138-115-113-108-200-234-265-375-38-83-65-169-83-258-21-102-29-206-24-311 12-223 79-428 202-615 68-104 150-195 246-274 57-47 117-88 181-124 58-32 117-60 179-81 42-15 85-28 128-39 38-10 76-16 115-22 31-5 62-7 93-10 11-1 22-1 33-2 2 0 4 0 6-1h89zm7 2385c264-5 539-113 763-338 238-240 352-531 339-868-23-607-521-1090-1125-1102-328-7-612 105-844 336-225 224-338 498-339 816-2 630 510 1155 1206 1156z"/><path d="M12357 13767c-3-9-6-16-9-23-58-173-117-346-175-519-66-194-133-389-199-583-1-2-1-4-2-5-4-15 1-23 16-23 34-1 68 0 103 0 6 0 12-1 17 0 8 0 11-5 12-11 0-21 0-41-1-62 0-7-4-10-13-10-46 2-91 4-137 5-60 2-120 3-180 4h-57c51-80 111-151 181-214 163-145 353-234 570-261 234-30 456 13 662 130 68 39 132 86 191 141-15 1-28 2-41 4-41 6-77 24-105 55-24 28-37 62-41 99-7 60 5 117 33 170 22 41 46 80 69 120 31 53 57 108 69 168 9 42 13 84 12 127-3 97-29 189-59 280-42 129-85 258-127 387-1 2-2 4-3 7-1-3-2-5-3-8-58-170-115-340-173-509-67-197-134-393-200-589-9-25-3-33 23-33 32-1 65 0 97 0 15 0 16-2 16-17 0-17 1-35 0-52 0-11-3-14-14-14-108 2-217 6-325 6-89 0-178-4-267-6-12 0-15 3-15 14v54c0 11 3 14 15 15h108c15 0 25 7 30 22 18 50 37 101 55 151 33 90 66 179 98 269 2 3 2 8 1 12-77 230-153 461-229 691-1 2-2 4-3 8z"/><path d="M12974 14110c-119 41-240 61-364 60-102-1-200-16-298-45 108-311 217-621 326-934 112 307 224 612 336 919zM11659 12677c169 463 339 927 508 1390 0 1-1 1-2 2-253-127-436-319-535-586-101-271-88-541 26-806h3zM13126 14039c6-15 11-31 17-47 77-219 155-438 232-657 33-94 66-188 98-282 28-83 48-168 61-254 10-59 16-119 14-179 0-2 0-4 1-7 42 75 74 154 94 237 61 248 40 488-70 718-97 205-247 361-445 472 0 0-1 0-2-1z"/></g><path fill="#fff" fill-rule="nonzero" d="M11135 10539c386 387 386 1014 0 1400-387 387-1014 387-1400 0-387-386-387-1013 0-1400 386-386 1013-386 1400 0z"/><path fill="#FFB300" d="M10903 11484l102-53v-235l-102 54v234zM10434 11494c-8 0-15-2-23-6l-497-266v233l520 274 296-155v-231l-272 145c-7 4-15 6-24 6z"/><path fill="#FFB300" d="M10834 11206l-289-152c1-31-15-61-44-77-13-7-26-10-39-10-30 0-59 16-74 44-22 41-7 92 34 114 12 6 26 10 39 10 17 0 34-6 49-16l270 142v481c0 21 16 37 37 37 20 0 37-16 37-37v-503c0-14-8-26-20-33z"/><path fill="#FFB300" d="M10434 10700l-743 347 743 397 292-155-217-114c-15 6-31 9-48 9-22 0-43-5-63-16-31-16-54-44-64-79-10-34-7-70 10-101 23-43 68-70 118-70 21 0 43 5 62 16 35 18 59 51 67 88l267 141c15 8 28 21 36 36l284-152-744-347z"/><path fill="#fff" fill-rule="nonzero" d="M15170 7596c883 882 883 2313 0 3196s-2314 883-3196 0c-883-883-883-2314 0-3196 882-883 2313-883 3196 0z"/><path fill="#D42222" d="M13592 9058v-458c68 32 160 53 201 133 78 153-64 322-201 325zm-321-962c0-65-2-116 63-160 36-25 74-46 121-56v399c-86-20-184-85-184-183zm184-550v124c-114 0-258 60-317 116-38 38-70 70-94 122-78 168-52 404 104 521 79 59 196 106 307 132v491c-65-31-135-40-183-158-55-136-45-203-184-203-69 0-124 69-124 112 0 151 49 242 162 342 75 67 226 127 329 129v419c-109-57-218-115-328-170-62-31-298-170-347-170-55 0-121 99-168 152-10 11-17 15-26 27l-590 667c-89 88-43 129 36 69l376-259c41-27 430-296 431-296 46 0 648 399 701 399 34 0 96-18 116-34l576-491c170-144 406-358 570-491l86-71 185 162c11 6 17 8 27-9 12-22 96-794 96-840 0-37-150 16-195 27-70 18-140 37-213 55l-318 82c-34 11-75 16-105 32 2 31 81 96 113 123 13 11 16 11 29 23 25 23 23 28 54 44-19 29-446 450-483 486-43 43-75 82-118 125-50 50-340 346-368 365v-426c86-20 95-8 190-46 161-63 295-222 295-412 0-159-37-267-156-361-18-14-49-34-67-45-37-21-221-84-262-85v-439c53 12 97 46 126 84 32 44 37 106 67 149 70 104 246 44 246-76 0-137-132-285-270-338-39-15-120-35-169-35 0-107 20-203-72-203-44 0-65 33-65 79z"/><path fill="#fff" fill-rule="nonzero" d="M11141 5876c440 439 440 1151 0 1590-439 439-1151 439-1590 0s-439-1151 0-1590 1151-439 1590 0z"/><path fill="#48B753" d="M10170 6837h465c8 0 18-9 18-17v-340c0-16-8-24-24-24h-459c-16 0-24 8-24 24v333c0 16 8 24 24 24zm231-657c-81 0-81-122 0-122 61 0 81 91 24 116-3 1-21 6-24 6zm-24 41v78c-58 16-42 113 14 113 39 0 68-18 68-58 0-27-17-49-38-55v-78c23-11 38-13 56-33 63-71 1-171-66-171-32 0-63 3-87 32-37 43-38 91-3 137 15 21 33 24 56 35zm82 949c0 85-119 88-119-3 0-13 11-32 19-39 35-32 100-10 100 42zm-72 106c35 0 60-1 88-32 36-39 38-99 2-139-18-20-33-22-56-33v-79c53-14 53-112-24-112-64 0-78 97-20 112v82c-59 1-115 100-55 167 12 14 42 34 65 34zm-149 119c-17 0-33-8-42-17-42-37-7-102 31-102h21c23 0 51 32 51 54 0 36-25 65-61 65zm0 44c47 0 102-43 102-92v-24c0-40-44-87-82-88v-242c54-12 54-112-24-112-64 0-75 99-17 112v242c-38 1-81 49-81 88 0 35 3 60 32 87 14 13 45 29 70 29zm61-1480c0 26-26 58-51 58h-21c-27 0-53-35-49-63 8-80 121-69 121 5zm-82 99v241c-52 12-56 113 24 113 26 0 54-23 54-48 0-23 0-56-37-65v-241c39-1 82-48 82-88 0-33-2-61-32-88-27-24-69-36-109-19-12 5-22 11-31 20-65 54-25 173 49 175zm922 235c0 80-123 80-123 0 0-77 123-80 123 0zm41-12v29c-3 18-12 37-28 54l-2 2-1 1-2 2c-39 36-92 37-136 4-26-21-27-42-35-60-11 1-12 4-23 3-54-5-42 0-65 0-18-1-66-10-89 8-15 12-14 21-14 47 1 42 0 84 0 126 53 14 48 112-24 112-43 0-78-51-45-96 7-9 13-13 25-16 0-34-4-141 5-168 5-14 14-27 23-35 27-22 48-22 94-22h113c11-24 14-39 35-57 72-60 158-5 169 66zm-1449 753c-85 0-86-119 0-119 76 0 75 119 0 119zm-4 44c25 0 53-13 68-24 20-17 24-34 34-57h113c80 0 122-17 122-109v-116c54-14 52-112-24-112-68 0-73 99-17 112 0 15-1 23-2 32s4 24 0 68c0 4 14 81-38 81h-147c-10 0-7-3-11-10-5-11-9-29-27-44-78-66-173-3-173 71 0 64 45 108 102 108zm1354-44c-85 0-86-119 0-119 76 0 76 119 0 119zm-340-262c0 85-28 225 92 225h146c1 42 54 81 99 81 132 0 140-207-4-207-27 0-49 14-65 26-32 26-23 56-40 56h-146c-9 0-20-6-25-10-4-3-13-15-13-21v-143c0-9 18-18 25-27 45-59-42-126-92-74-24 25-18 83 23 94zm129 483c-83 0-78-119-7-119 92 0 79 119 7 119zm-340-262c0 148-22 225 123 225h115c2 23 22 46 37 58 71 57 167-3 167-79 0-93-107-136-172-80-7 5-15 16-20 24-6 9-11 20-12 33h-115c-95 0-79-12-79-174 0-18 38-7 38-68 0-23-26-55-61-53-59 4-85 80-21 114zm398-898c0 85-119 78-119 7 0-91 119-77 119-7zm-316 266c0-58-38-51-38-68v-133c0-46 56-41 75-41h119c4 41 47 82 102 82 122 0 143-184 11-205-54-9-109 37-113 79-134 0-239-24-238 109v115c-62 33-39 109 18 115 34 3 64-28 64-53zm-1068-65c-86 0-86-119 0-119 74 0 76 119 0 119zm0 44c35 0 35-22 62 3 8 8 13 15 22 22l161 144c9 8 14 15 23 22 67 54 12 44 177 44 12 51 113 59 113-27 0-58-99-73-113-14h-75c-48 0-28 3-55-19l-59-53c-9-9-12-10-21-17-7-7-11-12-18-19l-99-88c-8-8-11-12-20-18-8-7-14-11-20-21 54-81-7-166-82-166-133 0-139 207 4 207z"/><path fill="#fff" fill-rule="nonzero" d="M18095 4224c722 722 722 1893 0 2615s-1893 722-2615 0-722-1893 0-2615 1893-722 2615 0z"/><path fill="#3E7195" d="M16786 4139c-766 0-1390 625-1390 1391 0 677 482 1236 1118 1363 13-28 28-62 34-96-6-34-9-68-18-96-31-99-68-198-105-297-19-55-68-55-121-49-80 6-167 19-247 9-124-12-151-65-148-188 3-34-7-84-28-108-43-44-28-75 0-112-6 0-16-3-22-3-3-31-18-65-12-92 12-68 0-93-68-118-22-6-40-12-62-25-56-30-68-64-34-123 56-99 121-198 176-300 19-31 13-80 13-120 0-44-22-93-13-136 25-87 53-173 90-254 86-194 247-312 445-364 225-62 463-87 689-22 300 86 627 349 627 720 0 124-28 256-80 368-151 321-179 469-96 812 0 0 0 31 53 115 0 0 55 65 129 151 282-253 464-624 464-1035-6-770-627-1391-1394-1391z"/><path fill="#3E7195" d="M17568 5042c16-10 25-28 25-47 0-31-25-55-56-55s-55 24-55 55c0 19 9 37 24 47v89l-510 507v-65l235-235h13c30 0 55-24 55-55s-25-56-55-56c-31 0-56 25-56 56v12l-192 192v-59l374-374v-213c16-9 25-28 25-47 0-30-25-55-56-55s-55 25-55 55c0 19 9 38 24 47v185l-373 377v1490c0 18 12 31 30 31 19 0 31-13 31-31V5728l572-572v-114zm-324 213c15 0 27 12 27 28 0 15-12 28-27 28-16 0-28-13-28-28 0-16 12-28 28-28zm95-488c16 0 28 12 28 27 0 16-12 28-28 28-15 0-27-12-27-28 0-15 12-27 27-27zm198 256c-15 0-28-12-28-28 0-15 13-27 28-27 16 0 28 12 28 27 0 16-12 28-28 28zM16116 5116l-44-43v-13c0-31-24-55-55-55s-56 24-56 55 25 56 56 56h12l59 59h470l228 228v74l-210-210h-253l-10-9v-12c0-31-24-56-55-56s-56 25-56 56 25 55 56 55h12l25 25h259l235 235v1332c0 18 13 31 31 31 19 0 31-13 31-31V5382l-266-266h-469zm-96-25c-16 0-28-12-28-28 0-15 12-28 28-28 15 0 28 13 28 28 0 16-13 28-28 28zm241 189c-16 0-28-13-28-28 0-16 12-28 28-28 15 0 28 12 28 28 0 15-13 28-28 28z"/><path fill="#3E7195" d="M17018 5060c0 31 25 56 56 56s55-25 55-56v-12l68-68v-300c16-9 25-28 25-46 0-31-25-56-56-56-30 0-55 25-55 56 0 18 9 37 25 46v275l-50 50h-12c-31 0-56 24-56 55zm148-457c16 0 28 12 28 28 0 15-12 27-28 27-15 0-27-12-27-27 0-13 12-28 27-28zm-92 429c15 0 28 13 28 28 0 16-13 28-28 28-16 0-28-12-28-28 0-15 12-28 28-28zM17584 5348c-31 0-56 24-56 55v13l-31 30h-127l-290 288v1159c0 18 12 31 31 31 18 0 31-13 31-31V5762l253-254h127l46-46h12c31 0 56-25 56-56 6-34-18-58-52-58zm0 83c-16 0-28-12-28-28 0-15 12-28 28-28 15 0 27 13 27 28 3 16-9 28-27 28z"/><path fill="#3E7195" d="M17423 5675c-19 0-37 9-47 25h-80l-68 68v1125c0 18 13 31 31 31 19 0 31-13 31-31V5796l34-34h52c10 15 28 24 47 24 31 0 56-24 56-55 0-28-25-56-56-56zm0 87c-16 0-28-13-28-28 0-16 12-28 28-28 15 0 28 12 28 28 0 15-13 28-28 28zM16978 5243c31 0 55-25 55-56s-24-56-55-56-56 25-56 56c0 6 0 12 3 18l-37 38-247-248h-488l-87-86v-12c0-31-24-56-55-56s-56 25-56 56c0 30 25 55 56 55h12l105 105h488l272 272 84-83c3-6 6-3 6-3zm-967-325c-16 0-28-12-28-28 0-15 12-28 28-28 15 0 27 13 27 28 0 16-12 28-27 28zm939 266c0-16 12-28 28-28 15 0 28 12 28 28 0 15-13 28-28 28-16 0-28-13-28-28zM16480 4532c19 0 37-9 47-25h49l238 238v12c0 31 25 56 56 56s55-25 55-56-24-55-55-55h-13l-256-257h-77c-10-15-28-24-47-24-31 0-55 24-55 55s24 56 58 56zm393 198c15 0 28 12 28 27 0 16-13 28-28 28-16 0-28-12-28-28 0-15 12-27 28-27zm-393-285c16 0 28 13 28 28 0 16-12 28-28 28-15 0-27-12-27-28 0-15 12-28 27-28z"/><path fill="#3E7195" d="M16119 4819h12l99 99h368l-201-201v-12c0-31-25-56-56-56s-55 25-55 56 24 55 55 55h13l96 96h-192l-84-83v-13c0-30-24-55-55-55s-56 25-56 55c0 34 25 59 56 59zm222-83c-15 0-28-13-28-28 0-16 13-28 28-28 16 0 28 12 28 28 0 15-12 28-28 28zm-222 0c15 0 28 12 28 28 0 15-13 27-28 27-16 0-28-12-28-27 0-16 12-28 28-28z"/><path fill="#3E7195" d="M16168 4696c31 0 56-25 56-56v-12l71-71h65l516 516 164-164v-371l-96-96h-74c-10-15-28-25-47-25-30 0-55 25-55 56s25 56 55 56c19 0 37-10 47-25h49l59 59v321l-102 102-491-491h-118l-89 89h-13c-31 0-55 25-55 56 3 31 27 56 58 56zm655-192c-15 0-27-12-27-28 0-15 12-28 27-28 16 0 28 13 28 28 0 16-12 28-28 28zm-655 108c16 0 28 12 28 28 0 15-12 28-28 28-15 0-28-13-28-28 0-16 13-28 28-28z"/><path fill="#fff" fill-rule="nonzero" d="M20761 3052c410 410 410 1076 0 1486-410 411-1076 411-1486 0-411-410-411-1076 0-1486 410-410 1076-410 1486 0z"/><path fill="#B93E95" d="M19809 4175l-74-73c-17-17-23-17-49-23-20-5-40-11-64-11l189 191-18 53c-13-4-112-109-124-120-21-21-40-41-61-62-15-15-51-47-61-62-31 16-20 9-51 29l264 266c-13 20-21 17-21 50 0 32 25 51 59 51 38 0 70-59 88-89 81-133 16-298-27-421-15-42-39-116-39-159l111 111c12 12 14 10 31 14 26 7 46 14 77 14l-219-220c7-33 18-38 21-53l264 263c67-37 38-42-25-105l-165-165c-9-9-28-23-31-35 58-31 46-25 104 32 19 19 36 36 54 55l82 82c8 8 19 23 30 26-2-12-3-28-4-38-10-62-4-46-45-87l-87-89c39 0 61 11 88 13l-28-87c-12-39 0-31-25-34-131-16-231-2-308 113-8 11-17 29-22 43-10 26-23 72-17 111 3 19 1 43 4 61 2 21 5 35 9 55 3 16 8 33 13 50 14 48 34 97 50 146 9 26 25 77 27 104z"/><path fill="#B93E95" d="M20117 3372c0 144 99 282 99 471 0 68-29 107-81 137-65 37-174 0-197 0 1 13 4 19 8 29l18 60c2 10 5 24 8 31l94 8c66 0 136-25 181-70 74-73 78-122 78-224 0-68-23-161-39-214l-46-145c-15-58-9-136 12-189 19-49 41-52 41-86 0-30-22-54-59-54-39 0-74 63-86 95-18 44-31 92-31 151z"/><path fill="#B93E95" d="M20299 3330c0 7 84 88 98 104 5 6 10 8 16 14s8 11 14 16l59 58c6 4 41 39 43 46-78 18-50 24-145-72l-85-83c4 16 6 34 10 50 15 59 8 45 47 83 10 10 23 21 31 32-17-1-34-9-48-10 4 8 6 18 9 28l26 95c22 0 43 5 66 5 81 0 151-23 209-64 26-18 38-28 38-62 0-27-26-50-57-50-21 0-32 12-45 21l-267-266c-5 9-19 45-19 55zM19349 4015c0 63 61 71 91 46 63-52 97-62 176-60 16 1 71 11 81 16-1-12-15-45-20-60-5-16-16-46-18-63-61-5-91-12-157 6-17 5-49 17-63 26-42 25-30 18-65 45-13 10-25 23-25 44z"/><g fill="#96989A"><path d="M15128 12048c0 44 0 30 44 55 12 6 37 26 47 29-2 9-32 37-37 43l-79 83c-13 14-26 29-39 42-15-5-63-40-79-51-10-7-18-12-27-19-17-13-33-26-51-35-28-14-78-30-107-6-6 5-15 16-20 23l-16 29c-5 10-10 21-14 32-9 23-15 48-22 73-9 34-11 71-11 108 0 22 4 32 10 46l17 36c10 18 31 57 31 77 0 36-55 86-55 118 0 6 4 11 8 11h37c20-1 24-9 52-49 4-5 6-8 9-14 2-3 2-2 3-4 25-38 24-55 7-104l-7-22c-4-11-5-12-5-28 15 10 30 15 52 31 12 9 36 28 42 43 21 52 18 147 43 147h41c5 0 12-13 12-21 0-12-6-45-8-57l-11-56c-3-17-8-37-13-52-4-12-9-22-16-30-30-33-81-60-103-85-14-16-17-16-10-46 2-9 3-19 5-27l15-64c12-46 19-46 51-28 22 13 46 31 67 48 6 5 10 8 17 13 6 4 10 8 16 12 19 13 59 45 78 18 8-11 5-16 5-31 4-2 6-5 10-9 29-33 119-140 141-161 20 19 39 39 52 68 6 14 7 25 19 25 18 0-2-49-6-58l-22-38c-6-9-10-17-18-22 2-6 6-7 6-18 0-4-15-38-41-19-16-15-34-26-52-37-8-5-68-47-68-19zM15410 12424c0 45-2 295 2 318h122c5-1 7-4 7-13v-307c0-8-8-15-14-15h-104c-8 0-13 7-13 17zM15255 12502v234c0 5 1 6 5 6h121c4 0 5-1 5-6v-234c0-11-12-15-20-15h-92c-8 0-19 5-19 15z"/><path d="M15093 12579v157c0 5 1 6 4 6h129c4 0 5-1 5-6v-159c0-9-10-15-17-15h-107c-8 0-14 6-14 17zM14849 12102c0 18 1 32 11 47l3 4c27 35 64 29 90 0 46-54 16-123-28-131h-16c-13 3-26 10-38 23-11 14-22 34-22 57z"/></g></svg>