<svg xmlns="http://www.w3.org/2000/svg" xml:space="preserve" width="350" height="200" version="1.0" shape-rendering="geometricPrecision" text-rendering="geometricPrecision" image-rendering="optimizeQuality" fill-rule="evenodd" clip-rule="evenodd" viewBox="0 0 35000 19994"><path fill="#BC8BBD" fill-rule="nonzero" d="M0 19994h35000V0H0v19994z"/><path fill="#373435" fill-opacity=".149" d="M26769 10451l-3717 4842h629l3209-4181v14l245-319v73h1304l-234 305h234l-3153 4108h3045l-3609 4701H0v-4457L8269 4767l-21 29-11 33-4 35 40 5516 5 35 17 34 26 30 36 26 43 20 52 14 58 6 65-4 2013-208 2 371-3523 4589h13466l6497-8462v72h1480l-234 305h234l-2520 3284 499 51 65 4 59-6 51-14 44-20 35-26 26-30z"/><path fill="#FEC253" fill-rule="nonzero" d="M28331 14608H6589l1944-3904h17854l1944 3904z"/><path fill="#D2D4D5" fill-rule="nonzero" d="M16692 11076h1680V9986h-1680v1090z"/><path fill="#FEFEFE" fill-rule="nonzero" d="M17140 10996h-1424v392h3632v-392h-2208z"/><path fill="#D2D4D5" fill-rule="nonzero" d="M17140 11374h-1424v194h3632v-194h-2208z"/><path fill="#4C4C4D" fill-rule="nonzero" d="M17924 9986h3179c76 0 137-62 137-138V5430c0-76-61-137-137-137h-7141c-76 0-138 61-138 137v4418c0 76 62 138 138 138h3962z"/><path fill="#FEFEFE" fill-rule="nonzero" d="M13941 9502h7183V5391h-7183v4111z"/><path fill="#65CADF" fill-rule="nonzero" d="M13954 9146h7156V5631h-7156v3515z"/><path fill="#46835C" fill-rule="nonzero" d="M13954 9502h7156v-356h-7156v356z"/><path fill="#FEFEFE" fill-rule="nonzero" d="M11296 10239l2343-243c56-5 102-72 102-148V5430c0-76-46-142-102-148l-5120-578c-206-19-287 65-286 160l40 5516c0 95 122 184 302 161l2144-242 577-60z"/><path fill="#4C4C4D" fill-rule="nonzero" d="M11496 10239l2343-243c56-5 102-72 102-148V5430c0-76-46-142-103-148l-5304-579c-57-6-102 66-101 161l39 5516c1 95 47 167 103 161l2343-242 578-60z"/><path fill="#FEFEFE" fill-rule="nonzero" d="M13854 5382l-5335-558 2 342 5333 444v-228z"/><path fill="#65CADF" fill-rule="nonzero" d="M8521 5166l31 4371 5303-372-1-3555-5333-444z"/><path fill="#46835C" fill-rule="nonzero" d="M8552 9537l3 404 5300-432v-344l-5303 372z"/><path fill="#D2D4D5" fill-rule="nonzero" d="M24453 11856l-1 222-2465-408v-199l2466 385z"/><path fill="#FEFEFE" fill-rule="nonzero" d="M21987 11471l737-231 2465 384-736 232-2466-385zM23768 10241l-2343-243c-56-5-101-72-101-148V5432c0-76 45-142 102-148l5120-578c206-19 286 65 285 160l-39 5516c-1 95-122 184-303 161l-2143-242-578-60z"/><path fill="#4C4C4D" fill-rule="nonzero" d="M23568 10241l-2343-243c-56-5-101-72-101-148V5432c0-76 46-142 102-148l5305-579c56-6 101 66 101 161l-40 5516c-1 95-47 167-103 161l-2343-242-578-60z"/><path fill="#65CADF" fill-rule="nonzero" d="M26543 5185l-5333 436v3519l5303 277 30-4232z"/><path fill="#46835C" fill-rule="nonzero" d="M21210 9140v371l5299 432 4-526-5303-277z"/><path fill="#FEFEFE" fill-rule="nonzero" d="M26546 4826l-5336 558v237l5333-436 3-359z"/><path fill="#753330" fill-rule="nonzero" d="M14565 11196l-28-904 103-3 28 904-103 3z"/><path fill="#B0AFB0" fill-rule="nonzero" d="M14596 11772l-17-576 74-3 18 576-75 3z"/><path fill="#FEFEFE" fill-rule="nonzero" d="M14640 10289l-103 3 49-162 54 159z"/><path fill="#43456C" fill-rule="nonzero" d="M14580 10153l-1-26 16-1v26l-15 1z"/><path fill="#353535" fill-rule="nonzero" d="M14663 11770s4 69-27 70c-32 1-30-69-30-69l57-1z"/><path fill="#43456C" fill-rule="nonzero" d="M14331 11034l32-904 103 3-32 904-103-3z"/><path fill="#B0AFB0" fill-rule="nonzero" d="M14325 11610l20-576 75 3-21 576-74-3z"/><path fill="#FEE1BA" fill-rule="nonzero" d="M14466 10133l-103-3 60-158 43 161z"/><path fill="#43456C" fill-rule="nonzero" d="M14414 9993l1-25h16l-1 26-16-1z"/><path fill="#353535" fill-rule="nonzero" d="M14391 11613s0 69-32 68c-31-1-25-70-25-70l57 2z"/><path fill="#454645" fill-rule="nonzero" d="M14175 11232l-180-887 101-20 180 887-101 20z"/><path fill="#B0AFB0" fill-rule="nonzero" d="M14303 11794l-114-565 73-14 114 564-73 15z"/><path fill="#FEE1BA" fill-rule="nonzero" d="M14096 10325l-101 20 22-167 79 147z"/><path fill="#454645" fill-rule="nonzero" d="M14014 10201l-5-25 15-3 5 25-15 3z"/><path fill="#353535" fill-rule="nonzero" d="M14368 11781s16 68-15 74c-30 6-41-63-41-63l56-11z"/><path fill="#EFC06A" fill-rule="nonzero" d="M14457 11179l-265-865 98-30 266 865-99 30z"/><path fill="#B0AFB0" fill-rule="nonzero" d="M14640 11726l-169-551 71-22 169 551-71 22z"/><path fill="#FEFEFE" fill-rule="nonzero" d="M14290 10284l-98 30 5-169 93 139z"/><path fill="#454645" fill-rule="nonzero" d="M14196 10169l-7-25 15-5 7 25-15 5z"/><path fill="#353535" fill-rule="nonzero" d="M14703 11706s23 66-7 75c-30 10-47-58-47-58l54-17z"/><path fill="#2369AA" fill-rule="nonzero" d="M14646 11195l158-891 101 18-158 891-101-18z"/><path fill="#B0AFB0" fill-rule="nonzero" d="M14559 11765l101-567 74 13-101 567-74-13z"/><path fill="#FEFEFE" fill-rule="nonzero" d="M14905 10322l-101-18 81-147 20 165z"/><path fill="#454645" fill-rule="nonzero" d="M14874 10177l5-26 15 3-4 26-16-3z"/><path fill="#353535" fill-rule="nonzero" d="M14625 11777s-10 69-41 63c-31-5-15-73-15-73l56 10z"/><path fill="#22A98A" fill-rule="nonzero" d="M14474 11031l19-905 103 2-19 905-103-2z"/><path fill="#B0AFB0" fill-rule="nonzero" d="M14476 11607l12-576 75 2-12 576-75-2z"/><path fill="#FEE1BA" fill-rule="nonzero" d="M14596 10128l-103-2 58-158 45 160z"/><path fill="#22A98A" fill-rule="nonzero" d="M14543 9989l1-25h15v26l-16-1z"/><path fill="#353535" fill-rule="nonzero" d="M14543 11609s0 69-31 69c-31-1-26-70-26-70l57 1z"/><path fill="#B9403A" fill-rule="nonzero" d="M14817 10954h-785c-12 0-22 16-22 35v1050h829v-1050c0-19-10-35-22-35z"/><path fill="#4C4C4D" fill-rule="nonzero" d="M21994 13887c3 35-30 64-124 64l-8355 6c-94 0-128-36-128-74l-5-155s632-828 709-827l6872 54c76 0 1025 785 1025 785l6 147z"/><path fill="#FEFEFE" fill-rule="nonzero" d="M21974 13707c36 39-10 70-104 70l-8355 6c-94 0-151-33-128-74l522-909c23-40 105-73 182-73l6872 54c76 1 169 33 205 71l806 855z"/><path fill="#4C4C4D" fill-rule="nonzero" d="M14340 12928c-8 17-43 31-77 30l-217-1c-35 0-56-14-46-31l60-111c9-17 44-31 78-31l210 2c33 0 54 14 46 31l-54 111zM14774 12930c-7 17-40 31-75 31l-217-1c-35-1-57-15-49-32l51-110c8-17 42-31 76-31l209 2c33 0 55 14 49 31l-44 110zM15208 12933c-6 17-38 31-73 30l-217-1c-34 0-58-14-51-31l42-110c6-17 38-31 72-31l209 2c34 0 57 14 52 31l-34 110zM15641 12936c-4 16-35 30-70 30l-217-1c-34-1-59-15-54-31l33-111c4-16 36-30 69-30l210 2c33 0 58 14 54 31l-25 110zM16074 12938c-2 17-32 30-67 30l-217-1c-34 0-60-14-56-31l23-110c3-16 33-30 67-30l209 2c33 0 59 14 57 31l-16 109zM16508 12941c-1 16-30 30-65 30l-217-1c-34-1-61-15-59-31l13-110c2-17 31-30 65-30l209 2c34 0 60 14 59 31l-5 109zM16941 12943c1 17-27 30-62 30l-216-1c-35 0-63-14-62-31l3-109c1-16 29-30 62-30l209 2c34 0 62 14 62 31l4 108zM17374 12946c2 16-24 30-59 30l-217-2c-34 0-63-14-64-30l-6-109c-1-16 26-30 59-30l210 2c33 0 62 14 64 31l13 108zM17807 12948c4 17-21 30-56 30l-217-1c-34 0-65-14-67-31l-15-108c-3-16 23-30 56-30l210 2c33 0 63 14 67 30l22 108zM14220 13179c-8 17-44 31-81 31l-227-1c-37 0-59-14-49-31l60-111c9-17 46-31 81-31l220 1c35 0 57 14 49 31l-53 111zM14675 13181c-6 17-42 31-78 31l-227-1c-37 0-60-14-52-31l51-111c8-17 43-31 78-31l220 1c35 0 59 14 52 31l-44 111zM15130 13183c-5 17-39 30-75 30l-228-1c-36 0-61-14-54-31l41-110c7-17 41-31 76-31l220 1c35 1 60 15 54 31l-34 111zM15585 13184c-4 17-36 31-73 31l-227-1c-36 0-62-14-57-31l32-110c5-17 37-31 73-31l220 2c35 0 61 14 57 31l-25 109zM16040 13186c-2 17-34 31-70 30h-228c-36-1-63-14-59-31l22-110c4-17 35-30 70-30l221 1c35 0 61 14 59 31l-15 109zM16495 13188c-1 16-31 30-68 30l-227-1c-36 0-64-14-62-31l13-109c2-17 32-30 67-30l220 1c35 0 63 14 63 31l-6 109zM16950 13189c0 17-29 31-65 31l-228-1c-36 0-65-14-65-31l4-109c1-17 30-30 65-30l220 1c35 0 64 14 65 31l4 108zM17404 13191c2 17-26 30-62 30l-227-1c-37 0-67-13-68-30l-6-109c-1-16 27-30 62-30l220 1c36 1 66 14 68 31l13 108zM17859 13193c3 16-23 30-60 30l-227-1c-36 0-68-14-70-30l-16-109c-2-16 25-30 60-30l220 2c35 0 67 13 70 30l23 108zM14577 13431c-7 17-44 31-82 31l-717-1c-38 0-62-14-52-31l60-111c9-17 47-31 84-31l695 2c37 0 62 14 55 31l-43 110z"/><path fill="#4C4C4D" fill-rule="nonzero" d="M14577 13431c-7 17-43 31-81 31h-239c-38 0-62-14-55-31l51-111c8-17 45-31 82-31l230 1c37 0 62 14 55 31l-43 110zM15053 13432c-5 17-40 31-78 31h-239c-38-1-64-14-57-31l41-111c7-17 42-31 79-30h231c37 0 62 14 57 31l-34 110zM15530 13433c-4 17-38 31-76 31l-238-1c-38 0-66-14-61-31l32-110c5-16 39-30 76-30l231 1c37 0 64 14 60 30l-24 110zM16006 13434c-2 17-35 30-73 30h-238c-38 0-67-14-63-31l22-109c4-17 37-31 73-31l231 1c37 0 65 14 63 31l-15 109zM16482 13435c-1 17-32 30-70 30h-238c-38 0-68-14-66-31l13-109c2-17 34-31 71-30h230c37 0 67 14 66 31l-6 109zM16959 13436c0 16-30 30-68 30h-239c-37-1-68-14-68-31l4-109c0-17 31-30 68-30h230c37 1 68 14 69 31l4 109zM17836 13085c-3-17-35-30-70-30l-220-2c-35 0-62 14-60 30l25 175c3 22-33 40-81 40l-310-1c-37 0-66 14-65 30l6 109c1 17 32 30 70 30l341 1h340c58 0 101-21 95-47l-71-335zM13981 13682c-9 17-48 31-87 31h-249c-40 0-65-14-56-31l60-111c10-17 49-31 87-31h242c39 0 64 14 55 31l-52 111zM14479 13682c-7 17-45 31-85 31h-249c-39 0-65-14-58-31l51-111c8-17 46-31 84-31l242 1c38 0 65 13 58 30l-43 111zM16548 13543c-39 0-102-1-140-1h-848c-39 0-102-1-141-1h-711c-38 0-75 14-81 31l-42 110c-6 17 21 31 61 31h959c40 0 105 0 145-1h1057c40 0 72-13 72-30l-2-109c-1-16-33-30-71-30h-258zM17465 13682c2 17-28 30-68 30h-249c-39 0-73-13-74-30l-6-109c-1-16 30-30 69-30h241c39 0 72 14 74 31l13 108zM17963 13682c4 16-26 30-66 30h-248c-40 0-75-13-77-30l-16-108c-2-17 28-30 66-30h242c38 0 72 14 76 30l23 108zM18581 12953c6 16-18 30-52 30l-217-2c-34 0-67-13-72-30l-32-108c-5-16 19-29 52-29l209 1c34 1 66 14 72 31l40 107zM19014 12956c7 16-15 29-50 29l-216-1c-35 0-68-14-74-30l-42-108c-7-16 16-29 49-29l209 2c33 0 67 13 75 30l49 107zM19447 12958c9 16-12 30-47 29l-216-1c-35 0-70-14-78-30l-51-107c-8-16 13-29 47-29l209 2c33 0 68 13 77 30l59 106zM18671 13196c6 16-19 30-55 30l-227-1c-37 0-71-14-75-30l-33-108c-5-16 20-30 55-30l220 2c35 0 69 13 75 30l40 107zM19125 13198c8 16-16 29-52 29l-227-1c-37 0-72-13-78-30l-42-107c-6-16 17-30 52-29l220 1c35 0 70 13 78 30l49 107zM19580 13199c8 17-14 30-50 30l-227-1c-37 0-73-13-81-30l-51-107c-8-16 15-29 50-29l220 1c35 0 71 14 80 30l59 106zM18851 13682c6 16-21 30-61 30h-248c-40 0-77-14-82-30l-32-108c-5-16 22-30 61-30l241 1c39 0 75 13 81 30l40 107zM19349 13682c7 16-19 30-59 30h-248c-40 0-78-14-84-30l-42-107c-7-17 20-30 58-30h241c39 0 77 14 84 30l50 107zM19846 13682c9 16-16 30-56 30h-248c-40 0-79-14-87-30l-51-107c-8-16 17-30 56-30l241 1c38 0 77 13 86 29l59 107zM19237 13440c7 16-17 30-56 30l-237-1c-38 0-75-13-81-30l-42-107c-6-16 18-30 55-30l231 1c37 0 73 14 80 30l50 107zM20281 12963c12 16-7 30-41 29l-217-1c-34 0-71-14-82-30l-69-106c-11-16 8-29 41-29l209 1c34 1 71 14 82 30l77 106zM20714 12966c13 16-4 29-39 29l-216-2c-35 0-73-13-85-29l-79-106c-12-16 5-29 39-29l209 2c33 0 71 13 85 29l86 106zM21147 12968c14 16-2 30-36 29l-217-1c-34 0-74-13-87-30l-89-105c-13-16 3-29 36-29l209 2c34 0 73 13 88 29l96 105zM20456 13203c11 16-9 29-45 29l-227-1c-36 0-75-13-85-30l-70-106c-10-16 10-29 45-29l219 1c36 0 74 14 86 30l77 106zM20910 13204c13 17-6 30-42 30l-227-1c-36 0-76-14-88-30l-79-105c-12-17 7-30 42-30l219 1c36 1 75 14 88 30l87 105zM21364 13206c15 16-3 29-39 29l-227-1c-37 0-77-13-91-29l-88-105c-14-17 4-30 39-29l220 1c35 0 75 13 90 29l96 105zM20630 13442c12 17-9 30-47 30l-238-1c-38 0-78-13-89-29l-69-106c-11-17 11-30 47-30l231 1c37 0 76 13 88 30l77 105zM21106 13443c13 16-7 30-45 30l-238-1c-38 0-79-13-91-29l-79-106c-12-16 8-30 45-29h230c37 0 78 14 91 30l87 105zM21582 13444c14 16-5 29-43 29h-238c-37 0-80-13-93-30l-89-105c-13-16 6-29 42-29l231 1c37 0 79 13 93 29l97 105zM20805 13682c12 16-11 29-51 29h-248c-40 0-81-13-92-29l-69-106c-11-16 12-30 50-30l241 1c39 0 80 13 92 29l77 106zM21302 13682c13 16-8 29-48 29h-248c-40 0-82-13-95-29l-79-106c-12-16 10-29 48-29h241c39 0 81 13 95 30l86 105zM21799 13682c15 16-5 29-45 29h-248c-40 0-84-13-97-29l-89-105c-14-16 7-30 45-30l241 1c39 0 82 13 97 29l96 105z"/><path fill="#FEFEFE" fill-rule="nonzero" d="M21329 12299l2-95-40 13-233-244c-8-16-33-28-57-28l-1618-16c-24 0-50 12-57 28l-287 250v91c0 33 12 29 45 29h2200c32 0 45-9 45-28z"/><path fill="#646465" fill-rule="nonzero" d="M21329 12194l-271-326c-8-15-33-28-57-28l-1618-16c-24 0-50 13-57 29l-287 341c-8 16 12 28 45 28h2200c32 0 53-12 45-28z"/><path fill="#99DBF8" fill-rule="nonzero" d="M20934 11868l-1462-15-222 340 1879 1-195-326z"/><path fill="#464747" fill-rule="nonzero" d="M21109 12056h3c10-2 15-13 9-21l-44-68c-4-5-9-7-15-6-9 2-14 13-9 21l41 68c3 5 9 8 15 6zM19355 11994c0 16-21 30-46 30-26 0-46-14-46-30 0-17 20-31 46-31 25 0 46 14 46 31zM21155 12088c0 6-6 11-15 12s-16-4-17-9c0-6 7-11 15-12 9 0 16 4 17 9z"/><path fill="#4C4C4D" fill-rule="nonzero" d="M25163 12559l-2531-16c-148-1-221 178-114 281l1190 1142c74 71 174 110 277 109l2666-30c172-2 246-218 111-324l-1370-1082c-65-51-146-79-229-80z"/><path fill="#FEFEFE" d="M8921 5494c893 74 1725 143 2500 208 721 60 1399 116 2033 169-4 509-8 1016-12 1520-5 503-9 1005-13 1504-629 44-1299 91-2013 141-766 54-1587 111-2469 173-4-612-8-1228-13-1845-4-620-9-1244-13-1870z"/><path fill="#1FA699" d="M8921 5494c893 75 1725 144 2500 208 721 60 1399 117 2033 169 0 52 0 104-1 156-635-48-1311-99-2033-153-774-58-1605-121-2498-188 0-64-1-128-1-192z"/><path fill="#F47E60" d="M10292 6854c70 2 126 74 126 161 0 88-56 158-124 157-70-2-127-74-127-162-1-88 56-158 125-156zm55 253c-38-1-75-1-113-2v-4c19-29 38-59 57-89l-57-90v-4c36 1 73 2 109 3 0 11 2 23 3 34h-4c-1-10-3-16-7-20s-8-6-14-6c-21-1-43-2-64-2 16 26 32 51 49 77-18 28-37 56-54 84 23 0 46 1 70 1 4 0 8-1 13-3 3-1 6-3 8-6s4-8 5-15h4c-2 15-4 28-5 42zM12050 6904c59 2 106 69 106 149 0 81-48 146-107 145s-107-68-107-149c0-82 49-146 108-145zm45 234c-32-1-64-2-96-2v-3c15-28 32-55 49-83-17-27-33-55-49-83v-3c31 0 62 1 94 2 0 11 1 21 2 31h-3c-1-8-3-14-6-18s-7-6-13-6c-18 0-36-1-54-1 14 24 28 47 41 71-15 25-31 51-47 77 20 0 40 1 60 1 4 0 8-1 12-2 3-1 5-3 7-6s3-8 5-14c0 0 1 1 2 1-2 13-3 25-4 38zM10943 6028c293 20 579 39 857 57 7 1 13 9 13 18-1 133-1 265-2 397 0 10-5 17-12 17-278-13-563-27-856-40-8-1-13-9-13-19-1-137-1-275-1-413 0-10 6-17 14-17zm570 341c0 2-1 4-1 7 0 2-1 5-1 8-1 2-2 4-3 7l-3 6c-1 1-3 3-5 4s-4 1-6 1c-1 0-2 0-3-1-1 0-2 0-2-1-1 0-2-1-3-2 0-1-1-1-1-3-2 8-3 15-4 22v1l-1 1c0-1 0 0-1 0h-3l-1-1v-1c3-21 6-42 10-63v-1c1-1 2-1 3-1h1c0 1 0 0 1 1v1c0 3-1 6-1 8 0-1 1-2 2-3s1-2 3-3l3-3c2-1 3-1 5-1s3 1 5 2c1 1 2 2 3 4 1 1 2 3 2 5s1 4 1 6zm-7 0c0-1 0-2-1-4 0-1 0-2-1-3 0-1 0-1-1-2-1 0-2-1-3-1s-2 1-4 1c-2 1-3 3-4 5l-3 6c-1 2-1 5-2 8 0 3-1 6-1 9 1 2 2 4 3 5s3 2 5 2c1 0 3 0 4-1l3-3c1-2 1-3 2-5s1-4 1-6c1-2 1-4 1-5 1-2 1-4 1-6zm-15-149v3l-3 3c-15 19-30 37-44 55 9 22 18 44 27 67 1 1 1 2 1 3 1 1 1 1 1 2 0 0 0 1-1 2l-1 1h-9c-1 0-1-1-2-1s-1-1-2-1v-2c-10-24-20-47-29-71-4 23-7 46-10 69 0 1 0 1-1 2l-1 1h-9c-1 0-2-1-3-1v-1-1c7-45 14-90 20-134v-2c1 0 1 0 2-1h9c1 0 2 1 2 1l1 1v2c-3 20-6 41-10 61 16-19 31-39 46-59 1-1 1-1 1-2 1 0 2 0 2-1h10c1 1 2 1 2 1l1 1v2zm104 63c0 4 0 9-2 13s-4 7-8 10c-4 2-8 4-14 5s-12 2-20 1h-9v13c0 7 1 13 3 17 3 4 7 6 13 6h9c3-1 5-2 8-3 1 0 3-1 4-1 1-1 2-1 3-1 0 0 1 0 1 1v8c-1 1-1 2-1 2-1 1-1 2-2 3 0 0-1 1-3 2-1 1-3 1-6 2-2 0-5 1-7 1h-8c-5 0-9-1-13-2-3-2-6-4-8-7-3-4-5-7-6-12s-2-10-2-16c0-5 0-10 1-15s2-10 4-16c1-5 3-10 6-15 2-4 4-8 8-12 3-3 7-6 11-8s9-2 14-2c4 0 8 1 11 3 3 1 6 3 8 6 2 2 3 5 4 8s1 6 1 9zm-13 0c0-3-1-6-3-9-2-2-5-3-9-4-4 0-7 1-9 3-3 1-5 3-8 5-2 3-4 6-5 10-1 3-3 7-3 11 2 0 5 0 7 1 6 0 11 0 14-1 4-1 8-2 10-3 2-2 4-4 5-6 0-2 1-4 1-7zm72-65c-6 11-11 23-15 34-4 12-7 23-10 33-2 11-4 22-5 32-1 11-2 20-2 30v25c0 4 1 8 2 12s1 8 2 13v3c-1 0-1 1-2 1h-6l-1-1s-1 0-1-1h-1c-2-9-3-18-5-27-1-9-2-19-2-31 1-8 1-18 2-28s3-20 6-31c3-10 6-21 10-32s10-23 16-35h1c0-1 0-1 1-1 1-1 1-1 2-1h3c2 0 3 1 3 1 1 0 1 0 2 1l1 1c0 1-1 1-1 2zm51 53v4c0 1-1 2-1 2v2l-2 2h-1c-6 0-12-1-18-1-2 18-5 36-8 53-1 2-1 3-1 5v5c0 3 0 6 2 8 1 1 3 2 5 3 2 0 3-1 4-1s2 0 3-1c1 0 1 0 2-1h1c1 0 1 0 1 1 0 0 1 1 1 2v3c-1 1-1 2-1 3s-1 2-1 3-1 2-1 2l-2 2c-1 0-2 0-3 1h-3c-2 1-3 1-4 1-3-1-6-1-8-2s-3-2-5-4-3-5-4-7c0-3-1-6-1-11 0 0 1-1 1-2v-3-4c1-1 0-2 1-3 3-18 5-36 8-54h-10c-1 0-1 0-2-1v-3-3c1-1 0-3 1-4 0-1 1-2 1-3 1-1 1-1 2-1 3 0 7 0 10 1 1-8 2-16 4-23v-1l1-1c1-1 2-1 3-1h6c1 0 1 1 1 1l1 1c1 1 1 1 1 2-2 7-3 15-4 23 6 0 13 0 19 1 0 0 1 0 1 1v3zm-4 130c6-12 11-23 15-34 3-12 7-23 9-34 3-11 4-22 6-32 1-10 2-20 2-29 0-4-1-8-1-12 0-5 0-9-1-13 0-4 0-8-1-12 0-5 0-9-1-12-1-1-1-2-1-2 0-1 0-1 1-2 0 0 1-1 2-1h3s1 0 2 1h2s0 1 1 1v1c2 8 4 17 5 26s2 19 2 30c0 9-1 19-2 28-1 11-3 21-5 31-3 10-7 21-11 33-4 11-9 22-15 34l-1 1-1 1h-9l-1-1-1-1c0-1 1-2 1-2zm-566-224c0 6-1 13-2 20-1 6-3 13-5 19s-5 12-9 18c-4 5-9 10-14 14s-11 8-19 10c-6 2-15 3-24 2-6 0-12 0-18-1-3 23-6 46-10 68 0 1 0 2-1 3 0 1-2 1-3 2-2 0-4 0-5 1h-9c-2-1-5-1-7-1-3-1-4-1-5-2-1 0-2-1-3-2v-3c10-63 20-127 30-191 0-5 2-9 4-11 3-2 6-4 10-3 11 0 23 1 35 2 4 0 9 1 12 1 3 1 7 2 10 3 5 1 10 4 14 7s7 6 10 10l6 15c2 6 3 13 3 19zm-35 3c0-5-1-9-3-14-2-4-4-6-9-8-2-1-3-2-6-2-2-1-4-1-7-1-5-1-10-1-14-1-4 24-8 48-11 72 5 0 10 1 15 1s9-1 12-2 6-3 9-5c2-2 5-5 7-8s3-7 4-10c1-4 2-8 2-11 1-4 1-7 1-11zM11017 6808c267 8 528 17 782 25 6 0 12 8 12 17-1 132-1 264-2 395 0 9-5 17-11 16-254-2-515-6-781-9-7 0-12-8-12-17v-410c0-10 5-17 12-17zm360 366c0-36-17-28-20-21-8 20 15 44 36 27 15-12 20-32 22-60 2-38 0-84 0-122 0-25-4-103 19-95 1 2 1 5 1 8 3 27 18 19 20 13 9-25-25-50-47-13-7 11-9 29-11 47-2 44 2 142-1 183-2 18-5 36-19 33zm-87-60v-130h12v65c15-22 29-43 45-64h16c-13 18-25 35-38 52 13 27 26 53 40 79-6 0-11 0-17-1-10-22-21-44-31-66-5 7-10 14-15 20v46c-5 0-9-1-12-1zm197-27c3 2 7 2 11 3-2 10-5 17-10 22s-11 8-19 8c-9-1-16-5-22-13-6-9-8-21-8-36 0-16 3-28 8-37 6-9 13-13 22-13 9 1 16 5 21 14 5 8 8 21 8 36v4c-16 0-32 0-48-1 1 11 3 18 6 24s8 9 13 9c4 0 8-2 11-5s5-8 7-15zm-36-26c12 1 24 1 36 1-1-8-2-14-4-18-4-6-8-9-14-9-5 0-10 2-12 7-4 4-6 11-6 19zm81 96c-5-11-11-24-15-39s-6-31-6-46 1-28 4-40c5-15 10-30 18-45h7c-4 13-7 21-9 27-2 8-5 16-6 25-2 11-3 22-3 33 0 28 6 56 18 85h-8zm75 1h-8c12-28 18-56 18-84 0-11 0-22-2-33-2-9-3-17-6-26-1-5-5-14-9-26h7c8 15 13 30 17 45 3 13 5 26 5 40 0 16-3 31-7 45-4 15-9 28-15 39zm75-36v-12c-4 9-10 13-18 13-5 0-10-2-14-6s-7-10-10-18c-2-7-3-15-3-25 0-9 1-18 3-25 2-8 5-13 10-17 4-5 9-7 14-6 4 0 7 1 10 3 4 3 6 6 7 10v-46h11v129h-10zm-34-48c0 12 1 21 5 27s8 9 12 9c5 0 9-2 12-8 4-5 5-14 5-26s-1-22-5-28c-3-6-7-9-12-9s-9 3-12 9c-4 5-5 14-5 26zm-575 37v-166c5 0 10 1 15 1v165h-15zm517-62c-5 0-12 0-18-1v82c1 3 2 5 4 5 1 0 2-1 3-1 1 3 1 6 2 8-2 1-4 1-6 1-4 0-6-2-8-6-1-3-2-8-2-15v-74h-18v-10c14 1 29 1 43 1v10zm156 3c-6 0-12 0-18-1v82c1 3 2 4 4 4h3c0 3 1 5 1 8-1 1-3 1-5 1-4 0-7-2-9-7-1-3-1-7-1-14v-74h-18v-10c14 1 29 1 43 1v10zM10943 7585c292-1 576-2 853-3 7 0 13 7 13 16-1 132-1 263-2 394 0 9-6 16-12 16-277 7-560 14-852 20-7 0-13-7-13-16v-410c0-10 6-17 13-17zm600 357c0 1 0 2-1 2 0 1-1 1-3 1h-1c-1 0-1-1-2-1v-1-1c0-4 1-8 2-12-1 2-2 3-3 5s-3 4-5 6c-1 1-3 2-6 3-2 1-4 2-6 2s-4 0-5-1c-2-1-3-2-4-3-2-1-3-3-3-4-1-2-1-4-2-5 0-2-1-4-1-6v-5c0-3 0-6 1-9 0-4 1-8 2-11 0-3 2-7 3-11 2-3 3-6 5-9 2-2 5-5 7-6 3-2 5-3 9-3 1 0 3 0 4 1 2 0 3 1 4 2s2 1 4 3c0 1 1 2 2 3 2-12 3-25 5-37 0-1 1-1 1-1 0-1 0-1 1-1l1-1h5l1 1s1 0 1 1v1c-6 32-11 65-16 97zm-1-48c-2-3-4-6-5-8-3-2-5-2-7-2s-4 0-6 2c-1 1-3 3-4 5l-3 6c-1 3-1 6-2 9-1 2-1 5-2 8v7c0 5 1 9 2 11 1 3 3 3 5 3s5 0 7-1c2-2 4-4 6-7 1-2 3-5 4-9s3-8 3-12c1-4 1-8 2-12zm54-18v5c-1 0-1 1-1 1 0 1-1 1-1 1 0 1 0 1-1 1h-13c-1 12-3 25-5 37 0 1 0 2-1 3v3c0 3 1 4 2 6 1 1 2 1 3 1h3c1 0 1 0 2-1h1l1-1c1 0 1 0 1 1v5c-1 1-1 2-1 2 0 1 0 1-1 2l-1 1c-1 0-1 1-2 1s-2 0-3 1h-2c-2 0-3-1-5-1-2-1-3-2-4-3s-2-2-3-4v-7-2-2-2c0-1 0-2 1-3 2-12 4-24 5-37h-6-1v-2-2-3c1-1 1-1 1-2l1-1h7c1-5 1-10 2-16l1-1 1-1h6l1 1v1c-1 5-1 11-2 16h14v2zm-123-121c0 1-1 1-1 2h-4-3v-1c-1 0-1 0 0-1 0-4 1-8 2-13l-3 6c-1 2-3 3-5 5-1 2-4 3-5 4-3 1-5 1-7 1s-4 0-6-1c-1-1-2-2-4-3-1-1-1-2-2-4s-2-4-2-6c0-1 0-3-1-5v-4c0-4 0-7 1-10 0-4 1-7 2-11s2-7 3-11c2-3 3-6 5-9 3-2 5-4 7-6 3-2 5-3 9-3 1 0 3 1 4 1 2 1 3 1 4 2l3 3 3 3c2-12 4-24 6-37v-1l1-1h1c1-1 2 0 2 0 1 0 2-1 3 0h1v1c1 0 1 0 0 1-5 33-9 65-14 98zm-2-49c-2-3-4-6-6-7-2-2-4-3-6-3-3 0-4 1-5 2-2 1-4 3-5 5s-2 4-3 7c-1 2-2 5-2 8-1 2-1 5-2 8v7c0 5 0 9 2 11 1 3 3 4 5 4s5-1 6-2c3-2 4-4 6-6 2-3 4-6 5-10 2-3 2-7 3-12 1-3 1-7 2-12zm66-4c0 3 0 6-1 9s-4 5-6 7-5 3-9 4-9 2-15 2h-5c-1 2-1 3-1 5v4c0 5 1 8 2 11 2 3 5 4 10 4 2 0 4 0 6-1 2 0 4-1 5-2 1 0 3 0 3-1 1-1 1-1 2-1l1 1v3s0 1-1 2v2l-1 1c-1 1-1 2-2 2-1 1-3 2-4 2-2 1-4 1-5 1-2 1-4 1-6 1-3 0-6-1-9-2-2 0-4-2-6-4-1-2-3-5-3-8-1-3-1-6-1-10v-10c0-4 1-8 2-11 2-4 3-7 4-11l6-9c2-2 5-4 7-6 3-1 7-2 10-2s6 1 8 1c2 1 4 3 5 4 2 2 3 4 3 6 1 2 1 4 1 6zm-9 1c0-3-1-5-2-6-1-2-3-3-6-3s-5 1-7 2-4 3-5 5-3 4-4 6c0 3-1 6-2 8h6c4 0 7 0 9-1 3-1 5-2 7-3s3-2 3-4c1-1 1-3 1-4zm75-49c-3 8-7 17-10 25s-5 15-7 23c-1 7-2 15-3 22s-2 14-2 20v8c1 3 1 6 1 9 1 3 1 5 1 8 1 3 1 6 1 8v3l-1 1h-4s-1 0-1-1h-1v-1c-1-5-3-11-4-18-1-6-1-13-1-20s0-13 1-20c1-6 3-13 4-21 2-7 4-15 8-23 2-7 6-15 10-23 0-1 0-1 1-1 0-1 0-1 1-1h3c1 0 2-1 2 0h1c1 0 1 1 1 1 0 1 0 1-1 1zm36 34v3c0 1-1 1-1 2v1l-1 1-1 1h-13c-2 12-3 24-5 36-1 1 0 2-1 4v3c0 2 0 4 1 5s3 2 4 2 2 0 3-1h2c0-1 1-1 1-1h2v6c-1 1 0 1-1 2v1c-1 1-1 1-2 1-1 1-1 1-2 1-1 1-2 1-3 1h-7c-2-1-3-2-4-3s-2-3-2-5c-1-2-1-4-1-7v-2-2-2c0-1 0-2 1-3 2-12 4-24 5-36h-6c-1 0-1 0-1-1-1 0-1-1-1-2v-2c0-1 1-1 1-3 0 0 0-1 1-2h8c1-5 1-11 2-16v-1c1 0 1 0 1-1h8v2c0 5-1 11-2 16h14v2zm-3 89c4-8 8-16 10-24 3-8 5-16 7-23 1-8 3-15 4-22 0-7 1-14 1-20v-9c0-2 0-5-1-8 0-3 0-6-1-9 0-2-1-5-1-8v-1-1c1 0 1-1 1-1h4c1 0 1 1 2 1h1v1c1 5 2 11 3 18 1 6 1 13 1 20 0 6-1 13-1 19-1 7-2 14-4 21-2 8-4 15-7 23s-7 16-11 24v1s-1 0-1 1h-2-4c-1 0-1 0-1-1-1 0-1 0-1-1l1-1zm-232 28c97-2 194-3 290-4v7c-96 1-193 3-290 4v-7zm-18 56v5c0 1-1 3-1 4 0 2 0 4-1 5-1 2-1 3-2 5-1 1-2 3-3 4l-3 3c-2 1-3 1-5 2-1 1-3 1-6 1h-7-1v-1h-1v-1c2-14 4-27 7-40v-3h9c3 0 4 0 6 1s3 2 5 3c1 2 2 3 3 5v7zm-5 0v-4c0-2-1-3-2-4s-2-2-3-2c-1-1-3-1-4-1h-5c-2 12-4 23-6 35h5c2 0 4-1 6-1l3-3c1-1 2-3 3-4 1-2 2-3 2-5 1-2 1-4 1-5v-6zm-16-97s0 1-1 2c0 0-1 1-1 2-11 13-20 27-30 39 6 15 12 30 19 45v4c0 1 0 1-1 1l-1 1h-7l-1-1v-1c-6-16-13-32-19-48-3 16-5 32-8 48v2h-1s-1 1-2 1h-4c-1 0-1-1-2-1h-1v-2c5-30 9-61 14-92 0-1 1-1 1-1s0-1 1-1h2s1-1 2-1 2 1 2 1h1c1 0 1 1 1 1v1c-2 14-4 28-6 43 10-15 21-29 31-43 1-1 1-1 1-2h1c1 0 1-1 2-1h5l1 1s1 0 1 1v1zm-210 5v13c-1 6-1 11-3 16 0 5-2 10-3 15-2 5-4 11-7 15-2 5-5 9-9 13-3 4-7 8-12 11-4 3-9 5-15 7-5 2-12 3-20 3h-31c-1 0-1-1-2-2 0 0-1-1-1-2v-5c7-42 13-84 20-127 0-3 1-6 2-7 2-1 4-2 6-2 9 0 17-1 27-1 9 0 16 2 22 4s11 5 15 10c3 4 7 9 8 16 2 6 3 14 3 23zm-23 3c0-5 0-9-1-13s-3-7-6-10c-1-3-4-5-8-7-3-1-7-2-14-2h-11l-15 99c3 0 7-1 12-1 6 0 11-1 15-3s7-4 11-8c3-3 5-7 7-11 3-5 4-10 6-14l3-15c1-5 1-10 1-15zM12309 6935c138 4 275 8 410 11 3 0 7 5 6 10 0 76 0 152-1 228 0 5-3 9-7 9-134-2-271-4-409-6-4 0-7-5-7-10 0-77 0-155 1-232 0-6 3-10 7-10zm31 175c5-32 10-65 16-98 9 0 19 0 29 1 4 0 8 0 11 2 2 2 5 5 6 9 2 4 3 8 3 13 0 4-1 8-2 12-2 4-3 8-5 11-1 3-3 5-5 6-2 2-4 2-6 3-5 1-9 2-14 2h-17c-3 13-5 26-7 39h-9zm17-51c6 1 11 1 16 1 6 0 10-1 13-3s5-4 7-8 3-7 3-12c0-3-1-6-2-8s-1-3-3-4-5-2-10-2h-18l-6 36zm48 52c3-23 7-47 11-71 2 0 5 0 8 1-1 4-2 9-3 14 3-6 5-10 8-12 3-3 5-4 8-4 1 0 4 1 6 3-1 4-2 8-4 11-1-2-3-2-5-2s-5 2-9 6c-3 5-6 14-8 26-1 10-3 19-4 29-3 0-6 0-8-1zm34-26c0-14 3-25 9-34 5-8 11-11 19-11 6 0 11 3 15 8 4 6 5 13 5 22 0 8-1 15-3 23-2 7-6 12-10 16-5 3-9 5-14 5-4 0-8-1-11-4-4-2-6-5-8-10-1-4-2-9-2-15zm9-1c0 7 1 12 3 15 3 4 5 6 9 6 2 0 3-1 6-2 1-1 3-2 4-4 2-2 4-5 4-7 2-3 3-6 4-10 0-4 1-8 1-12 0-7-1-12-4-15-2-4-5-6-9-6-2 0-4 1-7 3-2 1-4 4-6 8-2 3-3 7-4 12-1 4-1 9-1 12zm79 4c2 1 6 1 8 1-2 9-5 16-9 20s-8 6-13 6c-6 0-10-3-14-8-3-5-5-12-5-21 0-8 2-15 3-23 3-7 6-13 10-16 5-4 9-6 14-6s10 3 13 7 5 10 5 17c-3 0-6 1-9 1 0-5 0-8-3-11-2-3-4-4-7-4-4 0-6 2-8 5-4 2-5 7-7 13-1 6-2 12-2 18s1 11 3 14c1 3 4 5 7 5 2 0 5-1 8-4 2-3 4-8 6-14zm51 3c2 0 6 1 8 1-1 6-4 11-8 16-5 6-10 8-16 8-4 0-8-1-10-4-3-2-6-6-7-11-2-4-3-10-3-16 1-7 2-15 4-22 3-7 6-12 10-16 4-3 9-5 14-5 6 0 11 3 14 9 4 5 5 12 5 21v11c-13-1-25-1-38-1v3c0 7 1 12 4 15 2 4 4 6 7 6s6-1 9-4c3-2 5-6 7-11zm-26-19c10 1 19 1 29 1v-3c0-6-1-10-3-14-2-3-5-4-8-4-4-1-8 1-11 5-2 3-5 8-7 15zm43 19c3 0 6-1 9-1 0 4 0 7 1 9 1 3 2 5 4 6 2 2 5 3 7 3 4 0 7-1 9-4 1-1 3-4 3-7 0-2-1-4-3-6 0-2-3-4-8-7-4-2-7-4-8-6-2-2-4-4-5-6-1-3-1-6-1-9 0-5 1-10 4-14s8-6 13-5c7 0 12 2 15 6s5 9 5 16c-3 0-6 1-9 1 0-4-1-8-3-10-2-3-5-4-8-4s-5 0-7 2c-1 2-2 4-2 7 0 2 0 4 1 5 1 2 4 4 8 6 6 4 11 7 12 10 3 3 4 8 4 13 0 3-1 7-3 10-1 3-3 6-6 8-4 2-7 3-12 3s-9-2-14-6c-4-5-6-11-6-20zm49 1c2 0 5-1 8-1 0 4 0 7 1 9 1 3 2 4 4 6s4 3 7 3c4 0 7-1 8-4 2-1 3-4 3-7 0-2 0-4-1-6-2-2-4-4-9-7-4-2-7-4-8-6-3-2-4-4-5-6-1-3-1-5-1-9 0-5 1-10 4-14s8-6 13-5c6 0 11 2 15 6 3 4 4 10 4 16-2 0-5 1-8 1 0-4-1-8-3-10-2-3-5-4-8-4s-5 1-7 2c-2 2-2 4-2 7 0 2 0 4 2 5 0 2 3 4 6 6 7 4 11 7 13 10 3 3 4 8 4 13 0 3-1 7-3 10-1 3-3 6-6 8-4 2-7 3-11 3-6 0-11-2-15-6-4-5-6-11-5-20z"/><path fill="#F47E60" fill-rule="nonzero" d="M9486 6990v1c0 1 1 2 0 2v2c0 1 0 1-1 2v1c-1 0-2 1-2 1-10-1-18-1-28-1 0 0-1 0-1-1v-2-1-2-2c1 0 1-1 1-1 0-1 1-2 1-2h29c1 0 1 1 1 1v2zm65-51v3c0 1-1 2-1 2v2c-1 0-1 1-1 1 0 1-1 1-1 1-1 0-1-1-2-2-1 0-2-1-4-2-1-1-3-1-4-2-2-1-4-1-7-1-2 0-5 0-6 1-3 1-5 2-6 4s-2 3-2 6c-1 2-1 4-1 6 0 3 0 5 1 7 1 1 2 3 3 4 1 2 3 3 4 5 3 1 4 2 6 4 2 1 4 3 6 4 1 2 3 3 5 6 1 1 2 4 3 7 1 2 1 5 1 9s-1 8-2 12-4 8-7 11c-2 2-6 5-9 6-5 2-9 3-14 3-3 0-5 0-8-1-2-1-4-1-6-2-1-1-3-2-4-3-2-1-3-2-3-3-1 0-1-1-1-2v-2-2c1 0 1-1 1-2v-2c1 0 1-1 1-1h1c1 0 2 0 3 1s2 2 4 3c1 1 3 1 6 2 1 1 4 2 7 2s6 0 8-1 4-3 6-4c2-2 3-5 4-7 0-2 1-5 1-8 0-2 0-4-1-6s-2-3-3-5c-2-1-3-2-5-4-2-1-4-3-6-4-1-1-4-3-5-4-2-2-3-4-5-6-1-2-2-4-3-7-1-2-2-6-2-9 0-4 1-8 2-12 2-3 4-7 6-9 3-3 6-5 9-7 4-1 8-2 12-2 3 0 4 1 6 1s4 1 6 1c1 1 3 2 4 3 0 1 1 1 2 2l1 1v2zm61 38c0 4 0 7-2 10s-3 5-6 7-7 4-12 5c-4 1-10 1-16 1h-7c-1 2-1 3-1 5v5c0 5 1 9 3 12s6 4 11 5c3 0 5-1 7-1s5-1 6-1c2-1 3-2 4-2s2-1 2-1c1 0 1 0 1 1v5c0 1-1 2-1 3 0 0 0 1-1 1 0 1-1 2-2 2-2 1-3 1-5 2-2 0-4 0-7 1h-6c-4 0-7-1-10-2s-6-2-7-5c-2-2-4-5-5-8-1-4-1-7-1-12v-11l3-12c1-4 3-8 5-11 1-4 4-7 6-9 3-3 6-5 9-7 4-1 7-2 11-2s7 1 10 2 5 3 6 5c2 2 3 3 4 5 0 3 1 5 1 7zm-11 1c0-3-1-5-3-7-1-2-4-2-7-3-3 0-5 1-8 2-2 1-4 3-6 5-1 2-3 4-4 7-1 2-2 5-3 8 3 1 5 1 7 1 5 0 8-1 11-1 4-1 6-2 8-3s3-2 4-4 1-3 1-5zm60-14v4l-1 1c-1 1-1 1-1 2 0 0 0 1-1 1h-16c-2 13-4 26-6 40v7c0 3 0 5 1 6s2 2 5 2h3c0-1 1-1 1-1 1 0 2-1 2-1h2c0 1 1 1 1 2s-1 1-1 2v3c0 1 0 1-1 2v2c-1 0-1 0-2 1-1 0-1 0-2 1h-6c-3 0-5 0-6-1-2 0-4-2-5-3-1-2-2-3-3-5 0-2-1-4-1-7v-3s1-1 1-2v-3-2c2-13 4-27 7-40-3 0-6 0-8-1h-2v-2c0-1 0-2 1-3v-3s1-1 1-2h9c1-6 2-12 4-17v-2h3c0-1 1-1 2-1s2 0 3 1h1s1 0 1 1v1c-1 6-2 11-3 17h15c1 0 1 0 2 1v2zm62 23c0 3 0 7-1 10-1 4-1 8-2 12s-3 8-4 12l-6 9c-3 3-5 6-8 7-3 2-6 3-10 3-2 0-3-1-5-1-2-1-3-1-5-2-1-1-3-2-4-3-1-2-2-3-3-5-2 12-4 24-5 35v2h-3c-1 0-2 1-3 1s-2-1-2-1h-2l-1-1v-1c6-34 10-67 16-100 0-1 1-2 1-2 1-1 3-1 4-1s2 0 3 1h1v1c1 0 1 0 1 1-1 5-2 9-3 14l3-6 5-5c3-2 5-4 7-5 3-1 6-1 8-1 3 0 6 1 8 2 3 2 4 3 6 6 1 2 2 5 3 8s1 6 1 10zm-12 1v-7c-1-1-1-3-2-5 0-1-1-2-2-3-2 0-3-1-5-1s-5 1-7 2c-2 2-5 4-6 7-3 3-4 6-6 10-1 4-3 8-4 13-1 4-1 9-2 13 2 4 5 7 7 8 2 2 5 3 8 3 2 0 4-1 6-2s4-3 5-5 3-4 4-7l3-9c0-3 0-6 1-9v-8zm80 2c0 4-1 8-1 12l-3 12c-1 4-3 7-4 11-2 3-4 6-7 8-3 3-5 5-9 6-3 1-6 2-10 2-5 0-9-1-12-2-2-1-5-3-7-6-2-2-3-5-4-8-1-4-1-8-1-12v-12c1-4 2-8 4-12 0-3 2-7 4-11 2-3 4-6 7-8 2-2 5-5 8-6 4-1 7-2 11-2s8 1 11 2c3 2 5 4 7 6s3 5 4 8c1 4 2 8 2 12zm-12 1v-8c-1-2-1-4-3-5-1-2-2-2-4-3-1-1-4-2-5-2-3 0-6 1-8 2s-4 2-5 4c-2 2-3 5-4 7-2 3-3 5-4 8s-1 6-2 9v16c1 3 2 4 3 6s3 3 4 4c2 0 4 1 6 1 3 0 5-1 7-2 3-1 4-3 6-4 2-2 3-4 5-7 0-3 1-5 2-8s2-6 2-9v-9zm48-48c0 2-1 3-1 4s-1 2-2 2l-2 2h-6c-1-1-2-1-2-2-1 0-1-1-1-3v-3c0-1 1-3 1-4l2-2c0-1 1-1 1-1 2-1 3-1 4-1s2 0 3 1c1 0 2 0 2 1 1 1 1 2 1 3v3zm-17 95v2h-1c-1 1-1 1-2 1h-5l-1-1c-1 0-2 0-2-1v-1c4-23 7-47 11-71l1-1c0-1 1-1 1-1h2c1 0 1-1 3 0h3l1 1v1c-4 24-7 48-11 71zm76-54v6c-1 2-1 4-1 5-3 15-5 30-7 45 0 0 0 1-1 1v1h-8s-1 0-1-1v-1c1-15 4-30 7-44v-5-4c0-3 0-6-2-8-1-2-3-3-5-3-3 0-5 1-7 2-3 2-4 4-7 7-1 2-4 6-5 10-2 3-3 8-4 12-2 11-3 22-5 32v1l-1 1s-1 0-2 1c-1 0-1 0-2-1-2 0-3 1-3 0h-1c-1 0-1-1-1-1v-1c4-24 7-48 11-71 0-1 1-1 1-1v-1c0-1 1 0 2-1h2c1 0 1 0 2 1h2v2c-1 4-1 9-2 13 1-1 2-3 3-5 2-2 3-4 5-6 2-1 5-3 7-4s5-1 8-1c2 0 5 0 7 2 1 1 3 2 5 4 1 2 1 4 2 6s1 5 1 7zm51-13v1c0 1-1 1-1 2v3l-1 1c0 1-1 1-2 1-5 0-10-1-15-1-1 13-4 27-5 40 0 1-1 2-1 4v3c0 3 1 4 1 6 1 1 3 2 5 2h3c1-1 1-1 2-1l1-1h2c1 1 1 1 1 2 0 0 0 1-1 2v3s0 1-1 2v1l-1 1c-2 1-2 1-3 1s-1 1-3 1h-3c-2 0-5-1-6-1-2-1-3-2-4-3-2-2-3-3-3-5-1-3-1-5-1-8v-2-2c0-1 1-2 1-3v-2c2-13 4-26 6-40h-9c0-1-1-2-1-3 0 0 1-1 1-2v-3c0-1 1-1 2-2 0-1 1-1 1-1h8c1-5 2-11 3-17v-1h1c0-1 1-1 2-1h7v3c-1 5-2 11-2 17h14c1 0 1 0 1 1s1 1 1 2zM10654 6961v5c-1 0-1 1-1 2v1h-2c-10 0-20 0-30-1-1 11-3 21-5 32h26c1 0 1 0 2 1v5l-1 1v2l-1 1-1 1c-9 0-18-1-26-1l-6 36h31s1 0 1 1v3c0 1 1 1 0 2v2s-1 1-1 2l-1 1h-38c-1 0-1-1-2-1v-1s-1-1-1-2v-2c5-29 9-59 14-88 0-2 1-4 2-4 1-1 1-2 3-2 12 1 24 1 36 1 1 0 1 1 1 3zm42 27v5c0 1-1 2-1 2v2c-1 0-1 1-2 1l-1-1h-1c-1 0-1-1-1-1h-2c-2 0-3 1-5 2-2 2-4 3-6 6s-3 6-4 10c-1 3-3 7-3 11-2 11-3 21-5 31v1h-1c-1 1-1 1-2 1h-4c-1 0-2 0-2-1h-1v-1c4-23 7-46 11-69v-1l1-1h7s0 1 1 1v1c-1 4-2 8-2 12 1-2 2-4 3-5 1-3 3-4 4-5 2-2 3-3 5-4 1-1 3-1 5-1h1c1 1 2 1 2 1h2l1 1v2zm42 1l-1 1v6c0 1-1 2-1 2l-1 1s-1 0-1-1h-1s-1-1-2-1h-2c-1 0-3 0-5 2-1 2-3 4-5 6-1 3-3 6-4 9-1 4-3 8-4 12-2 10-3 21-4 31v1h-1c-1 1-1 1-2 1h-3-2s-1 0-1-1c0 0-1 0-1-1v-1c4-22 7-45 11-68v-1c0-1 1-1 1-1h1c1 0 1-1 3 0h3v2c-1 4-1 8-2 12 1-2 2-4 4-5l3-6c2-1 4-2 5-3 2-1 3-1 5-1h2c1 1 1 1 2 1h2v1s1 1 1 2zm54 23v12c-1 4-2 8-3 11-1 4-2 7-4 11-2 3-4 5-6 8-3 2-5 4-8 5-3 2-6 2-10 2s-7 0-10-2c-3-1-5-3-6-5-2-2-4-5-4-8-1-4-2-7-2-11s0-8 1-12 1-8 3-11c1-4 2-7 4-10 2-4 4-6 6-9 3-2 5-4 8-5 3-2 6-2 10-2s7 1 10 2 5 3 6 5c2 3 3 5 4 9 1 3 1 6 1 10zm-10 1v-7c-1-2-2-4-3-5 0-1-2-3-3-3-2-1-4-1-6-1-2-1-5 0-6 1-2 1-4 2-6 4l-3 6c-2 3-3 6-3 8-1 3-2 6-2 9s-1 6-1 9 1 5 1 7c1 2 1 3 2 5 2 2 3 3 4 3 1 1 3 2 5 2 3 0 5-1 7-2s3-2 6-4c1-2 2-4 3-7 1-2 2-5 3-8 0-2 1-5 2-8v-9zm59-22v5c0 1-1 2-1 2 0 2 0 2-1 3h-1-1l-1-1c-1 0-1 0-1-1h-2c-2 0-3 1-5 2-2 2-4 4-5 6-2 3-4 6-5 10-2 3-2 7-3 11-2 11-3 21-5 31v1l-1 1h-2-4c-1 0-1 0-1-1h-2v-1c4-23 7-46 12-69v-1-1h7l1 1v1c-1 5-2 9-2 13l3-6c1-2 3-4 4-5 1-2 3-3 5-4 1-1 3-1 5-1h1c1 1 2 1 2 1 1 0 1 0 2 1h1v2zM12862 7043c0 3-1 7-1 11-1 5-2 9-2 14-2 4-3 8-5 13-1 4-4 8-6 11-3 3-6 6-10 8-3 2-8 3-12 3-4-1-7-1-10-3-3-1-5-3-7-6-2-2-3-6-4-9-1-4-2-9-2-14 0-4 1-8 1-13 1-4 1-9 3-13 1-5 3-9 4-13 2-4 4-8 7-11s6-6 9-8c4-2 8-3 12-2 4 0 7 0 10 2 3 1 5 3 7 6s3 6 4 10 2 8 2 14zm-9 0c0-3 0-6-1-9s-1-5-3-7c-1-2-2-3-4-4-2-2-4-2-7-2s-7 0-9 2-5 4-6 7c-2 3-4 6-5 10-1 3-3 7-4 11 0 3-1 7-1 10-1 4-1 7-1 9 0 4 1 6 1 9 1 3 1 5 3 7 1 2 2 3 4 5 2 1 5 1 7 1 3 0 7-1 9-2 2-2 5-4 7-7 1-3 3-6 5-9 1-4 2-7 2-11 1-4 2-7 2-11 0-3 1-6 1-9zm50 58l-1 1v1h-2-2-1s-1 0-1-1h-1v-1c1-4 1-8 2-12 0 2-1 4-3 5-1 2-2 3-3 5-2 1-3 2-5 3s-4 2-6 2-4-1-5-2c-2-1-3-2-4-3-1-2-1-4-2-6v-6-5c0-2 0-3 1-5 1-13 3-26 5-39l1-1c0-1 1 0 2-1h1c1 0 2 0 2 1h2v1c-2 13-4 26-5 39-1 1 0 2-1 4v7c0 1 1 2 1 3s1 2 2 2c0 1 1 1 2 1 2 0 4-1 6-2 1-1 3-3 5-6 2-2 2-5 4-9 1-3 2-7 3-11l3-27 1-1s0-1 1-1h5s1 0 1 1c1 0 0 0 0 0v1c-2 21-6 42-8 62zm46-60v3l-1 1c0 1 0 1-1 1v1c0 1 0 1-1 1-4 0-8 0-11-1-1 12-3 23-5 35v3c0 1-1 2-1 3 0 2 1 4 1 5 1 1 2 2 4 2h2c0-1 1-1 2-1l1-1h1v8l-1 1s0 1-1 1-1 1-2 1h-2c-1 1-1 0-2 0h-5c-2-1-2-2-3-3s-2-3-2-5c-1-1-1-3-1-6v-2s0-1 1-2c0 0-1-1 0-2v-2c1-12 3-23 5-35h-7v-2c0-1-1-2 0-2 0-1 0-2 1-3v-2h7l3-15v-1l1-1h6c0 1 1 1 1 1v1l-3 15h11c1 0 1 0 2 1v2zm45 19v9c-1 4-1 7-2 10-1 4-2 7-3 10s-2 6-4 9c-2 2-4 4-6 5-3 2-5 3-7 3s-3-1-4-1c-2-1-3-1-4-2l-3-3c-1 0-1-2-2-3-2 10-3 20-4 30v1h-1c-1 0-1 1-2 1h-4l-1-1v-2c4-28 8-57 12-86 0-1 1-1 2-2h4c1 0 1 0 1 1h1v1c-1 4-2 8-2 12 0-1 1-3 2-5s2-3 4-5c1-1 3-2 5-3s4-2 6-2 4 1 5 2c3 2 3 3 5 5 1 2 1 5 2 7v9zm-8 1v-6c-1-1-1-3-1-4s-1-2-2-3c-1 0-2-1-3-1-2 0-4 1-5 2-3 2-4 4-6 6-1 2-3 5-4 9-1 3-2 7-3 11s-1 7-2 11c2 3 4 6 6 7 1 2 3 3 6 3 1 0 2-1 4-2l4-4c1-2 2-4 3-7 0-2 1-5 1-7 1-3 1-6 2-8v-7zm51 43c-1 0-1 0-1 1l-1 1h-3-1s-1 0-1-1h-1v-1c1-4 1-8 2-12 0 2-1 3-2 5s-2 3-4 5c-2 1-3 2-5 3-1 1-3 1-6 1-2 0-3 0-5-1-1-1-2-2-3-4-2-1-2-3-2-5-1-2-1-4-1-7v-4c1-2 1-4 1-5l6-39v-1h1c0-1 0 0 1-1h4c0 1 1 0 1 1h1v1c-3 13-4 26-6 39v4c0 1-1 2-1 3 0 2 1 3 1 4v3c1 1 2 2 3 2 0 1 1 1 2 1 2 0 3-1 5-2 1-2 3-3 5-6 2-2 3-5 4-9 1-3 2-7 3-11l3-27 1-1s0-1 1-1h6s0 1 1 1v1c-3 21-7 41-9 62zm45-60v4c-1 0-1 1-1 1 0 1 0 1-1 1v1c-4-1-8-1-12-1-1 12-3 23-4 35-1 1-1 2-1 3v3c0 2 0 4 1 5s2 2 3 2 2 0 3-1h1c1 0 1-1 1-1h2v6s0 1-1 2v1c-1 0-1 1-1 1-1 0-2 0-2 1h-5c-1 0-3 0-4-1-2 0-3-1-4-2 0-2-1-3-2-5v-6-2-2-2c0-1 1-2 1-2 1-12 3-23 5-35h-6-1v-2-2c0-1 0-2 1-3v-2h7c1-5 1-10 2-15 1 0 1-1 1-1h1c0-1 0-1 1-1h3c1 1 1 0 1 1h1v1c-1 5-2 10-2 15h11c1 0 1 0 1 1v2zM10721 6271c0 227 0 455 1 681-14 0-28-1-42-1 0-236-1-472-1-709v-27c7 1 14 1 21 1 36 2 71 5 108 7v-43c34 25 70 50 105 75-35 21-70 42-106 63v-42c-28-2-57-3-86-5zM10681 7808c0-234-1-470-1-705 14 0 28 1 41 1 1 226 1 452 1 677 29 0 58-1 87-1-1-14-1-28-1-42 36 22 70 45 105 67-35 23-70 47-104 70v-42c-36 0-72 1-107 1-7 0-14 1-21 1v-27zM12049 6877c-16-44-31-87-47-132 10 1 19 1 29 1 1-136 1-272 1-409-73-4-147-8-222-13v-50c81 4 161 9 241 14 6 0 12 0 19 1v25c-1 145-2 289-2 434 9 0 19 0 29 1-16 42-32 85-48 128zM12051 7234c15 43 30 86 47 130-10 0-20-1-30 0 0 144-1 287-1 431v25h-18l-240 3v-50c74 0 148-1 222-3 0-135 1-271 1-407h-29l48-129z"/><path fill="none" d="M10289 7219c0 155 0 310 1 464 0 154 1 309 1 463 482-14 944-26 1387-39 425-11 834-23 1229-34 0-52 0-104 1-156 1-251 3-502 5-755"/><path fill="#F47E60" fill-rule="nonzero" d="M10289 7219c18 47 36 94 55 141-11-1-23-1-34-1 1 254 1 507 2 759 474-12 930-24 1366-36 419-11 823-22 1212-32 1-44 1-88 1-132 2-252 3-503 5-756 11 0 22 1 34 1-2 252-4 503-6 754 0 52 0 104-1 156v24h-16c-395 12-804 23-1229 36-443 13-905 26-1387 40h-22v-27c0-261-1-524-2-787h-33c18-47 36-94 55-140z"/><path fill="none" d="M9948 7005c73 2 146 4 219 5"/><path fill="#F47E60" fill-rule="nonzero" d="M10054 7035c-35-1-71-1-106-2v-55c35 1 71 2 106 2v-44c37 25 75 50 113 74-38 23-75 46-113 69v-44zM10905 7053c-19-1-37-1-55-2v-53c18 1 36 1 55 2v-42c35 23 70 47 105 70-35 23-70 45-105 67v-42zM10401 6988c58 2 118 3 176 4v54c-58-2-117-3-176-4v-54zM11846 7072c-12-1-24-1-36-1v-50h36v-40c32 23 64 45 96 68l-96 63v-40zM12208 7079c-19 0-39-1-58-1v-50c19 1 39 1 59 2v-40c30 23 62 45 92 67-31 20-62 41-93 62v-40z"/><path fill="#F47E60" fill-rule="nonzero" d="M10059 6919v3s0 1-1 1v2h-1c-8 0-14 0-21-1v30s0 1-1 1h-2-4c-1 0-1 0-1-1h-1v-1-29h-21l-1-1-1-1s0-1-1-2v-2-3c1 0 1-1 1-1 1-1 1-1 1-2h1c7 0 14 1 21 1v-29-1c0-1 0-1 1-1h1c1 0 1-1 2-1s2 0 3 1h1s0 1 1 1v30c7 0 13 0 21 1 1 0 1 0 1 1 1 0 1 1 1 2v2zM10230 7336v4c0 1-1 2-2 2h-26s-1-1-1-2c-1-1-1-2-1-4s0-3 1-4c0-1 1-1 1-1h27c0 1 1 1 1 1v4z"/><g fill="#D7D8D8"><path d="M12463 8221c304-11 600-21 887-31 0 21 0 41-1 61-287 10-582 21-886 33v-63zM12641 8341c241-10 477-20 708-29-1 20-1 41-1 61-230 9-466 20-708 30 0-20 1-41 1-62zM12234 8486c194-9 384-18 572-27 184-8 364-17 542-25-1 20-1 41-1 60-177 9-358 18-542 27-187 10-377 19-571 29v-64zM12639 8593c242-13 477-25 708-37-1 20-1 40-1 60-230 13-466 26-707 40v-63zM12639 8719c241-14 476-28 707-42-1 21-1 41-1 61-230 14-465 28-707 43 0-20 1-41 1-62zM12970 8823c126-8 251-16 375-24-1 20-1 40-1 60-124 8-249 17-375 25 1-20 1-40 1-61z"/><g><path d="M11023 9016c347-23 683-46 1008-68v-64c-325 21-661 43-1008 66v66zM11226 8868c275-17 544-33 806-49v-64c-262 15-530 31-806 47v66zM10763 8760c222-12 439-24 653-36 209-12 415-23 616-35v-64c-201 11-407 21-616 32-214 12-431 23-653 35v68zM11227 8600c275-14 543-28 805-40 1-22 1-43 1-65-263 13-531 25-806 38v67zM11227 8465c275-12 543-24 806-35v-65c-262 11-531 22-806 33v67zM11606 8316c145-6 287-11 428-16v-65c-141 5-283 10-428 15v66z"/></g><g><path d="M9368 8327c400-14 788-27 1164-40v69c-376 14-763 28-1164 43v-72zM9604 8463c317-12 626-25 928-37v69c-301 13-610 26-928 40 1-23 0-48 0-72zM9068 8633c257-12 508-23 754-35 241-11 478-22 710-33v69c-232 11-468 23-709 35-246 12-498 24-754 37-1-24-1-48-1-73zM9605 8752c318-16 626-33 927-48 0 23 0 46 1 69-301 17-610 34-927 52 0-25 0-48-1-73zM9606 8897c317-18 626-37 927-54v68c-301 19-610 38-927 57v-71zM10042 9013c166-11 329-21 491-32v69c-162 11-325 22-491 33v-70z"/></g></g><g><path fill="#FEFEFE" d="M14768 5833h5529v3110h-5529V5833z"/><path fill="#F26C6D" d="M14768 5833h5529v226h-5529v-226z"/><path fill="#268AB0" d="M17812 6329h-454v436h454v-436zm-351 360l124-284h7l117 284h-248zm199-18l-83-204-89 204h172zM18138 7007h-1092v1066h1092V7007zm-686 696h97v-121h19c40 0 91-9 122-31 26-18 42-43 42-78 0-27-13-54-43-71-33-20-78-25-136-25-37 0-74 2-101 6v320zm97-273c6-1 15-2 23-2 46 0 64 22 64 51 0 30-23 53-72 53-6 0-11 0-15-1v-101z"/><path fill="none" d="M17358 6547h-1450v822h1014"/><path fill="#268AB0" fill-rule="nonzero" d="M15908 6514h1450v66h-1417v756h807v-54l174 87-174 87v-54h-874v-888h34z"/><path fill="none" d="M17877 6547h1450v768h-1349"/><path fill="#268AB0" fill-rule="nonzero" d="M17877 6547l174-87v54h1310v835h-1383v-67h1316v-702h-1243v54l-174-87z"/><path fill="none" d="M17358 8614h-1450v-661h993"/><path fill="#268AB0" fill-rule="nonzero" d="M15941 8580h1417v67h-1484v-728h853v-53l173 87-173 86v-53h-786v594z"/><path fill="none" d="M16923 7660h-1539"/><path fill="#268AB0" fill-rule="nonzero" d="M16923 7660l-174 87v-53h-1365v-67h1365v-54l174 87z"/><path fill="none" d="M19681 7660h-1540"/><path fill="#268AB0" fill-rule="nonzero" d="M19680 7660l-173 87v-53h-1366v-67h1366v-54l173 87z"/><path fill="#268AB0" d="M17812 8362h-454v436h454v-436zm-327 327h65v-72l15-18 49 90h71l-76-123 75-95h-72l-44 70c-6 10-11 19-17 28h-1v-98h-65v218z"/><path fill="none" d="M17937 8614h1297v-661h-1159"/><path fill="#268AB0" fill-rule="nonzero" d="M17937 8614l174-87v53h1089v-594h-1125v-67h1192v728h-1156v53l-174-86zM18721 6484h105v-21h-59v-1l59-88v-18h-100v21h57v1l-62 92v14zM16284 6498l-13-42c-4-13-8-27-11-42h-1c-2 15-5 30-8 42l-12 42h-40l-35-129h38l10 51c2 15 5 29 7 46h1c2-17 6-31 9-46l13-51h31l15 52c4 15 8 29 11 45 3-16 5-31 7-45l10-52h40l-34 129h-38zM15662 7618l45-128h-42l-14 54c-3 15-6 30-9 46h-1c-2-15-6-31-10-45l-14-55h-42l44 128h43zM19598 7480c1-3 1-7 1-13 0-28-18-44-49-44-32 0-57 18-57 50 0 29 21 46 60 46 15 0 30-2 40-5l-6-18c-6 2-16 3-27 3-17 0-30-5-30-19h68zm-68-18c0-9 5-21 18-21 11 0 16 9 16 21h-34zM19357 8371l39 87c0 1 1 2 1 3s-1 2-2 4c-3 4-7 8-12 11-6 3-12 6-19 8l12 21c5-1 20-5 32-14 16-12 25-30 32-48l29-72h-37l-12 49c-1 5-2 11-4 15-1-5-3-10-4-15l-14-49h-41zM15821 8280h-39v60c0 3 0 6-2 8-2 3-6 6-12 6-11 0-15-8-15-20v-54h-38v57c0 25 11 38 38 38 15 0 26-5 33-11h1l2 10h33c-1-9-1-19-1-29v-65z"/></g><path fill="#D37A47" fill-rule="nonzero" d="M6589 15293h21742v-685H6589v685z"/><path fill="#FEFEFE" fill-rule="nonzero" d="M7934 7459H6526c-20 0-36-16-36-36s16-36 36-36h1408c20 0 36 16 36 36s-16 36-36 36zM7934 7764h-668c-20 0-36-16-36-36s16-36 36-36h668c20 0 36 16 36 36s-16 36-36 36zM27030 6903h1480v-72h-1480v72zM27770 7208h740v-72h-740v72zM27135 10880h1304v-73h-1304v73zM27787 11185h652v-73h-652v73zM26890 11185h652v-73h-652v73zM6750 10907h1132v-108H6750v108zM7316 10289h566v-108h-566v108z"/><path fill="#D2D4D5" fill-rule="nonzero" d="M11830 11399l-4-1194-1238 128 6 1256 1236-190z"/><path fill="#D2D4D5" fill-rule="nonzero" d="M10842 11472l-967 150 1 222 736 232-1-222 763-466-532 84z"/><path fill="#D2D4D5" fill-rule="nonzero" d="M10611 11854l1 222 2465-408v-199l-2466 385z"/><path fill="#FEFEFE" fill-rule="nonzero" d="M13077 11469l-736-231-2466 384 736 232 2466-385z"/><path fill="#D2D4D5" fill-rule="nonzero" d="M23235 11401l3-1194 1238 128-6 1256-1235-190z"/><path fill="#D2D4D5" fill-rule="nonzero" d="M24222 11474l967 150-1 222-736 232 1-222-763-466 532 84z"/><path fill="#FEFEFE" fill-rule="nonzero" d="M23937 13106l434 499c115 95 259 147 407 147h630c104 0 189-85 189-189v-12c0-221-396-542-816-737-354-165-644-64-820-17-178 48-147 160-24 309z"/><path fill="#4C4C4D" fill-rule="nonzero" d="M24260 12730l263 172-103 19-253-173 93-18z"/><path fill="#DDDEDE" fill-rule="nonzero" d="M24673 13496c-291-287-494-409-824-629-35 82-17 116 106 259l416 479c101 84 226 134 356 145 35-30 63-79-54-254z"/><path fill="#2C558B" fill-rule="nonzero" d="M10032 12857c-160 0-295-66-393-193-186-242-186-638-144-787 18-67 61-116 118-136 69-24 152-9 256 46 67 36 119 76 122 78l-93 154s-60-44-118-73c-74-37-107-33-112-30 0 0-3 3-6 13-33 118-23 443 113 620 71 93 167 133 292 123l14 183c-17 2-33 2-49 2z"/><path fill="#267DC0" fill-rule="nonzero" d="M10253 13439v-75c-447-333-358-1853-358-1853h1370s90 1520-357 1853v75h-655z"/><g fill-rule="nonzero"><path fill="#FEFEFE" d="M23792 8550l2321 163 23-2273-2336 44-8 2066z"/><path fill="#B4B6B8" d="M23888 6868l2154 13 1-125-2154 1-1 111zM23887 7198l2151 60 1-125-2152-45v110zM23885 7529l2149 106 2-126-2150-91-1 111zM23884 7859l2146 153 2-126-2148-137v110zM24076 8228l1951 161 1-126-1952-151v116z"/></g><g><path fill="#FEFEFE" d="M21460 6145c532-43 1096-89 1692-138 632-52 1305-107 2020-165-3 493-7 986-10 1478-4 490-7 980-11 1468-711-33-1379-65-2008-94-593-28-1154-54-1684-79V7384c0-412 1-825 1-1239z"/><path fill="#F26C6D" d="M21460 6145c532-43 1096-89 1692-138 632-52 1305-107 2020-165 0 60-1 121-1 181-715 53-1388 103-2020 149-596 44-1159 86-1691 125v-152z"/><g fill="#F05258"><path d="M22482 6522c192-11 387-23 587-35-1 190-1 379-2 568-199 6-395 12-586 18 0-183 1-367 1-551zm342 299c15 6 30 11 44 16-7 33-18 58-34 75-15 16-35 25-59 26-30 1-54-11-74-38-18-26-28-62-27-108 0-50 10-88 28-116 19-28 45-43 76-45 28-2 50 8 67 29 10 12 18 30 23 53-15 6-30 11-45 17-2-15-8-27-17-36-8-8-18-12-30-12-17 1-30 10-40 26-11 16-16 42-16 77 0 38 5 64 15 79 10 16 23 23 39 23 13-1 23-7 31-17 9-11 16-27 19-49zM23385 6469c209-13 423-25 641-38l-3 594c-218 7-431 13-640 20 1-192 2-384 2-576zm322 315v-53c36-2 71-3 107-5v124c-10 14-26 25-45 36-20 10-41 16-60 17-26 1-48-5-67-18s-33-32-42-57c-9-24-14-52-14-81 0-33 6-61 16-87 11-26 26-46 47-60 16-11 35-17 58-18 30-2 55 5 72 20s28 37 33 66c-17 5-34 10-50 14-4-15-10-27-19-35-10-8-22-12-36-12-22 2-39 11-51 29-13 18-20 44-20 78 0 36 7 64 19 82 13 17 30 26 51 25 10 0 20-3 31-9 10-5 19-12 27-20v-39l-57 3zM23383 7248c208-4 421-9 639-14l-3 591c-217-1-430-2-639-3 1-191 2-382 3-574zm392 414v-119h29c5 27 11 54 17 81 5-27 11-54 17-81 9-1 18-1 29-1-1 40-1 80-1 120h-18c0-32 0-63 1-94-7 31-13 62-19 94h-19c-6-31-12-63-18-94 0 31-1 63-1 94h-17zm-126-88v-52c35 0 70-1 106-1v123c-11 13-26 25-46 34-19 10-39 15-59 15-25 0-47-7-66-20-19-14-33-33-42-58s-14-53-14-82c0-32 6-60 16-85 11-25 26-45 46-58 16-11 35-16 59-17 30 0 54 8 71 23 17 16 27 38 32 67-17 4-33 8-49 12-3-15-10-27-19-36-10-8-21-13-36-12-21 0-38 9-51 26-12 18-19 43-19 77 0 37 6 64 19 82s29 27 50 27c10 0 21-2 31-8 10-5 19-11 27-18v-40c-19 1-38 1-56 1zM22138 6635c72-4 131 73 131 173 0 99-59 181-131 184s-130-75-130-173 58-180 130-184zM24502 7326c90-1 164 88 163 198-1 111-75 201-166 201-90 0-161-89-161-198 1-109 74-199 164-201z"/><path fill-rule="nonzero" d="M24476 8294c1-190 3-379 4-569h39c-2 198-3 396-4 594v24c-7-1-13-1-19-1-435-12-853-24-1255-36-387-10-760-21-1120-31h-16v-22c1-191 0-382 1-574 0-191 0-384 1-576-9 0-17 1-25 1 14-37 27-74 40-111 14 36 27 72 41 109h-25c-1 189-1 378-1 566 0 189 0 377-1 565 355 9 724 19 1105 29 396 10 808 21 1235 32zm-1095-761c-30 19-61 39-91 59v-36h-75c-6 1-12 1-17 1v-23c0-124 1-248 1-372 1-125 1-250 2-374-45 2-89 3-132 5v-44c74-3 149-7 224-10 1-12 1-24 1-36 29 18 59 36 90 54-31 21-61 42-91 62v-36c-20 1-39 2-58 3-1 121-1 243-1 363-1 121-1 242-2 363 20 0 39-1 58-1 0-12 1-23 1-35 29 19 60 38 90 57zm957-16c-33 21-66 42-99 62 0-12 1-25 1-37-74 0-147 1-220 2 0-16 1-31 1-47 72-1 145-1 219-2v-37c32 20 65 40 98 59zm164-198c-17-40-33-81-50-122 10 0 21 0 31-1 1-154 2-310 2-465-155 7-308 13-459 20v-47c222-10 449-20 681-31v-38c34 19 68 38 103 57-35 23-70 45-104 67v-38c-61 3-121 5-182 8-1 156-2 311-3 467 11-1 21-1 32-1-17 42-34 83-51 124zm-2020-521c-28 20-56 40-84 59v-34c-43 2-85 4-128 6v-43l129-6v-34c27 17 55 35 83 52zm-479 21c-26 20-53 40-79 59v-34c-70 3-139 6-207 9v-41c68-4 137-7 207-10v-33c26 17 53 34 79 50z"/><path d="M24506 6644c27-1 50 26 49 60 0 34-22 63-50 64s-50-26-50-60 23-62 51-64zM23218 6706c24-1 45 24 45 56-1 32-21 59-46 60-24 1-44-24-44-56s20-58 45-60z"/><path fill-rule="nonzero" d="M24626 7334v-56c-15 0-30 1-45 1v-24c15 0 30 0 46-1v-55c6-1 13-1 20-1-1 19-1 38-1 56 15 0 31-1 47-1v24c-16 0-32 0-47 1v56h-20zM24255 7430v-24c21-1 42-1 62-1v25h-62zM22026 7047v-22c17 0 34-1 51-2v23c-17 0-34 1-51 1zM24473 6392c12 0 23-1 34-2 9 35 19 69 29 104 9-36 19-71 29-107 11-1 22-1 33-2-15 48-29 97-44 145-2 9-5 18-7 26-3 9-6 16-9 21-2 5-5 8-9 11-3 4-7 6-12 8-5 1-10 3-16 3s-13 0-19-2c-1-9-1-20-2-30 5 1 9 1 13 1 8-1 13-3 17-9 4-5 7-13 8-21-15-48-30-97-45-146zM23252 6605v-21c-4 8-9 14-15 19-7 5-14 7-21 7-7 1-13-1-19-5s-10-9-12-17c-3-7-4-17-4-30v-89c9 0 19-1 29-2-1 22-1 43-1 65 0 19 1 31 2 36 1 4 3 8 6 10 2 2 6 3 10 3 5 0 9-2 13-6 4-3 7-8 8-13 2-5 2-18 3-38v-59c9-1 18-1 28-2 0 47 0 94-1 140-9 1-17 2-26 2zM22375 6608c9 2 18 4 26 5-3 13-9 23-15 30-8 7-17 11-28 12-17 1-30-6-38-21-6-12-10-27-10-45 0-22 5-40 13-53 9-13 20-20 33-21 15-1 26 5 35 18 8 13 12 32 12 60l-66 3c1 11 3 19 7 24 4 6 8 9 14 9 4-1 8-2 11-6 3-3 5-8 6-15zm2-35c0-11-2-18-6-24-4-5-8-7-13-7-6 0-11 4-15 10-3 5-5 13-5 23 13-1 26-2 39-2zM21795 6683c-10-43-19-85-29-129 8 0 16 0 24-1 6 28 12 56 17 84 6-28 11-57 17-86 7 0 15-1 24-1l15 84c6-28 12-58 18-86 8-1 17-1 25-2-10 45-21 89-31 133-8 0-16 1-24 1-5-28-11-55-16-83-5 28-11 56-16 85-8 0-16 0-24 1z"/></g></g></svg>