<?xml version="1.0" encoding="UTF-8"?>
<!DOCTYPE svg PUBLIC "-//W3C//DTD SVG 1.0//EN" "http://www.w3.org/TR/2001/REC-SVG-20010904/DTD/svg10.dtd">
<!-- Creator: CorelDRAW 2017 -->
<svg xmlns="http://www.w3.org/2000/svg" xml:space="preserve" width="356px" height="200px" version="1.0" shape-rendering="geometricPrecision" text-rendering="geometricPrecision" image-rendering="optimizeQuality" fill-rule="evenodd" clip-rule="evenodd"
viewBox="0 0 35600 20025"
 xmlns:xlink="http://www.w3.org/1999/xlink">
 <g id="Layer_x0020_1">
  <metadata id="CorelCorpID_0Corel-Layer"/>
  <g id="_1474992536752">
   <path fill="#E6E7E8" d="M0 0l35600 0 0 20025 -35600 0 0 -20025z"/>
   <path fill="#373435" fill-opacity="0.078431" d="M17616 6382l1394 -1541 26 -31 19 -36 13 -40 4 -43 -4 -42 -9 -29 373 -414 26 -31 19 -36 13 -40 4 -43 -4 -42 -13 -39 -19 -36 -26 -31 -31 -26 -35 -19 -40 -13 -42 -4 -43 4 -40 13 -36 19 -31 26 -2237 2474 -272 0 13 -21 1949 -2155 26 -31 19 -36 12 -40 5 -43 -5 -42 -12 -39 -19 -36 -26 -31 -31 -26 -36 -19 -40 -13 -43 -4 -43 4 -39 13 -36 19 -31 26 -2237 2474 -3400 0 1342 -1485 91 -110 68 -125 43 -139 15 -148 -15 -150 -43 -138 -68 -126 -91 -110 -109 -90 -125 -68 -139 -43 -149 -15 -149 15 -139 43 -126 68 -109 90 -1485 1643 0 -2365 15 -154 45 -143 70 -129 93 -113 -11686 12923 0 4512 23019 0 2339 -2587 -46 42 -49 37 -53 34 -56 28 -59 24 -62 20 -66 16 -69 11 -62 6 751 -831 -762 0 273 -302 -3 -52 -5 -49 -10 -45 -12 -43 -15 -39 -19 -36 -21 -33 -25 -29 -27 -27 -28 -22 -30 -20 -31 -15 -33 -13 -34 -8 -36 -6 -37 -1 -39 2 -38 5 -35 9 -35 13 -32 17 -30 20 -29 24 -28 28 -607 672 -8 -83 -3 -95 4 -113 11 -106 19 -101 26 -94 34 -88 42 -81 49 -75 57 -69 -1027 1135 1 -4 -1 -14 -2 -13 -2 -13 -4 -12 -5 -11 -6 -11 -8 -10 -8 -9 -10 -9 -14 -9 -16 -8 -19 -8 -22 -8 -25 -8 -28 -8 -30 -8 -31 -7 662 -732 -464 86 -8 -26 -10 -25 -12 -24 -13 -21 -15 -21 -17 -18 -18 -17 -20 -16 -22 -14 -25 -11 -26 -10 -29 -8 -31 -7 -33 -4 -36 -3 -37 -1 -48 1 -43 2 -41 5 -37 6 -33 7 -30 10 -26 11 -23 13 -14 10 -11 10 -397 439 -5 -6 -31 -50 -24 -55 -17 -58 -11 -62 -3 -65 3 -60 9 -57 15 -54 21 -53 27 -49 33 -48 39 -45 -1027 1136 2 -9 4 -21 3 -25 3 -28 1 -23 2957 -3269 -58 61 -65 59 -72 57 -80 57 -87 54 -37 21 568 -628 -7 0 -575 636 -43 24 -100 52 -107 49 -113 48 -119 46 -125 44 -131 42 -135 39 -142 38 -146 35 -150 33 -156 30 -159 28 -164 25 -168 22 -171 20 -175 17 -68 5 2783 -3078 52 -64 42 -65 33 -66 25 -68 10 -49 9 -10 -7 0 2 -9 5 -69 0 -80 -7 0 -836 925 -102 43 -119 46 -125 44 -131 41 -135 40 -142 38 -146 35 -150 32 -156 31 -159 27 -164 26 -168 22 -171 20 -175 17 -172 13 2887 -3192 52 -64 42 -66 33 -66 25 -67 10 -48 9 -10 -7 0 0 0 2 -11 5 -69 0 -10 0 -10 -1 -10 -1 -10 -1 -10 -1 -10 -1 -9 -2 -10 -837 925 -101 43 -119 46 -125 44 -131 42 -135 39 -142 38 -146 35 -150 33 -156 30 -159 28 -164 25 -168 23 -171 19 -175 18 -69 5 2784 -3079 52 -64 42 -66 33 -66 25 -67 14 -69 5 -69 0 -10 0 -10 -1 -10 -1 -10 -1 -10 -1 -10 -1 -10 -2 -10 -836 925 -25 12 -120 48 -126 47 -132 45 -138 42 -144 40 -149 38 -154 35 -159 32 -164 30 -65 10 1573 -1739 -113 93 -130 71 -143 44 -153 16 -1961 0 1394 -1541 26 -31 19 -36 13 -40 4 -43 -4 -42 -13 -40 -19 -36 -26 -31 -32 -26 -35 -20 -40 -12 -43 -4 -42 4 -40 12 -36 20 -31 26 -1664 1840 -276 0 1393 -1541 25 -31 20 -36 12 -40 4 -43 -4 -42 -9 -29 375 -414 26 -31 19 -36 12 -40 5 -43 -5 -42 -12 -39 -19 -36 -26 -31 -32 -26 -36 -19 -39 -13 -43 -4 -43 4 -39 13 -36 19 -32 26 -2237 2474 -125 0 1394 -1541 25 -31 20 -36 12 -40 4 -43 -4 -42 -9 -29 374 -414 26 -31 20 -36 12 -40 4 -43 -4 -42 -12 -39 -20 -36 -26 -31 -31 -26 -36 -19 -40 -13 -42 -4 -43 4 -39 13 -36 19 -32 26 -2237 2474 -36 0 -89 0 1393 -1541 26 -31 19 -36 13 -40 4 -43 -4 -42 -9 -29 374 -414 26 -31 20 -36 12 -40 4 -43 -4 -42 -12 -39 -20 -36 -26 -31 -31 -26 -36 -19 -40 -13 -42 -4 -43 4 -40 13 -36 19 -31 26 -2237 2474 -126 0z"/>
   <g>
    <g>
     <path fill="#424A60" fill-rule="nonzero" d="M16535 9552l0 -2061 7 0c-4,27 -7,53 -7,80 0,-515 816,-962 2016,-1189l-6325 0c-422,0 -763,341 -763,762l0 2491c0,422 341,762 763,762l4309 0 0 -845z"/>
     <path fill="#556080" fill-rule="nonzero" d="M16542 13357l-7 0 0 -2960 -4309 0c-422,0 -763,342 -763,763l0 2490c0,422 341,764 763,764l6069 0c-998,-226 -1679,-613 -1753,-1057z"/>
     <path fill="#556080" fill-rule="nonzero" d="M22959 6382l-10733 0c-422,0 -763,-342 -763,-763l0 -2490c0,-421 341,-763 763,-763l10733 0c420,0 762,342 762,763l0 2490c0,421 -342,763 -762,763z"/>
     <path fill="#7383BF" fill-rule="nonzero" d="M14210 4375c0,407 -331,738 -739,738 -409,0 -740,-331 -740,-738 0,-409 331,-740 740,-740 408,0 739,331 739,740z"/>
     <path fill="#7383BF" fill-rule="nonzero" d="M22031 4056c0,118 -95,212 -212,212 -117,0 -212,-94 -212,-212 0,-116 95,-210 212,-210 117,0 212,94 212,210z"/>
     <path fill="#7383BF" fill-rule="nonzero" d="M21185 4056c0,118 -95,212 -211,212 -117,0 -212,-94 -212,-212 0,-116 95,-210 212,-210 116,0 211,94 211,210z"/>
     <path fill="#7383BF" fill-rule="nonzero" d="M22454 4691c0,117 -95,212 -212,212 -117,0 -211,-95 -211,-212 0,-116 94,-211 211,-211 117,0 212,95 212,211z"/>
     <path fill="#7383BF" fill-rule="nonzero" d="M21607 4691c0,117 -93,212 -210,212 -118,0 -212,-95 -212,-212 0,-116 94,-211 212,-211 117,0 210,95 210,211z"/>
     <path fill="#7383BF" fill-rule="nonzero" d="M20340 4056c0,118 -95,212 -211,212 -117,0 -212,-94 -212,-212 0,-116 95,-210 212,-210 116,0 211,94 211,210z"/>
     <path fill="#7383BF" fill-rule="nonzero" d="M20762 4691c0,117 -94,212 -211,212 -117,0 -211,-95 -211,-212 0,-116 94,-211 211,-211 117,0 211,95 211,211z"/>
     <path fill="#7383BF" fill-rule="nonzero" d="M19494 4056c0,118 -94,212 -210,212 -118,0 -212,-94 -212,-212 0,-116 94,-210 212,-210 116,0 210,94 210,210z"/>
     <path fill="#7383BF" fill-rule="nonzero" d="M19917 4691c0,117 -95,212 -212,212 -116,0 -211,-95 -211,-212 0,-116 95,-211 211,-211 117,0 212,95 212,211z"/>
     <path fill="#7383BF" fill-rule="nonzero" d="M18649 4056c0,118 -94,212 -212,212 -117,0 -210,-94 -210,-212 0,-116 93,-210 210,-210 118,0 212,94 212,210z"/>
     <path fill="#7383BF" fill-rule="nonzero" d="M19072 4691c0,117 -95,212 -212,212 -116,0 -211,-95 -211,-212 0,-116 95,-211 211,-211 117,0 212,95 212,211z"/>
     <path fill="#7383BF" fill-rule="nonzero" d="M14210 8390c0,409 -331,740 -739,740 -409,0 -740,-331 -740,-740 0,-409 331,-740 740,-740 408,0 739,331 739,740z"/>
     <path fill="#7383BF" fill-rule="nonzero" d="M14210 12406c0,408 -331,740 -739,740 -409,0 -740,-332 -740,-740 0,-409 331,-740 740,-740 408,0 739,331 739,740z"/>
     <path fill="#1A9172" fill-rule="nonzero" d="M20340 12458c-2101,0 -3805,-602 -3805,-1346l0 2245 7 0c116,707 1772,1267 3798,1267 2026,0 3681,-560 3797,-1267l7 0 0 -2245c0,744 -1702,1346 -3804,1346z"/>
     <path fill="#1A9172" fill-rule="nonzero" d="M16535 11032l0 80c0,-27 3,-54 7,-80l-7 0z"/>
     <path fill="#1A9172" fill-rule="nonzero" d="M24137 11032c4,26 7,53 7,80l0 -80 -7 0z"/>
     <path fill="#25AE88" fill-rule="nonzero" d="M20340 10187c-2101,0 -3805,-604 -3805,-1348l0 2351 7 0c116,708 1772,1268 3798,1268 2026,0 3681,-560 3797,-1268l7 0 0 -2351c0,744 -1702,1348 -3804,1348z"/>
     <path fill="#25AE88" fill-rule="nonzero" d="M16535 8760l0 79c0,-27 3,-53 7,-79l-7 0z"/>
     <path fill="#25AE88" fill-rule="nonzero" d="M24137 8760c4,26 7,52 7,79l0 -79 -7 0z"/>
     <path fill="#88C057" fill-rule="nonzero" d="M24144 6673c0,744 -1702,1346 -3804,1346 -2101,0 -3805,-602 -3805,-1346 0,-744 1704,-1348 3805,-1348 2102,0 3804,604 3804,1348z"/>
     <path fill="#61B872" fill-rule="nonzero" d="M20340 8019c-2101,0 -3805,-602 -3805,-1346l0 2246 7 0c116,707 1772,1268 3798,1268 2026,0 3681,-561 3797,-1268l7 0 0 -2246c0,744 -1702,1346 -3804,1346z"/>
     <path fill="#61B872" fill-rule="nonzero" d="M16535 6593l0 80c0,-27 3,-54 7,-80l-7 0z"/>
     <path fill="#61B872" fill-rule="nonzero" d="M24137 6593c4,26 7,53 7,80l0 -80 -7 0z"/>
    </g>
    <path fill="#4B4B4D" fill-rule="nonzero" d="M10012 15039l948 0c214,0 377,16 489,49 150,44 279,123 387,237 107,113 189,252 245,417 56,164 84,367 84,608 0,212 -26,394 -79,547 -64,188 -156,339 -275,455 -90,88 -211,156 -364,206 -115,36 -267,54 -459,54l-976 0 0 -2573zm521 435l0 1703 387 0c144,0 248,-8 312,-24 85,-21 154,-57 209,-108 56,-50 101,-133 136,-248 35,-115 53,-272 53,-471 0,-199 -18,-351 -53,-458 -35,-106 -84,-189 -147,-249 -63,-59 -142,-100 -239,-121 -72,-16 -214,-24 -425,-24l-233 0zm2438 848l-446 -79c50,-182 137,-317 260,-405 123,-87 305,-131 547,-131 220,0 384,26 492,78 108,52 184,118 227,198 44,81 66,227 66,442l-7 575c0,163 8,284 23,362 16,78 45,161 88,250l-488 0c-13,-32 -29,-80 -48,-144 -7,-29 -14,-48 -17,-57 -84,82 -174,144 -270,185 -95,42 -197,63 -306,63 -191,0 -342,-52 -452,-157 -110,-103 -165,-235 -165,-394 0,-105 25,-199 75,-282 51,-82 121,-145 212,-189 90,-44 221,-82 391,-115 230,-43 390,-84 479,-121l0 -50c0,-96 -23,-164 -70,-205 -47,-41 -136,-61 -266,-61 -88,0 -156,17 -206,52 -49,35 -89,97 -119,185zm661 399c-63,21 -163,46 -300,75 -137,30 -226,58 -268,86 -65,46 -97,104 -97,174 0,69 26,128 77,179 52,50 117,75 197,75 88,0 174,-29 254,-87 60,-45 99,-99 118,-164 12,-42 19,-122 19,-240l0 -98zm1823 -974l0 392 -338 0 0 755c0,153 3,242 9,268 7,25 21,46 45,63 22,16 50,24 83,24 46,0 112,-15 199,-47l41 383c-114,49 -244,74 -389,74 -88,0 -168,-15 -239,-45 -71,-30 -124,-69 -156,-116 -34,-48 -57,-112 -70,-194 -10,-57 -16,-173 -16,-349l0 -816 -226 0 0 -392 226 0 0 -370 493 -292 0 662 338 0zm711 575l-445 -79c50,-182 137,-317 260,-405 122,-87 305,-131 547,-131 220,0 384,26 492,78 107,52 183,118 227,198 44,81 66,227 66,442l-7 575c0,163 7,284 23,362 15,78 45,161 88,250l-489 0c-12,-32 -29,-80 -47,-144 -8,-29 -14,-48 -17,-57 -84,82 -174,144 -270,185 -96,42 -198,63 -306,63 -191,0 -342,-52 -452,-157 -111,-103 -166,-235 -166,-394 0,-105 25,-199 76,-282 50,-82 120,-145 211,-189 91,-44 221,-82 392,-115 230,-43 390,-84 479,-121l0 -50c0,-96 -24,-164 -71,-205 -47,-41 -135,-61 -266,-61 -88,0 -156,17 -205,52 -50,35 -89,97 -120,185zm662 399c-63,21 -163,46 -301,75 -136,30 -226,58 -268,86 -64,46 -96,104 -96,174 0,69 25,128 77,179 51,50 117,75 196,75 89,0 174,-29 255,-87 59,-45 99,-99 117,-164 13,-42 20,-122 20,-240l0 -98zm949 891l0 -2573 492 0 0 928c152,-173 332,-260 541,-260 227,0 414,82 563,247 148,165 223,401 223,710 0,319 -76,564 -228,737 -151,172 -336,258 -552,258 -106,0 -211,-28 -315,-82 -104,-55 -193,-134 -268,-239l0 274 -456 0zm485 -968c0,193 31,337 92,429 85,132 199,198 341,198 109,0 201,-47 279,-140 76,-94 115,-241 115,-442 0,-214 -39,-368 -116,-462 -78,-95 -177,-142 -298,-142 -118,0 -216,46 -295,138 -78,92 -118,232 -118,421zm2098 -322l-445 -79c50,-182 137,-317 260,-405 122,-87 305,-131 547,-131 220,0 384,26 492,78 107,52 183,118 227,198 44,81 66,227 66,442l-7 575c0,163 8,284 23,362 16,78 45,161 88,250l-489 0c-12,-32 -28,-80 -47,-144 -8,-29 -14,-48 -17,-57 -84,82 -174,144 -270,185 -96,42 -198,63 -306,63 -191,0 -342,-52 -452,-157 -110,-103 -166,-235 -166,-394 0,-105 26,-199 76,-282 50,-82 120,-145 211,-189 91,-44 221,-82 392,-115 230,-43 390,-84 479,-121l0 -50c0,-96 -24,-164 -70,-205 -48,-41 -136,-61 -266,-61 -88,0 -157,17 -206,52 -49,35 -89,97 -120,185zm662 399c-63,21 -163,46 -300,75 -137,30 -227,58 -269,86 -64,46 -96,104 -96,174 0,69 26,128 77,179 52,50 117,75 197,75 88,0 173,-29 254,-87 59,-45 99,-99 118,-164 12,-42 19,-122 19,-240l0 -98zm795 366l495 -75c21,95 64,168 129,217 64,49 154,74 270,74 127,0 223,-23 288,-70 43,-33 65,-77 65,-132 0,-38 -12,-69 -36,-93 -24,-24 -79,-46 -164,-66 -399,-88 -651,-168 -758,-240 -148,-102 -221,-242 -221,-421 0,-162 64,-298 191,-408 128,-111 326,-166 594,-166 255,0 445,42 569,125 124,84 209,208 256,371l-464 86c-19,-73 -58,-129 -113,-168 -56,-39 -136,-58 -239,-58 -131,0 -225,18 -281,55 -38,25 -57,59 -57,100 0,35 16,65 49,89 45,33 199,80 463,139 263,60 447,133 551,220 104,88 156,211 156,367 0,171 -72,319 -215,441 -142,123 -354,185 -634,185 -254,0 -455,-52 -604,-154 -148,-103 -245,-242 -290,-418zm3253 -64l492 82c-63,181 -163,318 -299,412 -136,94 -307,142 -511,142 -324,0 -565,-106 -720,-318 -123,-170 -184,-385 -184,-644 0,-309 80,-552 242,-727 161,-175 365,-263 612,-263 277,0 495,92 656,275 160,184 236,464 229,843l-1233 0c4,146 44,260 120,341 75,82 170,123 282,123 78,0 142,-21 194,-63 53,-42 93,-110 120,-203zm28 -500c-3,-143 -40,-252 -110,-326 -70,-75 -155,-112 -256,-112 -107,0 -196,39 -266,118 -70,78 -104,185 -103,320l735 0z"/>
   </g>
   <path fill="#373435" fill-opacity="0.031373" d="M2082 17547c68,103 112,202 155,312 32,64 49,183 199,183 44,0 107,-14 163,-45 63,-33 111,-83 136,-159l60 -202 146 -72 10 10c-20,76 -25,149 -25,206 0,169 146,233 262,233 68,0 129,-33 129,-95 0,-80 -34,-216 -78,-338 68,-68 136,-136 214,-191l12 6c34,144 53,286 53,381 0,93 -41,196 -75,264 -70,132 -194,237 -344,237 -114,0 -241,-57 -328,-163l-5 0c-82,102 -209,194 -412,194l-63 0c-10,134 -39,229 -83,314 -121,237 -480,404 -818,404 -470,0 -706,-272 -706,-633 0,-223 73,-431 185,-578l92 38c-70,134 -117,261 -117,385 0,338 275,499 592,499 294,0 658,-187 724,-404 -25,-237 -114,-349 -250,-565 41,-72 94,-144 160,-221l12 0zm5421 -1274c99,62 196,136 291,220 -53,75 -119,143 -201,203 -95,-77 -190,-143 -287,-213 66,-74 131,-146 197,-210zm51 926c-160,0 -291,105 -291,183 0,167 320,219 703,217 -48,-196 -216,-400 -412,-400zm-359 895c208,0 390,-6 529,-41 155,-40 286,-118 286,-172 0,-14 0,-31 -5,-45 -87,8 -187,8 -274,8 -282,0 -498,-64 -583,-222 -21,-44 -36,-93 -36,-149 0,-153 66,-303 182,-406 97,-85 204,-138 313,-138 197,0 354,158 464,408 60,136 101,293 101,491 0,132 -36,243 -118,326 -153,148 -435,204 -867,204l-196 0 0 0 -51 0c-107,0 -184,-19 -245,-66l-10 0c3,25 5,49 5,72 0,97 -32,221 -97,320 -192,286 -400,410 -580,410 -182,0 -405,-70 -606,-161l36 -70c65,27 155,45 279,45 325,0 752,-313 805,-618 -12,-25 -34,-58 -65,-93 -95,-113 -155,-208 -211,-307 48,-95 92,-171 133,-240l17 -2c139,283 265,446 546,446l44 0 0 0 204 0zm-1408 299c24,-130 26,-276 26,-413l0 -202c0,-377 -48,-926 -87,-1283 68,-74 163,-160 238,-218l22 6c51,450 63,971 63,1452 0,126 -5,249 -17,340 -7,114 -73,200 -214,332l-31 -14zm-1449 -596c7,177 94,317 398,317 189,0 349,-49 526,-134 32,-14 49,-33 49,-49 0,-111 -85,-258 -228,-392 -139,-126 -323,-237 -495,-311 -59,-25 -78,-52 -78,-77 0,-51 68,-158 124,-235l19 -2c197,103 417,256 580,427 148,157 240,316 240,489 0,128 -39,249 -102,361 -216,109 -446,192 -674,192 -277,0 -466,-130 -466,-436 0,-33 0,-84 12,-150l95 0zm-501 -503l172 278c63,103 122,215 122,392l0 227c0,183 -117,379 -306,573 -148,132 -279,188 -400,188 -180,0 -386,-56 -624,-159l27 -70c75,20 162,37 269,37 342,-2 692,-252 852,-557 19,-35 26,-68 26,-91 0,-35 -19,-74 -34,-109 -87,-165 -184,-315 -291,-454 56,-88 112,-173 173,-257l14 2z"/>
  </g>
 </g>
</svg>
