<svg xmlns="http://www.w3.org/2000/svg" xml:space="preserve" width="350" height="200" version="1.0" shape-rendering="geometricPrecision" text-rendering="geometricPrecision" image-rendering="optimizeQuality" fill-rule="evenodd" clip-rule="evenodd" viewBox="0 0 35000 19994"><path fill="#F0F0F0" d="M0 0h35000v19994H0z"/><path fill="#373435" fill-opacity=".149" d="M16386 6499l-233 356 128-76-121 185h927l-14 34-27 51-36 62-42 69-43 69-41 65-36 56-25 41-741 1205 276-81 8-2 1659-2538 493-717 13-20 13-18 13-17 12-17 11-16 13-17 12-18 13-19 26-39 26-37 25-36 24-36 25-36 25-37 26-37 26-39 590-862 13-20 13-18 12-17 12-16 12-17 12-17 13-18 13-20 13-20 14-19 14-19 13-19 13-18 12-19-3130 4788 16-4 62-18 63-16 44-12 161-245h315l-510 779 10-8 10-7 9-7 9-7 10-7 11-10 12-11 386-356 21-21 19-19 18-18 18-17 18-16 19-17 21-18 23-19 21-18 20-18 18-19 18-18 18-19 18-19 20-18 23-18 67-57 93-85 111-103 118-112 118-112 108-101 89-81 61-52 153-142 561-858-16 50-13 29-67 103-8 25 36 10 18 5 913-1396 28 47 29 43 30 42 30 40 28 40 25 42 21 44 17 47-86 131 229 273 1100-1682 4 36 5 37 8 38 8 37 10 36 11 35 11 30 12 28-116 176 264 815 26 68 29 78 31 88 33 94 36 100 37 104 38 105 40 106 41 105 41 102 42 97 42 90 42 83 42 72 42 61 40 48 111 116 115 126 120 132 124 135 129 133 133 128 138 118 4 3 137-210 27 64 38 51 45 43 48 40 45 44 38 53 26 67 10 87-9 96-24 113-40 125-53 137-66 143-77 147-88 148-743 1136 53-23 139-78 148-101 156-127 35-33 1190-1821-13 194-38 200-59 204-80 205-97 204-112 200-124 194-892 1364 8 6 108 84 112 87 114 89 113 89 109 86 103 82 94 75 81 67 66 57 49 45 898 828 115 116 120 124 124 132 128 137 131 143 132 148 133 151 132 152 130 155 128 154 125 153 119 152 115 149 107 145 100 140 90 134 552 829 94 160 78 142 70 121 69 102 73 80 86 58 105 36 130 12 191-14 198-39 201-62 203-83 200-100 196-115 187-128 177-137 163-144 146-149 126-149 104-149-3230 4940H1550l3703-5665-17 120 18 131 49 141 79 147 105 151 128 152 148 150 165 146 179 139 3 2 7372-11278-12 31-27 73-40 109-51 141-7 21 382-585-9 121-20 78-478 731-71 196-79 217-82 224-83 226-84 223-81 214-77 201-72 182-66 160-56 131-386 839 144-105 139-120 135-129 130-135 126-137 121-134 117-127 112-118 41-48 42-62-821 1256 1238-589 1450-2217-24 38-24 38-1398 2140 58-28 50-35 64-55 76-72 86-88 95-100 100-109 105-117 106-120 40-46 869-1329 28-41 31-41 30-42 30-44-952 1456 31-35 103-121 100-117 93-110 84-101 73-88 61-74 45-57 319-380-1866 2855 57-29 88-44 86-45 85-44 84-44 86-45 86-46 88-46 91-47 95-49 99-50 824-489 331-506-29 47-13 26h413l235-360 26-18 24-16 21-15 22-13 23-12 27-11 30-10 37-10z"/><path fill="#F25F5C" d="M12083 7863l386-839c277-617 989-2647 1013-2694 93 22 237 176 245-210 97 47 68 35 210 35-8 93-38 214-70 280h175l-325 1004c-133 335-393 1200-610 1419-292 295-636 745-1024 1005z"/><path fill="#FFE066" d="M12223 8073c4-5 1120-1082 1350-1379l932-1097c100-114 227-273 307-392 128 34 73 37 175 105 60-91 124-218 210-280 108 25 101 45 209 70-70 132-174 215-209 350 162 13 61-38 139 70l-319 380c-199 251-1127 1361-1348 1486l-1446 687z"/><path fill="#247BA0" d="M16176 6604c45 124 74 60 105 175l-1866 1107c-539 272-868 469-1492 747-90 41-154 81-260 125-117 49-168 69-265 120-48-181-164-178-245-525l1000-434c183-76 280-155 458-242 184-92 304-161 478-256 315-173 611-341 904-530 158-102 296-181 455-280 79-50 132-90 210-140 52-34 51-31 110-65l128-82c77 54 44 6 70 105 159-13 192-75 315-140 45 170 60 41 105 210-107 25-135 55-210 105z"/><path fill="#4C4C4C" d="M11803 8003c0 469 746 1784 1435 1784 299 0 119-218 349-280 168 700-434 978-1338 79-968-963-966-2073-586-2073 325 0 229 20 420 36-52 196-280 187-280 454zM12083 7863z"/><path fill="#70C1B3" d="M16771 8003c175 0 181-4 314-35 12 136 32 91 36 245h-315c2 107 15 128 35 210-146 12-334 75-483 112l-2355 688c-832 276-852 458-1194 153-86-77-169-134-201-253 177-42 317-118 486-179 1145-413 1899-661 3096-962 167-42 419-105 581-119 20 44 12-6 10 52 0 2-10 81-10 88z"/><path fill="#4C4C4C" d="M12223 8073z"/><path fill="#50514F" d="M7500 16154c-1006 0-2438-1224-2247-1825l1212-1869c155-225 293-385 451-599l2220-2397c313-318 1322-1129 1716-1398 111-76 185-166 322-203 0 1026 1168 2430 1819 2484-48 71-1145 889-1355 1094l-910 839c-601 600-1489 1608-1954 2314l-559 840c-281 456-321 720-715 720z"/><g><path fill="#F25F5C" d="M23004 8138l-380-828c-274-609-977-2614-1001-2660-92 21-234 173-242-207-96 46-67 34-207 34 7 92 37 211 69 277h-173l321 991c131 331 388 1185 602 1401 289 291 628 735 1011 992z"/><path fill="#FFE066" d="M22866 8345c-4-5-1106-1068-1332-1361l-921-1083c-98-113-224-270-303-388-126 34-72 37-172 104-60-90-123-215-207-276-108 25-101 44-208 69 70 130 172 213 208 345-161 13-61-37-139 69l316 376c196 247 1112 1343 1330 1467l1428 678z"/><path fill="#247BA0" d="M18964 6895c-45 122-74 59-104 172l1842 1094c532 268 857 463 1473 737 89 40 152 80 257 123 116 48 166 68 261 119 48-179 162-176 242-518l-987-429c-181-75-277-153-452-239-182-91-300-159-472-253-311-170-603-336-893-523-155-100-292-178-449-276-78-49-130-90-207-139-52-33-51-30-109-63l-126-82c-77 53-43 6-69 104-157-13-189-74-311-138-45 167-59 40-104 207 106 25 133 54 208 104z"/><path fill="#4C4C4C" d="M23281 8276c0 463-737 1762-1417 1762-295 0-117-216-345-277-165 691 429 965 1321 78 956-951 954-2046 579-2046-321 0-226 18-415 34 52 194 277 185 277 449zM23004 8138z"/><path fill="#70C1B3" d="M18376 8276c-173 0-179-4-310-34-12 134-32 90-35 241h311c-2 106-16 126-35 208 144 12 329 73 477 110l2325 680c821 272 841 452 1179 151 85-76 167-133 198-251-175-40-313-116-479-176-1131-408-1875-652-3057-950-165-41-414-104-574-117-20 43-12-7-10 51 0 2 10 80 10 87z"/><path fill="#4C4C4C" d="M22866 8345z"/><path fill="#50514F" d="M27528 16323c994 0 2408-1208 2219-1801l-1196-1846c-154-222-289-380-445-591l-2192-2367c-309-313-1306-1114-1694-1380-110-75-183-164-318-200 0 1012-1153 2399-1796 2452 47 70 1130 878 1338 1080l898 828c593 593 1470 1588 1929 2285l552 829c277 451 317 711 705 711z"/></g><g fill="#FDBD28"><path d="M14892 10565c69-18 108-86 155-133l468-424c56-45 91-97 147-141l780-718c69-53 96-93 157-146 34-31 48-34 83-68l386-356c60-59 90-92 157-145 59-47 93-99 156-147 136-105 647-613 765-703l541-503c35-30 48-34 83-68l620-575c27-27 48-51 77-75 81-68 343-299 389-368h-1831l493-717c37-56 64-89 100-142 70-105 133-191 203-297l590-862c37-54 64-88 100-143 37-55 73-98 103-154h-1362c-486 0-370-69-536 160-37 51-58 82-94 134l-956 1359c-62 92-125 174-188 266-95 139-931 1295-950 1365h1559c-16 65-213 361-264 447l-1867 3036c-27 43-51 64-64 118zM14892 10565h-15l13 18 2-18z"/></g></svg>