<?xml version="1.0" encoding="UTF-8"?>
<!DOCTYPE svg PUBLIC "-//W3C//DTD SVG 1.0//EN" "http://www.w3.org/TR/2001/REC-SVG-20010904/DTD/svg10.dtd">
<!-- Creator: CorelDRAW X8 -->
<svg xmlns="http://www.w3.org/2000/svg" xml:space="preserve" width="41px" height="50px" version="1.0" shape-rendering="geometricPrecision" text-rendering="geometricPrecision" image-rendering="optimizeQuality" fill-rule="evenodd" clip-rule="evenodd"
viewBox="0 0 304 369"
 xmlns:xlink="http://www.w3.org/1999/xlink">
 <g id="Layer_x0020_1">
  <metadata id="CorelCorpID_0Corel-Layer"/>
  <g id="_2627754459792">
   <path fill="#2B597A" d="M150 43c-1,2 -3,4 -4,5 -3,4 -5,7 -8,10 -1,1 -2,2 -3,2l-21 20c0,-2 1,-9 2,-13 0,-4 0,-8 0,-13l-1 -9c0,2 -1,11 -1,13 0,2 -1,10 -2,11 -1,6 -3,15 -7,20 -5,5 -9,9 -13,15l-8 10c-1,-10 -4,-20 -8,-29 -1,-3 -2,-6 -4,-8 0,-1 0,-1 0,-2 -1,0 -1,0 -1,0l4 15c2,6 2,11 3,16 0,2 1,5 1,8 0,9 -2,11 -6,19 -2,4 -4,8 -6,12 -1,4 -2,8 -3,12 0,0 0,1 0,1 0,0 -1,0 -1,0 0,0 0,0 0,1 -2,-7 -12,-21 -17,-27 -1,-1 -2,-3 -3,-4 -1,-1 -3,-2 -4,-4l-2 -1 14 22c1,1 2,2 2,4 1,1 2,2 2,4 1,1 3,4 3,6 1,1 3,8 3,11 0,4 0,8 0,13 0,6 0,12 1,18 1,1 2,5 1,6 0,-1 -2,-3 -3,-3 -7,-6 -13,-9 -21,-13 -2,-1 -9,-3 -11,-3l-3 -1c6,3 9,3 18,9 3,2 5,3 7,5 3,2 5,4 7,6 3,3 6,7 9,11 1,2 6,11 6,12 1,1 1,1 1,2 4,7 11,17 17,23 1,1 2,3 2,4 -2,-1 -6,-2 -8,-2 -7,-2 -24,-5 -29,-5l-5 0 7 2c6,1 26,5 29,7 6,2 14,6 18,10l8 8c6,7 14,15 20,23 6,9 8,21 7,33 0,7 -1,12 -2,18 -1,3 -2,6 -2,9 -1,2 -2,5 -3,7l49 0c-1,-1 -2,-4 -3,-6 -6,-17 -6,-35 -4,-52 1,-11 4,-18 9,-26 2,-3 6,-8 8,-10 4,-2 8,-4 13,-6 3,-2 16,-3 21,-4 4,0 8,0 12,0 4,0 9,1 11,1 0,0 -3,0 -4,0 -4,-2 -17,-2 -22,-2 -12,0 -12,1 -21,2 1,-1 8,-6 11,-8 3,-3 7,-6 10,-9 3,-4 6,-6 10,-9l5 -5c2,-1 5,-3 6,-3 3,-3 13,-7 18,-8 6,-3 13,-4 21,-5l-8 0c-4,0 -16,4 -20,5 -3,1 -6,2 -8,3l-8 4c1,-3 5,-7 8,-18 1,-5 1,-5 3,-10 1,-2 1,-3 2,-5 1,-1 2,-3 2,-4 6,-8 12,-15 20,-22 1,-1 2,-2 4,-2 1,-1 3,-2 4,-3 -2,0 -7,3 -8,4 -1,1 -3,2 -4,2 -1,1 -2,2 -4,3 -2,2 -4,4 -6,5 -5,5 -9,11 -11,13 -1,-8 -2,-13 -4,-20 -1,-4 -2,-6 -2,-10 0,-3 0,-8 1,-11 0,-5 4,-12 6,-16 4,-7 6,-8 10,-13 -1,1 -2,2 -3,3 -1,1 -2,2 -3,3 -4,5 -5,6 -9,12 -2,4 -4,9 -6,13 0,1 0,1 0,2 -1,-3 -5,-12 -6,-14 -2,-3 -6,-12 -6,-14 -1,-2 -5,-14 -6,-17 -1,-3 -1,-4 -1,-5 0,0 0,0 0,-1l0 4c0,3 1,9 2,12 0,2 3,11 3,12 0,0 0,0 0,0l1 0c0,1 0,1 0,1 0,1 0,2 1,3 6,19 17,43 14,63 -1,-1 -1,-3 -2,-4 -4,-8 -10,-16 -17,-22 -1,-1 -2,-3 -3,-3 -2,-1 -1,-2 -3,-2l5 5c4,5 11,14 12,20 2,4 4,10 4,14 0,6 -1,9 -4,14 -3,3 -6,7 -9,10 -1,1 -8,8 -10,9 1,-10 1,-14 -2,-23 -1,-2 -2,-4 -3,-6 -1,-1 -1,-2 -2,-3 1,1 3,8 4,13 0,2 1,12 -1,14 0,3 -2,7 -3,9 -2,3 -4,4 -7,6 -2,2 -5,3 -7,5 -2,1 -3,2 -4,3 -1,1 -3,2 -4,3 1,-10 -2,-16 -8,-24 -2,-2 -4,-4 -5,-6 -1,0 -1,1 -1,0 -1,-1 -1,-2 -3,-3 0,2 5,7 8,13 2,5 4,11 4,17 0,3 -1,7 -3,9 0,1 -3,4 -4,5 -1,0 -1,1 -2,1 -4,4 -6,6 -9,10 0,1 -2,3 -2,4l-1 -1c0,0 -1,-1 -1,-1l-4 -7c-2,-3 -3,-6 -5,-9 -6,-15 -10,-27 -14,-43 -1,-6 4,-16 7,-21 3,-5 6,-9 11,-14 2,-2 8,-7 10,-8l4 -3c-2,0 -3,2 -4,2 -5,3 -13,10 -17,14 -5,4 -9,10 -13,16 -1,-9 2,-25 6,-34 2,-7 8,-13 14,-18 1,-1 4,-4 6,-4 2,-3 11,-8 15,-10 4,-1 15,-6 19,-6l-5 1c-11,2 -29,10 -38,16 0,1 -1,1 -2,2 1,-1 2,-4 3,-5 3,-4 5,-7 9,-12 1,-2 12,-14 14,-15 0,-1 4,-4 5,-5 2,-2 4,-4 5,-6 12,-15 16,-27 8,-45l-1 -1c-1,0 -1,-1 -2,-2 1,3 3,6 4,12 0,4 0,9 -1,13 -2,8 -8,15 -13,20 -2,3 -5,5 -8,8l-8 8c0,-4 0,-7 0,-11 -2,-6 -4,-12 -7,-18 -1,-2 -3,-5 -5,-7 -1,-1 -2,-3 -3,-4 0,1 1,2 2,4 3,6 6,14 7,21 1,2 1,9 1,11 0,6 -3,12 -7,17 -1,1 -2,3 -4,4 -4,5 -6,9 -10,14 -1,2 -2,4 -3,5 0,0 -3,-8 -3,-9 -3,-6 -6,-10 -10,-16 -2,-2 -5,-4 -6,-7l-4 -3 5 8c5,7 8,14 10,22 1,1 1,4 1,5 0,6 2,9 -1,16 -7,15 -8,31 -6,47 1,10 4,20 7,29 1,5 3,9 5,13 2,4 5,10 6,13l-15 -14c-1,-1 -2,-2 -4,-3 -1,-1 -2,-2 -3,-4 -8,-7 -13,-13 -19,-22 -4,-5 -5,-14 -5,-21 1,-8 0,-8 2,-17 3,-7 5,-9 7,-13l-2 2c-2,2 -3,5 -5,8 -4,9 -6,17 -6,28 -4,-6 -10,-20 -12,-27 -10,-40 9,-81 37,-112 6,-6 14,-14 20,-20 11,-10 21,-21 24,-35 1,-3 2,-13 1,-17l0 -2c-1,10 -2,18 -7,27l0 0z"/>
   <path fill="#2B597A" d="M18 107c0,1 1,2 1,4 1,4 0,9 -1,14 -1,11 3,22 16,26 9,3 14,2 21,2 0,-2 -1,-3 -2,-4 0,-2 -1,-3 -2,-4l-14 -22 2 1c2,1 9,9 11,11 2,2 3,4 5,6 1,1 4,6 4,7 1,-2 3,-6 4,-8 1,-3 1,-6 1,-9 -2,-12 -9,-20 -23,-23 -7,-2 -17,-3 -23,-1z"/>
   <path fill="#2B597A" d="M34 242l-4 3c-1,1 -2,1 -3,2 -2,1 -6,5 -6,7 12,4 14,14 29,17 8,2 15,2 22,-1 4,-1 8,-4 11,-6 0,-1 2,-3 3,-3 -3,-2 -23,-6 -29,-7l-7 -2 5 0c0,0 0,0 0,0l16 1 15 3c-1,-4 -5,-9 -7,-11 -7,-7 -20,-11 -31,-8 -3,0 -5,1 -8,2 -2,1 -5,3 -6,3z"/>
   <path fill="#2B597A" d="M126 167c0,-1 0,-4 -1,-5 -2,-8 -5,-15 -10,-22l-5 -8 4 3 5 6c4,4 7,8 10,13l4 7c4,-6 5,-13 3,-21 -1,-3 -3,-6 -5,-9 -2,-2 -4,-4 -7,-5 0,0 0,0 0,-1 -1,0 0,0 -1,0 -2,0 -8,-5 -28,-5 1,14 -7,20 1,34 3,5 5,8 11,10 6,3 12,3 19,3z"/>
   <path fill="#2B597A" d="M57 207c-2,-2 -4,-4 -7,-6 -2,-2 -4,-3 -7,-5 -9,-6 -12,-6 -18,-9l3 1c1,-1 1,0 2,0l6 1c5,2 11,4 15,6l6 4c0,-7 -4,-14 -8,-18 -5,-4 -12,-7 -23,-7 -8,1 -20,4 -26,8 0,1 1,2 2,3 5,9 6,16 17,23 5,3 11,5 20,4 4,0 10,-1 14,-3 1,-1 3,-2 4,-2z"/>
   <path fill="#2B597A" d="M141 122c1,0 2,1 3,1 1,1 3,1 4,2 3,0 6,0 9,1l0 1c0,-2 0,-9 -1,-11 -1,-7 -4,-15 -7,-21 -1,-2 -2,-3 -2,-4 1,1 2,3 3,4 1,0 0,-1 1,1 11,14 12,24 12,25 2,-1 5,-6 6,-8 4,-11 1,-21 -9,-28l-1 -1c0,0 0,0 0,0l0 0c-1,0 -13,-8 -29,-6 0,3 2,4 0,13 -2,8 -3,15 2,24 2,2 4,4 6,6 1,0 2,1 3,1z"/>
   <path fill="#2B597A" d="M58 98c1,1 3,2 4,3 2,1 3,2 5,2 3,2 7,3 11,3 -1,-5 -1,-10 -3,-16l-4 -15c0,0 0,0 1,0 0,1 0,1 0,2 1,0 1,0 1,0l3 6c2,4 4,9 6,14 0,1 1,6 2,7 8,-7 13,-21 6,-31 -2,-5 -7,-8 -11,-11 -3,-1 -5,-3 -8,-4 -2,-1 -8,-3 -8,-3 -1,0 -1,2 -1,3 -2,7 -15,15 -10,31 1,6 5,8 6,9z"/>
   <path fill="#2B597A" d="M162 184c1,0 2,-2 4,-2l-4 3c-2,1 -8,6 -10,8 -5,5 -8,9 -11,14 7,1 11,3 21,1 13,-1 20,-9 22,-19 0,-4 1,-10 2,-13 0,-2 1,-2 2,-4 -4,-2 -15,-3 -20,-2 -7,0 -12,2 -17,5 -9,6 -13,15 -12,25 0,1 0,2 0,2 3,-4 19,-17 23,-18z"/>
   <path fill="#2B597A" d="M93 54c2,7 10,13 19,14l0 1c1,-1 2,-9 2,-11 0,-2 1,-11 1,-13l1 9 0 -2c1,0 1,2 1,3 0,4 0,11 0,12 11,-6 19,-14 15,-26 -2,-9 -10,-15 -19,-20 -1,0 -2,-1 -3,-2 -1,1 0,0 -1,1 -1,3 -3,5 -5,7 -2,2 -4,4 -6,7 -3,3 -4,5 -5,9 -1,3 -1,8 0,11z"/>
   <path fill="#2B597A" d="M179 260c0,-6 -2,-12 -4,-17 -3,-6 -8,-11 -8,-13 2,1 2,2 3,3 0,1 0,0 1,0 1,1 4,4 5,5 8,9 9,17 10,18 1,-1 3,-4 4,-6 3,-8 1,-17 -6,-23 -10,-9 -24,-8 -37,-7 1,3 2,4 2,8 0,7 -1,13 4,20 5,7 13,11 26,12z"/>
   <path fill="#2B597A" d="M274 219l8 0c-8,1 -15,2 -21,5 -5,1 -15,5 -18,8 1,0 3,1 4,2 1,1 2,1 3,2 9,5 19,5 29,2 5,-2 9,-6 13,-9 3,-3 5,-6 9,-8 1,-1 2,-1 3,-2 -2,-2 -9,-6 -14,-8 -6,-2 -13,-3 -20,-2 -7,1 -12,3 -17,6 -3,2 -8,8 -10,12 1,-1 3,-1 4,-2 1,0 2,-1 3,-1 5,-1 21,-5 24,-5z"/>
   <path fill="#2B597A" d="M244 266c1,0 4,0 4,0 -2,0 -7,-1 -11,-1 -4,0 -8,0 -12,0 -5,1 -18,2 -21,4l1 0c1,2 3,4 4,6 6,5 14,8 24,8 16,-1 27,-8 34,-9 -1,-1 -4,-5 -5,-6 -9,-11 -24,-18 -40,-13 -3,1 -6,3 -8,4 -1,1 -5,4 -6,5 3,0 6,0 9,-1 7,0 23,1 27,3z"/>
   <path fill="#2B597A" d="M273 171c1,-1 6,-4 8,-4 -1,1 -3,2 -4,3 -2,0 -3,1 -4,2 -8,7 -14,14 -20,22 4,1 9,4 19,3 23,-5 18,-30 20,-37 1,-1 1,-1 1,-2l0 0c-5,-1 -14,1 -19,2 -10,2 -19,6 -23,14 -2,4 -3,11 -1,15 2,-2 8,-8 10,-10 2,-1 12,-8 13,-8z"/>
   <path fill="#2B597A" d="M98 193l2 -2c-2,4 -4,6 -7,13 -2,9 -1,9 -2,17 7,-1 11,-1 15,-4 4,-2 6,-5 8,-10 4,-10 1,-15 1,-22 1,-4 2,-5 2,-7 -6,-1 -14,0 -20,1 -12,4 -18,14 -17,24 0,4 4,12 6,14 0,-1 2,-6 2,-7 1,-2 2,-4 3,-6 3,-6 3,-6 7,-11z"/>
   <path fill="#2B597A" d="M173 134c-1,1 -4,3 -5,4 -4,3 -10,11 -11,15 1,0 2,-1 3,-2 6,-2 23,-9 27,-8l5 -1c-4,0 -15,5 -19,6 -4,2 -13,7 -15,10 11,9 33,9 43,-6 1,-2 2,-5 4,-7 0,-1 2,-3 3,-4 0,0 1,0 1,-1 -1,-2 -7,-5 -8,-5l0 -1c-1,0 -14,-5 -25,-1 -1,1 -2,1 -3,1z"/>
   <path fill="#2B597A" d="M170 86c1,1 2,3 8,6 4,2 8,3 13,3 1,-4 1,-9 1,-13 -1,-6 -3,-9 -4,-12 1,1 1,2 2,2l1 1c0,0 0,0 0,1l2 3c1,1 1,3 2,5 1,3 2,7 2,11 1,-1 3,-3 4,-5 2,-1 3,-3 4,-5 2,-5 2,-10 0,-14 -2,-4 -6,-7 -10,-9 -3,-2 -10,-5 -14,-6 -1,6 -6,9 -10,14 -3,4 -4,9 -2,14 0,1 1,3 1,4z"/>
   <path fill="#2B597A" d="M144 8l-1 1c-2,2 -4,4 -5,6 -1,2 -1,3 -2,4 -2,8 0,14 8,20l4 3c2,1 2,0 2,1l0 0c5,-9 6,-17 7,-27l0 2c1,2 1,10 1,13 0,4 -2,7 -2,11 3,-1 7,-4 9,-5 9,-7 8,-17 2,-26 0,0 0,0 0,-1 0,0 0,0 -1,0 -1,-2 -9,-9 -12,-10 -1,1 -1,2 -2,3 -1,1 -7,5 -8,5z"/>
   <path fill="#2B597A" d="M219 110l0 -4c0,1 0,1 0,1 0,1 0,2 1,5 1,3 5,15 6,17l5 -4c11,-10 8,-20 -2,-29 -2,-2 -9,-7 -8,-11 -1,0 -1,1 -2,1 -8,6 -15,12 -17,21 0,6 1,12 5,15 3,3 10,6 14,7 0,-3 -1,-6 -2,-9 0,-1 -1,-8 0,-9 0,-1 0,-1 0,-1z"/>
   <path fill="#2B597A" d="M209 237c2,-2 1,-12 1,-14 -1,-5 -3,-12 -4,-13 1,1 1,2 2,3 1,0 5,7 5,9 1,3 2,6 3,10 0,0 3,-4 3,-5 9,-16 -6,-32 -29,-31 1,9 -6,14 -2,27 3,7 10,13 21,13l0 1z"/>
   <path fill="#2B597A" d="M253 130c1,-1 2,-2 3,-3 1,-1 2,-2 3,-3 -4,5 -6,6 -10,13 -2,4 -6,11 -6,16 19,2 28,-9 27,-23 0,-2 -1,-4 -1,-7 0,-2 -1,-4 -1,-7 -13,1 -21,3 -27,9 -2,3 -4,7 -5,12 0,4 1,10 3,13 1,-1 2,-4 3,-6 2,-4 6,-9 9,-13 1,0 1,0 1,-1 1,-1 1,-1 1,0z"/>
   <path fill="#2B597A" d="M232 195c-1,-6 -8,-15 -12,-20l-5 -5c2,0 1,1 3,2 2,1 8,6 10,9 4,3 6,6 9,10 2,-2 1,-11 0,-14 -1,-5 -3,-7 -7,-10 -6,-6 -20,-8 -30,-5 0,1 1,2 2,6 1,6 1,13 4,19 4,5 10,8 18,8 3,1 6,0 8,0z"/>
  </g>
 </g>
</svg>
