<?xml version="1.0" encoding="UTF-8"?>
<!DOCTYPE svg PUBLIC "-//W3C//DTD SVG 1.0//EN" "http://www.w3.org/TR/2001/REC-SVG-20010904/DTD/svg10.dtd">
<!-- Creator: CorelDRAW 2017 -->
<svg xmlns="http://www.w3.org/2000/svg" xml:space="preserve" width="356px" height="200px" version="1.0" shape-rendering="geometricPrecision" text-rendering="geometricPrecision" image-rendering="optimizeQuality" fill-rule="evenodd" clip-rule="evenodd"
viewBox="0 0 35600 20025"
 xmlns:xlink="http://www.w3.org/1999/xlink">
 <g id="__x0023_Layer_x0020_1">
  <metadata id="CorelCorpID_0Corel-Layer"/>
  <g id="_3021156532080">
   <path fill="#E7E8E8" d="M0 0l35600 0 0 20025 -35600 0 0 -20025z"/>
   <path fill="#373435" fill-opacity="0.078431" d="M0 13141l8840 -8386 4928 -1937 5496 926 7 8 21 21 31 36 38 51 44 65 45 79 45 95 42 109 35 124 26 138 14 154 0 169 -17 183 -38 199 -60 214 -86 230 100 104 87 104 76 104 65 105 55 103 45 103 36 101 27 100 20 98 13 96 7 94 0 90 -4 88 -9 84 -12 81 -16 76 -29 103 -30 73 1269 -1204 -41 50 -31 56 -19 63 -7 67 0 2021 7 67 19 62 31 57 41 49 49 41 56 30 63 20 67 7 1314 0 23 0 14 2 4284 -4065 -20 25 -15 28 -8 29 -3 30 3 30 8 29 15 28 20 24 125 132 118 137 111 141 103 146 95 151 88 154 80 158 72 162 63 165 56 169 47 171 39 173 31 176 21 178 14 180 4 182 -4 181 -14 180 -21 179 -31 176 -39 173 -47 171 -56 169 -63 165 -72 162 -80 158 -88 154 -95 151 -103 146 -111 141 -118 137 -125 131 -20 25 -15 28 -8 29 -3 30 3 30 8 30 15 27 20 25 12 11 13 10 13 7 14 7 15 5 14 4 16 2 15 1 15 -1 15 -2 15 -4 14 -5 14 -7 14 -7 12 -10 12 -11 -5785 5488 0 1 18 17 16 19 14 20 12 22 10 23 8 25 5 26 3 28 1 30 -2 59 -6 57 -10 55 -15 52 -4 11 760 -721 -171 816 539 -511 21 -17 22 -17 23 -14 22 -13 21 -11 21 -8 21 -7 20 -5 19 -3 19 -1 17 1 15 1 15 3 14 4 13 6 12 6 11 8 10 9 9 10 8 11 6 11 6 13 4 13 3 14 2 16 0 16 0 10 -2 13 -3 18 -4 21 -5 26 -6 30 -7 33 -7 38 -88 405 876 -832 -28 29 -26 31 -23 34 -21 35 -18 38 -15 40 291 25 84 -80 12 -10 12 -10 14 -8 15 -8 16 -6 17 -5 18 -4 20 -3 20 -1 22 -1 21 1 19 1 19 3 16 4 16 5 14 6 13 8 11 8 11 10 8 10 8 10 6 11 5 12 3 12 2 13 1 13 -1 11 -1 12 -1 12 -3 14 -3 15 -3 15 -4 16 -5 18 -265 250 24 -4 55 -10 60 -7 13 -2 11 -2 11 -2 11 -2 9 -2 9 -2 9 -2 8 -2 -10 45 -6 30 -6 24 802 -761 -119 567 521 -494 -46 45 -45 54 -43 63 -396 375 -55 264 535 -508 21 -19 22 -17 22 -15 23 -14 22 -11 22 -9 22 -8 0 0 288 -273 133 759 799 -759 -295 554 -28 52 -27 52 -25 51 -23 50 -22 50 -20 49 -19 48 -17 48 -248 235 10 55 -26 55 -27 48 -29 40 -31 33 -285 270 -2 22 33 9 32 8 31 6 30 5 30 5 28 2 28 2 27 1 26 -1 26 -2 24 -3 24 -4 22 -5 22 -7 20 -8 20 -9 18 -10 18 -11 18 -12 17 -13 15 -14 -3074 2917 -23049 0 0 -6884z"/>
   <g>
    <path fill="#737476" d="M9199 16701l-377 0 -306 -1716 350 0 217 1299 711 -1299 349 0 -944 1716zm697 -516l0 0c0,99 23,191 67,277 44,86 112,153 202,200 90,47 194,70 311,70 216,0 388,-73 517,-221 128,-146 192,-321 192,-523 0,-172 -51,-308 -154,-410 -103,-101 -246,-152 -429,-152 -211,0 -382,69 -511,206 -130,138 -195,322 -195,553zm956 -241l0 0c0,161 -44,298 -133,410 -62,80 -139,119 -230,119 -74,0 -134,-26 -183,-79 -48,-52 -72,-123 -72,-213 0,-72 16,-152 47,-238 31,-86 75,-152 130,-197 56,-45 121,-68 193,-68 73,0 133,24 179,73 46,48 69,112 69,193zm817 -959l0 0 335 0 -63 305 -336 0 64 -305zm-99 472l0 0 336 0 -261 1244 -335 0 260 -1244zm1247 777l0 0 326 53c-54,145 -133,256 -239,332 -105,76 -227,113 -365,113 -159,0 -284,-47 -377,-142 -92,-94 -139,-225 -139,-391 0,-135 28,-263 85,-384 56,-121 140,-215 253,-285 113,-69 237,-104 372,-104 147,0 264,39 351,116 87,76 136,177 147,303l-318 34c-8,-70 -30,-121 -64,-154 -35,-33 -80,-50 -137,-50 -64,0 -125,25 -181,73 -56,49 -99,122 -129,218 -30,97 -45,188 -45,272 0,74 18,131 53,171 36,40 81,60 135,60 53,0 105,-20 155,-59 50,-39 89,-98 117,-176zm1702 -50l0 0 -844 0c-1,13 -1,23 -1,30 0,84 24,151 71,202 48,51 106,77 174,77 113,0 201,-58 264,-173l300 51c-59,120 -137,210 -236,271 -98,60 -208,90 -330,90 -167,0 -304,-53 -408,-159 -105,-106 -158,-246 -158,-421 0,-170 48,-322 142,-456 129,-180 313,-270 552,-270 152,0 273,48 363,142 90,94 134,226 134,396 0,81 -7,154 -23,220zm-283 -204l0 0c1,-15 1,-26 1,-34 0,-93 -21,-163 -62,-210 -41,-47 -97,-70 -167,-70 -69,0 -132,26 -187,79 -55,53 -92,131 -112,235l527 0zm1076 721l0 0 359 -1716 464 0c129,0 212,2 248,6 71,7 134,22 190,44 56,22 107,52 153,91 46,40 85,87 119,142 33,56 58,120 76,192 18,72 28,151 28,237 0,185 -36,349 -107,492 -70,143 -160,257 -267,341 -82,66 -188,114 -317,145 -74,17 -187,26 -340,26l-606 0zm410 -275l0 0 180 0c130,0 225,-8 283,-24 58,-16 112,-46 160,-90 70,-63 129,-148 177,-253 48,-105 72,-230 72,-373 0,-121 -20,-213 -60,-274 -39,-61 -88,-102 -146,-123 -41,-14 -113,-21 -218,-21l-206 0 -242 1158zm1675 -1441l0 0 335 0 -63 305 -336 0 64 -305zm-99 472l0 0 335 0 -260 1244 -335 0 260 -1244zm1246 777l0 0 326 53c-54,145 -133,256 -238,332 -105,76 -227,113 -366,113 -158,0 -283,-47 -376,-142 -92,-94 -139,-225 -139,-391 0,-135 28,-263 85,-384 56,-121 140,-215 253,-285 113,-69 237,-104 372,-104 146,0 264,39 351,116 87,76 136,177 147,303l-319 34c-8,-70 -29,-121 -64,-154 -34,-33 -80,-50 -136,-50 -65,0 -125,25 -181,73 -57,49 -100,122 -130,218 -30,97 -45,188 -45,272 0,74 18,131 54,171 36,40 81,60 134,60 54,0 106,-20 156,-59 49,-39 88,-98 116,-176zm578 -527l0 0 51 -250 165 0 40 -194 380 -232 -87 426 204 0 -51 250 -203 0 -110 525c-20,94 -30,147 -30,160 0,27 8,46 25,61 16,14 45,21 88,21 15,0 52,-2 111,-8l-53 249c-58,11 -117,17 -177,17 -118,0 -204,-23 -258,-69 -54,-46 -80,-110 -80,-191 0,-38 15,-126 45,-264l107 -501 -167 0zm1072 -722l0 0 335 0 -64 305 -335 0 64 -305zm-100 472l0 0 -260 1244 336 0 260 -1244 -336 0zm456 728l0 0c0,-231 65,-415 195,-553 129,-137 300,-206 511,-206 183,0 326,51 429,152 103,102 154,238 154,410 0,202 -64,377 -192,523 -129,148 -301,221 -517,221 -117,0 -221,-23 -311,-70 -90,-47 -158,-114 -202,-200 -44,-86 -67,-178 -67,-277zm956 -241l0 0c0,-81 -23,-145 -69,-193 -46,-49 -106,-73 -179,-73 -72,0 -137,23 -193,68 -55,45 -99,111 -130,197 -31,86 -47,166 -47,238 0,90 24,161 72,213 49,53 109,79 182,79 92,0 169,-39 231,-119 89,-112 133,-249 133,-410zm723 -487l0 0 321 0 -33 164c80,-71 155,-120 225,-150 69,-30 142,-45 219,-45 103,0 184,30 244,89 59,60 88,138 88,237 0,43 -14,126 -43,247l-150 702 -336 0 153 -704c22,-106 33,-169 34,-189 0,-45 -12,-79 -38,-104 -26,-25 -61,-38 -107,-38 -50,0 -105,21 -166,62 -60,42 -108,97 -143,165 -26,48 -55,148 -88,298l-105 510 -336 0 261 -1244zm1673 348l0 0 -328 -28c37,-110 103,-196 196,-258 94,-62 217,-93 371,-93 160,0 279,33 355,97 77,65 115,143 115,236 0,38 -3,78 -10,120 -6,42 -30,153 -70,333 -33,149 -49,253 -49,312 0,53 10,112 28,177l-328 0c-12,-45 -20,-92 -24,-140 -49,54 -105,97 -169,127 -64,29 -129,44 -194,44 -103,0 -188,-34 -255,-102 -67,-67 -100,-154 -100,-261 0,-119 36,-215 110,-286 74,-71 206,-114 396,-129 160,-14 267,-30 321,-48 14,-48 21,-85 21,-113 0,-36 -15,-66 -44,-91 -28,-24 -72,-36 -129,-36 -60,0 -107,12 -142,36 -35,24 -59,59 -71,103zm320 314l0 0c-20,6 -47,11 -81,16 -168,20 -279,50 -330,89 -37,29 -55,67 -55,115 0,40 14,73 42,101 28,27 65,41 111,41 51,0 99,-13 144,-38 45,-24 78,-57 100,-96 23,-39 42,-100 59,-183l10 -45zm780 -662l0 0 315 0 -47 235c115,-177 241,-266 376,-266 48,0 100,12 154,37l-129 274c-30,-10 -63,-16 -98,-16 -57,0 -116,22 -176,66 -60,44 -107,102 -140,176 -34,73 -67,189 -100,348l-80 390 -336 0 261 -1244zm794 0l0 0 218 1244c-66,157 -151,235 -254,235 -38,0 -77,-6 -117,-18l-29 251c88,25 168,38 239,38 72,0 133,-13 184,-39 51,-26 94,-61 130,-107 36,-45 86,-124 149,-238l768 -1366 -356 0 -295 554c-77,140 -138,274 -181,400 -4,-63 -16,-174 -38,-333l-83 -621 -335 0z"/>
    <g>
     <g>
      <path fill="#D25557" d="M12644 13533l-4763 -2964c-253,-158 -432,-413 -488,-702 -44,-223 -62,-488 8,-736l0 -1c57,-198 170,-385 371,-530l5049 2883c-78,216 -251,754 -270,1311 -8,252 15,508 93,739z"/>
      <path fill="#E46361" d="M12821 11483c-78,216 -251,754 -270,1311l-4656 -2935c-254,-158 -431,-413 -489,-702 -1,-8 -3,-17 -5,-26l0 -1c57,-198 170,-385 371,-530l5049 2883z"/>
      <path fill="#FEFEFE" d="M14898 9410c-14,242 -80,518 -239,809l-6015 -1641 -149 -40 0 -1258 6246 1286c55,114 181,428 157,844z"/>
      <path fill="#FEFEFE" d="M15044 6934c-24,452 -190,686 -262,768l-5508 -1065 0 -1682 5649 1040c107,384 135,694 121,939z"/>
      <path fill="#76C5D0" d="M19318 5532l-4162 2005c127,-304 210,-808 1,-1581l3631 -1747c59,-29 84,-99 56,-158 -29,-59 -99,-83 -158,-55l-3686 1773 -3173 -584 -2559 -471 4513 -1774 3857 650 1568 264c107,116 525,657 112,1678z"/>
      <path fill="#435058" d="M19786 7124c-56,245 -216,455 -438,576l-4361 2374c167,-420 170,-802 123,-1095 -33,-204 -90,-364 -133,-464l844 -422c59,-29 82,-100 53,-159 -29,-58 -100,-81 -159,-52l-911 455 -6075 -1251 445 -228 5624 1087c6,2 11,2 17,2 2,0 4,1 6,1l1 0c5,0 8,-1 12,-2 5,0 9,-1 13,-2 9,-2 17,-4 25,-8l4514 -2174c235,248 355,501 406,734 52,236 34,453 -6,628z"/>
      <path fill="#E7F5FA" d="M20651 11584l-7639 2154c-367,-503 -209,-1360 -67,-1863 44,-157 87,-279 111,-346l7581 -1904 7 1021 7 938z"/>
      <path fill="#FEFEFE" d="M20644 10646l-7473 2108c-175,-239 -230,-557 -226,-879 44,-157 87,-279 111,-346l7581 -1904 7 1021z"/>
      <path fill="#E46361" d="M20737 9356l-4838 1216 -2914 732c0,0 0,0 -1,0l-4351 -2484 6051 1650c10,3 21,5 31,5 2,0 4,-1 6,-1 8,-1 16,-1 23,-3 5,-2 9,-3 13,-5 5,-2 10,-3 15,-6l0 0c1,-1 1,-1 1,-1l3241 -1764 566 -307 2157 968z"/>
      <path fill="#D25557" d="M18014 8695l-2115 1877 -2914 732c0,0 0,0 -1,0l-4351 -2484 6051 1650c10,3 21,5 31,5 2,0 4,-1 6,-1 8,-1 16,-1 23,-3 5,-2 9,-3 13,-5 5,-2 10,-3 15,-6l0 0c1,-1 1,-1 1,-1l3241 -1764z"/>
      <path fill="#3B444B" d="M19786 7124c-56,245 -216,455 -438,576l-4361 2374c167,-420 170,-802 123,-1095l4682 -2483c52,236 34,453 -6,628z"/>
      <path fill="#E7F5FA" d="M14898 9410c-14,242 -80,518 -239,809l-6015 -1641 -149 -143 0 -531 6403 1506z"/>
      <path fill="#6FB6C1" d="M19318 5532l-4162 2005c127,-304 210,-808 1,-1581l3631 -1747c59,-29 84,-99 56,-158 -29,-59 -99,-83 -158,-55l-3686 1773 -3173 -584c1307,-113 3665,-471 5811,-1595l1568 264c107,116 525,657 112,1678z"/>
      <path fill="#E7F5FA" d="M15044 6934c-24,452 -190,686 -262,768l-5508 -1065 0 -655 5770 952z"/>
      <path fill="none" stroke="#3B444B" stroke-width="236" stroke-linecap="round" stroke-linejoin="round" d="M7766 8461l5202 2969"/>
      <path fill="none" stroke="#3B444B" stroke-width="236" stroke-linecap="round" stroke-linejoin="round" d="M12968 11430c0,0 -674,1664 0,2443"/>
      <path fill="none" stroke="#3B444B" stroke-width="236" stroke-linecap="round" stroke-linejoin="round" d="M12968 13873l-5149 -3203"/>
      <path fill="none" stroke="#3B444B" stroke-width="236" stroke-linecap="round" stroke-linejoin="round" d="M7819 10670c-280,-175 -478,-456 -542,-780 -89,-450 -79,-1070 489,-1429"/>
      <path fill="none" stroke="#3B444B" stroke-width="236" stroke-linecap="round" stroke-linejoin="round" d="M12968 11430l8128 -2042 -2485 -1116"/>
      <path fill="none" stroke="#3B444B" stroke-width="236" stroke-linecap="round" stroke-linejoin="round" d="M12968 13873l7801 -2200 -15 -2199"/>
      <path fill="none" stroke="#3B444B" stroke-width="236" stroke-linecap="round" stroke-linejoin="round" d="M7766 8461l611 0"/>
      <path fill="none" stroke="#3B444B" stroke-width="236" stroke-linecap="round" stroke-linejoin="round" d="M8377 8628l0 -1493 6444 1326"/>
      <path fill="none" stroke="#3B444B" stroke-width="236" stroke-linecap="round" stroke-linejoin="round" d="M14821 8461c0,0 505,885 -106,1895"/>
      <path fill="none" stroke="#3B444B" stroke-width="236" stroke-linecap="round" stroke-linejoin="round" d="M14821 8461l947 -474"/>
      <path fill="none" stroke="#3B444B" stroke-width="236" stroke-linecap="round" stroke-linejoin="round" d="M8377 7135l779 -401 5665 1096"/>
      <path fill="none" stroke="#3B444B" stroke-width="236" stroke-linecap="round" stroke-linejoin="round" d="M14821 7830c0,0 624,-485 196,-1938"/>
      <path fill="none" stroke="#3B444B" stroke-width="236" stroke-linecap="round" stroke-linejoin="round" d="M15017 5892l-6177 -1137 4928 -1937 5496 926"/>
      <path fill="none" stroke="#3B444B" stroke-width="236" stroke-linecap="round" stroke-linejoin="round" d="M19264 3744c0,0 679,611 147,1875 566,553 581,1135 490,1531 -64,279 -245,517 -497,654"/>
      <path fill="none" stroke="#3B444B" stroke-width="236" stroke-linecap="round" stroke-linejoin="round" d="M19404 7804l-4689 2552 -6485 -1769"/>
      <path fill="none" stroke="#3B444B" stroke-width="236" stroke-linecap="round" stroke-linejoin="round" d="M14821 7830l4590 -2211"/>
      <path fill="none" stroke="#3B444B" stroke-width="236" stroke-linecap="round" stroke-linejoin="round" d="M15017 5892l3720 -1790"/>
      <path fill="none" stroke="#3B444B" stroke-width="236" stroke-linecap="round" stroke-linejoin="round" d="M9156 6734l0 -1921"/>
      <path fill="none" stroke="#3B444B" stroke-width="236" stroke-linecap="round" stroke-linejoin="round" d="M20769 11673l400 -96"/>
     </g>
     <g>
      <path fill="#3770B6" d="M22660 6025l-1314 0c-184,0 -333,149 -333,333l0 2021c0,184 149,333 333,333l1314 0c60,0 118,15 169,45l2107 1962c222,130 501,-29 501,-287l0 -6128c0,-257 -279,-417 -501,-287l-2107 1963c-51,30 -109,45 -169,45z"/>
      <path fill="#737476" d="M26629 9508c-41,0 -81,-16 -112,-47 -61,-61 -61,-161 0,-223 986,-986 986,-2590 0,-3576 -61,-61 -61,-161 0,-223 62,-61 161,-61 223,0 1110,1109 1110,2914 0,4022 -31,31 -71,47 -111,47z"/>
      <path fill="#737476" d="M26069 8869c-40,0 -80,-16 -111,-46 -62,-62 -62,-162 0,-223 679,-679 679,-1784 0,-2463 -62,-62 -62,-162 0,-224 62,-62 161,-62 223,0 802,803 802,2108 0,2910 -31,30 -71,46 -112,46z"/>
      <path fill="#737476" d="M27093 10292c-41,0 -81,-16 -112,-47 -62,-61 -62,-162 0,-224 688,-688 1067,-1602 1067,-2574 0,-972 -379,-1886 -1067,-2575 -62,-61 -62,-161 0,-223 62,-61 161,-61 223,0 748,748 1160,1742 1160,2798 0,1056 -412,2050 -1160,2798 -30,31 -71,47 -111,47z"/>
     </g>
    </g>
   </g>
   <path fill="#373435" fill-opacity="0.031373" d="M2082 17547c68,103 112,202 155,312 32,64 49,183 199,183 44,0 107,-14 163,-45 63,-33 111,-83 136,-159l60 -202 146 -72 10 10c-20,76 -25,148 -25,206 0,169 146,233 262,233 68,0 129,-33 129,-95 0,-80 -34,-216 -78,-338 68,-68 136,-136 214,-192l12 7c34,144 53,286 53,381 0,93 -41,196 -75,264 -70,132 -194,237 -344,237 -114,0 -241,-58 -328,-163l-5 0c-82,101 -209,194 -412,194l-63 0c-10,134 -39,229 -83,314 -121,237 -480,404 -818,404 -470,0 -706,-272 -706,-633 0,-223 73,-431 185,-578l92 37c-70,134 -117,262 -117,386 0,338 275,499 592,499 294,0 658,-187 724,-404 -25,-237 -114,-349 -250,-565 41,-72 94,-145 160,-221l12 0zm5421 -1274l0 0c99,62 196,136 291,220 -53,74 -119,143 -201,202 -95,-76 -190,-142 -287,-212 66,-74 131,-147 197,-210zm51 926l0 0c-160,0 -291,105 -291,183 0,167 320,219 703,217 -48,-196 -216,-400 -412,-400zm-359 895l0 0c208,0 390,-7 529,-42 155,-39 286,-117 286,-171 0,-14 0,-31 -5,-45 -87,8 -187,8 -274,8 -282,0 -498,-64 -583,-223 -21,-43 -36,-93 -36,-148 0,-153 66,-303 182,-406 97,-85 204,-139 313,-139 197,0 354,159 464,409 60,136 101,293 101,491 0,132 -36,243 -118,325 -153,149 -435,205 -867,205l-196 0 -51 0c-107,0 -184,-19 -245,-66l-10 0c3,24 5,49 5,72 0,97 -32,221 -97,320 -192,286 -400,410 -580,410 -182,0 -405,-70 -606,-161l36 -70c65,27 155,45 279,45 325,0 752,-313 805,-619 -12,-24 -34,-57 -65,-92 -95,-114 -155,-209 -211,-307 48,-95 92,-172 133,-240l17 -2c139,283 265,446 546,446l44 0 204 0zm-1408 299l0 0 31 14c141,-132 207,-218 214,-332 12,-91 17,-214 17,-340 0,-481 -12,-1003 -63,-1452l-22 -6c-75,58 -170,144 -238,218 39,357 87,906 87,1283l0 202c0,136 -2,283 -26,413zm-1449 -596l0 0 -95 0c-12,66 -12,117 -12,150 0,305 189,435 466,435 228,0 458,-82 674,-191 63,-112 102,-233 102,-361 0,-174 -92,-332 -240,-489 -163,-171 -383,-324 -580,-427l-19 2c-56,76 -124,184 -124,235 0,25 19,52 78,76 172,75 356,186 495,312 143,134 228,280 228,392 0,16 -17,35 -49,49 -177,85 -337,134 -526,134 -304,0 -391,-140 -398,-317zm-501 -504l0 0 -14 -2c-61,85 -117,169 -173,258 107,138 204,289 291,454 15,35 34,74 34,109 0,23 -7,56 -26,91 -160,305 -510,555 -852,557 -107,0 -194,-17 -269,-37l-27 70c238,103 444,159 624,159 121,0 252,-56 400,-188 189,-194 306,-390 306,-573l0 -227c0,-178 -59,-289 -122,-392l-172 -279z"/>
  </g>
 </g>
</svg>
