<?xml version="1.0" encoding="UTF-8"?>
<!DOCTYPE svg PUBLIC "-//W3C//DTD SVG 1.1//EN" "http://www.w3.org/Graphics/SVG/1.1/DTD/svg11.dtd">
<!-- Creator: CorelDRAW 2017 -->
<svg xmlns="http://www.w3.org/2000/svg" xml:space="preserve" width="3.70333in" height="2.08333in" version="1.1" style="shape-rendering:geometricPrecision; text-rendering:geometricPrecision; image-rendering:optimizeQuality; fill-rule:evenodd; clip-rule:evenodd"
viewBox="0 0 3703 2083"
 xmlns:xlink="http://www.w3.org/1999/xlink">
 <defs>
  <style type="text/css">
   <![CDATA[
    .fil2 {fill:none}
    .fil4 {fill:#FEFEFE}
    .fil9 {fill:#EC268F}
    .fil12 {fill:#CE3173}
    .fil11 {fill:#015D96}
    .fil10 {fill:#066DAE}
    .fil0 {fill:#E6E7E8}
    .fil6 {fill:#FF4927}
    .fil5 {fill:#FF5526}
    .fil8 {fill:#FFA40C}
    .fil7 {fill:#FFB23C}
    .fil3 {fill:#373435;fill-opacity:0.031373}
    .fil1 {fill:#373435;fill-opacity:0.078431}
   ]]>
  </style>
 </defs>
 <g id="Layer_x0020_1">
  <metadata id="CorelCorpID_0Corel-Layer"/>
  <polygon class="fil0" points="0,0 3703,0 3703,2083 0,2083 "/>
  <path class="fil1" d="M384 2083l-4 0 -37 0 -36 0 -57 0 -54 0 -32 0 -30 0 -28 0 -44 0 -13 0 -10 0 -27 0 -11 0 0 -48 0 -29 0 0 0 -5 0 -34 0 -35 0 -11 0 -38 0 -2 0 -6 0 -4 0 -6 0 -74 0 -75 0 -10 0 -13 0 -15 0 -16 0 -1 0 -147 1332 -1104 -30 26 -28 27 -27 28 -26 30 -24 31 -23 32 -21 33 -20 34 -18 35 -16 36 -15 37 -4 12 231 -190 5 -3 5 -2 6 -1 6 1 5 2 80 -66 26 -20 27 -19 28 -18 29 -16 29 -15 11 -5 276 -226 -4 5 -3 6 -1 7 0 147 17 0 13 0 0 0 0 0 22 1 35 3 34 4 34 6 33 8 32 9 32 11 31 12 30 14 29 15 29 16 28 18 27 19 26 20 25 22 11 11 16 -11 -15 12 11 11 23 24 21 25 20 26 19 27 18 28 16 29 15 30 14 30 12 31 11 32 9 32 8 33 6 34 4 34 3 35 1 35 -1 35 -3 35 -4 34 -6 34 -8 33 -9 32 -11 32 -12 31 -14 30 -15 30 -16 29 -18 28 -19 27 -20 26 -19 22 1 1 5 3 5 2 6 1 6 -1 5 -2 5 -3 -473 356 16 -1 41 -5 40 -7 40 -9 39 -11 38 -13 37 -15 36 -16 35 -18 34 -20 33 -21 32 -23 -517 386 -205 0 -13 0 0 0 0 0 -1 0 -25 0 -1 0 -23 0 -78 0 -7 0 -73 0 -29 0 -31 0 -22 0 -11 0 -63 0 -32 0 -33 0 0 0 -2 0 -8 0 -126 0 -6 0 -16 0 -58 0 -5 0 -17 0 -80 0 -130 0 -27 0 -6 0 -15 0 -11 0 -282 0 -3 0zm1451 -1713l0 0 17 -14 -17 14z"/>
  <g id="_2227230463440">
   <g>
    <path class="fil0" d="M1131 1428l740 -588 468 -305 -1182 936c-9,-14 -17,-29 -25,-43z"/>
    <path class="fil0" d="M1875 1859l482 -364 4 5 5 3 5 2 6 1 6 -1 5 -2 5 -3 -473 357c-14,1 -29,2 -44,2z"/>
    <path class="fil0" d="M1131 1428l740 -588 468 -305 -1182 936c-9,-14 -17,-29 -25,-43z"/>
    <path class="fil0" d="M1066 1266l799 -642 19 1 19 2 19 3 19 4 18 4 18 5 18 6 17 7 17 7 16 8 16 9 16 10 15 10 15 11 14 11 14 12 13 13 13 13 12 14 11 14 11 15 10 15 9 16 9 16 8 16 7 17 7 17 6 18 5 18 4 18 4 19 3 19 -906 703c-140,-106 -245,-255 -294,-429z"/>
    <path class="fil0" d="M1268 1615l792 -619 -5 4 -4 5 -2 6 -1 6 1 6 3 6 -770 601c-5,-5 -10,-10 -15,-15z"/>
    <path class="fil0" d="M1143 1449l946 -750 18 13 17 14 16 15 15 15 15 16 14 17 13 18 12 18 11 19 10 20 9 20 8 21 7 21 6 22 5 22 3 23 -906 703c-88,-66 -162,-150 -217,-246z"/>
    <path class="fil0" d="M1035 1022l817 -665 35 1 35 3 34 4 34 6 33 8 32 9 32 11 31 12 30 14 29 15 29 16 28 18 27 19 26 20 25 22 24 23 23 24 21 25 20 26 19 27 18 28 16 29 15 30 14 30 12 31 11 32 9 32 8 33 6 34 4 34 3 35 1 35 -990 759c-300,-121 -511,-415 -511,-759 0,-7 0,-13 0,-20z"/>
    <path class="fil0" d="M1415 1733l839 -649 62 0 -867 669c-11,-6 -22,-13 -33,-20z"/>
    <polygon class="fil0" points="1448,1753 2315,1084 2325,1083 2335,1080 2343,1076 1457,1758 "/>
    <path class="fil0" d="M1875 1859l482 -364 4 5 5 3 5 2 6 1 6 -1 5 -2 5 -3 -473 357c-14,1 -29,2 -44,2z"/>
    <path class="fil0" d="M1268 1615l792 -619 -5 4 -4 5 -2 6 -1 6 1 6 3 6 -770 601c-5,-5 -10,-10 -15,-15z"/>
    <polygon class="fil0" points="1412,1731 2245,1087 2249,1085 2254,1084 1415,1733 "/>
    <path class="fil0" d="M1283 1629l770 -601 305 468 -482 364c-8,0 -16,0 -24,0 -221,0 -422,-88 -569,-231z"/>
    <path class="fil0" d="M1545 1800l990 -759 -1 35 -3 35 -4 34 -6 34 -8 33 -9 32 -11 32 -12 31 -14 30 -15 30 -16 29 -18 28 -19 27 -20 26 -21 25 -23 24 -24 23 -25 22 -26 20 -355 268c-18,1 -36,2 -54,2 -108,0 -212,-21 -306,-59z"/>
    <path class="fil0" d="M1283 1629l770 -601 305 468 -482 364c-8,0 -16,0 -24,0 -221,0 -422,-88 -569,-231z"/>
    <polygon class="fil0" points="1155,1469 1631,1092 1638,1091 1643,1088 1157,1473 "/>
    <path class="fil0" d="M1114 1395l721 -574 1 7 3 6 4 5 5 4 6 2 6 1 6 -1 6 -3 -740 588c-6,-11 -12,-22 -17,-33z"/>
    <path class="fil0" d="M1035 1033l830 -676 0 267 -799 642c-20,-71 -31,-147 -31,-225 0,-3 0,-6 0,-9z"/>
    <path class="fil0" d="M1044 1164l791 -640 0 174 -757 607c-15,-45 -27,-92 -34,-141z"/>
    <path class="fil0" d="M1078 1304l757 -607 0 50 -744 594c-5,-12 -9,-25 -14,-37z"/>
    <path class="fil0" d="M1114 1395l721 -574 1 7 3 6 4 5 5 4 6 2 6 1 6 -1 6 -3 -740 588c-6,-11 -12,-22 -17,-33z"/>
    <path class="fil0" d="M1091 1342l744 -594 0 74 -721 574c-8,-17 -16,-35 -23,-53z"/>
    <path class="fil0" d="M1058 848l760 -624c6,0 11,0 17,-1l0 597 -721 574c-51,-107 -80,-227 -80,-353 0,-67 8,-132 23,-194z"/>
    <path class="fil0" d="M1061 835l743 -610c5,0 9,0 14,-1l-760 624c1,-4 2,-9 3,-13z"/>
    <path class="fil0" d="M1402 1725l866 -670 -1 20 -2 20 -3 20 -4 20 -5 19 -6 19 -7 18 -7 18 -8 18 -9 17 -10 17 -10 16 -11 16 -12 15 -13 14 -13 14 -14 13 -14 13 -15 12 -558 427c-51,-21 -99,-46 -144,-76z"/>
    <polygon class="fil0" points="1771,1856 2321,1439 2310,1450 2298,1460 2286,1470 2274,1479 2262,1489 1777,1856 "/>
    <path class="fil0" d="M1100 1362l338 -270 193 0 -476 377c-21,-34 -39,-70 -55,-107z"/>
    <path class="fil0" d="M1084 1322l351 -281 1 21 2 21 3 21 4 21 5 20 6 20 7 19 7 19 8 18 9 18 10 17 11 17 12 16 12 16 13 15 14 15 14 14 15 13 16 12 16 12 17 11 17 10 18 9 18 8 19 7 19 7 20 6 20 5 21 4 21 3 21 2 21 1 -391 301c-173,-95 -308,-250 -377,-438z"/>
    <path class="fil0" d="M1709 1847l160 -121 18 -1 18 -1 18 -2 18 -2 18 -3 18 -3 17 -3 17 -4 17 -4 17 -5 17 -5 17 -6 16 -6 16 -6 16 -7 16 -7 16 -8 15 -8 15 -8 15 -9 15 -9 14 -9 14 -10 14 -10 -354 267c-18,1 -35,2 -53,2 -49,0 -97,-4 -143,-13z"/>
    <path class="fil0" d="M1709 1847l160 -121 34 -2 34 -3 33 -5 33 -6 32 -8 31 -9 31 -11 30 -12 29 -14 29 -15 28 -16 27 -18 26 -19 -359 270c-18,1 -36,2 -53,2 -49,0 -97,-4 -143,-13z"/>
    <path class="fil0" d="M1043 1159l544 -439 -15 13 -14 14 -14 14 -13 15 -12 16 -12 16 -11 17 -10 17 -9 18 -8 18 -7 19 -7 19 -6 20 -5 20 -4 21 -3 21 -2 21 -1 21 -351 281c-19,-52 -33,-107 -41,-164z"/>
    <path class="fil0" d="M1461 1760l391 -301 21 -1 21 -2 21 -3 21 -4 20 -5 20 -6 19 -7 19 -7 18 -8 18 -9 17 -10 17 -11 16 -12 -554 425c-30,-12 -58,-25 -86,-41z"/>
    <path class="fil0" d="M1852 1860l42 -1c-14,1 -28,1 -42,1zm42 -1l41 -3c-14,1 -28,2 -41,3zm41 -3l41 -5c-14,2 -27,4 -41,5zm41 -5l40 -7c-13,3 -27,5 -40,7zm40 -7l40 -9c-13,3 -26,6 -40,9zm40 -9l39 -11c-13,4 -26,8 -39,11zm39 -11l38 -13c-13,5 -25,9 -38,13zm38 -13l37 -15c-12,5 -25,10 -37,15zm37 -15l36 -16c-12,6 -24,11 -36,16zm36 -16l35 -18c-12,6 -23,12 -35,18zm35 -18l34 -20c-11,7 -23,13 -34,20zm34 -20l33 -21c-11,7 -22,14 -33,21zm33 -21l32 -23c-10,8 -21,15 -32,23z"/>
    <path class="fil0" d="M1461 1760l391 -301 21 -1 21 -2 21 -3 21 -4 20 -5 20 -6 19 -7 19 -7 18 -8 18 -9 17 -10 17 -11 16 -12 -554 425c-30,-12 -58,-25 -86,-41z"/>
    <path class="fil0" d="M1072 797l345 -284 26 -20 27 -19 28 -18 29 -16 29 -15 30 -14 31 -12 32 -11 32 -9 33 -8 34 -6 34 -4 35 -3 35 -1 -817 665c2,-78 15,-154 37,-225z"/>
    <path class="fil0" d="M1066 818l280 -230 44 67 -349 285c5,-42 13,-83 25,-122z"/>
    <path class="fil0" d="M1043 1159l544 -439 -15 13 -14 14 -14 14 -13 15 -12 16 -12 16 -11 17 -10 17 -9 18 -8 18 -7 19 -7 19 -6 20 -5 20 -4 21 -3 21 -2 21 -1 21 -351 281c-19,-52 -33,-107 -41,-164z"/>
    <path class="fil0" d="M1035 1039l488 -397 -19 16 -18 17 -17 18 -16 19 -15 20 -14 20 -13 21 -12 22 -11 22 -10 23 -9 24 -8 24 -7 25 -6 25 -5 25 -3 26 -2 26 -1 27 -271 218c-19,-69 -29,-142 -29,-218l0 -2z"/>
    <path class="fil0" d="M1039 1126l157 -127 51 0 -203 164c-2,-12 -3,-24 -5,-37z"/>
    <path class="fil0" d="M1044 1163l203 -164 10 1 9 3 9 5 7 6 6 7 5 9 3 9 1 10 -238 191c-6,-25 -11,-51 -15,-77z"/>
    <path class="fil0" d="M1084 1322l351 -281 1 21 2 21 3 21 4 21 5 20 6 20 7 19 7 19 8 18 9 18 10 17 11 17 12 16 12 16 13 15 14 15 14 14 15 13 16 12 16 12 17 11 17 10 18 9 18 8 19 7 19 7 20 6 20 5 21 4 21 3 21 2 21 1 -391 301c-173,-95 -308,-250 -377,-438z"/>
    <path class="fil0" d="M1064 1259l271 -218 1 27 2 26 3 26 5 25 6 25 7 25 8 24 9 24 10 23 11 22 12 22 13 21 14 20 15 20 16 19 17 18 18 17 19 16 20 15 20 14 21 13 22 12 22 11 23 10 23 9 24 8 25 7 25 6 25 5 26 3 26 2 27 1 -312 239c-231,-96 -409,-294 -476,-539z"/>
    <path class="fil0" d="M1540 1798l312 -239 27 -1 26 -2 26 -3 25 -5 25 -6 25 -7 24 -8 23 -9 23 -10 22 -11 22 -12 21 -13 20 -14 -500 381c-42,-10 -82,-23 -121,-39z"/>
    <path class="fil0" d="M1041 940l349 -285 -207 319 -146 118c-1,-17 -2,-33 -2,-50 0,-35 2,-69 6,-102z"/>
    <path class="fil0" d="M1059 1240l238 -191 0 43 -228 183c-3,-11 -7,-23 -9,-35z"/>
    <path class="fil0" d="M1080 773l231 -190 5 -3 5 -2 6 -1 6 1 5 2 5 3 4 5 -280 230c4,-15 9,-30 14,-45z"/>
    <polygon class="fil0" points="1080,773 1311,583 1307,587 1079,775 "/>
    <path class="fil0" d="M1068 1275l228 -183 1 14 1 14 2 14 2 14 2 14 3 14 3 14 3 13 3 13 4 13 4 13 4 13 4 13 5 13 5 13 5 13 5 12 6 12 6 12 6 12 6 12 6 12 7 12 7 11 7 11 7 11 8 11 8 11 8 11 8 11 8 10 9 10 -179 140c-98,-96 -172,-216 -212,-351z"/>
    <path class="fil0" d="M1569 1810l229 -175 -7 6 -6 7 -5 9 -3 9 -1 10 -185 141c-7,-2 -15,-5 -22,-8z"/>
    <path class="fil0" d="M1591 1817l185 -141 0 49 -139 106c-15,-4 -31,-9 -46,-14z"/>
    <path class="fil0" d="M1048 1190l122 -98 3 33 5 32 6 32 8 31 9 31 10 30 12 29 13 29 14 28 15 27 17 26 18 26 19 25 20 24 21 23 22 22 23 21 24 20 25 19 26 18 26 16 27 15 28 14 29 13 29 12 30 10 31 9 31 7 32 6 32 4 33 3 33 1 -153 117c-324,-67 -577,-326 -637,-653z"/>
    <path class="fil0" d="M1036 1092l146 -118 -2 4 -1 4 0 4 2 4 3 3 3 3 4 2 5 1 -157 127c-1,-11 -2,-23 -3,-35z"/>
    <polygon class="fil0" points="1636,1831 1776,1725 1775,1730 1773,1734 1771,1737 1644,1833 "/>
    <path class="fil0" d="M1273 1620l91 -71 -5 4 -3 5 -2 5 -1 6 1 6 2 5 3 5 5 4 -69 54c-8,-7 -15,-14 -22,-22z"/>
    <path class="fil0" d="M1036 1092l134 0 -122 98c-6,-32 -10,-65 -12,-98z"/>
    <path class="fil0" d="M1079 775l228 -187 -271 416c4,-80 19,-157 44,-229z"/>
    <path class="fil0" d="M1296 1641l69 -54 412 269c-185,-17 -352,-96 -481,-215z"/>
    <path class="fil0" d="M1296 1641l69 -54 412 269c-185,-17 -352,-96 -481,-215z"/>
    <path class="fil0" d="M1273 1620l91 -71 -5 4 -3 5 -2 5 -1 6 1 6 2 5 3 5 5 4 -69 54c-8,-7 -15,-14 -22,-22z"/>
    <path class="fil0" d="M1035 1042l1 42c-1,-14 -1,-28 -1,-42zm1 42l3 42c-1,-14 -2,-28 -3,-42zm3 42l5 41c-2,-14 -4,-27 -5,-41zm5 41l7 40c-3,-13 -5,-27 -7,-40zm7 40l9 40c-3,-13 -6,-26 -9,-40zm9 40l11 39c-4,-13 -8,-26 -11,-39zm11 39l13 38c-5,-13 -9,-25 -13,-38zm13 38l15 37c-5,-12 -10,-25 -15,-37zm15 37l16 36c-6,-12 -11,-24 -16,-36zm16 36l18 35c-6,-12 -12,-23 -18,-35zm18 35l20 34c-7,-11 -13,-23 -20,-34zm20 34l21 33c-7,-11 -14,-22 -21,-33zm21 33l23 32c-8,-10 -15,-21 -23,-32zm23 32l24 31c-8,-10 -16,-20 -24,-31zm24 31l26 30c-9,-10 -17,-20 -26,-30zm26 30l27 28c-9,-9 -18,-18 -27,-28zm28 29l28 27c-9,-9 -19,-18 -28,-27zm28 27l30 26c-10,-8 -20,-17 -30,-26zm30 26l31 24c-10,-8 -21,-16 -31,-24zm31 24l32 23c-11,-7 -22,-15 -32,-23zm32 23l33 21c-11,-7 -22,-14 -33,-21zm33 21l34 20c-12,-6 -23,-13 -34,-20zm34 20l35 18c-12,-6 -24,-12 -35,-18zm35 18l36 16c-12,-5 -24,-11 -36,-16zm36 16l37 15c-13,-5 -25,-9 -37,-15zm37 15l38 13c-13,-4 -25,-8 -38,-13zm38 13l39 11c-13,-3 -26,-7 -39,-11zm39 11l40 9c-13,-3 -26,-6 -40,-9zm40 9l40 7c-14,-2 -27,-4 -40,-7zm40 7l41 5c-14,-1 -27,-3 -41,-5zm41 5l41 3c-14,-1 -28,-2 -41,-3zm41 3l42 1c-14,0 -28,0 -42,-1z"/>
    <path class="fil0" d="M1332 410l-30 26c10,-9 20,-17 30,-26zm-30 26l-28 27c9,-9 18,-18 28,-27zm-29 28l-27 28c9,-10 17,-19 27,-28zm-27 28l-26 30c8,-10 17,-20 26,-30zm-26 30l-24 31c8,-10 16,-21 24,-31zm-24 31l-23 32c7,-11 15,-22 23,-32zm-23 32l-21 33c7,-11 14,-22 21,-33zm-21 33l-20 34c6,-12 13,-23 20,-34zm-20 34l-18 35c6,-12 12,-24 18,-35zm-18 35l-16 36c5,-12 11,-24 16,-36zm-16 36l-15 37c5,-13 9,-25 15,-37zm-15 37l-13 38c4,-13 8,-25 13,-38zm-13 38l-11 39c3,-13 7,-26 11,-39zm-11 39l-9 40c3,-13 6,-27 9,-40zm-9 40l-7 40c2,-14 4,-27 7,-40zm-7 40l-5 41c1,-14 3,-27 5,-41zm-5 41l-3 42c1,-14 2,-28 3,-42zm-3 42l-1 42c0,-14 0,-28 1,-42z"/>
   </g>
   <g>
    <path class="fil0" d="M1238 1343l217 -173c5,17 12,33 19,49l-213 168c-8,-14 -16,-29 -24,-44zm851 -645l234 -153 1 1 -213 168c-7,-6 -15,-11 -23,-17z"/>
    <path class="fil0" d="M2131 1667l226 -171 3 3c-63,71 -141,128 -229,167z"/>
    <path class="fil0" d="M1238 1343l217 -173c5,17 12,33 19,49l-213 168c-8,-14 -16,-29 -24,-44zm851 -645l234 -153 1 1 -213 168c-7,-6 -15,-11 -23,-17z"/>
    <path class="fil0" d="M1181 1174l261 -210c-5,25 -7,51 -7,77 0,177 110,328 265,389l-230 179c-147,-99 -254,-255 -289,-436zm760 -540l0 0 0 0 -1 0zm88 30l0 0 0 0 0 0zm17 8l0 0 0 0 0 0z"/>
    <path class="fil0" d="M1374 1532l213 -167c6,5 11,9 17,13l-215 168c-5,-5 -10,-10 -15,-14z"/>
    <path class="fil0" d="M1249 1365l215 -170c42,108 129,194 237,236l-230 179c-92,-62 -168,-146 -221,-245z"/>
    <path class="fil0" d="M1182 902l669 -545 35 1 35 3 34 4 34 6 33 8 32 9 32 11 31 12 30 14 29 15 29 16 28 18 27 19 26 20 25 22 24 23 23 24 21 25 20 26 19 27 18 28 16 29 15 30 14 30 12 31 11 32 9 32 8 33 6 34 4 34 3 35 1 35 -405 310c85,-76 138,-187 138,-310 0,-231 -187,-417 -417,-417 -230,0 -417,187 -417,417 0,231 187,417 417,417 83,0 161,-24 226,-67l-405 310c-291,-79 -505,-345 -505,-661 0,-48 5,-95 14,-140z"/>
    <path class="fil0" d="M1528 1645l249 -193c17,3 35,5 53,6l-265 205c-12,-6 -24,-12 -36,-18zm738 -561l49 0 -55 43c3,-14 5,-28 7,-43z"/>
    <path class="fil0" d="M1565 1663l265 -205c5,0 11,0 16,0l-271 209 -10 -5zm695 -536l55 -43 10 -1 9 -3 9 -5 -87 67c1,-5 3,-10 4,-16z"/>
    <path class="fil0" d="M2131 1667l226 -171 3 3c-63,71 -141,128 -229,167z"/>
    <path class="fil0" d="M1374 1532l213 -167c6,5 11,9 17,13l-215 168c-5,-5 -10,-10 -15,-14z"/>
    <polygon class="fil0" points="1525,1643 1773,1452 1777,1452 1528,1645 "/>
    <path class="fil0" d="M1389 1546l215 -168c69,51 155,81 247,81 149,0 280,-79 354,-197l152 233 -226 171c-85,38 -180,60 -280,60 -178,0 -341,-68 -462,-180z"/>
    <path class="fil0" d="M1673 1703l405 -310c19,-12 36,-26 53,-41l405 -310 -1 35 -3 35 -4 34 -6 34 -8 33 -9 32 -11 32 -12 31 -14 30 -15 30 -16 29 -18 28 -19 27 -20 26 -21 25 -23 24 -24 23 -25 22 -26 20c-114,85 -256,136 -409,136 -62,0 -122,-8 -179,-24z"/>
    <path class="fil0" d="M1389 1546l215 -168c69,51 155,81 247,81 149,0 280,-79 354,-197l152 233 -226 171c-85,38 -180,60 -280,60 -178,0 -341,-68 -462,-180z"/>
    <polygon class="fil0" points="1260,1385 1473,1217 1475,1221 1263,1390 "/>
    <path class="fil0" d="M1222 1309l222 -177c3,13 6,26 11,39l-217 173c-6,-11 -11,-23 -16,-35z"/>
    <path class="fil0" d="M1180 915l685 -558 0 267c-4,0 -9,0 -13,0 -204,0 -373,146 -410,340l-261 210c-8,-43 -13,-87 -13,-132 0,-43 4,-86 12,-127z"/>
    <path class="fil0" d="M1168 1063l379 -306c-65,69 -106,160 -111,261l-246 197c-13,-49 -20,-99 -22,-152zm470 -380l197 -159 0 101c-72,3 -139,24 -197,58z"/>
    <path class="fil0" d="M1190 1214l246 -197c0,8 -1,16 -1,24 0,8 0,17 1,25l-234 187c-4,-13 -8,-26 -11,-39z"/>
    <path class="fil0" d="M1222 1309l222 -177c3,13 6,26 11,39l-217 173c-6,-11 -11,-23 -16,-35z"/>
    <path class="fil0" d="M1201 1254l234 -187c1,22 4,44 9,65l-222 177c-8,-18 -14,-36 -21,-55z"/>
    <path class="fil0" d="M1281 665l314 -258c74,-30 155,-48 240,-50l0 267c-223,9 -400,192 -400,417 0,31 3,61 10,90l-222 177c-35,-82 -54,-172 -54,-267 0,-139 42,-269 113,-377z"/>
    <path class="fil0" d="M1298 640l269 -221c9,-4 19,-8 28,-12l-314 258c6,-8 11,-17 17,-25z"/>
    <path class="fil0" d="M1515 1638l244 -189c30,7 61,10 92,10 93,0 179,-31 249,-83l-426 326c-56,-15 -110,-37 -159,-65zm726 -447l0 0 0 0 0 0zm-15 35l0 0 0 0 0 0z"/>
    <polygon class="fil0" points="1952,1719 2321,1439 2310,1450 2298,1460 2286,1470 2274,1479 2262,1489 1960,1718 "/>
    <path class="fil0" d="M1209 1275l229 -183c5,44 17,86 35,125l-213 169c-20,-35 -38,-72 -52,-111z"/>
    <path class="fil0" d="M1195 1233l240 -192c0,7 0,14 1,21 0,7 1,14 2,21 1,7 2,14 3,21 1,7 2,14 4,21 1,7 3,14 5,20 2,7 4,13 6,20 2,7 4,13 7,19 2,6 5,13 7,19 3,6 5,12 8,18 3,6 6,12 9,18 3,6 7,12 10,17 3,6 7,11 11,17 4,6 8,11 12,16 4,5 8,11 12,16 4,5 9,10 13,15 4,5 9,10 14,15 5,5 10,9 14,14 5,4 10,9 15,13 5,4 10,8 16,12 5,4 11,8 16,12 6,4 11,7 17,11 6,3 12,7 17,10 6,3 12,6 18,9 6,3 12,6 18,8 6,3 13,5 19,7 6,2 13,5 19,7 7,2 13,4 20,6 7,2 13,3 20,5 7,1 14,3 21,4 7,1 14,2 21,3 7,1 14,1 21,2 7,0 14,1 21,1l-273 210c-184,-81 -327,-240 -383,-436z"/>
    <path class="fil0" d="M1868 1726l0 0 18 -1 18 -1 18 -2 18 -2 18 -3 18 -3 17 -3 17 -4 17 -4 17 -5 17 -5 17 -6 16 -6 16 -6 16 -7 16 -7 16 -8 15 -8 15 -8 15 -9 15 -9 14 -9 14 -10 14 -10 -3 3c-109,80 -243,129 -388,132z"/>
    <path class="fil0" d="M1868 1726l0 0 34 -2 34 -3 33 -5 33 -6 32 -8 31 -9 31 -11 30 -12 29 -14 29 -15 28 -16 27 -18 26 -19 -7 5c-109,81 -244,130 -389,133z"/>
    <path class="fil0" d="M1168 1058l418 -338c-5,4 -10,9 -15,13 -5,4 -10,9 -14,14 -5,5 -9,10 -14,14 -4,5 -9,10 -13,15 -4,5 -8,10 -12,16 -4,5 -8,11 -12,16 -4,6 -7,11 -11,17 -3,6 -7,12 -10,17 -3,6 -6,12 -9,18 -3,6 -6,12 -8,18 -3,6 -5,13 -7,19 -2,6 -5,13 -7,19 -2,7 -4,13 -6,20 -2,7 -3,13 -5,20 -1,7 -3,14 -4,21 -1,7 -2,14 -3,21 -1,7 -1,14 -2,21 0,7 -1,14 -1,21l-240 192c-16,-56 -26,-115 -27,-176z"/>
    <path class="fil0" d="M1579 1669l273 -210c7,0 14,0 21,-1 7,0 14,-1 21,-2 7,-1 14,-2 21,-3 7,-1 14,-2 21,-4 7,-1 13,-3 20,-5 7,-2 13,-4 20,-6 7,-2 13,-4 19,-7 6,-2 13,-5 19,-7 6,-3 12,-5 18,-8 6,-3 12,-6 18,-9 6,-3 12,-7 17,-10 6,-3 11,-7 17,-11 6,-4 11,-8 16,-12l-426 327c-33,-9 -65,-20 -96,-34z"/>
    <path class="fil0" d="M1579 1669l273 -210c7,0 14,0 21,-1 7,0 14,-1 21,-2 7,-1 14,-2 21,-3 7,-1 14,-2 21,-4 7,-1 13,-3 20,-5 7,-2 13,-4 20,-6 7,-2 13,-4 19,-7 6,-2 13,-5 19,-7 6,-3 12,-5 18,-8 6,-3 12,-6 18,-9 6,-3 12,-7 17,-10 6,-3 11,-7 17,-11 6,-4 11,-8 16,-12l-426 327c-33,-9 -65,-20 -96,-34z"/>
    <path class="fil0" d="M1417 513l26 -20 27 -19 28 -18 29 -16 29 -15 30 -14 31 -12 32 -11 32 -9 33 -8 34 -6 34 -4 35 -3 35 -1 -669 545c32,-155 117,-291 235,-389z"/>
    <path class="fil0" d="M1327 603l19 -16 44 67 -178 145c27,-72 66,-139 115,-197z"/>
    <path class="fil0" d="M1168 1058l418 -338c-5,4 -10,9 -15,13 -5,4 -10,9 -14,14 -5,5 -9,10 -14,14 -4,5 -9,10 -13,15 -4,5 -8,10 -12,16 -4,5 -8,11 -12,16 -4,6 -7,11 -11,17 -3,6 -7,12 -10,17 -3,6 -6,12 -9,18 -3,6 -6,12 -8,18 -3,6 -5,13 -7,19 -2,6 -5,13 -7,19 -2,7 -4,13 -6,20 -2,7 -3,13 -5,20 -1,7 -3,14 -4,21 -1,7 -2,14 -3,21 -1,7 -1,14 -2,21 0,7 -1,14 -1,21l-240 192c-16,-56 -26,-115 -27,-176z"/>
    <path class="fil0" d="M1178 923l345 -280 -19 16 -18 17 -17 18 -16 19 -15 20 -14 20 -13 21 -12 22 -11 22 -10 23 -9 24 -8 24 -7 25 -6 25 -5 25 -3 26 -2 26 -1 27 -155 125c-7,-40 -11,-82 -11,-125 0,-41 4,-80 10,-119z"/>
    <path class="fil0" d="M1168 1022l28 -22 51 0 -78 63c0,-7 0,-14 0,-21 0,-7 0,-13 0,-20z"/>
    <path class="fil0" d="M1168 1062l78 -63 10 1 9 3 9 5 7 6 6 7 5 9 3 9 1 10 -121 97c-4,-27 -7,-55 -8,-84z"/>
    <path class="fil0" d="M1195 1233l240 -192c0,7 0,14 1,21 0,7 1,14 2,21 1,7 2,14 3,21 1,7 2,14 4,21 1,7 3,14 5,20 2,7 4,13 6,20 2,7 4,13 7,19 2,6 5,13 7,19 3,6 5,12 8,18 3,6 6,12 9,18 3,6 7,12 10,17 3,6 7,11 11,17 4,6 8,11 12,16 4,5 8,11 12,16 4,5 9,10 13,15 4,5 9,10 14,15 5,5 10,9 14,14 5,4 10,9 15,13 5,4 10,8 16,12 5,4 11,8 16,12 6,4 11,7 17,11 6,3 12,7 17,10 6,3 12,6 18,9 6,3 12,6 18,8 6,3 13,5 19,7 6,2 13,5 19,7 7,2 13,4 20,6 7,2 13,3 20,5 7,1 14,3 21,4 7,1 14,2 21,3 7,1 14,1 21,2 7,0 14,1 21,1l-273 210c-184,-81 -327,-240 -383,-436z"/>
    <path class="fil0" d="M1179 1167l155 -125 1 27 2 26 3 26 5 25 6 25 7 25 8 24 9 24 10 23 11 22 12 22 13 21 14 20 15 20 16 19 17 18 18 17 19 16 20 15 20 14 21 13 22 12 22 11 23 10 23 9 24 8 25 7 25 6 25 5 26 3 26 2 27 1 -185 142c-249,-70 -440,-277 -488,-534z"/>
    <path class="fil0" d="M1667 1701l185 -142 27 -1 26 -2 26 -3 25 -5 25 -6 25 -7 24 -8 23 -9 23 -10 22 -11 22 -12 21 -13 20 -14 -352 268c-49,-3 -96,-11 -142,-24z"/>
    <path class="fil0" d="M1212 800l178 -145 -207 319 -12 9c5,-64 20,-125 41,-183z"/>
    <path class="fil0" d="M1176 1146l121 -97 0 43 -114 91c-3,-12 -5,-25 -7,-37z"/>
    <path class="fil0" d="M1343 584l3 3 -19 16c5,-6 11,-13 16,-19z"/>
    <path class="fil0" d="M1183 1183l114 -91 1 14 1 14 2 14 2 14 2 14 3 14 3 14 3 13 3 13 4 13 4 13 4 13 4 13 5 13 5 13 5 13 5 12 6 12 6 12 6 12 6 12 6 12 7 12 7 11 7 11 7 11 8 11 8 11 8 11 8 11 8 10 9 10 -72 57c-101,-94 -174,-219 -204,-360z"/>
    <path class="fil0" d="M1700 1709l98 -75 -7 6 -6 7 -5 9 -3 9 -1 10 -51 39c-9,-2 -17,-3 -25,-5z"/>
    <path class="fil0" d="M1725 1715l51 -39 0 46c-17,-2 -34,-4 -51,-8z"/>
    <path class="fil0" d="M1170 1092l0 0 3 33 5 32 6 32 8 31 9 31 10 30 12 29 13 29 14 28 15 27 17 26 18 26 19 25 20 24 21 23 22 22 23 21 24 20 25 19 26 18 26 16c-187,-111 -317,-310 -334,-539zm334 540l27 15c-9,-5 -18,-10 -27,-15zm27 15l28 14 29 13 29 12 30 10 31 9 31 7c-63,-13 -122,-35 -177,-64zm178 65l31 6c-10,-2 -21,-4 -31,-6zm31 6l32 4c-11,-1 -21,-3 -32,-4zm33 5l32 3 33 1 0 0c-22,0 -44,-2 -65,-4z"/>
    <path class="fil0" d="M1171 983l12 -9 -2 4 -1 4 0 4 2 4 3 3 3 3 4 2 5 1 -28 22c0,-13 1,-26 2,-39z"/>
    <polygon class="fil0" points="1170,1092 1170,1092 1170,1092 "/>
   </g>
   <g>
    <path class="fil0" d="M1373 1236l83 -66c5,17 12,33 19,49l-80 63c-8,-15 -15,-31 -22,-47zm716 -538l89 -58c5,4 9,8 14,12l-80 63c-7,-6 -15,-11 -23,-17z"/>
    <path class="fil0" d="M1373 1236l83 -66c5,17 12,33 19,49l-80 63c-8,-15 -15,-31 -22,-47zm716 -538l89 -58c5,4 9,8 14,12l-80 63c-7,-6 -15,-11 -23,-17z"/>
    <path class="fil0" d="M1335 1050l107 -86c-5,25 -7,51 -7,77 0,177 110,328 265,389l-89 69c-162,-85 -273,-254 -276,-450zm606 -417l0 0 0 0 -1 0zm88 30l0 0 0 0 0 0zm17 8l0 0 0 0 0 0z"/>
    <path class="fil0" d="M1507 1428l80 -63c6,5 11,9 17,13l-81 64c-5,-5 -11,-9 -16,-14z"/>
    <path class="fil0" d="M1382 1259l81 -64c42,108 129,194 237,236l-89 69c-100,-53 -181,-138 -229,-241z"/>
    <path class="fil0" d="M2349 1185l-218 167c85,-76 138,-187 138,-310 0,-231 -187,-417 -417,-417 -230,0 -417,187 -417,417 0,231 187,417 417,417 83,0 161,-24 226,-67l-217 167c-3,0 -6,0 -9,0 -285,0 -517,-232 -517,-518 0,-286 231,-518 517,-518 285,0 517,232 517,518 0,50 -7,98 -20,143z"/>
    <path class="fil0" d="M1678 1529l99 -77c17,3 35,5 53,6l-109 84c-15,-4 -29,-8 -43,-13zm588 -445l49 0 -55 43c3,-14 5,-28 7,-43z"/>
    <path class="fil0" d="M1721 1543l109 -84c5,0 11,0 16,0l-112 87c-4,-1 -8,-2 -12,-3zm539 -416l55 -43 10 -1 9 -3 9 -5 -87 67c1,-5 3,-10 4,-16z"/>
    <path class="fil0" d="M1507 1428l80 -63c6,5 11,9 17,13l-81 64c-5,-5 -11,-9 -16,-14z"/>
    <polygon class="fil0" points="1674,1528 1773,1452 1777,1452 1678,1529 "/>
    <path class="fil0" d="M1523 1441l81 -64c69,51 155,81 247,81 149,0 280,-79 354,-197l59 91c-94,125 -244,206 -413,206 -125,0 -239,-44 -328,-118z"/>
    <path class="fil0" d="M1860 1559l217 -167c19,-12 36,-26 53,-41l218 -167c-61,214 -256,371 -488,374z"/>
    <path class="fil0" d="M1523 1441l81 -64c69,51 155,81 247,81 149,0 280,-79 354,-197l59 91c-94,125 -244,206 -413,206 -125,0 -239,-44 -328,-118z"/>
    <polygon class="fil0" points="1393,1280 1473,1217 1475,1221 1395,1285 "/>
    <path class="fil0" d="M1359 1200l85 -68c3,13 6,26 11,39l-83 66c-5,-12 -9,-24 -13,-37z"/>
    <path class="fil0" d="M1865 524l0 100c-4,0 -9,0 -13,0 -204,0 -373,146 -410,340l-107 86c0,-3 0,-6 0,-9 0,-286 231,-518 517,-518 4,0 9,0 13,0z"/>
    <path class="fil0" d="M1350 916l197 -159c-65,69 -106,160 -111,261l-98 78c-2,-18 -3,-36 -3,-55 0,-43 5,-86 15,-126zm288 -233l196 -159 0 0 0 100c-72,3 -139,24 -197,58z"/>
    <path class="fil0" d="M1338 1096l98 -78c0,8 -1,16 -1,24 0,8 0,17 1,25l-92 73c-3,-14 -5,-29 -6,-44z"/>
    <path class="fil0" d="M1359 1200l85 -68c3,13 6,26 11,39l-83 66c-5,-12 -9,-24 -13,-37z"/>
    <path class="fil0" d="M1344 1140l92 -73c1,22 4,44 9,65l-85 68c-6,-20 -11,-40 -15,-60z"/>
    <path class="fil0" d="M1835 524l0 100c-223,9 -400,192 -400,417 0,31 3,61 10,90l-85 68c-16,-50 -25,-103 -25,-158 0,-280 222,-509 500,-517z"/>
    <path class="fil0" d="M1663 1524l97 -75c30,7 61,10 92,10 93,0 179,-31 249,-83l-238 183c-4,0 -7,0 -11,0 -67,0 -130,-13 -189,-36zm578 -333l0 0 0 0 0 0zm-15 35l0 0 0 0 0 0z"/>
    <path class="fil0" d="M1349 1163l89 -71c5,44 17,86 35,125l-80 64c-19,-37 -34,-76 -44,-118z"/>
    <path class="fil0" d="M1340 1117l95 -76c0,7 0,14 1,21 0,7 1,14 2,21 1,7 2,14 3,21 1,7 2,14 4,21 1,7 3,14 5,20 2,7 4,13 6,20 2,7 4,13 7,19 2,6 5,13 7,19 3,6 5,12 8,18 3,6 6,12 9,18 3,6 7,12 10,17 3,6 7,11 11,17 4,6 8,11 12,16 4,5 8,11 12,16 4,5 9,10 13,15 4,5 9,10 14,15 5,5 10,9 14,14 5,4 10,9 15,13 5,4 10,8 16,12 5,4 11,8 16,12 6,4 11,7 17,11 6,3 12,7 17,10 6,3 12,6 18,9 6,3 12,6 18,8 6,3 13,5 19,7 6,2 13,5 19,7 7,2 13,4 20,6 7,2 13,3 20,5 7,1 14,3 21,4 7,1 14,2 21,3 7,1 14,1 21,2 7,0 14,1 21,1l-114 88c-207,-46 -367,-217 -398,-429z"/>
    <path class="fil0" d="M1352 909l235 -190c-5,4 -10,9 -15,13 -5,4 -10,9 -14,14 -5,5 -9,10 -14,14 -4,5 -9,10 -13,15 -4,5 -8,10 -12,16 -4,5 -8,11 -12,16 -4,6 -7,11 -11,17 -3,6 -7,12 -10,17 -3,6 -6,12 -9,18 -3,6 -6,12 -8,18 -3,6 -5,13 -7,19 -2,6 -5,13 -7,19 -2,7 -4,13 -6,20 -2,7 -3,13 -5,20 -1,7 -3,14 -4,21 -1,7 -2,14 -3,21 -1,7 -1,14 -2,21 0,7 -1,14 -1,21l-95 76c-4,-25 -6,-50 -6,-76 0,-46 6,-90 17,-132z"/>
    <path class="fil0" d="M1738 1547l114 -88c7,0 14,0 21,-1 7,0 14,-1 21,-2 7,-1 14,-2 21,-3 7,-1 14,-2 21,-4 7,-1 13,-3 20,-5 7,-2 13,-4 20,-6 7,-2 13,-4 19,-7 6,-2 13,-5 19,-7 6,-3 12,-5 18,-8 6,-3 12,-6 18,-9 6,-3 12,-7 17,-10 6,-3 11,-7 17,-11 6,-4 11,-8 16,-12l-239 183c-4,0 -7,0 -11,0 -39,0 -77,-4 -114,-13z"/>
    <path class="fil0" d="M1738 1547l114 -88c7,0 14,0 21,-1 7,0 14,-1 21,-2 7,-1 14,-2 21,-3 7,-1 14,-2 21,-4 7,-1 13,-3 20,-5 7,-2 13,-4 20,-6 7,-2 13,-4 19,-7 6,-2 13,-5 19,-7 6,-3 12,-5 18,-8 6,-3 12,-6 18,-9 6,-3 12,-7 17,-10 6,-3 11,-7 17,-11 6,-4 11,-8 16,-12l-239 183c-4,0 -7,0 -11,0 -39,0 -77,-4 -114,-13z"/>
    <path class="fil0" d="M1352 909l235 -190c-5,4 -10,9 -15,13 -5,4 -10,9 -14,14 -5,5 -9,10 -14,14 -4,5 -9,10 -13,15 -4,5 -8,10 -12,16 -4,5 -8,11 -12,16 -4,6 -7,11 -11,17 -3,6 -7,12 -10,17 -3,6 -6,12 -9,18 -3,6 -6,12 -8,18 -3,6 -5,13 -7,19 -2,6 -5,13 -7,19 -2,7 -4,13 -6,20 -2,7 -3,13 -5,20 -1,7 -3,14 -4,21 -1,7 -2,14 -3,21 -1,7 -1,14 -2,21 0,7 -1,14 -1,21l-95 76c-4,-25 -6,-50 -6,-76 0,-46 6,-90 17,-132z"/>
    <path class="fil0" d="M1523 642l-19 16c-6,5 -12,11 -17,17l17 -17c6,-6 12,-11 19,-16zm-37 34l-17 17c-6,6 -11,12 -16,19l-15 20c-5,7 -10,13 -14,20l-13 21c-4,7 -8,14 -12,22l-11 22c-4,8 -7,15 -10,23l-9 24c-3,8 -6,16 -8,24l-7 25c-2,8 -4,17 -6,25l-5 25c-1,9 -2,17 -3,26l-2 26c0,9 -1,18 -1,27l1 -27c0,-9 1,-18 2,-26l3 -26c1,-9 3,-17 5,-25l6 -25c2,-8 4,-16 7,-25l8 -24c3,-8 6,-16 9,-24l10 -23c4,-8 7,-15 11,-22l12 -22c4,-7 9,-14 13,-21l14 -20c5,-7 10,-13 15,-20l16 -19c5,-6 11,-12 17,-17z"/>
    <path class="fil0" d="M1340 1117l95 -76c0,7 0,14 1,21 0,7 1,14 2,21 1,7 2,14 3,21 1,7 2,14 4,21 1,7 3,14 5,20 2,7 4,13 6,20 2,7 4,13 7,19 2,6 5,13 7,19 3,6 5,12 8,18 3,6 6,12 9,18 3,6 7,12 10,17 3,6 7,11 11,17 4,6 8,11 12,16 4,5 8,11 12,16 4,5 9,10 13,15 4,5 9,10 14,15 5,5 10,9 14,14 5,4 10,9 15,13 5,4 10,8 16,12 5,4 11,8 16,12 6,4 11,7 17,11 6,3 12,7 17,10 6,3 12,6 18,9 6,3 12,6 18,8 6,3 13,5 19,7 6,2 13,5 19,7 7,2 13,4 20,6 7,2 13,3 20,5 7,1 14,3 21,4 7,1 14,2 21,3 7,1 14,1 21,2 7,0 14,1 21,1l-114 88c-207,-46 -367,-217 -398,-429z"/>
    <path class="fil0" d="M1335 1042l1 27c0,9 1,18 2,26l3 26c1,9 3,17 5,25l6 25c2,8 4,16 7,25l8 24c3,8 6,16 9,24l10 23c4,8 7,15 11,22l12 22c4,7 9,14 13,21l14 20c5,7 10,13 15,20l16 19c5,6 11,11 16,17l-16 -17c-6,-6 -11,-12 -16,-19l-15 -20c-5,-7 -10,-13 -14,-20l-13 -21c-4,-7 -8,-14 -12,-22l-11 -22c-4,-8 -7,-15 -10,-23l-9 -24c-3,-8 -6,-16 -8,-24l-7 -25c-2,-8 -4,-17 -6,-25l-5 -25c-1,-9 -2,-17 -3,-26l-2 -26c0,-9 -1,-18 -1,-27zm152 367l17 16c6,6 12,11 19,16l20 15c7,5 13,10 20,14l21 13c7,4 14,8 22,12l22 11c8,4 15,7 23,10l23 9c8,3 16,6 24,8l25 7c8,2 17,4 25,6l25 5c9,1 17,2 26,3l26 2c9,0 18,1 27,1l-27 -1c-9,0 -18,-1 -26,-2l-26 -3c-9,-1 -17,-3 -25,-5l-25 -6c-8,-2 -16,-4 -25,-7l-24 -8c-8,-3 -16,-6 -23,-9l-23 -10c-8,-4 -15,-7 -22,-11l-22 -12c-7,-4 -14,-9 -21,-13l-20 -14c-7,-5 -13,-10 -20,-15l-19 -16c-6,-5 -11,-11 -17,-16z"/>
    <path class="fil0" d="M1852 1559l27 -1c9,0 18,-1 26,-2l26 -3c9,-1 17,-3 25,-5l25 -6c8,-2 16,-4 25,-7l24 -8c8,-3 16,-6 23,-9l23 -10c8,-4 15,-7 22,-11l22 -12c7,-4 14,-9 21,-13l20 -14c-7,5 -13,10 -20,14l-21 13c-7,4 -14,8 -22,12l-22 11c-8,4 -15,7 -23,10l-23 9c-8,3 -16,6 -24,8l-25 7c-8,2 -17,4 -25,6l-25 5c-9,1 -17,2 -26,3l-26 2c-9,0 -18,1 -27,1z"/>
   </g>
   <g>
    <path class="fil0" d="M1238 1343l217 -173c5,17 12,33 19,49l-213 168c-8,-14 -16,-29 -24,-44zm317 -252l79 -63 17 26c5,8 5,16 1,23l-16 12c-2,0 -3,1 -5,1l-76 0z"/>
    <path class="fil0" d="M1238 1343l217 -173c5,17 12,33 19,49l-213 168c-8,-14 -16,-29 -24,-44zm317 -252l79 -63 17 26c5,8 5,16 1,23l-16 12c-2,0 -3,1 -5,1l-76 0z"/>
    <path class="fil0" d="M1181 1174l359 -288 111 170c10,16 -1,36 -20,36l-193 0c19,155 122,284 262,339l-230 179c-147,-99 -254,-255 -289,-435z"/>
    <path class="fil0" d="M1374 1532l213 -167c6,5 11,9 17,13l-215 168c-5,-5 -10,-10 -15,-14z"/>
    <path class="fil0" d="M1249 1365l215 -170c42,108 128,194 237,236l-230 179c-92,-62 -168,-146 -221,-245zm344 -273l54 -43 4 6c10,16 -1,36 -20,36l-38 0z"/>
    <path class="fil0" d="M1011 1042l412 -336 228 350c10,16 -1,36 -20,36l-193 0c24,203 193,361 401,367l0 117 -165 127c-275,-74 -482,-317 -503,-611l-149 0c-19,0 -30,-21 -20,-36l9 -14z"/>
    <path class="fil0" d="M1528 1645l249 -193c17,3 35,5 53,6l-265 205c-12,-6 -24,-12 -36,-18z"/>
    <path class="fil0" d="M1565 1663l265 -205 8 0 0 6 -263 203c-3,-2 -7,-3 -10,-5z"/>
    <path class="fil0" d="M1374 1532l213 -167c6,5 11,9 17,13l-215 168c-5,-5 -10,-10 -15,-14z"/>
    <polygon class="fil0" points="1525,1643 1773,1452 1777,1452 1528,1645 "/>
    <path class="fil0" d="M1389 1546l215 -168c66,49 146,78 234,81l0 267c-173,-3 -330,-71 -449,-180z"/>
    <path class="fil0" d="M1673 1703l165 -127 0 150c-57,-1 -112,-9 -165,-24z"/>
    <path class="fil0" d="M1389 1546l215 -168c66,49 146,78 234,81l0 267c-173,-3 -330,-71 -449,-180z"/>
    <path class="fil0" d="M1260 1385l213 -169 2 5 -212 168 -2 -4zm371 -294l7 -1c-2,1 -4,1 -7,1zm7 -1l6 -3c-2,1 -4,2 -6,3z"/>
    <path class="fil0" d="M1222 1309l222 -177c3,13 6,26 11,39l-217 173c-6,-11 -11,-23 -16,-35zm273 -217l118 -94 21 32 -79 63 -60 0z"/>
    <path class="fil0" d="M999 1062l429 -349 112 172 -359 288c-5,-27 -9,-54 -11,-82l-149 0c-16,0 -27,-15 -23,-30z"/>
    <path class="fil0" d="M1132 1092l355 -287 73 113 -371 297c-10,-40 -17,-81 -20,-123l-37 0z"/>
    <path class="fil0" d="M1190 1214l371 -297 21 32 -380 304c-4,-13 -8,-26 -11,-39z"/>
    <path class="fil0" d="M1222 1309l222 -177c3,13 6,26 11,39l-217 173c-6,-11 -11,-23 -16,-35zm273 -217l118 -94 21 32 -79 63 -60 0z"/>
    <path class="fil0" d="M1202 1254l380 -304 31 48 -118 94 -57 0c2,14 4,27 7,40l-222 177c-8,-18 -15,-36 -21,-55z"/>
    <path class="fil0" d="M1228 708l128 -105 257 394 -118 94 -57 0c2,14 4,27 7,40l-222 177c-29,-68 -47,-141 -52,-217l-149 0c-19,0 -30,-21 -20,-36l226 -347z"/>
    <polygon class="fil0" points="1243,685 1351,596 1356,603 1228,708 "/>
    <path class="fil0" d="M1515 1638l244 -189c25,6 52,9 79,10l0 119 -164 125c-56,-15 -110,-37 -159,-65z"/>
    <path class="fil0" d="M1209 1275l229 -183c5,44 17,86 35,125l-213 169c-20,-35 -38,-72 -52,-111z"/>
    <path class="fil2" d="M1195 1233l240 -192 1 21 2 21 1 7 0 0c0,4 1,7 1,11l0 3 1 3c1,5 2,9 2,14l1 3 1 3c1,5 2,9 3,14l1 4 1 4c1,4 2,8 4,13l1 4 1 4m5 14l1 2 1 3c2,4 3,9 5,13l1 3 1 3c2,4 4,8 6,13l1 3 1 2c2,4 4,8 6,13l2 3 2 3c2,4 4,8 7,12l2 3 2 3c3,4 5,8 8,12l1 2 2 3c3,4 5,8 8,11l2 2 2 2c3,4 6,8 9,11l2 2 1 2c3,4 7,8 10,12l2 2 1 1c3,4 7,7 11,11l2 2 2 2c4,4 7,7 11,10l1 1 2 2c4,3 8,7 11,10l2 2 2 1c4,3 8,6 12,9l2 2 2 1c4,3 8,6 12,9l2 2 2 1c4,3 9,6 13,8l2 1 3 1c4,3 9,5 13,8l2 1 2 1c5,2 9,5 14,7l2 1 2 1c5,2 9,4 14,6l2 1 2 1c5,2 10,4 15,6l2 1 2 1c5,2 11,4 16,5l2 1 3 1c5,2 10,3 15,4l2 0 2 1c5,1 10,3 16,4l2 1 2 0c5,1 11,2 16,3l2 0 2 0c6,1 11,2 17,2l2 0 2 0c6,1 12,1 18,1l1 0 2 0 6 0 0 11 -260 200c-184,-81 -327,-240 -383,-436"/>
    <path class="fil0" d="M1126 1092l359 -290 13 20 -3 4 -10 17 -9 18 -8 18 -7 19 -7 19 -6 20 -5 20 -4 21 -3 21 -2 21 -1 21 -240 192c-13,-45 -22,-93 -25,-142l-44 0z"/>
    <path class="fil0" d="M1579 1669l260 -200 0 108 -164 125c-33,-9 -65,-20 -96,-34z"/>
    <path class="fil0" d="M1579 1669l260 -200 0 108 -164 125c-33,-9 -65,-20 -96,-34z"/>
    <path class="fil0" d="M1284 623l53 -44c4,2 7,4 9,8l77 119 -412 336 273 -419z"/>
    <polygon class="fil0" points="1262,657 1346,587 1390,655 1119,876 "/>
    <path class="fil0" d="M1126 1092l359 -290 13 20 -3 4 -10 17 -9 18 -8 18 -7 19 -7 19 -6 20 -5 20 -4 21 -3 21 -2 21 -1 21 -240 192c-13,-45 -22,-93 -25,-142l-44 0z"/>
    <path class="fil0" d="M998 1069l432 -352 8 13 -1 2 -14 20 -13 21 -12 22 -11 22 -10 23 -9 24 -8 24 -7 25 -6 25 -5 25 -3 26 -2 26 -1 27 -155 125c-5,-24 -8,-49 -10,-75l-149 0c-13,0 -23,-11 -23,-22z"/>
    <polygon class="fil0" points="1082,1092 1196,999 1247,999 1132,1092 "/>
    <path class="fil0" d="M1132 1092l115 -93 10 1 9 3 9 5 7 6 6 7 5 9 3 9 1 10 -121 97c-3,-18 -5,-36 -6,-54l-38 0z"/>
    <path class="fil2" d="M1195 1233l240 -192 1 21 2 21 1 7 0 0c0,4 1,7 1,11l0 3 1 3c1,5 2,9 2,14l1 3 1 3c1,5 2,9 3,14l1 4 1 4c1,4 2,8 4,13l1 4 1 4m5 14l1 2 1 3c2,4 3,9 5,13l1 3 1 3c2,4 4,8 6,13l1 3 1 2c2,4 4,8 6,13l2 3 2 3c2,4 4,8 7,12l2 3 2 3c3,4 5,8 8,12l1 2 2 3c3,4 5,8 8,11l2 2 2 2c3,4 6,8 9,11l2 2 1 2c3,4 7,8 10,12l2 2 1 1c3,4 7,7 11,11l2 2 2 2c4,4 7,7 11,10l1 1 2 2c4,3 8,7 11,10l2 2 2 1c4,3 8,6 12,9l2 2 2 1c4,3 8,6 12,9l2 2 2 1c4,3 9,6 13,8l2 1 3 1c4,3 9,5 13,8l2 1 2 1c5,2 9,5 14,7l2 1 2 1c5,2 9,4 14,6l2 1 2 1c5,2 10,4 15,6l2 1 2 1c5,2 11,4 16,5l2 1 3 1c5,2 10,3 15,4l2 0 2 1c5,1 10,3 16,4l2 1 2 0c5,1 11,2 16,3l2 0 2 0c6,1 11,2 17,2l2 0 2 0c6,1 12,1 18,1l1 0 2 0 6 0 0 11 -260 200c-184,-81 -327,-240 -383,-436"/>
    <path class="fil0" d="M1179 1166l155 -125 1 27 2 26 3 26 5 25 6 25 7 25 8 24 9 24 10 23 11 22 12 22 13 21 14 20 15 20 16 19 17 18 18 17 19 16 20 15 20 14 21 13 22 12 22 11 23 10 23 9 24 8 25 7 25 6 25 5 26 3 26 2 13 0 0 11 -171 131c-249,-70 -440,-277 -488,-534z"/>
    <path class="fil0" d="M1667 1701l171 -131 0 133 -30 23c-49,-3 -96,-11 -142,-24z"/>
    <path class="fil0" d="M1119 876l271 -221 -207 319 -146 118 -15 0c-19,0 -30,-21 -20,-36l117 -179z"/>
    <path class="fil0" d="M1176 1146l121 -97 0 43 -114 91c-3,-12 -5,-25 -7,-37z"/>
    <path class="fil0" d="M1311 583l5 -3 5 -2 6 -1 6 1 0 0 5 2 0 0 5 3 0 0 4 5 0 0 0 0 -84 69 45 -69c1,-2 2,-3 4,-5z"/>
    <path class="fil0" d="M1311 583l-4 5c1,-2 2,-3 4,-5z"/>
    <path class="fil0" d="M1183 1183l114 -91 1 14 1 14 2 14 2 14 2 14 3 14 3 14 3 13 3 13 4 13 4 13 4 13 4 13 5 13 5 13 5 13 5 12 6 12 6 12 6 12 6 12 6 12 7 12 7 11 7 11 7 11 8 11 8 11 8 11 8 11 8 10 9 10 -72 57c-101,-94 -174,-219 -204,-360z"/>
    <path class="fil0" d="M1700 1709l98 -75 -7 6 -6 7 -5 9 -3 9 -1 10 -51 39c-8,-2 -17,-3 -25,-5z"/>
    <path class="fil0" d="M1725 1715l51 -39 0 46c-17,-2 -34,-4 -51,-7z"/>
    <path class="fil0" d="M1170 1092l3 33c-1,-11 -2,-22 -3,-33zm3 33l5 32c-2,-11 -3,-21 -5,-32zm5 32l6 32c-2,-10 -4,-21 -6,-32zm6 32l8 31c-3,-10 -5,-21 -8,-31zm8 31l9 31c-3,-10 -6,-20 -9,-31zm9 31l10 30c-4,-10 -7,-20 -10,-30zm10 30l12 29c-4,-10 -8,-19 -12,-29zm12 29l13 29c-5,-9 -9,-19 -13,-29zm13 29l14 28c-5,-9 -10,-18 -14,-28zm14 28l15 27c-5,-9 -10,-18 -15,-27zm15 27l17 26c-6,-9 -11,-17 -17,-26zm17 26l18 26c-6,-8 -12,-17 -18,-26zm18 26l19 25c-6,-8 -13,-16 -19,-25zm19 25l20 24c-7,-8 -13,-16 -20,-24zm20 24l21 23c-7,-7 -14,-15 -21,-23zm21 23l22 22c-7,-7 -15,-14 -22,-22zm22 22l23 21c-8,-7 -15,-14 -23,-21zm23 21l24 20c-8,-6 -16,-13 -24,-20zm24 20l25 19c-8,-6 -17,-12 -25,-19zm25 19l26 18c-9,-6 -17,-12 -26,-18zm26 18l26 16c-9,-5 -18,-11 -26,-16zm26 16l27 15c-9,-5 -18,-10 -27,-15zm27 15l28 14c-9,-4 -19,-9 -28,-14zm28 14l29 13c-10,-4 -19,-8 -29,-13zm29 13l29 12c-10,-4 -20,-7 -29,-12zm29 12l30 10c-10,-3 -20,-7 -30,-10zm30 10l31 9c-10,-3 -20,-6 -31,-9zm31 9l31 7c-10,-2 -21,-5 -31,-7zm31 7l32 6c-11,-2 -21,-4 -32,-6zm32 6l32 4c-11,-1 -22,-3 -32,-4zm32 4l33 3c-11,-1 -22,-2 -33,-3zm33 3l33 1c-11,0 -22,-1 -33,-1z"/>
    <polygon class="fil0" points="1036,1092 1182,973 1180,978 1179,982 1180,986 1181,990 1184,994 1187,997 1191,998 1196,999 1082,1092 "/>
    <path class="fil0" d="M998 1071l36 -30 1 42 1 8 -15 0c-13,0 -22,-9 -23,-20z"/>
    <path class="fil0" d="M1036 1004l-1 38 -36 30c-1,-5 0,-11 4,-16l34 -52z"/>
    <path class="fil0" d="M1002 1056l-3 6c1,-2 2,-4 3,-6zm-3 6l-1 6c0,-2 0,-4 1,-6zm-1 6l1 6c0,-2 -1,-4 -1,-6zm1 6l2 6c-1,-2 -2,-4 -2,-6zm2 6l4 5c-1,-1 -3,-3 -4,-5zm4 5l5 4c-2,-1 -3,-2 -5,-4zm5 4l6 3c-2,-1 -4,-1 -6,-3zm6 3l7 1c-2,0 -5,0 -7,-1z"/>
   </g>
   <g>
    <path class="fil0" d="M1238 1343l95 -76c6,16 12,33 19,48l-90 71c-8,-14 -16,-29 -24,-44z"/>
    <path class="fil0" d="M1238 1343l95 -76c6,16 12,33 19,48l-90 71c-8,-14 -16,-29 -24,-44z"/>
    <path class="fil0" d="M1181 1174l116 -93 0 11c11,150 70,287 162,395l-78 51c-101,-96 -172,-222 -200,-364z"/>
    <path class="fil0" d="M1374 1532l74 -58c4,4 7,9 11,13l-78 51 -6 -6z"/>
    <path class="fil0" d="M1249 1365l93 -74c28,72 68,138 117,196l-78 51c-53,-50 -97,-109 -132,-173z"/>
    <path class="fil0" d="M1011 1042l270 -220 -99 151c-7,11 1,26 14,26l51 0c28,0 50,22 50,50l0 43c11,150 70,287 162,395l-78 51c-120,-114 -198,-271 -211,-446l-22 0 -67 0 -59 0c-19,0 -30,-21 -20,-36l9 -14z"/>
    <path class="fil0" d="M1374 1532l74 -58c4,4 7,9 11,13l-78 51 -6 -6z"/>
    <polygon class="fil0" points="1260,1385 1351,1314 1353,1318 1263,1390 "/>
    <path class="fil0" d="M1222 1309l99 -79c4,13 8,25 12,38l-95 76c-6,-11 -11,-23 -16,-35z"/>
    <path class="fil0" d="M999 1062l267 -217 -84 128c-7,11 1,26 14,26l51 0c28,0 50,22 50,50l0 32 -116 93c-5,-27 -9,-54 -11,-82l-22 0 -67 0 -59 0c-16,0 -27,-15 -23,-30z"/>
    <path class="fil0" d="M1132 1092l115 -93c27,0 49,23 49,50l0 43c1,12 2,23 3,35l-110 88c-10,-40 -17,-81 -20,-123l-22 0 -16 0z"/>
    <path class="fil0" d="M1190 1214l110 -88c2,15 4,29 7,43l-105 84c-4,-13 -8,-26 -11,-39z"/>
    <path class="fil0" d="M1222 1309l99 -79c4,13 8,25 12,38l-95 76c-6,-11 -11,-23 -16,-35z"/>
    <path class="fil0" d="M1201 1254l105 -84c4,21 9,41 14,61l-99 79c-8,-18 -15,-36 -21,-55z"/>
    <path class="fil0" d="M1228 708l128 -105 34 52 -207 319c-7,11 1,26 14,26l51 0c28,0 50,22 50,50l0 43c3,48 12,94 24,138l-99 79c-29,-68 -47,-141 -52,-217l-22 0 -67 0 -59 0c-19,0 -30,-21 -20,-36l226 -347z"/>
    <polygon class="fil0" points="1243,685 1351,596 1356,603 1228,708 "/>
    <path class="fil0" d="M1209 1275l103 -82c9,42 23,82 39,121l-91 72c-20,-35 -38,-72 -52,-111z"/>
    <path class="fil0" d="M1195 1233l108 -86c20,128 75,245 156,339l-78 51c-86,-82 -151,-187 -185,-304z"/>
    <path class="fil0" d="M1126 1092l115 -93 6 0c28,0 50,22 50,50l0 43c1,19 3,37 6,55l-108 86c-13,-45 -22,-93 -25,-142l-22 0 -22 0z"/>
    <path class="fil0" d="M1284 623l53 -44c4,2 7,4 9,8l44 67 -109 167 -270 220 273 -419z"/>
    <polygon class="fil0" points="1262,657 1346,587 1390,655 1119,876 "/>
    <path class="fil0" d="M1126 1092l115 -93 6 0c28,0 50,22 50,50l0 43c1,19 3,37 6,55l-108 86c-13,-45 -22,-93 -25,-142l-22 0 -22 0z"/>
    <path class="fil0" d="M998 1069l259 -210 -75 114c-7,11 1,26 14,26l51 0c28,0 50,22 50,50l0 23 -117 94c-5,-24 -8,-49 -10,-75l-22 0 -67 0 -59 0c-13,0 -23,-11 -23,-22z"/>
    <polygon class="fil0" points="1082,1092 1196,999 1247,999 1132,1092 "/>
    <path class="fil0" d="M1132 1092l115 -93 10 1 9 3 9 5 7 6 6 7 5 9 3 9 1 10 -121 97c-3,-18 -5,-36 -6,-54l-22 0 -16 0z"/>
    <path class="fil0" d="M1195 1233l108 -86c20,128 75,245 156,339l-78 51c-86,-82 -151,-187 -185,-304z"/>
    <path class="fil0" d="M1179 1166l117 -94 0 19c11,150 70,287 162,395l-78 51c-102,-97 -175,-226 -201,-371z"/>
    <path class="fil0" d="M1119 876l271 -221 -207 319 -146 118 -15 0c-19,0 -30,-21 -20,-36l117 -179z"/>
    <path class="fil0" d="M1176 1146l121 -97 0 43 -114 91c-3,-12 -5,-25 -7,-37z"/>
    <path class="fil0" d="M1311 583l5 -3 5 -2 6 -1 6 1 5 2 5 3 4 5 -84 69 45 -69c1,-2 2,-3 4,-5z"/>
    <path class="fil0" d="M1311 583l-4 5c1,-2 2,-3 4,-5z"/>
    <path class="fil0" d="M1183 1183l114 -91c0,5 1,9 1,14 0,5 1,9 1,14 1,5 1,9 2,14 1,5 1,9 2,14 1,5 1,9 2,14 1,5 2,9 3,14 1,5 2,9 3,14 1,4 2,9 3,13 1,4 2,9 3,13 1,4 2,9 4,13 1,4 3,9 4,13 1,4 3,9 4,13 1,4 3,9 4,13 1,4 3,9 5,13 2,4 3,8 5,13 2,4 3,8 5,13 2,4 4,8 5,12 2,4 4,8 6,12 2,4 4,8 6,12 2,4 4,8 6,12 2,4 4,8 6,12 2,4 4,8 6,12 2,4 4,8 7,12 2,4 5,8 7,11 2,4 5,8 7,11 2,4 5,7 7,11 2,4 5,7 8,11 3,4 5,7 8,11 3,4 5,7 8,11 3,4 5,7 8,11 3,3 6,7 8,10 3,3 6,7 9,10l-78 51c-98,-94 -169,-217 -198,-355z"/>
    <path class="fil0" d="M1170 1092l3 33c-1,-11 -2,-22 -3,-33zm3 33l5 32c-2,-11 -3,-21 -5,-32zm5 32l6 32c-2,-10 -4,-21 -6,-32zm6 32l7 31c-3,-10 -5,-20 -7,-31zm8 31l9 30c-3,-10 -6,-20 -9,-30zm9 30l10 30c-4,-10 -7,-20 -10,-30zm10 30l11 28c-4,-9 -8,-19 -11,-28zm12 30l12 28c-4,-9 -8,-18 -12,-28zm13 28l14 27c-5,-9 -9,-18 -14,-27zm14 28l15 27c-5,-9 -10,-18 -15,-27zm15 27l17 26c-6,-9 -11,-17 -17,-26zm17 26l17 25c-6,-8 -12,-17 -17,-25zm18 26l18 24c-6,-8 -12,-16 -18,-24zm19 25l19 23c-7,-8 -13,-15 -19,-23zm20 24l20 22c-7,-7 -14,-15 -20,-22zm21 23l21 21c-7,-7 -14,-14 -21,-21z"/>
    <path class="fil0" d="M1036 1092l146 -118c-1,1 -2,3 -2,4 0,1 -1,3 -1,4 0,1 0,3 0,4 0,1 1,3 2,4 1,1 2,2 3,3 1,1 2,2 3,3 1,1 3,1 4,2 1,0 3,1 5,1l-114 93 -1 0 -45 0z"/>
    <path class="fil0" d="M998 1071l36 -30 1 42 1 8 -15 0c-13,0 -22,-9 -23,-20z"/>
    <path class="fil0" d="M1036 1004l-1 38 -36 30c-1,-5 0,-11 4,-16l34 -52z"/>
    <path class="fil0" d="M1002 1056l-3 6c1,-2 2,-4 3,-6zm-3 6l-1 6c0,-2 0,-4 1,-6zm-1 6l1 6c0,-2 -1,-4 -1,-6zm1 6l2 6c-1,-2 -2,-4 -2,-6zm2 6l4 5c-1,-1 -3,-3 -4,-5zm4 5l5 4c-2,-1 -3,-2 -5,-4zm5 4l6 3c-2,-1 -4,-1 -6,-3zm6 3l7 1c-2,0 -5,0 -7,-1z"/>
   </g>
   <g>
    <path class="fil0" d="M1832 1892l37 -28 0 8c0,19 -21,30 -36,20l0 0zm300 -226l226 -170 3 3c-63,71 -141,128 -229,167z"/>
    <path class="fil0" d="M1868 1300l-431 335 -72 -47c-14,-9 -14,-30 0,-39l468 -305c16,-10 36,1 36,20l0 37z"/>
    <path class="fil0" d="M1498 1461l-143 112c-2,-9 1,-19 10,-25l133 -87z"/>
    <path class="fil0" d="M1868 1300l-431 335 -72 -47c-14,-9 -14,-30 0,-39l468 -305c16,-10 36,1 36,20l0 37z"/>
    <path class="fil0" d="M2518 1055l-388 297c82,-74 135,-179 138,-297l250 0zm-440 337l-466 357 -248 -162c-14,-9 -14,-30 0,-39l468 -305c16,-10 36,1 36,20l0 196c77,-3 149,-27 210,-67z"/>
    <path class="fil0" d="M1494 1672l374 -290 0 47 -342 264 -32 -21zm772 -588l49 0 -55 43c3,-14 5,-28 7,-43z"/>
    <path class="fil0" d="M1526 1693l342 -264 0 13 -333 257 -9 -6zm734 -566l55 -43 10 -1 9 -3 9 -5 -87 67c1,-5 2,-10 4,-16z"/>
    <path class="fil0" d="M1832 1892l37 -28 0 8c0,19 -21,30 -36,20l0 0zm300 -226l226 -170 3 3c-63,71 -141,128 -229,167z"/>
    <path class="fil0" d="M1498 1461l-143 112c-2,-9 1,-19 10,-25l133 -87z"/>
    <polygon class="fil0" points="1491,1670 1868,1378 1868,1382 1494,1672 "/>
    <path class="fil0" d="M1355 1573l143 -112 334 -218c16,-10 36,1 36,20l0 196c142,-6 266,-83 337,-196l152 233 -226 170c-81,36 -170,57 -263,60l0 139 -37 28 -467 -305c-5,-4 -9,-9 -10,-14z"/>
    <path class="fil0" d="M1612 1749l466 -357c18,-12 36,-25 52,-40l388 -297 17 0 0 19 0 8 -2 27 -1 8 -3 26 -1 7 -5 26 -2 8 -6 26 -2 7 -7 26 -2 7 -8 25 -3 7 -9 24 -3 7 -11 24 -3 7 -12 23 -3 6 -13 23 -3 5 -14 22 -3 5 -15 21 -5 7 -15 19 -6 7 -16 18 -6 6 -17 18 -6 6 -18 17 -6 6 -18 16c-2,2 -5,4 -7,6l-19 15c-110,83 -247,134 -395,138l0 147c0,19 -21,30 -36,20l-220 -144z"/>
    <path class="fil0" d="M1355 1573l143 -112 334 -218c16,-10 36,1 36,20l0 196c142,-6 266,-83 337,-196l152 233 -226 170c-81,36 -170,57 -263,60l0 139 -37 28 -467 -305c-5,-4 -9,-9 -10,-14z"/>
    <path class="fil0" d="M1482 1664l387 -299 0 94c89,-3 170,-35 236,-85l-491 376 -132 -86z"/>
    <path class="fil0" d="M1773 1854l95 -72 0 5 -92 69 -4 -2zm179 -135l369 -280 -11 10 -11 10 -12 10 -12 10 -12 9 -302 229 -8 1z"/>
    <path class="fil0" d="M1615 1385l4 3 17 11 17 10 18 9 18 8 19 7 19 7 20 6 20 5 21 4 21 3 21 2 21 1 -313 242 -173 -113c-14,-9 -14,-30 0,-39l250 -163z"/>
    <path class="fil0" d="M1734 1828l135 -102 0 147c0,19 -21,30 -36,20l-99 -64zm135 -102l18 -1c-6,0 -12,1 -18,1zm23 -1l12 -1c-4,0 -8,1 -12,1zm19 -1l12 -1c-4,0 -8,1 -12,1zm17 -2l11 -1c-4,0 -7,1 -11,1zm119 -24l10 -3c-3,1 -7,2 -10,3zm16 -5l12 -4c-4,1 -8,3 -12,4zm16 -5l14 -5c-5,2 -9,3 -14,5zm16 -6l16 -6 16 -7c-10,5 -21,9 -31,13zm34 -14l13 -6c-4,2 -9,4 -13,6zm15 -7l14 -7c-5,2 -9,5 -14,7zm17 -8l11 -6c-4,2 -8,4 -11,6zm16 -9l10 -5c-3,2 -7,4 -10,5zm15 -8l11 -6c-4,2 -7,4 -11,6zm13 -8l11 -7c-4,2 -8,5 -11,7zm29 -19l10 -7c-3,2 -7,5 -10,7zm14 -10l10 -7c-3,2 -7,5 -10,7z"/>
    <path class="fil0" d="M1734 1828l135 -102 0 147c0,19 -21,30 -36,20l-99 -64zm135 -102l34 -2c-11,1 -23,1 -34,2zm34 -2l34 -3c-11,1 -22,2 -34,3zm34 -3l33 -5c-11,2 -22,4 -33,5zm33 -5l33 -6c-11,2 -22,5 -33,6zm33 -6l32 -8c-11,3 -21,6 -32,8zm32 -8l31 -9c-10,3 -21,7 -31,9zm31 -9l31 -11c-10,4 -20,8 -31,11zm31 -11l29 -12c-10,4 -19,8 -29,12zm31 -13l28 -13c-9,5 -19,9 -28,13zm28 -13l29 -15c-9,5 -19,10 -29,15zm29 -15l28 -16c-9,6 -18,11 -28,16zm28 -16l27 -18c-9,6 -18,12 -27,18zm27 -18l26 -19c-9,6 -17,13 -26,19z"/>
    <path class="fil0" d="M1538 1701l313 -242 17 0 0 0 1 0 3 0 4 0c5,0 9,-1 14,-1l4 0 3 0c5,-1 9,-1 14,-2l4 0 3 -1c4,-1 9,-2 13,-2l4 -1 2 -1c5,-1 9,-2 14,-3l4 -1 3 -1c4,-1 8,-2 13,-4l4 -1 4 -1c4,-1 8,-3 11,-4l4 -1 4 -2c4,-1 7,-3 11,-4l4 -2 4 -2c4,-2 9,-4 13,-6l2 -1 3 -2c4,-2 9,-4 13,-7l2 -1 3 -2c4,-2 8,-5 12,-7l2 -1 3 -2c4,-2 8,-5 12,-8l3 -2 3 -2c4,-3 7,-5 11,-8l3 -2 -488 374 -75 -49z"/>
    <path class="fil0" d="M1819 1884l32 -24 17 0 0 14c0,19 -21,30 -36,20l-13 -8z"/>
    <path class="fil0" d="M1538 1701l313 -242 17 0 0 0 1 0 3 0 4 0c5,0 9,-1 14,-1l4 0 3 0c5,-1 9,-1 14,-2l4 0 3 -1c4,-1 9,-2 13,-2l4 -1 2 -1c5,-1 9,-2 14,-3l4 -1 3 -1c4,-1 8,-2 13,-4l4 -1 4 -1c4,-1 8,-3 11,-4l4 -1 4 -2c4,-1 7,-3 11,-4l4 -2 4 -2c4,-2 9,-4 13,-6l2 -1 3 -2c4,-2 9,-4 13,-7l2 -1 3 -2c4,-2 8,-5 12,-7l2 -1 3 -2c4,-2 8,-5 12,-8l3 -2 3 -2c4,-3 7,-5 11,-8l3 -2 -488 374 -75 -49z"/>
    <path class="fil0" d="M1615 1385l4 3 17 11 17 10 18 9 18 8 19 7 19 7 20 6 20 5 21 4 21 3 21 2 21 1 -313 242 -173 -113c-14,-9 -14,-30 0,-39l250 -163z"/>
    <path class="fil0" d="M1526 1443l17 13 20 14 21 13 22 12 22 11 23 10 23 9 24 8 25 7 25 6 25 5 26 3 26 2 27 1 -244 187 -243 -159c-14,-9 -14,-30 0,-39l161 -105z"/>
    <polygon class="fil0" points="1608,1746 1852,1559 1878,1559 1905,1557 1930,1553 1956,1549 1981,1543 2005,1536 2029,1528 2053,1519 2076,1508 2098,1497 2120,1484 2141,1471 2161,1456 1701,1807 "/>
    <path class="fil0" d="M1459 1487l-105 82c0,-8 3,-16 11,-20l94 -62z"/>
    <polygon class="fil0" points="1632,1762 1798,1634 1790,1640 1784,1648 1780,1656 1777,1666 1776,1676 1649,1773 "/>
    <polygon class="fil0" points="1649,1773 1776,1676 1776,1725 1683,1795 "/>
    <path class="fil0" d="M1381 1538l23 21 24 20 25 19 26 18 26 16 27 15 28 14 29 13 29 12 30 10 31 9 31 7 32 6 32 4 33 3 33 1 -121 92 -353 -230c-14,-9 -14,-30 0,-39l16 -10z"/>
    <polygon class="fil0" points="1683,1795 1776,1725 1775,1730 1773,1734 1771,1737 1689,1799 "/>
    <path class="fil0" d="M1362 1551l3 -3 -5 4 1 -1zm-1 1l-3 5c1,-2 2,-3 3,-5zm-3 5l-2 5c0,-2 1,-4 2,-5zm-2 5l-1 6c0,-2 0,-4 1,-6zm-1 6l1 6c0,-2 -1,-4 -1,-6zm1 6l2 5c-1,-2 -2,-3 -2,-5zm2 5l3 5c-1,-1 -2,-3 -3,-5zm3 5l5 4c-2,-1 -3,-2 -5,-4z"/>
    <path class="fil0" d="M1832 1893l6 3c-2,-1 -4,-2 -6,-3zm6 3l6 1c-2,0 -4,0 -6,-1zm6 1l6 -1c-2,0 -4,1 -6,1zm6 -1l6 -2c-2,1 -4,2 -6,2zm6 -2l5 -4 -4 3 -1 1z"/>
    <path class="fil0" d="M1362 1551l3 -3 -5 4 1 -1zm-1 1l-3 5c1,-2 2,-3 3,-5zm-3 5l-2 5c0,-2 1,-4 2,-5zm-2 5l-1 6c0,-2 0,-4 1,-6zm-1 6l1 6c0,-2 -1,-4 -1,-6zm1 6l2 5c-1,-2 -2,-3 -2,-5zm2 5l3 5c-1,-1 -2,-3 -3,-5zm3 5l5 4c-2,-1 -3,-2 -5,-4z"/>
    <polygon class="fil0" points="1776,1856 1810,1859 1852,1860 1819,1884 "/>
    <path class="fil0" d="M1832 1893l6 3c-2,-1 -4,-2 -6,-3zm6 3l6 1c-2,0 -4,0 -6,-1zm6 1l6 -1c-2,0 -4,1 -6,1zm6 -1l6 -2c-2,1 -4,2 -6,2zm6 -2l5 -4 -4 3 -1 1z"/>
   </g>
   <g>
    <path class="fil0" d="M2089 698l234 -153 1 1 -213 168c-7,-6 -15,-11 -23,-17z"/>
    <path class="fil0" d="M2358 1496l4 5c-1,-1 -3,-3 -4,-5zm4 5l5 3c-2,-1 -3,-2 -5,-3zm5 3l5 2c-2,0 -4,-1 -5,-2zm5 2l6 1c-2,0 -4,0 -6,-1zm6 1l6 -1c-2,0 -4,1 -6,1zm6 -1l5 -2c-2,1 -3,2 -5,2zm5 -2l5 -3 -3 2 -2 1z"/>
    <path class="fil0" d="M2089 698l234 -153 1 1 -213 168c-7,-6 -15,-11 -23,-17z"/>
    <path class="fil0" d="M2266 992l-157 122 -56 -86c-10,-16 1,-36 20,-36l193 0z"/>
    <path class="fil0" d="M2056 998l4 -3 -5 4 1 -1zm-1 1l-4 5c1,-2 2,-3 4,-5zm-4 5l-2 6c0,-2 1,-4 2,-6zm-2 6l-1 6c0,-2 0,-4 1,-6zm-1 6l1 6c-1,-2 -1,-4 -1,-6zm1 6l3 6c-1,-2 -2,-4 -3,-6z"/>
    <path class="fil0" d="M2123 725l0 0 0 0 0 0zm46 46l0 0 0 0 0 0zm26 35l0 0 0 0 0 -1zm23 37l0 0 0 0 0 -1zm10 19l0 0 0 0 0 -1zm17 41l0 0 0 1 0 -1zm7 21l0 1 0 1 0 -1zm6 22l0 0 0 1 0 -1zm4 22l0 1 0 1 0 -2zm4 24l-157 122 -56 -86c-10,-16 1,-36 20,-36l193 0z"/>
    <path class="fil0" d="M1865 357l19 0 8 0 27 2 8 1 26 3 8 1 26 5 7 1 26 6 6 1 27 8 6 2 26 9 7 3 25 10 6 2 24 11 6 3 23 12 6 4 22 13 6 4 21 14 6 4 21 15 6 4 20 16 6 5 19 17 6 5 18 17 6 6 17 18 5 6 16 19 5 6 15 19 5 7 14 19 5 7 13 21 4 7 12 22 4 7 11 22 5 9 10 22 4 9 9 24 3 8 8 23 2 8 7 24 2 9 5 24 2 9 4 24 1 9 3 25 1 8 2 32 1 35 -316 242 -167 -256c-10,-16 1,-36 20,-36l193 0c-24,-203 -193,-361 -401,-367l0 -267z"/>
    <polygon class="fil0" points="2144,1169 2254,1084 2315,1084 2165,1200 "/>
    <polygon class="fil0" points="2165,1200 2315,1084 2325,1083 2335,1080 2343,1076 2171,1209 "/>
    <path class="fil0" d="M2358 1496l4 5c-1,-1 -3,-3 -4,-5zm4 5l5 3c-2,-1 -3,-2 -5,-3zm5 3l5 2c-2,0 -4,-1 -5,-2zm5 2l6 1c-2,0 -4,0 -6,-1zm6 1l6 -1c-2,0 -4,1 -6,1zm6 -1l5 -2c-2,1 -3,2 -5,2zm5 -2l5 -3 -3 2 -2 1z"/>
    <path class="fil0" d="M2056 998l4 -3 -5 4 1 -1zm-1 1l-4 5c1,-2 2,-3 4,-5zm-4 5l-2 6c0,-2 1,-4 2,-6zm-2 6l-1 6c0,-2 0,-4 1,-6zm-1 6l1 6c-1,-2 -1,-4 -1,-6zm1 6l3 6c-1,-2 -2,-4 -3,-6z"/>
    <polygon class="fil0" points="2143,1166 2245,1087 2249,1085 2254,1084 2144,1169 "/>
    <path class="fil0" d="M2219 1284l316 -242 -1 35 -3 35 -4 34 -6 34 -8 33 -9 32 -11 32 -12 31 -14 30 -15 30 -16 29 -18 28 -19 27 -20 26 -19 22c-1,-1 -2,-2 -3,-3l-138 -212z"/>
    <polygon class="fil0" points="2137,1157 2268,1055 2267,1075 2265,1096 2262,1115 2258,1135 2253,1154 2248,1173 2241,1191 2234,1209 2225,1227 2216,1244 2207,1261 2205,1262 "/>
   </g>
   <g>
    <path class="fil0" d="M1835 649l30 -24 19 1 19 2 19 3 19 4 18 4 18 5 18 6 17 7 17 7 16 8 16 9 16 10 12 8 -218 142c-16,10 -36,-1 -36,-20l0 -172z"/>
    <path class="fil0" d="M1835 371l17 -14 35 1 35 3 34 4 34 6 33 8 32 9 32 11 31 12 30 14 29 15 29 16 28 18 27 19 26 20 25 22 11 11 -451 295c-16,10 -36,-1 -36,-20l0 -450z"/>
    <path class="fil0" d="M1835 821l1 7c-1,-2 -1,-4 -1,-7zm1 7l3 6c-1,-2 -2,-4 -3,-6zm3 6l4 5c-1,-1 -3,-3 -4,-5zm4 5l5 3c-2,-1 -3,-2 -5,-3zm5 4l6 2c-2,0 -4,-1 -6,-2zm6 2l6 1c-2,0 -4,0 -6,-1zm6 1l6 -1c-2,1 -4,1 -6,1zm6 -1l6 -3c-2,1 -4,2 -6,3z"/>
    <polygon class="fil0" points="1835,382 1865,357 1865,624 1835,649 "/>
    <polygon class="fil0" points="1835,524 1835,524 1835,649 "/>
    <path class="fil0" d="M1835 821l1 7c-1,-2 -1,-4 -1,-7zm1 7l3 6c-1,-2 -2,-4 -3,-6zm3 6l4 5c-1,-1 -3,-3 -4,-5zm4 5l5 3c-2,-1 -3,-2 -5,-3zm5 4l6 2c-2,0 -4,-1 -6,-2zm6 2l6 1c-2,0 -4,0 -6,-1zm6 1l6 -1c-2,1 -4,1 -6,1zm6 -1l6 -3c-2,1 -4,2 -6,3z"/>
    <path class="fil0" d="M1842 193l-4 5c1,-2 2,-3 4,-5zm-4 5l-3 6c1,-2 1,-4 3,-6zm-3 6l-1 7c0,-2 0,-5 1,-7z"/>
    <polygon class="fil0" points="1835,357 1852,357 1835,371 "/>
   </g>
   <g>
    <path class="fil0" d="M1835 649l30 -24 19 1 19 2 19 3 5 1 0 18c0,13 15,21 26,14l28 -19 13 4 17 7 17 7 16 8 16 9 16 10 12 8 -218 142c-16,10 -36,-1 -36,-20l0 -74 0 -50 0 -49z"/>
    <path class="fil0" d="M2239 477l22 16 26 20 25 22 11 11 -451 295c-16,10 -36,-1 -36,-20l0 -74 0 -50 0 -174 43 0c28,0 50,22 50,50l0 75c0,13 15,21 26,14l285 -186z"/>
    <path class="fil0" d="M1835 821l1 7c-1,-2 -1,-4 -1,-7zm1 7l3 6c-1,-2 -2,-4 -3,-6zm3 6l4 5c-1,-1 -3,-3 -4,-5zm4 5l5 3c-2,-1 -3,-2 -5,-3zm5 4l6 2c-2,0 -4,-1 -6,-2zm6 2l6 1c-2,0 -4,0 -6,-1zm6 1l6 -1c-2,1 -4,1 -6,1zm6 -1l6 -3c-2,1 -4,2 -6,3z"/>
    <polygon class="fil0" points="1865,524 1865,624 1835,649 1835,524 "/>
    <path class="fil0" d="M1835 821l1 7c-1,-2 -1,-4 -1,-7zm1 7l3 6c-1,-2 -2,-4 -3,-6zm3 6l4 5c-1,-1 -3,-3 -4,-5zm4 5l5 3c-2,-1 -3,-2 -5,-3zm5 4l6 2c-2,0 -4,-1 -6,-2zm6 2l6 1c-2,0 -4,0 -6,-1zm6 1l6 -1c-2,1 -4,1 -6,1zm6 -1l6 -3c-2,1 -4,2 -6,3z"/>
   </g>
   <g>
    <path class="fil0" d="M2089 698l83 -54c5,4 10,7 15,11l-76 60c-7,-6 -15,-11 -23,-17z"/>
    <path class="fil0" d="M2358 1496l4 5c-1,-1 -3,-3 -4,-5zm4 5l5 3c-2,-1 -3,-2 -5,-3zm5 3l5 2c-2,0 -4,-1 -5,-2zm5 2l6 1c-2,0 -4,0 -6,-1zm6 1l6 -1c-2,0 -4,1 -6,1zm6 -1l5 -2c-2,1 -3,2 -5,2zm5 -2l5 -3 -3 2 -2 1z"/>
    <path class="fil0" d="M2089 698l83 -54c5,4 10,7 15,11l-76 60c-7,-6 -15,-11 -23,-17z"/>
    <path class="fil0" d="M2090 699l1 1 1 1 -2 -2zm15 11l1 1 1 1 -2 -1zm14 11l1 1 1 1 -2 -2zm13 12l1 1 1 1 -2 -2zm13 13l1 1 1 1 -2 -2zm13 13l1 1 1 1 -2 -2zm12 14l1 1 1 1 -1 -2zm22 29l0 1 1 1 -1 -1zm10 15l1 1 0 1 -1 -2zm19 32l0 0 0 0 0 -1zm8 16l0 1 0 1 -1 -1zm14 34l0 1 0 1 -1 -2zm6 18l0 1 0 1 0 -1zm10 37l0 0 0 0 0 -1zm4 18l0 1 0 0 0 -1zm3 19l-157 122 -56 -86c-10,-16 1,-36 20,-36l54 0 79 0 60 0z"/>
    <path class="fil0" d="M2056 998l4 -3 -5 4 1 -1zm-1 1l-4 5c1,-2 2,-3 4,-5zm-4 5l-2 6c0,-2 1,-4 2,-6zm-2 6l-1 6c0,-2 0,-4 1,-6zm-1 6l1 6c-1,-2 -1,-4 -1,-6zm1 6l3 6c-1,-2 -2,-4 -3,-6z"/>
    <path class="fil0" d="M2266 992l-157 122 -56 -86c-10,-16 1,-36 20,-36l54 0 79 0 60 0z"/>
    <path class="fil0" d="M2308 1216l-89 68 -167 -256c-10,-16 1,-36 20,-36l54 0 79 0 60 0c-15,-121 -81,-227 -177,-293l83 -54c108,74 177,209 194,347l0 43c0,28 -22,50 -50,50l-62 0c-13,0 -21,15 -14,26l69 106z"/>
    <path class="fil0" d="M2144 1169l93 -72c-1,4 -1,9 2,13l14 22 -89 68 -20 -31z"/>
    <path class="fil0" d="M2165 1200l89 -68 6 9 -89 68 -6 -9zm150 -116l10 -1c-3,1 -7,1 -10,1zm10 -1l9 -3c-3,1 -6,2 -9,3zm9 -3l9 -5c-3,2 -6,3 -9,5z"/>
    <path class="fil0" d="M2358 1496l4 5c-1,-1 -3,-3 -4,-5zm4 5l5 3c-2,-1 -3,-2 -5,-3zm5 3l5 2c-2,0 -4,-1 -5,-2zm5 2l6 1c-2,0 -4,0 -6,-1zm6 1l6 -1c-2,0 -4,1 -6,1zm6 -1l5 -2c-2,1 -3,2 -5,2zm5 -2l5 -3 -3 2 -2 1z"/>
    <path class="fil0" d="M2056 998l4 -3 -5 4 1 -1zm-1 1l-4 5c1,-2 2,-3 4,-5zm-4 5l-2 6c0,-2 1,-4 2,-6zm-2 6l-1 6c0,-2 0,-4 1,-6zm-1 6l1 6c-1,-2 -1,-4 -1,-6zm1 6l3 6c-1,-2 -2,-4 -3,-6z"/>
    <path class="fil0" d="M2143 1166l100 -77c-2,2 -4,5 -5,8l-93 72 -2 -3z"/>
    <path class="fil0" d="M2219 1284l89 -68 123 189 -13 20 -19 27 -20 26 -19 22c-1,-1 -2,-2 -3,-3l-138 -212z"/>
    <path class="fil0" d="M2137 1157l132 -102 -1 20 -1 9 -13 0c-13,0 -21,15 -14,26l18 27 -4 17 -6 19 -7 18 -7 18 -8 18 -9 17 -10 17 -1 2 -69 -106z"/>
   </g>
   <g>
    <path class="fil0" d="M1832 1892l37 -28 0 8c0,19 -21,30 -36,20l0 0zm300 -226l226 -170c1,1 2,2 3,3 -63,71 -141,128 -229,167z"/>
    <path class="fil0" d="M1507 1580l-70 54 -72 -47c-14,-9 -14,-30 0,-39l47 -31 96 63z"/>
    <path class="fil0" d="M1419 1523l-64 50c-2,-9 1,-19 10,-25l47 -31 8 5z"/>
    <path class="fil0" d="M1507 1580l-70 54 -72 -47c-14,-9 -14,-30 0,-39l47 -31 96 63z"/>
    <path class="fil0" d="M1683 1695l-71 54 -248 -162c-14,-9 -14,-30 0,-39l47 -31 271 177z"/>
    <polygon class="fil0" points="1494,1672 1564,1617 1597,1639 1526,1693 "/>
    <polygon class="fil0" points="1526,1693 1597,1639 1605,1644 1535,1699 "/>
    <path class="fil0" d="M1832 1892l37 -28 0 8c0,19 -21,30 -36,20l0 0zm300 -226l226 -170c1,1 2,2 3,3 -63,71 -141,128 -229,167z"/>
    <path class="fil0" d="M1419 1523l-64 50c-2,-9 1,-19 10,-25l47 -31 8 5z"/>
    <polygon class="fil0" points="1491,1670 1561,1616 1564,1617 1494,1672 "/>
    <path class="fil0" d="M1355 1573l64 -50 331 216c11,7 26,-1 26,-14l0 -49c0,-28 22,-50 50,-50l43 0c175,-4 334,-74 452,-186l37 56 -226 170c-81,36 -170,57 -263,60l0 47 0 49 0 43 -37 28 -467 -305c-5,-4 -9,-9 -10,-14z"/>
    <path class="fil0" d="M1612 1749l71 -54 67 44c11,7 26,-1 26,-14l0 -49c0,-28 22,-50 50,-50l43 0c175,-4 334,-74 452,-186l37 56c1,1 2,2 3,3l-5 6 -17 18 -6 6 -17 16 -7 7 -18 15 -7 6 -19 15c-110,84 -247,135 -396,138l0 47 0 49 0 51c0,19 -21,30 -36,20l-220 -144z"/>
    <path class="fil0" d="M1355 1573l64 -50 331 216c11,7 26,-1 26,-14l0 -49c0,-28 22,-50 50,-50l43 0c175,-4 334,-74 452,-186l37 56 -226 170c-81,36 -170,57 -263,60l0 47 0 49 0 43 -37 28 -467 -305c-5,-4 -9,-9 -10,-14z"/>
    <polygon class="fil0" points="1482,1664 1552,1609 1684,1696 1613,1750 "/>
    <path class="fil0" d="M1773 1854l95 -72 0 5 -92 69 -4 -2zm179 -135l250 -189c21,-13 41,-26 60,-41l-302 229 -8 1z"/>
    <path class="fil0" d="M1609 1646l-70 54 -173 -113c-14,-9 -14,-30 0,-39l47 -31 197 129z"/>
    <path class="fil0" d="M1734 1828l135 -102 0 47 0 49 0 51c0,19 -21,30 -36,20l-99 -64zm135 -102l18 -1c-6,0 -12,1 -18,1zm18 -1l18 -1c-6,0 -12,1 -18,1zm18 -1l18 -2c-6,1 -12,1 -18,2zm18 -2l18 -2c-6,1 -12,1 -18,2zm18 -2l18 -3c-6,1 -12,2 -18,3zm18 -3l18 -3c-6,1 -12,2 -18,3zm18 -3l17 -3c-6,1 -12,2 -17,3zm17 -3l17 -4c-6,1 -11,3 -17,4zm17 -4l17 -4c-6,2 -11,3 -17,4zm17 -4l17 -5c-6,2 -11,3 -17,5zm17 -5l17 -5c-6,2 -11,4 -17,5zm17 -5l17 -6c-5,2 -11,4 -17,6zm17 -6l16 -6c-5,2 -11,4 -16,6zm16 -6l16 -6c-5,2 -11,4 -16,6zm16 -6l16 -7c-5,2 -11,5 -16,7zm16 -7l16 -7c-5,2 -10,5 -16,7zm16 -7l16 -8c-5,3 -10,5 -16,8zm16 -8l15 -8c-5,3 -10,5 -15,8zm15 -8l15 -8c-5,3 -10,6 -15,8zm15 -8l15 -9c-5,3 -10,6 -15,9zm15 -9l15 -9c-5,3 -10,6 -15,9zm15 -9l14 -9c-5,3 -10,6 -14,9zm14 -9l14 -10c-5,3 -9,7 -14,10zm14 -10l14 -10c-5,3 -9,7 -14,10z"/>
    <path class="fil0" d="M1734 1828l135 -102 0 47 0 49 0 51c0,19 -21,30 -36,20l-99 -64zm135 -102l34 -2c-11,1 -22,1 -34,2zm34 -2l33 -3c-11,1 -22,2 -33,3zm34 -3l32 -5c-11,2 -21,3 -32,5zm33 -5l32 -6c-10,2 -21,4 -32,6zm32 -6l31 -8c-10,3 -21,5 -31,8zm32 -8l30 -9c-10,3 -20,6 -30,9zm32 -10l29 -10c-10,4 -19,7 -29,10zm31 -11l28 -12c-9,4 -19,8 -28,12zm29 -12l28 -13c-9,5 -19,9 -28,13zm30 -14l27 -14c-9,5 -18,10 -27,14zm29 -15l26 -15c-9,5 -17,10 -26,15zm28 -17l25 -16c-8,6 -16,11 -25,16zm26 -17l24 -18c-8,6 -16,12 -24,18z"/>
    <polygon class="fil0" points="1538,1701 1609,1646 1684,1696 1613,1750 "/>
    <path class="fil0" d="M1819 1884l32 -24 17 0 0 14c0,19 -21,30 -36,20l-13 -8z"/>
    <polygon class="fil0" points="1538,1701 1609,1646 1684,1696 1613,1750 "/>
    <path class="fil0" d="M1609 1646l-70 54 -173 -113c-14,-9 -14,-30 0,-39l47 -31 197 129z"/>
    <path class="fil0" d="M1678 1692l-71 54 -243 -159c-14,-9 -14,-30 0,-39l47 -31 267 174z"/>
    <path class="fil0" d="M1608 1746l71 -54 72 47c11,7 26,-1 26,-14l0 -49c0,-28 22,-50 50,-50l43 0c27,-1 53,-3 79,-6l-246 187 -93 -61z"/>
    <path class="fil0" d="M1416 1521l-62 48c0,-8 3,-16 11,-20l47 -31 4 3z"/>
    <path class="fil0" d="M1632 1762l71 -54 17 11 -71 54 -17 -11zm162 -124l5 -3 -7 6c1,-1 2,-2 3,-3zm-3 3l-6 7c2,-3 4,-5 6,-7zm-6 7l-5 9c1,-3 3,-6 5,-9zm-5 9l-3 9c1,-3 2,-6 3,-9zm-3 9l-1 10c0,-3 0,-7 1,-10z"/>
    <path class="fil0" d="M1649 1773l71 -54 31 20c1,1 3,2 5,2l-71 54 -34 -22z"/>
    <path class="fil0" d="M1381 1538l23 21 24 20 25 19 26 18 26 16 27 15 28 14 29 13 29 12 30 10 31 9 29 7 43 28c11,7 26,-1 26,-14l0 -3 29 3 33 1 -121 92 -353 -230c-14,-9 -14,-30 0,-39l16 -10z"/>
    <path class="fil0" d="M1683 1795l71 -54c5,1 9,0 13,-2l-79 60 -6 -4z"/>
    <path class="fil0" d="M1362 1551l3 -3 -5 4 1 -1zm-1 1l-3 5c1,-2 2,-3 3,-5zm-3 5l-2 5c0,-2 1,-4 2,-5zm-2 5l-1 6c0,-2 0,-4 1,-6zm-1 6l1 6c0,-2 -1,-4 -1,-6zm1 6l2 5c-1,-2 -2,-3 -2,-5zm2 5l3 5c-1,-1 -2,-3 -3,-5zm3 5l5 4c-2,-1 -3,-2 -5,-4z"/>
    <path class="fil0" d="M1832 1893l6 3c-2,-1 -4,-2 -6,-3zm6 3l6 1c-2,0 -4,0 -6,-1zm6 1l6 -1c-2,0 -4,1 -6,1zm6 -1l6 -2c-2,1 -4,2 -6,2zm6 -2l5 -4 -4 3 -1 1z"/>
    <path class="fil0" d="M1362 1551l3 -3 -5 4 1 -1zm-1 1l-3 5c1,-2 2,-3 3,-5zm-3 5l-2 5c0,-2 1,-4 2,-5zm-2 5l-1 6c0,-2 0,-4 1,-6zm-1 6l1 6c0,-2 -1,-4 -1,-6zm1 6l2 5c-1,-2 -2,-3 -2,-5zm2 5l3 5c-1,-1 -2,-3 -3,-5zm3 5l5 4c-2,-1 -3,-2 -5,-4z"/>
    <polygon class="fil0" points="1776,1856 1810,1859 1852,1860 1819,1884 "/>
    <path class="fil0" d="M1832 1893l6 3c-2,-1 -4,-2 -6,-3zm6 3l6 1c-2,0 -4,0 -6,-1zm6 1l6 -1c-2,0 -4,1 -6,1zm6 -1l6 -2c-2,1 -4,2 -6,2zm6 -2l5 -4 -4 3 -1 1z"/>
   </g>
  </g>
  <path class="fil3" d="M217 1826c7,11 12,21 16,32 3,7 5,19 21,19 5,0 11,-1 17,-5 7,-3 12,-9 14,-17l6 -21 15 -7 1 1c-2,8 -2,16 -2,21 0,18 15,24 27,24 7,0 13,-4 13,-10 0,-8 -4,-23 -8,-35 7,-7 14,-14 22,-20l1 1c4,15 6,30 6,40 0,10 -4,20 -8,27 -7,14 -20,25 -36,25 -12,0 -25,-6 -34,-17l-1 0c-9,11 -22,20 -43,20l-7 0c-1,14 -4,24 -9,33 -13,25 -50,42 -85,42 -49,0 -73,-28 -73,-66 0,-23 8,-45 19,-60l10 4c-7,14 -12,27 -12,40 0,35 29,52 62,52 31,0 68,-19 75,-42 -3,-25 -12,-36 -26,-59 4,-7 10,-15 17,-23l1 0 0 0 0 0zm564 -133c10,6 20,14 30,23 -6,8 -12,15 -21,21 -10,-8 -20,-15 -30,-22 7,-8 14,-15 20,-22zm5 96c-17,0 -30,11 -30,19 0,17 33,23 73,23 -5,-20 -22,-42 -43,-42zm-37 93c22,0 41,-1 55,-4 16,-4 30,-12 30,-18 0,-2 0,-3 -1,-5 -9,1 -19,1 -29,1 -29,0 -52,-7 -61,-23 -2,-5 -4,-10 -4,-16 0,-16 7,-32 19,-42 10,-9 21,-14 33,-14 20,0 37,16 48,42 6,14 11,30 11,51 0,14 -4,25 -12,34 -16,15 -45,21 -90,21l-20 0 0 0 -5 0c-11,0 -19,-2 -25,-7l-1 0c0,3 1,5 1,7 0,10 -3,23 -10,33 -20,30 -42,43 -60,43 -19,0 -42,-7 -63,-17l4 -7c7,3 16,5 29,5 34,0 78,-33 84,-64 -1,-3 -4,-6 -7,-10 -10,-12 -16,-22 -22,-32 5,-10 10,-18 14,-25l2 0c14,29 28,46 57,46l5 0 0 0 21 0zm-146 31c2,-14 3,-29 3,-43l0 -21c0,-39 -5,-96 -9,-133 7,-8 17,-17 25,-23l2 1c5,47 7,101 7,151 0,13 -1,26 -2,35 -1,12 -8,21 -22,35l-3 -1 0 0 0 0zm-151 -62c1,18 10,33 41,33 20,0 36,-5 55,-14 3,-1 5,-3 5,-5 0,-12 -9,-27 -24,-41 -14,-13 -34,-25 -51,-32 -6,-3 -8,-5 -8,-8 0,-5 7,-16 13,-24l2 0c20,11 43,27 60,44 15,16 25,33 25,51 0,13 -4,26 -11,38 -22,11 -46,20 -70,20 -29,0 -48,-14 -48,-45 0,-3 0,-9 1,-16l10 0 0 0 0 0zm-52 -52l18 29c7,11 13,22 13,41l0 24c0,19 -12,39 -32,60 -15,14 -29,20 -42,20 -19,0 -40,-6 -65,-17l3 -7c8,2 17,4 28,4 36,0 72,-26 89,-58 2,-4 3,-7 3,-9 0,-4 -2,-8 -4,-11 -9,-17 -19,-33 -30,-47 6,-9 12,-18 18,-27l2 0 0 0 0 0z"/>
  <g id="_2227230455600">
   <path class="fil4" d="M2669 1042c0,452 -366,818 -817,818 -451,0 -817,-366 -817,-818 0,-452 366,-818 817,-818 451,0 817,366 817,818z"/>
   <path class="fil5" d="M1852 357c-378,0 -684,307 -684,685 0,378 306,685 684,685 378,0 684,-307 684,-685 0,-378 -306,-685 -684,-685zm0 1102c-230,0 -417,-187 -417,-417 0,-231 187,-417 417,-417 230,0 417,187 417,417 0,231 -187,417 -417,417z"/>
   <path class="fil6" d="M1852 524c-285,0 -517,232 -517,518 0,286 231,518 517,518 285,0 517,-232 517,-518 0,-286 -231,-518 -517,-518zm0 935c-230,0 -417,-187 -417,-417 0,-231 187,-417 417,-417 230,0 417,187 417,417 0,231 -187,417 -417,417z"/>
   <path class="fil7" d="M1838 1459l0 267c-355,-7 -643,-284 -668,-634l-149 0c-19,0 -30,-21 -20,-36l305 -468c9,-14 30,-14 39,0l305 468c10,16 -1,36 -20,36l-193 0c24,203 193,361 401,367z"/>
   <path class="fil8" d="M1170 1092l-22 0 -67 0 -59 0c-19,0 -30,-21 -20,-36l305 -468c9,-14 30,-14 39,0l44 67 -207 319c-7,11 1,26 14,26l51 0c28,0 50,22 50,50l0 43c11,150 70,287 162,395l-78 51c-120,-114 -198,-271 -211,-446z"/>
   <path class="fil9" d="M1868 1726l0 147c0,19 -21,30 -36,20l-468 -305c-14,-9 -14,-30 0,-39l468 -305c16,-10 36,1 36,20l0 196c218,-9 393,-185 400,-404l267 0c-7,366 -301,662 -667,671z"/>
   <path class="fil10" d="M2702 1028l-305 468c-9,14 -30,14 -39,0l-305 -468c-10,-16 1,-36 20,-36l193 0c-24,-203 -193,-361 -401,-367l0 -267c355,7 643,284 668,634l149 0c19,0 30,21 20,36z"/>
   <path class="fil5" d="M1871 191l468 305c14,9 14,30 0,39l-468 305c-16,10 -36,-1 -36,-20l0 -611c0,-19 21,-30 36,-20z"/>
   <path class="fil6" d="M2339 535l-468 305c-16,10 -36,-1 -36,-20l0 -74 0 -50 0 -174 43 0c28,0 50,22 50,50l0 75c0,13 15,21 26,14l321 -210 64 42c14,9 14,30 0,39z"/>
   <path class="fil11" d="M2444 1423l-47 72c-9,14 -30,14 -39,0l-305 -468c-10,-16 1,-36 20,-36l54 0 79 0 60 0c-15,-121 -81,-227 -177,-293l83 -54c108,74 177,209 194,347l0 43c0,28 -22,50 -50,50l-62 0c-13,0 -21,15 -14,26l204 313z"/>
   <path class="fil12" d="M2360 1499c-122,136 -297,222 -492,227l0 47 0 49 0 51c0,19 -21,30 -36,20l-468 -305c-14,-9 -14,-30 0,-39l47 -31 339 221c11,7 26,-1 26,-14l0 -49c0,-28 22,-50 50,-50l43 0c175,-4 334,-74 452,-186l37 56c1,1 2,2 3,3z"/>
  </g>
 </g>
</svg>
