<?xml version="1.0" encoding="UTF-8"?>
<!DOCTYPE svg PUBLIC "-//W3C//DTD SVG 1.0//EN" "http://www.w3.org/TR/2001/REC-SVG-20010904/DTD/svg10.dtd">
<!-- Creator: CorelDRAW 2017 -->
<svg xmlns="http://www.w3.org/2000/svg" xml:space="preserve" width="356px" height="200px" version="1.0" shape-rendering="geometricPrecision" text-rendering="geometricPrecision" image-rendering="optimizeQuality" fill-rule="evenodd" clip-rule="evenodd"
viewBox="0 0 35600 20025"
 xmlns:xlink="http://www.w3.org/1999/xlink">
 <g id="Layer_x0020_1">
  <metadata id="CorelCorpID_0Corel-Layer"/>
  <g id="_3013771242352">
   <path fill="#E6E7E8" d="M0 0l35600 0 0 20025 -35600 0 0 -20025z"/>
   <path fill="#373435" fill-opacity="0.078431" d="M5681 20025l22 0 448 0 74 0 327 0 2 0 348 0 209 0 208 0 273 0 309 0 122 0 340 0 85 0 173 0 22 0 67 0 109 0 10 0 28 0 1 0 118 0 66 0 100 0 32 0 79 0 77 0 164 0 9 0 5 0 13 0 47 0 153 0 4 0 39 0 166 0 128 0 80 0 145 0 105 0 261 0 8 0 19 0 60 0 73 0 25 0 7 0 4 0 28 0 42 0 117 0 186 0 67 0 10 0 166 0 83 0 114 0 124 0 285 0 16 0 36 0 19 0 129 0 187 0 15 0 58 0 121 0 47 0 72 0 3 0 65 0 18 0 137 0 3 0 40 0 1 0 128 0 57 0 57 0 31 0 19 0 32 0 10 0 76 0 49 0 46 0 167 0 50 0 0 0 115 0 49 0 8 0 86 0 119 0 75 0 23 0 16 0 38 0 48 0 109 0 57 0 44 0 6 0 92 0 3 0 56 0 26 0 22 0 53 0 119 0 0 0 4 0 119 0 13 0 66 0 41 0 16 0 29 0 36 0 106 0 24 0 5 0 17 0 120 0 62 0 8 0 9 0 76 0 25 0 72 0 35 0 6 0 78 0 19 0 227 0 12 0 37 0 2 0 32 0 88 0 18 0 140 0 43 0 22 0 65 0 35 0 108 0 100 0 7 0 81 0 28 0 73 0 22 0 66 0 63 0 49 0 62 0 88 0 45 0 95 0 53 0 22 0 1 0 141 0 11 0 21 0 12 0 27 0 52 0 3 0 28 0 0 0 27 0 24 0 52 0 36 0 46 0 39 0 49 0 4 0 3 0 108 0 19 0 2 0 26 0 56 0 3 0 42 0 53 0 29 0 1 0 3 0 52 0 26 0 2 0 34 0 34 0 11 0 51 0 159 0 11 0 0 0 122 0 5 0 3 0 10 0 24 0 8 0 42 0 91 0 31 0 41 0 13 0 100 0 27 0 12 0 3 0 38 0 5 0 114 0 41 0 57 0 48 0 134 0 23 0 16 0 2 0 154 0 120 0 16 0 123 0 50 0 15 0 72 0 59 0 1 0 6 0 0 0 14 0 86 0 48 0 37 0 18 0 10 0 82 0 132 0 41 0 167 0 27 0 8 0 81 0 50 0 49 0 105 0 206 0 3 0 99 0 88 0 33 0 45 0 118 0 32 0 13 0 4 0 55 0 154 0 8 0 10 0 110 0 124 0 27 0 18 0 9 0 2 0 132 0 79 0 143 0 95 0 12 0 156 0 32 0 52 0 82 0 111 0 16 0 233 0 76 0 35 0 30 0 157 0 179 0 167 0 40 0 3511 -3788 -16 16 -16 15 -19 13 -19 13 -21 11 -22 11 -23 9 -24 8 -25 7 -25 6 -26 4 -27 3 -28 2 -26 1 180 -194 11 -12 10 -13 8 -14 6 -14 4 -14 3 -15 0 -15 0 -14 -3 -13 -4 -12 -5 -11 -7 -11 -9 -10 -10 -9 -11 -9 -11 -5 -13 -6 -16 -7 -20 -7 -23 -7 -26 -8 -9 -2 299 -323 -162 23 -3 -19 -5 -17 -6 -17 -7 -15 -9 -15 -10 -13 -11 -12 -13 -11 -13 -11 -16 -8 -16 -8 -18 -6 -20 -4 -20 -4 -22 -2 -24 0 -27 0 -26 2 -23 3 -21 4 -20 6 -17 6 -15 8 -13 8 -12 10 -9 10 -170 183 -4 -10 -5 -16 -4 -17 -3 -17 -2 -17 0 -18 0 -16 2 -16 2 -15 3 -16 5 -15 5 -14 6 -15 7 -14 8 -13 8 -13 9 -13 10 -12 11 -11 -668 720 0 -103 472 -509 -15 -8 -15 -7 -15 -6 -15 -5 -15 -4 -15 -2 -15 -2 -15 0 -14 0 -13 2 -12 2 -13 4 -12 4 -11 6 -11 7 -11 7 -11 9 -9 9 -235 254 0 -145 149 -160 14 -25 14 -23 13 -20 14 -19 13 -16 13 -14 -230 248 0 -162 1259 -1358 -31 32 -32 27 -34 24 -36 19 -37 15 -39 10 -40 7 -42 2 -20 -1 -19 -1 -19 -3 -19 -3 -18 -5 -18 -6 -17 -6 -14 -6 213 -230 16 -17 14 -20 12 -22 10 -26 9 -28 6 -31 5 -34 2 -37 1 -40 -1 -38 -2 -35 -5 -32 -7 -30 -9 -27 -10 -25 -13 -23 -14 -20 -16 -17 -17 -15 -17 -13 -19 -11 -19 -8 -21 -6 -21 -3 -22 -1 -24 1 -22 3 -21 6 -20 8 -19 10 -18 13 -17 15 -334 359 0 -194 242 -261 12 -18 13 -17 15 -16 -282 304 0 -396 -461 498 0 -9 -1 -35 -3 -33 -6 -31 -7 -28 -10 -27 -12 -24 -14 -23 -16 -20 -17 -18 -19 -16 -20 -14 -20 -10 -22 -9 -23 -6 -23 -4 -25 -1 -25 1 -24 4 -22 6 -22 9 -21 10 -20 14 -19 16 -17 18 -323 347 -3 -19 -5 -38 -3 -40 -1 -41 1 -32 3 -32 5 -32 7 -31 9 -31 11 -31 13 -30 15 -31 16 -29 19 -28 20 -25 21 -24 -600 647 0 -306 0 -36 -1 -34 -1 -29 -1 -26 -2 -23 -3 -19 -3 -16 -3 -12 -5 -10 -4 -10 -6 -9 -6 -8 -7 -8 -8 -7 -8 -7 -9 -7 -10 -5 -10 -5 -11 -4 -12 -4 -12 -3 -13 -1 -13 -2 -14 0 -16 0 -15 2 -16 2 -14 4 -15 4 -13 6 -14 6 -13 7 -12 9 -12 9 -11 10 -322 348 0 -177 258 -278 33 -35 -291 313 0 -326 2697 -2909 -134 122 -145 109 -156 94 -165 80 -174 64 -109 28 664 -717 102 -112 91 -121 79 -131 67 -138 53 -145 39 -151 24 -157 8 -162 0 -4600 -8 -161 -24 -157 -39 -152 -53 -145 -67 -138 -79 -130 -91 -122 -102 -112 -112 -102 -122 -91 -130 -79 -138 -67 -145 -53 -151 -39 -156 -24 -162 -8 -4601 0 -162 8 -157 24 -151 39 -145 53 -138 67 -131 79 -121 91 -113 102 -745 804 11 -68 46 -181 64 -173 80 -165 94 -156 109 -146 122 -134 -3758 4055 -67 -22 -117 -12 -139 0 -161 5 -183 4 -126 -2 -116 -3 -106 0 -98 5 -88 14 -79 28 -69 43 -61 63 -160 174 -2820 0 1124 -1213 -36 -18 -33 -15 -32 -15 -29 -14 -26 -14 -25 -15 -22 -15 -20 -18 -44 -53 960 -1036 -77 -35 -65 -32 -56 -32 -49 -34 -33 -27 998 -1077 -228 -95 -162 -157 -93 -198 -21 -215 54 -209 133 -180 -4376 4721 -24 -1 -89 -6 -84 -8 -81 -11 -74 -14 -68 -18 -59 -21 -47 -15 -33 -11 -22 -10 -16 -10 -13 -14 -16 -20 -20 -28 -31 -40 -18 -28 -15 -28 -14 -29 -12 -30 -11 -30 -10 -33 -10 -34 -9 -36 -14 -74 -5 -73 3 -71 13 -69 20 -66 28 -61 36 -56 42 -49 -9253 9983 0 386 0 354 0 362 0 262 0 334 0 371 0 91 0 28 0 430 0 41 0 45 0 77 0 313 0 436 25 0 94 0 337 0 787 0 403 0 305 0 271 0 23 0 401 0 630 0 61 0 28 0 137 0 237 0 59 0 15 0 68 0 385 0 280 0 2 0 23 0 57 0 365 0 52 0 178 0 32 0 176 0 142 0 108 0z"/>
   <g>
    <path fill="#003194" d="M26149 2596l-4600 0c-1043,0 -1891,847 -1891,1890l0 4602c0,1041 848,1889 1891,1889l4601 0c1042,0 1889,-848 1889,-1891l0 -4600c0,-1043 -847,-1890 -1890,-1890z"/>
    <path fill="#606062" d="M11580 16188c519,0 841,74 1064,-322 173,-346 25,-693 -297,-841l-50 -50c0,0 0,0 -24,0 321,-25 841,74 1064,-346 148,-322 24,-718 -421,-866 718,-50 2128,-25 2970,-25 396,0 618,74 891,-124 495,-371 173,-1089 -396,-1114 -1089,-24 -2376,25 -3514,0l-471 0c-668,0 -1361,0 -2029,0 -322,0 -693,25 -1015,0 -717,-49 -544,-816 -544,-1484 0,-347 0,-669 0,-1015 0,-619 -693,-916 -1089,-470 -223,247 -148,495 -148,866l0 6063c0,396 -25,619 222,792 273,223 446,148 842,173 470,0 2796,25 2994,-49 396,-174 693,-767 -25,-1163l-24 -25z"/>
    <path fill="#606062" d="M14599 3839c-569,49 -866,-124 -1139,322 -99,148 -99,445 0,594 124,173 198,222 421,321 -569,50 -841,-148 -1089,322 -173,297 -24,544 173,767 50,50 124,74 223,124 -519,25 -2128,0 -2771,0 -471,0 -916,-74 -1164,223 -123,123 -173,321 -123,519 24,99 49,174 99,248 99,124 49,99 198,148 297,124 965,75 1336,75l4182 0c75,0 50,-75 99,-174 149,-198 396,-148 743,-148 519,0 792,-99 866,322 891,99 668,866 668,1732 0,322 -49,916 74,1138 173,322 470,371 817,248 322,-99 322,-470 322,-866l0 -6633c-99,-618 -768,-519 -1312,-519 -817,0 -1609,0 -2425,0 -916,24 -891,1088 -198,1237z"/>
    <path fill="#003194" fill-rule="nonzero" d="M18405 14229l0 -1350 437 0c166,0 274,7 324,20 77,21 142,65 194,133 52,68 79,155 79,263 0,83 -16,152 -45,209 -31,56 -69,101 -115,133 -46,32 -93,53 -141,64 -65,13 -159,19 -282,19l-177 0 0 509 -274 0zm274 -1121l0 384 148 0c108,0 179,-7 215,-21 36,-15 64,-36 85,-67 20,-30 31,-65 31,-105 0,-50 -15,-90 -43,-122 -29,-32 -65,-52 -110,-60 -32,-6 -97,-9 -195,-9l-131 0zm1236 -229l0 501c84,-100 185,-150 301,-150 60,0 114,11 163,33 48,22 84,50 108,85 25,34 41,72 50,114 9,42 14,106 14,194l0 573 -258 0 0 -516c0,-102 -6,-167 -15,-195 -10,-28 -28,-50 -53,-66 -25,-16 -57,-24 -95,-24 -43,0 -82,10 -116,31 -34,21 -59,52 -75,95 -16,41 -24,104 -24,186l0 489 -258 0 0 -1350 258 0zm837 849c0,-86 21,-169 64,-250 42,-81 102,-142 180,-184 77,-43 164,-64 260,-64 148,0 269,48 363,144 95,97 142,218 142,365 0,148 -48,271 -143,369 -96,97 -216,146 -361,146 -89,0 -175,-21 -256,-61 -81,-41 -143,-100 -185,-179 -43,-78 -64,-174 -64,-286zm266 14c0,97 23,171 69,223 46,52 103,77 170,77 67,0 124,-25 170,-77 45,-52 68,-127 68,-225 0,-96 -23,-170 -68,-221 -46,-52 -103,-78 -170,-78 -67,0 -124,26 -170,78 -46,51 -69,126 -69,223zm1393 -491l0 205 -177 0 0 396c0,81 1,128 5,141 3,13 11,24 23,33 12,8 26,13 44,13 24,0 58,-8 104,-25l22 201c-60,26 -128,39 -204,39 -47,0 -89,-8 -126,-24 -37,-16 -65,-36 -82,-61 -18,-25 -30,-59 -36,-101 -6,-31 -9,-91 -9,-184l0 -428 -118 0 0 -205 118 0 0 -194 259 -153 0 347 177 0zm121 477c0,-86 21,-169 63,-250 42,-81 102,-142 180,-184 78,-43 164,-64 260,-64 148,0 269,48 363,144 95,97 142,218 142,365 0,148 -48,271 -143,369 -95,97 -215,146 -360,146 -90,0 -175,-21 -257,-61 -81,-41 -143,-100 -185,-179 -42,-78 -63,-174 -63,-286zm265 14c0,97 23,171 69,223 46,52 103,77 170,77 68,0 124,-25 170,-77 45,-52 68,-127 68,-225 0,-96 -23,-170 -68,-221 -46,-52 -102,-78 -170,-78 -67,0 -124,26 -170,78 -46,51 -69,126 -69,223zm854 212l260 -40c11,50 33,88 67,114 34,26 81,39 142,39 67,0 117,-12 151,-37 23,-17 34,-40 34,-69 0,-20 -6,-36 -18,-49 -13,-12 -42,-24 -87,-34 -209,-46 -341,-88 -397,-126 -78,-54 -116,-127 -116,-221 0,-85 33,-156 100,-214 67,-58 171,-87 311,-87 134,0 234,22 299,66 65,44 110,108 134,194l-243 45c-10,-38 -30,-68 -59,-88 -30,-20 -72,-30 -126,-30 -68,0 -117,9 -147,28 -20,14 -30,31 -30,53 0,18 9,34 26,47 24,17 104,41 243,73 138,31 234,69 289,115 54,46 81,110 81,193 0,89 -37,166 -112,231 -75,64 -186,97 -333,97 -133,0 -239,-27 -317,-81 -77,-54 -128,-127 -152,-219zm1395 -1075l0 501c84,-100 185,-150 301,-150 60,0 114,11 162,33 49,22 85,50 109,85 25,34 41,72 50,114 9,42 14,106 14,194l0 573 -259 0 0 -516c0,-102 -5,-167 -14,-195 -10,-28 -28,-50 -53,-66 -25,-16 -57,-24 -95,-24 -43,0 -82,10 -116,31 -34,21 -59,52 -75,95 -16,41 -24,104 -24,186l0 489 -258 0 0 -1350 258 0zm837 849c0,-86 21,-169 64,-250 42,-81 102,-142 180,-184 77,-43 164,-64 259,-64 148,0 269,48 364,144 95,97 142,218 142,365 0,148 -48,271 -143,369 -96,97 -216,146 -361,146 -89,0 -175,-21 -256,-61 -81,-41 -143,-100 -185,-179 -43,-78 -64,-174 -64,-286zm266 14c0,97 23,171 69,223 46,52 102,77 170,77 67,0 124,-25 169,-77 46,-52 69,-127 69,-225 0,-96 -23,-170 -69,-221 -45,-52 -102,-78 -169,-78 -68,0 -124,26 -170,78 -46,51 -69,126 -69,223zm938 -491l242 0 0 143c31,-49 73,-88 127,-119 53,-30 112,-45 177,-45 114,0 210,45 290,134 79,89 118,213 118,372 0,164 -40,291 -119,382 -80,90 -177,136 -291,136 -54,0 -103,-11 -147,-33 -43,-21 -90,-58 -138,-110l0 490 -259 0 0 -1350zm255 474c0,110 22,192 65,244 44,53 97,79 159,79 60,0 110,-24 150,-72 40,-49 59,-128 59,-238 0,-103 -20,-180 -61,-230 -41,-50 -92,-74 -152,-74 -64,0 -116,24 -158,73 -41,49 -62,122 -62,218zm-14158 2610l0 -850 -147 0 0 -128 147 0 0 -104c0,-66 6,-114 17,-146 16,-43 44,-78 84,-104 40,-27 96,-40 169,-40 46,0 98,5 154,16l-24 146c-35,-6 -67,-10 -98,-10 -50,0 -86,11 -107,32 -21,22 -31,62 -31,120l0 90 190 0 0 128 -188 0 0 850 -166 0zm422 -489c0,-181 50,-315 151,-402 84,-72 187,-108 308,-108 134,0 244,44 329,132 85,88 128,209 128,364 0,126 -19,225 -56,296 -38,72 -93,128 -165,168 -72,40 -151,60 -236,60 -137,0 -248,-44 -332,-131 -85,-88 -127,-214 -127,-379zm170 0c0,125 27,219 82,281 55,62 123,93 207,93 82,0 150,-31 205,-93 55,-63 82,-158 82,-286 0,-121 -27,-212 -82,-274 -55,-62 -124,-93 -205,-93 -84,0 -152,30 -207,92 -55,62 -82,156 -82,280zm939 489l0 -978 149 0 0 150c38,-70 73,-116 105,-138 33,-22 68,-33 107,-33 56,0 113,18 170,52l-59 154c-40,-23 -80,-34 -120,-34 -36,0 -69,11 -98,32 -28,22 -48,52 -61,91 -18,59 -27,123 -27,193l0 511 -166 0zm1174 0l0 -1350 510 0c89,0 158,5 205,13 66,11 122,32 167,63 45,31 81,75 108,130 28,56 41,117 41,184 0,114 -36,211 -110,291 -73,79 -205,119 -396,119l-346 0 0 550 -179 0zm179 -709l349 0c115,0 197,-21 246,-64 48,-43 72,-103 72,-182 0,-56 -14,-104 -42,-145 -29,-40 -67,-66 -113,-79 -30,-8 -86,-12 -167,-12l-345 0 0 482zm1058 709l0 -1350 165 0 0 486c77,-90 174,-135 292,-135 72,0 134,14 188,43 53,28 91,68 114,118 23,50 34,123 34,219l0 619 -166 0 0 -618c0,-83 -18,-143 -53,-181 -36,-38 -86,-57 -152,-57 -48,0 -94,13 -137,38 -43,26 -74,60 -92,104 -19,43 -28,103 -28,180l0 534 -165 0zm986 -489c0,-181 50,-315 151,-402 84,-72 187,-108 307,-108 135,0 245,44 330,132 85,88 128,209 128,364 0,126 -19,225 -57,296 -37,72 -92,128 -165,168 -71,40 -150,60 -236,60 -136,0 -247,-44 -332,-131 -84,-88 -126,-214 -126,-379zm169 0c0,125 28,219 83,281 54,62 123,93 206,93 83,0 151,-31 206,-93 55,-63 82,-158 82,-286 0,-121 -27,-212 -82,-274 -55,-62 -124,-93 -206,-93 -83,0 -152,30 -206,92 -55,62 -83,156 -83,280zm1302 341l22 147c-46,9 -88,14 -125,14 -60,0 -106,-9 -139,-28 -33,-19 -57,-44 -70,-75 -14,-31 -20,-97 -20,-196l0 -564 -123 0 0 -128 123 0 0 -242 166 -100 0 342 166 0 0 128 -166 0 0 573c0,47 2,78 8,91 6,14 15,25 29,33 13,8 32,12 56,12 18,0 43,-2 73,-7zm101 -341c0,-181 50,-315 151,-402 84,-72 187,-108 308,-108 134,0 244,44 329,132 85,88 128,209 128,364 0,126 -19,225 -56,296 -38,72 -93,128 -165,168 -72,40 -151,60 -236,60 -137,0 -248,-44 -332,-131 -85,-88 -127,-214 -127,-379zm170 0c0,125 27,219 82,281 55,62 123,93 207,93 82,0 151,-31 206,-93 54,-63 82,-158 82,-286 0,-121 -28,-212 -83,-274 -55,-62 -124,-93 -205,-93 -84,0 -152,30 -207,92 -55,62 -82,156 -82,280zm910 570l161 23c6,50 25,86 56,109 41,30 97,45 168,45 77,0 136,-15 178,-45 42,-31 70,-74 85,-129 9,-33 13,-104 12,-212 -73,85 -163,128 -271,128 -134,0 -239,-48 -312,-145 -74,-97 -111,-213 -111,-349 0,-93 17,-179 51,-258 34,-79 82,-140 147,-183 64,-43 139,-64 226,-64 115,0 210,47 285,141l0 -120 153 0 0 845c0,152 -16,260 -47,323 -31,64 -80,114 -147,151 -67,36 -150,55 -248,55 -116,0 -210,-26 -282,-78 -72,-53 -106,-131 -104,-237zm136 -587c0,128 25,221 76,280 52,59 115,89 192,89 76,0 140,-30 192,-88 51,-59 77,-150 77,-275 0,-120 -26,-210 -80,-271 -53,-60 -117,-90 -192,-90 -73,0 -136,30 -188,89 -51,60 -77,149 -77,266zm941 506l0 -978 149 0 0 150c38,-70 73,-116 106,-138 32,-22 68,-33 106,-33 56,0 113,18 171,52l-59 154c-40,-23 -81,-34 -121,-34 -36,0 -68,11 -97,32 -29,22 -49,52 -61,91 -19,59 -28,123 -28,193l0 511 -166 0zm1269 -122c-62,52 -121,89 -178,111 -57,21 -118,32 -183,32 -108,0 -190,-26 -248,-79 -58,-52 -87,-119 -87,-200 0,-48 11,-92 33,-131 22,-40 51,-71 86,-95 35,-24 75,-42 119,-54 33,-9 82,-17 148,-25 134,-16 233,-35 296,-57 0,-23 1,-37 1,-43 0,-67 -16,-115 -47,-142 -43,-38 -106,-56 -189,-56 -79,0 -136,13 -174,41 -37,27 -64,76 -82,145l-162 -22c14,-70 39,-126 73,-169 33,-42 82,-75 147,-98 63,-23 138,-35 222,-35 84,0 152,10 204,30 52,19 91,44 116,74 24,30 41,67 51,113 6,28 9,79 9,152l0 220c0,154 3,251 10,292 7,41 20,81 40,118l-173 0c-17,-35 -27,-76 -32,-122zm-13 -368c-61,25 -151,45 -272,62 -68,10 -117,21 -145,33 -28,12 -50,30 -65,54 -16,23 -23,49 -23,78 0,44 16,81 50,110 33,29 83,44 147,44 64,0 121,-14 170,-42 50,-28 87,-66 110,-114 18,-37 27,-92 27,-165l1 -60zm422 865l0 -1353 151 0 0 128c36,-49 76,-87 121,-112 44,-24 99,-37 163,-37 83,0 157,21 220,64 64,43 112,104 145,182 32,78 49,163 49,257 0,99 -18,189 -54,269 -36,80 -88,141 -156,184 -69,43 -141,64 -216,64 -55,0 -105,-12 -149,-35 -44,-23 -79,-52 -108,-88l0 477 -166 0zm151 -858c0,125 26,218 76,278 51,60 113,90 185,90 74,0 136,-31 188,-93 53,-62 79,-158 79,-289 0,-124 -25,-217 -77,-279 -51,-62 -112,-93 -183,-93 -70,0 -132,33 -186,99 -55,66 -82,161 -82,287zm898 483l0 -1350 166 0 0 486c77,-90 174,-135 291,-135 72,0 135,14 188,43 53,28 91,68 114,118 23,50 35,123 35,219l0 619 -166 0 0 -618c0,-83 -18,-143 -54,-181 -36,-38 -86,-57 -151,-57 -49,0 -95,13 -138,38 -43,26 -73,60 -92,104 -18,43 -27,103 -27,180l0 534 -166 0zm1716 -317l171 23c-27,100 -76,177 -149,232 -73,55 -166,83 -280,83 -142,0 -255,-44 -339,-132 -84,-88 -125,-211 -125,-370 0,-164 42,-291 126,-382 85,-91 194,-136 329,-136 131,0 237,44 320,133 82,89 124,214 124,375 0,10 0,25 -1,44l-729 0c7,107 37,190 91,247 55,57 123,85 204,85 61,0 113,-16 156,-48 43,-32 77,-83 102,-154zm-543 -265l545 0c-8,-83 -29,-144 -63,-185 -52,-64 -121,-96 -205,-96 -76,0 -140,25 -191,76 -52,51 -81,119 -86,205zm922 582l0 -978 149 0 0 150c38,-70 73,-116 105,-138 33,-22 68,-33 107,-33 56,0 113,18 171,52l-60 154c-40,-23 -80,-34 -120,-34 -36,0 -69,11 -97,32 -29,22 -49,52 -62,91 -18,59 -27,123 -27,193l0 511 -166 0zm564 -292l164 -26c9,65 35,116 77,151 42,35 101,52 176,52 76,0 133,-15 170,-46 37,-31 55,-68 55,-109 0,-38 -16,-67 -49,-89 -24,-14 -80,-33 -170,-56 -121,-30 -205,-57 -252,-79 -47,-23 -82,-53 -107,-93 -24,-39 -36,-83 -36,-131 0,-43 10,-84 30,-121 20,-37 47,-68 81,-92 26,-19 61,-35 105,-48 45,-13 92,-20 143,-20 77,0 144,11 202,33 58,22 101,52 129,90 27,38 46,89 56,152l-162 23c-7,-51 -28,-91 -64,-119 -35,-29 -84,-43 -149,-43 -75,0 -130,12 -162,37 -33,26 -49,55 -49,89 0,21 7,41 20,58 14,17 35,32 64,44 16,6 65,20 146,42 117,31 198,57 245,77 46,20 83,49 109,87 27,38 40,85 40,141 0,55 -16,107 -48,156 -33,49 -79,86 -140,113 -61,27 -130,40 -206,40 -127,0 -224,-26 -291,-79 -66,-53 -109,-131 -127,-234z"/>
    <path fill="#FEFEFE" d="M13127 8121c537,0 1024,218 1376,571 353,352 571,839 571,1377 0,538 -218,1025 -570,1377 -353,352 -840,570 -1377,570 -538,0 -1025,-218 -1377,-570 -353,-353 -571,-840 -571,-1377 0,-538 218,-1025 571,-1377 352,-353 839,-571 1377,-571z"/>
    <path fill="#1165BA" d="M27729 9086c0,873 -708,1580 -1580,1580l-4600 0c-873,0 -1580,-707 -1580,-1580l0 -4600c0,-872 707,-1580 1580,-1580l4601 0c871,0 1579,708 1579,1580l0 4600z"/>
    <path fill="#FEFEFE" fill-rule="nonzero" d="M21142 8798l0 -4136 1562 0c274,0 484,13 630,39 203,34 373,99 511,193 137,95 248,228 332,399 84,170 125,358 125,563 0,350 -112,648 -336,890 -223,244 -629,365 -1214,365l-1061 0 0 1687 -549 0zm549 -2172l1069 0c354,0 604,-66 754,-197 148,-132 222,-317 222,-557 0,-172 -43,-320 -131,-444 -88,-123 -203,-205 -346,-244 -92,-24 -262,-37 -510,-37l-1058 0 0 1479zm3038 1276l503 -80c28,201 107,355 236,463 129,106 310,160 541,160 234,0 407,-47 521,-142 112,-94 169,-206 169,-334 0,-115 -51,-205 -152,-271 -71,-45 -244,-102 -520,-172 -371,-93 -628,-174 -773,-243 -143,-69 -252,-163 -326,-285 -74,-120 -112,-254 -112,-400 0,-134 31,-257 92,-371 61,-113 144,-208 249,-283 79,-57 187,-107 322,-147 137,-40 283,-61 438,-61 235,0 441,34 619,102 178,68 309,160 393,276 84,116 143,271 174,466l-496 69c-22,-156 -88,-278 -196,-366 -108,-87 -260,-131 -457,-131 -232,0 -399,39 -498,116 -99,77 -149,167 -149,270 0,66 20,125 62,178 41,54 106,100 194,135 51,19 199,63 448,130 358,95 608,174 751,235 142,61 254,150 335,266 82,116 122,261 122,434 0,168 -49,327 -148,476 -99,150 -242,265 -428,347 -186,82 -397,122 -632,122 -389,0 -687,-81 -891,-241 -204,-162 -334,-401 -391,-718z"/>
    <g>
     <path fill="#FFA600" d="M14228 9580c-75,174 -99,248 -297,322 -347,149 -669,-247 -495,-594 49,-49 99,-99 173,-124 99,-49 198,-49 247,-74 -148,-148 -544,-297 -841,-272 -619,74 -1064,544 -1114,1138 -99,965 891,1683 1856,1139 644,-347 718,-1262 471,-1535z"/>
     <path fill="#FF4C00" fill-rule="nonzero" d="M13127 8121c537,0 1024,218 1376,571 353,352 571,839 571,1377 0,538 -218,1025 -570,1377 -353,352 -840,570 -1377,570 -538,0 -1025,-218 -1377,-570 -353,-353 -571,-840 -571,-1377 0,-538 218,-1025 571,-1377 352,-353 839,-571 1377,-571zm1169 779c-299,-299 -713,-484 -1169,-484 -457,0 -870,185 -1169,484 -300,299 -485,712 -485,1169 0,457 185,870 484,1169 300,299 713,484 1170,484 456,0 870,-185 1169,-484 299,-299 484,-713 484,-1169 0,-457 -185,-870 -484,-1169z"/>
    </g>
   </g>
   <path fill="#373435" fill-opacity="0.031373" d="M2082 17547c68,103 112,202 155,312 32,64 49,183 199,183 44,0 107,-14 163,-45 63,-33 111,-83 136,-159l60 -202 146 -72 10 10c-20,76 -25,149 -25,206 0,169 146,233 262,233 68,0 129,-33 129,-95 0,-80 -34,-216 -78,-338 68,-68 136,-136 214,-191l12 6c34,144 53,286 53,381 0,93 -41,196 -75,264 -70,132 -194,237 -344,237 -114,0 -241,-57 -328,-163l-5 0c-82,102 -209,194 -412,194l-63 0c-10,134 -39,229 -83,314 -121,237 -480,404 -818,404 -470,0 -706,-272 -706,-633 0,-223 73,-431 185,-578l92 38c-70,134 -117,261 -117,385 0,338 275,499 592,499 294,0 658,-187 724,-404 -25,-237 -114,-349 -250,-565 41,-72 94,-144 160,-221l12 0zm5421 -1274c99,62 196,136 291,220 -53,75 -119,143 -201,203 -95,-77 -190,-143 -287,-213 66,-74 131,-146 197,-210zm51 926c-160,0 -291,105 -291,183 0,167 320,219 703,217 -48,-196 -216,-400 -412,-400zm-359 895c208,0 390,-6 529,-41 155,-40 286,-118 286,-172 0,-14 0,-31 -5,-45 -87,8 -187,8 -274,8 -282,0 -498,-64 -583,-222 -21,-44 -36,-93 -36,-149 0,-153 66,-303 182,-406 97,-85 204,-138 313,-138 197,0 354,158 464,408 60,136 101,293 101,491 0,132 -36,243 -118,326 -153,148 -435,204 -867,204l-196 0 0 0 -51 0c-107,0 -184,-19 -245,-66l-10 0c3,25 5,49 5,72 0,97 -32,221 -97,320 -192,286 -400,410 -580,410 -182,0 -405,-70 -606,-161l36 -70c65,27 155,45 279,45 325,0 752,-313 805,-618 -12,-25 -34,-58 -65,-93 -95,-113 -155,-208 -211,-307 48,-95 92,-171 133,-240l17 -2c139,283 265,446 546,446l44 0 0 0 204 0zm-1408 299c24,-130 26,-276 26,-413l0 -202c0,-377 -48,-926 -87,-1283 68,-74 163,-160 238,-218l22 6c51,450 63,971 63,1452 0,126 -5,249 -17,340 -7,114 -73,200 -214,332l-31 -14zm-1449 -596c7,177 94,317 398,317 189,0 349,-49 526,-134 32,-14 49,-33 49,-49 0,-111 -85,-258 -228,-392 -139,-126 -323,-237 -495,-311 -59,-25 -78,-52 -78,-77 0,-51 68,-158 124,-235l19 -2c197,103 417,256 580,427 148,157 240,316 240,489 0,128 -39,249 -102,361 -216,109 -446,192 -674,192 -277,0 -466,-130 -466,-436 0,-33 0,-84 12,-150l95 0zm-501 -503l172 278c63,103 122,215 122,392l0 227c0,183 -117,379 -306,573 -148,132 -279,188 -400,188 -180,0 -386,-56 -624,-159l27 -70c75,20 162,37 269,37 342,-2 692,-252 852,-557 19,-35 26,-68 26,-91 0,-35 -19,-74 -34,-109 -87,-165 -184,-315 -291,-454 56,-88 112,-173 173,-257l14 2z"/>
  </g>
 </g>
</svg>
