<?xml version="1.0" encoding="UTF-8"?>
<!DOCTYPE svg PUBLIC "-//W3C//DTD SVG 1.0//EN" "http://www.w3.org/TR/2001/REC-SVG-20010904/DTD/svg10.dtd">
<!-- Creator: CorelDRAW 2017 -->
<svg xmlns="http://www.w3.org/2000/svg" xml:space="preserve" width="356px" height="200px" version="1.0" shape-rendering="geometricPrecision" text-rendering="geometricPrecision" image-rendering="optimizeQuality" fill-rule="evenodd" clip-rule="evenodd" viewBox="0 0 35600 20025" xmlns:xlink="http://www.w3.org/1999/xlink">
 <g id="Layer_x0020_1">
  <metadata id="CorelCorpID_0Corel-Layer"/>
  <g id="_3121280294560">
   <path fill="#E6E7E8" d="M0 0l35600 0 0 20025 -35600 0 0 -20025z"/>
   <path fill="#373435" fill-opacity="0.031373" d="M2082 17547c68,103 112,202 155,312 32,64 49,183 199,183 44,0 107,-14 163,-45 63,-33 111,-83 136,-159l60 -202 146 -72 10 10c-20,76 -25,149 -25,206 0,169 146,233 262,233 68,0 129,-33 129,-95 0,-80 -34,-216 -78,-338 68,-68 136,-136 214,-191l12 6c34,144 53,286 53,381 0,93 -41,196 -75,264 -70,132 -194,237 -344,237 -114,0 -241,-57 -328,-163l-5 0c-82,102 -209,194 -412,194l-63 0c-10,134 -39,229 -83,314 -121,237 -480,404 -818,404 -470,0 -706,-272 -706,-633 0,-223 73,-431 185,-578l92 38c-70,134 -117,261 -117,385 0,338 275,499 592,499 294,0 658,-187 724,-404 -25,-237 -114,-349 -250,-565 41,-72 94,-144 160,-221l12 0 0 0zm5421 -1274c99,62 196,136 291,220 -53,75 -119,143 -201,203 -95,-77 -190,-143 -287,-213 66,-74 131,-146 197,-210l0 0zm51 926c-160,0 -291,105 -291,183 0,167 320,219 703,217 -48,-196 -216,-400 -412,-400zm-359 895c208,0 390,-6 529,-41 155,-40 286,-118 286,-172 0,-14 0,-31 -5,-45 -87,8 -187,8 -274,8 -282,0 -498,-64 -583,-222 -21,-44 -36,-93 -36,-149 0,-153 66,-303 182,-406 97,-85 204,-138 313,-138 197,0 354,158 464,408 60,136 101,293 101,491 0,132 -36,243 -118,326 -153,148 -435,204 -867,204l-196 0 0 0 -51 0c-107,0 -184,-19 -245,-66l-10 0c3,25 5,49 5,72 0,97 -32,221 -97,320 -192,286 -400,410 -580,410 -182,0 -405,-70 -606,-161l36 -70c65,27 155,45 279,45 325,0 752,-313 805,-618 -12,-25 -34,-58 -65,-93 -95,-113 -155,-208 -211,-307 48,-95 92,-171 133,-240l17 -2c139,283 265,446 546,446l44 0 0 0 204 0 0 0zm-1408 299c24,-130 26,-276 26,-413l0 -202c0,-377 -48,-926 -87,-1283 68,-74 163,-160 238,-218l22 6c51,450 63,971 63,1452 0,126 -5,249 -17,340 -7,114 -73,200 -214,332l-31 -14zm-1449 -596c7,177 94,317 398,317 189,0 349,-49 526,-134 32,-14 49,-33 49,-49 0,-111 -85,-258 -228,-392 -139,-126 -323,-237 -495,-311 -59,-25 -78,-52 -78,-77 0,-51 68,-158 124,-235l19 -2c197,103 417,256 580,427 148,157 240,316 240,489 0,128 -39,249 -102,361 -216,109 -446,192 -674,192 -277,0 -466,-130 -466,-436 0,-33 0,-84 12,-150l95 0 0 0zm-501 -503l172 278c63,103 122,215 122,392l0 227c0,183 -117,379 -306,573 -148,132 -279,188 -400,188 -180,0 -386,-56 -624,-159l27 -70c75,20 162,37 269,37 342,-2 692,-252 852,-557 19,-35 26,-68 26,-91 0,-35 -19,-74 -34,-109 -87,-165 -184,-315 -291,-454 56,-88 112,-173 173,-257l14 2 0 0z"/>
   <path fill="#373435" fill-opacity="0.078431" d="M5452 20025l-43 0 -10 0 -43 0 -99 0 -78 0 -61 0 -44 0 -38 0 -6 0 -122 0 -24 0 -104 0 -175 0 -112 0 -21 0 -33 0 -85 0 -43 0 -146 0 -25 0 -240 0 -43 0 -27 0 -82 0 -3 0 -25 0 -449 0 -16 0 -253 0 -78 0 -24 0 -258 0 -113 0 -269 0 -102 0 -119 0 -252 0 -28 0 -121 0 -147 0 -76 0 -74 0 -118 0 -74 0 -125 0 -64 0 -79 0 -190 0 -78 0 -138 0 -43 0 -9 0 -423 0 0 -77 0 -40 0 -119 0 -800 12594 -16085 0 918 -2 29 -8 23 -12 17 -445 568 -8 51 0 112 16 110 33 107 50 100 13 17 422 -540 95 -67 98 -24 85 19 66 52 45 74 20 86 -11 87 -44 77 -401 512 127 30 158 11 184 -29 164 -83 135 -126 -780 996 0 190 253 0 488 -622 11 66 22 64 28 62 32 60 34 61 32 61 28 64 20 66 445 -207 -997 1273 78 0 -474 605 0 323 1214 -1550 12 66 21 64 29 61 32 61 34 61 32 61 28 63 20 66 445 -207 -3290 4201 3 30 6396 -8170 0 918 -20 57 -437 558 -17 185 15 132 41 122 52 85 426 -544 95 -67 100 -25 84 19 64 53 43 75 17 86 -12 87 -42 77 -398 508 121 30 165 13 120 -11 109 -31 99 -50 86 -66 74 -78 -785 1001 0 183 253 0 488 -622 11 66 22 64 28 62 32 60 34 61 32 61 28 64 20 66 445 -207 -997 1273 78 0 -474 605 0 323 1215 -1550 11 66 22 64 28 61 32 61 34 61 32 61 28 63 20 66 445 -207 -2421 3092 0 0 17 11 5514 -7042 0 918 -8 42 -20 30 -438 560 -7 190 44 191 67 118 421 -537 95 -67 98 -24 84 19 67 52 44 74 20 86 -11 87 -44 77 -400 512 17 7 267 34 118 -11 107 -31 98 -50 86 -65 74 -78 -779 995 0 188 253 0 487 -622 12 66 21 64 28 62 33 60 33 61 32 61 28 64 20 66 445 -207 -997 1273 79 0 -474 605 0 323 1214 -1550 11 66 22 64 28 61 33 61 33 61 32 61 28 63 20 66 445 -207 -1749 2234 80 -16 145 4 98 24 1248 -1595 11 67 22 64 28 61 32 61 34 61 32 61 28 63 20 66 445 -207 -1416 1808 8 35 10 79 4 71 6 64 14 57 30 50 52 44 81 40 75 28 64 28 56 27 49 28 43 33 40 37 38 44 38 53 66 123 40 128 16 128 -7 127 -28 122 -48 115 -65 105 -795 1017 0 200 -371 474 79 0 765 -977 171 -29 168 -75 160 -112 145 -141 -1045 1334 639 0 -1 1422 -371 474 845 0 0 948 -371 473 608 0 52 -4 46 -12 40 -21 35 -27 -3067 3916 -121 0 -326 0 -117 0 -165 0 -340 0 -103 0 -299 0 -72 0 -774 0 -676 0 -74 0 -280 0 -83 0 -9 0 -11 0 -268 0 -103 0 -92 0 -155 0 -124 0 -103 0 -137 0 -79 0 -157 0 -239 0 -253 0 -147 0 -230 0 -262 0 -56 0 -73 0 -5 0 -395 0 -131 0 -18 0 -52 0 -3 0 -227 0 -534 0 -68 0 -290 0 -42 0 -62 0 -155 0 -26 0 -39 0 -113 0 -22 0 -140 0 -73 0 -33 0 -50 0 -19 0 -1 0 -77 0 -32 0 -27 0 -15 0 -118 0 -102 0 -33 0 -79 0 -24 0 -235 0 -23 0 -24 0 -56 0 -33 0 -142 0 -63 0 -63 0 -70 0 -33 0 -118 0 -32 0 -101 0 -120 0 -28 0 0 0 -42 0 -20 0 -41 0 -17 0 -5 0 -82 0 -61 0 -2 0 -73 0 -75 0 -56 0 -62 0 -73 0 -72 0 -21 0 -33 0 -64 0 -78 0 -175 0 -15 0 -16 0 -13 0 -1 0 -48 0 -139 0 -43 0 -8 0 -44 0 -28 0 -31 0 -223 0 -161 0 -29 0 -13 0 -84 0 -10 0 -305 0 -106 0 -201 0 -25 0 -23 0 -225 0 -34 0 -111 0 -2 0 -81 0 -339 0 -52 0 -2 0 -15 0 -37 0 -59 0 -13 0 -96 0 -48 0 -51 0 -8 0 -20 0 -23 0 -1 0 -82 0 -8 0 -168 0 -32 0 -27 0 -54 0 -8 0 -93 0 -16 0 -59 0 -8 0 -84 0 -103 0 -21 0 -69 0 -28 0 -106 0 -63 0 -53 0 -31 0 -28 0 -115 0 -123 0 -30 0 -55 0 -20 0 -19 0 -56 0 -12 0 -35 0 -31 0 -40 0 -73 0 -86 0 -28 0 -15 0 -61 0 -37 0 -41 0 -15 0 -175 0 -17 0 -62 0 -24 0 -12 0 -29 0 -44 0 -28 0z"/>
   <g>
    <path fill="#010100" d="M21362 16173l1895 0 1 474 -1896 1 0 -475zm-9005 297l1 -296 1895 -1 0 474 -1896 0 0 -177zm-1184 -1629l-1 -89 13270 0 0 948 -13269 -1 0 -858zm10426 -1985l2370 0 -1 1422 -2369 0 0 -1422zm-4976 89l0 -89 2369 0 0 1422 -2369 0 0 -1333zm-4739 0l-1 -89 2370 0 0 1422 -2370 0 1 -1333zm10426 -800l0 -268c243,-49 306,-124 474,-199 165,76 233,150 473,200l1 504 -949 0 1 -237zm280 -3054c420,-128 769,146 868,455 80,247 -43,394 218,493 214,81 302,124 403,278 424,643 -331,1575 -1132,864 -307,-273 -395,329 -984,246 -358,-51 -643,-373 -595,-789 68,-595 575,-528 675,-714 79,-147 -50,-650 547,-833zm-6442 684l178 0c907,0 1242,580 1245,1422 -843,-2 -1423,-337 -1423,-1244l0 -178zm1896 1422c1,-534 38,-777 342,-1080 303,-304 546,-341 1080,-342 0,535 -38,778 -341,1081 -303,303 -546,341 -1081,341zm-5687 1185c0,-966 -28,-555 -440,-864 -370,-278 -403,-992 192,-1220 258,-99 222,-112 257,-397 98,-799 1307,-799 1404,0 35,284 -6,301 258,396 568,205 575,937 191,1222 -413,306 -441,-100 -441,862l-473 1 6 -1060 594 -380c-62,-170 -178,-257 -233,-410 -130,42 -254,148 -364,210l-3 -492 -472 0 -12 492c-107,-65 -217,-166 -358,-211 -55,154 -171,240 -226,402l594 383 0 1066 -474 0zm8531 -1748l0 178c0,480 496,1057 948,1067l0 503c-356,0 -711,-73 -711,237l0 1659 -1659 0 0 -1659c0,-143 -94,-237 -237,-237l-1185 0 0 -711 356 0c790,0 1540,-750 1540,-1540 0,-938 109,-829 -829,-829 -307,0 -572,124 -770,237 -290,166 -422,428 -534,503l-300 -321c-528,-485 -982,-419 -1655,-419 -255,0 -177,516 -177,829 0,804 783,1540 1481,1540l414 0 0 711 -1244 0c-71,0 -177,106 -177,178l0 1718 -1422 0 0 -1659c0,-282 -279,-237 -474,-237 0,-451 -45,-258 238,-473 84,-65 155,-130 228,-216 414,-489 305,-1340 -276,-1723 -185,-122 -163,-30 -226,-277 -105,-407 -541,-865 -1060,-865l-178 0c-518,0 -955,458 -1060,865 -82,320 -76,94 -458,489 -450,465 -415,1360 307,1812 136,85 115,-14 115,388 -123,0 -474,-45 -474,178l0 1718c-890,0 -710,-216 -710,1658 0,144 93,237 237,237l947 0c0,505 -94,948 237,948l2429 0c264,0 178,-578 178,-948l6161 0c0,311 -80,948 178,948l2428 0c332,0 237,-443 237,-948l948 0c144,0 237,-93 237,-237l0 -1481c0,-209 -353,-177 -474,-177l0 -1718c0,-238 -496,-178 -711,-178l0 -503c452,-10 948,-587 948,-1067 0,-462 -140,-828 -520,-1079 -185,-122 -163,-30 -227,-277 -104,-407 -541,-865 -1060,-865l-177 0c-519,0 -956,458 -1060,865 -87,339 -122,110 -458,490 -140,158 -289,401 -289,688z"/>
    <path fill="#C3BDB7" d="M11173 15699l13269 1 0 -948 -13270 0 1 89 0 858z"/>
    <path fill="#48804C" d="M22590 9091c-597,183 -468,686 -547,833 -100,186 -607,119 -675,714 -48,416 237,738 595,789 589,83 677,-519 984,-246 801,711 1556,-221 1132,-864 -101,-154 -189,-197 -403,-278 -261,-99 -138,-246 -218,-493 -99,-309 -448,-583 -868,-455z"/>
    <path fill="#8EB588" d="M12357 12382l474 0 0 -1066 -594 -383c55,-162 171,-248 226,-402 141,45 251,146 358,211l12 -492 472 0 3 492c110,-62 234,-168 364,-210 55,153 171,240 233,410l-594 380 -6 1060 473 -1c0,-962 28,-556 441,-862 384,-285 377,-1017 -191,-1222 -264,-95 -223,-112 -258,-396 -97,-799 -1306,-799 -1404,0 -35,285 1,298 -257,397 -595,228 -562,942 -192,1220 412,309 440,-102 440,864z"/>
    <path fill="#C0DBE4" d="M13305 13567l474 0 0 474 -474 0 0 -474zm0 0l-474 0 0 -474 474 -1 0 475zm-1422 711l2370 0 0 -1422 -2370 0 1 89 -1 1333z"/>
    <path fill="#C0DBE4" d="M23021 13567l0 474 -474 0 0 -474 474 0zm0 0l0 -474 473 0 1 474 -474 0zm-1422 711l2369 0 1 -1422 -2370 0 0 1422z"/>
    <path fill="#C0DBE4" d="M17570 13567l474 0 0 474 -474 0 0 -474zm474 0l0 -474 474 -1 0 475 -474 0zm-474 0l-474 0 1 -474 473 0 0 474zm-947 711l2369 0 0 -1422 -2369 0 0 89 0 1333z"/>
    <path fill="#010100" d="M17725 4350c286,-136 431,318 176,427 -261,113 -496,-275 -176,-427zm-155 -528c0,179 -474,88 -474,800 0,362 312,651 771,651 669,0 899,-976 331,-1309 -75,-44 -154,-52 -154,-142l0 -918 -474 0 0 918z"/>
    <path fill="#010100" d="M22701 4349c276,-132 448,312 177,428 -262,112 -497,-275 -177,-428zm-154 -527c0,131 -159,87 -302,261 -347,419 -191,1190 598,1190 654,0 909,-971 331,-1309 -75,-44 -153,-52 -153,-142l0 -918 -474 0 0 918z"/>
    <path fill="#010100" d="M12748 4349c276,-132 449,312 177,428 -261,113 -496,-276 -177,-428zm-154 -527c0,89 -59,88 -135,132 -551,315 -457,1319 432,1319 515,0 877,-668 492,-1174 -334,-439 -315,325 -315,-1195l-474 0 0 918z"/>
    <path fill="#90B96B" d="M18044 11197c535,0 778,-38 1081,-341 303,-303 341,-546 341,-1081 -534,1 -777,38 -1080,342 -304,303 -341,546 -342,1080z"/>
    <path fill="#90B96B" d="M16148 9953c0,907 580,1242 1423,1244 -3,-842 -338,-1422 -1245,-1422l-178 0 0 178z"/>
    <path fill="#907966" d="M21362 16648l1896 -1 -1 -474 -1895 0 0 475z"/>
    <path fill="#907966" d="M12357 16647l1896 0 0 -474 -1895 1 -1 296 0 177z"/>
    <path fill="#8EB588" d="M22309 12382l949 0 -1 -504c-240,-50 -308,-124 -473,-200 -168,75 -231,150 -474,199l0 268 -1 237z"/>
    <path fill="#010100" d="M15704 7791l439 218c48,-191 198,-333 213,-514l-439 -218c-47,191 -198,332 -213,514z"/>
    <path fill="#010100" d="M10728 7791l439 218c48,-191 198,-333 213,-514l-439 -218c-48,191 -198,332 -213,514z"/>
    <path fill="#010100" d="M20681 7791l439 218c47,-191 197,-333 212,-514l-439 -218c-47,191 -197,332 -212,514z"/>
    <path fill="#010100" d="M11676 5895l439 218c47,-191 198,-332 213,-514l-439 -218c-48,191 -198,333 -213,514z"/>
    <path fill="#010100" d="M16652 5895l439 218c47,-191 198,-332 213,-514l-439 -218c-47,191 -198,333 -213,514z"/>
    <path fill="#010100" d="M21154 6843l440 218c47,-191 197,-332 212,-514l-439 -218c-47,191 -197,332 -213,514z"/>
    <path fill="#010100" d="M21628 5895l439 218c48,-191 198,-332 213,-514l-439 -218c-47,191 -197,333 -213,514z"/>
    <path fill="#010100" d="M16178 6843l439 218c48,-191 198,-332 213,-514l-439 -218c-47,191 -198,332 -213,514z"/>
    <path fill="#010100" d="M11202 6843l439 218c47,-191 198,-332 213,-514l-439 -218c-48,191 -198,332 -213,514z"/>
    <path fill="#010100" d="M24235 7494c15,182 165,324 207,504l445 -207c-16,-182 -166,-323 -208,-504l-444 207z"/>
    <path fill="#010100" d="M18311 5599c15,182 165,323 207,504l445 -207c-16,-182 -166,-324 -208,-504l-444 207z"/>
    <path fill="#010100" d="M13808 6547c16,182 166,323 208,503l445 -207c-16,-182 -166,-323 -208,-503l-445 207z"/>
    <path fill="#010100" d="M13335 5599c15,182 165,323 207,504l445 -207c-16,-182 -166,-324 -208,-504l-444 207z"/>
    <path fill="#010100" d="M19259 7494c15,182 165,324 207,504l445 -207c-16,-182 -166,-323 -208,-504l-444 207z"/>
    <path fill="#010100" d="M14282 7494c16,182 166,324 208,504l444 -207c-15,-182 -165,-323 -207,-504l-445 207z"/>
    <path fill="#010100" d="M23761 6547c15,182 165,323 207,503l445 -207c-15,-182 -166,-323 -208,-503l-444 207z"/>
    <path fill="#010100" d="M18785 6547c15,182 165,323 207,503l445 -207c-16,-182 -166,-323 -208,-503l-444 207z"/>
    <path fill="#010100" d="M23287 5599c15,182 165,323 207,504l445 -207c-15,-182 -166,-324 -208,-504l-444 207z"/>
    <path fill="#010100" d="M18044 13567l-474 0 0 474 474 0 0 -474z"/>
    <path fill="#010100" d="M18044 13567l474 0 0 -475 -474 1 0 474z"/>
    <path fill="#010100" d="M23021 13567l474 0 -1 -474 -473 0 0 474z"/>
    <path fill="#010100" d="M13305 13567l0 474 474 0 0 -474 -474 0z"/>
    <path fill="#010100" d="M13305 13567l0 -475 -474 1 0 474 474 0z"/>
    <path fill="#010100" d="M23021 13567l-474 0 0 474 474 0 0 -474z"/>
    <path fill="#010100" d="M17570 7169l474 0 0 -474 -474 0 0 474z"/>
    <path fill="#010100" d="M17570 8117l474 0 0 -474 -474 0 0 474z"/>
    <path fill="#010100" d="M22547 7169l474 0 0 -474 -474 0 0 474z"/>
    <path fill="#010100" d="M12594 7169l474 0 0 -474 -474 0 0 474z"/>
    <path fill="#010100" d="M12594 8117l474 0 0 -474 -474 0 0 474z"/>
    <path fill="#010100" d="M22547 8117l474 0 0 -474 -474 0 0 474z"/>
    <path fill="#010100" d="M17570 6221l474 0 0 -474 -474 0 0 474z"/>
    <path fill="#010100" d="M12594 6221l474 0 0 -474 -474 0 0 474z"/>
    <path fill="#010100" d="M22547 6221l474 0 0 -474 -474 0 0 474z"/>
    <path fill="#010100" d="M17570 13567l0 -474 -473 0 -1 474 474 0z"/>
    <path fill="#FAD481" d="M12748 4349c-319,152 -84,541 177,428 272,-116 99,-560 -177,-428z"/>
    <path fill="#FAD481" d="M22701 4349c-320,153 -85,540 177,428 271,-116 99,-560 -177,-428z"/>
    <path fill="#FAD481" d="M17725 4350c-320,152 -85,540 176,427 255,-109 110,-563 -176,-427z"/>
   </g>
  </g>
 </g>
</svg>