<?xml version="1.0" encoding="UTF-8"?>
<!DOCTYPE svg PUBLIC "-//W3C//DTD SVG 1.0//EN" "http://www.w3.org/TR/2001/REC-SVG-20010904/DTD/svg10.dtd">
<!-- Creator: CorelDRAW X8 -->
<svg xmlns="http://www.w3.org/2000/svg" xml:space="preserve" width="51px" height="50px" version="1.0" shape-rendering="geometricPrecision" text-rendering="geometricPrecision" image-rendering="optimizeQuality" fill-rule="evenodd" clip-rule="evenodd"
viewBox="0 0 592 582"
 xmlns:xlink="http://www.w3.org/1999/xlink">
 <g id="Layer_x0020_1">
  <metadata id="CorelCorpID_0Corel-Layer"/>
  <g id="_2627754450864">
   <path fill="#2B597A" d="M65 137l4 -5c4,-6 8,-12 13,-18 2,-3 5,-5 7,-8 2,-2 6,-5 7,-7l7 -7c3,-4 8,-8 12,-11 5,-4 9,-7 13,-10 9,-6 17,-12 26,-17 20,-10 35,-16 54,-22 6,-2 13,-3 17,-5 3,-1 13,-2 17,-3 31,-6 63,-6 96,-1 60,10 129,49 169,98 3,4 14,18 15,20 2,2 4,6 5,8 2,2 5,6 5,9 1,0 3,3 3,4 2,3 7,13 9,17l1 3c1,1 5,11 6,13 4,9 6,16 9,26 1,4 2,9 3,13 3,9 4,17 6,27 1,4 1,9 2,14 0,4 0,9 1,14l0 16c0,9 -3,45 -6,49l0 2c-3,11 -6,18 -8,28 -9,21 -12,30 -25,51 -9,14 -20,31 -32,43l-6 6c-2,2 -7,8 -9,8 -1,3 -16,15 -19,17 -14,10 -27,18 -42,26l-17 7c-1,0 -4,2 -5,2 -1,0 -4,1 -5,2 -1,0 -3,1 -4,1 -2,1 -8,3 -11,4 -4,1 -8,2 -12,3 -2,0 -3,0 -5,1l-18 4c-3,0 -6,1 -10,1 -18,3 -30,3 -50,3 -70,-3 -143,-38 -191,-89 -11,-11 -19,-21 -28,-33 -4,-6 -12,-19 -15,-26l-5 -9c-1,-2 -3,-7 -4,-10l-4 -9c-2,-2 -6,-15 -7,-18 -1,-3 -2,-6 -3,-9 -8,-28 -12,-57 -11,-86 0,-7 2,-36 5,-41 0,-1 1,-4 1,-6 0,-2 1,-4 1,-6 1,-4 2,-8 4,-11 2,-9 5,-16 8,-24 8,-18 15,-32 26,-49zm272 443c1,0 8,-1 10,-1l27 -6c2,-1 10,-2 13,-3 6,-2 11,-3 18,-6l18 -7c41,-18 79,-46 108,-84 3,-4 6,-8 9,-13 2,-2 8,-13 9,-14l10 -17c1,-3 23,-40 30,-92l3 -28 0 -9c0,0 0,0 0,0l0 -2c0,-1 0,-2 0,-2 0,-2 0,-3 -1,-5 0,-9 -1,-19 -2,-28 -2,-13 -4,-22 -7,-35 -1,-4 -2,-7 -3,-11l-3 -10c0,0 -1,1 0,-1 -1,-2 -1,-3 -2,-6l-6 -16c-1,-1 0,0 -1,-1l-6 -13c-16,-35 -42,-69 -72,-94 -40,-34 -90,-59 -139,-70 -23,-5 -46,-7 -67,-6 -14,1 -32,2 -46,5 -44,9 -87,25 -123,52l-7 5 -16 14c-5,5 -10,10 -15,15 -33,36 -56,81 -68,126 -4,14 -6,28 -7,41 -1,7 -1,14 -1,20 0,7 0,13 0,19 2,26 7,50 14,74 1,2 2,4 2,6 2,5 3,9 6,16 15,38 37,72 67,101 54,52 128,85 201,88 8,1 16,1 24,0l23 -2z"/>
   <path fill="#2B597A" d="M508 164l-5 -7c-3,1 -10,6 -12,7l0 0c0,0 0,0 0,0 -2,2 -9,5 -11,7 3,4 12,21 14,23l23 -14c0,-2 -9,-14 -9,-16z"/>
   <path fill="#2B597A" d="M422 477l-22 13c2,2 7,12 10,16l1 2c2,1 2,3 4,5l22 -13c0,-2 -11,-20 -13,-23l-2 0c0,0 0,0 0,0z"/>
   <path fill="#2B597A" d="M547 306l-1 -27c-2,0 -10,0 -13,0 -2,0 -4,0 -7,0 -2,0 -5,0 -7,0 0,1 0,25 1,27l27 0z"/>
   <path fill="#2B597A" d="M74 403c1,1 4,6 5,8 1,2 5,7 5,9 2,1 3,4 4,5l23 -12c-1,-3 -14,-23 -14,-24 -1,0 -5,3 -6,3 -4,3 -15,9 -17,11z"/>
   <path fill="#2B597A" d="M154 83c1,2 13,23 15,24l22 -14 -14 -23 -23 13z"/>
   <path fill="#2B597A" d="M304 64c0,-1 0,-1 0,-1l0 -5c0,-2 0,-4 0,-6l0 -8c-4,0 -10,0 -13,0 -2,0 -3,0 -4,0 -1,0 -2,0 -3,0 -2,0 -5,0 -7,0 0,2 0,25 1,27 2,0 4,0 7,0 2,0 4,0 6,0 3,0 4,0 7,0 2,0 5,0 6,0 0,-2 0,-6 0,-7z"/>
   <path fill="#2B597A" d="M315 536l-1 -23c-2,-1 -26,-1 -27,-1l1 25 0 1c1,1 26,1 27,1l0 -3z"/>
   <path fill="#2B597A" d="M71 303c1,-1 0,-10 0,-13 0,-1 0,-12 0,-13 -2,0 -25,0 -27,0l1 26 26 0z"/>
   <path fill="#2B597A" d="M522 404l-23 -13 -13 23 24 13c2,-3 12,-20 12,-23z"/>
   <path fill="#2B597A" d="M106 168l-24 -13 -12 23 23 13 12 -21 1 -2z"/>
   <path fill="#2B597A" d="M428 85l-23 -13 -13 22 23 13 13 -22z"/>
   <path fill="#2B597A" d="M415 107l-23 -13 13 -22 23 13 -13 22zm0 1c2,-2 12,-20 14,-23 -3,-2 -22,-13 -24,-14l-13 23 23 14z"/>
   <path fill="#2B597A" d="M105 170l-12 21 -23 -13 12 -23 24 13 -1 2zm1 -1c-2,-2 -20,-12 -24,-14l-13 23 24 14 13 -23z"/>
   <path fill="#2B597A" d="M522 404c0,3 -10,20 -12,23l-24 -13c1,1 2,1 3,2l21 12 12 -22c1,-2 1,-1 0,-2z"/>
   <path fill="#2B597A" d="M296 280c6,0 11,5 11,11 0,6 -5,11 -11,11 -6,0 -11,-5 -11,-11 0,-6 5,-11 11,-11z"/>
   <path fill="none" stroke="#718FC8" stroke-width="24.2699" d="M296 280c6,0 11,5 11,11 0,6 -5,11 -11,11 -6,0 -11,-5 -11,-11 0,-6 5,-11 11,-11z"/>
   <path fill="#2B597A" fill-rule="nonzero" d="M121 392l23 -35 6 10 139 -80 0 -170 -12 0 19 -38 19 38 -11 0 0 178 -4 3 -143 82 6 10 -42 2z"/>
   <path fill="#2B597A" d="M174 477l21 13c-2,2 -7,12 -9,16l-2 2c-1,1 -2,3 -3,5l-23 -13c1,-2 12,-20 14,-23l1 0c0,0 0,0 1,0z"/>
  </g>
 </g>
</svg>
