<svg xmlns="http://www.w3.org/2000/svg" xml:space="preserve" width="350" height="200" version="1" shape-rendering="geometricPrecision" text-rendering="geometricPrecision" image-rendering="optimizeQuality" fill-rule="evenodd" clip-rule="evenodd" viewBox="0 0 35000 19994"><path fill="#FFE8A8" fill-rule="nonzero" d="M35000 19994H0V0h35000v19994z"/><path fill="#373435" fill-opacity=".102" d="M23261 5932l-194 215h6l17-1 17-1 17-2 16-3 16-4 16-5 15-5 15-6 22-11 21-11 20-13 20-14 18-15 18-16 17-18-323 360h418l11 2 11 3 11 3 11 5 9 6 10 7 8 8 8 8 7 10 6 9 5 11 4 11 2 11 2 11 1 12v3830h195l12 1 11 1 11 3 11 4 10 5 10 6 9 7 9 7 8 9 7 9 5 10 5 10 4 11 3 11 2 12v844l-2 11-3 11-4 11-5 10-5 10-7 9-8 9-278 310v2382l-1 12-2 11-2 11-4 11-5 10-6 10-7 9-8 9-663 738h2496v640l-18 122-50 113-77 104-295 328 61-24 72-35 69-40 65-45 30-24 30-26 28-27 27-28-3660 4073H0v-1345L13377 3763v874l469-522h586v234l-386 430h102l597-664h664v234l-386 430h180l597-664h508v234l-386 430h5364l380-423-7 9-11 13-9 14-8 14-8 15-7 14-6 15-5 15-5 15-3 15-4 15-3 15-2 16-1 15-2 15v15l-1 16v21l177-197 28-20 33-13 38-5h1108l105-117v117l42 5 41 13 39 20 36 27 30 32 23 36 15 39 5 42v1213l-5 41-15 39-23 37z"/><g fill-rule="nonzero"><path fill="#6D6E71" d="M24203 6341c0-332-194-507-526-507H11982c-331 0-560 175-560 507v8522h12781V6341z"/><path fill="#F1F2F2" d="M10289 14863v640c0 331 427 610 809 610h13464c382 0 775-279 775-610v-640H10289z"/><path fill="#231F20" d="M10289 14863h-117v640c0 109 35 210 91 298 83 132 212 237 358 311 146 75 312 118 477 119h13464c220-1 435-78 602-205 83-64 155-140 206-228 52-88 84-189 84-295v-640c0-31-13-61-35-83-21-22-52-34-82-34H10289c-31 0-61 12-83 34s-34 52-34 83h117v117h14930v523c0 60-17 118-51 176-50 86-139 168-248 225-109 58-236 92-358 92H11098c-82 0-168-15-251-42-124-42-239-112-319-194-40-41-71-84-91-128-20-43-31-86-31-129v-640h-117v117-117z"/><path fill="#FFCB31" d="M12243 14042h11178V6499H12243v7543z"/><path fill="#231F20" d="M23421 14042v-117H12361V6616h10943v7426h117v-117 117h118V6499c0-31-13-61-35-83s-52-34-83-34H12243c-31 0-61 12-83 34-21 22-34 52-34 83v7543c0 31 13 61 34 83 22 22 52 34 83 34h11178c31 0 61-12 83-34s35-52 35-83h-118zM17129 15684h1407v-235h-1407v235z"/><path fill="#D1D3D4" d="M12947 12818v-649c78-37 228-86 340-145l453 458c43 44 111 44 155 0l656-657c43-44 42-114-1-157l-459-411c59-111 107-224 145-303h649c61 0 55-147 55-208v-930c0-61 6-151-55-151h-649c-38-118-86-220-146-332l459-448c43-44 43-109 0-153l-658-654c-43-44-113-43-157 1l-447 459c-112-59-262-107-340-145v-649c0-61-73-151-134-151h-930c-61 0-148 90-148 151v649c-117 38-222 87-332 146l-450-459c-44-44-110-44-153 0l-656 657c-43 44-42 114 2 158l459 438c-59 112-108 214-145 332h-648c-62 0-148 90-148 151v930c0 61 86 208 148 208h648c37 79 87 192 146 303l-459 435c-44 43-44 102 0 145l657 651c44 44 115 41 158-3l441-460c110 59 215 107 332 144v649c0 61 87 52 148 52h930c61 0 134 9 134-52z"/><path fill="#231F20" d="M12947 12818h117v-649h-117l50 106c16-7 38-17 64-27 39-16 86-34 134-54 49-20 100-42 147-67l-55-103-84 82 453 459h1c43 44 102 67 160 67 59 0 117-23 161-67l656-657h-1c45-44 67-104 67-161 0-59-23-118-68-163l-4-4-459-410-78 87 103 55c62-116 112-233 148-307l-106-51v118h649c26 0 54-8 76-21 20-11 34-26 45-40 19-25 28-47 34-68 10-31 13-60 15-87s2-53 2-74v-966-32c0-15 0-33-1-52-2-15-4-31-8-48-6-25-17-56-45-86-14-15-33-29-54-38s-44-13-64-13h-649v118l112-36c-41-127-93-237-154-351l-104 55 82 84 459-449h1c43-43 67-101 67-159 0-59-24-117-67-159v-1l-658-654h1c-44-44-103-67-161-67-59 0-119 24-163 68l-1 1-447 459 84 82 55-103c-63-34-132-62-195-87-31-12-60-23-86-34-26-10-48-19-63-27l-51 106h117v-649c0-38-10-69-23-98-19-42-46-78-82-109-17-16-37-30-61-41s-52-20-85-20h-930c-44 0-78 14-106 30-43 24-77 56-105 93-14 19-27 40-37 63-9 23-17 50-17 82v649h117l-36-112c-126 41-238 93-352 155l56 103 83-82-450-459c-42-44-101-68-160-68-58 0-117 24-159 68v-1l-656 658c-44 44-66 103-66 160 0 59 23 118 68 163l2 2 459 438 81-85-103-55c-61 114-113 224-154 351l112 36v-118h-648c-45 1-78 15-107 30-43 25-77 57-105 95-14 19-26 39-36 62-10 24-17 50-18 82v930c0 21 4 38 8 55 7 28 18 55 31 81 20 40 44 78 76 113 16 17 33 33 56 48 12 7 25 14 40 19 16 6 34 10 55 10h648v-118l-106 51c36 75 86 191 149 307l103-55-81-85-459 435-2 2c-20 20-37 44-49 70-12 27-18 56-18 85 0 30 6 59 18 85 12 27 29 51 49 71l658 652-1-1c44 44 103 66 159 66 61 0 120-24 165-69l1-1 441-461-84-81-56 103c115 62 227 113 353 153l35-112h-117v649c0 16 2 33 7 51 10 30 30 58 53 75 16 14 33 22 48 28 23 8 43 11 61 13s34 2 49 2h1022c14 0 30 0 48-2 13-2 28-4 45-10 12-4 26-10 40-19 20-13 42-34 55-60s18-54 18-78h-235 57l-54-15c-2 7-3 12-3 15h57l-54-15 74 20-52-56c-11 9-20 25-22 36l74 20-52-56 46 50-27-63c-4 2-12 6-19 13l46 50-27-63 15 35-9-37-6 2 15 35-9-37 2 6-1-6h-1l2 6-1-6c-1 0-10 1-22 1s-27-1-45-1h-930c-18 0-34 1-47 1-11 0-20 0-25-1l-4-1h-1l-3 11 4-11h-1l-3 11 4-11-15 45 25-40c-5-3-9-4-10-5l-15 45 25-40-39 64 65-37c-8-13-19-23-26-27l-39 64 65-37-61 35h70c1-8-2-22-9-35l-61 35h70v-649c0-51-33-96-81-112-109-34-206-78-313-135-46-25-104-16-140 22l-441 460 85 81-84-82 2 2v-3l-2 1 2 2v-3 11l8-7-8-4v11l8-7-1-1-658-651h1l-1-1-17 11h19c1-6-2-11-2-11l-17 11h19-24l22 10c1-2 2-6 2-10h-24l22 10-9-4 8 6 1-2-9-4 8 6 1-1-82-83 80 85 460-435c38-36 47-94 22-140-56-106-104-217-143-298-20-41-61-67-106-67h-648v63l28-57c-3-2-13-6-28-6v63l28-57-9 18 11-17-2-1-9 18 11-17s-7-6-15-16c-13-15-27-38-36-57-4-10-7-19-9-24l-1-6-32 5h32v-5l-32 5h32v-930h-32l31 9s1-3 1-9h-32l31 9c1-2 4-8 9-15 8-10 19-21 27-26 4-2 7-4 7-4l-11-30v32c8 0 11-2 11-2l-11-30v32h648c51 0 96-33 112-82 34-108 79-203 137-311 25-47 15-104-23-140l-459-439-81 85 83-83-3 3h4l-1-3-3 3h4-7l5 5 2-5h-7l5 5h-1l656-657-7-8v10l7-2-7-8v10-14l-5 13 5 1v-14l-5 13 3-8-5 7 2 1 3-8-5 7 2-3-2 3 2-3-2 3v-1l450 459c36 37 93 46 139 21 107-57 205-103 313-138 49-15 81-60 81-111v-649h-32l31 10c0-1 1-4 1-10h-32l31 10c0-1 3-7 8-13 7-11 19-22 28-28 4-3 7-4 7-4l-5-15 3 15h2l-5-15 3 15-9-42v43c4 0 7 0 9-1l-9-42v43h930v-41l-13 40c2 0 6 1 13 1v-41l-13 40 5-16-7 15 2 1 5-16-7 15 1-1-1 1 1-1-1 1s4 2 9 7c7 6 15 17 19 25 2 4 3 7 4 8v1l20-5h-21l1 5 20-5h-21v649c0 45 26 86 67 105 24 12 50 23 78 34 41 17 87 34 132 53 46 18 90 38 126 57 45 24 102 15 139-22l447-459-4-3v5l4-2-4-3v5-9l-6 6 6 3v-9l-6 6 1 1 657 654 5-4-6 2 1 2 5-4-6 2 13-4h-14l1 4 13-4h-14 14l-13-6-1 6h14l-13-6 8 3-7-4-1 1 8 3-7-4 83 83-82-84-459 449c-37 36-46 93-21 139 58 108 103 203 137 311 16 49 61 82 112 82h649v-68l-23 64c9 3 17 4 23 4v-68l-23 64 25-69-61 41c5 9 19 22 36 28l25-69-61 41 34-23-40 13s2 4 6 10l34-23-40 13 2-1h-2v1l2-1h-2c0 1 2 7 2 15 1 8 1 19 1 30v998c0 16 0 33-1 49-1 12-2 23-3 31-2 6-3 11-3 13l-1 1 26 10-24-14-2 4 26 10-24-14 60 37-38-58c-13 8-19 17-22 21l60 37-38-58 46 69v-83c-15 0-34 5-46 14l46 69v-83h-649c-45 0-87 26-106 67-39 82-86 192-143 298-25 48-15 106 25 143l459 410 79-87-83 83 3-4h-5l2 4 3-4h-5 8l-5-5-3 5h8l-5-5h-1l-655 657v1l5 5v-7l-5 2 5 5v-7 7l6-6-6-1v7l6-6v1l-453-459c-36-37-93-45-138-21-49 26-111 52-171 76-30 11-60 23-87 34-28 11-54 22-78 33-41 20-67 61-67 106v649h118z"/><path fill="#F1F2F2" d="M12324 11146c-460 0-834-374-834-834 0-461 374-834 834-834 461 0 834 373 834 834 0 460-373 834-834 834z"/><path fill="#FFCB31" d="M13377 4779h8950V3763h-8950v1016z"/><path fill="#F1F2F2" d="M13377 14042h8950V4779h-8950v9263z"/><path fill="#231F20" d="M22327 14042v-117h-8833V4896h8716v9146h117v-117 117h117V4779c0-31-12-61-34-83s-52-34-83-34h-8950c-31 0-61 12-83 34s-35 52-35 83v9263c0 31 13 61 35 83s52 34 83 34h8950c31 0 61-12 83-34s34-52 34-83h-117zM13846 4349h586v-234h-586v234zM14745 4349h664v-234h-664v234zM15800 4349h508v-234h-508v234z"/><path fill="#E6E7E8" d="M14002 13417h1094V5365h-1094v8052zM15917 13417h5706V5365h-5706v8052z"/><path fill="#231F20" d="M15331 13378h234V5365h-234v8013zM14315 6030h430v-235h-430v235zM14315 6850h430v-234h-430v234zM14315 7593h430v-234h-430v234zM14315 8414h430v-235h-430v235zM14315 9156h430v-234h-430v234zM14315 9938h430v-234h-430v234zM14315 10681h430v-235h-430v235zM14315 11502h430v-235h-430v235zM14315 12244h430v-234h-430v234zM14315 13026h430v-235h-430v235z"/><path fill="#BCBEC0" d="M16269 6108h4964v-274h-4964v274zM16269 6733h1681v-351h-1681v351zM18301 6733h587v-351h-587v351zM19239 6733h547v-351h-547v351zM19474 8570h664v-273h-664v273zM20529 8570h704v-273h-704v273zM16269 7359h4964v-352h-4964v352zM16933 7984h4300v-352h-4300v352zM16269 8570h2775v-273h-2775v273zM16269 11892h4964v-312h-4964v312zM16269 12518h3517v-352h-3517v352zM18262 13143h2971v-352h-2971v352zM19552 11267h1681v-313h-1681v313zM18653 11267h508v-313h-508v313zM16269 13143h1642v-352h-1642v352zM17676 11267h586v-313h-586v313zM17402 9430h665v-352h-665v352zM16269 9430h664v-352h-664v352zM16269 10642h4964v-313h-4964v313zM16269 9977h4260v-273h-4260v273zM18419 9430h2814v-352h-2814v352zM20217 12518h1016v-352h-1016v352z"/><path fill="#fff" d="M23073 4388h-1213c-111 0-158 102-158 214v1213c0 111 47 215 158 215h115v4416h899V6030h199c112 0 231-104 231-215V4602c0-112-119-214-231-214z"/><path fill="#231F20" d="M23073 4388v-117h-1213c-45 0-90 11-129 33-29 16-53 37-72 61-29 35-47 75-59 115-11 40-15 81-16 122v1213c1 36 4 72 13 108 13 53 37 107 82 152 23 22 50 41 81 53 32 13 66 19 100 19h115v-117h-117v4416c0 31 12 61 34 83s52 35 83 35h899c31 0 61-13 83-35s34-52 34-83V6147h82c46 0 90-11 129-27 60-26 111-65 151-116 20-26 37-55 49-86 12-32 19-67 19-103V4602c0-49-12-95-33-134-30-59-76-106-130-141-54-34-116-56-185-56v234c10 0 24 3 38 9 22 9 43 26 57 43 7 9 12 18 15 25 3 8 4 14 4 20v1213c0 6-2 16-8 27-8 17-26 37-47 51-21 13-44 20-59 19h-199c-31 0-61 13-83 35s-34 52-34 83v4299h-664V6030c0-31-13-61-35-83s-52-35-83-35h-115c-9 0-11-1-13-2l-6-6c-5-4-10-15-15-31-4-16-7-36-7-58V4602c0-20 2-38 6-53 5-23 13-35 17-38l5-4c2 0 6-2 13-2h1213v-117z"/><path fill="#BCBEC0" d="M21702 13964h1602v-2697h-1602v2697z"/><path fill="#D1D3D4" d="M21194 11267h2540v-821h-2540v821z"/><path fill="#231F20" d="M23734 11267v-117h-2423v-586h2306v703h117v-117 117h117v-821c0-31-12-61-34-83s-52-34-83-34h-2540c-31 0-61 12-83 34s-35 52-35 83v821c0 31 13 61 35 83s52 34 83 34h2540c31 0 61-12 83-34s34-52 34-83h-117zM21702 12166h664v-235h-664v235zM21702 12909h664v-235h-664v235zM18715 6964l-457 457c-21 21-34 51-34 81s13 60 34 81l457 457 162-162-376-376 376-376-162-162zM20156 8040l458-457c21-22 33-50 33-81s-11-59-33-81l-458-457-161 162 376 376-376 376 161 162zM19221 8130l558-1172-207-98-557 1172 206 98zM17161 10570l-457 457c-22 22-34 51-34 81s12 60 34 81l457 458 162-162-377-377 377-376-162-162zM18602 11647l457-458c22-21 34-50 34-81 0-30-12-59-34-81l-457-457-162 162 377 376-377 377 162 162zM17667 11736l557-1172-207-98-557 1172 207 98z"/></g></svg>