<?xml version="1.0" encoding="UTF-8"?>
<!DOCTYPE svg PUBLIC "-//W3C//DTD SVG 1.0//EN" "http://www.w3.org/TR/2001/REC-SVG-20010904/DTD/svg10.dtd">
<!-- Creator: CorelDRAW 2017 -->
<svg xmlns="http://www.w3.org/2000/svg" xml:space="preserve" width="356px" height="200px" version="1.0" shape-rendering="geometricPrecision" text-rendering="geometricPrecision" image-rendering="optimizeQuality" fill-rule="evenodd" clip-rule="evenodd"
viewBox="0 0 35600 20025"
 xmlns:xlink="http://www.w3.org/1999/xlink">
 <g id="Layer_x0020_1">
  <metadata id="CorelCorpID_0Corel-Layer"/>
  <g id="_2046801277984">
   <path fill="#E6E7E8" d="M0 0l35600 0 0 20025 -35600 0 0 -20025z"/>
   <path fill="#373435" fill-opacity="0.031373" d="M2082 17547c68,104 112,203 155,312 32,64 49,183 199,183 44,0 107,-14 163,-45 63,-33 111,-83 136,-159l60 -202 146 -72 10 10c-20,77 -25,149 -25,206 0,170 146,234 262,234 68,0 129,-34 129,-95 0,-81 -34,-217 -78,-339 68,-68 136,-136 214,-191l12 6c34,144 53,287 53,381 0,93 -41,196 -75,264 -70,132 -194,238 -344,238 -114,0 -241,-58 -328,-163l-5 0c-82,101 -209,193 -412,193l-63 0c-10,134 -39,229 -83,314 -121,237 -480,404 -818,404 -470,0 -706,-272 -706,-633 0,-223 73,-431 185,-578l92 38c-70,134 -117,262 -117,385 0,338 275,499 592,499 294,0 658,-187 724,-404 -25,-237 -114,-348 -250,-565 41,-72 94,-144 160,-221l12 0 0 0zm5421 -1274c99,62 196,136 291,221 -53,74 -119,142 -201,202 -95,-77 -190,-143 -287,-213 66,-74 131,-146 197,-210l0 0zm51 926c-160,0 -291,105 -291,183 0,168 320,219 703,217 -48,-196 -216,-400 -412,-400zm-359 895c208,0 390,-6 529,-41 155,-39 286,-118 286,-171 0,-15 0,-31 -5,-46 -87,8 -187,8 -274,8 -282,0 -498,-64 -583,-222 -21,-44 -36,-93 -36,-149 0,-152 66,-303 182,-406 97,-85 204,-138 313,-138 197,0 354,158 464,408 60,136 101,293 101,491 0,132 -36,243 -118,326 -153,148 -435,204 -867,204l-196 0 0 0 -51 0c-107,0 -184,-19 -245,-66l-10 0c3,25 5,50 5,72 0,97 -32,221 -97,320 -192,287 -400,410 -580,410 -182,0 -405,-70 -606,-161l36 -70c65,27 155,46 279,46 325,0 752,-314 805,-619 -12,-25 -34,-58 -65,-93 -95,-113 -155,-208 -211,-307 48,-95 92,-171 133,-239l17 -2c139,282 265,445 546,445l44 0 0 0 204 0 0 0zm-1408 299c24,-130 26,-276 26,-413l0 -202c0,-377 -48,-926 -87,-1282 68,-75 163,-161 238,-219l22 6c51,450 63,972 63,1452 0,126 -5,250 -17,340 -7,114 -73,201 -214,332l-31 -14 0 0zm-1449 -596c7,177 94,318 398,318 189,0 349,-50 526,-135 32,-14 49,-33 49,-49 0,-111 -85,-258 -228,-392 -139,-126 -323,-237 -495,-311 -59,-25 -78,-52 -78,-77 0,-51 68,-158 124,-235l19 -2c197,103 417,256 580,427 148,157 240,316 240,489 0,128 -39,250 -102,361 -216,109 -446,192 -674,192 -277,0 -466,-130 -466,-436 0,-33 0,-84 12,-150l95 0 0 0zm-501 -503l172 278c63,103 122,215 122,392l0 227c0,183 -117,379 -306,573 -148,132 -279,188 -400,188 -180,0 -386,-56 -624,-159l27 -70c75,21 162,37 269,37 342,-2 692,-252 852,-557 19,-35 26,-68 26,-90 0,-36 -19,-75 -34,-110 -87,-165 -184,-315 -291,-453 56,-89 112,-174 173,-258l14 2z"/>
   <path fill="#373435" fill-opacity="0.078431" d="M15826 2401l-1957 2927 0 -66 8 -74 21 -70 35 -63 -1335 1996 -216 0 -46 -9 -33 -24 -20 -34 -7 -39 7 -39 20 -34 -6313 9443 44 -171 -625 935 -146 -587 -307 459 0 -807 -2595 3881 540 0 538 0 15 0 55 0 199 0 52 0 48 0 54 0 33 0 30 0 75 0 7 0 37 0 8 0 14 0 16 0 24 0 74 0 32 0 53 0 135 0 59 0 107 0 157 0 48 0 258 0 24 0 143 0 29 0 128 0 5 0 13 0 52 0 57 0 14 0 71 0 105 0 29 0 21 0 3 0 105 0 20 0 86 0 42 0 64 0 155 0 113 0 121 0 21 0 6 0 11 0 5 0 100 0 71 0 71 0 28 0 31 0 22 0 33 0 29 0 1 0 12 0 81 0 46 0 57 0 194 0 83 0 157 0 54 0 18 0 3 0 13 0 20 0 20 0 86 0 3 0 38 0 65 0 96 0 436 0 29 0 42 0 99 0 71 0 57 0 44 0 77 0 5 0 101 0 37 0 69 0 68 0 198 0 8 0 63 0 71 0 61 0 13 0 268 0 64 0 154 0 39 0 21 0 224 0 127 0 32 0 424 0 8 0 141 0 28 0 71 0 71 0 1 0 22 0 19 0 177 0 47 0 106 0 107 0 84 0 48 0 146 0 20 0 11 0 57 0 127 0 30 0 127 0 195 0 383 0 88 0 124 0 7 0 6 0 8 0 90 0 37 0 6 0 10 0 23 0 144 0 179 0 96 0 37 0 9 0 43 0 38 0 61 0 7 0 18 0 2 0 37 0 3 0 17 0 19 0 11 0 17 0 24 0 65 0 41 0 53 0 160 0 31 0 0 0 158 0 38 0 2 0 31 0 18 0 53 0 17 0 11 0 38 0 22 0 2 0 27 0 39 0 17 0 72 0 33 0 6 0 88 0 13 0 18 0 62 0 32 0 74 0 54 0 53 0 68 0 7 0 171 0 296 0 234 0 71 0 47 0 140 0 71 0 14 0 57 0 28 0 43 0 128 0 60 0 31 0 26 0 194 0 312 0 107 0 57 0 22 0 216 0 313 0 384 0 15 0 313 0 14 0 196 0 344 0 194 0 20 0 194 0 30 0 127 0 195 0 441 0 31 0 234 0 37 0 6 0 356 0 215 0 214 0 312 0 419 0 36 0 2 0 261 0 39 0 13 0 1 0 284 0 170 0 136 0 142 0 56 0 118 0 126 0 311 0 24 0 213 0 307 0 6 0 187 0 107 0 163 0 43 0 269 0 317 0 14 0 299 0 53 0 472 0 234 0 37 0 6 0 122 0 35 0 199 0 65 0 39 0 14 0 284 0 169 0 39 0 97 0 142 0 174 0 127 0 310 0 242 0 313 0 1502 -2247 -313 0 0 -1634 -735 1100 -11 3 -29 6 -5 1 164 -245 0 -32 -1 -22 -2 -20 -4 -19 -4 -17 -7 -15 -7 -14 -9 -12 -11 -11 -12 -9 -15 -8 -18 -7 -20 -5 -22 -4 -25 -3 -27 -2 -30 -1 -20 1 -19 1 -18 3 -17 3 -16 5 -14 6 -14 7 -12 8 -12 9 -11 10 -10 13 -10 14 -46 69 -270 -48 13 -42 15 -40 17 -36 20 -33 -699 1045 -30 3 -56 2 -38 -2 224 -335 12 -18 10 -21 3 -7 321 -480 -308 55 -5 -22 -5 -21 -7 -20 -8 -18 -10 -16 -11 -15 -11 -14 -14 -13 -14 -10 -15 -10 -17 -8 -17 -6 -18 -5 -20 -4 -20 -2 -22 -1 -28 1 -27 4 -26 6 -24 9 -23 12 -21 14 -19 16 -19 19 -16 22 -342 511 -11 -40 -12 -62 -8 -67 -2 -71 2 -71 8 -67 12 -64 17 -59 22 -55 26 -51 31 -47 -670 1003 -14 0 0 -877 313 -467 -313 0 0 -290 -631 944 0 -1 -1 -37 -2 -33 -3 -29 -4 -25 -4 -20 -5 -16 -5 -14 -6 -13 -7 -12 -8 -11 -9 -11 -9 -9 -10 -9 -11 -9 -12 -7 -12 -6 -13 -6 -13 -4 -15 -3 -14 -3 -15 -1 -16 -1 -20 1 -20 2 -19 3 -19 5 -18 7 -18 7 -17 9 -16 11 -16 11 -14 13 -13 13 -12 15 -11 15 -361 539 0 -865 -794 1187 -13 5 -23 6 -24 6 -9 1 212 -315 8 -13 8 -14 6 -15 5 -15 3 -11 2 -13 2 -16 2 -18 1 -20 1 -23 1 -24 0 -27 0 -63 -16 5 -18 6 -21 5 -22 6 -25 6 -27 7 -30 6 -5 1 164 -245 0 -32 0 -22 -2 -20 -4 -19 -5 -17 -6 -15 -8 -14 -9 -12 -10 -11 -13 -9 -15 -8 -17 -7 -20 -5 -22 -4 -25 -3 -28 -2 -29 -1 -21 1 -19 1 -18 3 -17 3 -15 5 -15 6 -13 7 -13 8 -11 9 -11 10 -11 13 -9 14 -46 69 -271 -48 13 -42 15 -40 18 -36 20 -33 -645 964 0 -568 0 -45 -1 -40 -2 -36 -2 -31 -2 -28 -3 -23 -4 -19 -4 -15 -5 -12 -6 -11 -6 -11 -8 -11 -9 -9 -9 -9 -10 -9 -11 -7 -12 -7 -12 -6 -13 -5 -14 -4 -15 -4 -15 -2 -17 -1 -16 -1 -20 1 -19 2 -18 2 -18 5 -17 5 -17 6 -16 8 -16 9 -15 10 -14 11 -13 13 -12 14 -11 14 -367 550 0 -1314 -550 821 -2 -8 -7 -20 -8 -18 -10 -16 -10 -15 -12 -14 -13 -13 -15 -10 -15 -10 -17 -8 -17 -6 -18 -5 -20 -4 -20 -2 -21 -1 -29 1 -27 4 -26 6 -24 9 -22 12 -22 14 -19 16 -18 19 -17 22 -342 511 -11 -40 -12 -62 -7 -67 -3 -71 3 -71 7 -67 12 -64 17 -59 22 -55 26 -51 32 -47 -337 503 -408 0 128 -191 -2 -33 -3 -32 -6 -29 -8 -26 -10 -25 -11 -23 -14 -21 -16 -19 -17 -16 -18 -15 -19 -12 -20 -10 -20 -8 -22 -5 -23 -4 -23 -1 -25 1 -24 4 -23 6 -22 8 -20 10 -20 13 -18 16 -17 17 -16 20 -348 520 0 0 -13 -53 -9 -55 -5 -58 -2 -60 2 -72 7 -67 13 -64 16 -60 22 -55 26 -52 32 -48 -653 976 0 -653 0 -42 -2 -38 -2 -34 -4 -31 -4 -26 -6 -23 -6 -18 -8 -15 -12 -16 -13 -13 -14 -12 -16 -9 -18 -7 -19 -6 -20 -3 -22 -1 -16 1 -16 2 -16 3 -16 4 -15 6 -15 7 -15 8 -15 9 -14 11 -13 12 -12 13 -11 14 -372 556 0 -32 4446 -6650 -33 24 -46 9 -613 0 1276 -1910 -32 24 -46 9 -1830 0 1128 -1687 -65 79 -79 65 -90 49 -28 9 174 -261 -52 63 -63 52 -72 39 -55 17 154 -230 -39 47 -47 39 -54 29 -60 19 -65 6 -64 -6 -59 -19 -55 -29 -47 -39 -39 -47 -29 -54 -19 -60 -6 -64 6 -65 19 -59 29 -54 -155 232 -6 -54 9 -86 25 -80 39 -72 -230 344 -80 0 142 -213 26 -87 40 -81 -255 381 -592 0 -779 1165 0 -2174 -8 -75 -21 -70 -35 -63 -45 -55 -55 -46 -63 -34 -70 -22 -75 -7 -1530 0 521 -779 0 -1031 566 -847 -50 73 -63 64 -72 52 -81 41 -17 4 175 -261 -52 63 -63 51 -72 40 -55 17 154 -231 -39 47 -47 39 -54 30 -60 18 -64 7 -64 -7 -60 -18 -54 -30 -47 -39 -39 -47 -30 -54 -18 -60 -7 -64 7 -64 18 -60 30 -54 -156 232 -5 -54 9 -86 24 -79 40 -73 -177 264 -2 -26 11 -107 31 -100 49 -90 -1543 2308 0 -1037 2 -21 6 -20 10 -18 -1342 2007 -1074 0 521 -779 0 -2444 9 -46z"/>
   <g>
    <g>
     <path fill="white" d="M14241 12646l7118 0c147,0 266,-119 266,-265l0 -7119c0,-146 -119,-265 -266,-265l-7118 0c-147,0 -266,119 -266,265l0 7119c0,146 119,265 266,265z"/>
     <path fill="#1C868E" d="M14755 11601l0 -5559c0,-147 119,-266 265,-266l5560 0c147,0 266,119 266,266l0 5559c0,147 -119,266 -266,266l-5560 0c-146,0 -265,-119 -265,-266z"/>
     <path fill="#F85252" d="M17375 14904c0,-235 190,-425 425,-425 235,0 425,190 425,425 0,235 -190,425 -425,425 -235,0 -425,-190 -425,-425z"/>
     <path fill="#F85252" d="M19252 2748c0,-235 190,-425 425,-425 235,0 425,190 425,425 0,235 -190,425 -425,425 -235,0 -425,-190 -425,-425z"/>
     <path fill="#F85252" d="M22607 6945c0,-235 191,-425 425,-425 235,0 425,190 425,425 0,234 -190,425 -425,425 -234,0 -425,-191 -425,-425z"/>
     <path fill="#F85252" d="M12169 10698c0,-234 191,-425 425,-425 235,0 425,191 425,425 0,235 -190,425 -425,425 -234,0 -425,-190 -425,-425z"/>
     <path fill="#40C4DF" d="M14755 11601l0 -5559c0,-147 119,-266 265,-266l4444 0c147,0 266,119 266,266l0 5559c0,147 -119,266 -266,266l-4444 0c-146,0 -265,-119 -265,-266z"/>
     <path fill="#491352" d="M11426 8928l2443 0 0 1664 -754 0c-50,-242 -264,-425 -521,-425 -293,0 -531,239 -531,531 0,293 238,532 531,532 257,0 471,-183 521,-425l754 0 0 1576c0,205 167,372 372,372l1576 0 0 1168c0,59 47,106 106,106 59,0 106,-47 106,-106l0 -1168 1665 0 0 1630c-242,50 -425,264 -425,521 0,293 238,531 531,531 293,0 531,-238 531,-531 0,-257 -182,-471 -425,-521l0 -1631 1665 0 0 1727c0,140 212,140 212,0l0 -1727 1576 0c205,0 372,-166 372,-371l0 -1576 1859 0c141,0 141,-213 0,-213l-1859 0 0 -1664 2444 0c140,0 140,-213 0,-213l-2444 0 0 -1664 781 0c49,242 264,425 520,425 293,0 532,-239 532,-531 0,-293 -239,-532 -532,-532 -256,0 -471,183 -520,425l-781 0 0 -1576c0,-205 -167,-371 -372,-371l-1576 0 0 -1622c242,-50 425,-264 425,-521 0,-293 -238,-531 -531,-531 -293,0 -531,238 -531,531 0,257 183,471 425,521l0 1622 -1665 0 0 -1169c0,-59 -47,-106 -106,-106 -59,0 -106,47 -106,106l0 1169 -1665 0 0 -2444c0,-140 -212,-140 -212,0l0 2444 -1576 0c-205,0 -372,166 -372,371l0 1576 -1487 0c-141,0 -141,213 0,213l1487 0 0 1664 -2443 0c-141,0 -141,213 0,213zm1168 2089c-176,0 -319,-143 -319,-319 0,-175 143,-318 319,-318 176,0 319,143 319,318 0,176 -143,319 -319,319zm10438 -4391c176,0 319,143 319,319 0,175 -143,318 -319,318 -175,0 -318,-143 -318,-318 0,-176 143,-319 318,-319zm-4913 8278c0,176 -143,319 -319,319 -176,0 -319,-143 -319,-319 0,-176 143,-319 319,-319 176,0 319,143 319,319zm1239 -12156c0,-176 143,-319 319,-319 176,0 319,143 319,319 0,176 -143,319 -319,319 -176,0 -319,-143 -319,-319zm-5276 2514c0,-87 71,-159 159,-159l7118 0c88,0 160,72 160,159l0 7119c0,87 -72,159 -160,159l-7118 0c-88,0 -159,-72 -159,-159l0 -7119z"/>
     <path fill="#491352" d="M15020 11973l5560 0c205,0 372,-166 372,-372l0 -5559c0,-206 -167,-372 -372,-372l-5560 0c-205,0 -372,166 -372,372l0 5559c0,206 167,372 372,372zm-159 -5931c0,-88 71,-160 159,-160l5560 0c88,0 159,72 159,160l0 5559c0,88 -71,160 -159,160l-5560 0c-88,0 -159,-72 -159,-160l0 -5559z"/>
    </g>
    <path fill="#4B4B4D" fill-rule="nonzero" d="M4956 17778l0 -1634 496 0 293 1115 289 -1115 497 0 0 1634 -306 0 -1 -1286 -322 1286 -318 0 -321 -1286 -1 1286 -306 0zm1904 -1344l0 -290 312 0 0 290 -312 0zm0 1344l0 -1184 312 0 0 1184 -312 0zm1666 -833l-309 55c-10,-61 -33,-107 -70,-139 -37,-30 -85,-46 -143,-46 -78,0 -141,27 -187,81 -46,54 -70,144 -70,271 0,141 24,240 71,298 47,58 110,87 190,87 59,0 107,-17 145,-51 38,-34 65,-92 80,-175l309 53c-32,141 -94,248 -184,320 -91,73 -212,109 -365,109 -172,0 -310,-55 -413,-164 -103,-110 -155,-261 -155,-455 0,-196 52,-348 155,-457 103,-109 243,-164 419,-164 144,0 258,32 344,94 84,62 145,156 183,283zm536 833l-312 0 0 -1184 290 0 0 168c49,-80 94,-132 134,-157 40,-24 86,-37 136,-37 72,0 140,20 207,59l-97 274c-53,-35 -102,-52 -148,-52 -44,0 -81,12 -111,36 -31,25 -55,68 -72,131 -18,63 -27,196 -27,397l0 365zm517 -607c0,-104 25,-205 77,-302 51,-98 124,-172 218,-223 94,-52 198,-78 314,-78 179,0 326,59 440,175 115,117 172,264 172,442 0,179 -58,328 -173,446 -116,118 -261,177 -437,177 -108,0 -211,-25 -310,-74 -98,-49 -173,-121 -224,-216 -52,-95 -77,-210 -77,-347zm322 17c0,118 27,208 83,270 56,63 124,94 206,94 81,0 150,-31 205,-94 55,-62 83,-153 83,-272 0,-116 -28,-206 -83,-268 -55,-63 -124,-94 -205,-94 -82,0 -150,31 -206,94 -56,62 -83,153 -83,270zm1830 216l313 52c-40,115 -104,202 -190,262 -87,60 -196,90 -325,90 -206,0 -359,-67 -457,-202 -78,-108 -117,-244 -117,-409 0,-196 51,-350 153,-462 103,-111 232,-167 389,-167 176,0 315,59 417,175 101,116 150,295 146,535l-783 0c2,93 27,165 75,217 48,52 108,78 180,78 49,0 90,-14 123,-40 34,-27 59,-70 76,-129zm18 -317c-2,-91 -25,-161 -70,-208 -45,-47 -98,-71 -162,-71 -69,0 -125,25 -169,75 -45,50 -67,118 -66,204l467 0zm567 691l0 -1634 312 0 0 1634 -312 0zm1318 -374l313 52c-40,115 -103,202 -190,262 -86,60 -195,90 -325,90 -205,0 -358,-67 -456,-202 -78,-108 -118,-244 -118,-409 0,-196 52,-350 154,-462 102,-111 232,-167 389,-167 176,0 315,59 417,175 101,116 150,295 145,535l-783 0c3,93 28,165 76,217 48,52 108,78 180,78 49,0 90,-14 123,-40 33,-27 58,-70 75,-129zm19 -317c-3,-91 -26,-161 -70,-208 -45,-47 -99,-71 -163,-71 -68,0 -124,25 -169,75 -44,50 -66,118 -65,204l467 0zm1598 -142l-308 55c-10,-61 -34,-107 -71,-139 -37,-30 -84,-46 -143,-46 -78,0 -140,27 -187,81 -46,54 -69,144 -69,271 0,141 23,240 70,298 48,58 111,87 190,87 59,0 108,-17 146,-51 38,-34 64,-92 80,-175l308 53c-32,141 -93,248 -184,320 -90,73 -212,109 -364,109 -173,0 -311,-55 -414,-164 -103,-110 -154,-261 -154,-455 0,-196 51,-348 155,-457 103,-109 242,-164 418,-164 144,0 259,32 344,94 85,62 146,156 183,283zm779 -351l0 248 -215 0 0 480c0,97 2,154 6,170 4,16 14,30 28,40 15,10 32,16 53,16 30,0 71,-10 127,-30l26 243c-73,31 -155,47 -247,47 -56,0 -107,-10 -152,-29 -46,-19 -79,-43 -100,-73 -21,-31 -35,-72 -44,-123 -6,-37 -10,-111 -10,-222l0 -519 -143 0 0 -248 143 0 0 -236 313 -184 0 420 215 0zm518 1184l-313 0 0 -1184 290 0 0 168c50,-80 95,-132 135,-157 40,-24 85,-37 136,-37 71,0 140,20 206,59l-97 274c-53,-35 -102,-52 -147,-52 -44,0 -81,12 -112,36 -30,25 -54,68 -72,131 -17,63 -26,196 -26,397l0 365zm516 -607c0,-104 26,-205 77,-302 51,-98 124,-172 218,-223 94,-52 199,-78 315,-78 179,0 325,59 440,175 114,117 171,264 171,442 0,179 -57,328 -173,446 -115,118 -261,177 -436,177 -108,0 -212,-25 -310,-74 -99,-49 -174,-121 -225,-216 -51,-95 -77,-210 -77,-347zm322 17c0,118 28,208 83,270 56,63 125,94 207,94 81,0 149,-31 205,-94 55,-62 83,-153 83,-272 0,-116 -28,-206 -83,-268 -56,-63 -124,-94 -205,-94 -82,0 -151,31 -207,94 -55,62 -83,153 -83,270zm1123 -594l287 0 0 161c103,-124 226,-187 369,-187 76,0 141,16 197,47 56,31 102,79 137,142 52,-63 108,-111 169,-142 60,-31 124,-47 192,-47 87,0 161,18 221,53 60,36 105,87 135,156 21,50 32,132 32,245l0 756 -313 0 0 -676c0,-117 -10,-193 -32,-227 -29,-44 -74,-67 -134,-67 -44,0 -85,13 -124,40 -38,27 -67,66 -84,118 -17,51 -25,133 -25,244l0 568 -313 0 0 -648c0,-115 -6,-190 -17,-223 -11,-33 -28,-58 -51,-74 -24,-17 -55,-25 -95,-25 -49,0 -92,13 -131,39 -38,26 -66,63 -83,113 -16,49 -25,130 -25,243l0 575 -312 0 0 -1184zm2737 810l313 52c-40,115 -104,202 -190,262 -87,60 -195,90 -325,90 -206,0 -358,-67 -457,-202 -78,-108 -117,-244 -117,-409 0,-196 51,-350 154,-462 102,-111 232,-167 388,-167 176,0 315,59 417,175 102,116 150,295 146,535l-783 0c2,93 27,165 75,217 48,52 108,78 180,78 49,0 90,-14 123,-40 34,-27 59,-70 76,-129zm18 -317c-2,-91 -25,-161 -70,-208 -44,-47 -98,-71 -162,-71 -68,0 -125,25 -169,75 -45,50 -66,118 -66,204l467 0zm1598 -142l-308 55c-10,-61 -34,-107 -70,-139 -37,-30 -85,-46 -143,-46 -79,0 -141,27 -187,81 -47,54 -70,144 -70,271 0,141 24,240 71,298 47,58 110,87 189,87 60,0 108,-17 146,-51 38,-34 65,-92 80,-175l308 53c-32,141 -93,248 -183,320 -91,73 -212,109 -365,109 -173,0 -311,-55 -413,-164 -103,-110 -155,-261 -155,-455 0,-196 52,-348 155,-457 103,-109 243,-164 419,-164 144,0 258,32 343,94 85,62 146,156 183,283zm546 -801l0 606c102,-121 224,-182 365,-182 72,0 138,14 196,40 58,27 102,61 132,103 29,42 50,88 60,138 11,51 17,129 17,235l0 694 -313 0 0 -624c0,-124 -6,-203 -18,-237 -12,-33 -33,-60 -64,-79 -30,-20 -68,-30 -114,-30 -53,0 -100,13 -141,38 -42,25 -72,63 -91,114 -19,51 -29,126 -29,226l0 592 -312 0 0 -1634 312 0zm1319 815l-283 -50c32,-116 87,-202 165,-257 78,-56 194,-84 348,-84 140,0 244,17 312,50 69,33 117,75 145,126 27,51 41,144 41,280l-4 365c0,104 5,181 15,231 10,49 28,102 56,158l-311 0c-8,-20 -18,-51 -30,-91 -5,-19 -9,-31 -11,-37 -53,53 -110,92 -171,118 -61,27 -126,40 -194,40 -122,0 -218,-33 -288,-99 -70,-66 -105,-150 -105,-251 0,-67 16,-126 48,-179 32,-52 77,-92 135,-120 57,-28 140,-52 248,-73 146,-28 248,-53 304,-77l0 -32c0,-61 -15,-104 -44,-130 -30,-26 -87,-39 -169,-39 -56,0 -99,11 -131,34 -31,22 -56,61 -76,117zm420 253c-40,14 -103,29 -190,48 -87,19 -144,37 -171,54 -40,30 -61,66 -61,111 0,44 16,82 49,114 33,32 74,48 125,48 56,0 110,-19 162,-56 37,-29 62,-63 74,-104 8,-26 12,-78 12,-152l0 -63zm1694 566l-312 0 0 -603c0,-128 -7,-211 -21,-248 -13,-38 -35,-67 -65,-88 -31,-21 -67,-31 -110,-31 -55,0 -104,15 -147,45 -44,29 -74,69 -90,118 -16,49 -24,139 -24,272l0 535 -313 0 0 -1184 290 0 0 173c104,-132 235,-199 392,-199 70,0 133,13 191,38 58,25 101,56 130,95 30,39 50,82 62,132 12,49 17,118 17,210l0 735zm317 -1344l0 -290 313 0 0 290 -313 0zm0 1344l0 -1184 313 0 0 1184 -313 0zm1666 -833l-308 55c-10,-61 -34,-107 -71,-139 -37,-30 -84,-46 -143,-46 -78,0 -140,27 -187,81 -46,54 -69,144 -69,271 0,141 23,240 71,298 47,58 110,87 189,87 59,0 108,-17 146,-51 38,-34 64,-92 80,-175l308 53c-32,141 -93,248 -184,320 -90,73 -211,109 -364,109 -173,0 -311,-55 -414,-164 -103,-110 -154,-261 -154,-455 0,-196 52,-348 155,-457 103,-109 242,-164 419,-164 143,0 258,32 343,94 85,62 146,156 183,283zm471 14l-283 -50c32,-116 87,-202 165,-257 78,-56 194,-84 348,-84 139,0 243,17 312,50 68,33 116,75 144,126 28,51 42,144 42,280l-5 365c0,104 5,181 15,231 10,49 29,102 56,158l-310 0c-8,-20 -19,-51 -30,-91 -5,-19 -9,-31 -11,-37 -54,53 -111,92 -172,118 -60,27 -125,40 -194,40 -121,0 -217,-33 -287,-99 -70,-66 -105,-150 -105,-251 0,-67 16,-126 48,-179 32,-52 76,-92 134,-120 57,-28 140,-52 249,-73 146,-28 247,-53 304,-77l0 -32c0,-61 -15,-104 -45,-130 -30,-26 -86,-39 -169,-39 -56,0 -99,11 -130,34 -32,22 -57,61 -76,117zm420 253c-40,14 -104,29 -191,48 -87,19 -144,37 -170,54 -41,30 -62,66 -62,111 0,44 17,82 50,114 32,32 74,48 124,48 57,0 111,-19 162,-56 38,-29 63,-63 75,-104 8,-26 12,-78 12,-152l0 -63zm616 566l0 -1634 313 0 0 1634 -313 0z"/>
   </g>
  </g>
 </g>
</svg>
