<?xml version="1.0" encoding="UTF-8"?>
<!DOCTYPE svg PUBLIC "-//W3C//DTD SVG 1.0//EN" "http://www.w3.org/TR/2001/REC-SVG-20010904/DTD/svg10.dtd">
<!-- Creator: CorelDRAW X8 -->
<svg xmlns="http://www.w3.org/2000/svg" xml:space="preserve" width="49px" height="50px" version="1.0" shape-rendering="geometricPrecision" text-rendering="geometricPrecision" image-rendering="optimizeQuality" fill-rule="evenodd" clip-rule="evenodd"
viewBox="0 0 767 789"
 xmlns:xlink="http://www.w3.org/1999/xlink">
 <g id="Layer_x0020_1">
  <metadata id="CorelCorpID_0Corel-Layer"/>
  <path fill="#2B597A" d="M557 533c6,0 12,0 17,1l-33 -103 187 -134c10,-6 14,-15 14,-26 -1,-2 -1,-8 -2,-11 -5,-15 -17,-22 -33,-22l-231 0 -74 -214c-4,-16 -14,-24 -31,-24 -16,0 -26,9 -30,24l-75 214 -230 0c-18,2 -29,9 -34,23 -1,4 -3,9 -1,12 0,9 3,18 14,25l187 134 -70 217c-5,15 -1,29 10,39 11,9 24,9 41,-2l187 -133 93 66c5,-48 46,-86 94,-86zm-173 93c-44,0 -81,35 -81,81 0,45 35,82 81,82 45,0 82,-36 82,-82 0,-46 -37,-81 -82,-81zm185 -70c-45,0 -82,35 -82,81 0,46 36,82 82,82 46,0 82,-36 82,-82 0,-46 -37,-81 -82,-81zm116 -162c-45,0 -82,36 -82,81 0,45 36,82 82,82 45,0 82,-36 82,-82 -2,-44 -37,-81 -82,-81z"/>
 </g>
</svg>
