<?xml version="1.0" encoding="UTF-8"?>
<!DOCTYPE svg PUBLIC "-//W3C//DTD SVG 1.1//EN" "http://www.w3.org/Graphics/SVG/1.1/DTD/svg11.dtd">
<!-- Creator: CorelDRAW 2017 -->
<svg xmlns="http://www.w3.org/2000/svg" xml:space="preserve" width="3.70333in" height="2.08333in" version="1.1" style="shape-rendering:geometricPrecision; text-rendering:geometricPrecision; image-rendering:optimizeQuality; fill-rule:evenodd; clip-rule:evenodd"
viewBox="0 0 3703 2083"
 xmlns:xlink="http://www.w3.org/1999/xlink"
 enable-background="new 0 0 64 64">
 <defs>
  <style type="text/css">
   <![CDATA[
    .fil4 {fill:black}
    .fil3 {fill:#4DBAF8}
    .fil7 {fill:#A2CE6D}
    .fil6 {fill:#D3EEFD}
    .fil0 {fill:#E6E7E8}
    .fil5 {fill:#E8F3DB}
    .fil9 {fill:#F95055}
    .fil8 {fill:#FDCD3B}
    .fil2 {fill:#373435;fill-opacity:0.031373}
    .fil1 {fill:#373435;fill-opacity:0.078431}
   ]]>
  </style>
 </defs>
 <g id="Layer_x0020_1">
  <metadata id="CorelCorpID_0Corel-Layer"/>
  <polygon class="fil0" points="0,0 3703,0 3703,2083 0,2083 "/>
  <polygon class="fil1" points="2048,280 2008,305 2026,268 2028,265 2030,263 2033,261 2036,259 325,1331 323,1333 321,1335 319,1337 318,1339 301,1372 0,1560 0,1565 0,1584 0,1613 0,1614 0,1628 0,1633 0,1645 0,1733 0,1747 0,1756 0,1756 0,1760 0,1760 0,1780 0,1797 0,1821 0,1826 0,1837 0,1849 0,1865 0,1877 0,1908 0,1936 0,1947 0,1959 0,2029 0,2029 0,2038 0,2049 0,2051 0,2051 0,2071 0,2071 0,2076 0,2083 8,2083 14,2083 37,2083 43,2083 79,2083 84,2083 93,2083 99,2083 112,2083 114,2083 136,2083 143,2083 159,2083 166,2083 187,2083 209,2083 226,2083 275,2083 342,2083 353,2083 409,2083 455,2083 470,2083 475,2083 492,2083 523,2083 534,2083 568,2083 571,2083 576,2083 578,2083 614,2083 658,2083 669,2083 704,2083 715,2083 746,2083 755,2083 762,2083 768,2083 800,2083 842,2083 878,2083 985,2083 987,2083 1019,2083 1020,2083 1034,2083 1057,2083 1074,2083 1076,2083 1079,2083 1082,2083 1103,2083 1115,2083 1128,2083 1144,2083 1148,2083 1155,2083 1159,2083 1174,2083 1207,2083 1243,2083 1284,2083 1316,2083 1361,2083 1383,2083 1389,2083 1439,2083 1562,2083 1566,2083 1778,2083 1828,2083 1834,2083 1846,2083 1869,2083 1886,2083 1895,2083 1923,2083 1927,2083 1954,2083 1977,2083 1986,2083 2608,1824 2604,1826 2599,1827 2594,1828 2589,1828 2565,1828 2565,1816 2599,1802 2594,1803 2589,1804 2565,1804 2565,1790 2589,1779 2589,525 2506,525 2484,538 2466,452 2368,427 2296,280 "/>
  <path class="fil2" d="M217 1826c7,11 12,21 16,32 3,7 5,19 21,19 5,0 11,-1 17,-5 7,-3 12,-9 14,-17l6 -21 15 -7 1 1c-2,8 -2,16 -2,21 0,18 15,24 27,24 7,0 13,-4 13,-10 0,-8 -4,-23 -8,-35 7,-7 14,-14 22,-20l1 1c4,15 6,30 6,40 0,10 -4,20 -8,27 -7,14 -20,25 -36,25 -12,0 -25,-6 -34,-17l-1 0c-9,11 -22,20 -43,20l-7 0c-1,14 -4,24 -9,33 -13,25 -50,42 -85,42 -49,0 -73,-28 -73,-66 0,-23 8,-45 19,-60l10 4c-7,14 -12,27 -12,40 0,35 29,52 62,52 31,0 68,-19 75,-42 -3,-25 -12,-36 -26,-59 4,-7 10,-15 17,-23l1 0 0 0 0 0zm564 -133c10,6 20,14 30,23 -6,8 -12,15 -21,21 -10,-8 -20,-15 -30,-22 7,-8 14,-15 20,-22zm5 96c-17,0 -30,11 -30,19 0,17 33,23 73,23 -5,-20 -22,-42 -43,-42zm-37 93c22,0 41,-1 55,-4 16,-4 30,-12 30,-18 0,-2 0,-3 -1,-5 -9,1 -19,1 -29,1 -29,0 -52,-7 -61,-23 -2,-5 -4,-10 -4,-16 0,-16 7,-32 19,-42 10,-9 21,-14 33,-14 20,0 37,16 48,42 6,14 11,30 11,51 0,14 -4,25 -12,34 -16,15 -45,21 -90,21l-20 0 0 0 -5 0c-11,0 -19,-2 -25,-7l-1 0c0,3 1,5 1,7 0,10 -3,23 -10,33 -20,30 -42,43 -60,43 -19,0 -42,-7 -63,-17l4 -7c7,3 16,5 29,5 34,0 78,-33 84,-64 -1,-3 -4,-6 -7,-10 -10,-12 -16,-22 -22,-32 5,-10 10,-18 14,-25l2 0c14,29 28,46 57,46l5 0 0 0 21 0zm-146 31c2,-14 3,-29 3,-43l0 -21c0,-39 -5,-96 -9,-133 7,-8 17,-17 25,-23l2 1c5,47 7,101 7,151 0,13 -1,26 -2,35 -1,12 -8,21 -22,35l-3 -1 0 0 0 0zm-151 -62c1,18 10,33 41,33 20,0 36,-5 55,-14 3,-1 5,-3 5,-5 0,-12 -9,-27 -24,-41 -14,-13 -34,-25 -51,-32 -6,-3 -8,-5 -8,-8 0,-5 7,-16 13,-24l2 0c20,11 43,27 60,44 15,16 25,33 25,51 0,13 -4,26 -11,38 -22,11 -46,20 -70,20 -29,0 -48,-14 -48,-45 0,-3 0,-9 1,-16l10 0 0 0 0 0zm-52 -52l18 29c7,11 13,22 13,41l0 24c0,19 -12,39 -32,60 -15,14 -29,20 -42,20 -19,0 -40,-6 -65,-17l3 -7c8,2 17,4 28,4 36,0 72,-26 89,-58 2,-4 3,-7 3,-9 0,-4 -2,-8 -4,-11 -9,-17 -19,-33 -30,-47 6,-9 12,-18 18,-27l2 0 0 0 0 0z"/>
  <g id="_2020113603168">
   <g>
    <path class="fil3" d="M1729 623l202 -123 -177 0c-14,0 -25,11 -25,25l0 98z"/>
    <polygon class="fil4" points="1899,501 1729,605 1729,600 1892,501 "/>
    <path class="fil4" d="M1892 501l-163 100 0 -75c0,-14 11,-25 25,-25l139 0z"/>
    <polygon class="fil3" points="1931,501 1729,623 1729,801 2242,501 "/>
    <polygon class="fil4" points="2203,501 1729,779 1729,733 2121,501 "/>
    <polygon class="fil4" points="2121,501 1729,733 1729,706 2072,501 "/>
    <polygon class="fil4" points="2506,525 1729,965 1729,1007 2589,525 "/>
    <path class="fil4" d="M2589 525l-860 482 0 772c0,14 11,25 25,25l778 0 58 -25 0 -1254z"/>
    <polygon class="fil4" points="2442,1042 1729,1406 1729,1180 2442,796 "/>
    <polygon class="fil4" points="2442,796 1729,1180 1729,1155 2393,796 "/>
    <path class="fil4" d="M2491 1779l-58 25 -680 0c-14,0 -25,-11 -25,-25l0 -170 762 -371 0 541z"/>
    <path class="fil4" d="M2393 1597l-458 207 -181 0c-14,0 -25,-11 -25,-25l0 -46 664 -313 0 176z"/>
    <polygon class="fil4" points="2393,1421 1729,1734 1729,1676 2351,1379 "/>
    <path class="fil4" d="M1729 546l73 -45 -49 0c-14,0 -25,11 -25,25l0 21z"/>
    <polygon class="fil4" points="1952,501 1729,636 1729,608 1904,501 "/>
    <polygon class="fil4" points="2072,501 1729,706 1729,636 1952,501 "/>
    <polygon class="fil4" points="2024,501 1729,678 1729,649 1975,501 "/>
    <polygon class="fil3" points="1796,501 1729,543 1729,577 1853,501 "/>
    <polygon class="fil4" points="2319,1042 1729,1348 1729,1072 2319,747 "/>
    <polygon class="fil4" points="2393,1042 1729,1383 1729,1348 2319,1042 "/>
    <polygon class="fil3" points="2242,501 1729,801 1729,876 2381,501 "/>
    <polygon class="fil4" points="2491,599 1729,1024 1729,1027 2504,596 2501,597 2499,598 2496,599 2494,599 "/>
    <polygon class="fil3" points="2381,501 1729,876 1729,1002 2491,575 2476,501 "/>
    <polygon class="fil4" points="2461,550 1729,964 1729,642 1882,550 "/>
    <polygon class="fil4" points="1833,590 1729,653 1729,673 1852,599 1849,599 1846,599 1844,598 1841,597 1839,596 1837,594 1835,592 "/>
    <polygon class="fil4" points="1852,599 1729,673 1729,1024 2491,599 "/>
    <polygon class="fil4" points="2196,697 1729,962 1729,935 2147,697 "/>
    <polygon class="fil4" points="2319,747 1729,1072 1729,1047 2270,747 "/>
    <polygon class="fil4" points="2196,1042 1729,1287 1729,962 2196,697 "/>
    <polygon class="fil4" points="2270,1042 1729,1324 1729,1287 2196,1042 "/>
    <polygon class="fil4" points="2147,1042 1729,1263 1729,1225 2073,1042 "/>
    <polygon class="fil4" points="2073,747 1729,942 1729,915 2024,747 "/>
    <polygon class="fil4" points="2073,1042 1729,1225 1729,942 2073,747 "/>
    <polygon class="fil4" points="2491,1091 1729,1474 1729,1429 2491,1042 "/>
    <polygon class="fil4" points="1882,550 1729,642 1729,575 1850,501 1891,501 "/>
    <polygon class="fil4" points="1836,525 1729,591 1729,630 1828,570 "/>
    <polygon class="fil4" points="1950,796 1729,922 1729,895 1901,796 "/>
    <polygon class="fil4" points="1950,1042 1729,1161 1729,922 1950,796 "/>
    <polygon class="fil4" points="2024,1042 1729,1200 1729,1161 1950,1042 "/>
    <polygon class="fil4" points="2491,1042 1729,1429 1729,1406 2442,1042 "/>
    <polygon class="fil4" points="2491,1238 1729,1609 1729,1251 1753,1238 "/>
    <polygon class="fil4" points="1802,1337 1729,1375 1729,1437 1925,1337 "/>
    <polygon class="fil4" points="1802,1288 1729,1326 1729,1375 1802,1337 "/>
    <polygon class="fil4" points="1828,570 1729,630 1729,653 1833,590 1831,588 1830,586 1829,583 1828,581 1827,578 1827,575 1827,572 "/>
    <path class="fil4" d="M1765 501l-36 22c0,1 0,2 0,2l0 23 78 -48 -41 0z"/>
    <path class="fil4" d="M1750 501l-17 10c-2,3 -4,7 -4,12l36 -22 -12 0c-1,0 -2,0 -4,0z"/>
    <polygon class="fil4" points="1753,525 1729,541 1729,591 1836,525 "/>
    <polygon class="fil4" points="1901,1042 1729,1135 1729,1109 1852,1042 "/>
    <polygon class="fil4" points="1729,1153 1753,1140 1729,1140 "/>
    <polygon class="fil4" points="2351,1379 1729,1676 1729,1657 2343,1361 2343,1364 2344,1366 2344,1368 2345,1371 2346,1373 2347,1375 2349,1377 "/>
    <polygon class="fil4" points="2343,1361 1729,1657 1729,1634 2343,1337 "/>
    <polygon class="fil4" points="2343,1337 1729,1634 1729,1555 2171,1337 "/>
    <polygon class="fil4" points="2171,1337 1729,1555 1729,1508 2171,1288 "/>
    <path class="fil5" d="M2112 1642l-351 162 -8 0c-14,0 -25,-11 -25,-25l0 -276 256 -128 7 -3 7 -3 7 -2 7 -2 7 -2 7 -1 7 -1 7 -1 8 0 8 0 7 1 7 1 7 1 7 2 7 2 7 2 7 3 7 3 6 3 6 4 6 4 6 4 6 4 5 5 5 5 5 5 5 5 4 6 4 6 4 6 4 6 3 6 3 7 3 7 2 7 2 7 2 7 1 7 1 7 1 7 0 8 0 8 -1 7 -1 7 -1 7 -2 7 -2 7 -2 7 -3 7 -3 7 -3 6 -4 6 -4 6 -4 6 -4 6 -5 5 -5 5 -5 5 -5 5 -6 4 -6 4 -6 4 -6 4 -6 3z"/>
    <path class="fil4" d="M2048 1632l-320 149c0,4 1,7 3,11l364 -169 -11 4 -12 3 -12 2 -13 1z"/>
    <path class="fil4" d="M1925 1509l-197 96 0 175c0,0 0,1 0,1l320 -149 -13 -1 -12 -2 -12 -3 -11 -4 -11 -5 -10 -6 -9 -7 -9 -8 -8 -9 -7 -9 -6 -10 -5 -11 -4 -11 -3 -12 -2 -12 -1 -13z"/>
    <polygon class="fil4" points="1990,1401 1729,1530 1729,1605 1925,1509 1926,1496 1928,1484 1931,1472 1935,1461 1940,1450 1946,1440 1954,1431 1961,1422 1970,1414 1980,1407 "/>
    <polygon class="fil4" points="1876,1509 1729,1581 1729,1477 1974,1354 1966,1357 1959,1362 1952,1366 1945,1371 1939,1376 1933,1381 1927,1387 1921,1393 1916,1399 1910,1406 1906,1413 1901,1420 1897,1427 1893,1434 1890,1442 1887,1450 1884,1458 1882,1466 1880,1474 1878,1483 1877,1491 1876,1500 "/>
    <path class="fil4" d="M2048 1681l-267 123 -28 0c-14,0 -25,-11 -25,-25l0 -198 148 -72 0 9 1 9 1 9 2 8 2 8 2 8 3 8 3 8 3 8 4 7 4 7 4 7 5 7 5 7 5 6 6 6 6 6 6 5 7 5 7 5 7 4 7 4 7 4 8 3 8 3 8 3 8 2 8 2 8 2 9 1 9 1 9 0z"/>
    <path class="fil4" d="M1876 1681l-148 69 0 29c0,6 2,12 6,16l141 -66 0 -49z"/>
    <polygon class="fil4" points="1753,1238 1729,1251 1729,1202 1753,1189 "/>
    <path class="fil6" d="M1740 505l-4 3c1,-1 2,-2 4,-3zm-4 3l-3 4c1,-1 2,-3 3,-4zm-3 4l-2 4c1,-1 1,-3 2,-4zm-2 4l-1 5c0,-2 1,-3 1,-5zm-1 5l-1 5c0,-2 0,-3 1,-5z"/>
    <path class="fil6" d="M2589 1804l5 -1c-2,0 -3,1 -5,1zm5 -1l5 -1c-1,1 -3,1 -5,1z"/>
    <path class="fil4" d="M1876 1730l-141 66c5,5 11,8 18,8l12 0 160 -74 -49 0z"/>
    <polygon class="fil4" points="2343,1681 2067,1804 2014,1804 2343,1656 "/>
    <polygon class="fil4" points="2343,1656 2014,1804 1984,1804 2351,1639 2349,1641 2347,1643 2346,1645 2345,1647 2344,1649 2344,1651 2343,1654 "/>
    <polygon class="fil4" points="2368,1730 2200,1804 2007,1804 2171,1730 "/>
    <polygon class="fil4" points="2351,1639 1984,1804 1935,1804 2393,1597 "/>
    <polygon class="fil4" points="2171,1730 2007,1804 1900,1804 2171,1681 "/>
    <polygon class="fil4" points="2378,1728 2205,1804 2200,1804 2368,1730 2373,1730 "/>
    <polygon class="fil4" points="2123,1664 1818,1804 1781,1804 2048,1681 2057,1681 2066,1680 2075,1679 2083,1677 2091,1675 2099,1673 2107,1670 2115,1667 "/>
    <path class="fil4" d="M1750 1804l53 -24 0 25 -49 0c-1,0 -2,0 -4,0z"/>
    <polygon class="fil7" points="2498,1802 2493,1804 2487,1804 2493,1803 "/>
    <path class="fil6" d="M1729 1779l1 5c0,-2 -1,-3 -1,-5zm1 5l1 5c-1,-1 -1,-3 -1,-5zm1 5l2 4c-1,-1 -2,-3 -2,-4zm2 4l3 4c-1,-1 -2,-2 -3,-4zm3 4l4 3c-1,-1 -3,-2 -4,-3zm4 3l4 2c-1,-1 -3,-1 -4,-2zm4 2l5 1c-2,0 -3,-1 -5,-1zm5 1l5 1c-2,0 -3,0 -5,-1z"/>
    <polygon class="fil4" points="2565,1779 2507,1804 2565,1804 "/>
   </g>
   <g>
    <path class="fil4" d="M1655 1214l832 0c16,0 29,11 29,25l0 541c0,14 -13,25 -29,25l-832 0 0 -590z"/>
    <polygon class="fil4" points="2105,1214 1655,1444 1655,1220 1666,1214 "/>
    <polygon class="fil4" points="1666,1214 1655,1220 1655,1214 "/>
    <polygon class="fil4" points="2491,1779 2433,1804 1655,1804 1655,1645 2491,1238 "/>
    <polygon class="fil4" points="2393,1597 1935,1804 1655,1804 1655,1768 2393,1421 "/>
    <polygon class="fil4" points="2393,1421 1655,1768 1655,1712 2351,1379 "/>
    <polygon class="fil4" points="1987,1214 1655,1386 1655,1214 "/>
    <polygon class="fil4" points="2058,1214 1655,1421 1655,1386 1987,1214 "/>
    <polygon class="fil4" points="1869,1214 1655,1326 1655,1214 "/>
    <polygon class="fil4" points="1940,1214 1655,1362 1655,1326 1869,1214 "/>
    <polygon class="fil4" points="1821,1214 1655,1302 1655,1265 1750,1214 "/>
    <polygon class="fil4" points="1750,1214 1655,1265 1655,1214 "/>
    <polygon class="fil4" points="2247,1214 1655,1511 1655,1467 2152,1214 "/>
    <polygon class="fil4" points="1703,1214 1655,1239 1655,1214 "/>
    <polygon class="fil4" points="2152,1214 1655,1467 1655,1444 2105,1214 "/>
    <polygon class="fil4" points="2491,1238 1655,1645 1655,1290 1753,1238 "/>
    <polygon class="fil4" points="1802,1337 1655,1413 1655,1474 1925,1337 "/>
    <polygon class="fil4" points="1802,1288 1655,1364 1655,1413 1802,1337 "/>
    <polygon class="fil4" points="2351,1379 1655,1712 1655,1692 2343,1361 2343,1364 2344,1366 2344,1368 2345,1371 2346,1373 2347,1375 2349,1377 "/>
    <polygon class="fil4" points="2343,1361 1655,1692 1655,1670 2343,1337 "/>
    <polygon class="fil4" points="2343,1337 1655,1670 1655,1591 2171,1337 "/>
    <polygon class="fil4" points="2171,1337 1655,1591 1655,1545 2171,1288 "/>
    <polygon class="fil5" points="2112,1642 1761,1804 1655,1804 1655,1540 1984,1376 1991,1373 1998,1370 2004,1368 2011,1366 2019,1364 2026,1363 2033,1362 2041,1361 2048,1361 2056,1361 2063,1362 2071,1363 2078,1364 2085,1366 2092,1368 2099,1370 2106,1373 2112,1376 2119,1379 2125,1383 2131,1386 2137,1391 2142,1395 2148,1400 2153,1404 2158,1410 2162,1415 2167,1421 2171,1426 2174,1432 2178,1438 2181,1445 2184,1451 2187,1458 2189,1465 2191,1472 2193,1479 2194,1486 2195,1494 2196,1501 2196,1509 2196,1516 2195,1524 2194,1531 2193,1538 2191,1546 2189,1553 2187,1559 2184,1566 2181,1573 2178,1579 2174,1585 2171,1591 2167,1597 2162,1603 2158,1608 2153,1613 2148,1618 2142,1623 2137,1627 2131,1631 2125,1635 2119,1638 "/>
    <polygon class="fil4" points="2048,1632 1679,1804 1705,1804 2096,1622 2085,1626 2073,1629 2061,1631 "/>
    <polygon class="fil4" points="1925,1509 1655,1641 1655,1804 1679,1804 2048,1632 2036,1631 2024,1629 2012,1626 2001,1622 1990,1617 1980,1611 1970,1604 1961,1596 1954,1587 1946,1577 1940,1567 1935,1557 1931,1545 1928,1534 1926,1521 "/>
    <polygon class="fil4" points="1990,1401 1655,1567 1655,1641 1925,1509 1926,1496 1928,1484 1931,1472 1935,1461 1940,1450 1946,1440 1954,1431 1961,1422 1970,1414 1980,1407 "/>
    <polygon class="fil4" points="1876,1509 1655,1617 1655,1514 1974,1354 1966,1357 1959,1362 1952,1366 1945,1371 1939,1376 1933,1381 1927,1387 1921,1393 1916,1399 1910,1406 1906,1413 1901,1420 1897,1427 1893,1434 1890,1442 1887,1450 1884,1458 1882,1466 1880,1474 1878,1483 1877,1491 1876,1500 "/>
    <polygon class="fil4" points="2048,1681 1781,1804 1655,1804 1655,1617 1876,1509 1876,1518 1877,1526 1878,1535 1880,1543 1882,1552 1884,1560 1887,1568 1890,1576 1893,1583 1897,1591 1901,1598 1906,1605 1910,1612 1916,1618 1921,1624 1927,1630 1933,1636 1939,1642 1945,1647 1952,1651 1959,1656 1966,1660 1974,1664 1981,1667 1989,1670 1997,1673 2005,1675 2014,1677 2022,1679 2031,1680 2040,1681 "/>
    <polygon class="fil4" points="1876,1681 1655,1785 1655,1804 1717,1804 1876,1730 "/>
    <polygon class="fil4" points="1753,1238 1655,1290 1655,1242 1707,1214 1753,1214 "/>
    <polygon class="fil6" points="1729,1779 1676,1804 1655,1804 1655,1214 1729,1214 "/>
    <polygon class="fil4" points="1704,1762 1655,1785 1655,1777 1656,1777 1664,1776 1672,1774 1680,1772 1688,1769 1696,1766 "/>
    <polygon class="fil8" points="1714,1785 1674,1804 1655,1804 1655,1802 1660,1802 1669,1800 1679,1798 1688,1795 1697,1792 1706,1789 "/>
    <polygon class="fil4" points="1876,1730 1717,1804 1765,1804 1925,1730 "/>
    <polygon class="fil4" points="2343,1681 2067,1804 2014,1804 2343,1656 "/>
    <polygon class="fil4" points="2343,1656 2014,1804 1984,1804 2351,1639 2349,1641 2347,1643 2346,1645 2345,1647 2344,1649 2344,1651 2343,1654 "/>
    <polygon class="fil4" points="2368,1730 2200,1804 2007,1804 2171,1730 "/>
    <polygon class="fil4" points="2351,1639 1984,1804 1935,1804 2393,1597 "/>
    <polygon class="fil4" points="2171,1730 2007,1804 1900,1804 2171,1681 "/>
    <polygon class="fil4" points="2378,1728 2205,1804 2200,1804 2368,1730 2373,1730 "/>
    <polygon class="fil4" points="2123,1664 1818,1804 1781,1804 2048,1681 2057,1681 2066,1680 2075,1679 2083,1677 2091,1675 2099,1673 2107,1670 2115,1667 "/>
    <polygon class="fil4" points="1749,1804 1802,1779 1802,1804 "/>
    <path class="fil7" d="M2487 1804l6 -1c-2,0 -4,1 -6,1zm6 -1l5 -1c-2,1 -4,1 -5,1z"/>
    <polygon class="fil6" points="1676,1804 1729,1779 1729,1784 1731,1789 1733,1793 1736,1797 1740,1800 1744,1802 1748,1803 1753,1804 "/>
   </g>
   <g>
    <path class="fil4" d="M2473 1828l61 -26c4,-7 6,-15 6,-23l0 -541c0,-27 -22,-49 -49,-49l-738 0 0 49 738 0 0 541 -688 0 0 49 670 0z"/>
    <polygon class="fil4" points="2153,1189 2057,1238 1753,1238 1753,1189 "/>
    <polygon class="fil4" points="2491,1779 2376,1828 1802,1828 1802,1779 "/>
    <polygon class="fil4" points="1989,1779 1880,1828 1802,1828 1802,1779 "/>
    <polygon class="fil4" points="2034,1189 1939,1238 1753,1238 1753,1189 "/>
    <polygon class="fil4" points="2106,1189 2010,1238 1939,1238 2034,1189 "/>
    <polygon class="fil4" points="1915,1189 1822,1238 1753,1238 1753,1189 "/>
    <polygon class="fil4" points="1987,1189 1892,1238 1822,1238 1915,1189 "/>
    <polygon class="fil4" points="1868,1189 1775,1238 1753,1238 1753,1212 1796,1189 "/>
    <polygon class="fil4" points="1796,1189 1753,1212 1753,1189 "/>
    <polygon class="fil4" points="2295,1189 2198,1238 2104,1238 2201,1189 "/>
    <polygon class="fil4" points="2201,1189 2104,1238 2057,1238 2153,1189 "/>
    <polygon class="fil5" points="1814,1779 1802,1785 1802,1779 "/>
    <polygon class="fil4" points="1835,1779 1802,1794 1802,1779 "/>
    <polygon class="fil4" points="1802,1787 1819,1779 1802,1779 "/>
    <polygon class="fil4" points="2122,1779 2012,1828 1959,1828 2069,1779 "/>
    <polygon class="fil4" points="2069,1779 1959,1828 1929,1828 2038,1779 "/>
    <polygon class="fil4" points="2256,1779 2143,1828 1952,1828 2062,1779 "/>
    <polygon class="fil4" points="2038,1779 1929,1828 1880,1828 1989,1779 "/>
    <polygon class="fil4" points="2062,1779 1952,1828 1846,1828 1955,1779 "/>
    <path class="fil6" d="M1802 1804l731 0c-9,15 -24,25 -43,25l-688 0 0 -25z"/>
    <polygon class="fil4" points="2261,1779 2149,1828 2143,1828 2256,1779 "/>
    <polygon class="fil4" points="1871,1779 1802,1811 1802,1794 1835,1779 "/>
    <polygon class="fil7" points="2498,1802 2435,1828 2429,1828 2487,1804 2493,1803 "/>
    <path class="fil4" d="M2539 1790l-90 38 42 0c23,0 43,-16 48,-38z"/>
    <polygon class="fil7" points="2487,1804 2429,1828 1802,1828 1802,1804 "/>
    <path class="fil4" d="M2491 1828l5 0c-2,0 -3,0 -5,0zm5 0l5 -1c-2,0 -3,1 -5,1zm5 -1l5 -1c-2,0 -3,1 -5,1zm5 -1l5 -2c-1,1 -3,1 -5,2z"/>
   </g>
   <g>
    <path class="fil4" d="M2196 1509c0,-81 -66,-148 -148,-148 -81,0 -148,66 -148,148 0,81 66,148 148,148 81,0 148,-66 148,-148z"/>
    <path class="fil4" d="M1902 1525l250 -122c27,27 44,64 44,105 0,81 -66,148 -148,148 -76,0 -138,-57 -147,-131z"/>
    <path class="fil4" d="M1958 1625l238 -112c-2,79 -68,143 -147,143 -34,0 -65,-11 -90,-31z"/>
    <path class="fil4" d="M2196 1513l-238 112c-15,-11 -27,-25 -37,-41l265 -127c6,16 9,33 9,52 0,2 0,3 0,5z"/>
    <path class="fil4" d="M2152 1403l-250 122c-1,-5 -1,-11 -1,-16 0,-81 66,-148 148,-148 40,0 77,16 103,42z"/>
    <path class="fil4" d="M2187 1457l-265 127c-3,-5 -6,-10 -8,-16l266 -128c3,5 5,11 8,17z"/>
    <path class="fil4" d="M2179 1440l-266 128c-3,-6 -5,-13 -7,-20l261 -126c4,6 8,12 12,19z"/>
    <path class="fil4" d="M2167 1422l-261 126c-3,-13 -5,-26 -5,-39 0,-14 2,-28 6,-42l195 -96c27,10 49,28 66,51z"/>
    <path class="fil4" d="M2101 1371l-195 96c8,-28 24,-52 46,-70l64 -32c10,-2 21,-3 32,-3 19,0 37,3 53,10z"/>
    <path class="fil5" d="M2112 1642l-4 2c-18,8 -39,13 -60,13 -81,0 -148,-66 -148,-148 0,-57 32,-107 80,-131l4 -2 7 -3 7 -3 7 -2 7 -2 7 -2 7 -1 7 -1 7 -1 8 0 8 0 7 1 7 1 7 1 7 2 7 2 7 2 7 3 0 0 0 0 0 0 6 3 6 3 6 4 6 4 6 4 6 4 5 5 5 5 0 0 5 5 5 5 4 6 4 6 4 6 4 6 3 6 3 7 0 0 3 7 2 7 2 7 2 7 1 7 1 7 1 7 0 8 0 8 -1 7 -1 7 -1 7 -2 7 -2 7 -2 7 -3 7 -3 7 -3 6 -4 6 -4 6 -4 6 -4 6 -5 5 -5 5 -5 5 -5 5 -6 4 -6 4 -6 4 -6 4 -6 3z"/>
    <path class="fil4" d="M2048 1632l-41 19c6,2 12,3 18,4l70 -33 -11 4 -12 3 -12 2 -13 1z"/>
    <path class="fil4" d="M1925 1509l-24 12c5,62 48,113 106,130l41 -19 -13 -1 -12 -2 -12 -3 -11 -4 -11 -5 -10 -6 -9 -7 -9 -8 -8 -9 -7 -9 -6 -10 -5 -11 -4 -11 -3 -12 -2 -12 -1 -13z"/>
    <path class="fil4" d="M1990 1401l-69 34c-13,22 -20,47 -20,74 0,4 0,8 0,12l24 -12 1 -13 2 -12 3 -12 4 -11 5 -11 6 -10 7 -9 8 -9 9 -8 9 -7 10 -6z"/>
   </g>
   <g>
    <path class="fil4" d="M2048 1681c-95,0 -172,-77 -172,-172 0,-95 77,-172 172,-172 95,0 172,77 172,172 0,95 -77,172 -172,172zm0 -295c-68,0 -123,55 -123,123 0,68 55,123 123,123 68,0 123,-55 123,-123 0,-68 -55,-123 -123,-123z"/>
    <path class="fil4" d="M1878 1536l47 -23c3,66 57,118 123,118 68,0 123,-55 123,-123 0,-38 -17,-71 -43,-94l47 -23c28,31 46,72 46,117 0,95 -77,172 -172,172 -85,0 -157,-63 -170,-144z"/>
    <path class="fil4" d="M1934 1637l50 -24c19,12 41,18 65,18 62,0 114,-46 122,-106l50 -24c0,2 0,5 0,7 0,95 -77,172 -172,172 -44,0 -84,-17 -115,-44z"/>
    <path class="fil4" d="M2220 1502l-50 24c1,-5 1,-11 1,-17 0,-14 -2,-28 -7,-41l45 -21c7,17 11,36 12,55zm-236 112l-50 24c-14,-12 -25,-26 -34,-42l45 -21c10,16 24,30 40,40z"/>
    <path class="fil4" d="M2175 1392l-47 23c-21,-18 -49,-29 -79,-29 -68,0 -123,55 -123,123 0,2 0,3 0,5l-47 23c-1,-9 -2,-18 -2,-28 0,-95 77,-172 172,-172 50,0 95,21 126,56z"/>
    <path class="fil4" d="M2209 1447l-45 21c-2,-6 -5,-11 -7,-17l44 -21c3,5 5,11 8,17zm-265 127l-45 21c-3,-5 -6,-10 -8,-16l44 -21c2,6 5,11 8,16z"/>
    <path class="fil4" d="M2201 1430l-44 21c-3,-6 -7,-13 -12,-18l45 -22c4,6 8,12 11,19zm-266 128l-44 21c-3,-6 -5,-13 -7,-20l45 -22c2,7 4,14 7,20z"/>
    <path class="fil4" d="M2190 1411l-45 22c-19,-24 -46,-40 -77,-45l61 -30c24,13 45,31 60,54zm-261 126l-45 22c-5,-16 -7,-33 -7,-50 0,-9 1,-19 2,-28l62 -30c-9,17 -15,37 -15,58 0,10 1,19 3,28z"/>
    <path class="fil4" d="M2130 1357l-61 30c-6,-1 -13,-2 -20,-2 -47,0 -88,26 -108,65l-62 30c3,-21 10,-40 20,-58l171 -85c21,3 42,9 60,19z"/>
    <path class="fil5" d="M2112 1642l-83 38c-86,-9 -153,-82 -153,-171 0,-34 10,-66 27,-92l81 -41 7 -3 7 -3 7 -2 7 -2 7 -2 7 -1 7 -1 7 -1 8 0 8 0 7 1 7 1 7 1 7 2 7 2 7 2 7 3 7 3 6 3 6 4 6 4 6 4 6 4 5 5 5 5 5 5 5 5 4 6 4 6 4 6 4 6 3 6 3 7 3 7 2 7 2 7 2 7 1 7 1 7 1 7 0 8 0 8 -1 7 -1 7 -1 7 -2 7 -2 7 -2 7 -3 7 -3 7 -3 6 -4 6 -4 6 -4 6 -4 6 -5 5 -5 5 -5 5 -5 5 -6 4 -6 4 -6 4 -6 4 -6 3zm-64 -256c-68,0 -123,55 -123,123 0,68 55,123 123,123 68,0 123,-55 123,-123 0,-68 -55,-123 -123,-123z"/>
    <path class="fil4" d="M2048 1632l-72 33c5,2 9,4 14,6l105 -49c-4,2 -7,3 -11,4 -4,1 -8,2 -12,3 -4,1 -8,1 -12,2 -4,0 -8,1 -13,1z"/>
    <path class="fil4" d="M1925 1509l-48 23c8,59 46,109 99,133l72 -33c-4,0 -8,0 -13,-1 -4,0 -8,-1 -12,-2 -4,-1 -8,-2 -12,-3 -4,-1 -8,-3 -11,-4 -4,-2 -7,-3 -11,-5 -3,-2 -7,-4 -10,-6 -3,-2 -6,-5 -9,-7 -3,-3 -6,-5 -9,-8 -3,-3 -5,-6 -8,-9 -3,-3 -5,-6 -7,-9 -2,-3 -4,-7 -6,-10 -2,-3 -4,-7 -5,-11 -2,-4 -3,-7 -4,-11 -1,-4 -2,-8 -3,-12 -1,-4 -1,-8 -2,-12 0,-4 -1,-8 -1,-13z"/>
    <path class="fil4" d="M1990 1401l-104 52c-6,18 -10,37 -10,56 0,8 1,16 2,23l48 -23c0,-4 0,-8 1,-13 0,-4 1,-8 2,-12 1,-4 2,-8 3,-12 1,-4 3,-8 4,-11 2,-4 3,-7 5,-11 2,-3 4,-7 6,-10 2,-3 5,-6 7,-9 3,-3 5,-6 8,-9 3,-3 6,-5 9,-8 3,-3 6,-5 9,-7 3,-2 7,-4 10,-6z"/>
    <g>
     <path class="fil4" d="M1969 1356l4 -2 -7 4c-2,1 -5,3 -7,4l-7 4c2,-2 5,-3 7,-4l7 -4 3 -2zm-17 10l-7 5c2,-2 4,-3 7,-5zm-7 5l-7 5c2,-2 4,-3 7,-5zm-7 5l-6 5c2,-2 4,-4 6,-5zm-6 5l-6 6c2,-2 4,-4 6,-6zm-6 6l-6 6c2,-2 4,-4 6,-6zm-6 6l-5 6c2,-2 4,-4 5,-6zm-5 6l-5 7c2,-2 3,-4 5,-7zm-5 7l-5 7c2,-2 3,-5 5,-7zm-5 7l-4 7c1,-2 3,-5 4,-7zm-4 7l-4 7c1,-2 3,-5 4,-7zm-4 7l-4 7c1,-3 2,-5 4,-7zm-4 7l-3 8c1,-3 2,-5 3,-8zm-3 8l-3 8c1,-3 2,-5 3,-8zm-3 8l-3 8c1,-3 2,-5 3,-8zm-3 8l-2 8c1,-3 1,-5 2,-8zm-2 8l-2 8c1,-3 1,-6 2,-8zm-2 8l-2 8c0,-3 1,-6 2,-8zm-2 8l-1 9c0,-3 1,-6 1,-9zm-1 9l-1 9c0,-3 0,-6 1,-9zm-1 9l0 9c0,-3 0,-6 0,-9z"/>
    </g>
    <path class="fil4" d="M1876 1509l0 9c0,-3 0,-6 0,-9zm0 9l1 9c0,-3 -1,-6 -1,-9zm1 9l1 9c0,-3 -1,-6 -1,-9zm1 9l2 8c-1,-3 -1,-6 -2,-8zm2 8l2 8c-1,-3 -1,-6 -2,-8zm2 8l2 8c-1,-3 -2,-5 -2,-8zm2 8l3 8c-1,-3 -2,-5 -3,-8zm3 8l3 8c-1,-3 -2,-5 -3,-8zm3 8l3 8c-1,-3 -2,-5 -3,-8zm3 8l4 7c-1,-2 -3,-5 -4,-7zm4 7l4 7c-1,-2 -3,-5 -4,-7zm4 7l4 7c-2,-2 -3,-5 -4,-7zm4 7l5 7c-2,-2 -3,-4 -5,-7zm5 7l5 7c-2,-2 -3,-4 -5,-7zm5 7l5 6c-2,-2 -4,-4 -5,-6zm5 6l6 6c-2,-2 -4,-4 -6,-6zm6 6l6 6c-2,-2 -4,-4 -6,-6zm6 6l6 5c-2,-2 -4,-4 -6,-5zm6 5l7 5c-2,-2 -4,-3 -7,-5zm7 5l7 5c-2,-2 -5,-3 -7,-5zm7 5l7 4c-2,-1 -5,-3 -7,-4zm7 4l7 4c-2,-1 -5,-3 -7,-4zm7 4l7 4c-3,-1 -5,-2 -7,-4zm7 4l8 3c-3,-1 -5,-2 -8,-3zm8 3l8 3c-3,-1 -5,-2 -8,-3zm8 3l8 3c-3,-1 -5,-2 -8,-3zm8 3l8 2c-3,-1 -5,-1 -8,-2zm8 2l8 2c-3,-1 -6,-1 -8,-2zm8 2l8 2c-3,0 -6,-1 -8,-2zm8 2l9 1c-3,0 -6,-1 -9,-1zm9 1l9 1c-3,0 -6,0 -9,-1zm9 1l9 0c-3,0 -6,0 -9,0z"/>
    <path class="fil4" d="M2123 1664l-6 3 -2 1 8 -3zm-75 17l9 0c-3,0 -6,0 -9,0zm9 0l9 -1c-3,0 -6,1 -9,1zm9 -1l9 -1c-3,0 -6,1 -9,1zm9 -1l8 -2c-3,1 -6,1 -8,2zm8 -2l8 -2c-3,1 -6,1 -8,2zm8 -2l8 -2c-3,1 -5,2 -8,2zm8 -2l8 -3c-3,1 -5,2 -8,3zm8 -3l8 -3c-3,1 -5,2 -8,3z"/>
   </g>
   <g id="_2020114301824">
    <path class="fil4" d="M2368 1730l-197 0 0 -49 172 0 0 -25c0,-7 3,-13 7,-17l42 -42 0 -176 -42 -42c-5,-5 -7,-11 -7,-17l0 -25 -172 0 0 -49 197 0c14,0 25,11 25,25l0 39 42 42c5,5 7,11 7,17l0 197c0,7 -3,13 -7,17l-42 42 0 39c0,14 -11,25 -25,25z"/>
    <path class="fil4" d="M2289 1337l93 -45c7,4 11,12 11,21l0 39 42 42c5,5 7,11 7,17l0 197c0,7 -3,13 -7,17l-42 42 0 39c0,14 -11,25 -25,25l-197 0 0 -49 172 0 0 -25c0,-7 3,-13 7,-17l42 -42 0 -176 -42 -42c-5,-5 -7,-11 -7,-17l0 -25 -55 0z"/>
    <polygon class="fil4" points="2207,1681 2171,1697 2171,1681 "/>
    <path class="fil4" d="M2381 1292l-93 45 -118 0 0 -49 197 0c5,0 10,2 14,4z"/>
    <path class="fil4" d="M2343 1361l0 2c0,-1 0,-2 0,-2zm0 2l0 2c0,-1 0,-2 0,-2zm0 2l1 2c0,-1 0,-2 -1,-2zm1 2l1 2c0,-1 -1,-1 -1,-2zm1 2l1 2c0,-1 -1,-1 -1,-2zm1 2l1 2c0,-1 -1,-1 -1,-2zm1 2l1 2c-1,-1 -1,-1 -1,-2zm1 2l2 2c-1,-1 -1,-1 -2,-2z"/>
    <polygon class="fil4" points="2343,1681 2233,1730 2179,1730 2288,1681 "/>
    <path class="fil4" d="M2288 1681l-110 49 -7 0 0 -11 86 -39 31 0zm62 -42l-2 2c1,-1 1,-1 2,-2zm-2 2l-1 2c0,-1 1,-1 1,-2zm-1 2l-1 2c0,-1 1,-1 1,-2zm-1 2l-1 2c0,-1 1,-1 1,-2zm-1 2l-1 2c0,-1 1,-2 1,-2zm-1 2l-1 2c0,-1 0,-2 1,-2zm-1 2l0 2c0,-1 0,-2 0,-2zm0 2l0 2c0,-1 0,-2 0,-2z"/>
    <polygon class="fil4" points="2257,1681 2171,1719 2171,1697 2207,1681 "/>
    <path class="fil4" d="M2368 1730l5 -1c-2,0 -3,1 -5,1zm5 -1l5 -1c-1,1 -3,1 -5,1z"/>
   </g>
   <g id="_2020114300192">
    <polygon class="fil4" points="1802,1337 1925,1337 1925,1288 1802,1288 "/>
    <polygon class="fil4" points="1925,1306 1865,1337 1802,1337 1802,1288 1925,1288 "/>
    <polygon class="fil4" points="1845,1288 1802,1309 1802,1288 "/>
    <polygon class="fil4" points="1914,1288 1819,1337 1802,1337 1802,1309 1845,1288 "/>
    <polygon class="fil4" points="1911,1337 1925,1329 1925,1337 "/>
    <polygon class="fil4" points="1925,1329 1911,1337 1865,1337 1925,1306 "/>
    <polygon class="fil4" points="1802,1337 1925,1337 1925,1288 1802,1288 "/>
   </g>
   <g id="_2020114296928">
    <polygon class="fil4" points="1876,1730 1925,1730 1925,1681 1876,1681 "/>
    <polygon class="fil4" points="1876,1730 1925,1730 1925,1681 1876,1681 "/>
    <polygon class="fil4" points="1876,1730 1925,1730 1925,1681 1876,1681 "/>
    <polygon class="fil5" points="1925,1728 1921,1730 1876,1730 1876,1681 1925,1681 "/>
    <polygon class="fil4" points="1925,1689 1876,1712 1876,1724 1925,1701 "/>
    <polygon class="fil4" points="1876,1712 1925,1689 1925,1681 1876,1681 "/>
    <polygon class="fil4" points="1876,1730 1925,1730 1925,1681 1876,1681 "/>
   </g>
   <g id="_2020114289920">
    <polygon class="fil3" points="1858,545 2296,280 2048,280 1973,427 1876,452 "/>
    <polygon class="fil4" points="1986,448 1862,523 1863,519 1995,438 1994,441 1992,443 1990,445 1988,446 "/>
    <polygon class="fil4" points="1995,438 1863,519 1876,452 1973,427 2023,329 2063,304 "/>
    <polygon class="fil3" points="2296,280 1858,545 1852,575 2116,575 2368,427 "/>
    <polygon class="fil4" points="2245,476 2078,575 1996,575 2245,427 "/>
    <polygon class="fil4" points="2245,427 1996,575 1948,575 2196,427 "/>
    <polygon class="fil4" points="2484,538 2419,575 2491,575 "/>
    <polygon class="fil4" points="1875,456 1886,449 1876,452 "/>
    <polygon class="fil4" points="2196,353 1855,560 1861,527 2147,353 "/>
    <polygon class="fil4" points="2196,427 1948,575 1852,575 1855,560 2196,353 "/>
    <polygon class="fil4" points="2147,427 1901,575 1853,575 2098,427 "/>
    <polygon class="fil3" points="1868,491 1973,427 1876,452 "/>
    <polygon class="fil3" points="2368,427 2116,575 2253,575 2466,452 "/>
    <polygon class="fil3" points="2466,452 2253,575 2491,575 "/>
    <polygon class="fil4" points="2461,550 2417,575 1852,575 1853,567 1882,550 "/>
    <polygon class="fil4" points="1882,550 1853,567 1869,489 1897,472 "/>
   </g>
   <g id="_1985304046480">
    <path class="fil3" d="M2048 280l-41 25 -52 101 -86 22c-9,2 -16,10 -18,19l-6 29 -93 0c-27,0 -49,22 -49,49l0 113 49 -30 0 -83 83 0 -7 37 57 -35 11 -56 82 -21c7,-2 13,-6 16,-13l68 -134 192 0 41 -25 -247 0z"/>
    <path class="fil4" d="M1986 448l-1 0c-2,1 -4,2 -6,3l-8 2 24 -15 -1 2 -2 2 -2 2 -2 2 -2 2zm-96 58l-57 35 1 -5 57 -35 -1 5zm-137 83l-49 30 0 -4 49 -30 0 4z"/>
    <path class="fil4" d="M1995 438l-24 15 -73 19 -6 30 -57 35 2 -11 -83 0 0 60 -49 30 0 -89 82 -51 61 0 6 -29c2,-9 9,-17 18,-19l86 -22 26 -52 81 -50 -68 134z"/>
    <path class="fil3" d="M2296 280l-41 25 25 0 65 134c0,1 1,1 1,2l21 -12 -72 -148zm-410 248l-57 35 -1 7c-1,7 0,15 5,20 5,6 12,9 19,9l222 0 84 -49 -276 0 4 -22zm-133 80l-49 30 0 177 49 -29 0 -178z"/>
    <path class="fil4" d="M2119 550l-84 49 -81 0 83 -49 82 0zm-366 215l-49 29 0 -46 49 -29 0 46z"/>
    <path class="fil4" d="M2038 550l-83 49 -48 0 82 -49 48 0zm-284 169l-49 29 0 -28 49 -29 0 28z"/>
    <path class="fil4" d="M2506 525l-131 74 82 0 57 -32 -8 -42zm-753 425l-49 28 0 42 49 -28 0 -43z"/>
    <path class="fil4" d="M2514 567l-57 32 33 0c7,0 14,-3 19,-9 5,-6 7,-13 5,-20l-1 -3zm-761 426l-49 28 0 119 49 0 0 -147zm811 796l25 -10 -25 0 0 10z"/>
    <path class="fil4" d="M1704 561l49 -30 0 -5 9 0 80 -49 -89 0c-27,0 -49,22 -49,49l0 36zm143 -88l109 -67 -86 22c-9,2 -16,10 -18,19l-5 26z"/>
    <path class="fil4" d="M1883 542l-56 34c0,-2 0,-4 0,-7l5 -25 57 -35 -7 33zm-130 79l-49 30 0 -28 49 -30 0 28z"/>
    <path class="fil4" d="M1990 550l-82 49 -56 0c-7,0 -14,-3 -19,-9 -3,-4 -5,-9 -6,-14l56 -34 -2 8 108 0zm-236 141l-49 29 0 -70 49 -30 0 70z"/>
    <path class="fil4" d="M1942 550l-82 49 -8 0c-7,0 -14,-3 -19,-9 -1,-1 -1,-2 -2,-2l63 -38 48 0zm-188 113l-49 29 0 -28 49 -30 0 28z"/>
    <path class="fil3" d="M1876 452l-29 18 -1 7 -10 0 -80 49 56 0 85 -52 0 -2 5 -1 71 -43 -97 25zm-123 76l-49 30 0 34 49 -30 0 -34z"/>
    <polygon class="fil4" points="1704,1086 1753,1059 1753,1140 1704,1140 "/>
    <path class="fil3" d="M2368 427l-21 12c3,6 9,10 15,11l74 18 31 -18 -98 -25zm-210 123l-84 49 136 0 85 -49 -138 0zm-404 236l-49 29 0 75 49 -28 0 -76z"/>
    <path class="fil4" d="M1753 1010l-49 27 0 3 49 -27 0 -3zm749 -414l2 -1 -2 1 1 0zm-1 0l-2 1c1,0 2,-1 2,-1zm-2 1l-3 1c1,0 2,0 3,-1zm-3 1l-3 0c1,0 2,0 3,0zm-3 0l-3 0c1,0 2,0 3,0z"/>
    <path class="fil3" d="M2466 452l-31 18 10 2 16 78 -165 0 -85 49 237 0 44 -25 -25 -123zm-713 410l-49 28 0 125 49 -28 0 -126z"/>
    <path class="fil4" d="M2461 550l-87 49 -522 0c-7,0 -14,-3 -19,-9 -2,-2 -3,-5 -4,-8l53 -32 579 0zm-708 400l-49 28 0 -320 49 -30 0 322z"/>
    <path class="fil4" d="M1753 638l-49 30 0 20 49 -30 0 -20zm98 -39l-3 0c1,0 2,0 3,0zm-3 0l-3 0c1,0 2,0 3,0zm-3 0l-3 -1c1,0 2,1 3,1zm-3 -1l-2 -1c1,0 2,1 2,1zm-2 -1l-2 -1c1,0 2,1 2,1zm-2 -1l-2 -2c1,1 1,1 2,2zm-2 -2l-2 -2c1,1 1,1 2,2zm-2 -2l-2 -2c1,1 1,1 2,2z"/>
    <polygon class="fil4" points="1753,658 1704,688 1704,1038 1753,1010 "/>
    <polygon class="fil4" points="1753,948 1704,975 1704,949 1753,921 "/>
    <polygon class="fil4" points="1753,1059 1704,1086 1704,1060 1753,1033 "/>
    <polygon class="fil4" points="1704,975 1753,948 1753,1140 1704,1140 "/>
    <polygon class="fil4" points="1753,928 1704,956 1704,929 1753,901 "/>
    <polygon class="fil4" points="1704,956 1753,928 1753,1140 1704,1140 "/>
    <path class="fil4" d="M1882 550l-53 32c-1,-4 -2,-8 -1,-12l9 -44 -27 0 88 -54 -16 78zm-128 78l-49 30 0 -67 49 -30 0 68z"/>
    <polygon class="fil4" points="1753,576 1704,606 1704,644 1753,615 "/>
    <polygon class="fil4" points="1753,908 1704,936 1704,909 1753,880 "/>
    <polygon class="fil4" points="1704,936 1753,908 1753,1140 1704,1140 "/>
    <path class="fil4" d="M1753 615l-49 30 0 23 49 -30 0 -23zm79 -25l-2 -2c0,1 1,2 2,2zm-2 -2l-1 -2c0,1 1,2 1,2zm-1 -2l-1 -2c0,1 1,2 1,2zm-1 -2l-1 -3c0,1 0,2 1,3zm-1 -3l-1 -3c0,1 0,2 1,3zm-1 -3l0 -3c0,1 0,2 0,3zm0 -3l0 -3c0,1 0,2 0,3zm0 -3l0 -3c0,1 0,2 0,3z"/>
    <polygon class="fil4" points="1805,476 1704,538 1704,564 1753,533 1753,525 1766,525 1846,476 "/>
    <path class="fil4" d="M1864 430l-1 1c-1,0 -1,1 -2,1l3 -2zm-74 46l-86 53 0 9 100 -62 -15 0zm62 -29l1 -3c0,1 -1,2 -1,3zm1 -3l1 -3c-1,1 -1,2 -1,3zm1 -3l2 -3c-1,1 -1,2 -2,3zm2 -3l2 -3c-1,1 -2,2 -2,3zm2 -3l3 -2c-1,1 -2,1 -3,2z"/>
    <polygon class="fil4" points="1753,525 1704,556 1704,606 1753,576 "/>
    <polygon class="fil4" points="1753,1122 1720,1140 1704,1140 1704,1122 1753,1095 "/>
    <polygon class="fil6" points="1704,541 1729,525 1729,1140 1704,1140 "/>
    <polygon class="fil6" points="1729,525 1704,541 1704,527 1740,505 1736,508 1733,512 1731,516 1729,520 "/>
    <path class="fil4" d="M2036 259l0 0c-1,1 -2,1 -2,2l3 -2zm-9 10l2 -3c-1,1 -1,2 -2,3zm2 -3l2 -3c-1,1 -1,2 -2,3zm2 -3l2 -2c-1,1 -2,1 -2,2z"/>
    <path class="fil4" d="M1704 525l0 -5c0,2 0,3 0,5zm0 -5l1 -5c0,2 -1,3 -1,5zm1 -5l1 -5c0,2 -1,3 -1,5zm1 -5l2 -5c-1,1 -1,3 -2,5zm2 -5l2 -4c-1,1 -1,3 -2,4zm2 -4l2 -4c-1,1 -2,3 -2,4zm2 -4l3 -4c-1,1 -2,2 -3,4zm3 -4l3 -3c-1,1 -2,2 -3,3zm3 -3l3 -3c-1,1 -2,2 -3,3zm3 -3l4 -3c-1,1 -3,2 -4,3z"/>
    <polygon class="fil6" points="2599,1802 2565,1816 2565,1814 2589,1804 2594,1803 "/>
    <path class="fil4" d="M2608 1824l-5 2c2,0 3,-1 5,-2zm-5 2l-5 1c2,0 3,-1 5,-1zm-5 1l-5 1c2,0 3,0 5,-1zm-5 1l-5 0c2,0 3,0 5,0z"/>
    <polygon class="fil6" points="2589,1804 2565,1814 2565,1804 "/>
   </g>
   <g id="_1985298611840">
    <polygon class="fil3" points="2147,370 2174,353 2147,353 "/>
    <polygon class="fil3" points="2174,353 2147,370 2147,427 2098,427 2098,476 2245,476 2245,427 2196,427 2196,353 "/>
    <polygon class="fil4" points="2162,476 2245,427 2245,476 "/>
    <polygon class="fil4" points="2245,427 2162,476 2113,476 2196,427 "/>
    <polygon class="fil4" points="2196,353 2147,383 2147,353 "/>
    <polygon class="fil4" points="2196,427 2113,476 2098,476 2098,427 2147,427 2147,383 2196,353 "/>
    <polygon class="fil4" points="2147,427 2098,457 2098,427 "/>
   </g>
   <g id="_2020017516000">
    <path class="fil4" d="M2196 701l-49 28 0 45 49 -28 0 -45zm-123 69l-49 28 0 44 49 -28 0 -44zm-123 69l-49 28 0 43 49 -28 0 -44z"/>
    <polygon class="fil4" points="2196,746 2147,773 2147,1042 2073,1042 2073,814 2024,842 2024,1042 1950,1042 1950,883 1901,911 1901,1042 1852,1042 1852,1091 2491,1091 2491,1042 2442,1042 2442,796 2393,796 2393,1042 2319,1042 2319,747 2270,747 2270,1042 2196,1042 "/>
    <polygon class="fil4" points="2442,1042 2346,1091 1894,1091 1985,1042 2024,1042 2024,1021 2073,995 2073,1042 2147,1042 2147,955 2196,928 2196,1042 2270,1042 2270,889 2319,862 2319,1042 2393,1042 2393,822 2442,796 "/>
    <path class="fil4" d="M2442 796l-49 26 0 -26 49 0zm-123 66l-49 26 0 -26 49 -27 0 26zm-123 66l-49 26 0 -26 49 -27 0 26zm-123 66l-49 26 0 -25 49 -27 0 26zm-88 47l-91 49 -42 0 0 -2 98 -53 0 6 35 0z"/>
    <polygon class="fil4" points="2319,1042 2224,1091 1852,1091 1852,1042 1901,1042 1901,977 1950,950 1950,1042 2024,1042 2024,909 2073,882 2073,1042 2147,1042 2147,842 2196,814 2196,1042 2270,1042 2270,774 2319,747 "/>
    <polygon class="fil4" points="2393,1042 2297,1091 2224,1091 2319,1042 "/>
    <path class="fil4" d="M2196 764l-49 27 0 3 49 -27 0 -3zm-123 69l-49 27 0 3 49 -27 0 -3zm-123 69l-49 27 0 3 49 -27 0 -3z"/>
    <path class="fil3" d="M1901 905l49 -28 0 -82 -49 0 0 109zm123 -69l49 -28 0 -62 -49 0 0 90zm123 -69l49 -28 0 -42 -49 0 0 70z"/>
    <path class="fil4" d="M2196 700l-49 28 0 -30 49 0 0 2zm-123 69l-49 28 0 -50 49 0 0 23zm-123 69l-49 28 0 -71 49 0 0 43z"/>
    <path class="fil4" d="M1901 928l49 -27 0 -105 -49 0 0 132zm123 -69l49 -27 0 -86 -49 0 0 113zm123 -69l49 -27 0 -66 -49 0 0 94z"/>
    <path class="fil4" d="M2196 697l-49 28 0 -28 49 0zm-123 69l-49 28 0 -27 36 -21 13 0 0 20zm-123 69l-49 28 0 -27 49 -28 0 27z"/>
    <path class="fil4" d="M2319 747l-49 27 0 -27 49 0zm-123 68l-49 27 0 -27 49 -27 0 27zm-123 68l-49 27 0 -26 49 -27 0 27zm-123 68l-49 27 0 -26 49 -27 0 26z"/>
    <polygon class="fil4" points="2196,1042 2102,1091 1852,1091 1852,1042 1901,1042 1901,864 1950,836 1950,1042 2024,1042 2024,795 2073,767 2073,1042 2147,1042 2147,725 2196,697 "/>
    <polygon class="fil4" points="2270,1042 2175,1091 2102,1091 2196,1042 "/>
    <polygon class="fil4" points="2147,1042 2054,1091 1981,1091 2073,1042 "/>
    <path class="fil4" d="M2073 747l-49 28 0 -28 49 0zm-123 70l-49 28 0 -28 37 -21 12 0 0 21z"/>
    <polygon class="fil4" points="2073,1042 1981,1091 1852,1091 1852,1042 1901,1042 1901,844 1950,816 1950,1042 2024,1042 2024,775 2073,747 "/>
    <polygon class="fil4" points="2394,1091 2491,1042 2491,1091 "/>
    <polygon class="fil4" points="1950,796 1901,824 1901,796 "/>
    <polygon class="fil4" points="1950,1042 1859,1091 1852,1091 1852,1042 1901,1042 1901,824 1950,796 "/>
    <polygon class="fil4" points="2024,1042 1932,1091 1859,1091 1950,1042 "/>
    <polygon class="fil4" points="2491,1042 2394,1091 2346,1091 2442,1042 "/>
    <polygon class="fil4" points="1901,1042 1852,1068 1852,1042 "/>
   </g>
   <g id="_2020112368736">
    <polygon class="fil4" points="1549,1066 1232,1245 1202,1302 1595,1082 1587,1066 "/>
    <path class="fil4" d="M1595 1082l-393 220 -85 160c-18,30 -27,65 -27,100l0 44c0,109 88,197 197,197l344 0c108,0 195,-87 197,-194l1 -45c0,-37 -9,-73 -28,-104l-204 -379z"/>
    <path class="fil4" d="M1761 1390l-638 326c-21,-31 -33,-69 -33,-109l0 -44c0,-14 1,-27 4,-41l572 -308 95 176z"/>
    <path class="fil4" d="M1666 1214l-572 308c2,-9 4,-18 8,-27l555 -300 10 19z"/>
    <path class="fil4" d="M1329 1804l498 -242 0 3 -1 45c-1,108 -89,194 -197,194l-301 0z"/>
    <path class="fil4" d="M1580 1804l224 -106c-33,63 -99,106 -174,106l-50 0z"/>
    <path class="fil4" d="M1804 1698l-224 106 -118 0 363 -174c-3,24 -10,47 -21,68z"/>
    <path class="fil4" d="M1736 1344l-635 329c-7,-21 -11,-43 -11,-66l0 -44c0,-35 9,-70 27,-100l39 -74 465 -257 114 212z"/>
    <path class="fil4" d="M1751 1372l-638 328c-5,-9 -9,-17 -12,-27l635 -329 15 28z"/>
    <polygon class="fil3" points="1295,1126 1399,1066 1327,1066 "/>
    <polygon class="fil4" points="1602,1095 1190,1325 1188,1329 1603,1097 "/>
    <polygon class="fil3" points="1399,1066 1295,1126 1206,1295 1593,1078 1587,1066 "/>
    <polygon class="fil4" points="1547,1066 1233,1244 1327,1066 "/>
    <polygon class="fil4" points="1190,1325 1602,1095 1587,1066 1327,1066 "/>
    <polygon class="fil4" points="1543,1066 1234,1241 1253,1205 1498,1066 "/>
    <polygon class="fil4" points="1622,1131 1156,1388 1174,1355 1611,1112 "/>
    <path class="fil4" d="M1711 1297l-621 326c0,-5 -1,-11 -1,-16l0 -44c0,-35 9,-70 27,-100l117 -221 309 -175 43 0 124 230z"/>
    <path class="fil4" d="M1726 1325l-631 329c-2,-10 -4,-20 -5,-31l621 -326 15 28z"/>
    <polygon class="fil4" points="1700,1278 1090,1601 1090,1566 1685,1249 "/>
    <polygon class="fil4" points="1510,1066 1248,1215 1267,1178 1464,1066 "/>
    <path class="fil4" d="M1685 1249l-595 318 0 -3c0,-35 9,-70 27,-100l131 -247 262 -149 77 0 98 182z"/>
    <path class="fil4" d="M1790 1444l-628 316c-10,-8 -19,-18 -28,-28l637 -324 19 36z"/>
    <polygon class="fil4" points="1476,1066 1263,1188 1282,1151 1429,1066 "/>
    <path class="fil4" d="M1658 1199l-559 303c4,-14 10,-27 18,-40l145 -275 213 -122 111 0 72 133z"/>
    <path class="fil4" d="M1674 1229l-584 313c1,-14 4,-27 9,-40l559 -303 16 30z"/>
    <path class="fil4" d="M1771 1408l-637 324c-4,-5 -8,-10 -11,-15l638 -326 10 18z"/>
    <path class="fil4" d="M1827 1561l-498 242 -43 0c-109,0 -197,-88 -197,-197l0 -17 606 -321 103 192c18,30 28,65 28,101z"/>
    <path class="fil4" d="M1747 1365l-638 329c8,16 17,30 28,43l636 -323 -26 -49z"/>
    <path class="fil4" d="M1727 1327l-631 329c3,13 8,26 14,38l638 -329 -21 -38z"/>
    <path class="fil4" d="M1648 1179l-535 291c2,-3 3,-6 5,-8l14 -26 506 -277 11 20z"/>
    <path class="fil4" d="M1644 1173l-525 287 -2 3c-6,10 -11,20 -15,31l553 -300 -11 -20z"/>
    <path class="fil4" d="M1825 1630l-363 174 -39 0 403 -194c0,7 -1,14 -1,20z"/>
    <polygon class="fil4" points="1827,1610 1423,1804 1378,1804 1827,1587 1827,1610 "/>
    <path class="fil4" d="M1827 1587l-449 217 -92 0c-17,0 -33,-2 -49,-6l583 -288c5,18 7,36 7,55l0 22z"/>
    <path class="fil4" d="M1820 1510l-583 288c-17,-4 -33,-11 -48,-20l616 -307c7,13 12,26 16,39z"/>
    <path class="fil5" d="M1184 1775l618 -309c17,30 25,64 25,98l-1 45c-1,108 -89,194 -197,194l-344 0c-37,0 -72,-10 -102,-28z"/>
    <path class="fil4" d="M1827 1557l-507 247 310 0c108,0 195,-87 197,-194l1 -45c0,-3 0,-5 0,-8z"/>
    <path class="fil4" d="M1813 1489l-604 300c24,10 50,16 77,16l34 0 507 -247c-1,-23 -6,-47 -14,-68z"/>
    <path class="fil4" d="M1825 1534l-550 270c-42,-2 -80,-18 -111,-42l627 -315 8 15c13,22 22,47 26,73z"/>
    <path class="fil4" d="M1275 1803l550 -270c1,10 2,21 2,31l-1 45c-1,108 -89,194 -197,194l-344 0c-4,0 -7,0 -11,0z"/>
    <path class="fil4" d="M1790 1721l-175 82 15 0c66,0 124,-32 160,-82z"/>
    <path class="fil4" d="M1696 1269l-606 321 0 -27c0,-6 0,-12 1,-18l585 -314 20 38z"/>
    <path class="fil6" d="M1729 1330l0 447c-29,17 -63,27 -99,27l-344 0c-109,0 -197,-88 -197,-197l0 -44c0,-35 9,-70 27,-100l210 -396 260 0 142 264z"/>
    <polygon class="fil4" points="1119,1459 1644,1173 1587,1066 1327,1066 "/>
    <polygon class="fil9" points="1476,1066 1262,1188 1227,1256 1562,1066 "/>
    <polygon class="fil9" points="1410,1066 1290,1135 1262,1188 1476,1066 "/>
    <polygon class="fil4" points="1483,1238 1135,1429 1154,1393 1434,1238 "/>
    <polygon class="fil4" points="1352,1066 1316,1087 1327,1066 "/>
    <polygon class="fil4" points="1704,1762 1616,1804 1578,1804 1630,1779 1639,1779 1647,1778 1656,1777 1664,1776 1672,1774 1680,1772 1688,1769 1696,1766 "/>
    <path class="fil8" d="M1630 1804l10 0c-3,0 -7,0 -10,0zm10 0l10 -1c-3,0 -7,1 -10,1zm10 -1l10 -1c-3,0 -6,1 -10,1zm10 -1l10 -2c-3,1 -6,1 -10,2zm10 -2l9 -2c-3,1 -6,2 -9,2zm9 -2l9 -3c-3,1 -6,2 -9,3zm9 -3l9 -3c-3,1 -6,2 -9,3zm9 -3l9 -3c-3,1 -6,2 -9,3zm9 -3l9 -4c-3,1 -6,3 -9,4z"/>
    <path class="fil4" d="M1557 1263l-460 249c5,-17 12,-34 21,-49l366 -199 74 0z"/>
    <polygon class="fil8" points="1410,1066 1290,1135 1327,1066 "/>
    <polygon class="fil4" points="1409,1263 1146,1408 1154,1393 1374,1272 1380,1269 1387,1266 1394,1264 1402,1263 "/>
    <polygon class="fil4" points="1434,1263 1136,1426 1146,1408 1409,1263 "/>
    <path class="fil4" d="M1385 1337l-281 152c3,-6 5,-13 9,-19l283 -154 -4 3 -3 4 -2 4 -1 5 -1 5z"/>
    <path class="fil7" d="M1095 1516l560 -302 0 588c-8,1 -17,2 -25,2l-344 0c-109,0 -197,-88 -197,-197l0 -44c0,-16 2,-32 6,-47z"/>
    <polygon class="fil9" points="1562,1066 1227,1256 1216,1275 1587,1067 1587,1066 "/>
    <path class="fil4" d="M1557 1312l-467 249c0,-17 2,-34 7,-50l460 -249 0 49z"/>
    <path class="fil4" d="M1581 1484l-457 234c-18,-26 -29,-56 -33,-89l417 -219 8 0 7 1 7 2 7 2 6 3 6 4 6 4 5 5 5 5 4 6 4 6 3 6 2 7 2 7 1 7 0 8z"/>
    <path class="fil4" d="M1409 1410l-320 170 0 -18c0,-6 0,-13 1,-19l294 -158 1 5 1 5 2 4 3 4 4 3 4 2 5 1 5 1z"/>
    <path class="fil4" d="M1385 1386l-294 158c2,-19 6,-37 13,-55l281 -152 0 49z"/>
    <path class="fil4" d="M1114 1563l-25 13 0 -13c0,-24 4,-47 12,-69l37 -20 -3 5 -3 5 -3 5 -2 5 -2 5 -2 5 -2 6 -2 6 -1 6 -1 6 -1 6 -1 6 -1 6 0 6 0 6 0 6z"/>
    <polygon class="fil9" points="1290,1135 1410,1066 1327,1066 "/>
    <path class="fil4" d="M1630 1779l-52 25 -292 0c-14,0 -28,-2 -41,-4l41 -20 344 0z"/>
    <polygon class="fil4" points="1538,1066 1237,1237 1327,1066 "/>
    <path class="fil4" d="M1507 1410l-417 219c-1,-7 -1,-15 -1,-22l0 -27 320 -170 98 0z"/>
    <polygon class="fil4" points="1483,1263 1117,1462 1117,1462 1135,1429 1483,1238 "/>
    <path class="fil4" d="M1581 1533l-430 217c-10,-10 -20,-21 -28,-32l457 -234 0 49z"/>
    <path class="fil4" d="M1543 1598l-357 178c-12,-7 -24,-16 -34,-26l430 -217 0 8 -1 7 -2 7 -2 7 -3 6 -4 6 -4 6 -5 5 -5 5 -6 4 -6 4z"/>
    <path class="fil4" d="M1114 1607l-24 13c0,-4 0,-8 0,-13l0 -31 25 -13 0 44z"/>
    <path class="fil4" d="M1139 1474l-37 20c4,-11 9,-21 15,-31l185 -348 40 -23 -203 383z"/>
    <path class="fil8" d="M1117 1462l-3 6c1,-2 2,-4 3,-6zm-3 6l-3 6c1,-2 2,-4 3,-6zm-3 6l-3 6c1,-2 2,-4 3,-6zm-3 6l-3 6c1,-2 2,-4 3,-6zm-3 6l-2 6c1,-2 2,-4 2,-6zm-2 6l-2 6c1,-2 1,-4 2,-6zm-2 6l-2 6c1,-2 1,-4 2,-6zm-2 6l-2 6c1,-2 1,-4 2,-6zm-2 6l-2 6c1,-2 1,-4 2,-6zm-2 6l-1 6c0,-2 1,-4 1,-6zm-1 6l-1 6c0,-2 1,-4 1,-6zm-1 6l-1 7c0,-2 1,-4 1,-7zm-1 7l-1 7c0,-2 0,-4 1,-7zm-1 7l-1 7c0,-2 0,-4 1,-7zm-1 7l0 7c0,-2 0,-4 0,-7zm0 7l0 7c0,-2 0,-4 0,-7z"/>
    <path class="fil4" d="M1483 1632l-294 147c-7,-4 -14,-9 -21,-13l314 -158 0 25z"/>
    <polygon class="fil4" points="1517,1556 1145,1744 1143,1742 1507,1558 1512,1557 "/>
    <path class="fil4" d="M1507 1558l-364 184c-15,-16 -27,-34 -36,-54l253 -130 148 0z"/>
    <path class="fil4" d="M1286 1779l-41 20c-85,-18 -149,-91 -155,-180l24 -13 0 9 1 9 1 9 2 8 2 8 2 8 3 8 3 8 3 8 4 7 4 7 4 7 5 7 5 7 5 6 6 6 6 6 6 5 7 5 7 5 7 4 7 4 7 4 8 3 8 3 8 3 8 2 8 2 8 2 9 1 9 1 9 0z"/>
    <path class="fil8" d="M1090 1607l0 10c0,-3 0,-7 0,-10zm0 10l1 10c0,-3 -1,-7 -1,-10zm1 10l1 10c-1,-3 -1,-7 -1,-10zm1 10l2 10c-1,-3 -1,-6 -2,-10zm2 10l2 10c-1,-3 -2,-6 -2,-10zm2 10l3 9c-1,-3 -2,-6 -3,-9zm3 9l3 9c-1,-3 -2,-6 -3,-9zm3 9l4 9c-1,-3 -2,-6 -4,-9zm4 9l4 9c-1,-3 -3,-6 -4,-9zm4 9l4 8c-2,-3 -3,-6 -4,-8zm4 8l5 8c-2,-3 -3,-5 -5,-8zm5 8l5 8c-2,-3 -3,-5 -5,-8zm5 8l5 8c-2,-3 -4,-5 -5,-8zm5 8l6 7c-2,-2 -4,-5 -6,-7zm6 7l6 7c-2,-2 -4,-5 -6,-7zm6 7l6 7c-2,-2 -4,-4 -6,-7zm7 7l7 6c-2,-2 -4,-4 -7,-6zm7 6l7 6c-2,-2 -5,-4 -7,-6zm7 6l7 6c-3,-2 -5,-4 -7,-6zm7 6l8 5c-3,-2 -5,-4 -8,-5zm8 5l8 5c-3,-2 -5,-3 -8,-5zm8 5l8 5c-3,-2 -6,-3 -8,-5zm8 5l8 4c-3,-1 -6,-3 -8,-4zm8 4l9 4c-3,-1 -6,-3 -9,-4zm9 4l9 4c-3,-1 -6,-2 -9,-4zm9 4l9 3c-3,-1 -6,-2 -9,-3zm9 3l9 3c-3,-1 -6,-2 -9,-3zm9 3l10 2c-3,-1 -6,-1 -10,-2zm10 2l10 2c-3,-1 -6,-1 -10,-2zm10 2l10 1c-3,0 -7,-1 -10,-1zm10 1l10 1c-3,0 -7,0 -10,-1zm10 1l10 0c-3,0 -7,0 -10,0z"/>
   </g>
   <g id="_2020112379008">
    <polygon class="fil3" points="1301,883 1485,771 1458,771 1311,771 1286,845 "/>
    <polygon class="fil4" points="1455,771 1296,868 1294,865 1448,771 "/>
    <polygon class="fil4" points="1448,771 1294,865 1286,845 1311,771 "/>
    <polygon class="fil3" points="1485,771 1301,883 1335,968 1443,968 1623,862 1630,845 1606,771 "/>
    <polygon class="fil4" points="1628,838 1408,968 1335,968 1335,967 1616,800 "/>
    <polygon class="fil4" points="1616,800 1335,967 1326,946 1608,778 "/>
    <polygon class="fil4" points="1297,812 1363,771 1311,771 "/>
    <polygon class="fil4" points="1505,771 1305,892 1296,870 1460,771 "/>
    <polygon class="fil4" points="1608,778 1326,946 1305,892 1505,771 1606,771 "/>
    <polygon class="fil4" points="1573,771 1318,924 1309,902 1527,771 "/>
    <polygon class="fil3" points="1358,771 1299,807 1286,845 1287,847 1411,771 "/>
    <polygon class="fil3" points="1623,862 1443,968 1569,968 1585,959 "/>
    <polygon class="fil3" points="1585,959 1569,968 1581,968 "/>
    <polygon class="fil4" points="1307,897 1515,771 1606,771 1630,845 1581,968 1335,968 "/>
    <polygon class="fil4" points="1532,771 1310,905 1316,920 1565,771 "/>
    <polygon class="fil4" points="1565,771 1316,920 1335,968 1581,968 1630,845 1606,771 "/>
    <polygon class="fil4" points="1515,771 1307,897 1286,846 1408,771 1458,771 "/>
    <polygon class="fil4" points="1434,771 1291,858 1303,887 1495,771 1458,771 "/>
    <polygon class="fil4" points="1495,771 1303,887 1310,905 1532,771 "/>
    <polygon class="fil4" points="1328,771 1306,784 1296,815 1367,771 "/>
    <polygon class="fil4" points="1314,771 1310,774 1306,784 1328,771 "/>
    <polygon class="fil4" points="1354,771 1300,805 1286,845 1291,858 1434,771 "/>
    <polygon class="fil6" points="1306,787 1331,771 1458,771 1606,771 1630,845 1581,968 1335,968 1286,845 "/>
    <polygon class="fil6" points="1331,771 1306,787 1311,771 "/>
    <polygon class="fil4" points="1581,968 1335,968 1286,845 1311,771 1458,771 1606,771 1630,845 "/>
    <polygon class="fil4" points="1565,943 1522,968 1335,968 1331,956 1352,943 "/>
    <polygon class="fil4" points="1352,943 1331,956 1291,857 1312,844 "/>
    <polygon class="fil4" points="1312,844 1291,857 1286,845 1296,816 1329,796 "/>
   </g>
   <g id="_2020117250752">
    <path class="fil4" d="M1507 1410l-98 0c-14,0 -25,-11 -25,-25l0 -49c0,-14 11,-25 25,-25l148 0 0 -49 -74 0 0 -25 -49 0 0 25 -25 0c-41,0 -74,33 -74,74l0 49c0,41 33,74 74,74l98 0c14,0 25,11 25,25l0 49c0,14 -11,25 -25,25l-148 0 0 49 74 0 0 25 49 0 0 -25 25 0c41,0 74,-33 74,-74l0 -49c0,-41 -33,-74 -74,-74z"/>
    <path class="fil4" d="M1581 1482l-49 25 0 -23c0,-14 -11,-25 -25,-25l-98 0c-39,0 -70,-30 -74,-68l49 -26 0 20c0,14 11,25 25,25l98 0c40,0 72,32 74,71zm-149 76l-72 37 0 -37 72 0zm51 -246l73 -39 0 39 -73 0z"/>
    <path class="fil4" d="M1557 1273l-73 39 -44 0 91 -49 26 0 0 10zm-172 93l-49 26c0,-2 0,-4 0,-6l0 -17 49 -27 0 23z"/>
    <path class="fil4" d="M1562 1434l-50 26c-1,0 -3,0 -4,0l-98 0c-41,0 -74,-33 -74,-74l0 -49c0,-41 33,-74 74,-74l25 0 0 -25 49 0 0 25 74 0 0 49 -148 0c-14,0 -25,11 -25,25l0 49c0,14 11,25 25,25l98 0c21,0 41,9 54,24z"/>
    <path class="fil4" d="M1577 1461l-45 23c0,-12 -9,-22 -20,-24l50 -26c7,8 12,17 16,27zm-189 97l-28 15 0 -15 28 0z"/>
    <path class="fil4" d="M1494 1410l-93 49c-37,-4 -66,-35 -66,-73l0 -49c0,-41 33,-74 74,-74l25 0 0 -25 49 0 0 25 74 0 0 49 -148 0c-14,0 -25,11 -25,25l0 49c0,14 11,25 25,25l85 0z"/>
    <path class="fil4" d="M1544 1420l-76 40 -59 0c-3,0 -5,0 -7,0l93 -49 13 0c13,0 26,4 36,10z"/>
    <path class="fil4" d="M1449 1410l-76 40c-10,-5 -19,-13 -25,-23l44 -24c4,4 10,6 16,6l40 0z"/>
    <path class="fil4" d="M1393 1404l-44 24c-8,-12 -13,-26 -13,-42l0 -49c0,-41 33,-74 74,-74l25 0 0 -25 49 0 0 25 74 0 0 49 -148 0c-14,0 -25,11 -25,25l0 49c0,7 3,14 8,18z"/>
    <path class="fil4" d="M1579 1549l-146 73 0 -16 -55 0 97 -49 32 0c14,0 25,-11 25,-25l0 -4 49 -25 0 29c0,5 -1,11 -2,16z"/>
    <path class="fil4" d="M1541 1263l-91 49 -41 0c-14,0 -25,11 -25,25l0 11 -49 27 0 -38c0,-41 33,-74 74,-74l25 0 0 -25 49 0 0 25 58 0z"/>
    <path class="fil4" d="M1557 1292l-37 20 -69 0 91 -49 16 0 0 29zm-172 92l-45 24c-2,-7 -4,-15 -4,-23l0 -12 49 -27 0 37z"/>
    <path class="fil4" d="M1581 1504l-49 25 0 -22 49 -25c0,1 0,2 0,2l0 20zm-106 54l-97 49 -19 0 0 -12 72 -37 44 0z"/>
    <path class="fil4" d="M1364 1444l64 -34 79 0c41,0 74,33 74,74l0 49c0,41 -33,74 -74,74l-25 0 0 25 -49 0 0 -25 -74 0 0 -49 148 0c14,0 25,-11 25,-25l0 -49c0,-14 -11,-25 -25,-25l-98 0c-17,0 -32,-6 -45,-15z"/>
    <path class="fil4" d="M1575 1454l-44 23c1,2 1,5 1,8l0 49c0,1 0,2 0,3l49 -25 0 -27c0,-11 -2,-21 -6,-30zm-202 104l-13 7 0 42 33 0 97 -49 -117 0z"/>
    <path class="fil4" d="M1546 1421l-74 38 35 0c11,0 20,7 23,17l44 -23c-6,-14 -16,-25 -29,-33zm-186 143l13 -7 -13 0 0 7z"/>
    <path class="fil4" d="M1494 1263l-92 50c-3,1 -6,3 -9,5l-58 32 0 -13c0,-4 0,-9 1,-13l146 -80 0 19 11 0z"/>
    <path class="fil4" d="M1483 1261l-148 80 0 25 49 -27 0 -3c0,-14 11,-25 25,-25l27 0 91 -49 -44 0 0 -2z"/>
    <polygon class="fil4" points="1482,1632 1483,1631 1483,1632 "/>
    <path class="fil5" d="M1472 1632l11 -5 0 5 -11 0zm54 -27l27 -13c-8,6 -17,11 -27,13z"/>
    <path class="fil4" d="M1434 1625l145 -73c-8,32 -37,55 -71,55l-25 0 0 25 -49 0 0 -6z"/>
    <path class="fil4" d="M1429 1410l-64 34c-11,-9 -20,-20 -25,-34l45 -24c1,13 11,24 25,24l20 0zm95 -98l33 -17 0 17 -33 0z"/>
    <path class="fil6" d="M1507 1410l-98 0c-14,0 -25,-11 -25,-25l0 -49c0,-14 11,-25 25,-25l148 0 0 -49 -74 0 0 -25 -49 0 0 25 -25 0c-41,0 -74,33 -74,74l0 49c0,41 33,74 74,74l98 0c14,0 25,11 25,25l0 49c0,14 -11,25 -25,25l-148 0 0 49 74 0 0 25 49 0 0 -25 25 0c41,0 74,-33 74,-74l0 -49c0,-41 -33,-74 -74,-74z"/>
    <path class="fil4" d="M1335 1341l148 -80 0 -22 -49 0 0 25 -25 0c-41,0 -74,33 -74,74l0 4z"/>
    <path class="fil4" d="M1483 1238l-145 80c8,-32 37,-55 71,-55l25 0 0 -25 49 0z"/>
    <path class="fil4" d="M1557 1263l-91 49 -56 0c-14,0 -25,11 -25,25l0 19 -49 27 0 -39 148 -80 74 0z"/>
    <path class="fil4" d="M1409 1263l-62 34c7,-11 16,-19 27,-25l6 -3 7 -2 7 -2 7 -1 8 0z"/>
    <path class="fil4" d="M1434 1263l-95 52c2,-6 5,-12 8,-18l62 -34 25 0z"/>
    <path class="fil4" d="M1385 1337l-49 27 0 -14 60 -33c-1,1 -3,2 -4,3 -1,1 -2,2 -3,4 -1,1 -2,3 -2,4 -1,1 -1,3 -1,5 0,2 -1,3 -1,5z"/>
    <path class="fil7" d="M1335 1386l49 -27 0 26c0,14 11,25 25,25l98 0c41,0 74,33 74,74l0 49c0,41 -33,74 -74,74l-25 0 0 25 -49 0 0 -25 -74 0 0 -49 148 0c14,0 25,-11 25,-25l0 -49c0,-14 -11,-25 -25,-25l-98 0c-41,0 -74,-33 -74,-73zm137 -74l84 -45 0 45 -84 0z"/>
    <path class="fil4" d="M1390 1401l-44 23c-7,-11 -11,-24 -11,-39l0 -3 49 -27 0 30c0,6 2,11 5,15zm76 -89l91 -49 0 49 -91 0z"/>
    <path class="fil4" d="M1581 1484l-49 25 0 -25c0,-14 -11,-25 -25,-25l-94 0 94 -49 8 0 7 1 7 2 7 2 6 3 6 4 6 4 5 5 5 5 4 6 4 6 3 6 2 7 2 7 1 7 0 8zm-144 74l-77 39 0 -39 77 0z"/>
    <path class="fil4" d="M1409 1410l-52 28c-8,-8 -14,-17 -18,-28l45 -24c0,2 0,3 1,5 0,2 1,3 1,5 1,1 1,3 2,4 1,1 2,3 3,4 1,1 2,2 4,3 1,1 3,2 4,2 1,1 3,1 5,1 2,0 3,1 5,1z"/>
    <path class="fil4" d="M1385 1386l-45 24c-3,-8 -4,-16 -4,-24l0 -22 49 -27 0 49z"/>
    <path class="fil4" d="M1507 1410l-94 49 -5 0c-20,0 -39,-8 -52,-22l52 -28 98 0z"/>
    <path class="fil4" d="M1483 1263l-148 80 0 -7c0,-7 1,-13 2,-19l145 -80 0 25z"/>
    <path class="fil4" d="M1581 1533l-148 74 0 -1 -74 0 0 -10 77 -39 71 0c14,0 25,-11 25,-25l0 -24 49 -25 0 49z"/>
    <path class="fil4" d="M1543 1598l-5 2c-9,4 -20,7 -31,7l-25 0 0 21 -7 4 -42 0 0 -24 148 -74 0 8 -1 7 -2 7 -2 7 -3 6 -4 6 -4 6 -5 5 -5 5 -6 4 -6 4z"/>
    <polygon class="fil4" points="1434,1632 1483,1607 1483,1632 "/>
    <path class="fil4" d="M1517 1556l-101 51 -6 0 97 -49c2,0 3,0 5,-1 2,0 3,-1 5,-1z"/>
    <polygon class="fil4" points="1507,1558 1410,1607 1360,1607 1360,1558 "/>
   </g>
   <g id="_2020112577760">
    <path class="fil3" d="M1311 1045l132 -77 -108 0c-14,0 -25,11 -25,25l0 49c0,1 0,2 0,3z"/>
    <path class="fil4" d="M1408 968l-97 57 0 -32c0,-5 2,-10 4,-14l17 -10c1,0 2,0 3,0l73 0z"/>
    <path class="fil4" d="M1333 968l-17 10c4,-6 10,-10 17,-10z"/>
    <path class="fil4" d="M1606 1034l-57 32 33 0c14,0 25,-11 25,-25l0 -8z"/>
    <path class="fil3" d="M1443 968l-132 77c2,12 12,21 24,21l63 0 171 -98 -126 0z"/>
    <path class="fil3" d="M1569 968l-171 98 183 0c14,0 25,-11 25,-25l0 -49c0,-14 -11,-25 -25,-25l-12 0z"/>
    <path class="fil4" d="M1606 1033l-59 33 -212 0c-14,0 -25,-11 -25,-25l0 -49c0,-14 11,-25 25,-25l246 0c14,0 25,11 25,25l0 41z"/>
    <path class="fil4" d="M1581 1066l-246 0c-14,0 -25,-11 -25,-25l0 -49c0,-14 11,-25 25,-25l246 0c14,0 25,11 25,25l0 49c0,14 -11,25 -25,25z"/>
    <polygon class="fil4" points="1606,1031 1543,1066 1498,1066 1606,1005 "/>
    <path class="fil4" d="M1543 1066l62 -35 0 11c0,14 -11,25 -25,25l-38 0z"/>
    <path class="fil4" d="M1606 1012l-96 54 -46 0 141 -80c1,2 1,4 1,7l0 19z"/>
    <path class="fil4" d="M1510 1066l96 -54 0 30c0,14 -11,25 -25,25l-71 0z"/>
    <path class="fil4" d="M1606 992l-130 74 -46 0 165 -95c7,4 11,12 12,20z"/>
    <path class="fil4" d="M1476 1066l130 -74 0 0 0 49c0,14 -11,25 -25,25l-106 0z"/>
    <path class="fil6" d="M1581 1066l-246 0c-14,0 -25,-11 -25,-25l0 -49c0,-14 11,-25 25,-25l246 0c14,0 25,11 25,25l0 49c0,14 -11,25 -25,25z"/>
    <path class="fil4" d="M1581 1066l-246 0c-14,0 -25,-11 -25,-25l0 -49c0,-14 11,-25 25,-25l246 0c14,0 25,11 25,25l0 49c0,14 -11,25 -25,25z"/>
    <polygon class="fil9" points="1606,992 1476,1066 1562,1066 1606,1042 "/>
    <polygon class="fil9" points="1581,968 1410,1066 1476,1066 1606,992 1605,988 1604,983 1602,979 1599,975 1595,972 1591,970 1586,968 "/>
    <path class="fil4" d="M1522 968l-170 98 -17 0c-14,0 -25,-11 -25,-25l0 -49c0,-14 11,-25 25,-25l187 0z"/>
    <path class="fil8" d="M1335 968l-22 13c4,-8 12,-13 22,-13z"/>
    <path class="fil8" d="M1581 968l-171 98 -75 0c-14,0 -25,-11 -25,-25l0 -49c0,-4 1,-8 3,-12l22 -13 0 0 246 0z"/>
    <path class="fil9" d="M1314 981l22 -13 -5 1 -5 1 -4 2c-3,2 -6,5 -8,9z"/>
    <path class="fil9" d="M1606 1042l-44 25 19 0c4,0 7,-1 10,-2l3 -2 4 -3 3 -4 2 -4 1 -5 1 -5z"/>
    <path class="fil9" d="M1335 968l-22 13c-2,4 -3,8 -3,12l0 49c0,14 11,25 25,25l75 0 171 -98 -246 0z"/>
    <path class="fil4" d="M1581 1042l-43 25 -202 0c-9,0 -17,-5 -21,-12l21 -12 246 0z"/>
    <path class="fil4" d="M1335 1042l-21 12c-2,-4 -3,-8 -3,-12l0 -35 25 -14 0 49z"/>
   </g>
   <g id="_2020113602464">
    <path class="fil3" d="M1280 895l43 -26 -10 -25 16 -48 116 0 81 -49 -215 0c-11,0 -20,7 -23,17l-25 74c-2,6 -2,12 1,17l17 41z"/>
    <path class="fil4" d="M1495 747l-81 49 -7 0 81 -49 7 0zm-178 109l-43 26 -1 -3 43 -26 1 3z"/>
    <path class="fil4" d="M1489 747l-81 49 -79 0 -16 48 3 8 -43 26 -10 -24c-2,-5 -2,-11 -1,-17l16 -47 71 -44 139 0z"/>
    <path class="fil3" d="M1525 747l-81 49 144 0 16 48 -15 38 66 -39c0,-2 -1,-5 -1,-7l-25 -74c-3,-10 -13,-17 -23,-17l-81 0zm-203 123l-43 26 24 60c-11,9 -18,22 -18,37l0 49c0,6 1,11 3,16l46 -27 0 -38 66 0 84 -49 -133 0 -30 -74z"/>
    <path class="fil4" d="M1650 826l-50 29 4 -11 -10 -31 43 -26 13 38zm-200 118l-84 49 -31 0 0 18 -49 29 0 -44 88 -52 75 0z"/>
    <path class="fil4" d="M1637 788l-43 26 -6 -17 -11 0 52 -31 8 23zm-263 156l-88 52 0 -3c0,-11 4,-21 9,-29l52 -31 4 11 22 0z"/>
    <path class="fil4" d="M1630 1020l-125 71 67 0 2 3 50 -28c4,-7 7,-15 7,-24l0 -22zm-359 203l-79 45 -30 56 79 -44 30 -57z"/>
    <path class="fil4" d="M1624 1066l-50 28 204 380c16,27 25,59 25,91l-1 45c-1,94 -78,170 -172,170l-344 0c-95,0 -172,-77 -172,-172l0 -44c0,-31 8,-61 25,-89l103 -194 -79 44 -67 126c-20,34 -31,73 -31,113l0 44c0,122 99,221 221,221l344 0c121,0 220,-98 221,-219l1 -45c1,-41 -10,-82 -31,-116l-202 -376c2,-2 4,-5 5,-8z"/>
    <path class="fil4" d="M1783 1379l-44 22 -94 -176 43 -23 95 177zm-638 326l-44 23c-23,-35 -36,-76 -36,-120l0 -44c0,-9 1,-17 2,-26l57 -31c-6,18 -10,38 -10,57l0 44c0,36 11,70 31,98z"/>
    <path class="fil4" d="M1688 1202l-43 23 -10 -19 43 -23 10 19zm-564 304l-57 31c1,-8 2,-17 4,-25l67 -36c-6,10 -10,20 -14,30z"/>
    <path class="fil4" d="M1279 1828l101 -49 250 0c94,0 171,-76 172,-170l0 -36 49 -24c0,5 0,10 0,15l-1 45c-2,120 -101,219 -221,219l-344 0c-2,0 -5,0 -7,0z"/>
    <path class="fil4" d="M1528 1828l104 -49c51,-1 97,-24 128,-60l77 -36c-31,85 -113,146 -208,146l-102 0z"/>
    <path class="fil4" d="M1838 1682l-77 36c18,-21 31,-47 38,-76l53 -25c-1,22 -6,44 -13,64zm-206 97l-104 49 -117 0 103 -49 116 0 2 0z"/>
    <path class="fil4" d="M1265 832l138 -85 -92 0c-11,0 -20,7 -23,17l-23 68z"/>
    <path class="fil4" d="M1545 747l-81 49 -45 0 81 -49 45 0zm-219 133l-43 26 -9 -22 43 -26 9 22z"/>
    <path class="fil4" d="M1630 765l-52 31 -113 0 81 -49 60 0c11,0 20,7 23,17l0 1zm-282 168l-52 31c2,-3 5,-6 8,-9l-20 -50 43 -26 21 54z"/>
    <path class="fil4" d="M1612 748l-81 48 -46 0 82 -49 38 0c2,0 4,0 6,1zm-273 164l-43 26 -9 -22 43 -26 9 22z"/>
    <path class="fil3" d="M1397 747l-131 81 -3 10c-2,6 -2,12 1,17l2 6 52 -32 11 -32 42 0 80 -49 -53 0z"/>
    <path class="fil4" d="M1758 1332l-44 23 -114 -212 43 -24 115 213zm-635 329l-44 23c-9,-24 -14,-50 -14,-77l0 -44c0,-40 11,-79 31,-113l21 -40 79 -43 -57 107c-16,28 -25,58 -25,89l0 44c0,19 3,37 9,55z"/>
    <path class="fil4" d="M1773 1360l-44 22 -15 -28 44 -23 15 28zm-638 328l-44 22c-5,-9 -9,-17 -12,-26l44 -23c3,9 7,18 12,27z"/>
    <path class="fil3" d="M1655 844l-66 39 -24 61 -80 0 -84 49 126 0 92 -53 34 -85c1,-3 2,-7 2,-10zm-320 187l-46 27c2,5 4,9 7,13l-41 77 80 -46 6 -12 14 0 85 -49 -106 0 0 -11z"/>
    <path class="fil4" d="M1624 1083l-43 24 1 2 43 -24 -1 -2zm-394 220l-79 44 -2 4 79 -44 2 -4z"/>
    <path class="fil3" d="M1619 939l-92 53 55 0 0 49 -140 0 -85 49 214 0 58 -32c2,-5 3,-11 3,-17l0 -49c0,-15 -7,-28 -18,-37l6 -16zm-284 163l-80 46 -89 168 79 -44 90 -170z"/>
    <path class="fil4" d="M1630 1019l-127 72 -162 0 -69 131 -79 45 103 -195c-6,-8 -10,-18 -10,-30l0 -49c0,-15 7,-28 18,-37l-18 -45 43 -26 24 59 213 0 40 -99 -16 -48 -113 0 81 -49 50 0c11,0 20,7 23,17l25 74c2,6 2,12 0,17l-40 101c11,9 18,22 18,37l0 27zm-295 -27l246 0 0 49 -246 0 0 -49z"/>
    <path class="fil4" d="M1573 747l-82 49 33 0 82 -49 0 0 -33 0zm-241 146l-43 26 6 15 43 -26 -6 -15z"/>
    <path class="fil4" d="M1606 747l-82 49 64 0 16 48 -40 99 -213 0 -14 -36 -43 26 9 22c-11,9 -18,22 -18,37l0 49c0,11 4,21 10,30l-146 275 79 -44 112 -212 230 0 9 16 43 -24 -5 -9c7,-9 12,-20 12,-32l0 -49c0,-15 -7,-28 -18,-37l40 -101c2,-5 2,-11 0,-17l-25 -74c-3,-10 -13,-17 -23,-17zm-271 246l246 0 0 49 -246 0 0 -49z"/>
    <path class="fil4" d="M1630 1017l-130 74 -45 0 86 -49 40 0 0 -23 49 -28 0 2 0 25zm-356 201l-79 45 19 -35 80 -45 -19 36z"/>
    <path class="fil4" d="M1643 1119l-43 24 -10 -19 43 -24 10 19zm-448 247l-79 43 18 -33 79 -44 -18 34z"/>
    <path class="fil4" d="M1733 1285l-44 23 -117 -217 -72 0 130 -74 0 25c0,12 -5,23 -12,32l114 212zm-618 325l-47 25c-1,-9 -2,-19 -2,-28l0 -44c0,-40 11,-79 31,-113l99 -186 79 -45 -135 255c-16,28 -25,58 -25,89l0 44c0,1 0,2 0,3z"/>
    <path class="fil4" d="M1748 1314l-44 23 -15 -28 44 -23 15 28zm-630 329l-45 23c-3,-10 -5,-20 -6,-30l47 -25c0,11 1,22 4,32z"/>
    <path class="fil4" d="M1722 1266l-43 23 -16 -29 43 -23 16 29zm-608 322l-49 26c0,-2 0,-4 0,-6l0 -28 49 -26c0,3 0,7 0,10l0 25z"/>
    <path class="fil4" d="M1630 998l-49 28 0 -26 45 -26c3,6 4,12 4,19l0 5zm-77 44l-87 49 -46 0 86 -49 46 0zm-265 151l-80 45 19 -36 80 -46 -19 37z"/>
    <path class="fil4" d="M1707 1237l-43 23 -91 -169 -106 0 87 -49 28 0 0 -16 49 -28 0 44c0,12 -5,23 -12,32l88 164zm-592 316l-49 26 0 -16c0,-40 11,-79 31,-113l113 -212 80 -45 -149 282c-15,25 -23,52 -24,79z"/>
    <path class="fil4" d="M1812 1433l-44 22 -19 -36 44 -22 19 36zm-625 315l-48 24c-10,-9 -18,-18 -26,-28l45 -23c9,10 19,19 30,27z"/>
    <path class="fil4" d="M1556 747l-81 49 -107 0 80 -49 108 0zm-228 138l-43 26 -21 -51 53 -33 -6 18 16 40z"/>
    <path class="fil4" d="M1474 747l-81 49 61 0 81 -49 -62 0zm-161 98l-43 26 12 29 43 -26 -12 -29z"/>
    <path class="fil4" d="M1629 979l-47 27 0 -14 -23 0 59 -34c5,6 10,13 12,20zm-110 63l-86 49 -46 0 86 -49 47 0zm-216 123l-80 45 20 -37 80 -46 -20 37z"/>
    <path class="fil4" d="M1680 1188l-43 23 -65 -120 -140 0 86 -49 63 0 0 -36 47 -27c1,4 2,9 2,13l0 49c0,12 -5,23 -12,32l62 114zm-547 296l-64 35c5,-24 14,-47 26,-68l127 -239 80 -45 -164 309c-2,3 -4,6 -5,10z"/>
    <path class="fil4" d="M1696 1217l-43 23 -16 -30 43 -23 16 30zm-578 310l-53 28c0,-13 2,-25 4,-38l64 -35c-7,14 -13,29 -16,44z"/>
    <path class="fil4" d="M1793 1397l-44 22 -10 -18 44 -22 10 18zm-636 323l-45 23c-4,-5 -8,-10 -11,-16l44 -23c4,5 8,10 12,15z"/>
    <path class="fil4" d="M1851 1550l-49 24 0 -9c0,-32 -8,-63 -25,-91l-104 -193 43 -23 103 192c18,30 29,65 31,100zm-472 230l-101 49c-119,-4 -214,-102 -214,-221l0 -4 49 -26 0 30c0,95 77,172 172,172l93 0z"/>
    <path class="fil4" d="M1769 1354l-44 23 26 49 44 -22 -26 -49zm-638 329l-44 23c8,15 17,30 28,43l45 -23c-12,-13 -22,-27 -29,-42z"/>
    <path class="fil4" d="M1749 1316l-44 23 20 38 44 -23 -21 -38zm-631 329l-45 23c4,13 9,26 14,37l44 -23c-6,-12 -10,-25 -13,-38z"/>
    <path class="fil4" d="M1535 747l-81 49 37 0 82 -49 -38 0zm-211 128l-43 26 7 18 43 -26 -7 -18z"/>
    <polygon class="fil4" points="1367,747 1274,804 1264,835 1407,747 "/>
    <polygon class="fil4" points="1353,747 1277,794 1274,804 1367,747 "/>
    <path class="fil4" d="M1394 747l-127 79 -4 12c-2,6 -2,12 1,17l7 17 43 -26 0 -1 16 -48 65 0 81 -49 -79 0z"/>
    <path class="fil4" d="M1669 1168l-43 24 -11 -20 43 -24 11 20zm-518 282l-74 41c4,-11 9,-22 14,-32l79 -43 -18 35z"/>
    <path class="fil4" d="M1666 1161l-43 24 11 20 43 -23 -11 -21zm-508 277l-77 42c-4,10 -7,20 -10,30l68 -37 18 -35z"/>
    <path class="fil4" d="M1851 1618l-53 25c1,-7 3,-14 3,-21l50 -24 0 12c0,3 0,5 0,8zm-337 161l-103 49 -39 0 102 -49 39 0z"/>
    <path class="fil4" d="M1851 1598l-50 24c0,-4 1,-8 1,-13l0 -11 49 -24 0 23zm-377 181l-102 49 -45 0 102 -49 46 0z"/>
    <path class="fil4" d="M1852 1575l-49 24 0 -34c0,-15 -2,-29 -5,-43l45 -22c6,21 9,44 9,66l0 10zm-423 205l-102 49 -41 0c-28,0 -56,-5 -81,-15l70 -34c4,0 7,0 11,0l142 0z"/>
    <path class="fil4" d="M1842 1499l-45 22c-3,-14 -8,-27 -15,-40l44 -22c7,12 12,26 16,39zm-567 280l-70 34c-15,-6 -29,-13 -43,-22l53 -26c18,8 38,13 59,15z"/>
    <path class="fil5" d="M1159 1788l52 -26c23,11 48,17 75,17l344 0c94,0 171,-76 172,-170l1 -45c0,-30 -7,-60 -22,-87l44 -22c18,33 28,71 27,109l-1 45c-2,120 -101,219 -221,219l-344 0c-47,0 -91,-15 -127,-40z"/>
    <path class="fil4" d="M1801 1747l-175 81 4 0c9,0 17,-1 25,-1l126 -58c7,-7 14,-14 20,-22z"/>
    <path class="fil4" d="M1851 1545l-49 24 0 41c-1,94 -78,170 -172,170l-259 0 -100 49c5,0 10,1 16,1l340 0 175 -81c31,-38 50,-85 50,-137l1 -45c0,-7 0,-13 -1,-20z"/>
    <path class="fil4" d="M1835 1478l-44 22c8,21 12,43 12,65l0 4 49 -24c-2,-23 -7,-46 -16,-67zm-595 295l-59 29c27,15 57,24 89,26l100 -49 -84 0c-16,0 -32,-2 -46,-6z"/>
    <path class="fil4" d="M1848 1523l-46 23c-2,-25 -11,-50 -24,-72l-9 -17 44 -22 8 15c13,22 23,47 27,73zm-524 257l-89 43c-36,-8 -69,-26 -96,-50l48 -24c28,19 62,31 98,31l38 0z"/>
    <path class="fil4" d="M1236 1823l89 -43 305 0c94,0 171,-76 172,-170l1 -45c0,-6 0,-13 -1,-19l46 -23c3,14 4,28 4,42l-1 45c-2,120 -101,219 -221,219l-344 0c-17,0 -34,-2 -50,-6z"/>
    <path class="fil4" d="M1829 1703l-115 54c-7,4 -15,8 -23,11l-129 60 68 0c15,0 30,-2 44,-4l92 -43c27,-21 48,-48 63,-78z"/>
    <path class="fil4" d="M1717 1257l-43 23 -20 -38 43 -23 20 38zm-603 320l-49 26 0 -40c0,-2 0,-3 0,-5l52 -28c-2,11 -3,22 -3,33l0 14z"/>
    <path class="fil6" d="M1729 1779l-105 49 -337 0c-122,0 -221,-99 -221,-221l0 -44c0,-40 11,-79 31,-113l201 -379c-6,-8 -10,-18 -10,-30l0 -49c0,-15 7,-28 18,-37l-40 -101c-2,-5 -2,-11 -1,-17l10 -30 98 -61 235 0c11,0 20,7 23,17l25 74c2,6 2,12 0,17l-40 101c11,9 18,22 18,37l0 49c0,12 -5,23 -12,32l110 205 0 104 -157 -291 -230 0 -203 383c-16,28 -25,58 -25,89l0 44c0,95 77,172 172,172l344 0c37,0 71,-12 99,-32l0 32zm-393 -787l246 0 0 49 -246 0 0 -49zm-7 -197l260 0 16 48 -40 99 -213 0 -40 -99 16 -48z"/>
    <polygon class="fil6" points="1371,747 1273,807 1278,791 1350,747 "/>
    <path class="fil4" d="M1347 747l-68 42 -16 48c-2,6 -2,12 1,17l40 101c-11,9 -18,22 -18,37l0 49c0,11 4,21 10,30l-201 379c-6,10 -11,20 -15,30l77 -42 184 -347 230 0 50 94 43 -24 -47 -88c7,-9 12,-20 12,-32l0 -49c0,-15 -7,-28 -18,-37l40 -101c2,-5 2,-11 0,-17l-25 -74c-3,-10 -13,-17 -23,-17l-259 0zm-12 246l246 0 0 49 -246 0 0 -49zm-7 -197l260 0 16 48 -40 99 -213 0 -40 -99 16 -48z"/>
    <path class="fil9" d="M1606 992l-25 14 0 35 -62 0 -86 49 85 0 87 -49 0 -49zm-304 173l-80 45 -35 67 79 -45 36 -67z"/>
    <path class="fil9" d="M1581 968l-43 25 43 0 0 14 25 -14 -1 -5 -1 -5 -2 -4 -3 -4 -4 -3 -4 -2 -5 -1 -5 -1zm-128 74l-86 49 66 0 86 -49 -67 0zm-123 70l-80 46 -28 53 80 -45 28 -54z"/>
    <polygon class="fil4" points="1174,1408 1095,1451 1096,1450 1115,1414 1193,1371 "/>
    <path class="fil4" d="M1565 943l-85 49 -144 0 0 49 59 0 -119 69 21 -39c-6,-8 -10,-18 -10,-30l0 -49c0,-4 0,-7 1,-11l65 -38 213 0z"/>
    <path class="fil4" d="M1704 1762l-140 66 -38 0 104 -49c3,0 6,0 9,0 3,0 6,0 9,-1 3,0 6,-1 9,-1 3,0 6,-1 8,-2 3,-1 6,-1 8,-2 3,-1 5,-1 8,-2 3,-1 5,-2 8,-3 3,-1 5,-2 8,-3 3,-1 5,-2 8,-3z"/>
    <polygon class="fil8" points="1714,1785 1621,1828 1577,1828 1630,1804 1640,1804 1650,1803 1660,1802 1669,1800 1679,1798 1688,1795 1697,1792 1706,1789 "/>
    <path class="fil4" d="M1128 1494l-60 33c2,-15 7,-30 12,-44l76 -42 -17 33c-4,7 -7,13 -10,20z"/>
    <path class="fil4" d="M1352 943l-65 38c2,-11 8,-20 16,-27l-34 -85 43 -26 40 99z"/>
    <path class="fil4" d="M1312 844l-43 26 -6 -16c-2,-5 -2,-11 -1,-17l0 -1 65 -40 -16 48z"/>
    <path class="fil8" d="M1335 968l-49 29 0 -5c0,-15 7,-28 18,-37l-39 -97 21 -13 49 123z"/>
    <path class="fil8" d="M1581 968l-43 25 -203 0 0 49 118 0 -86 49 -26 0 -11 21 -80 46 46 -87c-6,-8 -10,-18 -10,-30l0 -45 49 -29 246 0z"/>
    <polygon class="fil4" points="1185,1386 1107,1429 1114,1415 1193,1372 "/>
    <path class="fil4" d="M1304 748l-11 7c-2,2 -4,5 -5,9l-9 26 68 -42 -36 0c-2,0 -5,0 -7,1z"/>
    <path class="fil8" d="M1286 845l-21 13 -2 -4c-2,-5 -2,-11 -1,-17l15 -46 33 -20 -25 74z"/>
    <path class="fil4" d="M1263 854l-1 -2c0,1 0,1 1,2zm-1 -2l-1 -2c0,1 0,1 1,2zm-1 -2l0 -2c0,1 0,1 0,2zm0 -2l0 -2c0,1 0,1 0,2zm0 -2l0 -2c0,1 0,1 0,2zm0 -2l0 -2c0,1 0,1 0,2zm0 -2l0 -2c0,1 0,1 0,2zm0 -2l1 -2c0,1 0,1 -1,2z"/>
    <path class="fil4" d="M1287 763l2 -4c-1,1 -1,2 -2,4zm2 -4l2 -3c-1,1 -1,2 -2,3zm2 -3l2 -3c-1,1 -2,2 -2,3zm2 -3l3 -2c-1,1 -2,2 -3,2z"/>
    <polygon class="fil9" points="1322,972 1286,993 1286,997 1335,968 1330,968 1326,970 "/>
    <polygon class="fil4" points="1175,1405 1097,1448 1107,1429 1185,1386 "/>
    <path class="fil4" d="M1142 1468l-69 38c1,-6 3,-11 5,-17l75 -41 -10 20z"/>
    <path class="fil4" d="M1286 992l0 -6c0,2 0,4 0,6zm0 -6l1 -5c0,2 -1,4 -1,5zm1 -5l2 -5c-1,2 -1,3 -2,5zm2 -5l2 -5c-1,2 -1,3 -2,5zm2 -5l3 -5c-1,1 -2,3 -3,5zm3 -5l3 -4c-1,1 -2,3 -3,4zm3 -4l3 -4c-1,1 -2,3 -3,4zm3 -4l4 -4c-1,1 -3,2 -4,4z"/>
    <path class="fil7" d="M1655 1804l-53 25 -316 0c-122,0 -221,-99 -221,-221l0 -44c0,-11 1,-21 2,-32l59 -32c-8,20 -12,42 -12,64l0 44c0,95 77,172 172,172l344 0c9,0 17,-1 25,-2l0 26zm-13 -583l13 -7 0 31 -13 -24z"/>
    <path class="fil9" d="M1606 1042l-87 49 25 0 51 -29 4 -3 3 -4 2 -4 1 -5 1 -5zm-340 192l-79 45 -10 19 79 -45 10 -20z"/>
    <path class="fil4" d="M1115 1548l-50 27 0 -12c0,-12 1,-24 3,-36l60 -33c-7,17 -12,35 -14,54z"/>
    <path class="fil4" d="M1146 1707l-44 23c-17,-26 -29,-56 -34,-88l47 -25c2,33 13,64 32,90z"/>
    <path class="fil4" d="M1114 1567l-49 26 0 -31c0,-2 0,-4 0,-6l52 -28c-2,11 -3,22 -3,34l0 4z"/>
    <path class="fil4" d="M1117 1529l-52 28c0,-17 3,-35 7,-51l69 -38 -3 5c-10,17 -17,36 -21,55z"/>
    <path class="fil4" d="M1114 1563l-49 26 0 -26c0,-18 2,-35 6,-52l68 -37c-1,2 -2,3 -3,5 -1,2 -2,4 -3,5 -1,2 -2,4 -3,5 -1,2 -2,4 -2,5 -1,2 -2,4 -2,5 -1,2 -1,4 -2,5 -1,2 -1,4 -2,6 -1,2 -1,4 -2,5l0 0 0 0 0 0c0,2 -1,4 -1,5 0,2 -1,4 -1,6 0,2 -1,4 -1,6 0,2 -1,4 -1,6 0,2 0,4 -1,6 0,2 0,4 0,6 0,2 0,4 0,6 0,2 0,4 0,6z"/>
    <path class="fil9" d="M1335 968l-49 29 0 45c0,11 4,21 10,30l-46 87 80 -46 11 -21 26 0 86 -49 -118 0 0 -49 203 0 43 -25 -246 0z"/>
    <path class="fil4" d="M1630 1779l-104 49 -239 0c-26,0 -51,-5 -74,-13l74 -36 344 0z"/>
    <path class="fil4" d="M1581 1042l-87 49 -153 0 -65 123 -79 45 99 -188c-1,-2 -2,-3 -3,-5l42 -25 246 0z"/>
    <path class="fil8" d="M1630 1804l-52 25 -291 0c-14,0 -28,-1 -42,-4l42 -21 344 0z"/>
    <path class="fil4" d="M1114 1617l-47 25c-2,-11 -3,-23 -3,-34l0 -14 49 -26 0 40c0,3 0,6 0,10z"/>
    <path class="fil4" d="M1156 1441l-76 42c4,-11 9,-22 15,-32l78 -43 -18 33z"/>
    <path class="fil4" d="M1766 1781l-92 43c34,-7 66,-22 92,-43z"/>
    <path class="fil4" d="M1175 1738l-47 24c-10,-10 -19,-21 -27,-33l44 -23c8,12 18,22 29,32z"/>
    <path class="fil4" d="M1213 1763l-53 26c-12,-8 -22,-17 -32,-27l47 -24c11,10 24,18 38,24z"/>
    <path class="fil4" d="M1114 1607l-48 25c-1,-8 -1,-17 -1,-25l0 -18 49 -26 0 44z"/>
    <path class="fil4" d="M1139 1474l-68 37c5,-21 13,-42 25,-61l166 -313 80 -46 -203 383z"/>
    <path class="fil8" d="M1117 1462l-37 20c4,-11 10,-22 16,-33l191 -360 40 -23 -210 396z"/>
    <path class="fil8" d="M1090 1563l-25 13 0 -13c0,-28 5,-55 15,-80l37 -20 -3 6 -3 6 -3 6 -3 6 -2 6 -2 6 -2 6 -2 6 -2 6 -1 6 -1 6 -1 7 -1 7 -1 7 0 7 0 7z"/>
    <path class="fil8" d="M1090 1607l-24 13c0,-4 0,-8 0,-13l0 -31 25 -13 0 44z"/>
    <path class="fil4" d="M1217 1765l-53 27c-7,-4 -13,-9 -19,-14l49 -25c7,5 15,9 23,12z"/>
    <polygon class="fil4" points="1168,1732 1122,1756 1121,1754 1167,1731 "/>
    <path class="fil4" d="M1167 1731l-46 23c-14,-16 -26,-34 -35,-54l44 -23c9,20 22,38 38,54z"/>
    <path class="fil4" d="M1286 1779l-74 36c-78,-28 -136,-98 -146,-183l48 -25c0,3 0,6 0,9 0,3 0,6 1,9 0,3 1,6 1,9 0,3 1,6 2,8 1,3 1,6 2,8 1,3 1,5 2,8 1,3 2,5 3,8 1,3 2,5 3,8 1,3 2,5 3,8 1,3 2,5 4,7 1,2 3,5 4,7 1,2 3,5 4,7 2,2 3,5 5,7 2,2 3,4 5,7 2,2 4,4 5,6 2,2 4,4 6,6l0 0 0 0 0 0c2,2 4,4 6,6 2,2 4,4 6,5 2,2 4,3 7,5 2,2 4,3 7,5 2,2 5,3 7,4 2,1 5,3 7,4 2,1 5,3 7,4 3,1 5,2 8,3 3,1 5,2 8,3 3,1 5,2 8,3 3,1 5,2 8,2 3,1 6,1 8,2 3,1 6,1 8,2 3,0 6,1 9,1 3,0 6,1 9,1 3,0 6,0 9,0z"/>
    <path class="fil4" d="M1335 1042l-42 25c-4,-7 -7,-16 -7,-25l0 -20 49 -29 0 49z"/>
    <path class="fil6" d="M1623 1828l105 -49 1 5 1 5 2 4 3 4 3 3c-32,19 -70,29 -109,29l-7 0z"/>
    <path class="fil4" d="M1296 1071l-2 -3c1,1 1,2 2,3zm-2 -3l-2 -3c1,1 1,2 2,3zm-2 -3l-2 -4c1,1 1,2 2,4zm-2 -4l-1 -4c0,1 1,2 1,4zm-1 -4l-1 -4c0,1 1,3 1,4zm-1 -4l-1 -4c0,1 1,3 1,4zm-1 -4l-1 -4c0,1 0,3 1,4zm-1 -4l0 -4c0,1 0,3 0,4z"/>
    <path class="fil4" d="M1065 1563l0 -7c0,2 0,5 0,7zm0 -7l0 -7c0,2 0,5 0,7zm0 -7l1 -7c0,2 0,5 -1,7zm1 -7l1 -7c0,2 -1,5 -1,7zm1 -7l1 -7c0,2 -1,5 -1,7zm1 -7l1 -7c0,2 -1,5 -1,7zm1 -7l2 -7c-1,2 -1,5 -2,7zm2 -7l2 -7c-1,2 -1,5 -2,7zm2 -7l2 -7c-1,2 -1,5 -2,7zm2 -7l2 -7c-1,2 -2,5 -2,7zm2 -7l3 -7c-1,2 -2,5 -3,7zm3 -7l3 -7c-1,2 -2,5 -3,7zm3 -7l3 -7c-1,2 -2,5 -3,7zm3 -7l3 -7c-1,2 -2,4 -3,7zm3 -7l3 -7c-1,2 -2,4 -3,7zm3 -7l4 -6c-1,2 -2,4 -4,6z"/>
    <path class="fil7" d="M1602 1828l53 -25 76 0c-30,16 -65,25 -101,25l-27 0z"/>
    <path class="fil8" d="M1286 1804l-42 21c-98,-19 -173,-103 -179,-204l24 -13 0 10 1 10 1 10 2 10 2 10 3 9 3 9 4 9 4 9 4 8 5 8 5 8 5 8 6 7 6 7 7 7 7 7 7 6 7 6 8 5 8 5 8 5 8 4 9 4 9 4 9 3 9 3 10 2 10 2 10 1 10 1 10 0z"/>
    <g>
     <path class="fil4" d="M1720 1809l5 -2 -10 4c-3,1 -7,3 -10,4l-10 3c3,-1 7,-2 10,-3l10 -4 5 -2zm-25 9l-10 3c3,-1 7,-2 10,-3zm-10 3l-11 2c4,-1 7,-2 11,-2zm-11 2l-11 2c4,-1 7,-1 11,-2zm-11 2l-11 1c4,0 7,-1 11,-1zm-11 1l-11 1c4,0 7,0 11,-1zm-11 1l-11 0c4,0 8,0 11,0z"/>
    </g>
    <path class="fil4" d="M1286 1828l-11 0c4,0 8,0 11,0zm-11 0l-11 -1c4,0 7,1 11,1zm-11 -1l-11 -1c4,1 7,1 11,1zm-11 -1l-11 -2c4,1 7,1 11,2zm-11 -2l-11 -2c4,1 7,2 11,2zm-11 -2l-10 -3c3,1 7,2 10,3zm-10 -3l-10 -3c3,1 7,2 10,3zm-10 -3l-10 -4c3,1 7,3 10,4zm-10 -4l-10 -4c3,2 6,3 10,4zm-10 -4l-10 -5c3,2 6,3 10,5zm-10 -5l-9 -5c3,2 6,4 9,5zm-9 -5l-9 -6c3,2 6,4 9,6zm-9 -6l-9 -6c3,2 6,4 9,6zm-9 -6l-8 -7c3,2 6,4 8,7zm-8 -7l-8 -7c3,2 5,5 8,7zm-8 -7l-8 -7c3,3 5,5 8,7zm-8 -7l-7 -8c2,3 5,5 7,8zm-7 -8l-7 -8c2,3 5,5 7,8zm-7 -8l-7 -8c2,3 4,6 7,8zm-7 -8l-6 -9c2,3 4,6 6,9zm-6 -9l-6 -9c2,3 4,6 6,9zm-6 -9l-5 -9c2,3 3,6 5,9zm-5 -9l-5 -10c2,3 3,6 5,10zm-5 -10l-4 -10c1,3 3,7 4,10zm-4 -10l-4 -10c1,3 3,7 4,10zm-4 -10l-3 -10c1,3 2,7 3,10zm-3 -10l-3 -10c1,4 2,7 3,10zm-3 -10l-2 -11c1,4 2,7 2,11zm-2 -11l-2 -11c1,4 1,7 2,11zm-2 -11l-1 -11c0,4 1,7 1,11zm-1 -11l-1 -11c0,4 0,8 1,11zm-1 -11l0 -11c0,4 0,8 0,11z"/>
   </g>
  </g>
  <g>
   <path class="fil6" d="M2589 1804l-836 0c-14,0 -25,-11 -25,-25l0 -1254c0,-14 11,-25 25,-25l836 0c14,0 25,11 25,25l0 1254c0,14 -11,25 -25,25z"/>
   <path class="fil7" d="M1655 1214l832 0c16,0 29,11 29,25l0 541c0,14 -13,25 -29,25l-832 0 0 -590z"/>
   <path class="fil4" d="M2491 1828l-688 0 0 -49 688 0 0 -541 -738 0 0 -49 738 0c27,0 49,22 49,49l0 541c0,27 -22,49 -49,49z"/>
   <circle class="fil5" cx="2048" cy="1509" r="148"/>
   <path class="fil4" d="M2048 1681c-95,0 -172,-77 -172,-172 0,-95 77,-172 172,-172 95,0 172,77 172,172 0,95 -77,172 -172,172zm0 -295c-68,0 -123,55 -123,123 0,68 55,123 123,123 68,0 123,-55 123,-123 0,-68 -55,-123 -123,-123z"/>
   <path class="fil4" d="M2368 1730l-197 0 0 -49 172 0 0 -25c0,-7 3,-13 7,-17l42 -42 0 -176 -42 -42c-5,-5 -7,-11 -7,-17l0 -25 -172 0 0 -49 197 0c14,0 25,11 25,25l0 39 42 42c5,5 7,11 7,17l0 197c0,7 -3,13 -7,17l-42 42 0 39c0,14 -11,25 -25,25z"/>
   <rect class="fil4" x="1802" y="1288" width="123" height="49"/>
   <rect class="fil4" x="1876" y="1681" width="49" height="49"/>
   <polygon class="fil3" points="2491,575 1852,575 1876,452 1973,427 2048,280 2296,280 2368,427 2466,452 "/>
   <path class="fil4" d="M2589 476l-93 0 -6 -29c-2,-9 -9,-17 -18,-19l-87 -22 -67 -137c-4,-8 -13,-14 -22,-14l-247 0c-9,0 -18,5 -22,13l-70 138 -86 22c-9,2 -16,10 -18,19l-6 29 -93 0c-27,0 -49,22 -49,49l0 615 49 0 0 -615 83 0 -9 44c-1,7 0,15 5,20 5,6 12,9 19,9l639 0c7,0 14,-3 19,-9 5,-6 7,-13 5,-20l-9 -44 83 0 0 1254 -25 0 0 49 25 0c27,0 49,-22 49,-49l0 -1254c0,-27 -22,-49 -49,-49zm-708 74l16 -78 82 -21c7,-2 13,-6 16,-13l68 -134 217 0 65 134c3,7 9,11 16,13l83 21 16 78 -579 0z"/>
   <polygon class="fil4" points="2196,427 2196,353 2147,353 2147,427 2098,427 2098,476 2245,476 2245,427 "/>
   <polygon class="fil4" points="2442,1042 2442,796 2393,796 2393,1042 2319,1042 2319,747 2270,747 2270,1042 2196,1042 2196,697 2147,697 2147,1042 2073,1042 2073,747 2024,747 2024,1042 1950,1042 1950,796 1901,796 1901,1042 1852,1042 1852,1091 2491,1091 2491,1042 "/>
   <path class="fil8" d="M1630 1804l-344 0c-109,0 -197,-88 -197,-197l0 -44c0,-35 9,-70 27,-100l210 -396 260 0 212 395c19,31 29,67 28,104l-1 45c-1,108 -89,194 -197,194z"/>
   <polygon class="fil8" points="1581,968 1335,968 1286,845 1311,771 1458,771 1606,771 1630,845 "/>
   <path class="fil4" d="M1507 1410l-98 0c-14,0 -25,-11 -25,-25l0 -49c0,-14 11,-25 25,-25l148 0 0 -49 -74 0 0 -25 -49 0 0 25 -25 0c-41,0 -74,33 -74,74l0 49c0,41 33,74 74,74l98 0c14,0 25,11 25,25l0 49c0,14 -11,25 -25,25l-148 0 0 49 74 0 0 25 49 0 0 -25 25 0c41,0 74,-33 74,-74l0 -49c0,-41 -33,-74 -74,-74z"/>
   <path class="fil9" d="M1581 1066l-246 0c-14,0 -25,-11 -25,-25l0 -49c0,-14 11,-25 25,-25l246 0c14,0 25,11 25,25l0 49c0,14 -11,25 -25,25z"/>
   <path class="fil4" d="M1821 1449l-202 -376c7,-9 12,-20 12,-32l0 -49c0,-15 -7,-28 -18,-37l40 -101c2,-5 2,-11 0,-17l-25 -74c-3,-10 -13,-17 -23,-17l-295 0c-11,0 -20,7 -23,17l-25 74c-2,6 -2,12 1,17l40 101c-11,9 -18,22 -18,37l0 49c0,11 4,21 10,30l-201 379c-20,34 -31,73 -31,113l0 44c0,122 99,221 221,221l344 0c121,0 220,-98 221,-219l1 -45c1,-41 -10,-82 -31,-116zm-485 -457l246 0 0 49 -246 0 0 -49zm-7 -197l260 0 16 48 -40 99 -213 0 -40 -99 16 -48zm473 813c-1,94 -78,170 -172,170l-344 0c-95,0 -172,-77 -172,-172l0 -44c0,-31 8,-61 25,-89l203 -383 230 0 206 383c16,27 25,59 25,91l-1 45z"/>
  </g>
 </g>
</svg>
