<svg xmlns="http://www.w3.org/2000/svg" xml:space="preserve" width="350" height="200" version="1.0" shape-rendering="geometricPrecision" text-rendering="geometricPrecision" image-rendering="optimizeQuality" fill-rule="evenodd" clip-rule="evenodd" viewBox="0 0 35000 19994"><path fill="#4895C4" d="M0 0h35000v19994H0z"/><path fill="#373435" fill-opacity=".149" d="M14402 4702l-133 152h222l-573 652v1287l1709-1948-10 12-7 14-5 15-2 16v90l80-90h604v254l9-7-9 9v348l-70 79h25l475-541-7 10-5 12-4 19v19l5 18 9 16 12 14 16 11 17 6 20 3h540l13-1 12-3 11-5 10-6 10-7 8-9-2023 2305h69l480-546-11 15-7 18-2 19v267l1908-2175-7 10-5 12-4 19v19l5 18 9 16 12 14 16 11 17 6 20 3h540l13-1 12-3 11-5 10-6 10-7 8-9-2023 2305h230l391-446 17-14 18-10 21-6 22-2 22 2 20 6 1 1 1695-1933-7 10-5 12-4 19v19l5 18 9 16 12 14 16 11 17 6 20 3h541l12-1 12-3 11-5 10-6 10-7 8-9-2023 2305h330l2107-2402-7 10-5 12-4 19v19l5 18 9 16 12 14 16 11 17 6 20 3h532l286-327-10 12-7 14-4 15-2 16v90l79-90h605v604l-70 79h70l16-1 14-5 14-7 12-10-359 408v442l1 12 3 12 5 12 6 10 8 9 9 8 10 7 11 5 20 4h19l18-5 16-9 14-12-862 981h235l507-578-10 15-7 18-3 20v508l1 13 1 4h675v1298l1620-1848-10 12-7 13-4 15-2 16v91l79-91h922v2840l7-2 51-28 45-37-103 117v1825h1666v3492l-359 410h394l61-6 57-18 51-28 45-37-300 342 53 2 156 5 126 3 93 3 57 2h20l19-8 50-25 71-39 82-51 82-63 73-73-191 219 60-32 66-51-3754 4280H0v-2040L9507 7115l102 175 18-9 18-8 18-7 19-6 19-5 20-3 20-2 20-1-76 87 29-9 47-5 47 5 15 4 190-217-101 176 17 10 16 12 16 12 14 14 14 14 13 16 11 16 11 17 175-102-208 237 1 17-4 47-14 43-18 34 109-124-1 20-2 20-3 20-4 19-6 19-7 18-8 19-10 17 153 88 641-732 118 202 20-11 21-10 21-8 22-6 23-6 22-3 23-2 23-1-87 99 14-4 2746-3132-37 45-28 51-17 57-6 61v95l6 61 17 57 28 51 37 45 45 37 51 28 57 17 61 6h190l61-6 57-17 51-28 45-37zm11555 11116l218-249-218 249z"/><g fill-rule="nonzero"><path fill="#fff" d="M21199 8987c0-44 36-79 80-79s79 35 79 79v271c0 43-35 79-79 79h-270c-44 0-80-36-80-79 0-44 36-80 80-80h190v-191zM20500 9337c34 0 64-21 75-53 18-52-20-106-75-106h-541c-33 0-63 21-75 53-18 52 21 106 75 106h541zm-3784-159c-33 0-64 21-75 53-18 52 21 106 75 106h541c34 0 64-21 75-53 18-52-20-106-75-106h-541zm1081 0c-33 0-63 21-75 53-18 52 21 106 75 106h541c34 0 64-21 75-53 18-52-20-106-75-106h-541zm1081 0c-33 0-63 21-75 53-18 52 21 106 75 106h541c34 0 64-21 75-53 18-52-20-106-75-106h-541zM16239 9178c44 0 80 36 80 80 0 43-36 79-80 79h-270c-44 0-79-36-79-79v-271c0-44 35-79 79-79s80 35 80 79v191h190zM15890 8479c0 33 21 63 53 75 51 18 106-21 106-75v-509c0-34-22-64-53-75-52-18-106 20-106 75v509zm159-2544c0-34-22-64-53-75-52-18-106 20-106 75v509c0 34 21 63 53 75 51 18 106-21 106-75v-509zm0 1017c0-33-22-63-53-75-52-18-106 21-106 75v509c0 34 21 64 53 75 51 18 106-20 106-75v-509zM16049 5363c0 44-36 79-80 79s-79-35-79-79v-271c0-44 35-79 79-79h270c44 0 80 35 80 79s-36 80-80 80h-190v191zM16780 5013c-34 0-64 21-75 53-18 52 20 106 75 106h540c34 0 64-21 75-53 19-52-20-106-75-106h-540zm3784 159c33 0 63-21 75-53 18-52-21-106-75-106h-541c-34 0-64 21-75 53-18 52 20 106 75 106h541zm-1081 0c33 0 63-21 75-53 18-52-21-106-75-106h-541c-34 0-64 21-75 53-18 52 20 106 75 106h541zm-1082 0c34 0 64-21 75-53 19-52-20-106-75-106h-540c-34 0-64 21-75 53-18 52 20 106 75 106h540zM21009 5172c-44 0-80-36-80-80s36-79 80-79h270c44 0 79 35 79 79v271c0 44-35 79-79 79s-80-35-80-79v-191h-190zM21358 5903c0-34-21-64-53-75-51-18-106 21-106 75v509c0 34 22 64 53 75 52 18 106-20 106-75v-509zm-159 2544c0 33 22 64 53 75 52 18 106-20 106-75v-509c0-34-21-64-53-75-51-18-106 20-106 75v509zm0-1018c0 34 22 64 53 75 52 19 106-20 106-75v-508c0-34-21-64-53-75-51-19-106 20-106 75v508z"/><path fill="#62C1DA" d="M16287 5506h-604v-604h604v604z"/><path fill="#fff" d="M16287 5585h-604c-44 0-80-35-80-79v-604c0-44 36-80 80-80h604c44 0 80 36 80 80v604c0 44-36 79-80 79zm-525-159h446v-445h-446v445z"/><path fill="#62C1DA" d="M21502 5506h-605v-604h605v604z"/><path fill="#fff" d="M21502 5585h-605c-43 0-79-35-79-79v-604c0-44 36-80 79-80h605c43 0 79 36 79 80v604c0 44-36 79-79 79zm-525-159h445v-445h-445v445z"/><path fill="#62C1DA" d="M24474 6952h-922v8871h922V6952z"/><path fill="#fff" d="M24395 7032h-763v8712h763V7032zm-843-159h922c44 0 80 36 80 79v8871c0 44-36 80-80 80h-922c-44 0-79-36-79-80V6952c0-43 35-79 79-79z"/><path fill="#fff" d="M24395 7032h-763v8712h763V7032zm-843-159h922c44 0 80 36 80 79v8871c0 44-36 80-80 80h-922c-44 0-79-36-79-80V6952c0-43 35-79 79-79z"/><path fill="#fff" d="M24125 11118h349v95h-349v-95zM24125 11595h349v95h-349v-95z"/><path fill="#fff" d="M24125 11118h349v95h-349v-95zM24125 10673h349v95h-349v-95zM24125 10196h349v95h-349v-95zM24125 9719h349v95h-349v-95zM24125 9242h349v95h-349v-95zM24125 8797h349v95h-349v-95zM24125 8320h349v95h-349v-95zM24125 7843h349v95h-349v-95zM24125 7366h349v95h-349v-95zM24125 12071h349v96h-349v-96zM24125 12548h349v96h-349v-96zM24125 13025h349v96h-349v-96zM24125 13471h349v95h-349v-95zM24125 13947h349v96h-349v-96zM24125 14424h349v96h-349v-96zM24125 14901h349v96h-349v-96zM24125 15378h349v96h-349v-96z"/><path fill="#FFC821" d="M10437 15763l-2463-2752 4654-4166-2191 6918z"/><path fill="#fff" d="M10425 15774l-2474-2765 4667-4175 25 16-2199 6945-19-21zm-2429-2762l2434 2720 2165-6836-4599 4116z"/><path fill="#fff" d="M10425 15774l-2474-2765 4667-4175 25 16-2199 6945-19-21zm-2429-2762l2434 2720 2165-6836-4599 4116z"/><path fill="#fff" d="M11646 10265l-269-300 75-67 269 300-75 67zM11295 10579l-268-301 74-66 269 300-75 67zM10945 10892l-269-300 75-67 269 300-75 67zM10595 11206l-269-301 75-66 269 300-75 67zM10244 11519l-268-300 75-67 268 300-75 67zM9894 11833l-269-301 75-66 269 300-75 67zM9544 12146l-269-300 75-67 269 300-75 67zM9193 12460l-268-300 75-67 268 300-75 67zM8843 12773l-269-300 75-67 269 300-75 67zM8493 13087l-269-300 75-67 269 300-75 67z"/><path fill="#62C1DA" d="M8969 13066l2209-1976-1040 3282-1169-1306z"/><path fill="#AAAAAC" d="M18751 15823h-3243v-1430h3243v1430z"/><path fill="#7D7D80" d="M18751 15830l-3256-1437h3256v1437z"/><path fill="#2A2A2F" d="M22295 13491V7032c0-167-135-302-302-302h-9705c-167 0-302 135-302 302v6459h10309z"/><path fill="#fff" d="M12406 7446v5530h9470V7446h-9470zM11986 13480v906c0 167 135 303 302 303h9705c167 0 302-136 302-303v-906H11986z"/><path fill="#347990" d="M17250 7077c0 60-49 109-109 109-61 0-110-49-110-109s49-109 110-109c60 0 109 49 109 109z"/><path fill="#2A2A2F" d="M17189 14217c20 87-34 174-122 194l-11 3c-87 20-174-35-194-122l-55-240c-20-87 34-174 122-194l11-3c87-20 284 75 304 162l-55 200z"/><path fill="#2A2A2F" d="M17092 14217c-20 87 35 174 122 194l11 3c87 20 174-35 194-122l56-240c20-87-35-174-122-194l-11-3c-88-20-246 41-266 128l16 234z"/><path fill="#2A2A2F" d="M17215 14018c6 27-11 54-39 59-27 6-53-11-59-38-1-1-52-233 74-330 22-17 54-14 71 8s13 54-9 71c-76 59-38 229-38 230z"/><path fill="#fff" d="M19484 15817c-15-229-205-410-438-410h-3811c-232 0-422 181-438 410h4687z"/><path fill="#FF7542" d="M15317 9528h-2353v-827h2353v827z"/><path fill="#FFBFAC" d="M15317 10132h-2353v-254h2353v254zM15317 10704h-2353v-254h2353v254zM15317 11277h-2353v-255h2353v255zM15317 11849h-2353v-254h2353v254zM15317 12389h-2353v-222h2353v222z"/><path fill="#FF7542" d="M18306 9528h-2353v-827h2353v827z"/><path fill="#FFBFAC" d="M18306 10132h-2353v-254h2353v254zM18306 10704h-2353v-254h2353v254zM18306 11277h-2353v-255h2353v255zM18306 11849h-2353v-254h2353v254zM18306 12389h-2353v-222h2353v222z"/><path fill="#FF7542" d="M21295 9528h-2353v-827h2353v827z"/><path fill="#FFBFAC" d="M21295 10132h-2353v-254h2353v254zM21295 10704h-2353v-254h2353v254zM21295 11277h-2353v-255h2353v255zM21295 11849h-2353v-254h2353v254zM21295 12389h-2353v-222h2353v222z"/><path fill="#62C1DA" d="M14427 8256h-1463v-413h1463v413z"/><path fill="#705089" d="M16144 8256h-1463v-413h1463v413z"/><path fill="#FFBFAC" d="M17893 8256h-1495v-413h1495v413z"/><path fill="#6DDFAE" d="M19578 8256h-1431v-413h1431v413z"/><path fill="#62C1DA" d="M21295 8256h-1431v-413h1431v413z"/><path fill="#2A2A2F" d="M26478 15267c0 167-136 302-303 302h-5595c-167 0-303-135-303-302v-3720c0-167 136-302 303-302h5595c167 0 303 135 303 302v3720z"/><path fill="#fff" d="M20600 11667v3492h5540v-3492h-5540zM19691 15412c16 237 213 425 455 425h6448c242 0 439-188 455-425h-7358z"/><path fill="#C8C8C9" d="M19691 15412c16 237 6903 425 6903 425s439-188 455-425h-7358z"/><path fill="#347990" d="M23479 11443c0 60-49 109-109 109s-109-49-109-109 49-109 109-109 109 49 109 109z"/><path fill="#FF7542" d="M22312 13057h-1335v-445h1335v445z"/><path fill="#FFBFAC" d="M22312 13439h-1335v-159h1335v159zM22312 13788h-1335v-159h1335v159zM22312 14075h-1335v-128h1335v128zM22312 14424h-1335v-127h1335v127zM22312 14742h-1335v-127h1335v127z"/><path fill="#FF7542" d="M24093 13057h-1399v-445h1399v445z"/><path fill="#FFBFAC" d="M24093 13439h-1399v-159h1399v159zM24093 13788h-1399v-159h1399v159zM24093 14075h-1399v-128h1399v128zM24093 14424h-1399v-127h1399v127zM24093 14742h-1399v-127h1399v127z"/><path fill="#FF7542" d="M25810 13057h-1336v-445h1336v445z"/><path fill="#FFBFAC" d="M25810 13439h-1336v-159h1336v159zM25810 13788h-1336v-159h1336v159zM25810 14075h-1336v-128h1336v128zM25810 14424h-1336v-127h1336v127zM25810 14742h-1336v-127h1336v127z"/><path fill="#62C1DA" d="M21804 12294h-827v-191h827v191z"/><path fill="#705089" d="M22821 12294h-890v-191h890v191z"/><path fill="#FFBFAC" d="M23839 12294h-859v-191h859v191z"/><path fill="#6DDFAE" d="M24824 12294h-827v-191h827v191z"/><path fill="#62C1DA" d="M25810 12294h-859v-191h859v191z"/><path fill="#2A2A2F" d="M14777 15521c0 167-136 302-303 302h-1048c-167 0-303-135-303-302v-2511c0-167 136-303 303-303h1048c167 0 303 136 303 303v2511z"/><path fill="#fff" d="M14639 15327v-2233h-1411v2233h1411z"/><path fill="#FFBFAC" d="M14639 13295v-201h-1411v201h1411zM13228 15125v202h1411v-202h-1411z"/><path fill="#347990" d="M14060 15573c0 60-49 109-110 109-60 0-109-49-109-109s49-109 109-109c61 0 110 49 110 109z"/><path fill="#62C1DA" d="M14522 13725h-1176v-223h1176v223z"/><path fill="#705089" d="M14522 14011h-1176v-191h1176v191z"/><path fill="#FF7542" d="M14522 14329h-1176v-223h1176v223z"/><path fill="#6DDFAE" d="M14522 14615h-1176v-191h1176v191z"/><path fill="#62C1DA" d="M14522 14933h-1176v-222h1176v222z"/><path fill="#2A2A2F" d="M12678 15521c0 167-135 302-302 302H9928c-167 0-302-135-302-302v-3688c0-167 135-302 302-302h2448c167 0 302 135 302 302v3688z"/><path fill="#fff" d="M12529 15304v-3358H9764v3358h2765z"/><path fill="#347990" d="M11239 15573c0 60-49 109-109 109-61 0-110-49-110-109s49-109 110-109c60 0 109 49 109 109z"/><path fill="#62C1DA" d="M11025 12389H9944v-190h1081v190z"/><path fill="#705089" d="M11025 12707H9944v-190h1081v190z"/><path fill="#FF7542" d="M11025 13025H9944v-222h1081v222z"/><path fill="#6DDFAE" d="M11025 13312H9944v-191h1081v191z"/><path fill="#62C1DA" d="M11025 13629H9944v-222h1081v222z"/><path fill="#FF7542" d="M12360 12580h-1144v-381h1144v381z"/><path fill="#FFBFAC" d="M12360 12835h-1144v-128h1144v128zM12360 13121h-1144v-159h1144v159zM12360 13375h-1144v-127h1144v127zM12360 13661h-1144v-159h1144v159zM12360 13916h-1144v-128h1144v128zM11025 13947H9944v-127h1081v127zM11025 14234H9944v-159h1081v159zM11025 14488H9944v-127h1081v127zM11025 14742H9944v-127h1081v127zM11025 15028H9944v-127h1081v127z"/><path fill="#FF7542" d="M12360 15028h-1144v-953h1144v953z"/><path fill="#fff" d="M11069 9521c75-130 112-271 113-421v-3l-338 2v1c0 90-23 175-68 253l293 168zm-2-846c-74-128-181-233-309-307l-168 292c77 45 142 109 186 186l291-171zm-732-419c-148 0-293 39-421 114l170 291c78-45 163-67 254-68l-3-337zm-727 1267c73 127 181 234 309 308l168-293c-76-44-142-109-186-185l-291 170zm731 420c149 0 293-39 422-113l-170-292c-79 45-163 68-254 68l2 337z"/><path fill="#fff" d="M11013 9100c0 372-302 674-675 674s-675-302-675-674c0-373 302-675 675-675s675 302 675 675z"/><path fill="#62C1DA" d="M10724 9100c0 213-173 385-386 385s-386-172-386-385 173-386 386-386 386 173 386 386z"/><path fill="#fff" d="M11616 7857c52-90 77-188 78-291v-2l-233 1v1c0 61-16 121-47 174l202 117zm-1-584c-52-90-124-161-213-213l-117 202c54 31 97 75 129 128l201-117zm-505-290c-102 0-204 27-292 78l118 202c53-31 113-47 175-47l-1-233zm-503 875c52 89 124 161 213 213l116-202c-54-32-97-75-128-129l-201 118zm505 290c102 0 203-27 291-78l-117-201c-54 31-114 46-175 46l1 233z"/><path fill="#fff" d="M11577 7566c0 257-208 466-466 466s-466-209-466-466c0-258 208-467 466-467s466 209 466 467z"/><path fill="#62C1DA" d="M11377 7566c0 147-119 266-266 266s-266-119-266-266c0-148 119-267 266-267s266 119 266 267z"/><path fill="#fff" d="M10200 7806c45-77 67-163 67-253v-2l-202 2c0 54-14 106-41 152l176 101zm-1-507c-44-76-110-141-186-185l-101 176c46 26 86 65 112 111l175-102zm-440-252c-87 0-176 24-252 68l102 175c46-27 98-41 152-41l-2-202zm-436 760c44 77 109 141 185 185l101-176c-45-26-85-65-111-111l-175 102zm439 252c89 0 176-23 253-68l-102-175c-46 27-100 41-152 41l1 202z"/><path fill="#fff" d="M10166 7553c0 224-181 405-405 405s-405-181-405-405c0-223 181-405 405-405s405 182 405 405z"/><path fill="#62C1DA" d="M9992 7553c0 128-103 232-231 232s-231-104-231-232 103-231 231-231 231 103 231 231z"/><path fill="#FFC821" d="M18179 15744c0 61-50 111-111 111-62 0-112-50-112-111v-3084c0-62 50-112 112-112 61 0 111 50 111 112v3084zM18974 15744c0 61-50 111-112 111-61 0-111-50-111-111v-3084c0-62 50-112 111-112 62 0 112 50 112 112v3084z"/><path fill="#FFC821" d="M18847 13471h-763v-191h763v191zM18847 13916h-763v-191h763v191zM18847 14361h-763v-223h763v223zM18847 14774h-763v-191h763v191zM18847 15219h-763v-191h763v191z"/><path fill="#fff" d="M24665 8813c0-167-135-303-302-303h-1367c-167 0-302 136-302 303v699c0 167 135 302 302 302h1367c167 0 302-135 302-302v-699z"/><path fill="#fff" d="M23488 9749l-381 372v-498l381 126z"/><path fill="#FFC821" d="M23044 9083h1240v-191h-1240v191zM23044 9496h1240v-223h-1240v223z"/><path fill="#FFBFAC" d="M14491 4488c0 167-136 302-303 302h-190c-167 0-302-135-302-302v-95c0-167 135-302 302-302h190c167 0 303 135 303 302v95z"/><path fill="#FFC821" d="M13696 4854h795v3402h-795V4854z"/><path fill="#FFE9A6" d="M13918 4854h350v3402h-350V4854z"/><path fill="#fff" d="M14489 8256h-806l403 873 403-873z"/><path fill="#2A2A2F" d="M13846 8594l240 520 240-520h-480z"/><path fill="#fff" d="M13696 4504h795v350h-795v-350z"/></g></svg>