<svg xmlns="http://www.w3.org/2000/svg" xml:space="preserve" width="350" height="200" version="1" shape-rendering="geometricPrecision" text-rendering="geometricPrecision" image-rendering="optimizeQuality" fill-rule="evenodd" clip-rule="evenodd" viewBox="0 0 35000 19994"><path fill="#21759B" d="M0 0h35000v19994H0z"/><path fill="#373435" fill-opacity=".149" d="M20919 12211l-1180 1313 27-14 102-56 100-59 99-60 97-63 95-65 95-67 92-69 92-71 89-74 88-75 87-78 86-79 84-82 45-46 45-47 44-48-3139 3494-1 6-4 11-4 9-5 9-5 8-6 7-86 96 204-35 1043-1161 10 24 33-13 13-4 12-3 11-2h22l11 2 10 3 9 4 7 4 6 7 8 9 7 11 7 13 8 15 3 8 102-114 8-4 7-5 7-4 7-4 7-4 7-4 6-4 7-3 6-3 6-3 6-3 5-3 6-2 5-2 5-2 5-2 10-4 11-3 10-3 11-3 10-1 11-2h10l10-1 10 1h10l10 2 10 1 9 2 9 3 9 3 9 4 9 4 8 4 8 5 8 5 8 6 7 6 8 7 6 7 7 7 6 8 6 8 6 9 5 9 5 9 4 10 5 10 3 10 3 11 1 3 456-507 13 22 30-17 13-6 12-6 12-4 11-3 11-1 10-1 10 1 9 3 7 3 7 6 9 8 8 10 4 5 99-110 230-130 15-8 14-7 13-7 12-5 11-5 10-3 10-3 8-2h9l4-1h9l4 1h9l4 1 4 1 4 1 4 1 4 2 4 1 4 2 4 3h1l469-523-9 11-9 11-8 12-7 11-7 12-6 13-6 12-5 12-4 12-4 13-3 12-1 5 305-339 3 7 4 6 2 6 713-793-18 20 5 6 4 6 4 6 3 6 2 5 1 5 1 4 1 4v4l-1 4-1 4-1 4-2 4-2 3-2 4-3 4-260 289-1 6 119-133 6-6 5-5 6-6 6-5 7-6 6-5 7-5 7-4 6-5 8-4 7-4 7-4 7-3 8-4 7-3 8-3 8-2 8-3 8-2 7-2 9-2 8-1 8-1 8-1 8-1h33l8 1 8 1 8 2 16 4 17 4 17 7 18 7 18 9 18 10 20 12 19 12-359 400 7 3 12 4 12 4 12 2 12 2 12 2 12 1h25l13-1 12-1 13-2 13-2 13-2 13-3 13-4 14-3 13-4 14-5 13-4 14-5 14-5 14-5 14-5 15-4 14-5 15-5 13-4 13-5 12-4 13-4 12-4 12-5 11-4 12-4 11-4 11-4 11-4 11-3 10-3 11-3 10-2 9-2 10-2 10-1 10-1 9-1h10l9 1 9 1 9 1 9 2 9 3 9 3 9 4 9 5 9 6 8 6 9 8 5 5 6 5 5 6 4 6 4 6 4 7 4 6 3 7 3 8 3 7 2 7 2 8 1 8 1 8 1 8v8l-1 8v8l-1 9-2 8-2 9-2 8-3 9-4 8-3 9-5 9-4 9-5 8-6 9-6 8-7 9-7 8-6 7-202 225 2 2 46-52h1l1-1 1-1 1-1 1-1 2-1 2-2 2-1 2-2 2-2 3-1 2-2 3-2 2-2 3-2 3-3 4-2 3-2 3-2 4-2 3-3 4-2 4-3 4-2 4-3 3-2 4-2 4-3 4-2 4-2 4-2 4-2 6-4 5-2 5-3 5-3 5-3 4-2 4-3 4-2 4-3 4-2 4-3 3-2 4-3 3-2 3-3 3-2 4-3 3-3 3-3 3-2 3-3 3-3 3-3 3-4 3-3-192 215 196-218 3-4 4-4-203 226 2 2-5574 6203H574L13539 5565l-126 145-120 150-115 155-109 160-93 147-88 149-82 150-77 153-71 154-66 156-1 3 1183-1317 170-177 184-175 190-163 194-152 199-140 203-128 209-117 213-105 218-94 223-82 227-70 232-59 237-47 241-36 245-23 250-13h254l235 11 232 21 229 33 225 44 221 54 218 64 213 74 209 83 204 93 198 102 193 111 188 120 182 128 175 135 169 144 162 151 155 159 147 165 140 172 132 179 124 184 115 191 107 197 97 202 88 207 79 211 68 217 58 221 48 224 38 229 26 233 15 235 4 261-9 257-21 252-33 248-45 243-58 238-70 233-83 229-94 224-107 220-119 214-132 210-143 204-156 200-168 195z"/><g fill="#FEFEFE" fill-rule="nonzero"><path d="M14252 13718l-30 32c-16-15-30-27-45-36-14-9-30-15-45-18-16-4-32-5-50-4-18 2-38 6-61 13-29 9-92 38-188 90l-1205 619-34-33 433-986-962 484-31-29 561-1283c42-98 66-155 71-173 9-33 9-63-1-92-9-29-31-59-65-92l29-31 431 408-30 32-20-20c-31-29-61-45-89-46-29-1-53 8-71 27-9 9-22 28-37 58-16 28-34 66-55 115l-383 863 714-366 104-232c10-30 19-57 24-82 6-24 8-48 6-71-2-22-8-44-19-65s-28-43-51-64l30-32 452 429-30 31-31-29c-32-31-62-46-89-47-27 0-52 11-75 35-27 29-62 91-104 188l-371 836 822-424c93-47 152-84 177-110s31-56 17-90c-14-33-39-68-77-104l30-31 348 330zm186 694c110 57 185 148 224 273s27 250-37 375c-66 129-161 215-287 258s-247 34-363-25c-119-61-197-153-234-277-38-123-23-251 44-383 69-134 172-220 307-258 118-32 233-20 346 37zm-36 40c-43-22-87-33-130-31-43 0-84 12-124 35-41 22-79 54-116 96-36 42-70 93-101 153-30 60-52 117-66 172-13 56-17 107-13 155 5 47 19 89 43 126 23 37 57 67 101 89 40 21 80 32 122 34 41 3 83-6 123-24 41-19 81-49 120-91 39-41 76-96 110-163 33-64 57-125 71-181 14-57 19-108 13-155-5-47-21-89-46-125s-61-66-107-90zm1336 1477l-248-70-191-519c-12-3-23-5-32-8-10-2-18-4-25-6-6-2-13-4-19-6-7-2-14-5-21-7l-77 266c-16 58-20 95-11 113 11 25 35 42 69 52l36 10-7 25-396-113 8-25 34 10c39 11 71 6 95-14 14-11 28-43 43-95l169-591c16-58 20-95 11-113-12-25-35-42-70-52l-35-10 7-25 338 96c97 28 167 56 211 84 21 14 40 30 56 49 17 19 30 40 40 63s16 47 18 73c3 25 0 51-7 77-9 28-21 53-37 75s-36 40-61 55-54 26-87 32c-33 7-70 9-111 6l116 318c27 73 53 124 78 153 27 28 64 53 113 72l-7 25zm-524-659c9 3 16 5 22 7 7 2 12 4 16 5 44 13 85 19 121 18 37 0 69-6 96-18 28-11 50-28 69-49 18-21 31-47 39-75 8-29 11-56 8-82-3-27-10-51-23-73s-30-41-52-58c-21-16-47-29-76-37-13-4-29-7-47-10-19-4-40-6-64-8l-109 380zm891 748l2-25 36 3c40 3 70-8 89-32 12-14 20-48 24-102l50-613c5-60 1-97-11-113-17-22-43-34-79-37l-36-3 2-26 390 32c144 11 251 36 323 74 73 39 128 97 168 176 39 78 55 166 47 265-5 70-22 134-50 191-27 57-65 104-114 143-48 38-107 67-176 85-69 19-148 24-236 17l-429-35zm279-46c58 18 108 29 150 32 54 5 105-1 153-17s91-41 128-75 67-77 91-127c23-51 38-108 43-173 5-66 0-125-15-179-14-54-37-100-69-140-31-39-70-71-115-94-46-24-97-38-153-42-22-2-45-2-69 0-24 1-50 4-78 8l-66 807zm1719-656l78 455c17 98 38 157 64 177 36 29 83 38 143 28l60-10 7 42-678 116-7-42 60-10c32-6 60-16 83-31s39-34 49-59c11-27 10-85-5-173l-173-1010c-16-98-37-157-63-178-36-29-84-38-144-28l-60 10-7-42 580-99c141-24 255-29 343-14 43 8 84 21 123 40 39 18 75 42 107 71s60 63 82 101 37 81 45 127c11 64 10 125-3 181-13 57-36 107-72 153-35 44-81 83-138 114-57 32-124 54-202 68-78 13-168 17-272 13zm-11-67c44 1 81 1 113-1 33-2 60-4 83-8 40-7 77-22 111-45 33-22 61-51 83-85 21-34 37-73 46-116s9-90 1-138c-10-57-27-106-52-148s-55-76-91-102c-35-26-75-44-119-53-43-9-89-9-136-1-21 3-43 9-68 17s-52 18-82 31l111 649zm2247 211l-240 92-465-299c-11 5-21 10-30 13-9 4-17 7-24 10-6 2-12 4-19 7l-21 6 99 259c22 56 41 88 59 97 24 13 53 13 86 0l35-13 10 24-384 148-10-25 34-13c38-14 60-37 68-68 4-17-4-50-24-101l-221-574c-21-56-41-88-58-97-25-13-54-13-88 0l-33 13-10-24 328-126c94-36 167-56 219-60 25-2 50 0 74 5 25 6 48 15 70 27s41 28 58 46c17 20 31 42 40 67 11 27 16 55 17 82 0 27-5 54-16 81-11 26-27 52-50 77-22 26-51 50-85 72l284 184c66 43 117 67 154 75 38 7 83 4 134-10l9 25zm-815-212c9-3 16-5 22-8 7-2 12-3 16-5 43-17 79-36 107-58 29-23 51-47 66-73 15-25 23-52 25-80s-3-56-13-84c-11-28-25-51-44-70-18-20-38-35-62-44-23-11-49-16-76-16s-55 6-83 17c-13 5-28 11-44 20-17 9-35 19-56 32l142 369zm951-881l184 327 185-104c27-15 47-30 61-44 15-14 23-29 27-44 4-16 4-32-1-49s-12-36-23-58l23-13 162 288-22 13c-15-18-27-33-37-44s-18-19-25-23c-7-5-15-9-24-11-9-3-19-3-31-2-11 1-24 4-38 10-14 5-29 12-47 22l-184 104 154 274c20 36 35 58 43 64 3 3 8 5 12 7s9 3 15 2c6 0 13-2 22-5 8-3 18-8 29-14l143-80c24-14 44-26 60-37 15-10 28-21 38-31s18-22 24-33c6-12 11-25 16-41 6-19 10-42 13-69 2-26 2-56 1-89l25-14 45 248-648 365-13-23 30-17c8-4 16-9 24-16 7-7 14-14 20-22 5-8 10-16 13-25s4-18 2-27c-2-15-15-43-38-84l-303-539c-30-52-53-81-71-88-24-8-53-2-88 17l-30 17-13-22 648-365 102 182-15 8c-17-19-32-35-44-47-13-11-25-20-36-26s-22-10-32-12c-11-1-23-1-35 0-21 4-52 17-93 40l-230 130zm1116-901l213 250-20 17c-48-42-92-71-133-85-20-7-41-11-63-12s-44 1-66 5c-21 4-42 11-62 21-20 9-38 21-55 35-18 16-32 33-43 53s-17 40-20 60-2 40 3 58c5 19 13 36 25 50 17 20 37 34 59 40 22 7 46 10 73 8 27-1 56-5 89-12 32-7 67-15 104-23 42-10 82-19 121-26 39-8 75-11 110-10 35 0 68 7 100 19 30 13 60 35 87 66 23 27 39 58 48 92 10 34 12 69 7 105-5 35-17 71-35 106-20 34-46 66-80 95-12 11-23 20-33 27-9 7-18 14-27 20-10 5-20 11-31 16-11 4-25 10-41 16-12 4-23 8-34 13s-22 10-30 15c-10 4-17 9-23 12s-10 6-12 7c-9 7-14 16-14 26-1 10 5 24 16 43l-20 17-211-249 20-17c27 22 51 40 74 54 23 15 44 25 63 31s39 9 62 10c22 0 44-2 66-7 23-6 45-14 67-25s42-25 61-41c23-19 40-40 53-61 13-22 21-44 24-65 4-22 2-43-3-63-6-20-15-38-29-53-19-24-41-39-64-47-23-7-48-10-76-9-26 2-55 6-87 13-31 7-65 14-102 20-41 7-80 14-117 22-38 7-74 10-108 9s-66-7-97-19c-30-13-58-34-85-65-21-25-37-54-46-86-9-33-11-66-7-100 5-33 16-66 33-99 17-32 42-61 72-87 38-33 88-58 148-77 27-8 45-16 54-23 9-8 14-17 16-28 1-10-3-26-14-45l20-17zm702-757l247 218-18 19c-53-35-101-57-143-65-21-4-43-5-65-3s-43 7-64 14c-20 8-40 17-58 30-19 12-35 26-50 42-16 19-27 38-35 59s-11 42-11 62 4 40 11 58c8 18 18 33 32 45 20 18 41 28 64 32 23 3 47 2 74-3 26-5 54-13 85-25s64-24 100-38c41-15 79-29 116-43 38-13 73-22 108-26s68-2 101 6 65 25 96 53c26 23 47 51 61 84 14 32 22 66 22 102s-7 73-20 110c-14 37-36 73-65 106-11 12-20 23-29 31-8 9-16 17-25 24-8 7-17 14-28 20-10 6-23 13-38 22-11 5-21 11-31 18-11 7-20 13-29 18-8 6-15 12-20 16-6 4-9 7-11 8-7 9-11 19-10 28 1 10 8 23 22 40l-17 20-245-216 17-20c30 19 57 33 82 44 25 10 47 17 67 21 19 3 40 4 61 1 22-3 44-9 65-17 22-9 43-20 63-34s38-30 55-49c20-22 34-45 43-69 10-23 15-45 15-67s-4-42-13-62c-8-18-20-35-35-48-23-21-47-33-71-37s-49-4-76 2c-26 5-54 13-84 25-30 11-63 23-98 34-40 13-77 26-113 38-36 13-72 21-106 25-33 4-66 2-98-5-32-8-63-25-93-52-25-22-45-48-58-79-14-31-21-63-22-97 0-34 6-68 19-103 12-34 32-67 59-97 33-38 78-70 135-97 26-12 42-22 50-30 8-10 12-20 12-31 0-10-7-24-21-42l18-20zM17530 3869c9 3 17 6 26 7 157 14 313 25 470 41 202 20 401 63 597 113 205 52 406 114 600 196 164 70 328 141 487 222 308 157 593 350 861 568 237 193 455 405 654 637 339 395 612 830 819 1308 148 342 261 696 326 1064 31 175 53 353 73 530 37 332 28 664-7 995-66 622-241 1213-526 1771-164 322-358 626-590 904-111 133-225 265-348 387-444 441-949 795-1520 1053-347 156-707 273-1079 349-401 82-806 115-1215 100-317-11-631-51-940-121-679-153-1300-434-1865-840-204-146-394-308-575-481-470-449-833-973-1103-1563-158-344-274-703-349-1074-86-427-121-859-97-1295 50-930 329-1786 840-2565 284-433 627-813 1026-1142 236-195 488-367 755-516 239-134 486-252 746-340 176-60 354-117 534-163 157-39 317-65 476-90 129-19 260-28 390-41 46-4 92-4 138-7 8 0 16-4 23-7h373zm28 9941c1102-21 2247-470 3181-1410 993-998 1468-2212 1414-3617-98-2530-2171-4541-4690-4594-1367-29-2550 441-3519 1404-938 932-1410 2074-1413 3398-7 2628 2126 4817 5027 4819z"/><path d="M16248 11719c-13-36-24-66-34-96-244-721-488-1442-733-2162-275-811-551-1622-827-2432-3-8-6-15-8-22-18-61 1-94 65-95 143-3 286-1 429-2h73c30 1 46-16 47-45 1-85 0-170-2-255 0-32-18-44-54-43-191 8-381 17-571 21-250 7-501 10-751 14-77 1-155 0-239 0 214-332 463-628 755-888 679-607 1471-977 2375-1091 978-123 1901 55 2761 543 286 163 549 357 797 587-64 6-119 9-173 17-171 27-319 100-434 230-104 117-158 257-175 411-28 251 24 488 140 709 90 170 191 336 288 502 129 220 235 449 289 700 37 175 51 351 46 530-12 403-118 786-243 1166-178 537-354 1074-531 1612-3 9-6 18-11 32-6-14-11-24-14-34-241-708-480-1416-721-2124-278-818-557-1636-835-2454-35-102-12-137 97-139 135-2 271-1 406-1 60 0 68-7 68-69 0-72 0-144-1-216 0-47-13-58-59-58-452 9-904 24-1356 25-371 1-741-16-1112-24-49-2-63 10-63 58-1 74-1 148-1 223 0 49 13 61 64 61 149 1 299 2 448 3 65 0 105 30 127 91 76 211 153 420 230 630 137 374 273 747 409 1121 5 15 6 35 1 49-317 961-636 1921-955 2881-3 9-6 18-12 34z"/><path d="M18820 13146c-494 175-998 259-1517 254-422-4-834-67-1242-190 452-1296 904-2589 1359-3892 468 1281 934 2553 1400 3828zM13341 7174c706 1932 1412 3864 2119 5795-4 3-7 5-11 8-1055-527-1816-1330-2230-2440-422-1132-368-2257 108-3362 5 0 9 0 14-1zM19457 12854c22-66 45-131 68-196 323-914 646-1827 969-2741 137-391 276-781 408-1174 115-345 199-699 256-1058 39-248 63-496 56-747 0-10 0-19 6-30 175 313 306 643 391 989 254 1031 164 2032-291 2992-405 855-1033 1506-1855 1970-3-2-6-4-8-5z"/></g></svg>